<?xml version="1.0" encoding="utf-8"?>
<!-- Generator: Adobe Illustrator 23.0.6, SVG Export Plug-In . SVG Version: 6.00 Build 0)  -->
<svg version="1.1" id="Layer_1" xmlns="http://www.w3.org/2000/svg" xmlns:xlink="http://www.w3.org/1999/xlink" x="0px" y="0px"
	 viewBox="0 0 194.6 93.3" style="enable-background:new 0 0 194.6 93.3;" xml:space="preserve">
<style type="text/css">
	.st0{fill:#FFFFFF;}
</style>
<title>1</title>
<g id="_7">
	<path class="st0" d="M109.1,79.2l11.2-0.3l6-0.2c1.5,0,3,0,4.5-0.2c0.1,0,0.2,0,0.3,0c0.3,0.1,0.6,0.1,0.9,0c0.4-0.2,0.6-0.6,0.6-1
		c0.1-0.1,0.1-0.2,0.1-0.3c0.3-7.1,0-14.3,0-21.5c0-7.3,0-14.6-0.1-21.9c0-6.9,0.1-13.8-0.2-20.6c0-2.6-0.5-5.1-1.4-7.5
		c-0.6-1.6-1.5-3.1-2.6-4.3c-1.3-1.1-3.3-0.7-4.9-0.7l-6.8-0.1l-13.3-0.1L76.8,0.2C68.2,0.1,59.6,0.1,51,0c-7,0-14.5-0.2-21,3
		c-3.2,1.6-5.9,4.1-7.7,7.1C19,16,20.6,22.6,20.5,28.9h-0.1c-0.1,0.1-0.2,0.3-0.1,0.4c0,0,0.1,0.1,0.1,0.1c-0.1,4.7-0.2,9.4-0.2,14
		v0.1c-0.1,7.5-0.1,15-0.2,22.4c-0.1,0.1-0.1,0.2,0,0.3c0,4,0,8-0.1,12.1c0,0.4,0.3,0.7,0.7,0.7l8.1-0.1l18.4-0.2
		c0.6,1.3,1.9,1.8,4.2,1.1c0.2,0.9,0.4,1.7,0.7,2.6c1.5,3.9,4.4,8,8.4,9.6c0.1,0,0.2,0,0.3-0.1c5.4,2.3,11.7,1.5,16.4-2.1
		c3-2.3,5-5.7,5.7-9.4c1.1,0.1,2.2,0,3.4-0.2c0.3,0,0.5-0.3,0.6-0.6C94.2,79.8,101.6,79.5,109.1,79.2z M46.5,77.3
		c-0.1,0-0.2,0.1-0.2,0.1h-0.8l0.3-0.2c0.3-0.2,0-0.7-0.3-0.5l-1,0.7H43l2.7-2c0.3-0.2,0-0.7-0.3-0.5L42,77.5h-2.3l4.9-3.5
		c0.1,0,0.1-0.1,0.1-0.2l2.8-2.3C46.8,73.3,46.5,75.3,46.5,77.3z M81.8,79.8c-0.1-0.1-0.2-0.1-0.3,0l-4,2.9c-0.3,0.2,0,0.7,0.3,0.5
		l3.9-2.8c-0.5,2.8-1.9,5.3-3.9,7.3c-4.3,4.2-10.6,5.5-16.2,3.4c-2.4-0.9-4.4-2.5-6-4.5c-1-1.3-1.8-2.8-2.3-4.4
		c-0.4-1.3-0.6-2.7-0.7-4.1c0.1,0.1,0.2,0.1,0.3,0c0,0,0.1-0.1,0.1-0.1c-0.1-3.4,0.6-6.7,1.8-9.8c1.3-1.8,2.9-3.2,4.8-4.3l-4.3,4.2
		c-0.3,0.3,0.2,0.7,0.4,0.4l5.5-5.4c0.6-0.2,1.2-0.4,1.8-0.6l0.8-0.2l-6.2,5.5c-0.3,0.3,0.1,0.7,0.4,0.4l6.9-6.1
		c0.9-0.1,1.8-0.1,2.7-0.1l-7.6,6c-0.3,0.2,0.1,0.6,0.4,0.4l8-6.4c0.7,0.1,1.3,0.2,2,0.3l-7.7,6.2c-0.3,0.2,0.1,0.6,0.4,0.4l8-6.4
		c0.6,0.2,1.3,0.4,1.9,0.7L66.5,68c-0.3,0.2,0,0.7,0.3,0.5l6.6-4.8c0.1,0,0.1-0.1,0.1-0.2c0.8,0.4,1.6,0.8,2.3,1.3l-7.3,4.8
		c-0.3,0.2,0,0.7,0.3,0.5l7.5-5c1.1,0.9,2.1,1.9,2.9,3c-0.1-0.1-0.2-0.1-0.3,0l-6.7,4.8l0,0c0-0.1-0.1-0.2-0.3-0.2
		c-0.1,0-0.1,0-0.2,0.1c-0.3-0.3-0.6-0.6-1-0.9l6.9-5.2c0.3-0.2,0-0.7-0.3-0.5l-6.9,5.2c-0.1,0-0.1,0.1-0.1,0.2
		c-1.3-0.7-2.8-1-4.3-0.6c-0.2,0.1-0.2,0.4,0,0.4c2.5-0.2,5.2,1.1,5.9,3.7c0.6,2.6-0.9,5.2-3.4,6c-0.2,0-0.3,0.1-0.5,0.1
		c0,0,0,0,0-0.1c0.1,0,0.2,0,0.3,0l0.4-0.2c0.3-0.2,0-0.7-0.3-0.5l-0.4,0.2c-0.1,0-0.1,0.1-0.1,0.2h-0.1c-0.2,0-0.3,0.1-0.3,0.3
		c0,0.1,0,0.1,0.1,0.2c-0.4,0-0.9,0-1.3-0.1l2.5-1.9c0.3-0.2,0-0.7-0.3-0.5L66,80.9c-0.1,0.1-0.1,0.2-0.1,0.3
		c-0.3-0.1-0.6-0.2-0.8-0.4l1.8-1.3c0.3-0.2,0-0.7-0.3-0.5l-1.9,1.3h-0.1c-0.1,0-0.1,0-0.2,0.1c-0.2-0.2-0.4-0.4-0.7-0.6l2.1-1.5
		c0.3-0.2,0-0.7-0.3-0.5c-0.7,0.5-1.5,1-2.2,1.5c-0.2-0.2-0.3-0.5-0.5-0.7l1.9-1.5c0.3-0.2-0.1-0.6-0.4-0.4l-1.7,1.3l-0.1-0.2
		c-0.1-0.2-0.1-0.5-0.1-0.7l2.1-1.7c0.3-0.2-0.1-0.7-0.4-0.4l-1.7,1.4c0.3-1.8,1.2-3.5,2.8-4.5c0.3-0.2,0-0.6-0.3-0.6
		c-3,0.9-4.3,4.6-3.2,7.4c1.3,3,4.7,4.4,7.7,3.2c2.6-1.1,4.1-3.8,3.5-6.6c-0.2-0.6-0.4-1.2-0.8-1.8c0.1,0.1,0.2,0.1,0.3,0l6.7-4.8
		c0.1-0.1,0.2-0.2,0.1-0.3c0.2,0.3,0.4,0.7,0.7,1s0.4,0.8,0.6,1.2c-0.1-0.1-0.2-0.1-0.3-0.1c0,0,0,0,0,0l-6.8,4.8
		c-0.3,0.2,0,0.7,0.3,0.5l6.8-4.8c0.1-0.1,0.1-0.2,0.1-0.3c0.9,2,1.4,4.1,1.5,6.2c0,0-0.1,0-0.1,0.1l-7.1,5.4
		c-0.3,0.2,0,0.7,0.3,0.5c2.3-1.7,4.6-3.5,6.9-5.2C82,78.5,81.9,79.2,81.8,79.8z M84.3,79.2c0.2-4.1-0.7-8.3-2.8-11.8
		c-0.1-0.1-0.3-0.2-0.4-0.1c-0.1,0.1-0.2,0.2-0.1,0.4c2.1,3.5,3,7.6,2.8,11.6l-0.7,0.2c1.2-9-5.1-17.2-14-18.4
		c-4.7-0.6-9.5,0.8-13.1,4l-0.1,0.1c-3,2.6-4.9,6.3-5.3,10.3c0,0.1,0.1,0.3,0.2,0.4c0,0.2,0,0.4,0,0.6c-0.2,0.6-0.2,1.3,0,1.9
		c0,0.1,0.1,0.1,0.1,0.2c0,0,0,0.1,0,0.1c0,0.1,0,0.1,0.1,0.1c-0.4,0.1-0.7,0.1-1.1,0.1c-0.2-3.1,0.1-6.2,0.9-9.1
		c0-0.2-0.1-0.3-0.3-0.3c-0.1,0-0.2,0.1-0.3,0.2c-0.9,3-1.2,6.1-1,9.2c-0.7-0.2-1.1-0.9-1.1-1.6c0-1.2,0.1-2.5,0.3-3.7
		c0.4-1.7,0.9-3.3,1.6-4.8c5.4-9.1,17.1-12.1,26.1-6.7c1.7,1,3.2,2.2,4.5,3.7c1.7,1.9,3,4.2,3.8,6.6c0.8,2.3,0.8,4.6,1.1,6.9
		L84.3,79.2z M97.1,70.2l-9.6,8.7L86.9,79c0.1-0.4,0.1-0.9,0.1-1.3c0.1,0,0.2,0,0.2-0.1l7.1-6.5c0.3-0.3-0.1-0.7-0.4-0.4L87,77
		c0-0.9-0.1-1.8-0.3-2.7l7.1-5.6c0.3-0.2-0.1-0.6-0.4-0.4l-6.8,5.4c-0.2-0.7-0.4-1.3-0.6-2l5.1-3.7c0.3-0.2,0-0.7-0.3-0.5
		c-1.7,1.2-3.3,2.5-5,3.7c-0.1-0.3-0.3-0.7-0.4-1l2.3-1.7c0.3-0.2,0-0.7-0.3-0.5l-2.3,1.6c-0.3-0.6-0.6-1.1-0.9-1.6
		c0.1,0.1,0.2,0.1,0.4,0.1l1-0.6c0.1-0.1,0.2-0.3,0.1-0.4c-0.1-0.1-0.2-0.2-0.4-0.1l-1,0.6c-0.1,0.1-0.2,0.2-0.1,0.4c0,0,0,0,0,0
		c-0.7-1.1-1.4-2.1-2.2-3.1c-3.6-4.2-8.9-6.8-14.5-7c-8.6-0.3-16.4,4.8-19.6,12.8c-0.1,0-0.1,0-0.2,0.1l-3.5,2.9
		c0,0-0.1,0.1-0.1,0.2l-5.4,3.9h-3.3l6.5-4.2c0.3-0.2,0-0.7-0.3-0.5l-7.3,4.7h-2.7l5.5-3.7c0.3-0.2,0-0.7-0.3-0.5l-6.2,4.4l-3.7,0.1
		l4.6-3.3c0.3-0.2,0-0.7-0.3-0.5l-5.3,3.8l-4,0.1L29,74c0.3-0.2,0-0.7-0.3-0.5l-7.3,3.8c0-0.6,0-1.2,0-1.8l6-3.6
		c0.1-0.1,0.2-0.3,0.1-0.4s-0.3-0.2-0.4-0.1l-5.7,3.4v-1.4l6.5-4.7c0.3-0.2,0-0.7-0.3-0.5l-6.2,4.5c0-0.7,0-1.4,0-2.2l5.8-3.3
		c0.1-0.1,0.2-0.3,0.1-0.4c-0.1-0.1-0.2-0.2-0.4-0.1l-5.5,3.2c0-0.8,0-1.5,0-2.3l5.9-3.3c0.3-0.2,0-0.7-0.3-0.5L21.4,67
		c0-0.4,0-0.8,0-1.2l5.5-3.4c0.3-0.2,0-0.7-0.3-0.5l-5.2,3.3c0-0.7,0-1.4,0-2l7-4c0.3-0.2,0-0.7-0.3-0.5l-6.6,3.9c0-0.5,0-1.1,0-1.6
		l5.5-3.2c0.1-0.1,0.2-0.3,0.1-0.4c-0.1-0.1-0.2-0.2-0.4-0.1l-5.2,3.1c0-0.5,0-1.1,0-1.6l7.4-4.1c0.3-0.2,0-0.7-0.3-0.5L21.5,58
		c0-0.6,0-1.2,0-1.8l6.4-3.4c0.3-0.2,0-0.7-0.3-0.5l-6.1,3.3c0-0.6,0-1.1,0-1.6l4.3-2.2c0.3-0.2,0-0.7-0.3-0.5l-4,2.1
		c0-0.7,0-1.4,0-2.1l6.8-3.8c0.1-0.1,0.2-0.3,0.1-0.4c-0.1-0.1-0.2-0.2-0.4-0.1l-6.3,3.6c0-0.7,0-1.5,0-2.2l6.7-3.7
		c0.3-0.2,0-0.7-0.3-0.5l-6.4,3.5c0-0.5,0-1,0-1.5l5-2.7c0.3-0.2,0-0.7-0.3-0.5l-4.7,2.5c0-0.7,0-1.3,0-2l6.5-3.1
		c0.3-0.2,0-0.7-0.3-0.5l-6.2,3c0-0.6,0-1.3,0-1.9l5.7-2.8c0.3-0.2,0-0.7-0.3-0.5l-5.4,2.7c0-0.7,0-1.3,0-2c2.1-1.3,4.2-2.6,6.4-3.9
		c0.1-0.1,0.2-0.3,0.1-0.4c-0.1-0.1-0.2-0.2-0.4-0.1l-6,3.6v-2l6.1-4c0.3-0.2,0-0.7-0.3-0.5l-5.8,3.8c0-0.6,0-1.1,0-1.7l6.3-3.9
		c0.3-0.2,0-0.7-0.3-0.5l-6,3.8v-1.6l5.9-3.6c0.1-0.1,0.1-0.3,0-0.4c-0.1-0.1-0.2-0.1-0.3-0.1l-5.6,3.4c0-0.4,0-0.9,0-1.3l6.1-3.6
		c0.1-0.1,0.2-0.3,0.1-0.4s-0.3-0.2-0.4-0.1l0,0l-5.8,3.4c0-0.6,0-1.2,0-1.7h0l6.4-4.1c0.3-0.2,0-0.7-0.3-0.5l-6.2,3.9
		c0-0.6,0-1.1,0-1.7l5.8-3.2c0.3-0.2,0-0.7-0.3-0.5l-5.5,3.1c0-0.5,0-1,0-1.6l6-3.6c0.1-0.1,0.2-0.3,0.1-0.4
		c-0.1-0.1-0.2-0.2-0.4-0.1l-5.7,3.4c0-0.4,0-0.8,0-1.2l4.7-2.9c0.3-0.2,0-0.7-0.3-0.5l-4.5,2.7c0-0.4,0-0.9,0-1.3l5.8-3.6
		c0.3-0.2,0-0.7-0.3-0.5l-5.6,3.4c0-0.3,0-0.7,0-1l5.3-3.6c0.3-0.2,0-0.7-0.3-0.5l-5.1,3.4c0-0.3,0-0.6,0-0.9l5.1-3.8
		c0.3-0.2,0-0.7-0.3-0.5l-4.7,3.5c0.2-0.6,0.4-1.1,0.6-1.7l5.6-4.2c0.3-0.2,0-0.7-0.3-0.5l-4.8,3.5c2.1-3.8,5.5-6.7,9.6-8.2
		c6.9-2.6,14.5-2,21.7-1.9C69.7,1.4,85.3,1.6,101,1.7c7.5,0.1,15,0.2,22.6,0.3c-2.1,1.2-4.1,2.6-5.9,4.1c-0.2,0.2,0.1,0.5,0.3,0.4
		c2.2-1.3,4.2-2.7,6.1-4.3c0,0,0.1-0.1,0.1-0.1h2.7c-2.8,1.7-5.5,3.7-8,5.8c-0.2,0.2,0,0.5,0.3,0.4c2.9-1.8,5.7-3.8,8.3-6l0,0
		c2.6,2.1,3.5,5.1,3.9,8.3c-2.4,1.3-4.6,2.8-6.7,4.5c-0.2,0.2,0.1,0.5,0.3,0.3c2.3-1.2,4.5-2.7,6.5-4.4c0.1,0.7,0.1,1.5,0.1,2.2
		c-2.1,1.2-4,2.6-5.9,4.1c-0.2,0.2,0.1,0.5,0.3,0.4c2-1.2,3.8-2.5,5.6-3.9c0,0.9,0,1.8,0,2.7c0,0-0.1,0-0.1,0
		c-2.2,1.3-4.3,3-6.3,4.5c-0.2,0.2,0,0.6,0.2,0.4c2.1-1.4,4.3-2.8,6.2-4.4c0,6.6,0,13.2,0,19.8c0,6.6,0,13.2,0,19.8
		c0,6.7-0.2,13.4,0.1,20.1c-0.1,0.3-0.3,0.5-0.5,0.7c-0.8-0.1-1.6-0.2-2.4-0.1l1.6-0.7c0.3-0.2,0-0.6-0.3-0.5l-2.1,1
		c-0.1,0-0.2,0.2-0.1,0.3c0,0,0,0,0,0l-1.5,0.1l-5.1,0.2l8.4-6.7c0.3-0.2-0.1-0.6-0.4-0.4l-8.8,7c0,0-0.1,0.1-0.1,0.1h-0.1l-2.8,0.1
		c0,0,0-0.1,0-0.1l11.1-9.5c0.3-0.3-0.1-0.7-0.4-0.4l-11.2,9.6c-0.1,0.1-0.1,0.2,0,0.4c0,0,0,0,0,0l0,0l-8,0.3l-3.6,0.1l8.1-7.3
		c0.3-0.3-0.1-0.7-0.4-0.4l-8.6,7.7c-4.3,0.1-8.7,0.3-13,0.5c0.1,0,0.1,0,0.2-0.1l7.7-7.3c0.3-0.3-0.1-0.7-0.4-0.4l-7.7,7.3
		c-0.1,0.1-0.1,0.3,0,0.4c0,0,0.1,0.1,0.2,0.1c-1.1,0.1-2.1,0.1-3.1,0.2l9.1-8.2C97.7,70.4,97.3,70,97.1,70.2z"/>
	<path class="st0" d="M194.2,51.8c-0.4-1-1.7-2.1-2.7-1.7c-0.1,0-0.2,0-0.3,0l0,0c-0.4-0.2-0.7-0.4-1-0.7c-1.1-7.1-3-14.1-5.7-20.8
		c-2.6-6.4-5.8-13.1-11.5-17.4c-6.6-5-15.4-4.5-23.2-3.9c-5.1,0.4-11.4,1.7-13.6,6.9c-0.5,1.2-0.8,2.4-1.1,3.6
		c-0.1,0.5-0.1,2.9-0.4,3.2l0,0c-0.1,0.1-0.2,0.3-0.1,0.4c0,0,0,0,0.1,0.1c-0.1,0.7-0.1,1.4-0.1,2.2c0,1.3-0.1,2.6-0.1,3.9l0,0
		c-0.1,0.1-0.1,0.2-0.1,0.3c0,0,0,0,0.1,0.1c0,2.4,0,4.8,0.1,7.2c-0.1,0.1-0.1,0.2,0,0.4c0,0,0,0,0,0c0,0.4,0,0.7,0,1.1l-0.1,0.1
		c-0.2,0.2-0.1,0.4,0.2,0.5c0,1.2,0,2.5,0,3.7c0,3.9,0.1,7.8,0.1,11.7c0,0.1,0,0.2,0,0.2c0,3,0.1,6.1,0.1,9.1
		c-0.1,0.1-0.1,0.2,0,0.4c0,0,0,0,0,0c0.1,4.9,0.1,9.8,0.2,14.6c0,0.4,0.3,0.7,0.7,0.7c0,0,0,0,0,0c1.4-0.1,2.9-0.3,4.3-0.4
		c0,0.1,0,0.2,0,0.3c0.2,0.9,1.8,0.7,2.5,0.7c0.2,0,0.4-0.1,0.5-0.3c0.1,0.2,0.1,0.4,0.2,0.7c0.2,1.9,0.8,3.8,1.7,5.6
		c2.2,4.3,7.3,8.2,12.3,8.5c4.4,0.6,8.9-0.5,12.4-3.2c3.2-2.5,5.3-6,5.9-10c0.3,0.2,0.6,0.2,0.9,0.2c0.4,0.1,0.8-0.1,1.1-0.4
		c4-0.1,8.1-0.4,12.1-0.5c0.3,0,0.5-0.2,0.6-0.4c0.1-0.6,0.2-1.2,0.3-1.9c1.3,1.3,3-0.2,3.3-1.7c0.2-1.8,0.2-3.7,0.1-5.5
		c0-1.7,0-3.4-0.2-5.1c0-0.2,0.6-1,0.7-1.3c0.2-0.5,0.2-1,0.2-1.5c0-1.4,0-2.8,0-4.2C194.5,55.5,194.8,53.5,194.2,51.8z M168.2,83.3
		l6.5-5.8c0,1.5-0.3,3-0.8,4.5l-5,3.6c-0.3,0.2,0,0.7,0.3,0.5l4.3-3.1c-0.3,0.7-0.7,1.4-1.1,2.1c-0.1-0.1-0.2-0.1-0.3,0l-4.2,2.7
		c-0.3,0.2,0,0.7,0.3,0.5l3.6-2.3c-0.4,0.5-0.8,0.9-1.2,1.4c-4.3,4.2-10.6,5.5-16.2,3.4c-6.7-2.6-10.5-10.3-9-17.3
		c0-0.1,0-0.1,0-0.2c0.3-1.4,0.7-2.8,1.3-4.2c1.6-2.7,3.9-4.8,6.7-6.1l-6.4,6.9c-0.3,0.3,0.1,0.7,0.4,0.4l7.2-7.8
		c0.4-0.1,0.8-0.3,1.2-0.4c0.5-0.1,1.1-0.2,1.6-0.3c-2.9,2.2-5.4,4.8-7.6,7.7c-0.2,0.3,0.3,0.6,0.5,0.3c2.3-3,5-5.7,8.1-8
		c0,0,0,0,0.1-0.1c0.9-0.1,1.7-0.1,2.6,0l-7.8,6.8c-0.3,0.2,0.1,0.7,0.4,0.4l8.1-7.1c0.7,0.1,1.3,0.3,2,0.4l-8.1,6.7
		c-0.3,0.2,0.1,0.6,0.4,0.4l8.3-6.9l0,0c0.7,0.2,1.4,0.5,2,0.8l-7.9,6.6c-0.3,0.2,0.1,0.7,0.4,0.4l8-6.7c0.7,0.4,1.3,0.8,1.9,1.2
		l-7.3,6c-0.3,0.2,0.1,0.6,0.4,0.4l7.3-6.1c1.3,1.1,2.4,2.3,3.3,3.8c-0.1-0.1-0.3-0.1-0.4,0l-7.4,6.4c-0.3,0.2,0.1,0.6,0.4,0.4
		l7.4-6.4c0.1-0.1,0.1-0.1,0.1-0.2c0.4,0.7,0.7,1.4,1,2.1l-7.6,6.5c-0.3,0.2,0.1,0.6,0.4,0.4l7.3-6.3c0.3,0.9,0.5,1.8,0.7,2.7
		l-9.1,6.9c-0.3,0.2,0,0.7,0.3,0.5l8.9-6.8c0.1,0.5,0.1,1.1,0.1,1.6l-6.9,6.2C167.5,83.2,167.9,83.6,168.2,83.3L168.2,83.3z
		 M176.9,78.3C176.8,78.3,176.8,78.3,176.9,78.3l-0.7,0c0.4-6-2-11.9-6.5-15.9c-0.3-0.3-0.7,0.2-0.4,0.4c2.1,1.8,3.7,4.1,4.8,6.6
		c-3.1-5.8-9.3-9.3-15.8-8.8c-7.3,0.6-14,6.4-14.8,13.8c-0.3,0.8-0.4,1.7-0.3,2.6c-0.1-0.1-0.2-0.1-0.3-0.1h-0.5
		c0.1-4.8,1.9-9.4,5.1-13c0.2-0.3-0.2-0.7-0.4-0.4c-3.3,3.7-5.1,8.4-5.3,13.4c-0.2,0-0.4,0-0.7,0.1v-0.3c0-0.1,0-0.3,0-0.4l0,0
		c0.5-2,0.4-4.2,1.2-6.2c0.8-2.3,2.1-4.5,3.8-6.3c3.6-3.9,8.7-6,13.9-5.7c4.7,0.3,9.2,2.3,12.4,5.8c0,0.1,0.1,0.3,0.2,0.3
		c1.9,2.2,3.2,4.8,3.9,7.6c-0.1,0.1-0.1,0.3,0.1,0.4c0,0,0,0,0,0C177,74.1,177.1,76.2,176.9,78.3L176.9,78.3z M179.4,78l3-1.8
		c0.1-0.1,0.2-0.3,0.1-0.4s-0.3-0.2-0.4-0.1l-3.2,1.9c-0.1,0.1-0.2,0.3-0.1,0.4c0,0,0,0,0,0h-0.7c0-0.2,0-0.4,0.1-0.6l2.7-2.2
		c0.3-0.2-0.1-0.6-0.4-0.4l-2.2,1.8c0-0.7,0-1.4,0-2.1c0,0,0.1,0,0.1,0l2.1-1.3c0.3-0.2,0-0.7-0.3-0.5l-2,1.3c0-0.3,0-0.5-0.1-0.8
		l2.5-2.1c0.3-0.2-0.1-0.7-0.4-0.4l-2.2,1.8c-0.1-0.4-0.1-0.8-0.3-1.3l1.5-1c0.3-0.2,0-0.7-0.3-0.5l-1.3,0.9c-0.1-0.3-0.2-0.6-0.3-1
		l2.5-2c0.3-0.2-0.1-0.6-0.4-0.4l-2.4,1.9c-0.1-0.4-0.3-0.8-0.5-1.2l0.3-0.1c0.3-0.2,0-0.7-0.3-0.5l-0.2,0.1c-0.2-0.3-0.3-0.7-0.5-1
		l1.8-1.4c0.3-0.2-0.1-0.6-0.4-0.4l-1.6,1.3c-0.3-0.5-0.6-1-0.9-1.4l2.5-1.9c0.3-0.2,0-0.7-0.3-0.5l-2.5,2c-0.2-0.3-0.4-0.6-0.7-0.9
		l2.1-1.5c0.3-0.2,0-0.7-0.3-0.5l-2.2,1.5c-0.3-0.3-0.6-0.6-0.9-0.9l2.5-1.7c0.3-0.2,0-0.7-0.3-0.5l-2.6,1.7c-0.5-0.4-1-0.9-1.5-1.3
		l2.3-1.3c0.3-0.2,0-0.7-0.3-0.5l-2.5,1.4c-0.3-0.2-0.6-0.4-0.9-0.6l2-1.2c0.1-0.1,0.2-0.3,0.1-0.4c-0.1-0.1-0.2-0.2-0.4-0.1
		c-0.8,0.4-1.6,0.9-2.3,1.3l-0.7-0.4l1.7-1c0.3-0.2,0-0.7-0.3-0.5l-2,1.2l-0.6-0.3l1-0.4c0.3-0.1,0.2-0.7-0.2-0.6l-1.4,0.6
		c0,0-0.1,0.1-0.1,0.1l-0.7-0.3l2-1.2c0.1-0.1,0.2-0.3,0.1-0.4c-0.1-0.1-0.2-0.2-0.4-0.1l-2.4,1.5l0,0c-0.8-0.2-1.6-0.4-2.4-0.5
		l2.6-1.3c0.3-0.2,0-0.7-0.3-0.5l-2.9,1.4c-0.1,0-0.2,0.2-0.1,0.3l-0.6-0.1l1.6-0.9c0.3-0.2,0-0.7-0.3-0.5l-2.5,1.4
		c-0.4,0-0.8,0-1.2,0l0.8-0.4c0.3-0.2,0-0.7-0.3-0.5l-1.6,0.9c-0.1,0-0.1,0.1-0.1,0.1c-4.6,0.5-8.9,2.7-12,6.1l-0.1,0.1
		c0-0.6,0-1.2,0-1.8l2.1-1.6c0.3-0.2,0-0.7-0.3-0.5l-1.9,1.4c0-0.4,0-0.8-0.1-1.3l2.1-1.6c0.3-0.2,0-0.7-0.3-0.5l-1.8,1.4
		c0-0.2,0-0.3,0-0.5s0-0.2,0-0.3l1.9-1.4c0.3-0.2,0-0.7-0.3-0.5l-1.6,1.2c0-0.5,0-1,0-1.5l0.5-0.3c0.3-0.2,0-0.7-0.3-0.5l-0.2,0.1
		c0-0.4,0-0.8,0-1.3l1.7-1c0.3-0.2,0-0.7-0.3-0.5l-1.4,0.8c0-0.7,0-1.5-0.1-2.2c11.1,0.3,22.3-0.2,33.4-0.4c1.3,0,2.6-0.2,3.9-0.1
		s1.5,0.6,1.5,1.4l-0.2,0.1c-0.1,0.1-0.2,0.3-0.1,0.4c0.1,0.1,0.2,0.2,0.3,0.1c0,0.3,0,0.6,0,0.9c0.1,2.8,0.2,5.7,0.3,8.5
		s0.2,5.7,0.2,8.5c-0.1,0.1-0.1,0.2,0,0.3c0.1,2.1,0.2,4.3,0.3,6.4c0,0.1,0,0.1,0,0.2c0,0.4,0,0.7,0,1L179.4,78z M189.6,74.4
		c-0.1,1.2,0.1,2.9-1.2,3.3c-1.1,0.2-2.2,0.2-3.3,0.1c0-0.4,0-0.8,0-1.2l1.6-1c0.1-0.1,0.2-0.3,0.1-0.4c-0.1-0.1-0.2-0.2-0.4-0.1
		l-1.3,0.8c0-0.6,0-1.2-0.1-1.8c0,0,0.1,0,0.1,0c0.6-0.3,1.2-0.7,1.9-1c0.3-0.2,0-0.7-0.3-0.5l-1.7,0.9c0-0.6,0-1.2-0.1-1.7l1.2-0.6
		c0.3-0.2,0-0.7-0.3-0.5l-0.9,0.5c0-0.4,0-0.8-0.1-1.2l1.6-1c0.1-0.1,0.2-0.3,0.1-0.4c-0.1-0.1-0.2-0.2-0.4-0.1l-1.3,0.8
		c0-0.8-0.1-1.5-0.1-2.3l2-1.1c0.3-0.2,0-0.7-0.3-0.5l-1.8,0.9c0-0.4,0-0.8-0.1-1.3l2-1.2c0.1-0.1,0.2-0.3,0.1-0.4
		c-0.1-0.1-0.3-0.2-0.4-0.1l-1.7,1c0-0.4,0-0.7,0-1.1l1.9-0.9c0.3-0.2,0-0.7-0.3-0.5l-1.6,0.8l-0.1-1.7l0,0l1.3-0.7
		c0.3-0.2,0-0.7-0.3-0.5l-1,0.6c0-0.5-0.1-1.1-0.1-1.6l2-1.1c0.3-0.2,0-0.7-0.3-0.5l-1.7,0.9c0-0.5-0.1-1-0.1-1.5l2.1-1.1
		c0.3-0.2,0-0.7-0.3-0.5l-1.8,1c0-0.7-0.1-1.5-0.1-2.2l1.5-0.7c0.3-0.2,0-0.7-0.3-0.5l-1.3,0.6c0-0.5,0-1-0.1-1.6l1.9-1.1
		c0.1-0.1,0.2-0.3,0.1-0.4c-0.1-0.1-0.2-0.2-0.4-0.1l-1.6,1c0-0.3,0-0.6,0-0.9l1-0.7c0.1-0.1,0.2-0.3,0.1-0.4
		c-0.1-0.1-0.2-0.2-0.4-0.1l-1,0.6c0-0.2-0.2-0.3-0.3-0.3c-6.6-0.1-13.2,0.1-19.8,0.2s-13,0-19.4,0.3c-0.2-0.2-0.5-0.2-0.7,0
		c-0.1,0.1-0.1,0.2-0.1,0.3c0,2.5,0.2,4.9,0.3,7.4c0.1,1.2,0.1,2.3,0.1,3.5l0,0c-0.1,0.1-0.2,0.3-0.1,0.4c0,0,0,0.1,0.1,0.1
		c0,0.8,0.1,1.5,0.2,2.3c-1.4,1.8-2.4,3.7-3.1,5.9c-0.8,2-1,4.1-0.9,6.2l-1.3,0.1l0.8-0.6c0.3-0.2,0-0.7-0.3-0.5l-1.7,1.2l-1.1,0.1
		c0-0.3,0-0.6,0-1l0,0l2.4-2c0.3-0.2-0.1-0.7-0.4-0.4l-2.1,1.7c0-0.8,0-1.6,0-2.4l2.8-2.3c0.3-0.2-0.1-0.7-0.4-0.4l-2.4,2
		c0-0.2,0-0.5,0-0.7l3.2-2.6c0.3-0.2-0.1-0.6-0.4-0.4l-2.8,2.3v-2l2.4-1.7c0.3-0.2,0-0.7-0.3-0.5l-2.1,1.5c0-0.4,0-0.8,0-1.2
		l3.1-2.3c0.3-0.2,0-0.7-0.3-0.5l-2.8,2.1V64l4.5-3.9c0.3-0.2-0.1-0.7-0.4-0.4l-4.1,3.6v-1.6l3.4-3c0.3-0.3-0.1-0.7-0.4-0.4
		l-2.9,2.7v-2c0,0,0.1,0,0.1-0.1l4.4-3.7c0.3-0.2-0.1-0.7-0.4-0.4l-4.1,3.5c0-0.2,0-0.5,0-0.7l3.4-2.9c0.3-0.2-0.1-0.7-0.4-0.4
		l-3,2.6c0-0.4,0-0.9,0-1.3l4.2-3.3c0.3-0.2-0.1-0.6-0.4-0.4l-3.8,3c0-0.8,0-1.6,0-2.3l3.9-3.2c0.3-0.2-0.1-0.7-0.4-0.4l-3.6,2.9
		c0-0.8,0-1.6,0-2.4l3.8-3.2c0.3-0.2-0.1-0.7-0.4-0.4l-3.7,2.8v-1.9l3.6-2.7c0.3-0.2,0-0.7-0.3-0.5l-3.3,2.5c0-0.7,0-1.4,0-2.1
		l2.9-2.2c0.3-0.2,0-0.7-0.3-0.5l-2.6,2v-0.4c0-0.3,0-0.7,0-1c0,0,0.1,0,0.1-0.1l3.3-2.7c0.3-0.2-0.1-0.6-0.4-0.4l-3,2.5
		c0-0.8,0-1.7,0-2.5l3.6-2.6c0.3-0.2,0-0.7-0.3-0.5l-3.3,2.4v-1.4l3.1-2.6c0.3-0.2-0.1-0.6-0.4-0.4l-2.7,2.2c0-0.3,0-0.5,0-0.8
		l3.4-2.8c0.3-0.2-0.1-0.6-0.4-0.4l-3,2.5v-1.3l3.7-3.2c0.3-0.2-0.1-0.7-0.4-0.4l-3.4,2.8c0-0.8,0-1.6,0-2.3l3.5-3
		c0.3-0.2-0.1-0.7-0.4-0.4L136,29v-1.6l3.4-2.9c0.3-0.2-0.1-0.6-0.4-0.4l-3.3,2.6c0-0.2,0-0.4,0-0.5v-0.6l3.6-3
		c0.3-0.2-0.1-0.7-0.4-0.4l-3.2,2.7c0-0.4,0-0.8,0-1.3l5.2-4c0.3-0.2-0.1-0.6-0.4-0.4l-4.8,3.7c0-0.6,0-1.2,0.1-1.8l4.6-3.4
		c0.3-0.2,0-0.7-0.3-0.5l-4.2,3.1c0-0.1,0-0.1,0-0.2c0.1,0,0.2-0.1,0.2-0.2c0,0,0,0,0-0.1c0-0.2-0.1-0.5-0.1-0.7v-0.1l3.2-2.9
		c0.3-0.3-0.1-0.7-0.4-0.4l-2.6,2.4c0.2-1.2,0.5-2.4,0.9-3.6c1.4-2.2,3.5-4,6-4.8c3.9-1.4,8.2-1.4,12.2-1.5s8.4,0,12.3,1.4
		c3.6,1.3,6.7,3.6,9,6.6c4.9,6,7.7,13.7,9.9,21C189.9,49.3,191,62,189.6,74.4L189.6,74.4z M190.8,75.9c0,0-0.1-0.1-0.2-0.1
		c0.5-3.7,0.8-7.5,0.8-11.2c0.6,0,1.2,0.3,1.5,0.8c0,1.2,0,2.3,0.1,3.5v2.8C193,72.2,193.2,78,190.8,75.9L190.8,75.9z M193.8,57.7
		c0,0.7-0.1,1.5-0.1,2.2s-0.5,5.1-2.2,3.2c-0.5-0.5-0.1-2.7-0.2-3.4c0-1.3-0.1-2.6-0.3-4s-1.1-3.4,0.4-4.4c1.3-0.8,2,1.4,2.2,2.4
		C193.8,55.1,193.9,56.4,193.8,57.7L193.8,57.7z"/>
	<path class="st0" d="M159.9,71.9L159.9,71.9c-0.1-0.1-0.2-0.1-0.3-0.1c-2.7-0.4-5.2,1.4-5.6,4.1c0,0,0,0.1,0,0.1
		c-0.3,2.8,1.7,5.3,4.4,5.7c2.7,0.3,5.2-1.6,5.6-4.4C164.4,74.7,162.5,72.3,159.9,71.9z M163.2,76.8c-0.1,1.5-1.1,2.8-2.5,3.4
		c0-0.1-0.1-0.2-0.2-0.3c0,0-0.1,0-0.1,0l-1.5,0.6c-0.1,0-0.2,0-0.3,0c-0.4-0.1-0.8-0.2-1.1-0.3l1.6-0.9c0.1-0.1,0.2-0.3,0.1-0.4
		s-0.3-0.2-0.4-0.1l-1.9,1.1c-0.3-0.2-0.6-0.5-0.8-0.7l2.4-1.5c0.3-0.2,0-0.7-0.3-0.5l-2.5,1.5c-0.1-0.2-0.3-0.5-0.4-0.7l0,0
		l1.9-1.4c0.3-0.2,0-0.7-0.3-0.5l-1.8,1.3c-0.1-0.3-0.1-0.5-0.1-0.8c0.7-0.5,1.3-1,2-1.5c0.3-0.2,0-0.7-0.3-0.5l-1.6,1.2
		c0.6-1.9,2.3-3.2,4.3-3.4c0.1,0,0.2,0,0.2-0.1c0,0,0.1,0,0.1,0.1C161.8,73,163.2,74.8,163.2,76.8L163.2,76.8z"/>
	<path class="st0" d="M182.7,46.5c0.6-0.1,0.5-0.7,0.1-1c0-0.5-0.1-0.9-0.2-1.4c0.5-0.3,0.9-0.6,1.4-1s0-0.7-0.3-0.5l-1.2,0.8
		c-0.1-0.3-0.1-0.6-0.2-0.8l1.4-1c0.3-0.2,0-0.7-0.3-0.5l-1.2,0.9c-0.2-0.8-0.5-1.7-0.7-2.5l1.8-1.2c0.3-0.2,0-0.7-0.3-0.5l-1.7,1.2
		c-0.1-0.3-0.2-0.6-0.2-0.8c-0.2-0.8-0.4-1.5-0.7-2.2l2.1-1.2c0.1-0.1,0.2-0.3,0.1-0.4c-0.1-0.1-0.2-0.2-0.4-0.1l-2,1.2
		c-0.2-0.5-0.3-1-0.5-1.5l2.3-1.3c0.3-0.2,0-0.7-0.3-0.5l-2.2,1.3c-0.1-0.4-0.3-0.8-0.4-1.1l1.3-1c0.3-0.2-0.1-0.6-0.4-0.4l-1.1,0.8
		c0-0.1-0.1-0.3-0.2-0.4s-0.2-0.5-0.3-0.7l1.2-0.8c0.3-0.2,0-0.7-0.3-0.5l-1.1,0.7c-0.2-0.4-0.4-0.7-0.5-1.1l2.1-1.7
		c0.3-0.2-0.1-0.6-0.4-0.4l-2,1.6c-0.2-0.3-0.3-0.6-0.5-0.9l1.4-0.9c0.3-0.2,0-0.7-0.3-0.5l-1.4,0.9l-0.5-0.8l1.2-1
		c0.3-0.2-0.1-0.6-0.4-0.4l-1.1,0.9c-0.1-0.2-0.3-0.4-0.4-0.6l0,0l1.4-1.3c0.3-0.2-0.1-0.7-0.4-0.4l-1.3,1.3
		c-0.2-0.3-0.5-0.6-0.7-0.9l2.2-1.5c0.3-0.2,0-0.7-0.3-0.5l-2.3,1.5c-0.2-0.3-0.4-0.5-0.6-0.8l2.3-1.6c0.3-0.2,0-0.7-0.3-0.5
		l-2.3,1.6l-0.1,0.1l-0.6-0.6l1.9-1.1c0.3-0.2,0-0.7-0.3-0.5l-2,1.1l-0.8-0.7l2.6-1.7c0.3-0.2,0-0.7-0.3-0.5l-2.7,1.7l0,0l-0.1-0.1
		l-0.6-0.5l3.4-2.2c0.1-0.1,0.1-0.3,0-0.4c-0.1-0.1-0.2-0.1-0.3-0.1l-3.6,2.3c-0.3-0.2-0.6-0.4-0.9-0.6l3-1.9c0.3-0.2,0-0.7-0.3-0.5
		l-3.3,2.1c-0.3-0.2-0.5-0.3-0.8-0.4l0.9-0.7c0.3-0.2,0-0.7-0.3-0.5l-1.2,0.9c-0.4-0.2-0.9-0.4-1.4-0.6l1.7-1
		c0.1-0.1,0.2-0.3,0.1-0.4c-0.1-0.1-0.3-0.2-0.4-0.1l0,0l-2.1,1.2l-0.8-0.3l0.9-0.5c0.3-0.2,0-0.7-0.3-0.5l-1.1,0.6
		c-0.1,0-0.1,0.1-0.1,0.2c-0.4-0.1-0.8-0.2-1.2-0.3l1.8-1.2c0.3-0.2,0-0.7-0.3-0.5c-0.8,0.5-1.6,1-2.4,1.5c-0.7-0.1-1.4-0.2-2.1-0.2
		l2.3-1.5c0.3-0.2,0-0.7-0.3-0.5l-3,2c-0.7,0-1.4,0-2.1,0l2.9-1.8c0.3-0.2,0-0.7-0.3-0.5l-3.9,2.4c-0.5,0-0.9,0.1-1.4,0.2l2-1.2
		c0.1-0.1,0.2-0.3,0.1-0.4c-0.1-0.1-0.3-0.2-0.4-0.1l-3.2,1.9l-1.1,0.2l2.1-1.3c0.3-0.2,0-0.7-0.3-0.5l-3.4,2.2l-1.2,0.3h-0.1
		l2.3-1.6c0.3-0.2,0-0.7-0.3-0.5l-3.3,2.2c-0.1,0-0.1,0-0.2,0.1l-0.4,0.3c-2.4,0.9-3.7,2.2-4,5.4c-0.3,2.8,0.1,5.6,0.2,8.4
		c0.1,5,0.6,9.9,1.1,14.8c0,0.2,0.1,0.4,0.3,0.5c-0.2,0.1-0.2,0.4-0.1,0.5c0.1,0.1,0.2,0.2,0.3,0.2c6.6,0.4,13.3,0,19.8-0.2l9.5-0.2
		c3,0.1,6.1,0,9.1-0.3C182.4,46.5,182.5,46.5,182.7,46.5L182.7,46.5z M180.4,45.2c-2.4-0.1-4.9,0.2-7.3,0.2l-9.9,0.2
		c-6.2,0.2-12.6,0-18.9,0.6c0-0.1,0-0.2,0-0.3c-0.6-5-0.9-10-1-15c-0.2-5.9-2.3-12.2,5.1-13.7c7.8-1.6,16.1-1.6,22.2,4.2
		c3.2,3.2,5.7,7,7.3,11.3c0.8,2.2,1.6,4.5,2.2,6.8c0.3,0.9,0.4,1.9,0.6,2.8C180.7,43.4,180.6,44.3,180.4,45.2L180.4,45.2z"/>
	<path class="st0" d="M74.7,20.4c-2.9,1.4-3.8,5.5-1.3,7.7c0.3,0.3,0.9-0.1,0.6-0.5c-1.3-2.3-0.9-5.4,2-6.2c2.5-0.6,5.1,1,5.7,3.5
		c0.7,2.5-0.4,5.1-2.7,6.4c-1.5,0.8-3.2,1.2-4.5,2.2c-1.8,1.4-2.8,4.3-0.9,6.1c2.3,2.3,6.8,0.8,9.6,0.4c0.9-0.1,0.5-1.5-0.4-1.4
		c-2.2,0.3-8.7,2.2-8.8-1.6c-0.1-2.9,4.1-3.6,5.9-4.9c2.9-1.9,4-5.5,2.8-8.7c-1.3-3-4.7-4.4-7.7-3.2C74.8,20.3,74.8,20.4,74.7,20.4z
		"/>
	<path class="st0" d="M85.1,31.1c0.7,2.4,4,2.2,6.3,2c0,2.3,0.1,4.6,0.1,6.8c0,0.4,0.4,0.6,0.7,0.6c0.3,0,0.5-0.3,0.6-0.6
		c0-5.4,0.3-11.1-0.4-16.4c-0.1-0.3-0.6-0.3-0.6,0c-0.3,2.7-0.5,5.5-0.5,8.3c-0.8,0-1.7,0-2.5-0.1c-1.1-0.2-2.2-0.1-2.4-1.4
		c-0.1-0.7-0.1-1.4,0-2.1c0-2.3,0.3-5.1-0.5-7.3c0-0.1-0.2-0.2-0.3-0.1c-0.1,0-0.1,0.1-0.1,0.1c-0.7,1.7-0.4,3.8-0.5,5.7
		C84.8,28,84.9,29.6,85.1,31.1z"/>
	<path class="st0" d="M98.7,33.8c0.2-0.1,0.3-0.3,0.5-0.4c-0.1,2.3,0.1,4.7,0.6,7c0.1,0.4,0.8,0.5,0.9,0c0.2-2.6,0.2-5.2-0.3-7.8
		h0.1c0.7-0.2,1.5,0.1,1.9,0.8c0.1,0.4,0.2,0.9,0.1,1.3c-0.1,1.8-0.3,3.7-0.2,5.5c0,0.4,0.4,0.6,0.7,0.6c0.3,0,0.5-0.3,0.6-0.6
		c0.2-1.8,0.3-3.6,0.2-5.5c0.1-1-0.2-2-0.8-2.8c-0.7-0.6-1.8-0.7-2.7-0.2l-0.1-0.7c-0.2-3.1-0.4-6.3-0.8-9.4
		c-0.1-0.3-0.6-0.2-0.6,0.1c-0.1,3.3,0.1,6.5,0.3,9.8c0,0.4,0,0.8,0,1.2c-0.3,0.3-0.5,0.6-0.7,1C98.4,33.7,98.6,33.9,98.7,33.8z"/>
	<path class="st0" d="M113.5,32.7c-0.3-6.7-3.7-12.8-9.2-16.5c0.6,0.2,1.2,0.4,1.9,0.5c0.3,0,0.6-0.3,0.3-0.6
		c-1.6-1.1-3.5-1.9-5.5-2.2c-2-0.5-4-0.8-6.1-0.7c-1-0.2-2-0.3-3-0.3c-0.1,0-0.2,0.1-0.2,0.3c0,0.1,0.1,0.2,0.2,0.2
		c2.4,0.5,4.8,1.5,6.9,2.8c2.2,1.4,3.5,3.3,5.3,5.1c0.2,0.1,0.4,0.1,0.5,0c0.1-0.1,0.1-0.2,0.1-0.4c-0.8-2.3-2.3-4.3-4.4-5.5
		c6.3,2.6,10.8,8.3,11.8,15c1.4,8.6-3.4,17.5-10.9,21.8c-15.6,9.1-36.8-2.3-36-20.8c0.5-9.6,7.4-17.8,16.8-19.8
		c0.2,0,0.1-0.4-0.1-0.4c-8.7,1.5-15.7,8.2-17.5,16.9c-1.7,9,1.9,18.1,9.3,23.6c7.4,5.5,17.2,6.6,25.7,2.9
		C108.1,50.8,113.7,42.2,113.5,32.7z"/>
	<path class="st0" d="M50.8,89.1c-12.4-1.8-24.8-3.3-37.3-4.6c-0.3,0-0.4,0.5-0.1,0.5c12.4,1.7,24.8,3.3,37.3,4.5
		C50.9,89.5,51,89.1,50.8,89.1z"/>
	<path class="st0" d="M42.9,90.8C28.7,90.3,14.5,90,0.2,89.8c-0.3,0-0.3,0.5,0,0.5c14.2,0.5,28.4,0.8,42.7,0.9
		c0.1,0,0.2-0.1,0.2-0.3C43.1,90.9,43,90.8,42.9,90.8z"/>
	<path class="st0" d="M144.3,86.1c-10.5-2-21.2-3.2-31.9-3.6c-0.3,0-0.3,0.5,0,0.5c10.6,0.7,21.2,1.9,31.7,3.8
		C144.5,86.8,144.7,86.1,144.3,86.1z"/>
	<path class="st0" d="M134.9,88.7c-15.3-2-30.8-1.6-45.9,1.3c-0.3,0.1-0.2,0.5,0.1,0.5c15.1-2.5,30.6-2.8,45.8-1
		C135.4,89.6,135.4,88.8,134.9,88.7z"/>
	<path class="st0" d="M48.6,67.6l-6.2,4.8c-0.3,0.2,0.1,0.6,0.4,0.4L49,68C49.3,67.7,48.9,67.3,48.6,67.6z"/>
	<path class="st0" d="M49,65c-2.4,1.7-4.8,3.4-7.1,5.2c-0.3,0.2,0,0.7,0.3,0.5l7.1-5.2C49.6,65.3,49.3,64.8,49,65z"/>
	<path class="st0" d="M42.3,67.3l8-5.6c0.3-0.2,0-0.7-0.3-0.5l-8,5.6C41.7,67,42,67.5,42.3,67.3z"/>
	<path class="st0" d="M56.3,59.5l-6,4c-0.3,0.2,0,0.7,0.3,0.5l6-4C56.9,59.7,56.6,59.2,56.3,59.5z"/>
	<path class="st0" d="M74.7,77.8l6.5-4.9c0.3-0.2,0-0.7-0.3-0.5l-6.5,4.9C74.1,77.5,74.4,78,74.7,77.8z"/>
	<path class="st0" d="M74.5,80.5l7.1-5c0.3-0.2,0-0.7-0.3-0.5c-2.4,1.7-4.8,3.3-7.1,5C73.9,80.2,74.2,80.7,74.5,80.5z"/>
	<path class="st0" d="M163.9,73.1l6.9-5.6c0.3-0.2-0.1-0.6-0.4-0.4l-6.9,5.6C163.2,72.9,163.6,73.3,163.9,73.1z"/>
	<path class="st0" d="M74.8,87.7c-5.3,4.5-13.2,3.8-17.6-1.5c-1.7-2-2.7-4.5-2.9-7.1c0-0.4-0.6-0.4-0.6,0c0.5,7.2,6.8,12.6,14,12.1
		c2.8-0.2,5.4-1.3,7.5-3.1C75.5,87.8,75.1,87.5,74.8,87.7z"/>
	<path class="st0" d="M163.4,89.8c-7.4,1.7-14.8-2.9-16.5-10.3c-0.3-1.4-0.4-2.9-0.3-4.3c0-0.4-0.6-0.4-0.6,0
		c-0.7,7.9,5.1,14.9,13,15.5c1.5,0.1,3,0,4.5-0.3C163.9,90.3,163.8,89.8,163.4,89.8z"/>
	<path class="st0" d="M116.7,5.2c1.2-0.8,2.3-1.6,3.5-2.5c0.2-0.2,0-0.5-0.2-0.3c-1.2,0.8-2.3,1.6-3.5,2.5
		C116.3,5,116.5,5.4,116.7,5.2z"/>
	<path class="st0" d="M122.1,8.9c2.3-1.5,4.5-3.2,6.6-5.1c0.1-0.1,0.1-0.2,0-0.3s-0.2-0.1-0.3,0l0,0c-2.3,1.5-4.5,3.2-6.6,5
		C121.6,8.7,121.9,9.1,122.1,8.9z"/>
	<path class="st0" d="M122.7,11.7c2.5-1.6,4.9-3.4,7.1-5.2c0.2-0.2-0.1-0.5-0.3-0.3c-2.5,1.6-4.9,3.4-7.1,5.2
		C122.3,11.5,122.5,11.8,122.7,11.7z"/>
	<path class="st0" d="M129.4,8.8c-2.1,1.3-4,2.7-5.9,4.3c-0.2,0.2,0,0.6,0.2,0.4c2.1-1.3,4-2.8,5.9-4.3C129.9,9,129.6,8.7,129.4,8.8
		z"/>
	<path class="st0" d="M126.2,24.3c1.6-0.8,3.1-1.8,4.5-2.9c0.2-0.2-0.1-0.5-0.3-0.4c-1.6,0.8-3.1,1.8-4.4,2.9
		c-0.1,0.1-0.1,0.2,0,0.3C125.9,24.3,126.1,24.3,126.2,24.3z"/>
	<path class="st0" d="M125.2,27.8c1.9-1.2,3.7-2.5,5.4-3.9c0.2-0.2-0.1-0.4-0.3-0.3c-1.9,1.2-3.7,2.5-5.4,3.9
		C124.8,27.6,125.1,28,125.2,27.8z"/>
	<path class="st0" d="M124.3,31.1c2.5-1.6,4.8-3.5,6.9-5.5c0.1-0.1,0.1-0.3,0-0.3c-0.1-0.1-0.2-0.1-0.3,0c-2.5,1.6-4.8,3.5-6.9,5.5
		C123.8,30.9,124.1,31.2,124.3,31.1z"/>
	<path class="st0" d="M124.1,33.5c2.2-1.3,4.4-2.7,6.4-4.3c0.2-0.2-0.1-0.5-0.3-0.4c-2.2,1.3-4.4,2.7-6.3,4.3
		C123.6,33.2,123.9,33.5,124.1,33.5z"/>
	<path class="st0" d="M123.9,36.3c2.3-1.2,4.5-2.6,6.7-4.1c0.1-0.1,0.1-0.2,0.1-0.3c-0.1-0.1-0.2-0.1-0.3-0.1
		c-2.3,1.2-4.6,2.6-6.7,4.1c-0.1,0.1-0.1,0.2,0,0.3C123.7,36.4,123.8,36.4,123.9,36.3z"/>
	<path class="st0" d="M130.9,35.3l-7.1,3.6c-0.3,0.2,0,0.7,0.3,0.5l7.1-3.6C131.5,35.6,131.3,35.1,130.9,35.3z"/>
	<path class="st0" d="M123.9,41.9l6.5-3.7c0.1-0.1,0.2-0.3,0.1-0.4c-0.1-0.1-0.3-0.2-0.4-0.1l-6.5,3.8c-0.1,0.1-0.1,0.3,0,0.4
		C123.7,41.9,123.8,41.9,123.9,41.9z"/>
	<path class="st0" d="M130.2,39.7l-7.9,4.7c-0.3,0.2,0,0.7,0.3,0.5l7.9-4.8c0.1-0.1,0.1-0.3,0-0.4C130.4,39.7,130.3,39.7,130.2,39.7
		z"/>
	<path class="st0" d="M129.1,44.1l-6.5,3.5c-0.3,0.2,0,0.7,0.3,0.5l6.5-3.5C129.6,44.5,129.3,43.9,129.1,44.1z"/>
	<path class="st0" d="M122.1,51.3c0.1,0,0.2-0.1,0.3-0.2c0.1,0.1,0.2,0.1,0.3,0l7.7-4.8c0.3-0.2,0-0.7-0.3-0.5
		c-2.6,1.6-5.1,3.2-7.7,4.8c-0.1,0-0.1,0.1-0.1,0.2c0,0-0.1,0-0.1,0c-0.1,0.1-0.2,0.2-0.2,0.4C121.9,51.2,122,51.3,122.1,51.3z"/>
	<path class="st0" d="M130.1,47.3l-6.7,4.2c0,0-0.1,0-0.1,0c-0.2,0-0.3,0.1-0.3,0.3s0.1,0.3,0.3,0.3l0,0h0.1c0.1,0.1,0.2,0.1,0.3,0
		l6.7-4.2C130.7,47.6,130.4,47.1,130.1,47.3z"/>
	<path class="st0" d="M129.9,50.2l-6.7,4c-0.1,0.1-0.2,0.3-0.1,0.4c0.1,0.1,0.2,0.2,0.4,0.1l6.7-4c0.1-0.1,0.2-0.3,0.1-0.4
		C130.2,50.1,130,50.1,129.9,50.2z"/>
	<path class="st0" d="M129.7,53l-7.6,5.3c-0.3,0.2,0,0.7,0.3,0.5l7.6-5.3C130.3,53.3,130,52.8,129.7,53z"/>
	<path class="st0" d="M122,61.3l7.1-4c0.3-0.2,0-0.7-0.3-0.5l-7.1,4c-0.1,0.1-0.2,0.3-0.1,0.4S121.9,61.4,122,61.3z"/>
	<path class="st0" d="M121.6,64.5l7.3-3.8c0.3-0.2,0-0.7-0.3-0.5l-7.3,3.8C121,64.2,121.3,64.7,121.6,64.5z"/>
	<path class="st0" d="M101.1,71.4l-5.9,5.8c-0.3,0.3,0.2,0.7,0.4,0.4l5.9-5.8C101.7,71.5,101.3,71.1,101.1,71.4z"/>
	<path class="st0" d="M105.5,71.2l-6.9,5.6c-0.3,0.2,0.1,0.6,0.4,0.4l6.9-5.6C106.2,71.4,105.8,71,105.5,71.2z"/>
	<path class="st0" d="M111.4,69.6l-9,7.7c-0.3,0.2,0.1,0.6,0.4,0.4l9-7.7C112.1,69.8,111.7,69.3,111.4,69.6z"/>
	<path class="st0" d="M108.3,77.8L116,72c0.3-0.2,0-0.7-0.3-0.5l-7.7,5.8C107.8,77.5,108.1,78,108.3,77.8z"/>
	<path class="st0" d="M120.8,69.9l9.3-6.7c0.3-0.2,0-0.7-0.3-0.5l-9.2,6.7C120.2,69.6,120.5,70.1,120.8,69.9z"/>
	<path class="st0" d="M114.5,77.3c2.4-2.1,4.9-4.2,7.3-6.4c0.3-0.2-0.1-0.7-0.4-0.4l-7.3,6.4C113.8,77.2,114.2,77.6,114.5,77.3z"/>
	<path class="st0" d="M128.9,73.3l-4.3,3.4c-0.3,0.2,0.1,0.6,0.4,0.4l4.3-3.4C129.6,73.5,129.2,73,128.9,73.3z"/>
	<path class="st0" d="M67.7,17.1c0.3-0.3-0.2-0.7-0.4-0.4c-6.7,7.1-8.5,17.5-4.8,26.6c0.2,0.3,0.7,0,0.5-0.3
		C59.4,34.1,61.2,24,67.7,17.1z"/>
	<path class="st0" d="M150.7,54.1c-0.8-0.2-1.6-0.3-2.4-0.3c-0.6,0-1.4-0.1-1.9,0.4c-0.1,0.1-0.1,0.3,0,0.4l0,0
		c0.5,0.5,1.3,0.4,1.9,0.4c0.8,0,1.6-0.1,2.4-0.3c0.2-0.1,0.3-0.3,0.2-0.4C150.9,54.2,150.8,54.1,150.7,54.1z"/>
	<path class="st0" d="M153.3,21.9c-2.6,2-5.1,4.2-7.6,6.3c-0.2,0.2,0.1,0.5,0.3,0.3c2.6-2.1,5.1-4.2,7.6-6.3
		C153.8,22,153.5,21.8,153.3,21.9z"/>
	<path class="st0" d="M148.2,29.3c2.9-2.3,5.8-4.5,8.5-6.9c0.2-0.2-0.1-0.5-0.3-0.3c-2.9,2.2-5.7,4.6-8.5,7
		C147.7,29.2,148,29.5,148.2,29.3z"/>
	<path class="st0" d="M164.7,22c-5.6,4.4-11.2,9-16.7,13.5c-0.2,0.2,0.1,0.4,0.3,0.3c5.6-4.5,11.2-9,16.7-13.6
		C165.1,22.1,164.8,21.9,164.7,22z"/>
	<path class="st0" d="M161.8,28.6c-2.5,1.8-4.8,3.8-7.1,5.8c-0.2,0.2,0.1,0.5,0.3,0.3c2.3-1.9,4.8-3.7,7-5.8
		C162.2,28.7,161.9,28.5,161.8,28.6z"/>
	<path class="st0" d="M160.9,30.9c-1.4,1.1-2.8,2.2-4.2,3.3c-0.2,0.2,0.1,0.5,0.2,0.3c1.4-1.1,2.9-2.2,4.2-3.4
		C161.3,31,161.1,30.7,160.9,30.9z"/>
	<path class="st0" d="M164.4,37.1c-2.1,1.3-4.3,2.7-6.4,4.1c-0.3,0.2,0,0.7,0.3,0.5c2.1-1.4,4.2-2.8,6.3-4.2
		c0.1-0.1,0.1-0.2,0.1-0.3C164.6,37.1,164.4,37,164.4,37.1z"/>
	<path class="st0" d="M181.1,36.8c-0.3,0.3,0.1,0.7,0.4,0.4l1.6-1.4c0.3-0.2-0.1-0.7-0.4-0.4L181.1,36.8z"/>
	<path class="st0" d="M183.8,45.1l-0.3,0.3c-0.1,0.1-0.1,0.3,0,0.4c0.1,0.1,0.3,0.1,0.4,0l0.3-0.3c0.1-0.1,0.1-0.3-0.1-0.4
		C184.1,45,183.9,45,183.8,45.1z"/>
	<path class="st0" d="M184.4,47.3l-1.9,1.3c-0.3,0.2,0,0.7,0.3,0.5l1.9-1.3C185.1,47.6,184.7,47.1,184.4,47.3z"/>
	<path class="st0" d="M170.1,24.8c3.9,4.7,6.5,10.4,7.4,16.5c0.1,0.4,0.6,0.2,0.6-0.2c-1-6.2-3.6-11.9-7.6-16.7
		C170.2,24.1,169.8,24.5,170.1,24.8z"/>
	<path class="st0" d="M174.9,43.2c-3.5,0.7-7,0.8-10.5,0.2c-0.4-0.1-0.5,0.5-0.1,0.6c3.6,0.6,7.3,0.5,10.8-0.2
		C175.4,43.7,175.3,43.1,174.9,43.2z"/>
	<path class="st0" d="M169.4,40.1c1-1.4,1.9-2.9,2.9-4.3c0.2-0.3-0.3-0.6-0.5-0.3l-2.9,4.3C168.7,40.1,169.2,40.5,169.4,40.1z"/>
	<path class="st0" d="M172.6,41l1.7-2.3c0.2-0.3-0.3-0.6-0.5-0.3l-1.7,2.3C171.9,41,172.4,41.3,172.6,41z"/>
</g>
</svg>
