<svg id="Layer_1" data-name="Layer 1" xmlns="http://www.w3.org/2000/svg" viewBox="0 0 194.57 93.29"><defs><style>.cls-1{fill:#545353;}</style></defs><title>1</title><g id="_7" data-name="7"><path class="cls-1" d="M112,131.75l11.22-.33,6-.18a28.86,28.86,0,0,0,4.46-.23c.11,0,.21,0,.32,0a1.61,1.61,0,0,0,.95,0,1,1,0,0,0,.61-1,.5.5,0,0,0,.1-.31c.27-7.14,0-14.33,0-21.48q0-11-.08-21.91c0-6.86.14-13.75-.16-20.59A20.76,20.76,0,0,0,134,58.2a14,14,0,0,0-2.64-4.34c-1.28-1.09-3.34-.65-4.88-.67l-6.82-.06L106.35,53l-26.57-.23q-12.9-.13-25.81-.23c-7,0-14.52-.21-20.95,3a18.5,18.5,0,0,0-7.73,7.14C22,68.55,23.54,75.13,23.42,81.43l-.06,0a.29.29,0,0,0,.05.51c-.1,4.68-.16,9.37-.21,14v.11c-.07,7.47-.11,15-.16,22.42a.32.32,0,0,0,0,.34q0,6-.09,12.09a.71.71,0,0,0,.7.7l8.13-.1,18.4-.21c.62,1.26,1.92,1.83,4.24,1.07a17.18,17.18,0,0,0,.74,2.57c1.51,3.92,4.37,8,8.39,9.6a.23.23,0,0,0,.27-.08,16.4,16.4,0,0,0,16.35-2.09A15.49,15.49,0,0,0,85.84,133a17.17,17.17,0,0,0,3.36-.17.64.64,0,0,0,.59-.55C97.17,132.37,104.58,132,112,131.75ZM49.42,129.8a.25.25,0,0,0-.24.15h-.85l.27-.2c.3-.22,0-.72-.29-.5l-1,.72H46l2.65-2c.3-.22,0-.72-.29-.5L45,130l-2.34,0,4.88-3.48a.28.28,0,0,0,.12-.2L50.41,124A19,19,0,0,0,49.42,129.8Zm35.34,2.58a.25.25,0,0,0-.27,0l-4,2.92c-.3.22,0,.72.29.5L84.65,133a14.29,14.29,0,0,1-3.88,7.28,15.47,15.47,0,0,1-16.19,3.37,14.18,14.18,0,0,1-5.95-4.51,13.91,13.91,0,0,1-2.35-4.43,17.91,17.91,0,0,1-.73-4.07.22.22,0,0,0,.36-.17,25.25,25.25,0,0,1,1.81-9.8,14.83,14.83,0,0,1,4.84-4.27l-4.35,4.23c-.26.26.15.67.41.41l5.52-5.37a14.76,14.76,0,0,1,1.81-.6l.8-.16-6.23,5.53c-.27.25.14.65.41.41l6.87-6.11a15.82,15.82,0,0,1,2.66-.1l-7.6,6c-.29.23.12.64.41.41l8-6.36a14.58,14.58,0,0,1,2,.33l-7.73,6.18c-.29.23.13.64.41.41l8-6.41a17.87,17.87,0,0,1,1.9.68l-6.41,4.69c-.3.21,0,.71.29.49l6.55-4.78a.31.31,0,0,0,.11-.15,16,16,0,0,1,2.3,1.34l-7.31,4.85c-.31.21,0,.71.29.5l7.5-5a14.69,14.69,0,0,1,2.91,3,.24.24,0,0,0-.28,0l-6.7,4.84s0,0,0,0a.25.25,0,0,0-.25-.17.25.25,0,0,0-.15.05,5.48,5.48,0,0,0-1-.9l6.88-5.16c.29-.22,0-.72-.29-.5l-6.92,5.19a.33.33,0,0,0-.12.19,5.64,5.64,0,0,0-4.26-.58c-.22.06-.18.42,0,.4,2.52-.19,5.23,1.11,5.93,3.7a5.06,5.06,0,0,1-3.38,6,4,4,0,0,1-.5.1.13.13,0,0,0,0-.06.3.3,0,0,0,.26,0l.39-.19c.33-.17,0-.67-.29-.5l-.39.19a.28.28,0,0,0-.14.17l-.09,0a.29.29,0,0,0-.23.46,5.13,5.13,0,0,1-1.29-.12l2.46-1.88c.29-.22,0-.72-.29-.49l-2.51,1.91a.3.3,0,0,0-.1.34,6.2,6.2,0,0,1-.84-.35l1.79-1.25c.3-.21,0-.71-.29-.5l-1.89,1.32h-.08a.25.25,0,0,0-.16.05,5.81,5.81,0,0,1-.65-.56l2.11-1.46c.3-.21,0-.71-.29-.49-.74.5-1.47,1-2.2,1.52a4.78,4.78,0,0,1-.46-.74l1.85-1.48c.29-.24-.12-.64-.41-.41l-1.67,1.33-.06-.18a4.82,4.82,0,0,1-.14-.74l2.09-1.73c.28-.24-.13-.65-.41-.41l-1.69,1.41a6.7,6.7,0,0,1,2.75-4.53c.26-.22,0-.64-.32-.55-3,.88-4.3,4.6-3.22,7.37A5.92,5.92,0,0,0,75.9,128a5.52,5.52,0,0,0-.8-1.78.22.22,0,0,0,.28,0l6.7-4.84a.28.28,0,0,0,.11-.34c.23.32.44.65.65,1s.43.78.62,1.19a.22.22,0,0,0-.34-.06l-6.81,4.77c-.31.21,0,.71.29.5l6.81-4.77a.32.32,0,0,0,.12-.29A15.51,15.51,0,0,1,85,129.62a.27.27,0,0,0-.1.06l-7.12,5.38c-.29.22,0,.72.29.49q3.48-2.61,6.94-5.24A14.38,14.38,0,0,1,84.76,132.38Zm2.48-.68a21,21,0,0,0-2.84-11.83.29.29,0,0,0-.5.29,20.36,20.36,0,0,1,2.76,11.63L86,132a16.37,16.37,0,0,0-27.14-14.38l-.06.05a15.34,15.34,0,0,0-5.25,10.27.41.41,0,0,0,.19.37,3.47,3.47,0,0,0,0,.56,3.51,3.51,0,0,0,0,1.9.4.4,0,0,0,.12.16s0,.05,0,.08a.46.46,0,0,0,.07.14,3.31,3.31,0,0,1-1.12.11,26.24,26.24,0,0,1,.93-9.12.29.29,0,0,0-.55-.16,26.51,26.51,0,0,0-1,9.16,1.65,1.65,0,0,1-1.13-1.58,15,15,0,0,1,.32-3.72A28.67,28.67,0,0,1,53,121a19.08,19.08,0,0,1,30.64-3,19.93,19.93,0,0,1,3.8,6.61c.8,2.31.79,4.57,1.06,6.93ZM100,122.76l-9.63,8.68-.51.05a9.82,9.82,0,0,0,.13-1.33.23.23,0,0,0,.23-.07l7.12-6.52c.28-.25-.13-.66-.4-.41l-7,6.36a13.81,13.81,0,0,0-.32-2.69l7.08-5.59c.29-.23-.12-.64-.41-.41l-6.8,5.37c-.17-.65-.37-1.31-.61-2L94,120.52c.29-.22,0-.72-.3-.5q-2.49,1.85-5,3.67-.21-.52-.45-1l2.3-1.72c.29-.22,0-.72-.3-.5L88,122.11c-.27-.55-.56-1.1-.87-1.62a.26.26,0,0,0,.36.07l1-.58a.29.29,0,0,0-.29-.5l-1,.59a.26.26,0,0,0-.1.36,23.4,23.4,0,0,0-2.22-3.13,20.07,20.07,0,0,0-14.48-7,20.39,20.39,0,0,0-19.61,12.75.27.27,0,0,0-.18.07L47.11,126a.24.24,0,0,0-.09.15l-5.41,3.86-3.34,0,6.48-4.2c.31-.2,0-.7-.29-.5l-7.27,4.71-2.66,0L40,126.3c.3-.21,0-.71-.3-.5l-6.15,4.36-3.73.05,4.6-3.33c.3-.22,0-.72-.29-.5l-5.31,3.84-4,.05,7.11-3.7c.33-.17,0-.67-.29-.5l-7.28,3.8c0-.61,0-1.22,0-1.82l6-3.62a.28.28,0,0,0-.29-.49l-5.72,3.43V126l6.53-4.74c.3-.22,0-.72-.29-.5l-6.23,4.53c0-.72,0-1.45,0-2.17l5.78-3.34a.29.29,0,0,0-.29-.5l-5.48,3.17c0-.76,0-1.51,0-2.27l5.91-3.34c.33-.18,0-.68-.29-.5l-5.62,3.18c0-.4,0-.8,0-1.2l5.49-3.44c.32-.2,0-.7-.29-.5l-5.19,3.25c0-.68,0-1.36,0-2l7-4c.32-.18,0-.68-.3-.5L24.46,115c0-.54,0-1.07,0-1.6l5.45-3.24a.29.29,0,0,0-.29-.5l-5.16,3.07c0-.53,0-1.05,0-1.57l7.37-4.06c.32-.17,0-.67-.29-.49l-7.08,3.89c0-.58,0-1.16,0-1.75l6.37-3.41c.33-.17,0-.67-.29-.49l-6.08,3.25c0-.55,0-1.1,0-1.64l4.27-2.22c.33-.17,0-.66-.29-.49l-4,2.06c0-.71,0-1.42,0-2.13l6.76-3.82a.29.29,0,0,0-.29-.5L24.56,103c0-.74,0-1.48,0-2.21l6.73-3.65c.33-.18,0-.68-.29-.5l-6.44,3.49c0-.51,0-1,0-1.51l5-2.67c.32-.17,0-.67-.29-.49l-4.69,2.5c0-.67,0-1.35,0-2l6.48-3.1c.34-.16.05-.65-.29-.49l-6.19,3c0-.63,0-1.26,0-1.89l5.72-2.84c.33-.16,0-.66-.29-.5l-5.43,2.7c0-.67,0-1.34,0-2q3.18-2,6.35-3.91a.29.29,0,0,0-.29-.5L24.62,90V88L30.75,84c.31-.2,0-.7-.29-.5L24.62,87.3c0-.56,0-1.11,0-1.67l6.3-3.94c.31-.2,0-.7-.29-.5l-6,3.76V83.36l5.93-3.58a.29.29,0,0,0-.3-.49l-5.63,3.4c0-.43,0-.86,0-1.28l6.12-3.57a.28.28,0,0,0-.29-.49l-5.84,3.39c0-.57,0-1.15,0-1.73l.05,0,6.44-4.08c.31-.19,0-.69-.29-.49l-6.2,3.93c0-.55,0-1.1,0-1.65l5.8-3.22c.33-.18,0-.68-.29-.5l-5.51,3.07c0-.52,0-1,0-1.55l6-3.56a.29.29,0,0,0-.29-.5l-5.71,3.39c0-.4,0-.79,0-1.19l4.67-2.87c.31-.2,0-.7-.3-.5L24.5,72c0-.44,0-.88,0-1.31l5.84-3.6c.31-.2,0-.7-.29-.5L24.47,70c0-.34,0-.68,0-1l5.34-3.57c.3-.21,0-.71-.29-.5l-5.06,3.38c0-.28,0-.57,0-.86l5.14-3.79c.3-.22,0-.72-.29-.5l-4.72,3.48a14.07,14.07,0,0,1,.59-1.69l5.59-4.15c.3-.21,0-.72-.29-.49l-4.78,3.54a17.93,17.93,0,0,1,9.64-8.19c6.87-2.56,14.48-2,21.67-1.89q23.45.28,46.9.5c7.52.08,15,.19,22.56.28a45.16,45.16,0,0,0-5.91,4.06c-.23.18.07.55.32.4A44.48,44.48,0,0,0,127,54.67a.14.14,0,0,0,.06-.14l2.69,0a68.44,68.44,0,0,0-8,5.83c-.2.17,0,.49.27.36a67.15,67.15,0,0,0,8.3-6l0,0c2.55,2.12,3.51,5.12,3.86,8.28a40.06,40.06,0,0,0-6.68,4.53c-.2.16.06.48.27.35a40.26,40.26,0,0,0,6.46-4.37c.07.75.11,1.49.13,2.24a47,47,0,0,0-5.88,4.12c-.23.18.06.54.31.4a48,48,0,0,0,5.59-3.93c0,.9,0,1.8,0,2.67a.25.25,0,0,0-.12,0C132.1,70.33,130,72,128,73.47c-.23.17,0,.56.23.4,2.09-1.41,4.26-2.79,6.21-4.38q0,9.9,0,19.82t0,19.77c0,6.7-.18,13.45.08,20.15a1.51,1.51,0,0,1-.54.68,11.87,11.87,0,0,0-2.39-.11l1.61-.74c.33-.16,0-.65-.29-.5l-2.11,1a.23.23,0,0,0-.13.31l-1.46.08-5.1.17,8.36-6.69c.29-.24-.12-.64-.4-.41l-8.77,7a.21.21,0,0,0-.08.11h-.06l-2.77.09a.24.24,0,0,0,0-.09l11.06-9.48c.28-.25-.13-.65-.41-.41l-11.17,9.58a.25.25,0,0,0,0,.4v0l-8,.28-3.59.12,8.12-7.3c.28-.25-.13-.66-.41-.41l-8.6,7.73c-4.34.13-8.68.25-13,.5a.3.3,0,0,0,.17-.08l7.7-7.29c.27-.26-.14-.67-.41-.41l-7.7,7.29a.29.29,0,0,0,.19.49c-1.05.06-2.09.13-3.13.21l9.08-8.2C100.63,122.92,100.22,122.51,100,122.76Z" transform="translate(-2.95 -52.54)"/><path class="cls-1" d="M197.14,104.34c-.38-1-1.67-2.07-2.68-1.7a.31.31,0,0,0-.25,0h0a2.67,2.67,0,0,1-1-.72,92.7,92.7,0,0,0-5.7-20.82C184.94,74.67,181.67,68,176,63.72c-6.6-4.95-15.37-4.5-23.19-3.93-5.09.36-11.38,1.68-13.55,6.92a20,20,0,0,0-1.09,3.63c-.09.48-.13,2.94-.44,3.17l0,0a.32.32,0,0,0,0,.5c-.05.72-.09,1.44-.1,2.16,0,1.29-.05,2.59-.05,3.88l0,0a.24.24,0,0,0,0,.4c0,2.39,0,4.79.07,7.19a.25.25,0,0,0,0,.39c0,.36,0,.72,0,1.08l-.15.13c-.21.17-.05.43.16.47,0,1.24,0,2.47,0,3.71,0,3.91.09,7.81.13,11.72a.23.23,0,0,0,0,.24c0,3,.06,6.07.1,9.11a.25.25,0,0,0,0,.38q.09,7.32.17,14.65a.7.7,0,0,0,.7.71c1.44-.14,2.87-.28,4.31-.45a2.72,2.72,0,0,0,0,.3c.22.91,1.8.68,2.49.67a.7.7,0,0,0,.54-.27c.07.22.15.45.24.67a15.76,15.76,0,0,0,1.67,5.57c2.23,4.25,7.25,8.18,12.26,8.51a16.62,16.62,0,0,0,12.45-3.21A15.55,15.55,0,0,0,178.58,132a1.94,1.94,0,0,0,.89.24,1.24,1.24,0,0,0,1.06-.38c4-.15,8.05-.35,12.07-.47a.59.59,0,0,0,.56-.43c.1-.62.18-1.24.26-1.86,1.31,1.3,3-.22,3.32-1.7a25.35,25.35,0,0,0,.06-5.51,45.32,45.32,0,0,0-.2-5.08c0-.21.57-1,.66-1.26a4.46,4.46,0,0,0,.22-1.51c0-1.39,0-2.79,0-4.18C197.45,108.08,197.74,106,197.14,104.34Zm-26,31.52,6.5-5.8a14.93,14.93,0,0,1-.84,4.49l-5,3.64c-.3.21,0,.71.29.49l4.3-3.13a13.35,13.35,0,0,1-1.14,2.1.24.24,0,0,0-.29,0l-4.23,2.69c-.31.2,0,.7.29.5l3.6-2.29a14.88,14.88,0,0,1-1.17,1.35,15.47,15.47,0,0,1-16.2,3.36c-6.69-2.61-10.49-10.34-9-17.26a.2.2,0,0,0,0-.16,21.69,21.69,0,0,1,1.29-4.18,15.07,15.07,0,0,1,6.69-6.11l-6.36,6.88c-.25.27.15.68.4.41l7.21-7.79a11.88,11.88,0,0,1,1.2-.36,12.67,12.67,0,0,1,1.61-.3,39.88,39.88,0,0,0-7.59,7.71c-.22.3.28.58.5.29a39.32,39.32,0,0,1,8.09-8,.2.2,0,0,0,.06-.07,14.92,14.92,0,0,1,2.59,0l-7.75,6.75c-.28.24.13.65.41.41l8.11-7.08a18.7,18.7,0,0,1,2,.44l-8.05,6.74c-.29.24.12.64.41.41l8.26-6.92s0,0,0,0a14.78,14.78,0,0,1,2,.83l-7.87,6.62c-.28.24.13.65.41.41l8-6.74a14.57,14.57,0,0,1,1.89,1.23l-7.27,6c-.29.23.12.64.4.41l7.33-6.09a14.43,14.43,0,0,1,3.28,3.79.29.29,0,0,0-.38,0l-7.44,6.41c-.28.24.13.65.41.41l7.43-6.41a.24.24,0,0,0,.09-.22,14.78,14.78,0,0,1,1,2.08L169,130.33c-.28.24.13.64.41.4l7.32-6.35a14.5,14.5,0,0,1,.67,2.67l-9.11,6.89c-.29.22,0,.72.29.5l8.92-6.75a14.44,14.44,0,0,1,.09,1.6l-6.91,6.17C170.41,135.7,170.82,136.11,171.1,135.86Zm8.66-5.05a.2.2,0,0,0-.07.06l-.67-.1a19.64,19.64,0,0,0-6.52-15.94c-.28-.25-.69.16-.41.41a19.05,19.05,0,0,1,4.79,6.6,16.48,16.48,0,0,0-15.83-8.76c-7.31.55-14,6.44-14.81,13.83a6.18,6.18,0,0,0-.27,2.56.7.7,0,0,0-.32-.09l-.48,0a20.11,20.11,0,0,1,5.08-13c.24-.28-.17-.69-.41-.41a20.76,20.76,0,0,0-5.25,13.37,2.91,2.91,0,0,0-.66.08l0-.26a.76.76,0,0,0,0-.4v0c.52-2,.45-4.2,1.18-6.23a19,19,0,0,1,3.79-6.32,17.79,17.79,0,0,1,13.94-5.74,18.22,18.22,0,0,1,12.38,5.8.3.3,0,0,0,.24.29,18.23,18.23,0,0,1,3.94,7.59.31.31,0,0,0,.11.45A18.82,18.82,0,0,1,179.76,130.81Zm2.51-.23,3-1.78a.28.28,0,0,0-.29-.49l-3.18,1.87a.28.28,0,0,0-.07.42l-.68,0c0-.2,0-.39.07-.59l2.66-2.23c.29-.24-.12-.64-.4-.41l-2.22,1.85a17.52,17.52,0,0,0,0-2.05.24.24,0,0,0,.13,0l2.13-1.35c.31-.2,0-.7-.29-.5l-2,1.28c0-.25,0-.5-.08-.75l2.46-2.09c.28-.24-.13-.65-.41-.41l-2.16,1.83c-.07-.42-.15-.84-.25-1.26l1.46-1c.3-.2,0-.7-.3-.49l-1.32.88c-.08-.32-.18-.63-.28-1l2.5-2c.29-.23-.12-.64-.41-.41L180,121.79c-.15-.42-.32-.82-.5-1.22l.26-.13c.34-.17,0-.67-.29-.5l-.2.1c-.17-.34-.34-.68-.53-1l1.76-1.43c.29-.23-.12-.64-.4-.41l-1.65,1.34c-.28-.49-.59-1-.91-1.41L180,115.2c.29-.22,0-.72-.29-.49l-2.53,2c-.22-.3-.45-.58-.69-.86l2.07-1.46c.3-.21,0-.71-.29-.5l-2.16,1.53c-.29-.32-.58-.63-.89-.93l2.49-1.66c.31-.21,0-.71-.29-.5L174.83,114c-.49-.45-1-.87-1.53-1.27l2.3-1.27c.33-.18,0-.68-.29-.5l-2.53,1.4c-.3-.21-.61-.41-.92-.6l2-1.19a.29.29,0,0,0-.29-.5c-.75.45-1.55.86-2.31,1.33l-.71-.38,1.72-1c.31-.19,0-.69-.29-.5l-2,1.24-.59-.27,1-.4c.34-.14.19-.7-.16-.56l-1.44.58a.29.29,0,0,0-.12.1l-.73-.26,2-1.24a.29.29,0,0,0-.29-.5l-2.43,1.47s0,0,0,0a19.33,19.33,0,0,0-2.4-.52l2.61-1.31c.33-.17,0-.66-.29-.5l-2.88,1.44a.24.24,0,0,0-.15.28l-.63-.07,1.64-.87c.33-.17,0-.67-.29-.49L162.3,109c-.39,0-.77,0-1.16,0l.76-.41c.33-.18,0-.68-.29-.5L160,109a.26.26,0,0,0-.12.14,18.72,18.72,0,0,0-12,6.11l-.05.06c0-.61,0-1.22,0-1.84l2.12-1.55c.29-.22,0-.72-.3-.5l-1.85,1.37c0-.43,0-.85-.07-1.27l2.09-1.59c.29-.22,0-.72-.29-.5l-1.83,1.4c0-.17,0-.33,0-.5s0-.21,0-.32l1.87-1.37c.3-.21,0-.71-.29-.49l-1.6,1.16c0-.51,0-1,0-1.53l.5-.28c.32-.18,0-.68-.29-.5l-.23.13c0-.42,0-.84,0-1.25l1.7-1c.31-.19,0-.69-.29-.5l-1.43.84c0-.74,0-1.47-.07-2.2,11.09.35,22.3-.22,33.39-.4,1.27,0,2.61-.19,3.88-.09s1.49.63,1.53,1.45l-.24.14a.29.29,0,0,0,.25.52q0,.42,0,.9c.11,2.83.19,5.66.28,8.5s.16,5.65.24,8.48a.29.29,0,0,0,0,.31q.11,3.19.25,6.39a.37.37,0,0,0,0,.18c0,.35,0,.7,0,1Zm10.26-3.64c-.14,1.21.09,2.94-1.18,3.3a14.09,14.09,0,0,1-3.34.14c0-.4,0-.79,0-1.19l1.62-1a.29.29,0,0,0-.29-.5l-1.34.81c0-.61,0-1.22-.07-1.83a.38.38,0,0,0,.13,0c.62-.34,1.24-.68,1.87-1,.32-.18,0-.68-.29-.5l-1.73.94c0-.58,0-1.16-.07-1.73l1.21-.61c.33-.16,0-.66-.29-.5l-.95.48c0-.4,0-.8-.05-1.19l1.58-1a.29.29,0,0,0-.29-.5l-1.32.79c0-.75-.07-1.5-.11-2.25l2-1.07c.33-.17,0-.67-.29-.5l-1.75.94c0-.43,0-.85-.07-1.28l2-1.18a.28.28,0,0,0-.29-.49l-1.7,1c0-.36,0-.72,0-1.07l1.9-.89c.34-.16,0-.66-.29-.5l-1.65.77-.09-1.71h0l1.3-.72c.32-.18,0-.68-.29-.5l-1,.59c0-.53-.05-1.06-.08-1.58l2-1.08c.32-.18,0-.68-.3-.5l-1.74.94c0-.5-.06-1-.08-1.5l2.1-1.13c.33-.17,0-.67-.29-.49l-1.84,1c0-.74-.07-1.49-.11-2.23l1.53-.7c.34-.15,0-.65-.29-.49l-1.26.57c0-.52,0-1-.07-1.56l1.9-1.12a.29.29,0,0,0-.29-.5l-1.63,1c0-.3,0-.6,0-.9L188,102a.29.29,0,0,0-.29-.5l-1,.58a.31.31,0,0,0-.31-.27c-6.6-.09-13.21.09-19.82.19s-13,0-19.45.33a.5.5,0,0,0-.83.35c0,2.46.19,4.92.3,7.38.06,1.15.06,2.32.11,3.48h0a.31.31,0,0,0,0,.51,21.92,21.92,0,0,0,.23,2.29,19.33,19.33,0,0,0-3.11,5.86,14.06,14.06,0,0,0-.85,6.24l-1.26.12.84-.61c.3-.22,0-.72-.29-.5l-1.68,1.23-1.11.12c0-.32,0-.64,0-1,0,0,0,0,0,0l2.44-2c.28-.24-.13-.65-.41-.41l-2.08,1.74c0-.79,0-1.57,0-2.36l2.76-2.35c.28-.24-.13-.65-.41-.41l-2.36,2c0-.24,0-.48,0-.72l3.23-2.6c.29-.23-.12-.64-.41-.41l-2.84,2.28,0-2,2.36-1.66c.3-.21,0-.71-.29-.5l-2.08,1.47c0-.4,0-.8,0-1.2l3.12-2.35c.29-.22,0-.72-.29-.5l-2.84,2.14,0-1.46,4.46-3.89c.29-.24-.12-.65-.4-.41l-4.07,3.55,0-1.58,3.35-3c.28-.25-.13-.65-.41-.41l-2.95,2.65,0-2a.19.19,0,0,0,.13-.06l4.35-3.73c.28-.24-.13-.65-.41-.41l-4.08,3.51c0-.24,0-.49,0-.73l3.4-2.91c.28-.24-.13-.65-.41-.41l-3,2.57c0-.43,0-.86,0-1.29l4.16-3.31c.29-.23-.12-.64-.41-.41l-3.76,3c0-.78,0-1.57,0-2.35l3.95-3.23c.29-.24-.12-.65-.41-.41l-3.55,2.91c0-.82,0-1.63,0-2.45l3.77-3.17c.28-.24-.13-.65-.41-.41L139,100.94l0-1.89,3.58-2.69c.29-.22,0-.72-.29-.5L139,98.34c0-.69,0-1.38,0-2.07l2.92-2.2c.3-.22,0-.72-.29-.5l-2.64,2v-.38c0-.33,0-.66,0-1a.27.27,0,0,0,.1-.06l3.33-2.73c.28-.24-.13-.64-.41-.41l-3,2.5c0-.83,0-1.65,0-2.47l3.59-2.58c.3-.21,0-.72-.29-.5l-3.32,2.38,0-1.41,3.1-2.55c.29-.23-.12-.64-.41-.41l-2.71,2.23c0-.25,0-.5,0-.75l3.41-2.81c.29-.23-.12-.64-.41-.41l-3,2.49,0-1.33,3.74-3.19c.29-.24-.12-.65-.4-.41l-3.35,2.85c0-.78,0-1.57,0-2.35l3.5-3c.29-.24-.12-.65-.41-.41l-3.11,2.65,0-1.62L142.38,77c.29-.23-.12-.64-.41-.41l-3.32,2.58c0-.18,0-.36,0-.54v-.61L142.21,75c.29-.24-.12-.65-.4-.41l-3.18,2.72c0-.41,0-.83,0-1.25l5.2-4c.29-.23-.12-.63-.41-.41l-4.78,3.72q0-.91.09-1.83l4.56-3.37c.3-.22,0-.72-.29-.49l-4.22,3.1a1.11,1.11,0,0,0,0-.17.19.19,0,0,0,.2-.23c0-.24-.07-.47-.1-.7v-.05l3.16-2.93c.27-.25-.14-.66-.41-.4L139,70.66a22.16,22.16,0,0,1,.85-3.6,11.59,11.59,0,0,1,6-4.83c3.85-1.43,8.17-1.37,12.22-1.45s8.35,0,12.28,1.37a20.41,20.41,0,0,1,9,6.64c4.85,6,7.66,13.69,9.87,21a93.12,93.12,0,0,1,3.25,37.19Zm1.14,1.54a.26.26,0,0,0-.16-.07,91.6,91.6,0,0,0,.8-11.23,1.72,1.72,0,0,1,1.54.79c0,1.16,0,2.32.05,3.47l0,2.8C195.93,124.71,196.1,130.55,193.67,128.48Zm3.07-18.23c0,.74-.08,1.47-.15,2.2s-.48,5.09-2.18,3.2c-.47-.52-.15-2.71-.18-3.41,0-1.32-.14-2.64-.25-4s-1.12-3.45.36-4.36c1.31-.81,2,1.38,2.18,2.41A19.76,19.76,0,0,1,196.74,110.25Z" transform="translate(-2.95 -52.54)"/><path class="cls-1" d="M162.82,124.44h-.07a.28.28,0,0,0-.21-.14,4.91,4.91,0,0,0-5.6,4.25,5.3,5.3,0,0,0,4.44,5.74,5.21,5.21,0,0,0,5.65-4.35A5,5,0,0,0,162.82,124.44Zm3.32,4.94a4.17,4.17,0,0,1-2.46,3.41.24.24,0,0,0-.34-.24l-1.47.61c-.11,0-.22,0-.33,0a3.71,3.71,0,0,1-1.1-.34l1.57-.92a.28.28,0,0,0-.29-.49l-1.85,1.07a4.43,4.43,0,0,1-.82-.74l2.42-1.51c.31-.19,0-.69-.29-.49l-2.47,1.53a4.3,4.3,0,0,1-.36-.71h0l1.93-1.35c.3-.21,0-.71-.29-.5L158.18,130a3.48,3.48,0,0,1-.09-.79c.66-.51,1.32-1,2-1.52.29-.23,0-.73-.29-.5l-1.62,1.23a4.83,4.83,0,0,1,4.27-3.38.38.38,0,0,0,.23-.11.19.19,0,0,0,.09.05A4.67,4.67,0,0,1,166.14,129.38Z" transform="translate(-2.95 -52.54)"/><path class="cls-1" d="M185.66,99c.55-.09.47-.72.11-1a10.71,10.71,0,0,0-.16-1.36c.47-.32.94-.64,1.4-1s0-.71-.29-.5l-1.21.85c-.06-.28-.12-.57-.19-.85l1.37-1c.3-.21,0-.71-.29-.49l-1.23.88c-.22-.83-.47-1.66-.71-2.47l1.8-1.23c.3-.21,0-.71-.29-.5l-1.68,1.15c-.08-.27-.17-.55-.24-.81-.21-.75-.44-1.49-.67-2.22l2.15-1.24a.29.29,0,0,0-.29-.5l-2,1.18q-.24-.74-.51-1.47L185,85.08c.31-.2,0-.7-.29-.5l-2.17,1.33c-.14-.39-.29-.76-.44-1.14l1.26-1c.29-.23-.12-.64-.41-.41l-1.08.84c0-.13-.1-.27-.16-.4s-.21-.46-.31-.69l1.17-.75c.32-.2,0-.7-.29-.5l-1.12.72c-.17-.36-.35-.72-.53-1.08l2.1-1.7c.29-.23-.12-.63-.41-.4l-2,1.58c-.16-.3-.32-.6-.49-.89l1.41-.9c.31-.2,0-.7-.29-.5l-1.41.9L179,78.8l1.22-1c.3-.23-.12-.63-.4-.41l-1.14.88c-.13-.2-.25-.4-.39-.6l0,0,1.45-1.28c.28-.24-.13-.65-.41-.41L178,77.26c-.23-.32-.46-.63-.7-.94l2.18-1.46c.31-.2,0-.7-.29-.49l-2.26,1.5c-.21-.26-.42-.51-.64-.76l2.31-1.56c.31-.21,0-.71-.29-.5L176,74.61l-.07.08-.61-.62L177.19,73c.32-.18,0-.68-.29-.5l-2,1.13-.78-.7,2.63-1.66c.32-.2,0-.7-.29-.5l-2.73,1.73s0,0,0,0l-.13-.11-.62-.5,3.37-2.15a.29.29,0,0,0-.3-.49l-3.57,2.28c-.29-.21-.59-.4-.89-.59l3-1.91c.31-.2,0-.7-.29-.5L171,70.65q-.39-.23-.78-.42l.93-.68c.29-.22,0-.72-.29-.5l-1.22.89c-.45-.21-.9-.4-1.36-.58l1.7-1a.28.28,0,0,0-.29-.49l-2.12,1.23-.81-.25.93-.46c.33-.17,0-.67-.3-.5l-1.15.58a.24.24,0,0,0-.14.2c-.4-.1-.81-.19-1.22-.27l1.8-1.17c.31-.2,0-.7-.29-.49-.79.5-1.57,1-2.35,1.52-.71-.11-1.42-.19-2.14-.23l2.33-1.52c.31-.2,0-.7-.29-.49l-3,2c-.69,0-1.37,0-2.06,0l2.92-1.81c.31-.19,0-.69-.29-.5l-3.86,2.39q-.71.06-1.41.15l2-1.15a.28.28,0,0,0-.29-.49l-3.2,1.86-1.06.19,2.06-1.33c.31-.2,0-.7-.29-.5L152.05,69l-1.21.29-.11,0,2.33-1.59c.3-.2,0-.7-.29-.49l-3.28,2.22a.27.27,0,0,0-.18.07l-.4.33c-2.44.88-3.67,2.2-4,5.45-.34,2.81.12,5.63.19,8.44.12,5,.56,9.89,1.07,14.81a.6.6,0,0,0,.31.46.39.39,0,0,0,.25.7c6.55.45,13.27,0,19.84-.19l9.5-.2a81.48,81.48,0,0,0,9.11-.29.49.49,0,0,0,.44-.05Zm-2.34-1.23c-2.43-.06-4.91.17-7.3.22l-9.93.24c-6.24.15-12.63,0-18.85.64a.45.45,0,0,0,0-.29c-.61-5-.86-10-1-15-.16-5.92-2.28-12.15,5.13-13.66,7.79-1.59,16.09-1.56,22.23,4.22a30.78,30.78,0,0,1,7.27,11.26,62.1,62.1,0,0,1,2.16,6.78c.25.91.43,1.87.64,2.82A10.63,10.63,0,0,1,183.32,97.75Z" transform="translate(-2.95 -52.54)"/><path class="cls-1" d="M77.63,72.93c-2.89,1.43-3.85,5.54-1.27,7.74.33.29.88-.08.63-.49-1.35-2.28-.86-5.43,2-6.23a4.79,4.79,0,0,1,5.71,3.5A5.59,5.59,0,0,1,82,83.84c-1.46.84-3.19,1.16-4.54,2.2-1.84,1.42-2.79,4.32-.93,6.14,2.33,2.3,6.78.84,9.55.4.9-.14.51-1.49-.38-1.37-2.24.3-8.68,2.22-8.76-1.6C76.85,86.7,81,86,82.85,84.73A7.26,7.26,0,0,0,85.61,76,5.91,5.91,0,0,0,77.63,72.93Z" transform="translate(-2.95 -52.54)"/><path class="cls-1" d="M88.05,83.66c.71,2.44,4,2.24,6.28,2,0,2.28.1,4.55.13,6.77a.66.66,0,0,0,1.31,0c0-5.38.35-11.07-.4-16.42-.05-.29-.56-.29-.6,0a61.29,61.29,0,0,0-.46,8.28c-.83,0-1.66,0-2.48-.1-1.07-.15-2.17-.14-2.45-1.42a11.56,11.56,0,0,1,0-2.12c0-2.3.33-5.12-.5-7.27a.23.23,0,0,0-.43,0c-.67,1.74-.45,3.82-.47,5.66A16.74,16.74,0,0,0,88.05,83.66Z" transform="translate(-2.95 -52.54)"/><path class="cls-1" d="M101.65,86.32c.17-.12.33-.26.5-.4a27.76,27.76,0,0,0,.6,7c.11.4.8.46.87,0a31.21,31.21,0,0,0-.26-7.82l.1,0a1.57,1.57,0,0,1,1.89.8,3.24,3.24,0,0,1,.1,1.28c-.06,1.82-.27,3.65-.18,5.47a.65.65,0,0,0,1.29,0,43.36,43.36,0,0,0,.22-5.47,3.4,3.4,0,0,0-.84-2.75,2.25,2.25,0,0,0-2.66-.19l-.06-.72c-.21-3.13-.4-6.28-.82-9.39-.05-.33-.56-.24-.57.07-.07,3.25.12,6.5.27,9.75,0,.38,0,.77,0,1.17a4.53,4.53,0,0,0-.73,1C101.33,86.22,101.5,86.43,101.65,86.32Z" transform="translate(-2.95 -52.54)"/><path class="cls-1" d="M116.49,85.25a20.77,20.77,0,0,0-9.24-16.46,11.38,11.38,0,0,0,1.87.47c.3,0,.64-.33.34-.58A13.68,13.68,0,0,0,104,66.47a20.73,20.73,0,0,0-6.07-.72,13.11,13.11,0,0,0-3-.29.22.22,0,0,0,0,.43,20.55,20.55,0,0,1,6.86,2.79c2.15,1.4,3.52,3.34,5.28,5.14a.38.38,0,0,0,.63-.37,10.27,10.27,0,0,0-4.43-5.53,19.66,19.66,0,0,1,11.84,15c1.38,8.64-3.43,17.52-10.87,21.85-15.6,9.09-36.77-2.35-36-20.85A21.22,21.22,0,0,1,85.06,64.17c.24,0,.14-.41-.11-.37A21.59,21.59,0,0,0,67.49,80.7a23.88,23.88,0,0,0,9.25,23.55,25.81,25.81,0,0,0,25.71,2.91A23.59,23.59,0,0,0,116.49,85.25Z" transform="translate(-2.95 -52.54)"/><path class="cls-1" d="M53.71,141.6c-12.39-1.79-24.81-3.29-37.26-4.58-.29,0-.36.47-.07.51,12.39,1.73,24.81,3.27,37.27,4.5C53.89,142.05,54,141.64,53.71,141.6Z" transform="translate(-2.95 -52.54)"/><path class="cls-1" d="M45.86,143.32q-21.33-.76-42.68-.94c-.3,0-.3.46,0,.47q21.33.74,42.68.92A.23.23,0,0,0,45.86,143.32Z" transform="translate(-2.95 -52.54)"/><path class="cls-1" d="M147.2,138.6A225.78,225.78,0,0,0,115.34,135c-.32,0-.32.48,0,.5A300.74,300.74,0,0,1,147,139.25C147.45,139.33,147.63,138.68,147.2,138.6Z" transform="translate(-2.95 -52.54)"/><path class="cls-1" d="M137.82,141.28a146,146,0,0,0-45.93,1.26c-.31.06-.17.53.14.48a163.76,163.76,0,0,1,45.79-1C138.31,142.11,138.3,141.35,137.82,141.28Z" transform="translate(-2.95 -52.54)"/><path class="cls-1" d="M51.54,120.1l-6.15,4.81c-.29.23.12.63.41.4l6.15-4.8C52.24,120.28,51.83,119.88,51.54,120.1Z" transform="translate(-2.95 -52.54)"/><path class="cls-1" d="M52,117.57q-3.57,2.58-7.12,5.18c-.29.22,0,.72.29.5l7.12-5.19C52.58,117.85,52.29,117.35,52,117.57Z" transform="translate(-2.95 -52.54)"/><path class="cls-1" d="M45.22,119.87l8-5.62c.3-.21,0-.71-.29-.5l-8,5.62C44.63,119.59,44.92,120.09,45.22,119.87Z" transform="translate(-2.95 -52.54)"/><path class="cls-1" d="M59.29,112l-6,4c-.31.21,0,.71.29.5l6-4C59.89,112.28,59.6,111.78,59.29,112Z" transform="translate(-2.95 -52.54)"/><path class="cls-1" d="M77.62,130.32l6.47-4.89c.29-.22,0-.72-.29-.49l-6.47,4.88C77,130,77.32,130.54,77.62,130.32Z" transform="translate(-2.95 -52.54)"/><path class="cls-1" d="M77.46,133.05l7.11-5c.3-.22,0-.72-.29-.5q-3.57,2.49-7.12,5C76.86,132.77,77.15,133.27,77.46,133.05Z" transform="translate(-2.95 -52.54)"/><path class="cls-1" d="M166.85,125.66l6.94-5.56c.29-.23-.12-.63-.41-.4l-6.93,5.55C166.16,125.48,166.57,125.89,166.85,125.66Z" transform="translate(-2.95 -52.54)"/><path class="cls-1" d="M77.77,140.19a12.51,12.51,0,0,1-20.55-8.58c0-.37-.61-.37-.58,0a13.08,13.08,0,0,0,21.53,9C78.46,140.36,78.05,140,77.77,140.19Z" transform="translate(-2.95 -52.54)"/><path class="cls-1" d="M166.37,142.39a13.76,13.76,0,0,1-16.8-14.62c0-.37-.55-.37-.58,0A14.35,14.35,0,0,0,166.53,143C166.89,142.87,166.73,142.31,166.37,142.39Z" transform="translate(-2.95 -52.54)"/><path class="cls-1" d="M119.66,57.77c1.18-.8,2.34-1.62,3.47-2.48.18-.15,0-.46-.19-.32-1.19.78-2.35,1.6-3.49,2.45C119.24,57.57,119.44,57.92,119.66,57.77Z" transform="translate(-2.95 -52.54)"/><path class="cls-1" d="M125.08,61.48a55.34,55.34,0,0,0,6.56-5.06.21.21,0,0,0-.26-.33,54.32,54.32,0,0,0-6.6,5C124.57,61.28,124.84,61.64,125.08,61.48Z" transform="translate(-2.95 -52.54)"/><path class="cls-1" d="M125.69,64.23A79.89,79.89,0,0,0,132.83,59c.18-.16-.05-.45-.25-.33a79.27,79.27,0,0,0-7.14,5.24C125.25,64,125.49,64.36,125.69,64.23Z" transform="translate(-2.95 -52.54)"/><path class="cls-1" d="M132.38,61.34a66.81,66.81,0,0,0-5.93,4.26c-.22.17,0,.55.23.39a66.41,66.41,0,0,0,5.95-4.33C132.81,61.51,132.58,61.22,132.38,61.34Z" transform="translate(-2.95 -52.54)"/><path class="cls-1" d="M129.1,76.84a27.5,27.5,0,0,0,4.48-2.91c.21-.18-.06-.46-.28-.36a27.75,27.75,0,0,0-4.44,2.86A.24.24,0,0,0,129.1,76.84Z" transform="translate(-2.95 -52.54)"/><path class="cls-1" d="M128.19,80.38a56.28,56.28,0,0,0,5.4-3.92c.18-.15-.05-.44-.25-.32A55.72,55.72,0,0,0,127.91,80C127.7,80.18,128,80.52,128.19,80.38Z" transform="translate(-2.95 -52.54)"/><path class="cls-1" d="M127.22,83.62a50.8,50.8,0,0,0,6.92-5.48.24.24,0,0,0-.29-.37,50.71,50.71,0,0,0-6.91,5.48C126.75,83.43,127,83.77,127.22,83.62Z" transform="translate(-2.95 -52.54)"/><path class="cls-1" d="M127.05,86a47.4,47.4,0,0,0,6.37-4.3c.21-.17-.06-.49-.29-.37a47.91,47.91,0,0,0-6.35,4.31C126.57,85.77,126.83,86.09,127.05,86Z" transform="translate(-2.95 -52.54)"/><path class="cls-1" d="M126.88,88.89a56.45,56.45,0,0,0,6.66-4.14.22.22,0,0,0-.22-.38,54.41,54.41,0,0,0-6.68,4.11A.24.24,0,0,0,126.88,88.89Z" transform="translate(-2.95 -52.54)"/><path class="cls-1" d="M133.87,87.8l-7.12,3.62c-.34.17,0,.66.29.5l7.12-3.63C134.49,88.13,134.2,87.63,133.87,87.8Z" transform="translate(-2.95 -52.54)"/><path class="cls-1" d="M126.87,94.45l6.49-3.73a.28.28,0,0,0-.29-.49L126.58,94A.28.28,0,0,0,126.87,94.45Z" transform="translate(-2.95 -52.54)"/><path class="cls-1" d="M133.14,92.28,125.23,97c-.31.19,0,.69.29.5l7.92-4.75A.29.29,0,0,0,133.14,92.28Z" transform="translate(-2.95 -52.54)"/><path class="cls-1" d="M132,96.66l-6.52,3.51c-.32.17,0,.67.29.49l6.52-3.5C132.58,97,132.29,96.49,132,96.66Z" transform="translate(-2.95 -52.54)"/><path class="cls-1" d="M125,103.85a.25.25,0,0,0,.26-.21.26.26,0,0,0,.27,0l7.72-4.76c.31-.2,0-.7-.29-.5q-3.85,2.38-7.72,4.76a.32.32,0,0,0-.12.17.24.24,0,0,0-.12,0A.29.29,0,0,0,125,103.85Z" transform="translate(-2.95 -52.54)"/><path class="cls-1" d="M133.08,99.86l-6.66,4.21a.21.21,0,0,0-.12,0,.29.29,0,0,0,0,.58l.08,0a.24.24,0,0,0,.27,0l6.72-4.24C133.68,100.16,133.4,99.66,133.08,99.86Z" transform="translate(-2.95 -52.54)"/><path class="cls-1" d="M132.86,102.7l-6.72,4a.29.29,0,0,0,.29.5l6.73-4A.29.29,0,0,0,132.86,102.7Z" transform="translate(-2.95 -52.54)"/><path class="cls-1" d="M132.63,105.53,125,110.8c-.31.21,0,.71.29.5l7.63-5.27C133.23,105.82,132.94,105.32,132.63,105.53Z" transform="translate(-2.95 -52.54)"/><path class="cls-1" d="M124.94,113.86l7.12-4c.32-.18,0-.68-.3-.5l-7.11,4A.28.28,0,0,0,124.94,113.86Z" transform="translate(-2.95 -52.54)"/><path class="cls-1" d="M124.53,117.08l7.3-3.85c.33-.17,0-.67-.29-.49l-7.3,3.84C123.91,116.75,124.2,117.25,124.53,117.08Z" transform="translate(-2.95 -52.54)"/><path class="cls-1" d="M104,123.94l-5.94,5.79c-.26.26.15.67.41.41l5.94-5.79C104.69,124.09,104.28,123.68,104,123.94Z" transform="translate(-2.95 -52.54)"/><path class="cls-1" d="M108.43,123.75l-6.91,5.59c-.29.23.12.64.41.4l6.91-5.58C109.13,123.93,108.72,123.52,108.43,123.75Z" transform="translate(-2.95 -52.54)"/><path class="cls-1" d="M114.32,122.13l-9,7.73c-.28.24.13.65.41.41l9-7.73C115,122.3,114.6,121.89,114.32,122.13Z" transform="translate(-2.95 -52.54)"/><path class="cls-1" d="M111.28,130.36l7.67-5.8c.29-.22,0-.72-.29-.49L111,129.86C110.7,130.08,111,130.58,111.28,130.36Z" transform="translate(-2.95 -52.54)"/><path class="cls-1" d="M123.74,122.43,133,115.7c.3-.22,0-.72-.29-.5l-9.22,6.73C123.15,122.15,123.44,122.65,123.74,122.43Z" transform="translate(-2.95 -52.54)"/><path class="cls-1" d="M117.44,129.87q3.65-3.18,7.28-6.37c.28-.24-.13-.65-.4-.41L117,129.47C116.76,129.71,117.17,130.12,117.44,129.87Z" transform="translate(-2.95 -52.54)"/><path class="cls-1" d="M131.84,125.81l-4.35,3.36c-.29.23.12.63.41.41l4.34-3.36C132.54,126,132.13,125.58,131.84,125.81Z" transform="translate(-2.95 -52.54)"/><path class="cls-1" d="M70.63,69.61c.26-.27-.15-.68-.4-.41a24.84,24.84,0,0,0-4.77,26.56c.15.34.65,0,.5-.29A24.25,24.25,0,0,1,70.63,69.61Z" transform="translate(-2.95 -52.54)"/><path class="cls-1" d="M153.64,106.6a7,7,0,0,0-2.4-.31c-.64,0-1.43-.08-1.91.4a.32.32,0,0,0,0,.45h0c.48.49,1.28.4,1.91.41a7.19,7.19,0,0,0,2.4-.29A.35.35,0,0,0,153.64,106.6Z" transform="translate(-2.95 -52.54)"/><path class="cls-1" d="M156.27,74.47c-2.6,2-5.11,4.21-7.64,6.34-.21.18.09.47.3.3,2.55-2.1,5.14-4.17,7.62-6.35C156.75,74.58,156.47,74.32,156.27,74.47Z" transform="translate(-2.95 -52.54)"/><path class="cls-1" d="M151.14,81.89c2.85-2.28,5.76-4.51,8.49-6.93.17-.15-.06-.46-.25-.32-2.93,2.2-5.72,4.61-8.54,7C150.63,81.77,150.93,82.06,151.14,81.89Z" transform="translate(-2.95 -52.54)"/><path class="cls-1" d="M167.6,74.54c-5.65,4.42-11.18,9-16.74,13.53-.19.16.08.42.27.27,5.59-4.49,11.22-9,16.71-13.56C168,74.64,167.77,74.41,167.6,74.54Z" transform="translate(-2.95 -52.54)"/><path class="cls-1" d="M164.72,81.13c-2.49,1.76-4.77,3.85-7.11,5.8-.22.19.1.5.33.32,2.34-1.91,4.82-3.73,7-5.83C165.1,81.28,164.9,81,164.72,81.13Z" transform="translate(-2.95 -52.54)"/><path class="cls-1" d="M163.83,83.41c-1.44,1.06-2.84,2.2-4.21,3.35-.18.15.06.46.24.32,1.43-1.08,2.85-2.2,4.2-3.37C164.22,83.56,164,83.27,163.83,83.41Z" transform="translate(-2.95 -52.54)"/><path class="cls-1" d="M167.3,89.62c-2.15,1.33-4.26,2.74-6.37,4.13-.3.2,0,.69.28.48,2.11-1.39,4.24-2.77,6.31-4.23A.22.22,0,0,0,167.3,89.62Z" transform="translate(-2.95 -52.54)"/><path class="cls-1" d="M184,89.32c-.29.25.12.65.4.41L186,88.34c.28-.24-.13-.65-.41-.41Z" transform="translate(-2.95 -52.54)"/><path class="cls-1" d="M186.79,97.64l-.29.29a.29.29,0,0,0,.41.41l.28-.29A.29.29,0,0,0,186.79,97.64Z" transform="translate(-2.95 -52.54)"/><path class="cls-1" d="M187.38,99.85l-1.89,1.27c-.3.2,0,.7.29.49l1.9-1.27C188,100.14,187.69,99.64,187.38,99.85Z" transform="translate(-2.95 -52.54)"/><path class="cls-1" d="M173,77.3a34.08,34.08,0,0,1,7.41,16.46c.06.37.61.21.56-.15a34.69,34.69,0,0,0-7.56-16.72C173.13,76.61,172.73,77,173,77.3Z" transform="translate(-2.95 -52.54)"/><path class="cls-1" d="M177.84,95.75a29.07,29.07,0,0,1-10.52.22c-.36-.06-.52.5-.15.56A29.65,29.65,0,0,0,178,96.3C178.36,96.23,178.21,95.67,177.84,95.75Z" transform="translate(-2.95 -52.54)"/><path class="cls-1" d="M172.39,92.66c1-1.45,1.93-2.89,2.89-4.33.2-.31-.3-.6-.5-.29l-2.89,4.32C171.69,92.67,172.19,93,172.39,92.66Z" transform="translate(-2.95 -52.54)"/><path class="cls-1" d="M175.56,93.52l1.73-2.31c.23-.29-.27-.58-.49-.29l-1.73,2.31C174.84,93.53,175.34,93.81,175.56,93.52Z" transform="translate(-2.95 -52.54)"/></g></svg>