<svg width="253" height="105" viewBox="0 0 253 105" fill="none" xmlns="http://www.w3.org/2000/svg">
<path d="M251.839 42.6614C251.899 42.6189 251.941 42.5554 251.957 42.4833C252.429 40.1084 250.404 39.0001 248.674 37.8919L246.413 36.4273C241.478 32.7067 236.406 29.0256 231.235 25.681C225.032 21.4157 217.933 18.6522 210.493 17.6064C203.311 16.9182 196.066 17.3252 189.005 18.8136C185.938 19.4073 182.93 20.1396 179.961 20.9708C176.29 17.8682 172.451 14.9742 168.46 12.3025C164.135 9.15018 159.617 6.27484 154.933 3.6935C147.993 0.0322175 138.753 -2.08538 131.931 3.07999C131.91 3.1161 131.899 3.15704 131.899 3.19873C131.899 3.24042 131.91 3.28138 131.931 3.31749C131.596 3.15916 131.243 3.65392 131.537 3.9112L133.503 5.51426C137.278 9.4724 141.368 12.9753 145.3 16.6366C149.566 20.5948 153.793 24.6717 158.099 28.61C153.183 30.5891 148.268 32.4494 143.314 34.2108C128.706 39.396 110.835 44.502 96.0309 37.1992C88.6189 33.5379 84.5885 26.3341 78.0613 21.6041C74.9293 19.3444 71.1801 18.114 67.3268 18.0814C67.0322 18.0616 66.7366 18.0616 66.442 18.0814C63.5454 18.1438 60.7037 18.8894 58.1454 20.2583C58.084 20.2985 58.0364 20.3569 58.0094 20.4255C57.9823 20.494 57.9771 20.5693 57.9943 20.6409C58.0116 20.7126 58.0505 20.7771 58.1057 20.8255C58.161 20.874 58.2298 20.904 58.3027 20.9114C58.3107 21.1303 58.3788 21.3426 58.4993 21.5249C58.5307 21.5879 58.5782 21.6412 58.637 21.6795C58.6957 21.7178 58.7636 21.7396 58.8335 21.7426C59.5806 23.128 60.3473 24.4738 61.1141 25.8195C61.1285 25.9133 61.1777 25.9982 61.2517 26.057L62.333 28.0361C62.3152 28.0907 62.3095 28.1486 62.3162 28.2057C62.3229 28.2628 62.3419 28.3178 62.3718 28.3668C62.4018 28.4157 62.4419 28.4576 62.4896 28.4893C62.5372 28.5211 62.5911 28.542 62.6476 28.5506C63.493 30.0152 64.3384 31.4599 65.2034 32.8848C65.1848 32.9816 65.2027 33.0818 65.2536 33.166C65.3045 33.2502 65.3847 33.3122 65.4787 33.34C67.1498 36.1305 68.8406 38.921 70.4921 41.7115C74.1489 47.906 77.5895 54.3379 81.5215 60.3741C81.8301 61.301 82.2884 62.1703 82.8781 62.9469C79.1623 66.3707 75.5251 69.8737 71.8683 73.3568C71.7573 73.4644 71.681 73.6031 71.6495 73.7549C71.6179 73.9066 71.6325 74.0645 71.6914 74.2078C71.6521 74.2465 71.621 74.2927 71.5997 74.3437C71.5784 74.3946 71.5674 74.4494 71.5674 74.5047C71.5674 74.56 71.5784 74.6147 71.5997 74.6657C71.621 74.7167 71.6521 74.7628 71.6914 74.8015C73.6574 77.0181 76.4885 76.7806 79.1033 76.1275C82.7601 75.3161 86.3973 74.4453 90.0345 73.5943C93.1015 76.6817 99.9826 75.7317 103.561 75.5734C109.007 75.2567 115.357 74.9599 120.705 72.8423C111.425 81.4512 102.244 90.2185 92.6886 98.5702C92.5979 98.6629 92.5334 98.7783 92.5017 98.9045C92.47 99.0307 92.4723 99.1631 92.5084 99.2881C92.5444 99.4131 92.6129 99.5261 92.7068 99.6156C92.8007 99.7051 92.9166 99.7678 93.0425 99.7972C93.0132 99.8232 92.9898 99.8552 92.9737 99.891C92.9576 99.9269 92.9493 99.9657 92.9493 100.005C92.9493 100.044 92.9576 100.083 92.9737 100.119C92.9898 100.155 93.0132 100.187 93.0425 100.213C99.5697 105.596 109.95 103.736 117.382 101.519C121.422 100.282 125.298 98.5545 128.923 96.3734C132.403 94.4871 135.573 92.0704 138.32 89.2092C138.432 90.0353 138.765 90.8153 139.284 91.4653C141.761 94.6714 146.538 92.8111 148.583 90.1393C149.355 89.1579 149.838 87.9789 149.979 86.7353C150.456 85.4596 150.456 84.0529 149.979 82.7772L150.372 83.1136C150.372 83.4105 150.687 83.6678 150.923 83.4699C151.193 83.6044 151.476 83.7105 151.768 83.7865C151.772 83.8602 151.797 83.9311 151.839 83.9914C151.881 84.0517 151.939 84.099 152.007 84.1278C152.074 84.1566 152.149 84.1658 152.221 84.1545C152.293 84.1432 152.361 84.1117 152.417 84.0636L152.613 83.8855C153.526 83.8662 154.424 83.6514 155.248 83.2556C156.071 82.8598 156.802 82.2919 157.391 81.5898C159.357 79.3732 160.772 75.2963 158.315 72.9412L158 72.6839C158.13 72.462 158.198 72.2092 158.198 71.9517C158.198 71.6942 158.13 71.4414 158 71.2194C158.695 70.6008 159.352 69.9399 159.966 69.2403C169.914 66.9842 179.882 64.8864 189.85 62.8479H190.007L210.1 58.7315C210.157 58.7733 210.226 58.7958 210.297 58.7958C210.367 58.7958 210.436 58.7733 210.493 58.7315C212.106 58.395 213.737 58.0784 215.35 57.7222C220.265 56.7062 225.173 55.6573 230.075 54.5754C234.295 53.8499 238.46 52.8315 242.54 51.5277C245.285 50.5647 247.793 49.0191 249.893 46.9956C249.992 46.9964 250.09 46.9735 250.179 46.9287C250.268 46.884 250.345 46.8188 250.404 46.7383C250.944 46.0525 251.327 45.2551 251.525 44.403C251.732 43.846 251.838 43.2562 251.839 42.6614ZM236.504 31.2224C233.002 32.0368 229.358 31.9946 225.875 31.0993C222.393 30.204 219.175 28.4818 216.49 26.0768L223.41 23.0488C228.001 25.3722 232.382 28.0938 236.504 31.1828V31.2224ZM132.304 3.51539C140.719 -1.31354 149.684 2.20921 157.312 6.9194C164.567 11.4119 171.212 16.6762 178.152 21.6041C173.473 22.9895 168.872 24.6123 164.39 26.3341C164.39 26.2695 164.373 26.2061 164.34 26.1507C164.307 26.0953 164.26 26.0499 164.203 26.0194C164.147 25.9889 164.083 25.9745 164.019 25.9776C163.955 25.9807 163.893 26.0013 163.839 26.0372L163.545 26.2153L163.427 26.3341L163.309 26.2351L171.173 23.1676C171.625 22.9895 171.409 22.277 170.976 22.4551L162.66 25.7206L161.873 25.1071L167.929 22.7915C168.361 22.6332 168.165 21.901 167.713 22.0791L161.008 24.454L160.379 23.9196L165.216 21.9405C165.648 21.7624 165.432 21.05 164.999 21.2281L159.73 23.2071L158.826 22.5145L162.837 20.8916C163.269 20.6937 163.053 19.9813 162.62 20.1792L158 22.1582L156.781 21.2479L160.713 19.5657C161.146 19.3678 160.949 18.6553 160.517 18.8532L156.172 20.8323L155.582 20.3969L158.787 19.1303C159.239 18.9521 159.023 18.2397 158.59 18.4178L155.385 19.6844C155.334 19.6737 155.28 19.6737 155.228 19.6844C155.194 19.6313 155.148 19.5876 155.093 19.5573C155.038 19.527 154.976 19.5112 154.914 19.5112C154.851 19.5112 154.789 19.527 154.734 19.5573C154.679 19.5876 154.633 19.6313 154.599 19.6844L148.701 15.3502C143.845 11.8275 139.067 8.10683 134.054 4.7424C133.346 4.24764 132.855 3.79246 132.265 3.37686L132.304 3.51539ZM162.031 27.2642L160.654 27.7986C160.458 27.1455 160.281 26.5122 160.084 25.8195L161.067 26.5122C161.067 26.7695 161.225 27.0466 161.519 26.9278L162.031 27.2642ZM145.949 16.0429C144.73 14.9148 143.53 13.767 142.331 12.6191C144.14 13.9451 145.948 15.2711 147.738 16.5773L154.049 21.3468C154.023 22.1831 154.303 22.9997 154.835 23.6425C155.15 24.0186 155.661 23.4644 155.346 23.1082C155.075 22.7621 154.893 22.3543 154.815 21.9207L155.759 22.6332C155.916 23.6227 156.093 24.6123 156.251 25.582C152.803 22.2572 149.356 19.0049 145.909 15.8252L145.949 16.0429ZM156.88 26.2153C156.936 26.1673 156.98 26.1061 157.007 26.0371C157.035 25.9681 157.045 25.8934 157.037 25.8195C156.88 24.9883 156.742 24.1373 156.604 23.3061L157.371 23.8602V23.979C157.705 25.0675 158.02 26.1758 158.354 27.284C158.472 27.7392 159.18 27.5215 159.042 27.0663C158.806 26.2351 158.57 25.4039 158.315 24.5727L159.121 25.1664C159.396 26.1362 159.671 27.1455 159.966 28.0559L159.18 28.3725L156.88 26.2153ZM78.9264 24.8102C83.6448 28.9663 87.282 34.2108 92.6886 37.5158C104.151 44.502 118.68 43.2156 131.105 39.9105C142.213 36.9617 152.731 32.4494 163.505 28.3725C163.595 28.4248 163.695 28.456 163.798 28.4639C163.901 28.4717 164.005 28.4561 164.101 28.418C164.198 28.38 164.284 28.3205 164.355 28.2441C164.425 28.1677 164.477 28.0763 164.508 27.9767C167.536 26.8486 170.563 25.7404 173.63 24.731C187.137 20.2385 202.708 16.5773 216.765 20.6344C218.736 21.2084 220.661 21.9294 222.526 22.7915L215.703 25.7799C215.642 25.8003 215.586 25.8366 215.542 25.8852C215.499 25.9338 215.469 25.993 215.455 26.057C215.441 26.121 215.444 26.1875 215.463 26.25C215.483 26.3125 215.518 26.3687 215.566 26.4132C218.426 29.1107 221.919 31.0353 225.717 32.0077C229.516 32.9801 233.497 32.9687 237.29 31.9744H237.408L238.667 32.8848L231.255 34.3295C231.225 34.299 231.19 34.2747 231.151 34.2582C231.113 34.2416 231.071 34.233 231.029 34.233C230.986 34.233 230.945 34.2416 230.906 34.2582C230.867 34.2747 230.832 34.299 230.803 34.3295C218.181 36.7242 205.598 39.4553 193.055 41.5136C164.101 46.2442 134.893 49.2314 105.586 50.459C100.395 50.6767 95.8539 50.8548 91.1944 48.2028C87.4936 45.9601 84.1746 43.1336 81.3643 39.8313C78.1628 36.2832 75.3179 32.425 72.871 28.3132C71.1212 25.4435 69.6663 22.3759 67.9756 19.4469C72.0479 20.0054 75.8542 21.8004 78.887 24.5925L78.9264 24.8102ZM81.7378 74.7224C78.9067 75.3755 75.1909 76.7014 72.7334 74.7224C78.2789 74.6357 83.7875 73.797 89.1104 72.2288C89.2291 72.4706 89.3671 72.7022 89.5233 72.9214L81.7378 74.7224ZM90.0541 71.8923C91.1429 71.4965 92.2066 71.0339 93.2391 70.507C93.9469 70.1507 94.635 69.7549 95.3231 69.3591L91.7842 72.9214C91.1622 72.6136 90.5583 72.27 89.9755 71.8923H90.0541ZM138.34 88.002L136.964 89.0311C137.219 88.6352 137.475 88.2394 137.73 87.8832C137.986 87.527 137.514 87.3884 137.337 87.5863C136.478 88.4314 135.719 89.3746 135.076 90.3966C135.058 90.4479 135.058 90.5037 135.076 90.5549L134.604 90.931L135.234 90.1591C135.45 89.8821 135.076 89.506 134.84 89.7831C134.33 90.3365 133.851 90.9179 133.405 91.5247C133.381 91.5431 133.361 91.567 133.347 91.5945C133.334 91.622 133.327 91.6523 133.327 91.683C133.327 91.7137 133.334 91.744 133.347 91.7715C133.361 91.799 133.381 91.8229 133.405 91.8413C132.217 92.807 130.976 93.7056 129.689 94.5329C126.22 96.6708 122.519 98.4037 118.66 99.6983C111.13 102.192 102.499 103.538 95.0675 100.371L95.2838 100.173C112.172 103.023 126.367 95.9974 139.126 85.825C138.712 86.4573 138.418 87.1621 138.261 87.903L138.34 88.002ZM146.853 90.1591C146.197 90.786 145.411 91.259 144.553 91.5445L146.165 89.5654C146.46 89.1894 145.929 88.6748 145.634 89.0509C144.887 89.981 144.14 91.0299 143.373 91.8611H142.685C143.806 90.5549 144.946 89.2686 146.086 87.903C146.401 87.5468 145.87 87.0124 145.555 87.3884L141.781 91.683C141.417 91.5894 141.071 91.4356 140.758 91.2278L145.201 86.201C145.516 85.8448 144.985 85.3302 144.671 85.6864C143.196 87.3884 141.702 89.0904 140.227 90.8122C140.043 90.591 139.891 90.3444 139.775 90.08L143.845 84.6177C144.14 84.2417 143.609 83.7272 143.334 84.1032C142.036 85.8052 140.758 87.527 139.402 89.229C139.32 88.8321 139.287 88.4267 139.303 88.0217L142.862 84.0636C143.196 83.7271 142.665 83.2126 142.351 83.549L139.598 86.5572C139.81 85.9561 140.108 85.3894 140.483 84.875C140.586 84.8883 140.691 84.8636 140.778 84.8054C140.864 84.7472 140.927 84.6595 140.955 84.5584C140.998 84.3842 141.051 84.2124 141.112 84.0438L141.466 83.6282C142.311 82.9355 143.137 82.2231 143.963 81.4908C144.711 81.3299 145.489 81.4051 146.193 81.7062C146.897 82.0072 147.491 82.5194 147.895 83.173C148.587 84.2682 148.863 85.5784 148.672 86.8622C148.48 88.146 147.834 89.3169 146.853 90.1591ZM147.167 78.7993L147.816 78.1857L147.698 78.5618C147.578 78.6833 147.479 78.8237 147.403 78.9774L147.167 78.7993ZM148.268 81.6887L147.895 81.3721C147.952 81.3917 148.014 81.3917 148.072 81.3721L148.268 81.6887ZM149.35 76.7608L149.664 76.464L149.487 76.8004L149.35 76.7608ZM156.506 80.719C155.969 81.3499 155.297 81.8505 154.54 82.1835L155.346 81.4908C155.7 81.1742 155.169 80.6596 154.815 80.9565L152.967 82.6189C152.561 82.6468 152.153 82.5929 151.768 82.4605L155.012 78.2847C155.307 77.9087 154.776 77.3941 154.481 77.7701L151.08 82.1043C150.778 81.8884 150.524 81.6122 150.333 81.2929H150.451L154.383 76.6817C154.697 76.3254 154.167 75.8109 153.852 76.1671L149.92 80.6992V80.5013C149.758 79.9973 149.697 79.4656 149.743 78.9378C149.774 78.9788 149.814 79.0121 149.86 79.035C149.906 79.0579 149.957 79.0698 150.008 79.0698C150.06 79.0698 150.11 79.0579 150.156 79.035C150.202 79.0121 150.243 78.9788 150.274 78.9378L152.771 76.0088C152.799 76.0128 152.828 76.0097 152.855 75.9999C152.882 75.99 152.907 75.9736 152.926 75.9522C152.945 75.9307 152.959 75.9049 152.966 75.8768C152.974 75.8487 152.974 75.8193 152.967 75.7911C153.262 75.4348 152.731 74.9005 152.436 75.2765C151.532 76.3056 150.647 77.2556 149.763 78.3837C149.974 77.4263 150.353 76.5148 150.883 75.6921C152.535 74.5838 154.245 72.7829 156.388 73.436C159.848 74.3266 158.02 78.7795 156.447 80.6002L156.506 80.719ZM156.998 70.6257H156.821C156.788 70.6066 156.75 70.5965 156.713 70.5965C156.675 70.5965 156.637 70.6066 156.604 70.6257C156.427 70.6497 156.258 70.7177 156.113 70.8236C156.113 70.8236 155.877 70.9621 155.916 71.0809C155.894 71.12 155.882 71.1644 155.882 71.2095C155.882 71.2547 155.894 71.299 155.916 71.3382C155.754 71.4615 155.636 71.6355 155.582 71.8329C155.175 71.8591 154.773 71.9321 154.383 72.0506L156.349 70.0716L157.725 69.7549L156.998 70.6257ZM157.41 71.7142C157.44 71.8378 157.44 71.9666 157.41 72.0902C157.421 72.1491 157.421 72.2094 157.41 72.2683L156.978 72.0704C157.134 71.9235 157.279 71.7648 157.41 71.5955V71.7142ZM249.342 45.6102C249.263 45.7131 249.215 45.8368 249.205 45.9665C248.22 47.019 247.054 47.8838 245.764 48.5195C245.691 48.5052 245.616 48.5173 245.551 48.5535C245.487 48.5897 245.437 48.6477 245.41 48.7174C244.879 48.9747 244.329 49.2319 243.759 49.4496L248.635 42.9781C248.91 42.6021 248.399 42.0875 248.104 42.4635L242.481 49.9444C241.262 50.3798 240.043 50.7162 238.883 51.0131L246.551 41.6521C246.845 41.2761 246.315 40.7615 246.02 41.1177L237.703 51.2902L236.072 51.6662L234.499 52.0224L239.237 45.0957C239.492 44.6999 238.844 44.3436 238.588 44.7395L233.457 52.2599L229.623 53.1109L234.381 47.332C234.695 46.9758 234.164 46.4414 233.85 46.8175L228.463 53.3682L224.924 54.14L229.19 49.133C229.505 48.7767 228.974 48.2622 228.66 48.6184L223.725 54.3973L221.759 54.8129C223.037 52.9922 224.315 51.1516 225.691 49.3309C225.966 48.9549 225.317 48.5788 225.042 48.9747L220.776 55.0306L218.22 55.565L220.815 51.6068C221.071 51.211 220.422 50.8548 220.166 51.2308L217.198 55.7035L214.74 56.2181C216.136 53.9223 217.551 51.6266 218.967 49.3309C219.223 48.9153 218.574 48.5591 218.338 48.9747L213.718 56.5149L211.752 56.9305L216.529 49.9048C216.804 49.509 216.156 49.133 215.88 49.5288C214.176 52.0752 212.453 54.615 210.71 57.1482L209.274 57.4451H208.94C209.825 55.9212 210.729 54.4171 211.634 52.913C211.889 52.4974 211.241 52.1412 210.985 52.537L207.957 57.643L205.382 58.1576L211.83 49.5288C212.106 49.1528 211.575 48.6382 211.299 49.0142L204.3 58.395L201.863 58.8898L206.483 53.5463C206.797 53.1901 206.266 52.6755 205.952 53.0317L201.037 58.6919C201.004 58.7491 200.987 58.8139 200.987 58.8799C200.987 58.9459 201.004 59.0108 201.037 59.0679L198.737 59.5429L203.416 52.6359C203.691 52.2401 203.042 51.8839 202.787 52.2797L198.048 59.2658C198.022 59.2916 198.001 59.3224 197.987 59.3564C197.973 59.3904 197.966 59.4269 197.966 59.4637C197.966 59.5006 197.973 59.5371 197.987 59.5711C198.001 59.6051 198.022 59.6358 198.048 59.6616L194.608 60.3741C196.377 58.1378 198.127 55.9014 199.896 53.6848C200.191 53.3088 199.661 52.7943 199.366 53.1505L193.468 60.5918L191.502 60.9876L197.93 52.9328C198.225 52.5568 197.695 52.0422 197.4 52.4182C195.06 55.3473 192.72 58.3554 190.361 61.2251L187.078 61.898C189.201 59.4835 191.344 57.0691 193.468 54.6348C193.782 54.2786 193.271 53.764 192.937 54.1202L185.859 62.1553L179.174 63.5406L185.741 55.2879C186.036 54.9119 185.505 54.3973 185.21 54.7733L178.27 63.501C178.242 63.5844 178.242 63.675 178.27 63.7583L176.048 64.2135L181.573 56.1587C181.848 55.7827 181.199 55.4066 180.924 55.8025C178.958 58.6919 176.992 61.5616 175.026 64.451L172.706 64.9458L179.174 57.0295C179.469 56.6535 178.939 56.1389 178.644 56.5149L171.763 64.9853C171.737 65.0624 171.737 65.1458 171.763 65.2228L169.796 65.6384C171.763 63.0656 173.729 60.4731 175.832 57.9003C176.127 57.5242 175.596 57.0097 175.301 57.3857L168.676 65.8759L165.923 66.4894C168.42 63.2833 170.917 60.0575 173.434 56.8514C173.729 56.4753 173.198 55.9608 172.903 56.3368L164.783 66.7467L161.873 67.3998L162.286 66.9446C164.185 65.1893 165.904 63.2467 167.418 61.1459C167.467 61.0582 167.487 60.9563 167.472 60.8563C167.458 60.7563 167.411 60.6639 167.339 60.5936C167.267 60.5233 167.174 60.4792 167.074 60.4681C166.975 60.457 166.874 60.4797 166.788 60.5324C164.785 62.1665 162.953 64.0035 161.323 66.0145C160.733 66.6676 160.084 67.3009 159.357 67.9935L158.177 68.2508C163.545 62.8677 168.754 57.5836 173.906 53.0317C174.613 52.3984 173.552 51.3693 172.844 52.0026C162.601 61.0074 153.655 71.5361 143.353 80.5013C142.763 80.6748 142.215 80.9703 141.744 81.369C141.274 81.7677 140.891 82.2608 140.621 82.8168C139.618 83.648 138.655 84.4396 137.554 85.2312C138.261 84.4792 138.949 83.7074 139.638 82.9553C139.688 82.8819 139.71 82.793 139.701 82.7045C139.692 82.6159 139.652 82.5334 139.589 82.4717C139.525 82.41 139.442 82.3729 139.353 82.3673C139.265 82.3616 139.178 82.3876 139.107 82.4408L134.506 87.4874C133.425 88.2394 132.304 88.9915 131.164 89.7039L136.197 84.6573C136.531 84.3209 136 83.8063 135.666 84.1428L128.569 91.2476L126.957 92.1382L132.56 86.0031C132.874 85.6469 132.344 85.1323 132.029 85.4885L124.991 93.0486C124.165 93.4642 123.339 93.86 122.494 94.236L127.92 88.0613C128.235 87.7051 127.704 87.1905 127.389 87.5468L120.901 94.9089C120.056 95.2651 119.21 95.6016 118.345 95.9182L122.926 90.8914C123.241 90.555 122.71 90.0206 122.395 90.3768L116.871 96.4328C115.966 96.7494 115.042 97.0265 114.138 97.2838L118.07 93.0288C118.404 92.6923 117.874 92.1778 117.539 92.5142L113.096 97.264C113.07 97.3127 113.057 97.3671 113.057 97.4223C113.057 97.4775 113.07 97.5319 113.096 97.5807C112.152 97.8181 111.13 98.0161 110.285 98.214C111.739 96.3536 113.214 94.5131 114.689 92.6725C114.983 92.2965 114.453 91.782 114.158 92.1382C112.585 94.1173 110.992 96.0964 109.42 98.0754C109.399 98.1186 109.388 98.166 109.388 98.214C109.388 98.262 109.399 98.3093 109.42 98.3525C108.456 98.5306 107.454 98.6692 106.51 98.7681L110.58 94.4339C110.63 94.3605 110.652 94.2717 110.643 94.1831C110.634 94.0945 110.594 94.0121 110.531 93.9503C110.467 93.8886 110.384 93.8516 110.295 93.8459C110.207 93.8402 110.12 93.8663 110.049 93.9194C108.496 95.5818 106.942 97.2244 105.409 98.8868L103.168 99.0254L107.1 95.0672C107.434 94.7308 106.903 94.2162 106.569 94.5527L102.067 99.0254H100.101L104.603 94.7506C104.937 94.4141 104.406 93.8996 104.072 94.236L99.0782 98.9858C98.3115 98.9858 97.5251 98.8473 96.7583 98.7483L99.4125 96.2547C99.7467 95.938 99.2158 95.4235 98.8816 95.7401L95.8146 98.6296L94.8906 98.491C111.622 83.7667 127.802 68.3696 144.14 53.2099C144.533 52.8536 143.943 52.3193 143.55 52.6359C136.433 58.4742 129.571 64.6291 122.808 70.883C122.741 70.784 122.645 70.7081 122.533 70.6653C124.499 68.4289 126.465 66.1728 128.333 63.9364C128.647 63.5802 128.117 63.0656 127.802 63.4219L121.55 70.6851C120.547 70.883 119.584 71.16 118.581 71.4371C121.235 68.3696 123.87 65.302 126.445 62.2542C126.76 61.8782 126.229 61.3636 125.915 61.7397L117.126 71.7934C116.202 72.0506 115.278 72.2881 114.354 72.486L121.668 63.6198C121.963 63.2438 121.452 62.7292 121.137 63.1052L113.273 72.6444C112.152 72.8423 111.032 73.0006 109.891 73.1391L117.579 63.5208C117.874 63.1448 117.343 62.6302 117.048 63.0063C114.315 66.4301 111.582 69.8341 108.869 73.2579C107.965 73.3568 107.08 73.4558 106.195 73.5151L111.897 66.2124C112.172 65.8363 111.661 65.3218 111.366 65.678L105.193 73.5943L102.696 73.7922C104.957 71.1601 107.237 68.5279 109.498 65.8759C109.813 65.5197 109.282 65.0051 108.967 65.3614L101.654 73.8714L99.2158 74.0297L105.488 67.6967C105.558 67.6258 105.597 67.5297 105.597 67.4295C105.597 67.3293 105.558 67.2332 105.488 67.1623C105.417 67.0915 105.322 67.0517 105.222 67.0517C105.123 67.0517 105.027 67.0915 104.957 67.1623L98.1542 74.0495H97.1515C96.5339 74.0414 95.9171 74.0018 95.3034 73.9308L103.168 65.5395C103.482 65.1833 102.971 64.6687 102.637 65.0249L94.4187 73.7724C93.7436 73.6296 93.0848 73.4174 92.4527 73.1391L96.9549 68.607C97.0077 68.5431 97.0365 68.4626 97.0365 68.3795C97.0365 68.2963 97.0077 68.2158 96.9549 68.1519C101.096 65.3683 104.617 61.7493 107.296 57.5243C107.866 56.6139 106.431 55.8222 105.841 56.7128C102.49 61.9718 97.7985 66.2296 92.2561 69.0424L91.2927 69.4976L93.534 66.4103C93.8092 66.0145 93.1605 65.6582 92.8852 66.0342L90.1721 69.9924C89.2284 70.3684 88.2061 70.7049 87.3017 70.9819L89.4053 68.3894C89.7199 68.0331 89.1891 67.4988 88.8745 67.8748L85.9648 71.4173C85.0604 71.6416 84.156 71.8395 83.2516 72.0111L86.5349 68.6862C86.8691 68.3498 86.3383 67.8352 86.0041 68.1716L82.072 72.1298C81.3053 72.2683 80.5189 72.3673 79.7324 72.4662L83.6645 68.6664C84.0184 68.33 83.4876 67.8154 83.1337 68.1519L78.6118 72.585H77.4518L80.6565 69.6362C81.0104 69.2997 80.4795 68.7852 80.1453 69.1216L76.2132 72.6839L74.8174 72.7829C80.3419 67.4988 85.9254 62.1949 91.1748 56.6139C91.568 56.1983 90.9585 55.6243 90.526 56.0004C88.4027 57.8343 86.299 59.7144 84.215 61.6407C84.0577 61.2251 83.8611 60.8293 83.6842 60.4533C83.3567 59.7016 82.9892 58.9683 82.5832 58.2565C82.5446 58.1887 82.481 58.1389 82.4062 58.118C81.4429 56.3566 80.4402 54.615 79.4179 52.8932C79.4723 52.9227 79.5331 52.9381 79.5948 52.9381C79.6566 52.9381 79.7174 52.9227 79.7718 52.8932L84.6868 50.2215C85.0997 50.0038 84.6868 49.3705 84.2936 49.5882L79.3982 52.2401C79.3417 52.2703 79.295 52.3162 79.2636 52.3723C79.2323 52.4285 79.2176 52.4925 79.2213 52.5568C78.9264 52.0422 78.6118 51.5277 78.2972 51.0131L81.4232 49.1924C81.8361 48.9549 81.4232 48.3216 81.03 48.5591L77.8057 50.5777C77.4912 50.0631 77.1766 49.5288 76.8424 49.0142L79.7914 47.2331C79.8775 47.1832 79.9403 47.101 79.9661 47.0045C79.9919 46.908 79.9786 46.8051 79.929 46.7185C79.8795 46.6319 79.7978 46.5687 79.702 46.5427C79.6061 46.5167 79.5039 46.5301 79.4179 46.58L76.4688 48.3809L75.6627 47.0748L78.8477 44.9571C79.2409 44.6999 78.8477 44.0468 78.4545 44.3238L75.2695 46.4415C74.896 45.8082 74.5028 45.1749 74.1096 44.4624L78.4349 42.1469C78.8477 41.9292 78.4349 41.2959 78.0416 41.5136L73.736 43.8093L72.9496 42.5031L76.0756 40.524C76.4885 40.2667 76.0756 39.6334 75.7021 39.8907L72.5761 41.8698L71.9076 40.8209L71.6717 40.4251L74.778 38.446C74.8415 38.3877 74.8831 38.3091 74.8958 38.2235C74.9085 38.1379 74.8914 38.0506 74.8475 37.9762C74.8036 37.9018 74.7356 37.8449 74.6549 37.8151C74.5742 37.7853 74.4857 37.7845 74.4045 37.8127L71.2981 39.7918C71.0032 39.297 70.728 38.8022 70.4331 38.3273L73.0086 36.5857C73.4018 36.3086 73.0086 35.6753 72.6154 35.9524L70.0596 37.6742L69.2928 36.368L72.2222 34.5868C72.6351 34.3493 72.2222 33.716 71.829 33.9535L68.9192 35.7347L67.9362 34.0525L70.5314 32.4692C70.9443 32.2119 70.5314 31.5786 70.1579 31.8359L67.5627 33.4192L66.9925 32.4098L68.4671 31.4005C68.8603 31.1432 68.4671 30.5099 68.0935 30.7672L66.619 31.7765L65.3607 29.6589L68.585 27.858C68.9979 27.6403 68.585 26.9872 68.1918 27.2247L64.9872 29.0256L64.1614 27.6205L66.7763 25.8987C67.1891 25.6216 66.7763 24.9883 66.4027 25.2456L63.7682 26.9872C63.4537 26.4528 63.1391 25.9185 62.8049 25.4039L66.1865 23.1874C66.5797 22.9301 66.1865 22.2968 65.7933 22.554L62.4313 24.8498L61.5859 23.4842L63.8076 21.9801C64.1811 21.7031 63.8076 21.0698 63.4144 21.327L61.1927 22.8707C61.0158 22.5936 60.8585 22.3166 60.6816 22.0593C61.0354 21.901 61.3893 21.7624 61.7236 21.5843C62.0578 21.4062 61.7236 21.0104 61.5073 21.0895C61.1136 21.2073 60.7264 21.346 60.3473 21.5051L60.1114 21.0302C60.0609 20.9496 59.9948 20.8801 59.9172 20.8257C59.8395 20.7714 59.7518 20.7332 59.6592 20.7135C59.5988 20.6619 59.5222 20.6336 59.443 20.6336C59.3637 20.6336 59.2871 20.6619 59.2267 20.7135C61.651 19.7765 64.2409 19.3521 66.8352 19.4667C69.6091 25.797 73.1984 31.7324 77.5108 37.12C81.7968 42.5823 87.0461 48.2424 93.6126 50.8152C97.3361 51.9802 101.261 52.3444 105.134 51.8839C109.498 51.7256 113.863 51.5079 118.227 51.2704C126.616 50.8086 134.991 50.1885 143.353 49.4101C166.637 47.2813 189.8 43.9787 212.754 39.5147C211.929 40.2865 211.103 41.0584 210.258 41.8104C209.904 42.1469 210.434 42.6614 210.788 42.325L214.15 39.2376H214.406C213.619 40.3657 212.853 41.5136 212.086 42.6416C211.811 43.0374 212.459 43.3937 212.715 43.0177L215.428 38.7033L217.728 38.2481L218.593 38.07L214.779 42.0281C214.445 42.3646 214.976 42.8791 215.31 42.5427L219.891 37.7929L221.228 37.5158L218.279 40.6824C217.945 41.0188 218.476 41.5334 218.81 41.1969L221.896 37.8721C221.93 37.8406 221.957 37.8023 221.976 37.7597C221.995 37.7172 222.004 37.6712 222.004 37.6247C222.004 37.5782 221.995 37.5322 221.976 37.4896C221.957 37.4471 221.93 37.4088 221.896 37.3773L225.042 36.6846L219.95 42.3844C219.616 42.7208 220.147 43.2551 220.481 42.8989L226.025 36.7242C226.049 36.6536 226.049 36.5771 226.025 36.5065L229.131 35.8138L223.489 41.5136C223.155 41.85 223.686 42.3646 224.02 42.0281L230.488 35.4972L233.181 34.8639L228.66 40.2865C228.365 40.6626 228.896 41.1771 229.19 40.8011L233.929 35.1212C233.971 35.0565 233.993 34.9808 233.993 34.9035C233.993 34.8261 233.971 34.7504 233.929 34.6858L237.546 33.8348L234.341 37.6346C234.027 37.9908 234.558 38.5054 234.872 38.1491L238.077 34.3493C238.115 34.3013 238.142 34.245 238.154 34.1849C238.167 34.1248 238.166 34.0625 238.151 34.003C238.135 33.9434 238.107 33.8883 238.067 33.8419C238.026 33.7955 237.976 33.7592 237.92 33.7358L239.296 33.4192C239.318 33.4284 239.341 33.4332 239.365 33.4332C239.388 33.4332 239.412 33.4284 239.433 33.4192C241.4 34.8639 243.483 36.2888 245.469 37.7533C247.927 39.4355 251.8 42.3448 249.342 45.4915V45.6102ZM249.971 39.673C250.382 40.0126 250.722 40.4294 250.974 40.9V41.1177C250.706 40.5688 250.369 40.0566 249.971 39.5939V39.673Z" fill="white"/>
<path d="M133.93 46.817C134.183 46.4341 134.349 45.9999 134.416 45.5451C134.483 45.0903 134.45 44.6262 134.318 44.1858C134.187 43.7455 133.961 43.3398 133.656 42.9975C133.351 42.6553 132.975 42.3849 132.554 42.2058C131.803 41.8965 130.967 41.8726 130.2 42.1384C129.433 42.4042 128.788 42.9416 128.386 43.6505C126.951 46.817 131.807 49.5085 133.93 46.817ZM131.964 42.7005C132.317 42.787 132.645 42.9549 132.922 43.1911C133.2 43.4272 133.418 43.7251 133.561 44.0612C133.705 44.3972 133.768 44.7622 133.747 45.1271C133.725 45.4921 133.62 45.8471 133.439 46.1639C133.567 45.7339 133.588 45.2786 133.5 44.8385C133.412 44.3983 133.217 43.9868 132.933 43.6405C132.649 43.2941 132.285 43.0235 131.873 42.8526C131.46 42.6818 131.012 42.616 130.568 42.661C131.033 42.542 131.519 42.542 131.984 42.661L131.964 42.7005ZM132.613 46.3816C132.468 45.7094 132.133 45.0938 131.648 44.6091C131.163 44.1245 130.549 43.7915 129.88 43.6505C130.261 43.4945 130.679 43.4544 131.082 43.5349C131.486 43.6155 131.857 43.8133 132.15 44.1039C132.442 44.3945 132.644 44.7651 132.73 45.1699C132.816 45.5747 132.782 45.996 132.633 46.3816H132.613ZM129.015 44.1255C129.748 44.2186 130.434 44.5365 130.981 45.0358C131.404 45.5669 131.742 46.1612 131.984 46.7972C132.014 46.8421 132.055 46.8784 132.103 46.9027C132.152 46.9269 132.205 46.9383 132.259 46.9358C131.86 47.072 131.434 47.1061 131.019 47.0351C130.604 46.9641 130.213 46.7901 129.881 46.5289C129.55 46.2677 129.288 45.9276 129.119 45.539C128.951 45.1505 128.881 44.726 128.917 44.3036L129.015 44.1255Z" fill="white"/>
<path d="M144.926 45.1351C145.179 44.7507 145.345 44.315 145.412 43.8588C145.479 43.4026 145.446 42.9371 145.315 42.4953C145.183 42.0535 144.957 41.6461 144.652 41.302C144.347 40.9579 143.971 40.6855 143.55 40.5041C142.796 40.1937 141.956 40.1691 141.186 40.4348C140.416 40.7004 139.768 41.2384 139.362 41.9488C137.848 45.1351 142.783 47.8267 144.926 45.1351ZM142.96 41.0187C143.328 41.1116 143.669 41.2928 143.953 41.5469C144.238 41.801 144.457 42.1204 144.592 42.478C144.727 42.8355 144.774 43.2207 144.73 43.6006C144.685 43.9806 144.55 44.3441 144.336 44.6602C144.182 44.8499 143.995 45.0107 143.785 45.1351C144.218 44.1852 143.412 42.9384 142.626 42.4238C142.255 42.1765 141.828 42.027 141.385 41.9889C140.942 41.9509 140.496 42.0256 140.089 42.2061C140.375 41.717 140.813 41.3359 141.335 41.1214C141.857 40.9069 142.435 40.8708 142.979 41.0187H142.96ZM142.114 42.9977C142.92 43.5123 142.842 44.3039 143.156 44.9768C143.194 45.054 143.257 45.1165 143.333 45.1549C142.953 45.2953 142.546 45.3436 142.144 45.2958C141.742 45.2481 141.357 45.1057 141.02 44.8801C140.683 44.6546 140.404 44.3523 140.204 43.9978C140.005 43.6432 139.892 43.2464 139.873 42.8394C140.241 42.6887 140.641 42.6334 141.036 42.6783C141.431 42.7232 141.808 42.8671 142.134 43.0967L142.114 42.9977Z" fill="white"/>
<path d="M167.732 38.0296C167.467 37.6784 167.13 37.3881 166.745 37.1779C166.36 36.9678 165.934 36.8427 165.497 36.8108C165.06 36.779 164.621 36.8412 164.21 36.9934C163.799 37.1455 163.424 37.384 163.112 37.6931C162.564 38.2526 162.224 38.9848 162.149 39.7667C162.073 40.5486 162.268 41.3328 162.699 41.9877C163.021 42.4593 163.487 42.8115 164.027 42.9902C164.567 43.169 165.15 43.1644 165.687 42.9772C165.738 43.0158 165.8 43.0366 165.864 43.0366C165.928 43.0366 165.99 43.0158 166.041 42.9772C166.195 42.8782 166.328 42.7506 166.434 42.6012C166.821 42.4006 167.164 42.125 167.445 41.7903C167.726 41.4557 167.938 41.0685 168.069 40.6511C168.201 40.2336 168.249 39.7941 168.212 39.3578C168.174 38.9215 168.051 38.497 167.85 38.1087L167.732 38.0296ZM165.766 42.2252C165.368 42.3971 164.925 42.432 164.506 42.3247C164.086 42.2174 163.714 41.9737 163.446 41.6315C163.157 41.247 162.984 40.7877 162.946 40.3075C162.907 39.8273 163.006 39.346 163.23 38.9201C163.7 38.8368 164.185 38.8958 164.622 39.0895C165.06 39.2832 165.43 39.6031 165.687 40.0086C165.918 40.4235 166.008 40.9031 165.943 41.3742C165.899 41.6688 165.813 41.9555 165.687 42.2252H165.766ZM166.906 41.4138C166.929 40.7786 166.779 40.1492 166.474 39.593C166.18 39.129 165.762 38.7581 165.268 38.5234C164.774 38.2887 164.224 38.1998 163.682 38.267C163.923 38.0202 164.214 37.8294 164.536 37.7079C164.858 37.5863 165.202 37.537 165.545 37.5634C165.887 37.5898 166.22 37.6912 166.52 37.8606C166.82 38.03 167.079 38.2633 167.28 38.5441C167.524 39.007 167.612 39.5374 167.53 40.0551C167.449 40.5728 167.202 41.0497 166.827 41.4138H166.906Z" fill="white"/>
<path d="M177.74 36.4472C177.476 36.0946 177.141 35.8027 176.756 35.5907C176.372 35.3788 175.947 35.2518 175.51 35.2181C175.072 35.1844 174.633 35.2448 174.221 35.3953C173.809 35.5458 173.433 35.7829 173.119 36.0909C172.572 36.6504 172.232 37.3826 172.156 38.1645C172.081 38.9465 172.276 39.7306 172.707 40.3855C172.975 40.7805 173.346 41.0931 173.78 41.2887C174.214 41.4843 174.693 41.5553 175.164 41.4938C175.173 41.5371 175.193 41.5775 175.221 41.6117C175.249 41.6459 175.284 41.6729 175.325 41.6903C175.365 41.7078 175.409 41.7152 175.453 41.712C175.497 41.7088 175.539 41.695 175.577 41.6719C175.767 41.5596 175.934 41.4118 176.069 41.2365C176.509 41.0711 176.909 40.8135 177.243 40.4808C177.578 40.1481 177.838 39.7478 178.007 39.3063C178.176 38.8649 178.25 38.3924 178.224 37.92C178.199 37.4476 178.074 36.9861 177.858 36.5659C177.829 36.5169 177.788 36.4761 177.74 36.4472ZM175.498 40.6824C175.122 40.8038 174.718 40.8083 174.34 40.6953C173.961 40.5823 173.625 40.3571 173.375 40.0491C173.068 39.6047 172.904 39.0764 172.904 38.5351C172.904 37.9938 173.068 37.4655 173.375 37.0211C173.852 37.0113 174.321 37.1358 174.731 37.3806C175.141 37.6254 175.475 37.9807 175.695 38.4064C175.845 38.7741 175.905 39.1725 175.871 39.5684C175.837 39.9643 175.709 40.3462 175.498 40.6824ZM176.678 39.9699C176.795 39.2975 176.699 38.605 176.403 37.9908C176.158 37.536 175.803 37.1517 175.369 36.8745C174.935 36.5974 174.438 36.4366 173.926 36.4076C174.437 36.0461 175.068 35.8997 175.685 35.9995C176.302 36.0993 176.855 36.4374 177.228 36.9419C177.487 37.4359 177.573 38.0027 177.473 38.5516C177.373 39.1006 177.093 39.6 176.678 39.9699Z" fill="white"/>
<path d="M187.899 34.904C187.633 34.5541 187.297 34.2647 186.913 34.0546C186.528 33.8445 186.104 33.7185 185.668 33.6849C185.232 33.6513 184.793 33.7108 184.382 33.8595C183.97 34.0082 183.594 34.2427 183.279 34.5478L183.003 34.904H182.709C182.662 34.9236 182.622 34.9565 182.594 34.9988C182.566 35.0411 182.551 35.0907 182.551 35.1415C182.551 35.1923 182.566 35.242 182.594 35.2842C182.622 35.3265 182.662 35.3595 182.709 35.379C182.426 35.912 182.294 36.5124 182.325 37.1156C182.356 37.7188 182.55 38.3021 182.885 38.8028C183.289 39.3743 183.894 39.7704 184.576 39.9111H184.714C185.312 39.9492 185.91 39.8293 186.448 39.5632C186.986 39.2972 187.446 38.8942 187.782 38.3942C188.117 37.8943 188.317 37.3147 188.362 36.7129C188.407 36.1112 188.295 35.508 188.036 34.9634C187.996 34.9334 187.949 34.9131 187.899 34.904ZM184.576 39.1788C184.173 39.0695 183.815 38.8338 183.554 38.5059C183.244 38.0907 183.065 37.5913 183.041 37.0726C183.016 36.5539 183.147 36.0397 183.416 35.5967C183.729 35.6779 184.022 35.8214 184.279 36.0185C184.535 36.2157 184.75 36.4625 184.91 36.7446C185.094 37.1349 185.167 37.5684 185.122 37.9977C185.076 38.427 184.915 38.8356 184.655 39.1788H184.576ZM185.559 39.1788C185.767 38.7745 185.884 38.3289 185.901 37.8738C185.918 37.4187 185.835 36.9655 185.658 36.5466C185.494 36.1771 185.253 35.8476 184.951 35.5811C184.649 35.3145 184.293 35.1173 183.908 35.003C184.156 34.7858 184.447 34.6229 184.761 34.5247C185.076 34.4264 185.407 34.3949 185.734 34.4321C186.061 34.4693 186.377 34.5744 186.662 34.7408C186.946 34.9072 187.193 35.1313 187.388 35.3988C187.56 35.7582 187.651 36.1518 187.654 36.5509C187.657 36.9501 187.571 37.3449 187.404 37.7068C187.236 38.0686 186.991 38.3884 186.686 38.643C186.38 38.8976 186.022 39.0806 185.638 39.1788H185.559Z" fill="white"/>
<path d="M198.892 32.7673C198.627 32.4174 198.291 32.128 197.906 31.9179C197.522 31.7078 197.098 31.5818 196.662 31.5482C196.225 31.5146 195.787 31.574 195.375 31.7227C194.964 31.8714 194.588 32.106 194.272 32.4111C193.71 32.9645 193.356 33.6968 193.27 34.4834C193.184 35.2699 193.372 36.0622 193.8 36.7254C194.133 37.2164 194.622 37.5795 195.186 37.7556C195.75 37.9317 196.356 37.9104 196.907 37.6952C196.968 37.7522 197.049 37.7838 197.133 37.7838C197.217 37.7838 197.297 37.7522 197.359 37.6952C197.592 37.5582 197.767 37.3399 197.85 37.0817C198.536 36.6405 199.03 35.9533 199.23 35.1594C199.431 34.3655 199.324 33.5244 198.932 32.8069C198.921 32.7919 198.907 32.7786 198.892 32.7673ZM198.165 33.0444L195.649 32.4309C196.082 32.275 196.551 32.25 196.998 32.359C197.445 32.468 197.851 32.7063 198.165 33.0444ZM197.044 36.864C196.636 37.0982 196.157 37.1772 195.695 37.0864C195.233 36.9956 194.819 36.7411 194.528 36.3692C194.215 35.927 194.048 35.3978 194.048 34.8552C194.048 34.3126 194.215 33.7834 194.528 33.3412C194.698 33.0812 194.918 32.8589 195.177 32.6881C195.147 32.7712 195.147 32.8623 195.177 32.9454C194.96 32.9454 194.803 33.3214 195.059 33.4204C195.479 33.547 195.87 33.7577 196.208 34.04C196.546 34.3222 196.824 34.6702 197.025 35.063C197.223 35.4609 197.312 35.9053 197.28 36.3494C197.225 36.5306 197.145 36.7036 197.044 36.864ZM198.008 36.0921C197.99 35.6313 197.897 35.1766 197.733 34.7464C197.494 34.2442 197.145 33.804 196.71 33.46L198.047 33.7964C198.101 33.808 198.156 33.8077 198.21 33.7953C198.263 33.783 198.313 33.759 198.356 33.725C198.399 33.691 198.434 33.6478 198.459 33.5986C198.484 33.5494 198.498 33.4953 198.499 33.4402C198.689 33.8813 198.743 34.3693 198.656 34.8417C198.568 35.3141 198.343 35.7495 198.008 36.0921Z" fill="white"/>
<path d="M205.596 30.3926C205.048 30.9521 204.708 31.6842 204.633 32.4662C204.558 33.2481 204.752 34.0323 205.183 34.6872C205.5 35.1639 205.967 35.5203 206.508 35.6996C207.05 35.8789 207.635 35.8708 208.172 35.6767C208.198 35.6923 208.229 35.7005 208.26 35.7005C208.291 35.7005 208.322 35.6923 208.348 35.6767C208.653 35.5727 208.939 35.4189 209.194 35.2215C209.251 35.2173 209.307 35.201 209.358 35.1737C209.409 35.1465 209.453 35.1088 209.489 35.0632V34.9246C210.06 34.4621 210.45 33.811 210.591 33.0866C210.731 32.3622 210.612 31.6112 210.256 30.9665C210.248 30.9411 210.235 30.9175 210.218 30.8971C210.201 30.8767 210.181 30.8599 210.157 30.8478C209.899 30.5002 209.572 30.2106 209.196 29.9973C208.821 29.7841 208.405 29.6518 207.976 29.609C207.547 29.5662 207.114 29.6137 206.704 29.7486C206.294 29.8835 205.917 30.1028 205.596 30.3926ZM205.852 34.3507C205.596 34.0186 205.427 33.6268 205.362 33.2116C205.296 32.7964 205.336 32.3713 205.478 31.9758C205.874 32.009 206.258 32.1333 206.598 32.3391C206.939 32.545 207.229 32.827 207.444 33.1633C207.795 33.708 207.948 34.3584 207.877 35.0038C207.521 35.0898 207.149 35.0742 206.801 34.9589C206.454 34.8435 206.146 34.6329 205.911 34.3507H205.852ZM208.938 34.4695L208.702 34.6278C208.723 33.9152 208.501 33.2169 208.073 32.6487C207.676 32.0672 207.082 31.6519 206.402 31.4811C206.796 31.1346 207.31 30.9598 207.832 30.9951C208.353 31.0303 208.84 31.2728 209.184 31.6691C209.528 32.0654 209.702 32.583 209.667 33.1082C209.632 33.6334 209.391 34.123 208.997 34.4695H208.938ZM209.685 31.2436C209.971 31.7255 210.062 32.299 209.941 32.8466C209.851 32.3214 209.612 31.8335 209.253 31.4415C208.872 31.0585 208.391 30.792 207.865 30.6729C207.34 30.5539 206.792 30.587 206.284 30.7686C206.539 30.5616 206.832 30.4092 207.147 30.3206C207.462 30.2321 207.792 30.2094 208.116 30.2539C208.44 30.2984 208.752 30.4091 209.032 30.5793C209.312 30.7495 209.554 30.9756 209.744 31.2436H209.685Z" fill="white"/>
<path d="M189.297 54.1793C187.134 56.7718 184.972 59.3842 182.79 61.9768C182.495 62.3528 183.025 62.8674 183.32 62.4914C185.503 59.8988 187.665 57.2864 189.828 54.6938C190.123 54.3376 189.592 53.8032 189.297 54.1793Z" fill="white"/>
<path d="M248.178 44.6399L247.038 46.1436C246.763 46.5195 247.293 47.0339 247.569 46.658L248.709 45.1543C248.984 44.7388 248.454 44.2244 248.178 44.6399Z" fill="white"/>
<path d="M86.0591 51.4884L81.2423 54.5362C80.8295 54.8132 81.2423 55.4465 81.6159 55.1893L86.4327 52.0425C86.8455 51.8644 86.4523 51.2311 86.0591 51.4884Z" fill="white"/>
<path d="M87.9868 52.992L82.8751 56.3168C82.4623 56.5741 82.8751 57.2074 83.2487 56.9501L88.3604 53.6253C88.7536 53.368 88.38 52.7347 87.9868 52.992Z" fill="white"/>
<path d="M88.6211 54.7331L83.1556 58.4934C82.7624 58.7507 83.1556 59.384 83.5291 59.1267L88.9947 55.3862C89.3879 55.0894 89.0143 54.5352 88.6211 54.7331Z" fill="white"/>
<path d="M223.015 27.7385C223.078 27.749 223.144 27.7426 223.205 27.7199C223.265 27.6973 223.319 27.6591 223.361 27.6093C223.402 27.5594 223.43 27.4995 223.442 27.4354C223.454 27.3713 223.449 27.3053 223.427 27.2438C223.48 27.3012 223.549 27.3424 223.624 27.3625L222.523 28.5697C222.473 28.6234 222.44 28.6907 222.427 28.7632C222.415 28.8357 222.424 28.9103 222.453 28.9777C222.482 29.0452 222.531 29.1024 222.592 29.1425C222.653 29.1825 222.725 29.2036 222.798 29.203C224.182 29.1289 225.566 29.3376 226.868 29.8166C227.32 29.9749 227.497 29.2426 227.045 29.0843C225.944 28.6968 224.79 28.4832 223.624 28.451L224.961 27.0261C225.014 26.9657 225.047 26.8898 225.054 26.8095C225.061 26.7292 225.042 26.6487 225 26.5799C224.958 26.5112 224.895 26.4578 224.821 26.4276C224.747 26.3975 224.665 26.3922 224.587 26.4125L223.585 26.65C223.537 26.6608 223.493 26.6818 223.454 26.7116C223.416 26.7414 223.384 26.7793 223.362 26.8226C223.339 26.8659 223.327 26.9136 223.324 26.9624C223.322 27.0112 223.33 27.06 223.349 27.1052C223.297 27.0918 223.243 27.0918 223.191 27.1052C223.127 27.1206 223.067 27.1533 223.019 27.1997C222.971 27.2462 222.936 27.3048 222.918 27.3694C222.9 27.434 222.899 27.5023 222.916 27.5673C222.933 27.6322 222.967 27.6913 223.015 27.7385Z" fill="white"/>
<path d="M151.625 43.8286C151.865 44.1858 152.191 44.4764 152.573 44.6735C152.954 44.8706 153.378 44.968 153.807 44.9567C153.867 45.0083 153.944 45.0366 154.023 45.0366C154.102 45.0366 154.179 45.0083 154.239 44.9567L154.495 44.7588C154.995 44.6404 155.462 44.4094 155.861 44.0833C156.26 43.7572 156.58 43.3444 156.797 42.876C157.015 42.4075 157.124 41.8955 157.117 41.3784C157.11 40.8613 156.986 40.3525 156.756 39.8903C156.722 39.8459 156.682 39.806 156.638 39.7716C156.371 39.4231 156.034 39.1353 155.649 38.927C155.263 38.7187 154.839 38.5946 154.403 38.5628C153.967 38.5311 153.529 38.5924 153.118 38.7427C152.707 38.893 152.332 39.1289 152.018 39.4351C151.684 39.7851 151.429 40.2037 151.271 40.6621C151.257 40.6898 151.25 40.7203 151.25 40.7512C151.25 40.7821 151.257 40.8126 151.271 40.8403C151.087 41.3304 151.024 41.8578 151.085 42.3779C151.147 42.898 151.332 43.3956 151.625 43.8286ZM156.127 40.3851C156.375 40.8346 156.472 41.3526 156.405 41.8623C156.338 42.3719 156.109 42.8463 155.753 43.2151C156.032 42.7484 156.154 42.2038 156.1 41.6619C156.047 41.1201 155.822 40.6099 155.458 40.207C155.204 39.9478 154.896 39.7492 154.556 39.6259C154.216 39.5026 153.852 39.4577 153.492 39.4945C153.969 39.3522 154.478 39.3614 154.949 39.5208C155.421 39.6801 155.832 39.9819 156.127 40.3851ZM154.928 40.7413C155.187 41.0276 155.346 41.3911 155.382 41.7768C155.417 42.1625 155.327 42.5494 155.124 42.8787C155.082 42.4093 154.934 41.9557 154.692 41.5527C154.465 41.2341 154.171 40.9697 153.831 40.7781C153.492 40.5866 153.114 40.4727 152.726 40.4444C153.067 40.2328 153.468 40.1413 153.867 40.1843C154.265 40.2273 154.639 40.4023 154.928 40.6819V40.7413ZM154.082 42.0475C154.319 42.4456 154.41 42.915 154.338 43.3735C154.277 43.6717 154.156 43.9545 153.984 44.2047C153.664 44.2308 153.343 44.1777 153.048 44.05C152.753 43.9224 152.494 43.7241 152.293 43.4724C152.037 43.1442 151.868 42.7557 151.803 42.3436C151.738 41.9315 151.778 41.5095 151.92 41.1173C152.331 41.0379 152.757 41.084 153.142 41.2498C153.527 41.4155 153.855 41.6933 154.082 42.0475Z" fill="white"/>
<path d="M159.221 33.9343C176.384 29.8574 193.764 26.2159 210.691 21.2484C211.065 21.1495 210.908 20.6151 210.534 20.6745C193.253 24.1973 176.168 29.1054 159.103 33.4989C159.045 33.5146 158.997 33.5527 158.967 33.6046C158.938 33.6566 158.93 33.7182 158.945 33.776C158.961 33.8337 158.999 33.8828 159.05 33.9125C159.102 33.9422 159.163 33.95 159.221 33.9343Z" fill="white"/>
<path d="M155.303 62.4526C146.991 71.2 137.34 78.5498 126.717 84.2224C126.422 84.3807 126.717 84.8161 126.973 84.6578C137.809 79.1961 147.537 71.7459 155.657 62.6901C155.7 62.6722 155.737 62.6429 155.764 62.6055C155.792 62.568 155.809 62.5238 155.813 62.4774C155.818 62.4311 155.809 62.3844 155.79 62.3423C155.77 62.3002 155.739 62.2643 155.7 62.2385C155.662 62.2127 155.617 62.1979 155.571 62.1956C155.525 62.1934 155.479 62.2038 155.438 62.2258C155.397 62.2477 155.363 62.2804 155.339 62.3204C155.316 62.3603 155.303 62.406 155.303 62.4526Z" fill="white"/>
<path d="M134.194 74.6028C136.023 72.9206 137.871 71.2582 139.62 69.5166C139.896 69.2395 139.502 68.8833 139.227 69.1208C137.261 70.7238 135.531 72.4456 133.703 74.1278C133.388 74.4247 133.88 74.8799 134.194 74.6028Z" fill="white"/>
<path d="M130.884 4.72185C130.931 4.72185 130.976 4.70309 131.009 4.6697C131.043 4.6363 131.061 4.591 131.061 4.54377C131.061 4.49655 131.043 4.45126 131.009 4.41787C130.976 4.38447 130.931 4.36572 130.884 4.36572C130.884 4.30636 130.688 4.68228 130.884 4.72185Z" fill="white"/>
<path d="M102.695 46.8365C103.167 46.8365 103.344 46.1636 102.872 46.1043C96.9693 45.3142 91.3923 42.9171 86.7429 39.1714C82.0934 35.4258 78.5478 30.4737 76.4882 24.849C76.331 24.3938 75.6232 24.6115 75.7805 25.0667C77.8733 30.8178 81.486 35.8848 86.2291 39.7211C90.9722 43.5575 96.6656 46.0177 102.695 46.8365Z" fill="white"/>
<path d="M98.7984 84.6585L58.3177 92.5748C57.8655 92.5748 58.0621 93.3664 58.534 93.2674L98.9949 85.3511C99.4275 85.2918 99.2505 84.5793 98.7984 84.6585Z" fill="white"/>
<path d="M80.9286 84.9156L53.4041 92.1195C53.3222 92.1576 53.2568 92.2243 53.22 92.3072C53.1832 92.3902 53.1774 92.4837 53.2038 92.5705C53.2302 92.6574 53.2869 92.7317 53.3634 92.7798C53.44 92.8278 53.5313 92.8463 53.6203 92.8319L81.1448 85.6281C81.597 85.5094 81.3807 84.7969 80.9286 84.9156Z" fill="white"/>
<path d="M37.4566 86.2005L66.4752 81.4309C66.9471 81.4309 66.7308 80.6393 66.259 80.7185L37.2403 85.488C36.7684 85.6265 36.9847 86.339 37.4566 86.2005Z" fill="white"/>
<path d="M45.1269 81.7084L60.6193 79.4721C61.0715 79.4721 61.0715 78.6606 60.6193 78.7398L45.1269 80.9762C44.6354 81.0355 44.6551 81.7876 45.1269 81.7084Z" fill="white"/>
<path d="M27.7093 86.7155C28.3621 85.8509 28.7752 84.8274 28.9065 83.7496C29.0378 82.6717 28.8824 81.5781 28.4564 80.5804C27.9098 79.416 26.9787 78.4787 25.8219 77.9284C26.031 76.7 25.8101 75.4366 25.197 74.3539C24.5839 73.2711 23.6165 72.4361 22.46 71.9912C20.9673 71.4536 19.3508 71.3676 17.8101 71.7439C16.2694 72.1202 14.8718 72.9423 13.7898 74.1088C12.6284 72.9849 11.0851 72.349 9.47418 72.3306C7.86326 72.3122 6.30599 72.9127 5.1196 74.0098C4.25472 74.8977 3.73997 76.0718 3.67125 77.3134C3.60253 78.555 3.98451 79.7794 4.74605 80.7585C-0.680204 83.4104 -0.208356 92.5142 5.82737 93.7016C5.86285 94.6764 6.08889 95.6347 6.49257 96.5215C6.89624 97.4083 7.46963 98.2063 8.17994 98.8698C8.89025 99.5334 9.72355 100.049 10.6322 100.389C11.5408 100.728 12.5069 100.883 13.4752 100.846C14.8889 100.741 16.2453 100.241 17.3916 99.4018C18.5379 98.5626 19.4286 97.4178 19.9632 96.0963C24.9766 97.8775 30.6191 91.5048 27.7093 86.7155ZM20.1794 95.463C20.4063 94.6799 20.4863 93.8611 20.4154 93.0485C20.4154 92.7319 19.8649 92.6329 19.8059 93.0485C19.6854 94.7454 18.9818 96.3472 17.8158 97.5787C16.6498 98.8102 15.0943 99.5946 13.4163 99.7971C9.72012 99.9753 7.51816 96.9869 6.41718 93.8599C6.62676 93.8706 6.83674 93.8706 7.04631 93.8599C7.55748 93.8599 7.55748 93.1673 7.04631 93.0089C5.65994 92.6743 4.41458 91.906 3.4891 90.8144C2.56362 89.7228 2.00564 88.364 1.8953 86.9332C1.93062 85.7885 2.27267 84.6748 2.88524 83.7098C3.49782 82.7447 4.35814 81.9643 5.37518 81.4512C6.06788 81.9299 6.89469 82.1726 7.73443 82.1438C7.80687 82.1257 7.87122 82.0838 7.91721 82.0246C7.9632 81.9654 7.98819 81.8924 7.98819 81.8173C7.98819 81.7422 7.9632 81.6692 7.91721 81.61C7.87122 81.5508 7.80687 81.5088 7.73443 81.4907C7.14127 81.3558 6.58443 81.0924 6.10262 80.7189C6.07786 80.6262 6.02459 80.5437 5.95043 80.4832C5.87627 80.4228 5.78503 80.3875 5.68975 80.3825C5.2318 79.9355 4.88873 79.3832 4.69013 78.773C4.49154 78.1629 4.44338 77.5132 4.54981 76.8802C4.65623 76.2471 4.91406 75.6496 5.30104 75.1392C5.68802 74.6288 6.19253 74.2208 6.77107 73.9505C7.79708 73.4269 8.95642 73.228 10.0968 73.3799C11.2372 73.5318 12.3052 74.0273 13.1607 74.8015C13.1699 74.8468 13.1946 74.8876 13.2305 74.9165C13.2664 74.9454 13.3113 74.9607 13.3573 74.9598C13.975 75.4494 14.5297 76.0145 15.0088 76.642C15.0552 76.6894 15.1161 76.7197 15.1817 76.7281C15.2473 76.7365 15.3138 76.7224 15.3705 76.6881C15.4272 76.6539 15.4708 76.6015 15.4943 76.5393C15.5179 76.4771 15.52 76.4087 15.5003 76.3451C15.1074 75.686 14.6316 75.0807 14.0847 74.5442C15.9879 73.035 18.3975 72.3257 20.8086 72.5651C21.9952 72.8032 23.0631 73.4482 23.8303 74.3901C24.5975 75.332 25.0165 76.5125 25.0159 77.7305C24.2641 77.4625 23.4442 77.4595 22.6905 77.722C21.9368 77.9845 21.2941 78.4969 20.8675 79.1752C20.6906 79.4523 21.0838 79.7096 21.3197 79.5117C23.9739 77.0972 27.611 79.7887 27.7683 82.9157C27.7505 84.0223 27.4038 85.0981 26.7731 86.0046C26.1424 86.9111 25.2565 87.6068 24.2295 88.0019C23.8756 88.18 24.2295 88.655 24.485 88.5956C25.3109 88.4631 26.0855 88.1074 26.7263 87.5665C27.1014 88.5623 27.2036 89.6413 27.022 90.6905C26.8404 91.7397 26.3819 92.7205 25.6943 93.5299C25.0068 94.3394 24.1156 94.9478 23.1142 95.2914C22.1128 95.6349 21.038 95.7011 20.0025 95.4828L20.1794 95.463Z" fill="white"/>
<path d="M36.8924 94.3551C36.9566 94.3738 37.0248 94.3738 37.089 94.3551C37.6936 93.7854 38.065 93.0089 38.1304 92.1779C38.1959 91.3468 37.9507 90.5211 37.4429 89.8626C36.9322 89.2264 36.2053 88.8034 35.4027 88.6755C34.6001 88.5475 33.7789 88.7237 33.0979 89.1699C32.9013 89.3085 33.0979 89.7043 33.2945 89.6053C33.8713 89.2998 34.5369 89.2102 35.1731 89.3524C35.8093 89.4946 36.3748 89.8594 36.7688 90.382C37.1628 90.9045 37.3599 91.5508 37.3249 92.2059C37.29 92.8609 37.0252 93.4823 36.5778 93.9593C36.5613 94.0107 36.5613 94.0661 36.5778 94.1176C35.8691 93.545 34.9679 93.2706 34.0627 93.3517C33.1576 93.4329 32.3187 93.8633 31.7217 94.553C31.6901 94.5408 31.6551 94.5408 31.6234 94.553C31.6002 94.5465 31.5759 94.5447 31.552 94.5476C31.528 94.5506 31.5049 94.5582 31.4839 94.5702C31.4629 94.5821 31.4445 94.5981 31.4296 94.6172C31.4147 94.6364 31.4038 94.6583 31.3973 94.6816C31.3909 94.705 31.3891 94.7295 31.392 94.7536C31.3949 94.7777 31.4025 94.8009 31.4144 94.8221C31.4263 94.8432 31.4421 94.8618 31.4611 94.8767C31.4801 94.8917 31.5019 94.9027 31.5251 94.9092C31.5112 94.9737 31.519 95.041 31.5473 95.1005C31.5756 95.16 31.6228 95.2082 31.6814 95.2377C31.74 95.2672 31.8067 95.2763 31.871 95.2634C31.9352 95.2505 31.9934 95.2164 32.0363 95.1665C32.3811 94.812 32.8092 94.5508 33.281 94.4071C33.7528 94.2635 34.2529 94.2419 34.7352 94.3445C35.2174 94.4472 35.6661 94.6706 36.0398 94.9942C36.4134 95.3177 36.6999 95.731 36.8727 96.1956C36.9907 96.6428 37.0046 97.1113 36.9133 97.5648C36.8221 98.0182 36.6281 98.4444 36.3466 98.8101C36.0651 99.1758 35.7036 99.4712 35.2902 99.6734C34.8768 99.8755 34.4226 99.979 33.963 99.9757C33.5305 99.9757 33.3928 100.668 33.8647 100.767C34.5037 100.875 35.1598 100.809 35.7644 100.574C36.369 100.34 36.9 99.946 37.3018 99.4344C37.7036 98.9227 37.9615 98.3118 38.0486 97.6655C38.1357 97.0191 38.0487 96.3612 37.7968 95.7602C37.6133 95.2248 37.3029 94.7425 36.8924 94.3551Z" fill="white"/>
<path d="M30.4218 82.045C30.8206 81.7011 31.3104 81.4821 31.8312 81.4148C32.3519 81.3475 32.8808 81.4349 33.3529 81.6662C33.825 81.8975 34.2196 82.2626 34.4883 82.7167C34.7569 83.1707 34.8879 83.6939 34.8651 84.222C34.8651 84.598 35.4549 84.6969 35.5335 84.222C35.6337 83.5331 35.5138 82.83 35.1913 82.2141C34.8688 81.5983 34.3602 81.1015 33.739 80.7954C33.1178 80.4894 32.4161 80.3899 31.7351 80.5113C31.054 80.6327 30.429 80.9688 29.95 81.471C29.6354 81.8866 30.0876 82.2429 30.4218 82.045Z" fill="white"/>
<path d="M33.8806 72.3482C43.817 70.817 53.6621 68.7358 63.3711 66.1142C63.784 65.9954 63.5874 65.4215 63.1942 65.4809C53.3017 67.0302 43.5023 69.1313 33.8413 71.7743C33.4874 71.7743 33.5463 72.3482 33.8806 72.3482Z" fill="white"/>
<path d="M162.679 13.925C155.916 8.18574 147.58 1.65479 138.163 4.60361C138.084 4.64215 138.022 4.70711 137.986 4.78721C137.95 4.86731 137.943 4.9575 137.967 5.04213C137.99 5.12676 138.042 5.20051 138.114 5.25054C138.186 5.30058 138.272 5.32376 138.359 5.31607C147.521 2.46621 155.601 8.8982 162.168 14.4594C162.522 14.776 163.033 14.2417 162.679 13.925Z" fill="white"/>
<path d="M239.022 34.7458L237.292 36.7249C236.977 37.0613 237.508 37.5957 237.822 37.2395C238.137 36.8832 238.982 35.9926 239.552 35.3791C240.123 34.7656 239.277 34.3302 239.022 34.7458Z" fill="white"/>
<path d="M240.608 35.3577L240.274 35.7929C239.979 36.1689 240.51 36.6833 240.785 36.3074L241.12 35.8721C241.414 35.4962 240.982 34.9817 240.608 35.3577Z" fill="white"/>
<path d="M208.661 40.6832L206.813 43.0383C206.518 43.3945 207.049 43.9288 207.344 43.5528L209.192 41.1977C209.526 40.8415 208.956 40.3071 208.661 40.6832Z" fill="white"/>
<path d="M228.359 26.572C228.359 26.7897 228.359 27.0272 228.359 27.2449C228.356 27.3142 228.375 27.3828 228.414 27.44C228.453 27.4972 228.51 27.5399 228.576 27.5615C228.774 28.0547 229.147 28.4558 229.624 28.6864C230.1 28.917 230.645 28.9604 231.151 28.8083C231.584 28.65 231.387 27.9375 230.935 28.0959C230.72 28.1871 230.486 28.2236 230.254 28.202C230.022 28.1805 229.799 28.1016 229.605 27.9724C229.41 27.8432 229.25 27.6676 229.139 27.4613C229.028 27.255 228.97 27.0243 228.969 26.7897V26.6116C228.969 26.196 228.281 26.1168 228.241 26.6116C228.232 26.6439 228.232 26.6782 228.241 26.7105L228.359 26.572Z" fill="white"/>
<path d="M16.1864 79.3129C15.2115 79.2281 14.237 79.4816 13.425 80.0315C12.613 80.5813 12.0124 81.3943 11.723 82.3354C11.4335 83.2764 11.4728 84.2888 11.8341 85.2043C12.1955 86.1198 12.8572 86.8832 13.7092 87.3677C14.0041 87.5261 14.3777 87.0907 14.0828 86.873C13.3774 86.4247 12.8374 85.756 12.5455 84.9694C12.2537 84.1827 12.2262 83.3214 12.4671 82.5174C12.7081 81.7134 13.2042 81.0112 13.8795 80.5182C14.5548 80.0252 15.3721 79.7687 16.2061 79.7879C16.5207 79.7879 16.4813 79.3327 16.1864 79.3129Z" fill="white"/>
<path d="M25.0369 99.3422C24.7617 99.461 25.0369 99.9557 25.2728 99.837C25.5521 99.7296 25.8506 99.6823 26.1491 99.698C26.4476 99.7137 26.7396 99.7921 27.0062 99.9282C27.2728 100.064 27.5082 100.255 27.6973 100.488C27.8863 100.721 28.0248 100.991 28.1039 101.282C28.1376 101.595 28.1043 101.913 28.0063 102.213C27.9083 102.512 27.7479 102.788 27.5357 103.02C27.3235 103.252 27.0645 103.436 26.776 103.56C26.4874 103.683 26.1761 103.743 25.8626 103.736C25.5284 103.736 25.4498 104.29 25.8626 104.349C26.2874 104.421 26.7229 104.389 27.1332 104.258C27.5435 104.126 27.9168 103.898 28.2222 103.593C28.5277 103.287 28.7565 102.913 28.8898 102.501C29.023 102.089 29.0569 101.65 28.9886 101.222C28.8863 100.815 28.6956 100.435 28.4302 100.11C28.1648 99.785 27.8312 99.5233 27.4535 99.3436C27.0757 99.1639 26.6632 99.0706 26.2453 99.0703C25.8275 99.0701 25.4148 99.1629 25.0369 99.3422Z" fill="white"/>
<path d="M65.6752 72.3471C65.358 71.9577 64.959 71.644 64.5068 71.4287C64.0546 71.2133 63.5606 71.1016 63.0604 71.1016C62.5602 71.1016 62.0662 71.2133 61.614 71.4287C61.1618 71.644 60.7628 71.9577 60.4456 72.3471C60.3079 72.5252 60.5635 72.7825 60.7208 72.6044C60.9884 72.2754 61.3286 72.0139 61.7143 71.8406C62.1001 71.6674 62.5206 71.5872 62.9426 71.6064C63.3645 71.6256 63.7762 71.7437 64.1448 71.9513C64.5134 72.159 64.8288 72.4504 65.0658 72.8023C65.3603 73.5107 65.3891 74.3026 65.1468 75.0308C64.9045 75.7589 64.4075 76.3736 63.7485 76.7604C63.7072 76.8094 63.6807 76.8693 63.6721 76.933C63.6636 76.9967 63.6733 77.0615 63.7002 77.1198C63.7271 77.1781 63.77 77.2274 63.8238 77.2619C63.8777 77.2965 63.9403 77.3147 64.0041 77.3146C66.2061 77.0375 66.8549 73.9699 65.6752 72.3471Z" fill="white"/>
<path d="M71.2785 83.8665C71.6856 83.6431 72.0348 83.3261 72.2974 82.9414C72.5601 82.5567 72.7289 82.115 72.7902 81.6523C72.8515 81.1896 72.8035 80.7188 72.6502 80.2782C72.4968 79.8377 72.2424 79.4397 71.9076 79.1167C71.5505 78.8063 71.1281 78.5812 70.6723 78.4585C70.2164 78.3357 69.7389 78.3184 69.2755 78.4079C68.8121 78.4974 68.3748 78.6913 67.9964 78.9752C67.6181 79.259 67.3084 79.6254 67.0908 80.0469C67.0702 80.12 67.0748 80.198 67.1039 80.2682C67.133 80.3383 67.1848 80.3965 67.2509 80.4332C67.317 80.47 67.3935 80.4831 67.468 80.4704C67.5425 80.4577 67.6105 80.4201 67.661 80.3635C67.8427 80.0688 68.0901 79.8206 68.3836 79.6387C68.677 79.4568 69.0085 79.3461 69.3518 79.3154C69.6951 79.2847 70.0408 79.3348 70.3615 79.4617C70.6823 79.5887 70.9693 79.789 71.1998 80.0469C71.4837 80.5581 71.5968 81.1476 71.5224 81.7284C71.4481 82.3093 71.1903 82.8507 70.7869 83.2728C70.7473 83.3459 70.7305 83.4294 70.7386 83.5123C70.7466 83.5952 70.7793 83.6738 70.8323 83.7378C70.8853 83.8018 70.9561 83.8483 71.0357 83.8712C71.1153 83.8942 71.1998 83.8925 71.2785 83.8665Z" fill="white"/>
<path d="M76.487 80.5213C76.8774 80.365 77.301 80.312 77.7175 80.3674C78.1339 80.4229 78.5293 80.5849 78.8659 80.8379C79.4503 81.2983 79.8934 81.9159 80.1438 82.6191C80.1724 82.6871 80.2203 82.7452 80.2815 82.786C80.3427 82.8269 80.4145 82.8487 80.4879 82.8487C80.5613 82.8487 80.6331 82.8269 80.6943 82.786C80.7555 82.7452 80.8034 82.6871 80.832 82.6191C81.1465 80.1848 77.9222 79.1953 76.1528 80.0463C75.8382 80.1254 76.1135 80.6796 76.487 80.5213Z" fill="white"/>
<path d="M52.7551 87.4082C52.7081 87.4082 52.6631 87.427 52.63 87.4604C52.5968 87.4937 52.5781 87.539 52.5781 87.5863C52.5781 87.6335 52.5968 87.6788 52.63 87.7122C52.6631 87.7456 52.7081 87.7643 52.7551 87.7643C52.802 87.7643 52.847 87.7456 52.8802 87.7122C52.9134 87.6788 52.932 87.6335 52.932 87.5863C52.932 87.539 52.9134 87.4937 52.8802 87.4604C52.847 87.427 52.802 87.4082 52.7551 87.4082Z" fill="white"/>
<path d="M57.2384 89.3278C57.2384 89.7038 57.8675 89.8027 57.9461 89.3278C57.9971 88.866 57.919 88.3991 57.7205 87.9796C57.5219 87.5602 57.2109 87.2049 56.8226 86.9539C56.4342 86.7029 55.9839 86.5661 55.5224 86.5589C55.0609 86.5517 54.6066 86.6745 54.2107 86.9133C54.1038 86.9789 54.0272 87.0846 53.9977 87.2071C53.9682 87.3295 53.9882 87.4588 54.0534 87.5664C54.1186 87.674 54.2235 87.7511 54.3452 87.7808C54.4669 87.8105 54.5953 87.7903 54.7022 87.7247C54.9705 87.5822 55.2713 87.5133 55.5745 87.5248C55.8777 87.5363 56.1725 87.6278 56.4294 87.7902C56.6863 87.9526 56.8963 88.1801 57.0383 88.45C57.1803 88.7199 57.2493 89.0226 57.2384 89.3278Z" fill="white"/>
<path d="M67.5598 95.166C67.5128 95.166 67.4678 95.1848 67.4346 95.2182C67.4015 95.2516 67.3828 95.2969 67.3828 95.3441C67.3828 95.3913 67.4015 95.4366 67.4346 95.47C67.4678 95.5034 67.5128 95.5221 67.5598 95.5221C67.6067 95.5221 67.6517 95.5034 67.6849 95.47C67.7181 95.4366 67.7367 95.3913 67.7367 95.3441C67.7367 95.2969 67.7181 95.2516 67.6849 95.2182C67.6517 95.1848 67.6067 95.166 67.5598 95.166Z" fill="white"/>
<path d="M76.2507 92.8913C75.5259 92.2237 74.579 91.8535 73.5966 91.8535C72.6141 91.8535 71.6673 92.2237 70.9424 92.8913C70.6279 93.1683 71.0801 93.5839 71.3946 93.3267C72.0035 92.824 72.7776 92.5695 73.5639 92.6135C74.3501 92.6574 75.0914 92.9967 75.6413 93.5642C76.1369 94.1647 76.4082 94.9208 76.4082 95.7016C76.4082 96.4823 76.1369 97.2384 75.6413 97.8389C75.6011 97.9044 75.5845 97.9818 75.5942 98.0582C75.6039 98.1345 75.6393 98.2052 75.6945 98.2584C75.7497 98.3117 75.8214 98.3443 75.8975 98.3508C75.9737 98.3573 76.0498 98.3373 76.1131 98.2941C76.4819 97.9529 76.7787 97.5405 76.986 97.0815C77.1932 96.6224 77.3067 96.1261 77.3195 95.6221C77.3323 95.118 77.2443 94.6165 77.0607 94.1474C76.8771 93.6782 76.6017 93.2511 76.2507 92.8913Z" fill="white"/>
</svg>
