<?xml version="1.0" encoding="utf-8"?>
<!-- Generator: Adobe Illustrator 23.0.6, SVG Export Plug-In . SVG Version: 6.00 Build 0)  -->
<svg version="1.1" id="Layer_1" xmlns="http://www.w3.org/2000/svg" xmlns:xlink="http://www.w3.org/1999/xlink" x="0px" y="0px"
	 viewBox="0 0 194 136.6" style="enable-background:new 0 0 194 136.6;" xml:space="preserve">
<style type="text/css">
	.st0{fill:#FFFCFC;}
</style>
<title>2</title>
<g id="_12">
	<path class="st0" d="M193.7,118.6c-6-2.7-13.1-5.1-19.6-2.7c-1.1,0.4-2.1,0.9-3,1.5c2.2-5.8,3.9-11.7,6.3-17.4
		c0.2-0.5,0.4-1,0.6-1.5h0.3c0.6-0.1,0.5-0.7,0.2-1c2.5-5.2,5.2-10.3,8.2-15.2c0.1-0.2,0-0.4-0.2-0.5c0,0,0,0-0.1,0
		c0.1-0.2,0.1-0.4-0.1-0.6c-0.1-0.1-0.2-0.1-0.3-0.1c-2.6,0.1-5.1,0.4-7.7,0.8c0.2-9.8,0.4-19.7,0.8-29.5c0-0.3-0.2-0.6-0.6-0.6
		c-0.9,0-1.8,0.1-2.7,0.1c-0.3-4.7-0.8-9.3-1.1-14c0-0.3-0.2-0.5-0.5-0.5c0,0,0,0,0,0h-0.7c-0.3-10.1-1.2-20.2-1.8-30.2
		c-0.1-2.5,0.1-6.2-2.9-7.1c-1.9-0.5-4.3,0.1-6.2,0.3l-7.8,0.7c-0.2,0-0.5,0.2-0.4,0.4c0.1,1.9,0.3,3.8,0.4,5.7
		c-0.1,0.1-0.1,0.4,0,0.5l0.1,1.8h-0.1c-0.3,0-0.3,0.6,0.1,0.6l0,0c0.6,9.4,1.1,18.8,2.2,28.2L143,39.2c-0.3,0-0.5,0.2-0.5,0.5
		c0,0,0,0,0,0c0.2,4.7,0.3,9.3,0.7,14l-2.2,0.1l-5.8,0.3c-1.9,0.1-4.1,0-5.9,0.7l0,0c-0.2-0.2-0.4-0.2-0.6,0
		c-0.1,0.1-0.1,0.2-0.1,0.3c-0.5,4.5,0.2,9.4,0.5,13.9c-0.2,0.1-0.2,0.4-0.1,0.5c0,0.1,0.1,0.1,0.1,0.1c0,0.2,0,0.4,0,0.6
		c0.3,4.6,0.2,9.4,1,14c-2.1-0.1-4.2-0.1-6.3-0.2c-0.5-3.8-1.1-7.5-1.6-11.3c0,0,0-0.1,0-0.1c0.2-3.4,0.1-6.8,0.2-10.2
		c0-0.2-0.2-0.4-0.4-0.4c0,0,0,0,0,0l0,0c0-3.5-0.2-6.9-0.3-10.4c0-0.3-0.2-0.6-0.6-0.6c-5,0-10,0.1-14.9,0.1l0,0
		c-0.4-2.8-0.8-5.6-1.2-8.4c-0.1-0.2-0.3-0.4-0.5-0.4c-4.8,0.1-9.6,0.2-14.4,0.4c0.1-0.1,0.1-0.2,0.1-0.4c-0.2-1.7-0.4-3.5-0.6-5.2
		c0-0.2-0.2-0.4-0.4-0.4c-11.7-0.6-23.5-0.1-35.2-0.1c-0.3,0-0.5,0.2-0.5,0.5c0,1.5,0,3,0.1,4.6l0,0c-0.1,0.1-0.1,0.3,0,0.4
		c0,0,0,0,0,0c0,0.7,0.1,1.4,0.1,2.1c-5.6,0.2-11.3,0.3-16.9,0.4c-0.2,0-0.4,0.2-0.5,0.4c-0.2,2.7-0.3,5.4-0.4,8.1
		c-5.1,0-10.3-0.1-15.4-0.2c-0.3,0-0.5,0.2-0.5,0.5C20,57,19.9,60.5,19.9,64l0,0c-0.4,0-0.6,0.3-0.7,0.6c-0.2,3.1-0.4,6.2-0.4,9.3
		c-6.2-0.1-12.4,0.2-18.6,0.7c-0.4,0-0.5,0.7,0,0.7l0,0c0,0.1,0,0.1,0.1,0.2C8,83.9,16,92,23.8,100.3l2.6,2.7l0,0
		c-0.1,0-0.1,0.1-0.1,0.2c0,0.1,0.1,0.1,0.1,0.1l0,0c0,0.1,0.1,0.1,0.2,0.1h0.2c2.9,3,5.8,6.1,8.7,9.1c3.8,4.1,7.7,8.1,11.9,11.8
		c-5.4-1.4-11.7-2.9-15.9,1.5c0-0.1-0.1-0.1-0.1-0.1c-0.1,0-0.1,0.1-0.1,0.2c0,0.1,0.1,0.1,0.1,0.1c0,0.2,0,0.3,0.2,0.4
		c0.1,0,0.2,0,0.3-0.1c5.8-5.4,14.1-0.5,20.6,0.6c3.1,0.6,6.3,0,9.1-1.4c1.9-1.1,3.8-2.4,5.5-3.7l0,0c0.9-0.7,1.8-1.3,2.8-1.8
		c3.7-2,7.4-2.2,10.9,0.4c2,1.5,3.7,3.5,5.7,5c3.9,2.8,7.8,1.9,11-1.5c1.8-1.9,3.4-4.3,5.8-5.7c0.9-0.5,2-0.9,3.1-0.9
		c0.1,0,0.1,0,0.2,0c1.9,0.1,3.8,0.6,5.5,1.6c4.3,2.3,8.4,5.8,13.6,4.9c5.2-0.8,8.9-4.7,13.1-7.2c2.4-1.4,5-2.4,7.8-2
		c3,0.5,5.5,2.5,7.9,4.3c2.1,1.6,4.4,3.3,7.1,3.7c3.1,0.5,5.7-1,8.2-2.7c3.5-2.4,6.8-3.9,11.2-3.6s8.5,1.8,12.6,3.1
		C194,119.5,194.2,118.8,193.7,118.6z M156.1,7.8c2.4-0.1,4.9-0.3,7.4-0.5c2.4,0,4.9-0.3,7.3-0.7c0.2-0.1,0.3-0.3,0.2-0.5
		c0-0.1-0.2-0.2-0.3-0.3c-2.7,0-5.4,0.2-8.1,0.6c-2.2,0.2-4.3,0.4-6.5,0.6c0-0.3,0-0.5-0.1-0.8c-0.1-1.1-0.8-3.6,0.1-4.4
		c0.4-0.4,2.3-0.2,2.9-0.2l2.9-0.2c1.8-0.1,3.5-0.3,5.3-0.4c2.7-0.1,3.6,2,3.8,4.3c0.1,1.1,0.2,2.2,0.2,3.4
		c-0.1-0.1-0.3-0.2-0.4-0.2c-4.8,0.3-9.8,0.3-14.6,0.9C156.2,8.9,156.1,8.4,156.1,7.8z M156.9,17.4c-0.2-2.4-0.4-4.8-0.6-7.2
		c4.8,0.2,9.7-0.3,14.5-0.6c0.2,0,0.4-0.1,0.5-0.3c0.1,2.2,0.2,4.4,0.4,6.6c0,0.2,0,0.4,0,0.7c-0.6,0-1.3,0-1.9,0l1.1-1.1
		c0.3-0.3-0.2-0.8-0.4-0.5l-1.6,1.7l-1.3,0.1c0-0.1,0.1-0.1,0.1-0.2c0.1,0,0.2-0.2,0.2-0.3l1.1-1.9c0.1-0.2,0-0.4-0.2-0.4
		c-0.1-0.1-0.3,0-0.4,0.1l-1.2,2.1l-0.2,0.1c-0.1,0.1-0.2,0.2-0.2,0.4c0,0,0,0,0,0.1l0,0h-0.1c-0.1,0-0.3,0.1-0.3,0.2l-1.5,0.1
		l1.3-1.7c0.3-0.3-0.3-0.7-0.6-0.3l-1.5,1.9c0,0-0.1,0.1-0.1,0.2h-0.3c-0.5,0-1.1,0.1-1.6,0.1l1.9-2.6c0.3-0.3-0.3-0.7-0.6-0.3
		l-1.8,2.5c-0.2,0-0.3,0.2-0.2,0.4c0,0,0,0.1,0.1,0.1l-1.5,0.1c0.5-0.8,0.9-1.5,1.4-2.3c0.1-0.2,0-0.4-0.1-0.4
		c-0.2-0.1-0.4,0-0.4,0.1l-1.6,2.7c-0.5,0-0.9,0.1-1.3,0.2l1.6-2.7c0.2-0.4-0.4-0.7-0.6-0.3c-0.6,1.1-1.3,2.2-1.9,3.3l0,0H157
		C156.9,17.7,156.9,17.5,156.9,17.4z M157,18.6h0.1h0.1h0.1h0.1h0.1l0,0c0,0,0.1-0.1,0.1-0.1c2.3,0.1,4.6,0,6.8-0.3
		c2.4-0.1,4.9-0.2,7.4-0.5c0.1,1.1,0.1,2.1,0.2,3.2c-2.6,0.1-5.3,0.3-8,0.5c-2.2,0-4.4,0.2-6.6,0.5L157,18.6z M157.4,22.5
		c2.2,0.1,4.4,0.1,6.5-0.2c2.7-0.1,5.4-0.3,8-0.4c0.3,5.3,0.5,10.5,1,15.7l-2.2,0.1l0.8-1c0.3-0.3-0.2-0.8-0.4-0.5
		c-0.4,0.5-0.8,1-1.2,1.4c0,0,0,0-0.1,0.1l-4.5,0.2c0.7-1,1.3-2.1,2-3.1c0.2-0.3-0.3-0.7-0.6-0.3c-0.7,1.1-1.5,2.3-2.2,3.4
		c0,0,0,0.1,0,0.1l-1.4,0.1c0.5-0.9,1-1.8,1.5-2.6c0.2-0.4-0.4-0.7-0.6-0.3l-1.8,3l-1.9,0.1l2.1-3c0.3-0.3-0.3-0.7-0.6-0.3l-2.3,3.2
		c0,0,0,0.1,0,0.1l-1.2,0.1l1.5-2.5c0.2-0.4-0.3-0.7-0.6-0.3c-0.4,0.6-0.8,1.2-1.1,1.9C158.1,32.4,157.8,27.5,157.4,22.5L157.4,22.5
		z M144,40.1c0.5-0.4,3.2-0.2,3.9-0.2l3.9-0.2l6.9-0.4l6.9-0.4l3.9-0.2c1.2-0.2,2.3-0.3,3.5-0.3c0.1,0.2,0.3,0.2,0.5,0.2
		c1.1,0.7,0.9,4.9,1,6c0.2,2.5,0.4,5,0.6,7.5l0,0l-3,0.1l0.8-0.8c0.3-0.3-0.1-0.8-0.4-0.5l-1.2,1.1c0,0-0.1,0.1-0.1,0.2l-1.6,0.1
		h0.1c0.5-0.9,1-1.9,1.5-2.8c0.2-0.4-0.4-0.7-0.6-0.3l-1.5,2.8c-0.1,0.1,0,0.3,0.1,0.4l-2,0.1l1.8-2.3c0.3-0.3-0.3-0.7-0.6-0.3
		l-1.9,2.4c-0.1,0.1-0.1,0.2,0,0.3l-1.8,0.1c0,0,0.1-0.1,0.1-0.1l1.4-2.4c0.2-0.4-0.4-0.7-0.6-0.3l-1.4,2.4c-0.1,0.2,0,0.3,0.1,0.4
		c0,0,0,0,0,0l-1.5,0.1l1.2-1.7c0.2-0.3-0.3-0.7-0.6-0.3c-0.5,0.7-0.9,1.3-1.4,2c0,0,0,0.1,0,0.1h-1c0.3-0.6,0.6-1.1,0.9-1.7
		c0.2-0.4-0.4-0.7-0.6-0.3l-1,2c0,0,0,0.1,0,0.1l-1.2,0.1c0.2-0.3,0.3-0.6,0.5-0.9s-0.4-0.7-0.6-0.3s-0.5,0.8-0.7,1.3l-2.1,0.1
		c0.3-0.6,0.6-1.3,0.9-1.9c0.2-0.4-0.4-0.7-0.6-0.3c-0.3,0.7-0.7,1.4-1,2.1c0,0,0,0.1,0,0.2l-1.1,0.1c0.4-0.6,0.7-1.3,1.1-1.9
		c0.2-0.4-0.4-0.7-0.6-0.3c-0.4,0.8-0.9,1.5-1.3,2.3h-0.3l-1,0.1c0.5-1.1,0.9-2.2,1.4-3.3c0.2-0.4-0.5-0.6-0.6-0.2l-1.7,3.4
		l-1.4,0.1c0.5-0.8,0.9-1.7,1.4-2.5c0.2-0.4-0.4-0.7-0.6-0.3c-0.5,0.9-1,1.8-1.5,2.8c0,0,0,0.1,0,0.1l-3.2,0.2l1.4-2.8
		c0.2-0.4-0.4-0.7-0.6-0.3l-1.6,3.1c0,0,0,0.1,0,0.1l-1.6,0.1l1.3-2.3c0.2-0.4-0.4-0.7-0.6-0.3l-1,1.8c0-2.1-0.1-4.3-0.2-6.4
		C143.8,45,143,41,144,40.1z M129.6,55.3c1.9,0.3,3.8,0.3,5.7,0.1l5.8-0.3l12.6-0.7c8.2-0.4,16.4-0.7,24.6-1.4
		c0,3.8-0.1,7.6-0.2,11.4h-0.1l-2.9,0.2c0.4-0.8,0.8-1.6,1.1-2.4c0.2-0.4-0.4-0.7-0.6-0.3c-0.4,0.9-0.8,1.7-1.2,2.6
		c0,0.1,0,0.2,0,0.2l-1.2,0.1l0.8-1.5c0.2-0.4-0.4-0.7-0.6-0.3c-0.3,0.6-0.7,1.3-1,1.9l-2.1,0.2c0.2-0.3,0.4-0.7,0.5-1l0,0
		c2.6-0.5,4.3-3.1,3.7-5.7c0-0.1,0-0.2-0.1-0.3c-0.7-2.4-3.1-4-5.5-3.6c-1.9,0.3-3.3,1.8-3.7,3.6c0,0.1-0.1,0.2-0.1,0.2
		c0,0.1,0,0.1,0,0.2c-0.1,0.4-0.1,0.9-0.1,1.3c0,0,0,0,0,0.1l0,0c0.1,0.9,0.5,1.7,1.1,2.4c-0.1,0-0.3,0-0.3,0.2
		c-0.4,0.8-0.9,1.6-1.4,2.4c-0.2,0.4,0.4,0.7,0.6,0.3l1.4-2.4c0-0.1,0-0.1,0-0.2c0.3,0.3,0.7,0.6,1.1,0.9l-0.6,1.5
		c-0.1,0.1-0.1,0.2,0,0.3l-3.8,0.3l0.9-2.5c0.2-0.4-0.5-0.6-0.6-0.2l-1.1,2.8l-1.9,0.2c0.4-0.9,0.9-1.8,1.3-2.7
		c0.2-0.4-0.4-0.7-0.6-0.3l-1.5,3.1l-1.1,0.1l1.2-1.8c0.1-0.2,0-0.4-0.1-0.5c0,0-0.1,0-0.1,0c1.2-1.2,1.6-3,1.1-4.6
		c-0.7-2.4-3.1-3.9-5.6-3.6c-2.6,0.4-4,2.8-3.8,5.3l0,0l0,0c0.3,2.2,2,3.9,4.2,4.2c-0.1,0.4-0.3,0.8-0.5,1.3l-1.7,0.2l-1.2,0.1
		c0.2-0.5,0.4-1.1,0.6-1.6s-0.5-0.6-0.6-0.2l-0.7,1.9l-1.4,0.1l1.7-3.2c0.2-0.4-0.4-0.7-0.6-0.3l-1.9,3.6c0,0,0,0.1,0,0.1l-1,0.1
		c0.3-0.7,0.5-1.3,0.7-2c0.1-0.4-0.5-0.6-0.6-0.2l-0.8,2.3l-1.2,0.1l1-1.8c0.2-0.4-0.4-0.7-0.6-0.3l-1.3,2.2l-1.4,0.1l0.9-1.9
		c0.2-0.4-0.4-0.7-0.6-0.3l-1.1,2.3l-1.2,0.1c0.3-0.5,0.6-1.1,0.9-1.6c0.1-0.2,0-0.4-0.1-0.5c0,0,0,0-0.1,0c2.1-1,3.2-3.4,2.5-5.6
		c-0.7-2.4-3.1-3.9-5.6-3.6c-2.6,0.4-4,2.8-3.8,5.3l0,0l0,0c0.3,2.2,1.9,3.9,4.1,4.3c0,0-0.1,0.1-0.1,0.1c-0.3,0.6-0.5,1.2-0.8,1.8
		l-1.5,0.2c0.3-0.6,0.6-1.2,1-1.8c0.2-0.4-0.4-0.7-0.6-0.3c-0.4,0.7-0.8,1.5-1.2,2.2l-1.4,0.1c0.2-0.4,0.4-0.7,0.5-1.1
		s-0.4-0.7-0.6-0.3l-0.8,1.5l-1.6,0.2l1.3-2.6c0.2-0.4-0.4-0.7-0.6-0.3l-1.5,3c-0.3,0-0.6,0.1-0.9,0.1c0.3-0.9,0.6-1.8,0.9-2.7
		c0.1-0.4-0.5-0.6-0.6-0.2l-1,3C130.3,64.4,130.4,59.6,129.6,55.3z M176.9,80.1l-1,2.3l-1.4,0.2l1.2-3.1c0.1-0.4-0.5-0.6-0.6-0.2
		l-1.2,3.2c0,0,0,0.1,0,0.2l-1.7,0.2l0,0l2-4.3c0.1-0.2,0-0.4-0.2-0.5c-0.1,0-0.1,0-0.2,0c1.1-1.2,1.6-3,1.1-4.6
		c-0.7-2.4-3.1-3.9-5.6-3.6c-1.2,0.2-2.3,0.9-3,2c-0.4,0.3-0.7,0.6-1,0.9c-0.2,0.3,0.1,0.6,0.4,0.4c-0.2,0.6-0.2,1.3-0.2,1.9l0,0
		l0,0c0.3,1.8,1.4,3.2,3.1,3.9l-1.8,3.4c-0.2,0.4,0.4,0.7,0.6,0.3l1.9-3.5c0.3,0.1,0.6,0.1,0.9,0.1l-1.9,2.9c-0.1,0.2,0,0.4,0.2,0.4
		c0.1,0.1,0.3,0,0.4-0.1l2.1-3.3h0.3c0.9-0.2,1.7-0.6,2.4-1.2c-0.7,1.4-1.3,2.8-2,4.2c-0.1,0.2,0,0.3,0.1,0.4
		c-2.1,0.2-4.3,0.4-6.4,0.6l1.8-3.6c0.2-0.4-0.4-0.7-0.6-0.3l-2,4l-2.2,0.2c0.7-1.3,1.3-2.7,2-4c0.2-0.4-0.4-0.7-0.6-0.3l-2,4.1
		c-0.1,0.1-0.1,0.2,0,0.3h-0.4l-3.6,0.2l0,0c0.5-0.9,0.9-1.8,1.4-2.8c0.2-0.4-0.4-0.7-0.6-0.3l-1.4,2.8c-0.1,0.1,0,0.3,0.1,0.4
		l-1.7,0.1l2-3.4c0-0.1,0-0.1,0-0.2c2.6-0.7,4.1-3.3,3.4-5.9c0,0,0-0.1,0-0.1c-0.7-2.4-3.1-3.9-5.5-3.6c-1.2,0.2-2.3,0.8-3,1.9
		c-0.4,0.4-0.7,1-0.9,1.6c0,0.1,0,0.3,0.1,0.3c-0.1,0.5-0.2,1.1-0.1,1.6l0,0l0,0c0.3,1.8,1.5,3.3,3.1,4l0,0l-2,3.7
		c0,0.1,0,0.1,0,0.2h-1.2l1.4-2.7c0.2-0.4-0.4-0.7-0.6-0.3l-1.5,3.1l0,0l-3.7,0.1l0,0l1.4-2.3c0.1-0.2,0-0.4-0.1-0.5
		c-0.2-0.1-0.4,0-0.5,0.1l-1.4,2.3c-0.1,0.1-0.1,0.3,0.1,0.4h-1.5c0.4-0.8,0.8-1.6,1.2-2.4c0.2-0.4-0.4-0.7-0.6-0.3l-1.2,2.4
		c-0.1,0.1-0.1,0.2,0,0.3h-1c0.4-0.8,0.8-1.5,1.2-2.3c0.2-0.4-0.4-0.7-0.6-0.3l-1.4,2.6c0,0,0,0.1,0,0.1h-1.6
		c0.5-0.8,1.1-1.6,1.6-2.4c0.2-0.3-0.3-0.7-0.6-0.3c-0.6,0.9-1.2,1.8-1.9,2.7h-2c0.6-0.8,1.1-1.5,1.7-2.2c0.3-0.3-0.3-0.7-0.6-0.3
		l-1.9,2.6h-0.7c-0.1-0.1-0.3-0.1-0.4,0h-0.1l1.8-2.6c0.3-0.3-0.3-0.7-0.6-0.3l-2,2.9c0,0,0,0,0,0.1h-0.8l1.8-2.8
		c0.1-0.2,0-0.4-0.1-0.4c-0.2-0.1-0.4,0-0.4,0.1c-0.7,1.1-1.3,2.1-2,3.2h-1l1.9-3.4c0.2-0.4-0.4-0.7-0.6-0.3l-2.1,3.8h-0.9l1.6-4.1
		c0.1-0.4-0.5-0.6-0.6-0.2l-1,2.5l0,0l-0.5,1.2c0.3-4.6-0.3-9.4-0.5-14c0.1,0,0.3,0,0.3-0.2h0.8c0.1,0.2,0.4,0.3,0.6,0.1
		c0,0,0-0.1,0-0.1l1.7-0.1c0,0.2,0.2,0.3,0.4,0.2c0.1,0,0.2-0.1,0.2-0.2v-0.1c6.3-0.4,12.7-1.1,19-1.6c8.1-0.7,16.2-1.3,24.2-2.1
		h0.1c-0.1,5.5-0.2,10.9-0.4,16.4l-1,0.1l0.9-2C177.7,79.9,177,79.8,176.9,80.1z M172.2,72.9c-0.9-1.4-2.7-2.1-4.3-1.7
		c0.3-0.2,0.6-0.4,1-0.6c2-0.6,4.2,0.3,5.1,2.2c1.1,2,0.3,4.6-1.7,5.6c-0.3,0.2-0.6,0.3-0.9,0.4c-0.3,0.1-0.5,0.1-0.8,0.1
		c2.1-1,2.9-3.4,2-5.5C172.4,73.3,172.3,73.1,172.2,72.9z M169.5,78.6c-0.1,0-0.1,0.1-0.2,0.1c-1.6-0.5-2.8-1.9-3.1-3.6
		c-0.1-1,0.2-2,0.6-2.9c1.6-1.1,3.7-0.6,4.8,0.9c0,0,0,0,0,0.1c1,1.6,0.5,3.8-1.1,4.9C170.2,78.4,169.9,78.5,169.5,78.6z M158,73.7
		c1.5,2.2,0.4,4.8-1.6,6.2c-2-0.1-3.7-1.7-4-3.7c-0.1-1.1,0.2-2.1,0.7-3c1.3-1.2,3.3-1.2,4.5,0.1C157.8,73.4,157.9,73.6,158,73.7z
		 M155.4,71.6c1.9-0.4,3.8,0.6,4.8,2.3c1.1,2,0.2,4.6-1.8,5.6c-0.2,0.1-0.5,0.2-0.7,0.3c1.9-1.9,2.6-4.9,0.5-7
		C157.4,72.1,156.4,71.6,155.4,71.6z M155.4,80.5c0.2,0,0.4,0.1,0.6,0.1c0.1,0.1,0.3,0.2,0.4,0.1c0,0,0,0,0,0l0.1-0.1h0.4l-1.9,3.3
		c0,0.1,0,0.2,0,0.3c-0.5,0-1,0-1.5,0.1l1.8-3.5C155.4,80.6,155.4,80.6,155.4,80.5z M140.3,66c0.4,0,0.9,0,1.3-0.1
		c0.2,0,0.4-0.1,0.6-0.2c0,0,0.1,0,0.1,0l-1.1,1.9l-1.5,0.1c0.2-0.4,0.4-0.9,0.6-1.4C140.4,66.3,140.4,66.1,140.3,66z M143.1,59.1
		c-1.5-1.6-4.1-1.9-5.9-0.5c0.4-0.7,1.1-1.2,1.9-1.4c2-0.6,4.2,0.3,5.1,2.2c0.7,1.3,0.6,2.9-0.2,4.1
		C144.6,61.9,144.2,60.2,143.1,59.1z M142.7,59.5c1.4,1.6,1.3,4-0.3,5.4c0,0-0.1,0-0.1,0.1c-0.2,0.1-0.5,0.2-0.7,0.3
		c-2.3,0.5-4.5-0.9-5-3.2c0-0.1-0.1-0.3-0.1-0.4c0-0.6,0-1.2,0.2-1.8c0.1,0,0.2,0,0.3-0.1c1.4-1.6,3.8-1.9,5.4-0.5
		C142.5,59.3,142.6,59.4,142.7,59.5z M157.6,59.1c1.1,1.7,0.8,4-0.7,5.4c-0.2,0.1-0.5,0.1-0.7,0.1c-0.1-0.1-0.3-0.1-0.5,0
		c0,0,0,0,0,0c-2-0.2-3.6-1.7-3.9-3.7c0-0.4,0-0.7,0-1.1c0.1,0,0.2-0.1,0.2-0.2c0.6-1.6,2.4-2.4,4-1.8
		C156.7,58,157.2,58.5,157.6,59.1L157.6,59.1z M152.6,57.8c0.4-0.7,1.1-1.2,1.9-1.4c2-0.6,4.2,0.3,5.1,2.2c1,1.9,0.3,4.3-1.5,5.4
		c1.3-1.9,1.1-4.5-0.6-6.1C156,56.7,154,56.7,152.6,57.8L152.6,57.8z M156.1,65.3c0.1,0,0.3,0,0.4,0c0.1,0.1,0.3,0.2,0.4,0.1
		c0,0,0,0,0,0l0.2-0.2c0.6-0.2,1.2-0.5,1.7-0.9l-1.2,2.1l-2.1,0.2L156.1,65.3z M171.5,57.5c1.4,1.9,1.1,4.5-0.8,5.9
		c0,0-0.1,0-0.1,0.1l0,0h-0.1h-0.1c-2.3,0.3-4.4-1.4-4.7-3.7c0-0.5,0-1,0.2-1.5c0.6-1.7,2.5-2.5,4.2-1.9
		C170.7,56.6,171.2,57,171.5,57.5L171.5,57.5z M167.5,55.8c0.2-0.2,0.5-0.3,0.8-0.4c2-0.6,4.2,0.3,5.1,2.2c1,1.9,0.4,4.2-1.4,5.4
		c1.5-2,1.2-4.8-0.7-6.5C170.3,55.6,168.9,55.3,167.5,55.8L167.5,55.8z M167.5,65.4l0.6-1.4c0.6,0.2,1.2,0.3,1.9,0.3l-0.4,0.7
		c0,0.1,0,0.2,0,0.2L167.5,65.4L167.5,65.4z M122.9,84.1h-0.7l0.6-0.7L122.9,84.1z M121.9,75.5c0.3,2.4,0.5,4.8,0.8,7.2
		c-0.1,0-0.2,0-0.3,0.1c-0.3,0.4-0.7,0.8-1,1.1c0,0,0,0.1-0.1,0.1h-0.7l1.4-2c0.3-0.3-0.3-0.7-0.6-0.3l-1.7,2.3l-1.5-0.1
		c0.7-0.9,1.4-1.9,2.2-2.8c0.3-0.3-0.3-0.7-0.6-0.3l-2.4,3.1l-1.4-0.1l3-4.4c0.2-0.3-0.3-0.7-0.6-0.3l-3.2,4.7l-1.6-0.2l2.7-3.3
		c0.3-0.3-0.2-0.8-0.4-0.5l-2.9,3.6c0,0-0.1,0.1-0.1,0.2l-0.9-0.1l2.9-4.1c0.2-0.3-0.3-0.7-0.6-0.3l-3.1,4.3l-1-0.1l1.8-2.6
		c0.2-0.3-0.3-0.7-0.6-0.3l-2,2.9l-1.1-0.2l2.6-4.4c0.2-0.4-0.3-0.7-0.6-0.3l-2.7,4.6c0,0,0,0.1,0,0.1c-0.6-0.1-1.1-0.2-1.7-0.3h0.1
		l2.7-3.4c0.3-0.3-0.3-0.7-0.6-0.3l-2.7,3.4c-0.1,0.1-0.1,0.2,0,0.3c-0.5-0.1-0.9-0.2-1.4-0.3l3.2-4.8c0.2-0.4-0.3-0.7-0.6-0.3
		l-3.2,4.9c0,0,0,0.1-0.1,0.2c-0.4-0.1-0.8-0.2-1.2-0.4l3.4-4.3c0.3-0.3-0.3-0.7-0.6-0.3l-3.5,4.4l-1.2-0.5l3.5-3.9
		c0.3-0.3-0.2-0.8-0.5-0.5l-3.7,4.2c-0.5-0.2-1-0.5-1.6-0.8l3-2.8c0.1-0.1,0.1-0.3,0-0.5c-0.1-0.1-0.3-0.1-0.4,0L98,79.3
		c-0.3-0.2-0.6-0.4-0.9-0.6l2.2-2c0.3-0.3-0.2-0.8-0.5-0.5l-2.3,2.1l-0.7-0.6l1.7-1.6c0.3-0.3-0.2-0.8-0.5-0.5l-1.8,1.7
		c-1.2-0.9-2.2-2-3.1-3.1c6.7,0.3,13.5-0.4,20.2-0.6c1.6-0.1,3.2-0.1,4.8-0.2c1-0.1,1.9-0.2,2.9-0.2
		C121.8,73.4,121.7,73.5,121.9,75.5L121.9,75.5z M121.9,64.3c0.1,0.8,0.1,1.5,0,2.3c0,1.9-0.1,3.9-0.1,5.8h-1.7l1.4-1.2
		c0.3-0.3-0.1-0.8-0.4-0.5l-1.9,1.6c0,0-0.1,0.1-0.1,0.1h-2c0.7-0.7,1.4-1.3,2.1-2c0.3-0.3-0.2-0.8-0.4-0.5l-2.6,2.5l0,0h-2l2.3-2.1
		c0.3-0.3-0.1-0.8-0.4-0.5l-2.1,2.1h-0.1c-0.2,0-0.3,0.2-0.3,0.4c0,0.1,0.1,0.2,0.2,0.3v0.1l-2.3,0.1l2-1.7c0.3-0.3-0.1-0.7-0.4-0.5
		l-2.3,1.9c-0.1,0.1-0.1,0.2-0.1,0.3l-2.1,0.1l2.6-1.9c0.3-0.3-0.1-0.7-0.4-0.5l-3.2,2.4l0,0h-1.2h-0.5l2.3-1.9
		c0.3-0.3-0.1-0.8-0.4-0.5l-2.7,2.3c-0.1,0-0.1,0.1-0.1,0.2l-2.3,0.1l2.6-1.9c0.3-0.3-0.1-0.7-0.4-0.5l-2.6,2
		c-0.1,0.1-0.2,0.3-0.1,0.4c0,0,0,0.1,0.1,0.1l-3.1,0.1l2.8-1.9c0.3-0.2,0-0.8-0.3-0.6L98,72.8c-0.2,0-0.3,0.1-0.3,0.3c0,0,0,0,0,0
		c-0.7,0-1.4,0.1-2.1,0.1l2.6-2.1c0.3-0.3-0.1-0.7-0.5-0.5l-3.1,2.5c-0.1,0-0.1,0.1-0.1,0.2c-0.7,0.1-1.4,0.1-2.1,0.2l2.2-1.9
		c0.3-0.3-0.1-0.7-0.4-0.5l-2.7,2.2c0,0,0,0.1-0.1,0.1l-0.2-0.2C91.2,73,91,73,90.8,73.1c-0.1,0.1-0.1,0.1-0.1,0.2h-0.4l2.3-2
		c0.3-0.3-0.1-0.8-0.5-0.5l-2.8,2.5h-0.9l2.2-2.7c0.3-0.3-0.2-0.8-0.4-0.5L88,72.7c-0.5-3.4-0.9-6.8-1.1-10.2
		c2.5,0.4,5.1,0.5,7.6,0.3c0.1,0.1,0.2,0.1,0.3,0H97c3.9,0,7.8,0.1,11.7,0.1h5.8c1.9-0.1,3.9-0.1,5.8,0
		C121.7,63.1,121.6,62.8,121.9,64.3z M86.3,72.1l-1.7,1.3h-1.4l1.8-1.7c0.3-0.3-0.2-0.8-0.4-0.5l-2,2c-0.1,0.1-0.1,0.2-0.1,0.3
		l-1.8,0.1l1.8-2.1c0.3-0.3-0.2-0.8-0.4-0.5l-2.1,2.4c0,0-0.1,0.1-0.1,0.2l-1.9,0.1l1.9-1.6c0.3-0.3-0.1-0.8-0.5-0.5l-2.3,2
		c-0.1,0-0.1,0.1-0.1,0.2l-2.2,0.1l2.1-2c0.3-0.3-0.2-0.8-0.5-0.5L74,73.8c0,0-0.1,0.1-0.1,0.1L72.2,74c0.6-0.6,1.1-1.1,1.7-1.7
		c0.3-0.3-0.2-0.8-0.4-0.5c-0.7,0.7-1.4,1.5-2.2,2.2H69l3.1-2.9c0.3-0.3-0.1-0.8-0.4-0.5l-3.6,3.4H68h-2.2l2.9-2.6
		c0.3-0.3-0.2-0.8-0.5-0.5l-3.4,3.1h-2.3l2.1-1.9c0.3-0.3-0.1-0.8-0.4-0.5l-2.7,2.4h-1.4l1.8-1.8c0.3-0.3-0.2-0.8-0.4-0.5L59.3,74
		l0,0c-0.1,0-0.2,0-0.3,0.1h-2l1.6-1.6c0.1-0.1,0.1-0.4-0.1-0.5c-0.1-0.1-0.3-0.1-0.4,0l-2.1,2h-1.8l1.9-2.1
		c0.3-0.3-0.2-0.8-0.5-0.5l-2,2.2c0.1-3.2,0.2-6.4,0.3-9.6c5.2,0.7,10.5,0.9,15.8,0.5c5.3-0.2,10.6-0.7,15.8-1.5
		c0.6,3.4,1,6.7,1.3,10.1h-1.3l1-0.8C87.1,72.3,86.7,71.9,86.3,72.1z M54.1,54.8c0.2,0,0.3-0.1,0.3-0.3c0.1,0,0.2,0,0.2-0.1
		c6.7-0.5,13.3-1.4,20-1.7c1.8-0.1,3.5-0.1,5.3-0.1c1.1,0,4.3-0.5,5.1,0.2s0.3,4,0.3,5.1c0,0.6,0,1.1,0,1.7c-0.1,0-0.2,0-0.3,0.1
		l-2.5,2c-0.3,0.3,0.1,0.7,0.4,0.5l2.3-1.9c0,0.6,0,1.1,0.1,1.6c-2.6,0.4-5.1,0.7-7.7,0.9l3.3-2.8c0.3-0.3-0.1-0.7-0.4-0.5
		c-1.2,1-2.4,2-3.7,3l-0.1,0.1l0,0c-0.2,0-0.3,0.1-0.3,0.3l-1.8,0.2l2.6-2.2c0.3-0.3-0.1-0.7-0.4-0.5l-2.8,2.4
		c-0.1,0.1-0.1,0.2-0.1,0.3c-0.9,0.1-1.7,0.1-2.6,0.2c0-0.1-0.2-0.2-0.3-0.2c-0.2,0-0.3,0.1-0.3,0.3l-1.5,0.1l2.4-2.1
		c0.3-0.3-0.1-0.8-0.5-0.5l-3,2.6c-0.6,0-1.2,0-1.8,0l2.1-1.8c0.3-0.3-0.1-0.8-0.5-0.5l-2.7,2.3h-2l1.4-1.2c0.3-0.3-0.1-0.8-0.4-0.5
		l-1.9,1.7h-1.8l1.3-1.1c0.3-0.3-0.1-0.7-0.4-0.5l-1.9,1.6h-2.3l1.9-1.7c0.3-0.3-0.2-0.8-0.5-0.5c-0.8,0.7-1.6,1.5-2.4,2.2h-1.7
		l2.4-2.2c0.3-0.3-0.1-0.8-0.5-0.5l-2.7,2.4v0.1C54.3,60.4,54.1,57.6,54.1,54.8z M120.8,52.2c0.2,3.3,0.3,6.5,0.6,9.8
		c-0.5,0-0.9,0-1.4-0.1l1.1-0.9c0.3-0.3-0.1-0.7-0.4-0.5l-1.7,1.3h-1.3c0-0.1,0-0.1,0-0.2c0.1,0,0.2,0,0.3-0.1
		c0.8-0.8,1.6-1.6,2.3-2.4c0.3-0.3-0.2-0.8-0.4-0.5l-2.3,2.4c-0.1,0.1-0.1,0.3,0,0.4h-0.1c-0.2,0-0.3,0.1-0.3,0.3c0,0,0,0,0,0
		c-1.5,0-2.9,0-4.4,0l0,0l2.5-2.6c0.3-0.3-0.2-0.8-0.4-0.5l-2.6,2.5c-0.1,0.1-0.2,0.3,0,0.5c0,0,0,0,0,0h-2.4l2.7-2.3
		c0.3-0.3-0.1-0.8-0.4-0.5l-3,2.6c-0.1,0.1-0.1,0.1-0.1,0.2h-1.2l2.4-2.3c0.3-0.3-0.2-0.8-0.4-0.5l-2.7,2.6
		c-0.1,0.1-0.1,0.2-0.1,0.3h-2l0,0l2.5-2.2c0.3-0.3-0.1-0.8-0.4-0.5l-2.4,2.2c-0.1,0.1-0.2,0.3-0.1,0.4c0,0,0,0.1,0.1,0.1h-1.9
		l2.7-2.3c0.3-0.3-0.1-0.8-0.4-0.5l-3,2.6c-0.1,0.1-0.1,0.1-0.1,0.2h-1.2c0.4-0.5,0.9-1,1.3-1.6c0.3-0.3-0.2-0.8-0.4-0.5
		c-0.6,0.7-1.2,1.3-1.8,2H98l2.6-2.6c0.3-0.3-0.2-0.8-0.4-0.5l-3,3.1h-1.3l1.9-1.9c0.3-0.3-0.2-0.8-0.4-0.5l-2.4,2.4h-2l2.1-2
		c0.3-0.3-0.2-0.8-0.4-0.5c-0.9,0.8-1.7,1.6-2.6,2.5c-0.7,0-1.3,0-2,0l2.4-2.5c0.3-0.3-0.2-0.8-0.4-0.5l-2.8,3
		c-0.6,0-1.2,0.1-1.8,0.2l2.2-2.3c0.3-0.3-0.2-0.8-0.5-0.5c-0.9,0.9-1.7,1.9-2.6,2.8l0,0c0.2-3.2-0.2-6.4-0.1-9.6
		c5.6,0.4,11.4,0.1,17,0.1C109.1,52.3,115,52.3,120.8,52.2z M92.3,43.7l9.6-0.2c0.9,0,1.8-0.3,2.5,0.4c0.3,0.4,0.3,1.8,0.3,2.3
		c0.2,1.6,0.5,3.3,0.7,4.9h-2.1h-0.8l2.4-2.2c0.3-0.3-0.1-0.8-0.4-0.5l-2.8,2.6c0,0-0.1,0.1-0.1,0.1h-4.4l3.3-2.6
		c0.3-0.3-0.1-0.7-0.4-0.5L96.3,51c-0.1,0.1-0.1,0.1-0.1,0.2H94l2.3-1.8c0.3-0.3-0.1-0.7-0.4-0.5L93,51.2l0,0h-1.9l1.8-1.6
		c0.3-0.3-0.1-0.8-0.4-0.5L90,51.3c-0.7,0-1.4,0.1-2.1,0.1l1.9-1.6c0.3-0.3-0.1-0.8-0.4-0.5c-0.9,0.7-1.7,1.4-2.6,2.2
		c-0.5,0-1,0.1-1.6,0.1h-0.2l2-2.1c0.3-0.3-0.2-0.8-0.4-0.5l-2.2,2.2c-0.1,0.1-0.1,0.2-0.1,0.3c-0.9,0-1.8-0.1-2.8-0.1l3-2.6
		c0.3-0.3-0.1-0.8-0.5-0.5l-3.5,3l0,0c-0.8,0-1.6,0-2.4,0l2.3-1.8c0.3-0.3-0.1-0.7-0.4-0.5l-3,2.3h-1.7l2.5-2.3
		c0.3-0.3-0.2-0.8-0.4-0.5l-3,2.9h-1.3l1.8-1.9c0.3-0.3-0.2-0.8-0.4-0.5l-1.6,1.6c-0.2-2.2-0.3-4.5-0.5-6.7c0-0.1-0.1-0.2-0.1-0.3
		h0.7c0.1,0,0.2,0,0.3,0C79.6,44.3,86,43.8,92.3,43.7z M54.7,41.6l1.3-1.8c0.3-0.3-0.3-0.7-0.6-0.3l-0.7,1c0-0.9,0-1.9,0-2.8
		c6.5,0,13,0,19.5,0H84c1.1,0,3.9-0.5,4.7,0.2c0.5,0.4,0.6,1.9,0.7,3.1c-0.1-0.1-0.2-0.1-0.3,0l-1.2,1c-0.3,0.3,0.1,0.7,0.4,0.5
		l1.1-0.9c0,0.4,0,0.7,0,0.9c0,0.1,0,0.2,0.1,0.3h-1.6c-1.5,0-2.9,0.1-4.4,0.1l2.8-2.9c0.3-0.3-0.2-0.8-0.4-0.5L83,42.4
		c-0.1,0.1-0.1,0.2-0.1,0.4h-2.2l2.3-2.2c0.1-0.1,0.1-0.3,0-0.5c-0.1-0.1-0.3-0.1-0.4,0l-2.8,2.8L77.1,43l2.4-2.4
		c0.3-0.3-0.2-0.8-0.4-0.5l-2.4,2.5c-0.1,0.1-0.1,0.3,0,0.5c0,0,0,0,0,0c-0.8,0-1.6,0.1-2.4,0.2l2.2-2.1c0.1-0.1,0.1-0.3,0-0.5
		c-0.1-0.1-0.3-0.1-0.4,0L73,43.3l-0.9,0.1c-0.1,0-0.2,0.2-0.1,0.3l0,0h-0.9l2.1-2.3c0.3-0.3-0.2-0.8-0.4-0.5l-2.4,2.7
		c0,0-0.1,0.1-0.1,0.1l-2.6,0.1l2.4-2.2c0.3-0.3-0.1-0.8-0.4-0.5l-2.5,2.3c-0.1,0.1-0.1,0.3-0.1,0.4l-2.5,0.1l3.3-3.1
		c0.3-0.3-0.2-0.8-0.4-0.5l-3.7,3.5l-0.1,0.1l-2.2,0.1l2.5-2.6c0.3-0.3-0.2-0.8-0.4-0.5c-1,1-2.1,2.1-3.1,3.1L57.8,44l2.6-2.5
		c0.3-0.3-0.2-0.8-0.5-0.5l-3.1,3l-1.9,0.1l2.7-3.6c0.3-0.3-0.3-0.7-0.6-0.3l-2.5,3.3C54.7,42.8,54.7,42.2,54.7,41.6z M37.3,48.3
		c0-0.5-0.2-1.9,0.2-2.3c0.6-0.8,1.6-0.5,2.5-0.5l10.7-0.2c7-0.2,13.9-0.3,20.9-0.5c0.2,2.3,0.3,4.6,0.5,6.9c0,0,0,0.1,0,0.1
		l-1.3,0.1l0.3-0.2c0.3-0.2,0-0.8-0.3-0.6l-0.7,0.5c-0.1,0.1-0.1,0.2-0.1,0.3l0,0c-0.1,0-0.2,0-0.3,0.1H69h-0.5l1.9-1.6
		c0.3-0.3-0.1-0.7-0.4-0.5l-2.3,1.9c-0.1,0-0.1,0.1-0.1,0.2c-1,0.1-1.9,0.1-2.8,0.2l2.9-2.3c0.3-0.3-0.1-0.7-0.4-0.5l-3.3,2.6
		c-0.1,0.1-0.1,0.2-0.1,0.3c-0.8,0.1-1.7,0.2-2.5,0.3l2.4-1.9c0.3-0.3-0.1-0.7-0.4-0.5l-2.8,2.2c-0.1,0.1-0.1,0.2-0.1,0.3
		c-0.8,0.1-1.5,0.2-2.3,0.3l2.1-1.8c0.3-0.3-0.1-0.8-0.5-0.5l-2.2,1.9c-0.1,0.1-0.2,0.3-0.1,0.4c0,0,0,0,0.1,0.1
		c-0.6,0.1-1.2,0.2-1.9,0.3l1.2-1.3c0.3-0.3-0.2-0.8-0.5-0.5l-1.8,2l-0.3,0.1c-0.1-0.2-0.2-0.3-0.4-0.3h-0.2l1.6-1.8
		c0.3-0.3-0.2-0.8-0.5-0.5l-1.9,2.3l-2.3-0.1l2.3-2.8c0.3-0.3-0.2-0.8-0.5-0.5c-0.8,1-1.6,1.9-2.4,2.9c-0.1,0.1-0.1,0.2,0,0.3h-2
		l2.8-2.8c0.3-0.3-0.2-0.8-0.5-0.5l-3.3,3.2l0,0h-2.1l2.9-3c0.3-0.3-0.2-0.8-0.5-0.5l-3.4,3.4l0,0H42l2.6-2.7
		c0.3-0.3-0.2-0.8-0.5-0.5l-3,3.2h-1.7l2.9-2.7c0.3-0.3-0.2-0.8-0.5-0.5l-3.4,3.2l0,0H37c0,0,0.1,0,0.1-0.1L40,50
		c0.3-0.3-0.2-0.8-0.5-0.5l-2.6,2.8C37.1,51,37.2,49.6,37.3,48.3z M20.7,63.9c0.1,0,0.1-0.1,0.1-0.1c0.6-0.8,1.1-1.5,1.7-2.3
		c0.3-0.3-0.3-0.7-0.6-0.3l-1.2,1.6c0.2-2.9,0.4-5.8,0.5-8.7c6.9,0,13.9,0.2,20.8,0.2h4.8c1,0,1.9,0,2.9,0c0.9-0.1,1.7-0.1,2.6-0.1
		c0.1,0.1,0.2,0.1,0.3,0.1c1.1,0.7,0.6,2.9,0.5,4.1c0,1.4-0.1,2.8,0,4.1l-2.8,0.1l2.3-1.9c0.3-0.3-0.1-0.7-0.5-0.5L50,62.2
		c-0.1,0.1-0.1,0.2-0.1,0.3c-0.1,0-0.1,0-0.2,0c-0.2,0-0.3,0.1-0.3,0.3L47,62.8l2.9-2.2c0.3-0.3-0.1-0.7-0.5-0.5l-3.5,2.7l0,0
		l-1.5,0.1l2.2-1.7c0.3-0.3-0.1-0.7-0.5-0.5l-2.8,2.3l0,0L41.5,63l2.8-2.4c0.3-0.3-0.1-0.8-0.5-0.5l-3.4,3l-2.1,0.1l2.5-2.7
		c0.3-0.3-0.2-0.8-0.5-0.5l-2.8,3.1c0,0-0.1,0.1-0.1,0.1l0,0l-2,0.1l2.1-2.2c0.3-0.3-0.2-0.8-0.5-0.5l-2.6,2.7L32,63.4l2.8-2.7
		c0.1-0.2,0-0.4-0.2-0.4c-0.1,0-0.2,0-0.3,0L31,63.6l-1.7,0.1l2.1-1.8c0.3-0.3-0.1-0.8-0.5-0.5l-2.7,2.2l-0.1,0.1h0l-2.1,0.1
		c0.8-0.8,1.6-1.7,2.4-2.5c0.3-0.3-0.2-0.8-0.5-0.5l-2.8,3l-2.3,0.1l2-1.9c0.3-0.3-0.1-0.8-0.5-0.5l-2.5,2.4l0,0L20.7,63.9
		C20.8,63.9,20.7,63.9,20.7,63.9z M20.6,65.2c7.2-0.4,14.3-0.7,21.5-1.1c1.8-0.1,3.5-0.2,5.3-0.3l2.4-0.1c0.5,0,2.4-0.5,2.9-0.2
		c1.1,0.7,0.4,3.7,0.3,4.9s-0.1,2.4-0.2,3.6c-0.1-0.1-0.3-0.1-0.5,0c0,0,0,0,0,0L50,74.1h-1.8c0.7-0.7,1.3-1.3,2-2
		c0.3-0.3-0.2-0.8-0.5-0.5l-2.5,2.4l0,0h-1.7l2.4-2.2c0.3-0.3-0.2-0.8-0.5-0.5l-2.7,2.4c-0.1-0.2-0.3-0.2-0.5-0.1
		c0,0-0.1,0.1-0.1,0.1c-0.1,0.1-0.1,0.2-0.2,0.3h-1.4l3.2-2.8c0.3-0.3-0.1-0.8-0.5-0.5l-3.5,3c-0.1,0.1-0.1,0.1-0.1,0.2h-1.5
		l2.7-2.4c0.3-0.3-0.1-0.8-0.5-0.5l-3,2.7c0,0-0.1,0.1-0.1,0.2h-2l2.9-2.7c0.1-0.1,0.1-0.3,0-0.5s-0.3-0.1-0.5,0L36.4,74h-1.9
		l2.7-2.8c0.3-0.3-0.2-0.8-0.5-0.5L33.6,74h-1.8l2.2-2.6c0.3-0.3-0.2-0.8-0.5-0.5c-0.9,1-1.8,2-2.7,3h-2c0.8-0.8,1.6-1.5,2.4-2.2
		c0.3-0.3-0.2-0.8-0.5-0.5l-2.6,2.5c-0.1,0.1-0.1,0.1-0.1,0.2h-1.7l2.4-2.3c0.3-0.3-0.1-0.8-0.5-0.5l-2.8,2.8h-2l2-1.7
		c0.3-0.3-0.1-0.8-0.5-0.5l-2.6,2.2h-2.4l2-1.8c0.3-0.3-0.1-0.8-0.5-0.5l-2,1.8C20.1,70.7,20.4,67.9,20.6,65.2z M52.8,74.1h-1.4
		c-0.1-0.1-0.3-0.1-0.4,0H51l1.8-1.6l0,0c0,0.5,0,1-0.1,1.5C52.8,74,52.8,74.1,52.8,74.1z M1.1,75.3h3.8c-0.5,0.7-1.1,1.4-1.6,2.2
		C2.6,76.7,1.9,76,1.1,75.3z M5,79l-1.2-1.2h0.1l1.7-2.3c0.1-0.1,0.1-0.2,0-0.3l2.3-0.1L5,79L5,79z M23.3,97.7
		c-5.9-6.1-11.7-12.4-17.8-18.3c0,0,0.1-0.1,0.1-0.1l2.8-3.9c0-0.1,0-0.2,0-0.3H10l-3.2,4.1c-0.3,0.3,0.3,0.7,0.6,0.3
		c1.2-1.5,2.3-3.1,3.5-4.6h1.9l-3.8,4.8c-0.3,0.3,0.3,0.7,0.6,0.3l4-5.2h2l-5.1,6.2c-0.3,0.3,0.2,0.8,0.4,0.5l5.2-6.4
		c0.1-0.1,0.1-0.2,0-0.3h2l-5.4,6.1c-0.3,0.3,0.2,0.8,0.5,0.5l5.4-6.1c0.1-0.1,0.1-0.3,0-0.5c1.3,0,2.5,0,3.8,0H23l-3.5,4.6
		c-0.3,0.3,0.3,0.7,0.6,0.3l3.6-4.8c0-0.1,0.1-0.1,0.1-0.2h1.6l-4.8,6.6c-0.3,0.3,0.3,0.7,0.6,0.3l4.9-6.8c0,0,0.1-0.1,0.1-0.2h1.1
		l-4.5,6.1c-0.3,0.3,0.3,0.7,0.6,0.3l4.8-6.5h1.5l-3.4,4.8c-0.2,0.3,0.3,0.7,0.6,0.3l3.6-5.2l0,0h1.6c-0.8,2-2,3.8-3.4,5.4
		c-0.3,0.3,0.2,0.8,0.5,0.5c1.5-1.8,2.8-3.8,3.7-5.9H35c-1.2,1.8-2.4,3.6-3.6,5.4c-0.2,0.4,0.3,0.7,0.6,0.3l3.8-5.6c0,0,0,0,0-0.1
		h2.5c-1.5,2-2.9,4-4.4,6c-0.3,0.3,0.3,0.7,0.6,0.3c1.5-2.1,3.1-4.2,4.6-6.3h1.7l-4.1,5.9c-0.2,0.3,0.3,0.7,0.6,0.3
		c1.5-2.1,2.9-4.1,4.4-6.2h1.6l-3.4,4.5c-0.3,0.3,0.3,0.7,0.6,0.3l3.7-4.9h1.2c-0.1,0-0.1,0.1-0.2,0.1l-3.1,5.1
		c-0.1,0.2,0,0.4,0.2,0.4c0.1,0.1,0.3,0,0.4-0.1c1-1.7,2-3.3,3.1-5c0.1-0.1,0.1-0.3-0.1-0.4c0,0-0.1,0-0.1,0h0.1H48l-3.8,5.1
		c-0.3,0.3,0.3,0.7,0.6,0.3l4.2-5.4h1.3l-4.4,5.7c-0.3,0.3,0.3,0.7,0.6,0.3l4.7-6h1.9c-1.2,1.5-2.5,2.9-3.7,4.4
		c-0.3,0.3,0.2,0.8,0.5,0.5l4.1-4.7h1.9c-1,1.4-1.9,2.8-2.8,4.3c-0.2,0.3,0.3,0.7,0.6,0.3c1-1.5,2-3.1,3-4.6h2.1l-4.1,4.8
		c-0.3,0.3,0.2,0.8,0.5,0.5c1.5-1.7,3-3.5,4.5-5.2H61l-4.1,5.1c-0.3,0.3,0.3,0.7,0.6,0.3l4.4-5.4H63l-3.3,3.9
		c-0.3,0.3,0.2,0.8,0.5,0.5l3.8-4.4h1.2l-2.4,3.9c-0.1,0.2,0,0.4,0.2,0.4c0.1,0.1,0.3,0,0.4-0.1l2.5-4.2h2.4l-3.3,4.1
		c-0.3,0.3,0.3,0.7,0.6,0.3l3.5-4.5h1.8l-3.3,4c-0.3,0.3,0.2,0.8,0.4,0.5l3.7-4.4h2.2l-3,4.3c-0.2,0.3,0.3,0.7,0.6,0.3l3.1-4.3
		c0.1-0.1,0.1-0.2,0-0.3H77l-3.6,4.5c-0.3,0.3,0.3,0.7,0.6,0.3l3.9-5H80l-4.5,5.1c-0.3,0.3,0.2,0.8,0.4,0.5l5-5.6h1l-4.4,5.9
		c-0.3,0.3,0.3,0.7,0.6,0.3l4.7-6.3c2.4-0.1,4.8-0.3,7.2-0.7c-1.3,2.1-2.6,4.2-3.9,6.4c-0.1,0.2,0,0.4,0.2,0.4
		c0.1,0.1,0.3,0,0.4-0.1l4.2-6.9H91h0.1h0.1c0.7,1.1,1.5,2.2,2.5,3.1c-0.1,0-0.1,0.1-0.2,0.1l-2.7,3.9c-0.2,0.3,0.3,0.7,0.6,0.3
		l2.7-3.9c0,0,0,0,0-0.1c1.1,1,2.2,1.8,3.5,2.6l-3.4,3.9c-0.3,0.3,0.2,0.8,0.4,0.5l3.5-4l0,0c0.4,0.2,0.8,0.4,1.2,0.6l-3.2,5
		c-0.2,0.3,0.3,0.7,0.6,0.3l3.2-5c0,0,0,0,0-0.1c0.4,0.2,0.8,0.4,1.3,0.5L98,86.6c-0.2,0.3,0.3,0.7,0.6,0.3c1.1-1.5,2.1-3,3.2-4.5
		c0.5,0.2,1,0.4,1.5,0.5l-3.3,4.7c-0.3,0.3,0.3,0.7,0.6,0.3l3.4-4.8c0.6,0.2,1.2,0.3,1.8,0.4l-2.5,4.3c-0.2,0.4,0.3,0.7,0.6,0.3
		c0.9-1.5,1.7-2.9,2.6-4.4c0,0,0-0.1,0-0.1c0.4,0.1,0.8,0.2,1.2,0.2s1,0.2,1.4,0.2c-0.8,1.1-1.6,2.3-2.4,3.4
		c-0.2,0.3,0.3,0.7,0.6,0.3l2.6-3.7c0.9,0.1,1.7,0.3,2.6,0.4l-3.4,3.6c-0.3,0.3,0.2,0.8,0.4,0.5l3.8-4.1l1.8,0.2c0.1,0,0.1,0,0.2,0
		h0.1h0.4l-2.7,3.5c-0.3,0.3,0.3,0.7,0.6,0.3l2.9-3.8c0.5,0,1,0.1,1.5,0.1l-2.7,3.1c-0.3,0.3,0.2,0.8,0.4,0.5l2.8-3.2
		c0.1-0.1,0.1-0.2,0.1-0.3h0.7c0.1,0.1,0.3,0.1,0.5,0l2.5,0.1l-3.2,3c-0.3,0.3,0.2,0.8,0.5,0.5l3.6-3.4c0.8,0,1.5,0.1,2.3,0.1
		l-2.3,3.2c-0.3,0.3,0.3,0.7,0.6,0.3l2.5-3.5h1.5l-1.5,2.9c-0.2,0.4,0.4,0.7,0.6,0.3l1.6-3l4,0.1c-0.6,0.8-1.2,1.7-1.8,2.5
		c-0.3,0.3,0.3,0.7,0.6,0.3l2-2.8h2.3l-1.9,2c-0.3,0.3,0.2,0.8,0.4,0.5l2.3-2.5c7.7,0.1,15.5-0.1,23.2-0.6c4.2-0.3,8.4-0.7,12.6-1.1
		c4.6-0.5,9.6-0.7,14-2c-2.8,3.6-5.2,7.5-7.1,11.6c-0.1,0-0.2,0-0.3,0c-40.3,4.7-81,6.5-121.6,5.4C45.9,98.8,34.6,97.9,23.3,97.7
		L23.3,97.7z M24.9,99.3l-0.8-0.8c9.6,1,19.4,1.1,29.1,1.4c10.2,0.3,20.4,0.4,30.6,0.4c20.2-0.1,40.5-0.9,60.7-2.4
		c11.4-0.8,22.7-1.9,34-3.1c-0.4,0.9-0.8,1.8-1.2,2.7c-38.8,4.7-77.9,6.8-116.9,6.3c-10.7-0.2-21.4-1-32.1-1
		C27.1,101.7,26,100.5,24.9,99.3z M170.3,118l-0.8,0.6l1.1-1.8C170.4,117.2,170.3,117.6,170.3,118L170.3,118z M170.4,115.5
		c-0.6,1.1-1.3,2.2-1.9,3.2c-0.1,0.1-0.1,0.3,0,0.4c-0.6,0.4-1.3,0.8-2,1.2l2.5-4.6c0.2-0.4-0.4-0.7-0.6-0.3l-2.6,4.7
		c-0.1,0.2,0,0.4,0.1,0.4c0,0,0,0,0,0c-0.7,0.3-1.4,0.5-2.2,0.6l0,0l3.1-5.2c0.1-0.2,0-0.4-0.2-0.4c-0.1-0.1-0.3,0-0.4,0.1l-3.1,5.2
		c-0.1,0.1-0.1,0.3,0.1,0.4c0,0,0,0,0,0c-0.6,0-1.2,0-1.7-0.1l3.5-5.7c0.1-0.2,0-0.4-0.2-0.4c-0.1-0.1-0.3,0-0.4,0.1
		c-1.2,1.9-2.4,3.9-3.6,5.8c0,0,0,0.1,0,0.1c-0.4-0.1-0.7-0.2-1.1-0.3l3.3-5.3c0.1-0.2,0-0.4-0.1-0.5s-0.4,0-0.5,0.1l0,0l-3.4,5.4
		c-0.4-0.2-0.8-0.4-1.3-0.6c0-0.2-0.1-0.3-0.3-0.3c0,0-0.1,0-0.1,0l-0.9-0.6c0.1,0,0.1-0.1,0.2-0.1l1.5-2.4c0.1-0.2,0-0.4-0.2-0.4
		c-0.1-0.1-0.3,0-0.4,0.1l-1.5,2.4c0,0.1,0,0.1,0,0.2c-0.4-0.3-0.8-0.6-1.2-0.8l2.3-3.4c0.2-0.4-0.3-0.7-0.6-0.4l-2.3,3.4l-1.3-0.9
		l3-3.9c0.3-0.3-0.3-0.7-0.6-0.3l-3,3.9l-1-0.7l2.2-3.3c0.2-0.4-0.3-0.7-0.6-0.4c-0.7,1.1-1.5,2.2-2.2,3.3c-0.4-0.2-0.8-0.4-1.1-0.6
		c0.1,0,0.2-0.1,0.3-0.1l1.9-2.8c0.2-0.4-0.3-0.7-0.6-0.3l-1.9,2.7c-0.1,0.1-0.1,0.2,0,0.4c-0.4-0.2-0.7-0.3-1.1-0.5l2-3
		c0.2-0.4-0.3-0.7-0.6-0.3l-2.1,3.1c-0.3-0.1-0.5-0.1-0.8-0.2l2.2-3.2c0.2-0.4-0.3-0.7-0.6-0.3l-2.2,3.2c0,0.1,0,0.1,0,0.2
		c-0.4-0.1-0.7-0.1-1.1-0.1l2.3-3.3c0.2-0.4-0.3-0.7-0.6-0.3l-2.5,3.5c0,0,0,0.1-0.1,0.1c-0.6,0-1.2,0.1-1.8,0.2h-0.1l1.3-1.7
		c0.3-0.3-0.3-0.7-0.6-0.4l-1.7,2.3c-0.7,0.2-1.5,0.5-2.2,0.9c0.9-1.2,1.9-2.3,2.8-3.5c0.3-0.3-0.3-0.7-0.6-0.3l-3.4,4.2
		c0,0.1,0,0.2,0,0.3c-0.9,0.5-1.8,1-2.6,1.6l2.8-3.2c0.3-0.3-0.2-0.8-0.4-0.5l-3.5,3.8c-0.1,0.1-0.1,0.4,0,0.5c0,0,0,0,0,0
		c-0.9,0.6-1.8,1.3-2.7,1.9c0.8-1.2,1.5-2.3,2.3-3.5c0.2-0.4-0.3-0.7-0.6-0.3l-2.6,3.9c-0.1,0.1-0.1,0.3,0.1,0.4c0,0,0,0,0,0
		c-0.4,0.3-0.8,0.5-1.3,0.8c0.5-0.9,1.1-1.9,1.6-2.8c0.2-0.4-0.4-0.7-0.6-0.3l-1.9,3.2c-0.1,0.1-0.1,0.2,0,0.3
		c-0.8,0.4-1.7,0.7-2.5,1c0.9-1.4,1.7-2.8,2.6-4.2c0.1-0.2,0-0.4-0.2-0.4c-0.1-0.1-0.3,0-0.4,0.1l-2.7,4.4c-0.1,0.1-0.1,0.2,0,0.3
		c-0.7,0.2-1.3,0.3-2,0.3c0.9-1.5,1.7-2.9,2.6-4.4c0.1-0.2,0-0.4-0.1-0.5s-0.4,0-0.5,0.1l0,0c-0.9,1.6-1.9,3.2-2.8,4.7
		c-0.5,0-1-0.1-1.5-0.2l2.4-4.1c0.1-0.2,0-0.4-0.2-0.4c-0.1-0.1-0.3,0-0.4,0.1l-2.5,4.3h-0.2c-0.5-0.1-0.9-0.3-1.3-0.5l1.6-2.7
		c0.1-0.2,0-0.4-0.2-0.4c-0.1-0.1-0.3,0-0.4,0.1c-0.5,0.9-1.1,1.9-1.6,2.8c-0.5-0.2-0.9-0.4-1.4-0.7l1.8-3.3
		c0.2-0.4-0.4-0.7-0.6-0.3l-1.8,3.3c-0.7-0.4-1.4-0.8-2-1.2l2.5-3.4c0.3-0.4-0.3-0.7-0.6-0.4c-0.8,1.2-1.7,2.3-2.5,3.5
		c-0.5-0.3-1-0.6-1.5-0.8l0,0l2-2.8c0.2-0.4-0.3-0.7-0.6-0.4l-2,2.8c-0.5-0.2-0.9-0.4-1.4-0.6l2.7-3.6c0.3-0.3-0.3-0.7-0.6-0.3
		l-2.8,3.7c-0.3-0.1-0.6-0.2-0.9-0.3l2.6-3.5c0.3-0.3-0.3-0.7-0.6-0.3l-2.7,3.7c-0.5-0.1-1.1-0.2-1.6-0.2l2.6-3.4
		c0.3-0.3-0.3-0.7-0.6-0.3c-1,1.2-1.9,2.4-2.8,3.7c-0.6,0-1.2,0.1-1.7,0.2l1.7-2.1c0.3-0.3-0.3-0.7-0.6-0.3l-2.2,2.8
		c-1.1,0.4-2.1,1.1-2.9,1.8l0,0l1-1.5c0.2-0.4-0.3-0.7-0.6-0.4l-2.9,4.4c0,0,0,0.1,0,0.1c-1,1.1-2,2.1-3.2,3
		c-0.2,0.1-0.4,0.3-0.6,0.4l3-4.5c0.2-0.4-0.3-0.7-0.6-0.3l-3.1,4.5c-0.1,0.2,0,0.3,0.1,0.4c0,0,0.1,0,0.1,0
		c-0.8,0.4-1.8,0.6-2.7,0.6l3.9-5.5c0.3-0.4-0.3-0.7-0.6-0.4c-1.3,1.9-2.7,3.8-4.1,5.6c0,0,0,0.1,0,0.1c-0.7-0.1-1.3-0.3-1.9-0.6
		l4.2-6.3c0.2-0.4-0.3-0.7-0.6-0.3l-4.2,6.3c-0.3-0.2-0.7-0.4-1-0.7l-0.1-0.1L90,119c0.2-0.4-0.3-0.7-0.6-0.4l-3,4.6l-0.9-0.8
		l3.3-4.7c0.3-0.3-0.3-0.7-0.6-0.3L85,122l-1-0.9l3-3.8c0.3-0.3-0.3-0.7-0.6-0.3c-1,1.2-2,2.5-3,3.7c-0.4-0.3-0.8-0.6-1.1-0.9
		l1.8-2.2c0.3-0.3-0.2-0.8-0.5-0.5l-1.9,2.3c-0.4-0.3-0.8-0.5-1.2-0.8l3.1-3.7c0.3-0.3-0.2-0.8-0.4-0.5c-1.1,1.3-2.1,2.6-3.2,3.8
		c-0.3-0.1-0.6-0.3-0.8-0.4l2.4-2.8c0.3-0.3-0.2-0.8-0.5-0.5l-2.6,3c-0.5-0.2-1-0.3-1.6-0.4l2.2-3c0.2-0.3-0.3-0.7-0.6-0.3l-2.2,3.1
		c0,0.1,0,0.2,0,0.3c-0.7,0-1.4,0-2.1,0.1c0.6-0.8,1.2-1.5,1.8-2.3c0.3-0.3-0.3-0.7-0.6-0.3l-2.2,2.8c-0.7,0.2-1.4,0.4-2.1,0.7
		l1.4-2.5c0.2-0.4-0.3-0.7-0.6-0.4l-1.9,3.2c0,0,0,0,0,0.1c-0.7,0.3-1.3,0.7-1.9,1.1l1.1-1.6c0.2-0.4-0.3-0.7-0.6-0.3l-1.9,2.9
		c-1.1,0.7-2.2,1.5-3.3,2.2l-0.3,0.1l3.4-4.6c0.3-0.3-0.3-0.7-0.6-0.3l-4.1,5.5c-0.1,0.1-0.1,0.1-0.1,0.2c-0.7,0.4-1.4,0.7-2.2,1
		l4.3-5.5c0.3-0.3-0.3-0.7-0.6-0.3l-4.4,5.6c-0.1,0.1-0.1,0.3,0,0.4c0,0,0,0,0,0c-1.8,0.6-3.7,0.8-5.6,0.6l3.5-4.5
		c0.3-0.3-0.3-0.7-0.6-0.4c-1.2,1.5-2.3,3-3.5,4.6c0,0.1,0,0.1,0,0.2c-0.6-0.1-1.3-0.2-1.9-0.3l3-3.7c0.3-0.3-0.2-0.8-0.5-0.5
		l-3,3.7c-0.1,0.1-0.1,0.2-0.1,0.3l-0.7-0.1l-1.3-0.3c1.1-1.4,2.1-2.8,3.2-4.2c0.3-0.3-0.3-0.7-0.6-0.4l-2.9,3.9
		c-0.2-0.3-0.5-0.5-0.7-0.8c0.6-0.9,1.2-1.8,1.7-2.8c0.1-0.2,0-0.4-0.1-0.5c-0.2-0.1-0.4,0-0.5,0.1l0,0l-1.6,2.6
		c-3.3-3.7-6.9-7.1-10.3-10.7l-8-8.3c9.3,0.9,18.7,0.9,28,1.1c9.7,0.2,19.4,0.2,29.1,0.1c19.6-0.3,39.1-1.3,58.6-2.9
		c10.6-0.9,21.3-1.9,31.9-3.2c0,0.1,0,0.1-0.1,0.2c-2.3,5.2-4.6,10.8-5.9,16.5C170.7,115.3,170.5,115.4,170.4,115.5
		C170.4,115.5,170.4,115.5,170.4,115.5L170.4,115.5z"/>
	<path class="st0" d="M171.7,127.1c-2.9,1.5-5.6,3.6-8.9,4c-3.4,0.5-6.2-1.4-8.8-3.3c-4.6-3.3-8.8-5.2-14.3-2.5
		c-5.8,2.9-11.9,11.2-19.2,8.3c-4.8-1.9-7.3-8-13-7.9c-4.6,0-8.1,3.9-11.6,6.3c-2.6,1.7-5.3,2.7-8.4,2c-2.7-0.6-5.2-2.1-7.7-3.1
		c-2.1-1-4.5-1.4-6.8-1.2c-2.8,0.4-5.1,2.2-7.4,3.6c-3.2,2-6.2,2.7-9.8,1.2c-3.1-1.3-5.8-3.4-9.1-4.4c-5.3-1.7-11,0.5-13.7,5.3
		c-0.1,0.1,0,0.2,0.1,0.3c0.1,0.1,0.2,0,0.3-0.1l0,0c1.7-2.6,4.3-4.5,7.3-5.1c3.5-0.7,6.6,0.6,9.6,2.4c4,2.4,8.3,5,13,3.2
		c2.4-0.9,4.3-2.6,6.4-3.9c2.8-1.7,6.3-2,9.2-0.6c4.4,1.7,8.7,4.9,13.7,3.4c4.4-1.3,7.4-5.2,11.5-7.2c6.1-2.9,9.5,2.6,13.8,5.7
		c11.9,8.5,20.3-13.9,32.3-7c4.7,2.8,8.4,7.2,14.4,5.4c5.5-1.7,12.7-9.4,18.3-3.6c0.2,0.2,0.7-0.1,0.5-0.3
		C180.5,124.1,175.3,125.3,171.7,127.1z"/>
	<path class="st0" d="M140.2,71.7c-1.7,0.3-3,1.5-3.5,3.1c-0.3,0.4-0.5,0.8-0.6,1.2c-0.1,0.2,0,0.3,0.2,0.4c0,0,0.1,0,0.1,0
		c0,0.2,0,0.4,0,0.7l0,0l0,0c0.3,2.7,2.7,4.6,5.3,4.4c0.1,0,0.2,0,0.4-0.1c2.6-0.5,4.3-3.1,3.7-5.7c0-0.1,0-0.2-0.1-0.3
		C145,72.9,142.7,71.4,140.2,71.7z M141.2,80.5c-0.1,0-0.1,0.1-0.2,0.2c-2-0.1-3.7-1.7-4-3.7c0-0.7,0-1.4,0.2-2c1.1-1.6,3.4-2,5-0.8
		c0.2,0.1,0.4,0.3,0.5,0.5c1.4,1.5,1.3,3.8-0.2,5.2C142.2,80.1,141.7,80.4,141.2,80.5L141.2,80.5z M142.9,80.3c1.8-1.5,2-4.2,0.5-6
		c-0.1-0.2-0.3-0.3-0.4-0.4c-1.3-1.2-3.2-1.4-4.7-0.5c0.4-0.4,0.9-0.7,1.4-0.9c2-0.6,4.2,0.3,5.1,2.2c1.1,2,0.3,4.6-1.8,5.6
		C143,80.3,142.9,80.3,142.9,80.3z"/>
	<path class="st0" d="M155.5,46.4c0.3,2.7,2.8,4.6,5.5,4.2c0.1,0,0.2,0,0.2,0c2.6-0.5,4.3-3.1,3.7-5.7c0-0.1,0-0.2-0.1-0.3
		c-0.7-2.4-3.1-3.9-5.5-3.6C156.7,41.4,155.3,43.9,155.5,46.4L155.5,46.4C155.5,46.4,155.5,46.4,155.5,46.4z M158.8,41.8
		c2-0.6,4.2,0.3,5.1,2.2c0.9,1.7,0.4,3.9-1.1,5.1c1.4-1.8,1-4.4-0.8-5.8c-1.7-1.3-4-1.1-5.5,0.4C157.1,42.8,157.8,42.1,158.8,41.8z
		 M156.2,45.3c0.1,0,0.1-0.1,0.2-0.1c0.8-1.8,2.9-2.5,4.7-1.6c1.8,0.8,2.5,2.9,1.6,4.7c-0.2,0.5-0.6,0.9-1,1.2
		c-0.1,0.1-0.1,0.2-0.1,0.4c-0.1,0-0.2,0.1-0.4,0.1c-2.3,0.5-4.5-0.9-5.1-3.2c0-0.1-0.1-0.3-0.1-0.4C156.1,46,156.2,45.6,156.2,45.3
		L156.2,45.3z"/>
	<path class="st0" d="M72.2,63.2l3-2.4c0.3-0.3-0.1-0.7-0.4-0.5l-3,2.4C71.4,63,71.9,63.5,72.2,63.2z"/>
	<path class="st0" d="M80.4,62.4l3.7-2.9c0.3-0.3-0.1-0.7-0.4-0.5L80,61.9C79.6,62.2,80.1,62.7,80.4,62.4z"/>
	<path class="st0" d="M115.2,61c-0.2,0-0.3,0.1-0.3,0.3s0.1,0.3,0.3,0.3h0.1c0.1,0,0.2,0,0.3-0.1l2.5-2.4c0.1-0.1,0.1-0.3,0-0.5
		s-0.3-0.1-0.5,0l0,0C116.8,59.5,116,60.2,115.2,61L115.2,61z"/>
	<path class="st0" d="M99.3,50.5c-0.1,0-0.1,0-0.2,0c-0.2,0-0.3,0.1-0.3,0.3s0.1,0.3,0.3,0.3c0.2,0,0.3-0.1,0.3-0.3c0,0,0-0.1,0-0.1
		c0.1,0.1,0.3,0.1,0.4,0l1.5-1.1c0.3-0.3-0.1-0.7-0.4-0.5l-1.5,1.1C99.4,50.3,99.3,50.4,99.3,50.5z"/>
	<path class="st0" d="M86.9,42.2l2-2.6c0.3-0.3-0.3-0.7-0.6-0.3l-2,2.6C86.1,42.2,86.6,42.5,86.9,42.2z"/>
	<path class="st0" d="M60.2,119.8l-3.9,4.8c-0.3,0.3,0.3,0.7,0.6,0.4c1.3-1.6,2.6-3.2,3.9-4.8C61,119.8,60.5,119.5,60.2,119.8z"/>
	<path class="st0" d="M159.4,116.8l-1.5,2.3c-0.2,0.4,0.3,0.7,0.6,0.3l1.5-2.3C160.2,116.7,159.6,116.4,159.4,116.8z"/>
	<path class="st0" d="M15.3,82.5l5.4-6.9c0.3-0.3-0.3-0.7-0.6-0.3l-5.4,6.9C14.5,82.5,15.1,82.8,15.3,82.5z"/>
	<path class="st0" d="M81.4,80.7l3.4-4.8c0.2-0.3-0.3-0.7-0.6-0.3l-3.4,4.8C80.6,80.7,81.1,81.1,81.4,80.7z"/>
	<path class="st0" d="M83.9,79.8l3.5-4.4c0.3-0.3-0.3-0.7-0.6-0.3l-3.5,4.4C83.1,79.8,83.6,80.2,83.9,79.8z"/>
	<path class="st0" d="M88.6,81.2c1.1-1.7,2.3-3.3,3.4-5c0.2-0.3-0.3-0.7-0.6-0.3l-3.4,5C87.8,81.2,88.3,81.5,88.6,81.2z"/>
	<path class="st0" d="M92.6,84.1l3.4-4.4c0.3-0.3-0.3-0.7-0.6-0.3L92,83.7C91.8,84.1,92.3,84.4,92.6,84.1z"/>
	<path class="st0" d="M128.4,88.8c0.6-0.9,1.1-1.7,1.7-2.6c0.2-0.4-0.3-0.7-0.6-0.3c-0.6,0.9-1.1,1.7-1.7,2.6
		C127.6,88.8,128.2,89.2,128.4,88.8z"/>
	<path class="st0" d="M150.5,80.3l-1.7,3.4c-0.2,0.4,0.4,0.7,0.6,0.3l1.7-3.4C151.2,80.3,150.7,79.9,150.5,80.3z"/>
	<path class="st0" d="M161.7,80.6l-2,2.5c-0.3,0.3,0.3,0.7,0.6,0.3l2-2.5C162.5,80.6,162,80.2,161.7,80.6z"/>
	<path class="st0" d="M148.3,53.2l1.5-2.6c0.2-0.4-0.4-0.7-0.6-0.3l-1.5,2.6C147.5,53.2,148.1,53.6,148.3,53.2z"/>
	<path class="st0" d="M168.3,37.7l2.2-3.2c0.2-0.3-0.3-0.7-0.6-0.3c-0.7,1.1-1.5,2.2-2.2,3.2C167.5,37.7,168,38,168.3,37.7z"/>
	<path class="st0" d="M14.2,84.5c-0.3-0.3-0.8,0.2-0.5,0.4l9.7,10.3c0.1,0.1,0.4,0.1,0.5-0.1c0.1-0.1,0.1-0.3,0-0.4
		C20.6,91.4,17.4,88,14.2,84.5z"/>
	<path class="st0" d="M34.3,105.1c-0.3-0.3-0.8,0.1-0.5,0.4c4,4.5,8.1,8.9,12.2,13.4c0.3,0.3,0.8-0.1,0.5-0.4
		C42.4,114,38.3,109.6,34.3,105.1z"/>
	<path class="st0" d="M173.2,101.3l-4.8,12c-0.2,0.4,0.5,0.6,0.6,0.2l4.8-12C174,101.1,173.3,101,173.2,101.3z"/>
	<path class="st0" d="M179.1,92.2l3.1-7.2c0.2-0.4-0.5-0.6-0.6-0.2l-3.1,7.2C178.3,92.4,178.9,92.6,179.1,92.2z"/>
</g>
</svg>
