<svg id="Layer_1" data-name="Layer 1" xmlns="http://www.w3.org/2000/svg" viewBox="0 0 193.99 136.58"><defs><style>.cls-1{fill:#545353;}</style></defs><title>2</title><g id="_12" data-name="12"><path class="cls-1" d="M196.85,147.24c-6-2.67-13.09-5.09-19.59-2.68a15.28,15.28,0,0,0-3,1.54c2.22-5.75,3.86-11.69,6.28-17.38.2-.49.42-1,.64-1.46l.28,0c.55-.06.53-.71.18-1a158.36,158.36,0,0,1,8.2-15.16.38.38,0,0,0-.24-.54.4.4,0,0,0-.33-.64,62.65,62.65,0,0,0-7.66.82c.2-9.84.44-19.69.82-29.53a.57.57,0,0,0-.55-.57c-.9,0-1.79.06-2.69.09-.33-4.68-.76-9.34-1.12-14a.47.47,0,0,0-.46-.48l-.66,0c-.3-10.08-1.17-20.17-1.77-30.24-.14-2.5.05-6.22-2.95-7.1-1.85-.54-4.29.09-6.17.25l-7.83.69c-.22,0-.46.17-.44.42q.21,2.86.4,5.73a.37.37,0,0,0,0,.52l.12,1.79h-.05c-.34.05-.26.56.06.58h0c.59,9.42,1.09,18.85,2.21,28.22l-14.4.8a.48.48,0,0,0-.49.47c.19,4.66.29,9.33.71,14l-2.18.12-5.8.32c-1.93.12-4.05,0-5.86.73h0a.42.42,0,0,0-.71.26c-.47,4.5.18,9.37.5,13.95a.38.38,0,0,0,.05.65c0,.21,0,.43,0,.64.25,4.6.18,9.45,1,14-2.09-.06-4.18-.13-6.26-.23-.51-3.77-1.09-7.53-1.59-11.3a.7.7,0,0,0,0-.14c.17-3.4.09-6.82.23-10.22a.43.43,0,0,0-.42-.44h0c0-3.46-.21-6.92-.34-10.38a.59.59,0,0,0-.56-.59c-5,0-10,.06-14.95.12v0c-.4-2.81-.8-5.62-1.18-8.43a.53.53,0,0,0-.52-.41q-7.17.17-14.36.37a.55.55,0,0,0,.1-.38c-.2-1.73-.4-3.46-.59-5.19a.46.46,0,0,0-.44-.45c-11.66-.6-23.49-.14-35.17-.08a.55.55,0,0,0-.54.52c0,1.53,0,3,.11,4.58l0,0a.26.26,0,0,0,0,.39c0,.69.07,1.39.12,2.09-5.63.17-11.26.34-16.9.45a.47.47,0,0,0-.46.45c-.2,2.69-.34,5.4-.37,8.1-5.14,0-10.28-.06-15.41-.16a.55.55,0,0,0-.55.53c-.15,3.47-.26,6.94-.23,10.41h0a.65.65,0,0,0-.66.63c-.23,3.09-.43,6.19-.41,9.29a180,180,0,0,0-18.59.73c-.43,0-.48.7,0,.69h0a.29.29,0,0,0,.08.2c7.65,8.4,15.64,16.5,23.47,24.73l2.57,2.7,0,0a.16.16,0,0,0,0,.31h0a.27.27,0,0,0,.2.11l.2,0c2.91,3,5.81,6.1,8.74,9.13A163.09,163.09,0,0,0,50.55,153c-5.42-1.43-11.67-2.91-15.94,1.51a.13.13,0,0,0-.13-.09.16.16,0,0,0,0,.31.29.29,0,0,0,.47.3c5.85-5.45,14.07-.46,20.56.62a14,14,0,0,0,9.09-1.45,49.32,49.32,0,0,0,5.54-3.74l0,0a29,29,0,0,1,2.8-1.8c3.7-2,7.44-2.24,10.9.35,2,1.52,3.67,3.5,5.73,5,3.89,2.78,7.83,1.85,11-1.49,1.82-1.93,3.42-4.32,5.76-5.68a6.63,6.63,0,0,1,3.09-.9.46.46,0,0,0,.2,0,11.65,11.65,0,0,1,5.5,1.65c4.29,2.3,8.42,5.75,13.61,4.92s8.91-4.69,13.15-7.17c2.37-1.38,5-2.41,7.76-2,3,.49,5.51,2.54,7.9,4.32,2.14,1.6,4.44,3.25,7.15,3.66,3.08.46,5.71-1,8.18-2.66,3.54-2.37,6.8-3.87,11.17-3.64s8.53,1.76,12.61,3.06C197.13,148.17,197.31,147.45,196.85,147.24ZM159.22,36.53c2.45-.11,4.91-.31,7.36-.49a46.62,46.62,0,0,0,7.28-.7.37.37,0,0,0-.08-.72,51.73,51.73,0,0,0-8.14.56c-2.16.19-4.33.39-6.48.64,0-.25,0-.51-.07-.76-.09-1.14-.81-3.63.12-4.44.42-.37,2.28-.17,2.93-.22l2.94-.23c1.75-.13,3.51-.32,5.26-.4,2.7-.11,3.61,2,3.8,4.27.09,1.12.16,2.24.22,3.37a.46.46,0,0,0-.42-.2c-4.82.26-9.79.27-14.59.94C159.31,37.61,159.26,37.07,159.22,36.53Zm.83,9.54c-.2-2.38-.42-4.77-.63-7.15,4.8.17,9.71-.33,14.49-.57a.55.55,0,0,0,.49-.33c.13,2.21.23,4.43.36,6.64,0,.22,0,.44,0,.66-.63,0-1.27,0-1.9,0L174,44.19c.29-.31-.16-.78-.45-.47L172,45.43l-1.27.09a1.74,1.74,0,0,1,.11-.18.26.26,0,0,0,.16-.28l1.15-1.94a.33.33,0,0,0-.56-.34l-1.22,2.06-.18.08a.28.28,0,0,0-.12.43v0H170a.28.28,0,0,0-.3.23l-1.5.13,1.31-1.68c.26-.33-.3-.67-.56-.34l-1.52,1.94a.32.32,0,0,0-.06.15l-.31,0q-.78.06-1.59.09l1.9-2.58c.25-.34-.31-.68-.56-.34L165,45.43a.33.33,0,0,0-.19.51l-1.47.08c.47-.75.93-1.5,1.39-2.25a.32.32,0,0,0-.55-.34l-1.65,2.67c-.46,0-.9.11-1.34.19l1.57-2.73c.21-.36-.35-.71-.56-.34-.62,1.09-1.25,2.18-1.88,3.27h0l-.19,0C160.08,46.39,160.06,46.23,160.05,46.07Zm.1,1.19.1,0h.08l.09,0h.08l.1,0h0a.32.32,0,0,0,.08-.09,43,43,0,0,0,6.81-.31c2.45-.14,4.93-.21,7.36-.52.06,1.06.12,2.11.17,3.17-2.65.13-5.3.29-8,.45a39.9,39.9,0,0,0-6.64.52Zm.33,3.93A39.94,39.94,0,0,0,167,51c2.68-.14,5.36-.26,8-.43.26,5.25.52,10.5,1,15.72l-2.2.12.82-1c.26-.32-.19-.8-.45-.47-.4.48-.79,1-1.18,1.45,0,0,0,0-.05.07l-4.51.24c.68-1,1.34-2.06,2-3.09.23-.35-.33-.7-.56-.34-.74,1.13-1.48,2.26-2.21,3.39a.16.16,0,0,0,0,.08l-1.37.08c.5-.88,1-1.75,1.52-2.62.21-.36-.35-.71-.56-.34l-1.75,3-1.92.1,2.11-3c.25-.34-.31-.68-.55-.34l-2.33,3.25a.36.36,0,0,0,0,.09l-1.23.07,1.48-2.49c.22-.37-.34-.71-.55-.34-.38.62-.75,1.24-1.12,1.86C161.22,61.12,160.88,56.15,160.48,51.19ZM147.16,68.8c.52-.44,3.2-.17,3.93-.21l3.93-.21,6.87-.37,6.88-.38,3.93-.21a22.94,22.94,0,0,1,3.51-.3.49.49,0,0,0,.54.15c1.1.67.87,4.88,1,6,.2,2.49.39,5,.62,7.48a0,0,0,0,1,0,0l-3,.1.81-.78c.3-.29-.15-.77-.45-.47l-1.17,1.13a.32.32,0,0,0-.09.17l-1.56.07.05,0c.5-.93,1-1.86,1.49-2.78.2-.37-.36-.72-.56-.34l-1.49,2.77a.32.32,0,0,0,.09.42l-2,.1,1.81-2.35c.25-.33-.31-.67-.56-.34l-1.86,2.42a.25.25,0,0,0,0,.3l-1.79.09a.2.2,0,0,0,.09-.09l1.37-2.43c.2-.37-.35-.72-.56-.35l-1.37,2.43a.32.32,0,0,0,.16.46l-1.47.08,1.22-1.71c.24-.34-.32-.68-.56-.34-.48.67-.95,1.34-1.43,2a.42.42,0,0,0,0,.1l-1,0c.29-.56.58-1.13.88-1.69.19-.38-.37-.72-.56-.35l-1,2a.28.28,0,0,0,0,.12l-1.19.07c.16-.29.32-.58.47-.87s-.35-.72-.55-.35-.46.84-.68,1.26l-2.09.11c.31-.62.62-1.25.92-1.88.19-.37-.37-.72-.56-.34-.34.7-.68,1.41-1,2.11a.4.4,0,0,0,0,.15l-1.14.06c.36-.62.72-1.25,1.09-1.87.21-.36-.35-.71-.56-.34-.44.75-.88,1.5-1.31,2.26h-.29l-1,.06c.47-1.09.93-2.18,1.39-3.27.17-.38-.46-.57-.62-.18L155,81.9l-1.37.08c.46-.83.92-1.66,1.39-2.49.2-.37-.36-.72-.56-.35-.52.92-1,1.84-1.54,2.76a.56.56,0,0,0,0,.12l-3.2.16,1.39-2.79c.19-.37-.37-.72-.56-.34L149,82.13a.15.15,0,0,0,0,.09l-1.65.09,1.3-2.31c.21-.37-.35-.72-.56-.35l-1,1.75c0-2.13-.07-4.25-.16-6.39C146.88,73.72,146.12,69.68,147.16,68.8ZM132.69,84a19.56,19.56,0,0,0,5.72.1l5.8-.28,12.55-.65c8.18-.42,16.38-.73,24.55-1.37q0,5.73-.17,11.45H181l-2.91.24c.37-.81.75-1.62,1.13-2.44.18-.37-.38-.72-.56-.34-.4.87-.8,1.73-1.21,2.6a.31.31,0,0,0,0,.23l-1.16.09.78-1.48c.2-.37-.36-.72-.56-.35-.33.64-.66,1.27-1,1.9l-2.14.18c.18-.34.35-.68.53-1h0a4.81,4.81,0,0,0,3.65-6A5.09,5.09,0,0,0,172,83.23a4.5,4.5,0,0,0-3.69,3.61,1.69,1.69,0,0,0-.08.24.43.43,0,0,0,0,.16,5.88,5.88,0,0,0-.06,1.33.09.09,0,0,0,0,.05s0,0,0,0a5.11,5.11,0,0,0,1.09,2.45.29.29,0,0,0-.33.15c-.45.81-.91,1.62-1.37,2.42-.21.37.35.72.56.35l1.37-2.43a.23.23,0,0,0,0-.17,5.4,5.4,0,0,0,1.1.87l-.6,1.54a.25.25,0,0,0,0,.28l-3.82.34.94-2.5c.16-.39-.47-.58-.62-.19l-1.05,2.75-1.92.17c.43-.89.87-1.79,1.3-2.69.19-.38-.37-.72-.56-.34l-1.5,3.1-1.15.1L162.79,93a.34.34,0,0,0-.26-.5,4.76,4.76,0,0,0,1.13-4.61,5.08,5.08,0,0,0-5.55-3.56c-2.63.41-4,2.84-3.83,5.34,0,0,0,0,0,0v0a5,5,0,0,0,4.22,4.23c-.15.42-.31.84-.47,1.25l-1.74.16-1.2.11c.2-.54.41-1.08.61-1.61s-.47-.58-.62-.19l-.72,1.86-1.37.12,1.71-3.23c.19-.37-.37-.72-.56-.34l-1.89,3.56s0,.05,0,.07l-1,.08c.25-.67.49-1.35.73-2,.14-.4-.49-.58-.63-.19l-.81,2.27-1.24.1,1-1.8c.21-.37-.35-.71-.56-.34L148.47,96l-1.39.11.92-1.86c.18-.38-.37-.72-.56-.35l-1.12,2.28-1.19.1c.3-.53.59-1.06.89-1.58a.34.34,0,0,0-.21-.49,4.78,4.78,0,0,0,2.52-5.63A5.08,5.08,0,0,0,142.78,85c-2.62.42-4,2.84-3.83,5.34,0,0,0,0,0,0v0A5,5,0,0,0,143,94.67s-.06.06-.09.11c-.26.59-.53,1.19-.8,1.78l-1.54.15c.32-.59.64-1.19,1-1.78.2-.38-.36-.72-.56-.35-.4.74-.8,1.48-1.19,2.22l-1.41.14c.17-.36.35-.72.53-1.08s-.37-.72-.56-.34L137.63,97l-1.64.19,1.31-2.57c.19-.37-.37-.72-.56-.34l-1.53,3c-.29,0-.58.08-.87.12.32-.91.63-1.81.95-2.71.14-.4-.49-.59-.63-.19l-1,3C133.42,93.08,133.57,88.31,132.69,84ZM180,108.81l-1,2.28-1.35.17,1.19-3.12c.15-.39-.48-.58-.63-.18L177,111.2a.27.27,0,0,0,0,.15l-1.66.15,0,0,2-4.25a.36.36,0,0,0-.36-.5,4.8,4.8,0,0,0,1.09-4.58,5.09,5.09,0,0,0-5.55-3.57,4.32,4.32,0,0,0-3,2,4.53,4.53,0,0,0-1,.94c-.22.29.14.57.42.45a5.9,5.9,0,0,0-.19,1.93s0,0,0,0v0a5.09,5.09,0,0,0,3.05,3.93L170,111.29c-.2.38.36.72.56.35l1.86-3.52a4.18,4.18,0,0,0,.94.13l-1.86,2.93a.33.33,0,0,0,.56.34l2.11-3.33.28,0a4.9,4.9,0,0,0,2.35-1.24c-.67,1.4-1.33,2.79-2,4.19a.35.35,0,0,0,.13.44c-2.15.21-4.3.41-6.45.57l1.82-3.59c.19-.37-.37-.72-.56-.34l-2,4-2.2.17q1-2,2-4c.18-.37-.37-.72-.56-.34l-2,4.08a.33.33,0,0,0,0,.35l-.38,0-3.61.22,0,0c.46-.92.91-1.84,1.37-2.77.18-.37-.37-.72-.56-.34l-1.37,2.76a.35.35,0,0,0,.1.42l-1.72.1,2-3.43a.27.27,0,0,0,0-.21,4.79,4.79,0,0,0,3.35-6,5.09,5.09,0,0,0-5.54-3.56,4.3,4.3,0,0,0-3,1.87,3.7,3.7,0,0,0-.88,1.55.3.3,0,0,0,.11.33,6,6,0,0,0-.12,1.59s0,0,0,0v0a5.1,5.1,0,0,0,3.15,4,0,0,0,0,0,0,0l-2,3.7a.34.34,0,0,0,0,.16l-1.16,0,1.36-2.73c.19-.37-.37-.72-.56-.34l-1.54,3.08v0l-3.73.11,0,0,1.36-2.26a.33.33,0,0,0-.56-.35l-1.36,2.27a.31.31,0,0,0,.06.4l-1.47,0c.4-.8.8-1.6,1.19-2.4.19-.38-.37-.73-.56-.35l-1.2,2.43a.35.35,0,0,0,0,.33l-1,0c.4-.77.81-1.54,1.22-2.31.19-.37-.36-.71-.56-.34l-1.38,2.59s0,.05,0,.07h-1.63c.53-.8,1.07-1.59,1.61-2.38.23-.35-.33-.69-.56-.34-.62.9-1.23,1.81-1.85,2.72h-2c.55-.75,1.11-1.49,1.67-2.24.25-.34-.31-.68-.56-.34l-1.92,2.58h-.7a.28.28,0,0,0-.38,0h-.13l1.84-2.64c.25-.35-.31-.69-.56-.35l-2,2.91a.36.36,0,0,0,0,.07h-.76l1.75-2.82a.32.32,0,0,0-.55-.34c-.66,1.05-1.32,2.1-2,3.15l-1,0,1.9-3.45c.2-.37-.36-.72-.56-.35l-2.08,3.79-.88,0,1.56-4.06c.15-.39-.48-.58-.63-.18l-1,2.49,0,0-.54,1.16c.28-4.6-.27-9.4-.53-14a.31.31,0,0,0,.33-.16l.84,0c.1.22.43.33.56.06a.3.3,0,0,0,0-.08l1.72-.09a.31.31,0,0,0,.58.07l0-.11c6.33-.37,12.66-1.05,19-1.58,8.07-.68,16.16-1.33,24.22-2.1l.14,0q-.17,8.19-.39,16.39l-1,.14.87-2C180.79,108.61,180.16,108.43,180,108.81Zm-4.68-7.21A4,4,0,0,0,171,99.92a3.71,3.71,0,0,1,1-.56,4.41,4.41,0,0,1,5.15,2.16,4.18,4.18,0,0,1-2.66,6,4,4,0,0,1-.82.12A4.13,4.13,0,0,0,175.32,101.6Zm-2.71,5.71a.31.31,0,0,0-.19.14,4.48,4.48,0,0,1-3.06-3.58A5.24,5.24,0,0,1,170,101a3.43,3.43,0,0,1,4.79,1A3.52,3.52,0,0,1,172.61,107.31Zm-11.5-4.91c1.52,2.23.42,4.84-1.62,6.24a4.33,4.33,0,0,1-4-3.72,5,5,0,0,1,.74-3A3.21,3.21,0,0,1,161.11,102.4Zm-2.61-2.1a4.44,4.44,0,0,1,4.75,2.27,4.17,4.17,0,0,1-2.55,5.91c1.9-1.88,2.59-4.87.49-7A3.77,3.77,0,0,0,158.5,100.3Zm.05,8.88a4.63,4.63,0,0,0,.65.1.28.28,0,0,0,.4.07l.09-.06.39,0-1.89,3.26a.31.31,0,0,0,0,.26c-.5,0-1,0-1.48.06l1.84-3.5A.26.26,0,0,0,158.55,109.18ZM143.4,94.71a4.56,4.56,0,0,0,1.27-.09,5.69,5.69,0,0,0,.59-.16.32.32,0,0,0,.14,0l-1.06,1.89-1.46.13c.21-.45.42-.91.62-1.37A.33.33,0,0,0,143.4,94.71Zm2.88-6.95a4.44,4.44,0,0,0-5.89-.52,3.53,3.53,0,0,1,1.86-1.41A4.41,4.41,0,0,1,147.39,88a4.12,4.12,0,0,1-.17,4.11A4.34,4.34,0,0,0,146.28,87.76Zm-.47.45a3.83,3.83,0,0,1-.39,5.48,4,4,0,0,1-.69.25,4.21,4.21,0,0,1-5.12-3.6,5.62,5.62,0,0,1,.19-1.83.27.27,0,0,0,.25-.09A3.86,3.86,0,0,1,145.81,88.21Zm14.9-.43A4.27,4.27,0,0,1,160,93.2a4.36,4.36,0,0,1-.71.11.34.34,0,0,0-.5,0,4.38,4.38,0,0,1-3.85-3.72,6.46,6.46,0,0,1,0-1.08.31.31,0,0,0,.2-.2A3.11,3.11,0,0,1,160.71,87.78Zm-5-1.27a3.54,3.54,0,0,1,1.87-1.43,4.41,4.41,0,0,1,5.14,2.16,4.14,4.14,0,0,1-1.53,5.45,4.63,4.63,0,0,0-.65-6.09A3.73,3.73,0,0,0,155.71,86.51ZM159.2,94a3.25,3.25,0,0,0,.44,0,.32.32,0,0,0,.49.06l.21-.21a4.91,4.91,0,0,0,1.74-.91l-1.16,2.07-2.15.19Zm15.45-7.79a4.24,4.24,0,0,1-.89,6h0l-.12,0h-.07a4.26,4.26,0,0,1-4.73-3.67A5.49,5.49,0,0,1,169,87,3.27,3.27,0,0,1,174.65,86.17Zm-4-1.75a3.87,3.87,0,0,1,.79-.39,4.43,4.43,0,0,1,5.15,2.16,4.16,4.16,0,0,1-1.4,5.38,4.74,4.74,0,0,0-.7-6.46A3.92,3.92,0,0,0,170.68,84.42Zm0,9.61.56-1.44a4.65,4.65,0,0,0,1.86.33l-.39.74a.34.34,0,0,0,0,.24l-2,.17Zm-44.6,18.71-.71,0,.62-.7Zm-1-8.56c.25,2.39.53,4.77.82,7.15a.27.27,0,0,0-.28.09c-.34.38-.67.76-1,1.13a.6.6,0,0,0-.06.11l-.67,0,1.44-2c.25-.34-.31-.69-.56-.35l-1.65,2.26-1.53-.1c.72-.94,1.43-1.88,2.15-2.81.26-.34-.3-.68-.56-.35l-2.37,3.1-1.4-.11,3-4.38c.24-.35-.32-.69-.56-.34l-3.15,4.66-1.6-.15,2.67-3.3c.27-.33-.19-.81-.45-.48l-2.87,3.55a.37.37,0,0,0-.07.16l-.93-.09,2.94-4.05c.24-.34-.32-.68-.56-.34l-3.13,4.32-1-.12,1.82-2.61c.24-.35-.32-.69-.56-.35l-2,2.87-1.08-.16,2.58-4.42c.21-.37-.35-.71-.56-.35l-2.67,4.57a.24.24,0,0,0,0,.08c-.56-.1-1.11-.2-1.65-.32l.06,0,2.7-3.38c.26-.33-.3-.67-.56-.35l-2.7,3.39a.23.23,0,0,0,0,.27c-.47-.1-.92-.22-1.38-.34l3.2-4.84c.24-.36-.32-.7-.56-.35l-3.2,4.86a.42.42,0,0,0-.06.15c-.41-.11-.82-.24-1.22-.38l3.39-4.33c.26-.33-.3-.67-.56-.34l-3.48,4.45-1.19-.46,3.54-3.95c.27-.32-.18-.79-.46-.48l-3.73,4.16c-.53-.24-1-.49-1.56-.77l3-2.78a.33.33,0,0,0-.45-.48L101.15,108c-.31-.17-.61-.36-.91-.55l2.17-2c.31-.28-.15-.76-.46-.47l-2.29,2.11-.74-.55,1.71-1.61c.3-.29-.15-.76-.46-.47l-1.78,1.68A19.36,19.36,0,0,1,95.25,103c6.7.3,13.54-.36,20.23-.61,1.61-.06,3.23-.1,4.84-.19a26.18,26.18,0,0,1,2.92-.19C124.9,102.12,124.87,102.15,125.09,104.18ZM125,93a12,12,0,0,1,0,2.32c0,1.93-.1,3.86-.08,5.79l-1.72,0,1.4-1.24c.32-.28-.13-.75-.45-.47L122.26,101a.28.28,0,0,0-.08.12l-2,0c.7-.67,1.39-1.35,2.08-2,.31-.29-.15-.77-.45-.47l-2.57,2.51s0,0,0,0l-2,0,2.26-2.12c.31-.29-.14-.76-.45-.48L117,100.63l-.09,0a.34.34,0,0,0-.15.63l0,.05-2.33.07,2-1.67c.33-.27-.13-.74-.45-.47l-2.34,1.91a.27.27,0,0,0-.11.26l-2.09.06,2.56-1.94c.34-.26-.12-.73-.45-.48l-3.16,2.41a.1.1,0,0,0,0,0l-1.21,0-.54,0,2.28-1.94c.33-.28-.13-.75-.45-.48l-2.66,2.26a.28.28,0,0,0-.1.19l-2.33.06L108,99.69c.34-.25-.12-.72-.45-.47l-2.63,2a.28.28,0,0,0,0,.46l-3.09.08,2.79-1.91c.34-.23,0-.81-.32-.57l-3.18,2.17a.31.31,0,0,0-.31.35c-.7,0-1.39.06-2.08.11l2.62-2.08c.33-.27-.13-.74-.46-.48l-3.1,2.47a.26.26,0,0,0-.1.15c-.72.06-1.43.12-2.14.2l2.23-1.87c.32-.27-.13-.74-.45-.47L94.65,102a.24.24,0,0,0-.06.09l-.17-.22a.33.33,0,0,0-.6.14h-.44l2.29-2c.32-.28-.13-.75-.46-.48L92.38,102h-.95l2.23-2.69c.27-.33-.18-.8-.45-.48l-2.13,2.58c-.47-3.39-.91-6.78-1.14-10.19a36.27,36.27,0,0,0,7.61.32.27.27,0,0,0,.31,0l2.23,0c3.9,0,7.79.07,11.69.09l5.84,0a45.68,45.68,0,0,1,5.85,0C124.8,91.82,124.72,91.51,125,93ZM89.46,100.8l-1.7,1.29-1.39,0,1.76-1.74c.3-.29-.15-.77-.45-.47l-2,2a.29.29,0,0,0-.09.28l-1.8.09,1.83-2.11c.28-.32-.17-.79-.45-.47l-2.14,2.45a.3.3,0,0,0-.08.17l-1.9.09L83,100.74c.32-.28-.14-.75-.46-.47l-2.29,2a.26.26,0,0,0-.1.2l-2.21.11,2.12-2c.3-.29-.15-.76-.46-.47l-2.51,2.4a.41.41,0,0,0-.08.14l-1.71.07c.55-.56,1.1-1.13,1.66-1.69.29-.3-.16-.78-.45-.47-.73.73-1.45,1.46-2.17,2.2l-2.17,0,3.1-2.87c.31-.29-.14-.76-.45-.48l-3.64,3.37h-.1l-2.23,0,2.86-2.61c.31-.29-.15-.76-.46-.48l-3.38,3.09-2.26,0,2.13-1.91c.31-.29-.14-.76-.45-.48l-2.67,2.39H63.19L65,101c.29-.3-.16-.78-.45-.48l-2.11,2.15h0a.3.3,0,0,0-.26.12H60.21l1.61-1.55a.33.33,0,0,0-.45-.47l-2.11,2H57.45l1.91-2.09c.28-.31-.17-.79-.46-.47l-2,2.19q.11-4.78.29-9.58A83.77,83.77,0,0,0,73,93.36,136,136,0,0,0,88.82,91.9c.58,3.36,1,6.74,1.33,10.13l-1.27,0,1-.78C90.25,101,89.8,100.55,89.46,100.8ZM57.26,83.53a.31.31,0,0,0,.29-.31.28.28,0,0,0,.22-.08c6.68-.48,13.32-1.42,20-1.67,1.76-.06,3.53-.11,5.29-.13,1.09,0,4.25-.54,5.07.23s.33,4,.35,5.12c0,.56,0,1.12,0,1.68a.3.3,0,0,0-.28.07l-2.47,2c-.34.26.12.73.45.47L88.52,89c0,.55,0,1.1.07,1.64q-3.84.54-7.7.9l3.35-2.8c.33-.27-.13-.74-.45-.47q-1.83,1.53-3.67,3l-.05.07h0a.31.31,0,0,0-.31.25L78,91.8l2.64-2.21c.33-.27-.13-.74-.45-.47l-2.85,2.39a.26.26,0,0,0-.07.35c-.86.06-1.71.11-2.57.15a.29.29,0,0,0-.29-.22.3.3,0,0,0-.31.26l-1.52.07L75,90c.31-.28-.14-.75-.46-.47l-3,2.6c-.6,0-1.19,0-1.79,0l2.12-1.85c.31-.28-.14-.75-.46-.47l-2.65,2.32h-2l1.37-1.24c.32-.28-.14-.75-.45-.47l-1.89,1.69-1.81,0L65.33,91c.32-.27-.13-.74-.45-.47L63,92.09l-2.35,0,1.93-1.74c.31-.29-.15-.76-.46-.48-.81.74-1.62,1.48-2.44,2.21H58l2.41-2.17c.32-.28-.14-.76-.45-.47l-2.67,2.4,0,.06C57.46,89.12,57.27,86.3,57.26,83.53Zm66.67-2.64c.18,3.26.28,6.53.62,9.78-.47,0-.93,0-1.4-.06l1.13-.89c.34-.26-.12-.73-.45-.47l-1.7,1.33-1.25,0a.34.34,0,0,0,0-.18.27.27,0,0,0,.3-.08c.79-.8,1.57-1.61,2.35-2.41.3-.3-.16-.78-.45-.48l-2.35,2.42a.32.32,0,0,0,0,.4l-.08,0a.31.31,0,0,0-.32.34c-1.47,0-2.94,0-4.42,0l0,0,2.52-2.57c.3-.3-.15-.78-.45-.47L115.41,90a.32.32,0,0,0,0,.49h-2.4l2.71-2.3c.33-.28-.13-.75-.45-.48l-3,2.56a.3.3,0,0,0-.11.23H111l2.45-2.35c.3-.29-.15-.77-.45-.48l-2.68,2.58a.28.28,0,0,0-.1.25h-2l0,0,2.51-2.24c.32-.28-.14-.75-.45-.47L107.88,90a.3.3,0,0,0,0,.49H106l2.7-2.3c.32-.28-.13-.75-.45-.47l-3,2.55a.28.28,0,0,0-.11.22h-1.23c.45-.51.89-1,1.34-1.55.28-.32-.18-.79-.45-.47-.59.67-1.17,1.35-1.75,2h-1.87l2.55-2.63c.3-.3-.15-.77-.45-.47l-3,3.1H98.93l1.93-1.94c.3-.3-.15-.78-.45-.48L98,90.48l-2,0,2.13-2c.31-.29-.15-.77-.45-.47-.87.82-1.74,1.64-2.6,2.47-.66,0-1.31,0-2,0L95.48,88c.29-.31-.16-.78-.45-.47l-2.79,3a18.3,18.3,0,0,0-1.83.16l2.16-2.33c.28-.31-.17-.78-.46-.47-.87.94-1.74,1.89-2.62,2.83h0c.19-3.17-.15-6.42-.12-9.59,5.63.37,11.38.11,17,.06C112.22,81,118.08,81,123.93,80.89ZM95.4,72.38l9.55-.23c.91,0,1.85-.32,2.49.45.34.41.27,1.83.34,2.34.24,1.64.46,3.28.69,4.92l-2.07,0h-.85l2.42-2.2c.32-.28-.14-.75-.45-.47l-2.84,2.57a.25.25,0,0,0-.08.1h-4.39l3.35-2.62c.33-.26-.12-.73-.45-.48l-3.67,2.88a.28.28,0,0,0-.12.22l-2.18,0,2.25-1.81c.33-.27-.13-.74-.45-.48L96.12,79.9l0,0-1.92,0,1.77-1.62c.31-.29-.14-.76-.45-.48L93.16,80c-.69,0-1.38.06-2.08.11L93,78.5c.32-.27-.13-.75-.45-.47-.87.72-1.73,1.45-2.59,2.19-.52,0-1,.07-1.55.12h-.21l2-2.07c.29-.31-.16-.78-.45-.48L87.59,80a.32.32,0,0,0-.09.27c-.92,0-1.85-.07-2.78-.08l3-2.59c.32-.27-.14-.75-.46-.47l-3.51,3s0,0,0,0q-1.2,0-2.4,0l2.34-1.77c.34-.25-.12-.72-.45-.47l-3,2.26-1.7,0L81,77.86c.3-.3-.15-.77-.45-.47l-3,2.94-1.29,0,1.82-1.89c.29-.3-.16-.78-.45-.47l-1.57,1.62q-.24-3.37-.46-6.74a.59.59,0,0,0-.13-.34l.74,0a.27.27,0,0,0,.25,0C82.73,73,89.16,72.52,95.4,72.38ZM57.84,70.25l1.33-1.76c.25-.34-.31-.69-.56-.35l-.74,1c0-.94,0-1.88,0-2.82,6.5,0,13,0,19.5,0h9.77c1.08,0,3.89-.51,4.71.15.52.4.64,1.87.69,3.11a.32.32,0,0,0-.32,0l-1.17,1c-.33.26.13.74.45.47l1.07-.87c0,.37,0,.68,0,.9a.48.48,0,0,0,.12.29l-1.62,0c-1.46,0-2.94.07-4.42.09l2.75-2.94c.29-.31-.16-.78-.45-.47l-2.86,3.05a.33.33,0,0,0-.06.37l-2.22,0,2.31-2.23a.33.33,0,0,0-.45-.48L82.9,71.59l-2.72.12,2.41-2.44c.3-.3-.15-.77-.45-.47l-2.45,2.47a.32.32,0,0,0,0,.46c-.82,0-1.64.11-2.45.19l2.18-2.09a.33.33,0,0,0-.45-.48L76.17,72l-.86.09c-.14,0-.17.15-.14.26h0l-.88,0,2.05-2.33c.28-.31-.17-.79-.45-.47l-2.39,2.71a.24.24,0,0,0-.06.11l-2.59.07,2.36-2.17c.32-.28-.14-.76-.45-.47l-2.48,2.27a.29.29,0,0,0-.06.38l-2.54.07,3.27-3.11c.31-.29-.15-.76-.45-.47l-3.7,3.51-.07.09-2.16.06L67.12,70c.3-.3-.16-.77-.45-.47q-1.56,1.55-3.1,3.11l-2.64.08,2.58-2.47c.31-.29-.15-.76-.45-.47l-3.11,3-1.88.06,2.72-3.63c.26-.34-.31-.68-.56-.34l-2.46,3.27C57.8,71.52,57.83,70.88,57.84,70.25ZM40.43,77c0-.48-.15-1.87.15-2.27.58-.76,1.64-.51,2.5-.53L53.75,74q10.44-.24,20.88-.54.25,3.45.5,6.91a.42.42,0,0,0,0,.12l-1.29.07.34-.24c.34-.24,0-.82-.31-.58l-.67.48a.34.34,0,0,0-.14.28h0a.3.3,0,0,0-.27.14l-.71,0-.48,0,1.92-1.59c.33-.27-.13-.74-.45-.47l-2.33,1.92a.26.26,0,0,0-.11.21c-1,.07-1.9.14-2.85.23l2.94-2.3c.33-.26-.12-.73-.45-.48L67,80.78a.25.25,0,0,0-.11.27c-.83.08-1.67.16-2.5.26l2.41-1.91c.34-.27-.12-.74-.45-.48l-2.83,2.24a.29.29,0,0,0-.11.27q-1.15.15-2.31.33l2.06-1.82c.32-.28-.14-.75-.45-.47l-2.18,1.92a.29.29,0,0,0,0,.46c-.62.1-1.24.22-1.86.34l1.19-1.32c.28-.31-.17-.79-.45-.48l-1.82,2-.31.07a.41.41,0,0,0-.36-.27h-.22l1.56-1.85c.27-.32-.18-.8-.46-.47l-1.93,2.3-2.34-.08,2.28-2.8c.27-.32-.19-.8-.45-.47-.79,1-1.58,1.93-2.36,2.9a.33.33,0,0,0-.05.35l-2,0,2.77-2.78c.29-.3-.16-.78-.46-.48L50,82s0,0,0,0l-2.06,0L50.85,79c.3-.3-.15-.78-.45-.48L47,81.93s0,0,0,0l-1.92,0,2.58-2.7c.3-.3-.16-.78-.45-.47l-3,3.16-1.73,0,2.92-2.72c.31-.29-.15-.76-.46-.48l-3.39,3.17s0,0,0,0h-1.4a.2.2,0,0,0,.07-.06l2.9-3.18c.28-.31-.17-.79-.45-.48L40.07,81C40.21,79.66,40.33,78.31,40.43,77ZM23.85,92.57a.31.31,0,0,0,.15-.11c.57-.75,1.13-1.5,1.69-2.26.26-.34-.3-.68-.56-.34l-1.19,1.59c.24-2.88.38-5.76.5-8.65,6.93,0,13.86.19,20.79.23l4.84,0c1,0,1.94,0,2.91,0a16.94,16.94,0,0,1,2.61-.12.32.32,0,0,0,.31.11c1.06.73.58,2.92.55,4.11,0,1.37-.09,2.75,0,4.12l-2.85.08,2.29-1.88c.33-.26-.12-.74-.45-.47l-2.34,1.92a.26.26,0,0,0-.1.27.28.28,0,0,0-.16,0,.3.3,0,0,0-.31.25l-2.43.08,2.87-2.2c.33-.25-.12-.73-.45-.47L49,91.5s0,0,0,0l-1.5.06,2.17-1.74c.33-.26-.12-.74-.45-.47l-2.82,2.26h0l-1.8.08,2.77-2.44c.32-.27-.14-.75-.45-.47l-3.37,3-2.13.11,2.47-2.69c.29-.31-.16-.79-.45-.48l-2.83,3.08a.37.37,0,0,0-.07.12h0L38.52,92l2.09-2.19c.29-.3-.17-.78-.46-.47L37.57,92l-2.48.12,2.77-2.71A.33.33,0,0,0,37.4,89l-3.29,3.24-1.73.08,2.14-1.8c.32-.27-.13-.75-.45-.48L31.4,92.26l-.06.06-.05,0-2.07.09c.78-.84,1.56-1.68,2.35-2.51.28-.31-.17-.79-.46-.48l-2.83,3L26,92.56l2-1.91c.3-.29-.15-.76-.46-.47L25,92.58s0,0,0,0l-1.12,0S23.85,92.59,23.85,92.57Zm-.14,1.35c7.17-.44,14.34-.74,21.51-1.08,1.77-.09,3.53-.17,5.3-.29l2.4-.14c.52,0,2.41-.47,2.89-.16,1.07.68.37,3.69.32,4.93s-.1,2.36-.15,3.55a.33.33,0,0,0-.48,0l-2.37,2.06-1.85,0c.67-.67,1.34-1.34,2-2,.3-.3-.16-.78-.46-.48l-2.47,2.45s0,0,0,0l-1.73,0,2.4-2.17c.31-.28-.15-.75-.46-.47l-2.67,2.42a.35.35,0,0,0-.58,0c-.06.08-.13.16-.19.25l-1.43,0,3.22-2.83c.32-.28-.14-.75-.45-.47L45,102.44a.26.26,0,0,0-.11.22H43.42l2.67-2.42c.31-.28-.14-.75-.46-.47l-3,2.73a.29.29,0,0,0-.09.15l-2.05,0,2.87-2.73a.33.33,0,0,0-.46-.48l-3.35,3.2H37.67l2.74-2.77c.3-.3-.16-.77-.45-.47l-3.21,3.23H35L37.23,100c.28-.31-.17-.79-.45-.47-.88,1-1.77,2-2.65,3H32.08c.79-.75,1.58-1.5,2.38-2.24.31-.29-.15-.77-.45-.48l-2.62,2.47a.25.25,0,0,0-.1.24H29.62L32,100.25c.31-.29-.15-.77-.45-.47l-2.85,2.79h-2l2-1.7c.32-.27-.13-.75-.46-.47l-2.56,2.17H23.25l2-1.8c.32-.28-.14-.76-.45-.48l-2,1.75C23.25,99.35,23.49,96.63,23.71,93.92Zm32.2,8.85H54.55a.35.35,0,0,0-.38,0h-.06l1.85-1.6h0c0,.49-.05,1-.07,1.48A.51.51,0,0,0,55.91,102.77ZM4.22,104l3.85,0c-.54.71-1.07,1.43-1.61,2.15C5.72,105.38,5,104.68,4.22,104Zm3.91,3.69-1.19-1.15H7l1.69-2.26a.26.26,0,0,0,0-.33l2.27-.05-2.78,3.79Zm18.29,18.69C20.54,120.24,14.69,114,8.58,108.11a.35.35,0,0,0,.12-.1l2.85-3.89a.25.25,0,0,0,0-.26l1.54,0L9.93,108c-.26.34.3.68.56.35,1.16-1.53,2.31-3.06,3.47-4.58l1.86,0-3.75,4.84c-.26.33.3.67.56.34l4-5.2,2,0-5.1,6.15c-.27.32.18.8.45.47L19.21,104a.35.35,0,0,0,.05-.35l2,0-5.39,6.12c-.27.31.18.79.46.47l5.38-6.11a.35.35,0,0,0,0-.48c1.27,0,2.54,0,3.81,0h.66l-3.49,4.64c-.25.33.31.67.56.34l3.61-4.8a.26.26,0,0,0,.06-.18h1.63l-4.8,6.59c-.25.34.31.68.56.34l4.93-6.77a.32.32,0,0,0,.06-.15h1.11l-4.52,6.13c-.25.34.31.68.56.34l4.77-6.47,1.48,0-3.37,4.85c-.24.35.32.69.56.34l3.58-5.15a0,0,0,0,1,0,0l1.56,0a20.8,20.8,0,0,1-3.4,5.44c-.27.32.18.8.46.48a21.65,21.65,0,0,0,3.65-5.92l2.35,0c-1.2,1.79-2.39,3.58-3.59,5.36-.23.36.33.7.56.35l3.77-5.64s0,0,0-.06l2.46,0c-1.45,2-2.91,4-4.37,6-.25.34.32.68.56.34q2.31-3.17,4.61-6.35l1.74,0-4.14,5.86c-.24.35.32.69.56.35,1.46-2.07,2.92-4.13,4.37-6.2l1.64,0-3.44,4.53c-.25.34.31.68.56.34l3.69-4.86,1.2,0a.26.26,0,0,0-.17.14L45,109a.33.33,0,0,0,.56.34q1.54-2.5,3.07-5a.31.31,0,0,0-.19-.47h.13l2.54,0L47.28,109c-.25.34.31.68.56.34L52,103.9l1.27,0-4.43,5.65c-.26.33.3.67.56.34l4.7-6h1.88c-1.24,1.46-2.49,2.91-3.73,4.36-.28.32.17.8.45.47L56.79,104l1.89,0q-1.43,2.13-2.83,4.27c-.23.35.33.69.56.34,1-1.53,2-3.07,3.05-4.61h2.06l-4.1,4.75c-.27.32.18.8.45.48,1.51-1.74,3-3.49,4.51-5.23h1.76L60,109.1c-.26.32.3.66.56.34L65,104H66.1l-3.35,3.93c-.27.32.18.8.46.47L67,104h1.19l-2.35,3.89a.33.33,0,0,0,.56.34L68.92,104h2.42l-3.26,4.11c-.27.33.29.67.55.35L72.17,104h1.77l-3.33,4c-.27.32.18.79.45.47l3.74-4.45H77l-3,4.29c-.24.35.32.69.56.35l3.08-4.35a.28.28,0,0,0,0-.29l2.45,0-3.56,4.48c-.26.34.31.68.56.35L81,103.9l2.11,0L78.57,109c-.27.31.18.79.45.47L84,103.84l1,0-4.43,5.9c-.26.34.31.68.56.34l4.71-6.27c2.44-.11,4.85-.32,7.23-.65-1.3,2.13-2.61,4.24-3.92,6.37a.33.33,0,0,0,.56.34L93.9,103l.26,0,.08,0h.05a16.46,16.46,0,0,0,2.47,3.13.32.32,0,0,0-.17.12l-2.7,3.89c-.24.34.32.68.56.34l2.7-3.89s0,0,0-.07a19.87,19.87,0,0,0,3.48,2.56L97.25,113c-.28.32.17.79.45.47l3.52-4a0,0,0,0,0,0,0c.4.22.81.42,1.23.62l-3.24,5c-.23.35.33.7.56.34l3.24-5a.25.25,0,0,0,0-.07c.42.19.84.36,1.26.53l-3.13,4.4c-.24.34.32.68.56.34q1.6-2.25,3.2-4.51c.51.19,1,.36,1.54.52l-3.35,4.68c-.25.34.31.68.56.34l3.45-4.82c.58.16,1.17.31,1.75.44l-2.49,4.27c-.22.37.34.71.55.34q1.29-2.18,2.56-4.37a.16.16,0,0,0,0-.09c.39.09.77.16,1.16.23s1,.16,1.44.24c-.8,1.14-1.61,2.28-2.41,3.43-.24.34.32.68.56.34l2.57-3.66q1.31.21,2.61.36L112,117c-.29.31.16.78.45.48l3.83-4.07,1.83.19a.34.34,0,0,0,.16,0l.1,0,.45,0-2.72,3.54c-.26.33.3.67.56.34l2.93-3.81c.5,0,1,.08,1.5.12l-2.73,3.08c-.28.32.17.8.45.48l2.85-3.22a.3.3,0,0,0,.08-.29l.72,0a.35.35,0,0,0,.46,0l2.48.14-3.16,3c-.3.29.15.76.46.47l3.61-3.44c.75,0,1.51.06,2.27.09l-2.31,3.18c-.25.34.31.68.56.34l2.54-3.49,1.48,0L129.39,117c-.19.38.36.72.56.35l1.61-3,4,.1c-.6.82-1.19,1.65-1.78,2.47-.25.34.31.68.56.34l2-2.79,2.28,0-1.86,2c-.29.31.17.78.45.47l2.28-2.51q11.6.13,23.17-.62,6.28-.42,12.55-1.13c4.59-.51,9.56-.73,14-2a56.72,56.72,0,0,0-7.11,11.61.73.73,0,0,0-.3,0,861.71,861.71,0,0,1-121.57,5.39C49,127.46,37.69,126.56,26.42,126.37ZM28,128l-.75-.79c9.63,1,19.43,1.09,29.09,1.36q15.3.43,30.6.35,30.36-.19,60.66-2.4c11.35-.82,22.68-1.88,34-3.07-.42.91-.83,1.82-1.24,2.73a882,882,0,0,1-116.93,6.26c-10.68-.17-21.39-1-32.07-1C30.23,130.33,29.11,129.18,28,128Zm145.39,18.66-.84.56,1.05-1.81C173.51,145.85,173.44,146.26,173.38,146.68Zm.16-2.48c-.62,1.08-1.25,2.16-1.88,3.24a.33.33,0,0,0,0,.36,21.14,21.14,0,0,1-2,1.16l2.5-4.61c.2-.37-.35-.71-.56-.34l-2.55,4.71a.33.33,0,0,0,.15.46,7.73,7.73,0,0,1-2.19.63l0,0,3.09-5.17a.33.33,0,0,0-.56-.34l-3.09,5.16a.31.31,0,0,0,.09.43,7.76,7.76,0,0,1-1.74-.06l3.53-5.71a.33.33,0,0,0-.56-.34q-1.8,2.9-3.59,5.81a.26.26,0,0,0,0,.1,8,8,0,0,1-1.06-.31l3.3-5.29a.33.33,0,0,0-.56-.35l-3.36,5.39a13.19,13.19,0,0,1-1.25-.62.31.31,0,0,0-.3-.29.33.33,0,0,0-.15,0l-.89-.56a.32.32,0,0,0,.19-.14l1.53-2.43a.33.33,0,0,0-.56-.34l-1.53,2.43a.27.27,0,0,0,0,.19c-.4-.27-.79-.55-1.19-.84l2.34-3.45c.24-.36-.32-.7-.55-.35l-2.32,3.42-1.33-.93,3-3.94c.25-.34-.31-.68-.56-.34l-3,3.91-1-.66,2.24-3.3c.24-.35-.32-.69-.56-.35-.74,1.11-1.49,2.21-2.24,3.31-.37-.22-.75-.41-1.13-.6a.34.34,0,0,0,.28-.14l1.86-2.75c.24-.35-.32-.69-.56-.34l-1.86,2.74a.27.27,0,0,0,0,.35c-.36-.16-.71-.32-1.08-.46l2-3c.24-.35-.32-.69-.56-.34l-2.09,3.12q-.39-.12-.78-.21l2.19-3.21c.24-.35-.32-.69-.56-.34l-2.2,3.23a.24.24,0,0,0,0,.19,10,10,0,0,0-1.1-.11l2.28-3.34c.23-.35-.33-.69-.56-.34L148,141.83a.38.38,0,0,0-.06.13,10.14,10.14,0,0,0-1.78.21l-.14,0,1.28-1.68c.25-.34-.31-.68-.56-.35L145,142.48a16.28,16.28,0,0,0-2.17.85c.94-1.17,1.89-2.34,2.83-3.52.27-.33-.29-.67-.55-.34l-3.38,4.19a.26.26,0,0,0,0,.26c-.89.49-1.75,1-2.6,1.62l2.82-3.16c.28-.31-.17-.79-.45-.47L138,145.73a.34.34,0,0,0,.05.49c-.9.62-1.79,1.25-2.69,1.85.76-1.17,1.53-2.34,2.3-3.51.23-.35-.33-.7-.56-.34l-2.55,3.88a.3.3,0,0,0,.1.43q-.62.39-1.26.75c.54-.93,1.09-1.86,1.63-2.8.21-.36-.35-.71-.56-.34l-1.88,3.24a.32.32,0,0,0,0,.34,14.77,14.77,0,0,1-2.53,1c.87-1.39,1.73-2.79,2.6-4.19a.33.33,0,0,0-.56-.34l-2.71,4.37a.28.28,0,0,0,0,.34,10.12,10.12,0,0,1-2,.3q1.29-2.19,2.6-4.38a.33.33,0,0,0-.56-.35q-1.4,2.37-2.81,4.74a10,10,0,0,1-1.52-.17l2.42-4.12a.33.33,0,0,0-.56-.34l-2.53,4.31-.24,0a12.5,12.5,0,0,1-1.34-.47l1.56-2.69a.33.33,0,0,0-.56-.34c-.53.93-1.07,1.85-1.61,2.78-.48-.21-.94-.45-1.41-.69l1.8-3.27c.2-.37-.36-.71-.56-.34l-1.81,3.29c-.69-.38-1.36-.78-2-1.18l2.47-3.45c.25-.35-.32-.69-.56-.35-.82,1.16-1.65,2.31-2.47,3.46-.49-.29-1-.57-1.48-.84l0,0,2-2.79c.24-.35-.32-.69-.56-.35l-2,2.83c-.47-.24-.94-.45-1.41-.64l2.74-3.63c.25-.34-.31-.68-.56-.34l-2.81,3.73c-.3-.1-.6-.2-.89-.28l2.56-3.52c.25-.34-.31-.68-.55-.34l-2.7,3.69a10,10,0,0,0-1.62-.22l2.58-3.35c.26-.33-.31-.67-.56-.34-1,1.22-1.89,2.45-2.84,3.68a7.81,7.81,0,0,0-1.72.23l1.67-2.15c.26-.33-.31-.67-.56-.34l-2.2,2.83a9.73,9.73,0,0,0-2.92,1.84l0,0,1-1.52c.23-.36-.33-.7-.56-.35l-2.9,4.36a.36.36,0,0,0,0,.09,19.28,19.28,0,0,1-3.23,3c-.21.15-.42.27-.62.39l3-4.5c.23-.35-.33-.69-.56-.34L96.9,153a.32.32,0,0,0,.26.48,5.7,5.7,0,0,1-2.72.57l3.93-5.46c.25-.35-.31-.69-.56-.35q-2,2.83-4.07,5.65a.32.32,0,0,0,0,.09,7.2,7.2,0,0,1-1.91-.61L96,147.1c.24-.35-.32-.69-.56-.34l-4.23,6.3a10.88,10.88,0,0,1-1-.68l-.12-.09,3.07-4.64c.24-.36-.32-.7-.56-.35l-3,4.59-.93-.76L92,146.48c.25-.34-.31-.68-.56-.34l-3.35,4.57-1-.89L90.14,146c.26-.33-.3-.67-.56-.34-1,1.24-2,2.49-3,3.74-.38-.31-.76-.62-1.14-.91l1.84-2.18c.27-.32-.18-.8-.46-.48l-1.9,2.27c-.39-.28-.78-.53-1.17-.76l3.07-3.69c.27-.32-.18-.79-.45-.47-1.07,1.28-2.14,2.55-3.2,3.83-.27-.14-.55-.26-.83-.38l2.39-2.83c.26-.32-.19-.8-.46-.47l-2.57,3a9.71,9.71,0,0,0-1.57-.35l2.18-3c.24-.34-.32-.68-.56-.34l-2.2,3.06a.26.26,0,0,0,0,.26,9.86,9.86,0,0,0-2.07.11c.6-.76,1.2-1.53,1.79-2.3.26-.33-.3-.67-.56-.34l-2.21,2.83a14.23,14.23,0,0,0-2.06.69l1.45-2.49c.22-.37-.34-.71-.55-.35l-1.89,3.24a.14.14,0,0,0,0,.06c-.66.33-1.31.7-1.94,1.08l1.09-1.64c.23-.35-.33-.69-.56-.34l-1.9,2.86c-1.1.73-2.17,1.49-3.27,2.19l-.25.15L70,147.09c.25-.34-.31-.68-.56-.34l-4.05,5.49a.25.25,0,0,0-.06.21,16.51,16.51,0,0,1-2.17,1l4.31-5.48c.26-.33-.3-.67-.56-.34l-4.42,5.62a.26.26,0,0,0,.06.4,14.86,14.86,0,0,1-5.61.63l3.45-4.48c.26-.34-.3-.68-.56-.35q-1.74,2.28-3.5,4.55a.27.27,0,0,0,0,.22c-.62-.06-1.26-.16-1.9-.28l3-3.66c.26-.32-.19-.8-.46-.47l-3,3.71a.3.3,0,0,0-.06.3l-.67-.15-1.26-.32q1.59-2.12,3.2-4.21c.25-.34-.31-.68-.56-.35l-2.93,3.86c-.22-.28-.46-.54-.69-.81.58-.92,1.15-1.84,1.73-2.75a.33.33,0,0,0-.56-.35l-1.61,2.57c-3.25-3.73-6.89-7.15-10.33-10.7l-8-8.28c9.28.88,18.72.9,28,1.07,9.71.17,19.42.22,29.13.07,19.56-.28,39.12-1.27,58.63-2.86,10.65-.86,21.29-1.93,31.91-3.15a1.54,1.54,0,0,1-.08.19c-2.27,5.23-4.63,10.79-5.85,16.45A.29.29,0,0,0,173.54,144.2Z" transform="translate(-3.13 -28.68)"/><path class="cls-1" d="M174.8,155.79c-2.85,1.47-5.63,3.55-8.87,4-3.44.53-6.19-1.37-8.83-3.29-4.58-3.34-8.8-5.2-14.27-2.49-5.81,2.89-11.93,11.21-19.19,8.29-4.78-1.92-7.35-8-13-7.93-4.61,0-8.06,3.91-11.63,6.27-2.58,1.71-5.31,2.69-8.42,2-2.71-.63-5.15-2.09-7.72-3.14a12.92,12.92,0,0,0-6.78-1.18c-2.78.44-5.08,2.16-7.4,3.61-3.2,2-6.21,2.67-9.78,1.17-3.1-1.31-5.83-3.38-9.06-4.42A11.73,11.73,0,0,0,36.12,164a.18.18,0,0,0,.31.19,11.72,11.72,0,0,1,7.33-5.14c3.53-.74,6.6.63,9.57,2.4,4,2.37,8.26,5,13,3.17,2.35-.92,4.26-2.62,6.4-3.92a9.75,9.75,0,0,1,9.24-.59c4.42,1.73,8.68,4.94,13.67,3.43,4.42-1.33,7.38-5.22,11.46-7.16,6.1-2.9,9.46,2.59,13.85,5.71,11.93,8.48,20.29-13.92,32.26-7,4.73,2.75,8.43,7.23,14.43,5.38,5.48-1.68,12.69-9.41,18.3-3.62.22.23.67-.06.47-.34C183.68,152.77,178.39,154,174.8,155.79Z" transform="translate(-3.13 -28.68)"/><path class="cls-1" d="M143.32,100.35a4.44,4.44,0,0,0-3.54,3.06,4.83,4.83,0,0,0-.63,1.19.32.32,0,0,0,.33.41c0,.22,0,.45,0,.68,0,0,0,0,0,0v0A4.88,4.88,0,0,0,145.2,110a4.81,4.81,0,0,0,3.66-6A5.09,5.09,0,0,0,143.32,100.35Zm1,8.88a.28.28,0,0,0-.16.16,4.33,4.33,0,0,1-4-3.72,5.59,5.59,0,0,1,.23-2,3.57,3.57,0,0,1,5.5-.38A3.65,3.65,0,0,1,144.34,109.23ZM146,109a4.25,4.25,0,0,0,.09-6.42,4.1,4.1,0,0,0-4.7-.54,3.48,3.48,0,0,1,1.43-.89,4.4,4.4,0,0,1,5.14,2.16A4.16,4.16,0,0,1,146,109Z" transform="translate(-3.13 -28.68)"/><path class="cls-1" d="M158.65,75.1a4.88,4.88,0,0,0,5.71,4.17,4.81,4.81,0,0,0,3.65-6,5.09,5.09,0,0,0-5.54-3.56c-2.63.42-4,2.85-3.83,5.35,0,0,0,0,0,0S158.64,75.09,158.65,75.1Zm3.28-4.62a4.41,4.41,0,0,1,5.15,2.16A4.14,4.14,0,0,1,166,77.75a4.12,4.12,0,0,0-6.24-5.36A3.59,3.59,0,0,1,161.93,70.48Zm-2.6,3.46a.3.3,0,0,0,.18-.14,3.52,3.52,0,1,1,5.34,4.3.28.28,0,0,0-.06.36,2.65,2.65,0,0,1-.37.12A4.22,4.22,0,0,1,159.29,75,6.11,6.11,0,0,1,159.33,73.94Z" transform="translate(-3.13 -28.68)"/><path class="cls-1" d="M75.32,91.88l3-2.4c.33-.26-.13-.73-.45-.47l-3,2.39C74.54,91.67,75,92.14,75.32,91.88Z" transform="translate(-3.13 -28.68)"/><path class="cls-1" d="M83.56,91.1l3.67-2.88c.33-.26-.12-.73-.45-.47l-3.67,2.88C82.77,90.89,83.23,91.36,83.56,91.1Z" transform="translate(-3.13 -28.68)"/><path class="cls-1" d="M118.29,89.65a.33.33,0,0,0,0,.66l.09,0a.27.27,0,0,0,.31-.07l2.52-2.4a.33.33,0,0,0-.46-.48c-.8.78-1.61,1.55-2.42,2.32Z" transform="translate(-3.13 -28.68)"/><path class="cls-1" d="M102.44,79.17a.5.5,0,0,0-.16,0,.33.33,0,0,0,0,.66.32.32,0,0,0,.31-.41.34.34,0,0,0,.42,0l1.5-1.11c.34-.25-.12-.72-.45-.48l-1.5,1.12A.25.25,0,0,0,102.44,79.17Z" transform="translate(-3.13 -28.68)"/><path class="cls-1" d="M90,70.85l2-2.59c.26-.34-.3-.68-.56-.35l-2,2.59C89.18,70.84,89.74,71.18,90,70.85Z" transform="translate(-3.13 -28.68)"/><path class="cls-1" d="M63.36,148.46l-3.88,4.83c-.27.33.29.67.56.35,1.29-1.61,2.58-3.23,3.88-4.84C64.18,148.47,63.62,148.13,63.36,148.46Z" transform="translate(-3.13 -28.68)"/><path class="cls-1" d="M162.53,145.44,161,147.7c-.23.35.32.69.56.34l1.53-2.26C163.32,145.43,162.76,145.09,162.53,145.44Z" transform="translate(-3.13 -28.68)"/><path class="cls-1" d="M18.48,111.19l5.45-6.9c.26-.33-.31-.67-.56-.34l-5.45,6.9C17.66,111.18,18.22,111.52,18.48,111.19Z" transform="translate(-3.13 -28.68)"/><path class="cls-1" d="M84.49,109.4l3.39-4.84c.24-.35-.32-.69-.56-.35l-3.39,4.85C83.69,109.41,84.25,109.75,84.49,109.4Z" transform="translate(-3.13 -28.68)"/><path class="cls-1" d="M87,108.51l3.51-4.42c.26-.33-.3-.67-.56-.34l-3.51,4.42C86.2,108.5,86.77,108.84,87,108.51Z" transform="translate(-3.13 -28.68)"/><path class="cls-1" d="M91.68,109.88c1.13-1.67,2.27-3.33,3.41-5,.24-.35-.32-.69-.56-.34l-3.41,5C90.88,109.88,91.44,110.22,91.68,109.88Z" transform="translate(-3.13 -28.68)"/><path class="cls-1" d="M95.71,112.75l3.37-4.36c.26-.33-.3-.67-.56-.34l-3.37,4.35C94.89,112.74,95.45,113.08,95.71,112.75Z" transform="translate(-3.13 -28.68)"/><path class="cls-1" d="M131.57,117.52c.56-.87,1.13-1.73,1.69-2.59.24-.36-.32-.7-.56-.35-.56.87-1.13,1.73-1.69,2.59C130.77,117.52,131.33,117.87,131.57,117.52Z" transform="translate(-3.13 -28.68)"/><path class="cls-1" d="M153.62,109l-1.71,3.41c-.19.38.37.72.56.34l1.71-3.41C154.37,108.93,153.81,108.58,153.62,109Z" transform="translate(-3.13 -28.68)"/><path class="cls-1" d="M164.84,109.25l-2,2.47c-.26.34.3.68.56.35l2-2.48C165.66,109.26,165.1,108.92,164.84,109.25Z" transform="translate(-3.13 -28.68)"/><path class="cls-1" d="M151.45,81.9l1.5-2.61c.21-.37-.35-.71-.56-.35l-1.5,2.61C150.68,81.92,151.24,82.27,151.45,81.9Z" transform="translate(-3.13 -28.68)"/><path class="cls-1" d="M171.39,66.37l2.21-3.22c.24-.35-.32-.69-.56-.35-.73,1.08-1.47,2.15-2.21,3.23C170.59,66.38,171.15,66.72,171.39,66.37Z" transform="translate(-3.13 -28.68)"/><path class="cls-1" d="M17.29,113.22c-.29-.3-.77.15-.48.45l9.74,10.27a.33.33,0,0,0,.47-.45Q22.16,118.36,17.29,113.22Z" transform="translate(-3.13 -28.68)"/><path class="cls-1" d="M37.41,133.79c-.28-.32-.76.14-.47.45Q43,140.92,49.13,147.6c.28.31.76-.14.47-.45Q43.51,140.46,37.41,133.79Z" transform="translate(-3.13 -28.68)"/><path class="cls-1" d="M176.31,130l-4.83,12c-.16.4.47.58.63.19l4.83-12C177.1,129.82,176.47,129.63,176.31,130Z" transform="translate(-3.13 -28.68)"/><path class="cls-1" d="M182.21,120.86l3.09-7.16c.17-.38-.46-.57-.63-.18l-3.09,7.15C181.41,121.06,182,121.25,182.21,120.86Z" transform="translate(-3.13 -28.68)"/></g></svg>