<?xml version="1.0" encoding="utf-8"?>
<!-- Generator: Adobe Illustrator 23.0.6, SVG Export Plug-In . SVG Version: 6.00 Build 0)  -->
<svg version="1.1" id="Layer_1" xmlns="http://www.w3.org/2000/svg" xmlns:xlink="http://www.w3.org/1999/xlink" x="0px" y="0px"
	 viewBox="0 0 190.6 78.7" style="enable-background:new 0 0 190.6 78.7;" xml:space="preserve">
<style type="text/css">
	.st0{fill:#FFFCFC;}
</style>
<title>3</title>
<g id="_11">
	<path class="st0" d="M190.4,32.2c0,0,0.1-0.1,0.1-0.2c0.4-1.8-1.2-2.6-2.5-3.4l-1.7-1.1c-3.7-2.8-7.6-5.6-11.5-8.1
		c-4.7-3.2-10.1-5.3-15.8-6.1c-5.5-0.5-11-0.2-16.3,0.9c-2.3,0.4-4.6,1-6.9,1.6c-2.8-2.3-5.7-4.5-8.7-6.5c-3.3-2.4-6.7-4.5-10.3-6.5
		c-5.3-2.7-12.3-4.3-17.5-0.5c-0.1,0-0.1,0.1-0.1,0.2h-0.1C99,2.4,98.8,2.8,99,3l1.5,1.2c2.9,2.9,6,5.6,9,8.4c3.2,3,6.5,6,9.7,9
		c-3.7,1.4-7.5,2.9-11.2,4.2c-11.1,3.9-24.7,7.8-35.9,2.2c-5.6-2.8-8.7-8.2-13.7-11.8c-2.4-1.7-5.2-2.6-8.1-2.7c-0.2,0-0.5,0-0.7,0
		c-2.1,0.1-4.3,0.6-6.2,1.7c-0.2,0.1-0.1,0.5,0.1,0.5c0,0.2,0.1,0.3,0.2,0.5c0.1,0.1,0.1,0.2,0.3,0.2l0,0c0.5,1.1,1.1,2.1,1.7,3.1
		c0,0.1,0,0.1,0.1,0.2l0.8,1.4c-0.1,0.1,0,0.3,0.2,0.4c0,0,0,0,0.1,0c0.6,1.1,1.3,2.2,1.9,3.3c0,0.2,0.1,0.3,0.2,0.3
		c1.3,2.1,2.5,4.2,3.8,6.3c2.8,4.7,5.4,9.5,8.4,14.1c0.2,0.7,0.6,1.4,1,1.9c-2.8,2.6-5.6,5.2-8.3,7.8c-0.2,0.2-0.2,0.4-0.1,0.7
		c-0.1,0.1-0.2,0.3-0.1,0.4c0,0,0,0,0,0c1.5,1.7,3.7,1.4,5.6,1c2.8-0.6,5.5-1.3,8.3-1.9c2.3,2.3,7.6,1.6,10.3,1.4
		c4.1-0.2,9-0.5,13-2.1c-7.1,6.5-14,13.1-21.3,19.3c-0.2,0.2-0.2,0.6,0,0.8c0.1,0.1,0.1,0.1,0.2,0.1c-0.1,0.1-0.1,0.2,0,0.3
		c0,0,0,0,0,0c5,4,12.8,2.6,18.5,1c3-0.9,6-2.2,8.7-3.8c2.6-1.4,5.1-3.2,7.1-5.4c0.1,0.6,0.3,1.2,0.7,1.7c1.9,2.4,5.5,1,7.1-1
		c0.6-0.7,0.9-1.6,1.1-2.6c0.4-1,0.4-2.1,0.1-3.1c0.1,0.1,0.2,0.2,0.3,0.3c0,0.2,0.2,0.4,0.4,0.3c0.2,0.1,0.4,0.2,0.6,0.2
		c0,0.2,0.2,0.3,0.3,0.3c0.1,0,0.1,0,0.2-0.1l0.1-0.1c1.4,0,2.7-0.7,3.6-1.7c1.4-1.7,2.6-4.7,0.7-6.5l-0.2-0.2
		c0.2-0.3,0.2-0.8,0-1.1c0.5-0.5,1-0.9,1.5-1.4c7.5-1.7,15.1-3.3,22.7-4.8c0,0,0.1,0,0.1,0c5.1-1,10.2-2.1,15.2-3.1
		c0.1,0,0.2,0,0.3-0.1l3.7-0.8c3.7-0.8,7.4-1.6,11.2-2.4c3.2-0.5,6.4-1.3,9.5-2.3c2.1-0.7,4-1.9,5.6-3.4l0,0c0.2,0,0.3-0.1,0.4-0.2
		c0.4-0.5,0.7-1.1,0.8-1.8l0,0C190.3,33,190.4,32.6,190.4,32.2z M178.8,23.5c-5.4,1.3-11.1-0.2-15.2-3.9l5.3-2.3
		C172.3,19.1,175.7,21.2,178.8,23.5z M99.7,2.5c6.4-3.6,13.2-1,19,2.6c5.5,3.4,10.5,7.4,15.8,11.1c-3.6,1-7,2.3-10.5,3.6
		c0-0.2-0.1-0.3-0.3-0.3c0,0-0.1,0-0.1,0l-0.2,0.1c0,0-0.1,0-0.1,0.1l-0.1-0.1l5.9-2.3c0.3-0.1,0.2-0.7-0.2-0.5l-6.3,2.5l-0.6-0.4
		l4.6-1.8c0.3-0.1,0.2-0.7-0.1-0.5l-5,1.9l-0.5-0.4l3.7-1.4c0.3-0.1,0.2-0.7-0.2-0.5l-4,1.6l0,0l-0.7-0.5l3.1-1.4
		c0.3-0.1,0.2-0.7-0.1-0.5l-3.5,1.5l-0.9-0.7l2.9-1.3c0.3-0.1,0.2-0.7-0.2-0.5l-3.3,1.4l-0.4-0.3l2.4-1c0.3-0.1,0.2-0.7-0.2-0.5
		l-2.4,1c0,0-0.1-0.1-0.1-0.1l0,0c-0.1-0.1-0.2-0.2-0.4-0.1c0,0-0.1,0.1-0.1,0.1l0,0l-4.7-3.3c-3.7-2.7-7.3-5.5-11.1-8L99.7,2.5z
		 M122.2,20.4l-1,0.4c-0.2-0.5-0.3-1-0.4-1.4l0.7,0.5c0,0.2,0.1,0.4,0.3,0.3h0.1L122.2,20.4z M110,11.9c-0.9-0.8-1.8-1.7-2.8-2.6
		c1.4,1,2.7,2,4.1,3l4.8,3.6c0,0.6,0.2,1.2,0.6,1.7c0.2,0.3,0.6-0.1,0.4-0.4c-0.2-0.3-0.3-0.6-0.4-0.9l0.7,0.5
		c0.1,0.8,0.3,1.5,0.4,2.2C115.2,16.7,112.7,14.3,110,11.9z M118.3,19.6c0.1-0.1,0.1-0.2,0.1-0.3l-0.3-1.9l0.6,0.4v0.1
		c0.3,0.8,0.5,1.7,0.7,2.5c0.1,0.1,0.2,0.2,0.4,0.1c0.1-0.1,0.2-0.2,0.2-0.3c-0.2-0.6-0.4-1.3-0.6-1.9l0.6,0.4l0,0
		c0.2,0.7,0.4,1.4,0.6,2.2l-0.6,0.2L118.3,19.6z M59.1,18.5c3.6,3.2,6.3,7.1,10.5,9.6c8.7,5.3,19.7,4.3,29.2,1.8
		c8.4-2.2,16.5-5.6,24.6-8.7l0,0c0.2,0.1,0.6,0.1,0.7-0.2c0,0,0-0.1,0-0.1c2.3-0.9,4.6-1.7,6.9-2.4c10.3-3.4,22.1-6.2,32.7-3.1
		c1.5,0.4,3,1,4.4,1.6c-1.7,0.8-3.4,1.5-5.2,2.3c-0.1,0-0.2,0.2-0.2,0.4c0,0,0,0.1,0.1,0.1c4.4,4.1,10.6,5.7,16.5,4.2l0.1,0.1l1,0.7
		l-5.6,1.1c-0.1-0.1-0.3-0.1-0.4,0l-0.1,0.1c-9.5,1.9-19,3.9-28.6,5.4c-22,3.6-44.1,5.8-66.4,6.7c-3.9,0.2-7.4,0.3-10.9-1.7
		c-2.8-1.7-5.3-3.8-7.5-6.3c-2.4-2.7-4.6-5.6-6.5-8.7c-1.3-2.2-2.4-4.5-3.7-6.7C54,15,56.9,16.4,59.1,18.5z M61.2,56.3
		c-2.1,0.5-5,1.6-6.8,0c4.2,0,8.4-0.7,12.4-1.8c0.1,0.2,0.2,0.4,0.3,0.5L61.2,56.3z M67.6,54.2c0.8-0.3,1.6-0.6,2.4-1
		c0.5-0.3,1.1-0.6,1.6-0.9L68.9,55C68.4,54.8,68,54.5,67.6,54.2L67.6,54.2z M70.7,75.3h0.2l0,0H70.7z M104.2,66.3
		c-0.4,0.2-0.7,0.5-1,0.8c0.2-0.3,0.4-0.6,0.6-0.9s-0.2-0.4-0.3-0.2c-0.7,0.6-1.2,1.3-1.7,2.1c0,0,0,0.1,0,0.1l-0.4,0.3l0.5-0.6
		c0.2-0.2-0.1-0.5-0.3-0.3c-0.4,0.4-0.8,0.9-1.1,1.3c-0.1,0.1,0,0.2,0,0.2c0,0,0,0,0,0c-0.9,0.7-1.8,1.4-2.8,2
		c-2.6,1.6-5.4,2.9-8.4,3.9C83.7,77,77.1,78,71.4,75.6l0.2-0.2c12.8,2.2,23.6-3.1,33.3-10.8C104.6,65.1,104.3,65.7,104.2,66.3
		L104.2,66.3z M110.7,67.9c-0.5,0.5-1.1,0.8-1.7,1l1.2-1.5c0.2-0.3-0.2-0.7-0.4-0.4l-1.7,2.1h-0.5l2.6-2.9c0.2-0.3-0.2-0.7-0.4-0.4
		l-2.9,3.2c-0.3-0.1-0.5-0.2-0.8-0.3c1.1-1.3,2.3-2.6,3.4-3.8c0.2-0.3-0.2-0.7-0.4-0.4c-1.1,1.3-2.3,2.6-3.4,3.9
		c-0.1-0.2-0.3-0.3-0.4-0.5l3.1-4.1c0.2-0.3-0.2-0.7-0.4-0.4c-1,1.3-2,2.6-2.9,3.9c-0.1-0.3-0.1-0.6-0.1-0.9l2.7-2.9
		c0.3-0.3-0.2-0.7-0.4-0.4l-2.1,2.3c0.2-0.5,0.4-0.9,0.7-1.3c0.2,0,0.3-0.1,0.4-0.2c0-0.1,0.1-0.3,0.1-0.4l0.3-0.3
		c0.6-0.5,1.3-1.1,1.9-1.6c1.2-0.3,2.4,0.2,3,1.3C112.7,64.4,112.3,66.7,110.7,67.9L110.7,67.9z M109.7,60.5L109.7,60.5L109.7,60.5z
		 M110.9,59.4l0.5-0.4l-0.1,0.3c-0.1,0.1-0.2,0.2-0.2,0.3L110.9,59.4z M111.8,61.6c-0.1-0.1-0.2-0.2-0.3-0.2h0.1l0,0l0,0
		C111.7,61.4,111.8,61.5,111.8,61.6L111.8,61.6z M112.6,57.8l0.2-0.2l-0.1,0.3C112.7,57.9,112.7,57.9,112.6,57.8L112.6,57.8z
		 M118,60.8c-0.4,0.5-0.9,0.9-1.5,1.1l0.6-0.5c0.3-0.2-0.1-0.6-0.4-0.4l-1.4,1.2c-0.3,0-0.6,0-0.9-0.1l2.5-3.1
		c0.2-0.3-0.2-0.7-0.4-0.4l-2.6,3.3c-0.2-0.2-0.4-0.4-0.6-0.6c0,0,0.1,0,0.1-0.1l3-3.5c0.2-0.3-0.2-0.7-0.4-0.4l-2.9,3.4
		c0,0,0-0.1,0-0.1c-0.1-0.4-0.2-0.8-0.1-1.2c0.1,0.1,0.2,0.1,0.3,0.1c0,0,0,0,0.1-0.1c0.6-0.7,1.3-1.5,1.9-2.2
		c0.1,0,0.2-0.1,0.1-0.2l0,0c0.2-0.3-0.2-0.7-0.4-0.4l-2,2.3c0.2-0.7,0.4-1.4,0.9-2c1.2-0.8,2.5-2.2,4.2-1.7
		C120.6,56,119.2,59.4,118,60.8L118,60.8z M118.4,53.2h-0.1c-0.1,0-0.1,0-0.2,0c-0.1,0-0.3,0.1-0.4,0.2l0,0c-0.1,0-0.1,0-0.2,0.1
		c0,0,0,0.1,0,0.1l0,0c0,0.1,0,0.1,0,0.2c-0.1,0.1-0.2,0.2-0.3,0.4c-0.3,0-0.6,0.1-0.9,0.2l1.5-1.4l0,0l1-0.2L118.4,53.2z M118.7,54
		c0,0.1,0,0.2,0,0.3c0,0,0,0.1-0.1,0.1c-0.1-0.1-0.2-0.1-0.3-0.1C118.5,54.2,118.7,54.1,118.7,54L118.7,54z M188.5,34.3
		c-0.1,0.1-0.1,0.2-0.1,0.3l0,0c-0.7,0.8-1.6,1.4-2.6,1.9c-0.1,0-0.2,0-0.3,0.1c-0.4,0.2-0.8,0.4-1.2,0.6l3.7-4.9
		c0.2-0.3-0.2-0.7-0.4-0.4l-4.3,5.6c-0.9,0.3-1.9,0.6-2.7,0.8l5.8-7.1c0.2-0.3-0.2-0.7-0.4-0.4c-2.1,2.5-4.2,5.1-6.3,7.7l0,0
		l-1.2,0.3l-1.2,0.3l3.6-5.2c0.2-0.3-0.3-0.6-0.5-0.3l-3.9,5.7l-2.9,0.6l3.6-4.4c0.2-0.3-0.2-0.7-0.4-0.4c-1.4,1.7-2.7,3.3-4.1,4.9
		l-2.7,0.6l3.2-3.8c0.2-0.3-0.2-0.7-0.4-0.4l-3.8,4.4l-1.4,0.3l2.9-4.1c0.2-0.3-0.3-0.6-0.5-0.3l-3.2,4.6l-1.9,0.4
		c0.6-1,1.3-2,2-2.9c0.2-0.3-0.3-0.6-0.5-0.3l-2.3,3.4l-1.9,0.4l3.2-5.2c0.2-0.3-0.3-0.6-0.5-0.3l-3.5,5.6l-1.5,0.3l3.6-5.3
		c0.2-0.3-0.3-0.6-0.5-0.3l-3.9,5.8l-1.1,0.2h-0.3l2.1-3.4c0.2-0.3-0.3-0.6-0.5-0.3l-2.3,3.9l-1.9,0.4l4.9-6.5
		c0.2-0.3-0.2-0.7-0.4-0.4l-5.3,7.1l-1.9,0.4l3.5-4c0.2-0.3-0.2-0.7-0.4-0.4c-1.3,1.4-2.5,2.8-3.7,4.3c-0.1,0.1-0.1,0.2-0.1,0.3
		l-1.7,0.3l3.6-5.2c0.2-0.3-0.3-0.6-0.5-0.3l-3.6,5.3c-0.1,0.1-0.1,0.2,0,0.3l-2.6,0.5c1.3-1.7,2.7-3.4,4-5c0.2-0.3-0.2-0.7-0.4-0.4
		l-4.4,5.6l-1.5,0.3l4.9-6.1c0.2-0.3-0.2-0.7-0.4-0.4c-1.8,2.2-3.6,4.4-5.3,6.6l-2.5,0.5l4.9-5.5c0.2-0.3-0.2-0.7-0.4-0.4l-5.4,6.1
		c-1.7,0.3-3.4,0.7-5.1,1l5-6.2c0.2-0.3-0.2-0.7-0.4-0.4l-5.3,6.6c0,0.1-0.1,0.1-0.1,0.2l-1.7,0.4l4.2-6.1c0.2-0.3-0.3-0.6-0.5-0.3
		l-4.5,6.5l-1.8,0.4l4.9-6c0.2-0.3-0.2-0.7-0.4-0.4c-1.7,2.1-3.5,4.3-5.2,6.4c0,0-0.1,0.1-0.1,0.2l-1.5,0.3c1.5-1.9,3-3.9,4.6-5.8
		c0.2-0.3-0.2-0.7-0.4-0.4c-1.7,2.1-3.4,4.3-5,6.4l-2.1,0.5l5.7-7.3c0.2-0.3-0.2-0.7-0.4-0.4l-6.1,7.8l-2.2,0.5l0.3-0.3
		c1.4-1.3,2.8-2.8,3.9-4.4c0.1-0.2,0-0.4-0.1-0.5c-0.1-0.1-0.2,0-0.3,0c-1.5,1.2-2.9,2.6-4.2,4.1c-0.4,0.5-0.9,1-1.4,1.4l-0.9,0.2
		c4.1-4.1,8-8.1,11.9-11.5c0.5-0.5-0.3-1.3-0.8-0.8C122.6,46,115.8,54,108,60.7c-0.9,0.3-1.7,0.9-2.1,1.7c-0.8,0.6-1.5,1.2-2.3,1.8
		l1.6-1.7c0.2-0.3-0.2-0.7-0.4-0.4c-1.2,1.3-2.3,2.5-3.5,3.8c-0.8,0.6-1.7,1.1-2.5,1.7l3.8-3.8c0.3-0.3-0.2-0.6-0.4-0.4l-5.4,5.4
		c-0.4,0.2-0.8,0.5-1.2,0.7l4.3-4.6c0.2-0.3-0.2-0.7-0.4-0.4l-5.3,5.8c-0.6,0.3-1.3,0.6-1.9,0.9l4.1-4.6c0.2-0.3-0.2-0.7-0.4-0.4
		L91,71.7c-0.6,0.3-1.3,0.5-2,0.8l3.5-3.8c0.3-0.3-0.2-0.6-0.4-0.4l-4.2,4.6c-0.7,0.2-1.4,0.4-2.1,0.6c1-1.1,2-2.1,3-3.2
		c0.1-0.1,0.1-0.3,0-0.4c-0.1-0.1-0.3-0.1-0.4,0L85,73.4c-0.1,0.1-0.1,0.1-0.1,0.2c-0.7,0.2-1.4,0.3-2.1,0.5l3.3-4.2
		c0.2-0.3-0.2-0.7-0.4-0.4l-3.6,4.5c0,0.1-0.1,0.1-0.1,0.2c-0.7,0.1-1.5,0.2-2.2,0.3l3.1-3.3c0.1-0.1,0.1-0.3,0-0.4
		c-0.1-0.1-0.3-0.1-0.4,0l-3.5,3.8c-0.6,0-1.1,0.1-1.7,0.1l3-3c0.3-0.3-0.1-0.6-0.4-0.4l-3.3,3.3h-1.5l3.4-3.2
		c0.3-0.2-0.1-0.6-0.4-0.4l-3.8,3.6c-0.6,0-1.2-0.1-1.8-0.2l2-1.9c0.3-0.2-0.1-0.6-0.4-0.4l-2.3,2.2l-0.7-0.1
		c12.7-11.1,25-22.7,37.4-34.1c0.3-0.3-0.1-0.7-0.4-0.4c-5.4,4.4-10.6,9-15.7,13.8c-0.1-0.1-0.1-0.1-0.2-0.2l4.4-5.1
		c0.2-0.3-0.2-0.7-0.4-0.4l-4.8,5.5c-0.8,0.2-1.5,0.3-2.3,0.6l6-6.9c0.2-0.3-0.2-0.7-0.4-0.4c-2.2,2.5-4.4,5.1-6.6,7.6
		c-0.7,0.2-1.4,0.4-2.1,0.5l5.6-6.7c0.2-0.3-0.2-0.7-0.4-0.4l-6,7.2l0,0c-0.9,0.2-1.7,0.3-2.6,0.4l5.8-7.3c0.2-0.3-0.2-0.7-0.4-0.4
		l-6.2,7.7c-0.7,0.1-1.3,0.1-2,0.2l4.3-5.5c0.2-0.3-0.2-0.7-0.4-0.4l-4.7,6l-1.9,0.2l5.2-6c0.2-0.3-0.2-0.7-0.4-0.4l-5.6,6.4
		l-1.8,0.1l4.8-4.8c0.1-0.1,0.1-0.3,0-0.4c-0.1-0.1-0.3-0.1-0.4,0l-5.2,5.2H73c-0.5,0-0.9,0-1.4-0.1l6-6.3c0.1-0.1,0.1-0.3,0-0.4
		c-0.1-0.1-0.3-0.1-0.4,0L71,55.7c-0.5-0.1-1-0.3-1.5-0.5l3.4-3.4c0.1-0.1,0.1-0.2,0-0.3c3.2-2.1,5.8-4.9,7.9-8.1
		c0.4-0.7-0.7-1.3-1.1-0.6c-2.5,4-6.1,7.2-10.3,9.3c-0.2,0.1-0.5,0.2-0.7,0.3l1.6-2.3c0.2-0.3-0.3-0.6-0.5-0.3l-2.1,3
		c-0.7,0.3-1.4,0.5-2.2,0.7l1.7-2c0.2-0.3-0.2-0.7-0.4-0.4l-2.2,2.7c-0.7,0.2-1.4,0.3-2.1,0.4l2.5-2.5c0.3-0.3-0.2-0.7-0.4-0.4
		l-3,3.1c-0.6,0.1-1.2,0.2-1.8,0.2l3-2.9c0.3-0.3-0.2-0.6-0.4-0.4l-3.4,3.3L58,54.8l2.4-2.2c0.3-0.3-0.1-0.6-0.4-0.4l-3,2.7L56.1,55
		c4.2-4,8.4-8,12.4-12.2c0.3-0.3-0.2-0.7-0.5-0.5c-1.6,1.4-3.2,2.8-4.8,4.2c-0.1-0.3-0.3-0.6-0.4-0.9c-0.3-0.6-0.5-1.1-0.8-1.7
		c0,0-0.1-0.1-0.1-0.1c-0.7-1.3-1.5-2.6-2.3-4c0.1,0.1,0.2,0.1,0.3,0l3.7-2c0.3-0.2,0-0.7-0.3-0.5l-3.7,2c-0.1,0-0.1,0.1-0.1,0.2
		l-0.7-1.1l2.4-1.4c0.3-0.2,0-0.7-0.3-0.5l-2.4,1.4L57.7,37l2.2-1.3c0.1-0.1,0.2-0.3,0.1-0.4s-0.3-0.2-0.4-0.1l0,0l-2.3,1.4
		c-0.2-0.3-0.4-0.7-0.6-1l2.4-1.6c0.3-0.2,0-0.7-0.3-0.5L56.4,35l-0.9-1.4l0,0l3.3-1.7c0.3-0.2,0-0.6-0.3-0.5l-3.3,1.7l0,0l-0.6-1
		l2.4-1.4c0.3-0.2,0-0.7-0.3-0.5l-2.4,1.4c-0.2-0.3-0.3-0.6-0.5-0.8l-0.2-0.3l2.4-1.4c0.3-0.2,0-0.7-0.3-0.5L53.4,30l-0.7-1.1l2-1.3
		c0.3-0.2,0-0.7-0.3-0.5l-2,1.3l-0.6-1l2.2-1.3c0.1-0.1,0.2-0.3,0.1-0.4s-0.3-0.2-0.4-0.1l0,0l-2.2,1.3c-0.3-0.4-0.5-0.8-0.7-1.3
		l2-1.2c0.1-0.1,0.2-0.3,0.1-0.4s-0.3-0.2-0.4-0.1l-2,1.2c-0.1-0.3-0.3-0.5-0.4-0.8l1.1-0.8c0.3-0.2,0-0.7-0.3-0.5l-1.1,0.8
		c-0.3-0.5-0.6-1.1-1-1.6l2.4-1.4c0.3-0.2,0-0.7-0.3-0.5l-2.4,1.4l-0.6-1.1l2-1.3c0.3-0.2,0-0.7-0.3-0.5l-2,1.3
		c-0.2-0.4-0.5-0.8-0.7-1.2l2.6-1.6c0.3-0.2,0-0.7-0.3-0.5l-2.6,1.7c-0.2-0.3-0.4-0.7-0.7-1l1.7-1.2c0.3-0.2,0-0.7-0.3-0.5l-1.7,1.2
		l-0.4-0.6c0.3-0.1,0.5-0.2,0.8-0.4c0.2-0.1,0-0.4-0.2-0.4c-0.3,0.1-0.6,0.2-0.9,0.3c-0.1-0.1-0.1-0.2-0.2-0.3
		c-0.1-0.1-0.2-0.2-0.3-0.2c-0.1-0.1-0.2-0.1-0.3-0.1l0,0c1.8-0.7,3.8-1,5.8-0.9c2.1,4.8,4.8,9.2,8.1,13.3
		c3.3,4.1,7.2,8.4,12.2,10.3c2.9,1.1,5.7,0.9,8.7,0.8c3.3-0.1,6.6-0.3,9.9-0.5c6.4-0.3,12.7-0.8,19.1-1.4
		c17.7-1.6,35.2-4.1,52.7-7.5l-1.9,1.7c-0.3,0.3,0.1,0.6,0.4,0.4l2.6-2.3h0.2c-0.6,0.8-1.2,1.7-1.8,2.6c-0.2,0.3,0.3,0.6,0.5,0.3
		l2.1-3l1.7-0.3l0.7-0.1c-1,1-1.9,2-2.9,3c-0.3,0.3,0.1,0.6,0.4,0.4l3.5-3.6c0.3-0.1,0.7-0.1,1-0.2l-2.2,2.4
		c-0.3,0.3,0.2,0.7,0.4,0.4l2.3-2.6c0.1-0.1,0.1-0.3,0-0.4l2.4-0.5l-3.9,4.3c-0.2,0.3,0.2,0.7,0.4,0.4l4.3-4.7c0,0,0.1-0.1,0.1-0.2
		l2.4-0.5c-1.4,1.4-2.9,2.9-4.3,4.3c-0.3,0.3,0.1,0.6,0.4,0.4c1.6-1.7,3.3-3.3,4.9-4.9l2-0.5l-3.4,4.1c-0.2,0.3,0.2,0.7,0.4,0.4
		c1.2-1.4,2.4-2.9,3.6-4.3c0.1-0.1,0.1-0.2,0-0.3l2.8-0.7l0,0l-2.4,2.9c-0.2,0.3,0.2,0.7,0.4,0.4l2.4-2.9c0.1-0.1,0.1-0.3,0-0.4
		c0,0,0,0-0.1,0l1-0.3c0,0,0.1,0,0.1,0c1.6,1.1,3.1,2.2,4.6,3.3C187.5,29.7,190.4,32,188.5,34.3L188.5,34.3z M189,29.9
		c0.3,0.3,0.6,0.6,0.8,0.9l0,0c0,0.1,0,0.1,0,0.2C189.5,30.6,189.3,30.2,189,29.9L189,29.9z"/>
	<path class="st0" d="M100.9,35.3L100.9,35.3L100.9,35.3c0.7-1.1,0.4-2.6-0.6-3.3c-0.1-0.1-0.2-0.1-0.4-0.2c-1.2-0.5-2.5,0-3.2,1.1
		C95.6,35.3,99.3,37.3,100.9,35.3z M99.5,32.2c0.9,0.2,1.5,1.2,1.3,2.1c0,0.2-0.1,0.3-0.2,0.5c0.2-0.7-0.1-1.5-0.6-2
		c-0.4-0.4-1-0.6-1.6-0.6C98.7,32.2,99.1,32.1,99.5,32.2z M99.9,35c-0.2-1-1-1.8-2.1-2.1c0.8-0.3,1.7,0.1,2.1,0.9
		C100.1,34.2,100.1,34.6,99.9,35z M97.2,33.3C97.2,33.3,97.3,33.3,97.2,33.3c0.6,0.1,1.1,0.3,1.5,0.7c0.3,0.4,0.6,0.8,0.8,1.3
		c0,0.1,0.1,0.1,0.2,0.1c0,0,0,0,0,0.1c-1,0.4-2.1-0.2-2.4-1.2c-0.1-0.3-0.1-0.6-0.1-0.9C97.2,33.4,97.2,33.3,97.2,33.3z"/>
	<path class="st0" d="M109.3,34.1L109.3,34.1L109.3,34.1c0.7-1.1,0.4-2.6-0.6-3.3c-0.1-0.1-0.2-0.1-0.4-0.2c-1.2-0.5-2.5,0-3.2,1.1
		C103.9,34,107.7,36.1,109.3,34.1z M107.8,31c1,0.2,1.5,1.2,1.3,2.2c-0.1,0.2-0.1,0.4-0.3,0.6c-0.1,0.1-0.3,0.3-0.4,0.3
		c0.3-0.7-0.3-1.7-0.9-2.1c-0.6-0.4-1.3-0.4-1.9-0.2C106.1,31.1,106.9,30.7,107.8,31z M107.2,32.5c0.6,0.4,0.6,1,0.8,1.6
		c0,0.1,0.1,0.1,0.1,0.1c-1,0.3-2.2-0.2-2.5-1.3c0-0.1-0.1-0.3-0.1-0.4C106,32.2,106.6,32.2,107.2,32.5z"/>
	<path class="st0" d="M126.6,28.7c-0.8-1-2.3-1.2-3.3-0.4c-0.1,0.1-0.1,0.1-0.2,0.2c-0.8,0.9-1,2.2-0.3,3.3c0.5,0.7,1.4,1,2.3,0.8
		c0.1,0.1,0.2,0.1,0.3,0c0.1-0.1,0.2-0.2,0.3-0.3C126.8,31.5,127.3,30,126.6,28.7C126.7,28.8,126.7,28.8,126.6,28.7
		C126.6,28.8,126.6,28.7,126.6,28.7z M125,31.9c-0.6,0.3-1.3,0.1-1.8-0.4c-0.4-0.6-0.5-1.4-0.2-2c0,0,0,0,0.1,0
		c0.7-0.1,1.5,0.2,1.9,0.8c0.2,0.3,0.2,0.7,0.2,1C125.2,31.5,125.1,31.7,125,31.9z M125.9,31.2c0-0.5-0.1-1-0.3-1.4
		c-0.5-0.7-1.3-1.1-2.1-1c0.7-0.7,1.9-0.7,2.6,0c0.1,0.1,0.1,0.1,0.2,0.2C126.6,29.8,126.5,30.7,125.9,31.2z"/>
	<path class="st0" d="M134.2,27.5c-0.8-1-2.3-1.2-3.3-0.4c-0.1,0.1-0.1,0.1-0.2,0.2c-0.9,0.9-1,2.2-0.3,3.3c0.4,0.6,1.1,0.9,1.9,0.8
		c0,0.1,0.1,0.2,0.3,0.2c0,0,0,0,0.1,0c0.1-0.1,0.3-0.2,0.4-0.3c1.3-0.5,2-2,1.5-3.3c0-0.1-0.1-0.2-0.1-0.3
		C134.2,27.6,134.2,27.5,134.2,27.5z M132.5,30.7c-0.6,0.2-1.2,0-1.6-0.5c-0.5-0.7-0.5-1.6,0-2.3l0,0c0.7,0,1.4,0.4,1.8,1
		C132.8,29.5,132.8,30.2,132.5,30.7L132.5,30.7z M133.4,30.2c0.1-0.5,0-1-0.2-1.5c-0.4-0.7-1.1-1.2-1.9-1.2c0.8-0.6,1.9-0.4,2.5,0.4
		C134.2,28.7,134,29.6,133.4,30.2L133.4,30.2z"/>
	<path class="st0" d="M142,26.3c-0.8-1-2.3-1.2-3.3-0.4c-0.1,0.1-0.1,0.1-0.2,0.2c-0.1,0.1-0.2,0.2-0.2,0.3c-0.1,0-0.1,0-0.2,0
		c-0.1,0-0.1,0.2-0.1,0.2c0,0,0.1,0.1,0.1,0.1c-0.4,0.8-0.4,1.8,0.1,2.6c0.3,0.4,0.8,0.7,1.3,0.8c0,0,0.1,0,0.1,0
		C141.3,30.3,143.2,28.2,142,26.3C142,26.4,142,26.3,142,26.3z M139.4,29.6c-0.3-0.1-0.6-0.3-0.8-0.5c-0.5-0.6-0.5-1.5-0.1-2.2
		c0.5,0.1,0.9,0.4,1.1,0.9C140,28.3,139.9,29,139.4,29.6z M140.2,29.6c0.3-0.6,0.4-1.4,0.1-2c-0.3-0.6-0.7-1-1.3-1.2
		c0.8-0.6,1.9-0.6,2.5,0.2c0,0,0.1,0.1,0.1,0.1c0.5,1,0.1,2.2-0.9,2.7C140.5,29.5,140.4,29.5,140.2,29.6z"/>
	<path class="st0" d="M150.2,24.7c-0.8-1-2.3-1.2-3.3-0.4c-0.1,0.1-0.1,0.1-0.2,0.2c-0.9,0.9-1,2.2-0.3,3.3c0.5,0.8,1.5,1.1,2.4,0.7
		c0.1,0.1,0.2,0.2,0.3,0.1c0,0,0,0,0,0c0.2-0.1,0.3-0.3,0.4-0.5C150.6,27.3,150.9,25.9,150.2,24.7C150.3,24.8,150.3,24.7,150.2,24.7
		z M149.7,24.9l-1.9-0.4C148.4,24.3,149.2,24.4,149.7,24.9L149.7,24.9z M148.8,27.8c-0.6,0.4-1.4,0.2-1.9-0.4
		c-0.5-0.7-0.5-1.6,0-2.3c0.1-0.2,0.3-0.4,0.5-0.5c0,0.1,0,0.1,0,0.2l0,0c-0.2,0-0.3,0.3-0.1,0.3c0.6,0.2,1.1,0.7,1.4,1.3
		c0.1,0.3,0.2,0.7,0.2,1C148.9,27.6,148.9,27.7,148.8,27.8z M149.6,27.2c0-0.3-0.1-0.7-0.3-1c-0.2-0.4-0.4-0.7-0.8-1l1,0.3
		c0.1,0,0.3-0.1,0.3-0.2c0,0,0,0,0-0.1C150.2,25.9,150.1,26.7,149.6,27.2z"/>
	<path class="st0" d="M155.4,22.9c-0.9,0.9-1,2.2-0.3,3.2c0.5,0.7,1.4,1,2.3,0.8c0,0,0.1,0,0.1,0c0.2-0.1,0.4-0.2,0.6-0.3
		c0.1,0,0.2-0.1,0.2-0.1c0,0,0-0.1,0.1-0.1c0.9-0.7,1.1-2,0.6-3l-0.1-0.1c-0.8-1.1-2.2-1.3-3.3-0.5
		C155.5,22.8,155.4,22.9,155.4,22.9z M155.6,25.9c-0.4-0.5-0.5-1.2-0.3-1.8c0.6,0.1,1.2,0.4,1.5,0.9c0.3,0.4,0.4,0.9,0.3,1.4
		C156.5,26.6,155.9,26.4,155.6,25.9L155.6,25.9z M157.9,26l-0.2,0.1c0-0.5-0.2-1-0.5-1.5c-0.3-0.4-0.8-0.7-1.3-0.9
		c0.8-0.3,1.7,0.1,2,0.9C158.2,25.1,158.1,25.6,157.9,26L157.9,26z M158.5,23.6c0.2,0.4,0.3,0.8,0.2,1.2c-0.1-0.4-0.2-0.8-0.5-1.1
		c-0.6-0.6-1.5-0.8-2.3-0.5C156.7,22.6,157.8,22.7,158.5,23.6C158.5,23.5,158.5,23.6,158.5,23.6L158.5,23.6z"/>
	<path class="st0" d="M142.9,40.9l-4.9,5.9c-0.2,0.3,0.2,0.7,0.4,0.4l4.9-5.9C143.6,41,143.2,40.6,142.9,40.9z"/>
	<path class="st0" d="M187.7,33.6l-0.9,1.1c-0.2,0.3,0.2,0.7,0.4,0.4l0.9-1.1C188.3,33.7,187.9,33.4,187.7,33.6z"/>
	<path class="st0" d="M64.6,38.8l-3.7,2.4c-0.3,0.2,0,0.7,0.3,0.5l3.7-2.4C65.2,39.1,64.9,38.6,64.6,38.8z"/>
	<path class="st0" d="M66.1,40l-3.9,2.5c-0.3,0.2,0,0.7,0.3,0.5l3.9-2.5C66.7,40.3,66.4,39.8,66.1,40z"/>
	<path class="st0" d="M66.5,41.3l-4.1,2.8c-0.3,0.2,0,0.7,0.3,0.5l4.2-2.8C67.1,41.6,66.8,41.1,66.5,41.3z"/>
	<path class="st0" d="M168.6,20.9c0.2,0,0.3-0.1,0.3-0.2c0-0.1,0-0.1,0-0.2c0,0,0.1,0.1,0.1,0.1l-0.8,0.9c-0.1,0.1-0.1,0.3,0,0.4
		c0.1,0.1,0.1,0.1,0.2,0.1c1.1-0.1,2.1,0.1,3.1,0.5c0.3,0.1,0.5-0.4,0.1-0.6c-0.8-0.3-1.7-0.5-2.6-0.5l1-1.1c0.1-0.1,0.1-0.3,0-0.4
		c-0.1-0.1-0.2-0.1-0.3-0.1l-0.8,0.2c-0.1,0-0.2,0.2-0.2,0.3c0,0,0,0,0,0.1c0,0-0.1-0.1-0.1-0.1c-0.2,0-0.3,0.1-0.3,0.2
		C168.3,20.7,168.4,20.9,168.6,20.9z"/>
	<path class="st0" d="M114.4,33.1c0.4,0.5,1,0.9,1.7,0.9c0.1,0.1,0.2,0.1,0.3,0.1c0.1,0,0.1-0.1,0.2-0.2c1.4-0.3,2.2-1.7,1.9-3.1
		c0-0.2-0.1-0.4-0.2-0.6c0,0,0-0.1-0.1-0.1c-0.8-1-2.3-1.2-3.3-0.4c-0.1,0.1-0.1,0.1-0.2,0.2c-0.3,0.3-0.4,0.6-0.6,0.9
		c0,0-0.1,0.1-0.1,0.1C113.8,31.6,113.9,32.4,114.4,33.1z M117,33.1L117,33.1z M117.8,30.5c0.4,0.7,0.3,1.6-0.3,2.1
		c0.4-0.7,0.3-1.7-0.2-2.3c-0.4-0.4-0.9-0.6-1.5-0.5C116.5,29.6,117.3,29.9,117.8,30.5L117.8,30.5z M116.9,30.7
		c0.4,0.4,0.5,1.1,0.1,1.6c0-0.4-0.1-0.7-0.3-1c-0.3-0.5-0.9-0.8-1.4-0.8C115.8,30.2,116.4,30.3,116.9,30.7L116.9,30.7z M116.2,31.7
		c0.2,0.3,0.2,0.7,0.2,1c0,0.2-0.1,0.4-0.3,0.6c-0.5,0-1-0.2-1.3-0.6c-0.4-0.5-0.5-1.2-0.3-1.8C115.2,30.9,115.9,31.2,116.2,31.7z"
		/>
	<path class="st0" d="M120.1,25.6c13-3.1,26.2-5.8,39.1-9.6c0.3-0.1,0.1-0.5-0.1-0.4c-13.1,2.7-26.1,6.3-39,9.7
		C119.8,25.3,119.9,25.7,120.1,25.6z"/>
	<path class="st0" d="M117.1,47.1c-6.3,6.6-13.6,12.2-21.7,16.5c-0.2,0.1,0,0.4,0.2,0.3c8.2-4.1,15.6-9.7,21.8-16.6
		c0.1-0.1,0-0.2,0-0.3C117.3,47,117.2,47,117.1,47.1z"/>
	<path class="st0" d="M101.1,56.3c1.4-1.3,2.8-2.5,4.1-3.8c0.2-0.2-0.1-0.5-0.3-0.3c-1.4,1.2-2.8,2.5-4.2,3.8
		C100.5,56.1,100.9,56.5,101.1,56.3z"/>
	<path class="st0" d="M98.7,3.6c0.2,0.1,0.2-0.2,0.1-0.3c-0.1,0-0.1,0.1-0.1,0.1C98.6,3.5,98.6,3.6,98.7,3.6z"/>
	<path class="st0" d="M77.2,35.3c0.3,0,0.5-0.5,0.1-0.6c-9.1-1.2-16.8-7.4-20-16c-0.1-0.3-0.7-0.2-0.5,0.2
		C60.1,27.8,67.9,34.1,77.2,35.3z"/>
	<path class="st0" d="M74.3,63.9l-30.7,6c-0.4,0.1-0.2,0.6,0.2,0.5l30.7-6C74.8,64.3,74.7,63.8,74.3,63.9z"/>
	<path class="st0" d="M60.7,64.1l-20.8,5.5c-0.3,0.1-0.2,0.6,0.2,0.5l20.8-5.4C61.2,64.5,61,64,60.7,64.1z"/>
	<path class="st0" d="M27.7,65.1l22-3.6c0.4,0,0.2-0.6-0.2-0.5l-22,3.6C27.2,64.6,27.3,65.1,27.7,65.1z"/>
	<path class="st0" d="M33.5,61.6l11.8-1.7c0.4,0,0.3-0.6,0-0.6l-11.8,1.7C33.1,61.1,33.2,61.7,33.5,61.6z"/>
	<path class="st0" d="M20.3,65.4c1-1.3,1.2-3.1,0.6-4.6c-0.4-0.9-1.1-1.6-2-2c0.3-1.9-0.7-3.8-2.6-4.5c-2.3-0.8-4.9-0.2-6.6,1.6
		c-1.9-1.6-4.6-2-6.6-0.1c-1.4,1.4-1.5,3.6-0.3,5.1c-4.1,2-3.8,8.9,0.8,9.7c0,0,0,0,0,0.1c-0.2,3,2.9,5.5,5.8,5.4
		c2.2-0.2,4.1-1.5,4.9-3.6C18.2,73.8,22.5,69,20.3,65.4z M14.6,72c0.2-0.6,0.2-1.2,0.2-1.8c0-0.2-0.4-0.3-0.5,0
		c-0.4,2.5-2.1,5-4.9,5.1s-4.5-2.1-5.3-4.5c0.2,0,0.3,0,0.5,0c0.4,0,0.4-0.5,0.1-0.6c-2-0.7-3.9-2.2-3.9-4.6
		c0.1-1.8,1.1-3.3,2.6-4.1c0.5,0.4,1.2,0.6,1.8,0.5c0.1,0,0.2-0.2,0.2-0.3c0-0.1-0.1-0.2-0.2-0.2c-0.5-0.1-0.9-0.3-1.2-0.6
		c0-0.1-0.2-0.2-0.3-0.3c-1.2-1.2-1.2-3.1,0-4.2c0.2-0.2,0.5-0.4,0.8-0.6c1.6-0.8,3.5-0.6,4.8,0.6c0,0.1,0.1,0.1,0.2,0.1
		c0.5,0.4,0.9,0.8,1.3,1.3c0.2,0.2,0.5,0,0.4-0.2c-0.3-0.5-0.7-1-1.1-1.4c1.6-0.9,3.2-1.9,5.1-1.5c1.9,0.4,3.2,2,3.2,3.9
		c-1.2-0.4-2.5,0-3.1,1.1c-0.1,0.2,0.2,0.4,0.3,0.3c2-1.8,4.8,0.2,4.9,2.6c0.1,1.8-1.2,3-2.7,3.8c-0.3,0.1-0.1,0.5,0.2,0.4
		c0.6-0.1,1.2-0.4,1.7-0.8c0.4,1.6,0.5,3.2-0.7,4.6C17.8,71.8,16.2,72.3,14.6,72z"/>
	<path class="st0" d="M27.3,71.2c0.1,0,0.1,0,0.2-0.1c1-0.9,1.1-2.3,0.3-3.4c-0.8-1-2.2-1.2-3.3-0.5c-0.1,0.1-0.1,0.4,0.1,0.3
		c1-0.5,2.3-0.2,2.8,0.9c0.4,0.8,0.3,1.8-0.3,2.4c0,0,0,0.1,0,0.1c-1.1-0.9-2.7-0.7-3.7,0.3c0,0,0,0-0.1-0.1c-0.1,0-0.2,0-0.2,0.1
		c0,0.1,0,0.2,0.1,0.2l0,0c0,0.1,0.1,0.2,0.2,0.3c0.1,0,0.1,0,0.2-0.1c1.2-1,3.1-0.9,3.7,0.8c0.5,1.6-0.8,2.7-2.2,2.9
		c-0.3,0-0.4,0.5-0.1,0.6c1.5,0.2,2.9-0.8,3.2-2.3c0.1-0.5,0-1-0.2-1.5C27.8,71.7,27.6,71.4,27.3,71.2z"/>
	<path class="st0" d="M22.4,61.9c1.5-1.3,3.3-0.1,3.4,1.7c0,0.1,0.2,0.2,0.3,0.2c0.1,0,0.2-0.1,0.2-0.2c0.5-2.5-2.6-3.7-4.3-2.1
		C21.8,61.8,22.1,62.1,22.4,61.9z"/>
	<path class="st0" d="M25,54.5c7.5-1.1,15-2.7,22.4-4.7c0.3-0.1,0.2-0.5-0.1-0.5c-7.5,1.2-14.9,2.7-22.3,4.8
		C24.7,54.1,24.7,54.5,25,54.5z"/>
	<path class="st0" d="M122.7,10.5c-5.1-4.3-11.5-9.3-18.6-7c-0.3,0.1-0.2,0.7,0.2,0.5c6.9-2.2,13.1,2.7,18.1,6.9
		C122.7,11.2,123,10.7,122.7,10.5z"/>
	<path class="st0" d="M180.7,26.2l-1.3,1.4c-0.2,0.3,0.2,0.7,0.4,0.4l1.3-1.4c0.1-0.1,0.1-0.3,0-0.4
		C180.9,26.1,180.8,26.1,180.7,26.2z"/>
	<path class="st0" d="M181.9,26.7l-0.3,0.3c-0.2,0.3,0.2,0.7,0.4,0.4l0.3-0.3C182.5,26.8,182.1,26.4,181.9,26.7z"/>
	<path class="st0" d="M157.7,30.7c-0.5,0.6-0.9,1.2-1.4,1.8c-0.2,0.3,0.2,0.7,0.4,0.4l1.4-1.8C158.3,30.8,157.9,30.4,157.7,30.7z"/>
	<path class="st0" d="M172.7,20c0,0.2,0,0.3,0,0.5c0,0.1,0.1,0.2,0.2,0.2c0.3,0.8,1.2,1.2,2,0.9c0.3-0.1,0.2-0.7-0.2-0.5
		c-0.6,0.2-1.2-0.1-1.4-0.7c0-0.1-0.1-0.2-0.1-0.3V20C173.2,19.7,172.7,19.7,172.7,20C172.7,20,172.7,20,172.7,20L172.7,20z"/>
	<path class="st0" d="M11.5,59.8c-3.4-0.2-5.1,4.4-1.9,6.1c0.2,0.1,0.5-0.2,0.3-0.4c-2.3-1.7-1.5-5.4,1.6-5.3
		C11.8,60.2,11.8,59.8,11.5,59.8z"/>
	<path class="st0" d="M18.3,74.9c-0.2,0.1,0,0.5,0.2,0.4c0.8-0.3,1.8,0.1,2.1,0.9c0,0,0,0.1,0.1,0.2c0.1,0.9-0.6,1.8-1.5,1.9
		c-0.1,0-0.1,0-0.2,0c-0.1,0-0.2,0.1-0.2,0.3c0,0.1,0.1,0.2,0.2,0.2c1.1,0.2,2.2-0.6,2.4-1.7c0-0.2,0-0.4,0-0.7
		c-0.3-1.1-1.5-1.8-2.6-1.5C18.5,74.8,18.4,74.9,18.3,74.9z"/>
	<path class="st0" d="M49.1,54.6c-0.9-1.1-2.5-1.3-3.6-0.4c-0.2,0.1-0.3,0.3-0.4,0.4c-0.1,0.1,0.1,0.3,0.2,0.2
		c0.7-0.9,2.1-1,2.9-0.2c0.1,0.1,0.3,0.3,0.4,0.4c0.7,1.1-0.2,2.3-1,3c-0.1,0.1-0.1,0.3,0,0.4c0,0,0.1,0.1,0.2,0.1
		C49.5,58.1,50,55.8,49.1,54.6z"/>
	<path class="st0" d="M53.4,63.3c1.4-0.5,1.5-2.6,0.5-3.6c-1-0.9-2.5-0.8-3.3,0.2c-0.1,0.1-0.2,0.3-0.3,0.5c-0.1,0.1,0,0.3,0.1,0.3
		c0.1,0.1,0.3,0,0.3-0.1c0.5-0.8,1.5-1,2.3-0.5c0.1,0.1,0.3,0.2,0.4,0.3c0.4,0.8,0.3,1.8-0.3,2.4c-0.1,0.2,0,0.3,0.1,0.4
		C53.2,63.3,53.3,63.3,53.4,63.3z"/>
	<path class="st0" d="M57.3,60.7c0.6-0.2,1.3-0.1,1.8,0.2c0.4,0.4,0.8,0.8,1,1.3c0.1,0.1,0.3,0.2,0.4,0.1c0.1,0,0.1-0.1,0.1-0.2
		c0.2-1.8-2.2-2.6-3.5-1.9C56.8,60.4,57,60.9,57.3,60.7z"/>
	<path class="st0" d="M39.3,65.9c-0.1,0-0.1,0-0.2,0.1c0,0.1,0,0.1,0.1,0.2C39.4,66.3,39.5,66,39.3,65.9z"/>
	<path class="st0" d="M42.7,67.4c0,0.3,0.5,0.4,0.5,0.1c0.2-1-0.5-2-1.5-2.2c-0.5-0.1-1,0-1.3,0.3c-0.2,0.1-0.2,0.3-0.1,0.5
		c0.1,0.2,0.3,0.2,0.5,0.1l0,0c0.6-0.4,1.4-0.2,1.8,0.5C42.7,66.9,42.7,67.1,42.7,67.4z"/>
	<path class="st0" d="M50.5,71.8c-0.1,0-0.1,0-0.2,0.1c0,0.1,0,0.1,0.1,0.2c0.1,0,0.1,0,0.2-0.1C50.7,71.9,50.6,71.8,50.5,71.8z"/>
	<path class="st0" d="M57.1,70.1c-1.1-1-2.9-1-4,0c-0.2,0.2,0.1,0.5,0.3,0.3c0.9-0.8,2.3-0.7,3.2,0.1c0.8,1,0.7,2.3-0.1,3.2
		c-0.1,0.1-0.1,0.3,0,0.4c0.1,0.1,0.3,0.1,0.4,0C58.1,73,58.2,71.2,57.1,70.1C57.1,70.1,57.1,70.1,57.1,70.1z"/>
</g>
</svg>
