<svg id="Layer_1" data-name="Layer 1" xmlns="http://www.w3.org/2000/svg" viewBox="0 0 190.57 78.74"><defs><style>.cls-1{fill:#545353;}</style></defs><title>3</title><g id="_11" data-name="11"><path class="cls-1" d="M195.77,92.65a.24.24,0,0,0,.08-.15c.37-1.77-1.18-2.62-2.48-3.45L191.64,88c-3.73-2.81-7.58-5.58-11.51-8.11a36.92,36.92,0,0,0-15.75-6.08,54.15,54.15,0,0,0-16.31.9c-2.32.45-4.61,1-6.87,1.63a95.88,95.88,0,0,0-8.73-6.54,95.27,95.27,0,0,0-10.26-6.49c-5.26-2.74-12.29-4.33-17.46-.48a.18.18,0,0,0-.08.18l-.06,0c-.25-.11-.52.26-.29.45l1.46,1.22c2.87,2.91,6,5.61,9,8.39,3.24,3,6.46,6,9.73,9-3.74,1.44-7.46,2.9-11.23,4.23-11.09,3.91-24.65,7.75-35.89,2.24-5.62-2.76-8.69-8.19-13.65-11.75a14.19,14.19,0,0,0-8.14-2.67c-.22,0-.45,0-.67,0a14,14,0,0,0-6.15,1.65c-.23.12-.1.48.11.49a1.27,1.27,0,0,0,.16.46.31.31,0,0,0,.25.16,0,0,0,0,0,0,0C49.84,78,50.42,79,51,80a.26.26,0,0,0,.09.17l.84,1.44a.29.29,0,0,0,.23.39c.64,1.09,1.28,2.18,1.94,3.27a.3.3,0,0,0,.21.34c1.27,2.11,2.55,4.21,3.8,6.32,2.78,4.67,5.4,9.51,8.38,14.06a6.52,6.52,0,0,0,1,1.94c-2.81,2.59-5.58,5.23-8.35,7.85a.59.59,0,0,0-.13.65.3.3,0,0,0-.07.44c1.47,1.68,3.65,1.44,5.63,1,2.77-.61,5.54-1.26,8.3-1.9,2.32,2.32,7.55,1.6,10.26,1.45,4.15-.24,9-.46,13-2.06-7.05,6.5-14,13.1-21.27,19.35a.56.56,0,0,0,.27.92.21.21,0,0,0,0,.32c5,4,12.83,2.65,18.48,1a38.75,38.75,0,0,0,8.69-3.77,29,29,0,0,0,7.15-5.4,3.4,3.4,0,0,0,.72,1.71c1.88,2.42,5.51,1,7.07-1a5.39,5.39,0,0,0,1.06-2.57,4.3,4.3,0,0,0,.06-3.06,3.88,3.88,0,0,0,.31.26c0,.22.23.41.41.26a2.69,2.69,0,0,0,.65.24.3.3,0,0,0,.49.21l.14-.13a4.88,4.88,0,0,0,3.64-1.74c1.42-1.67,2.57-4.74.69-6.52l-.24-.19a1.1,1.1,0,0,0,0-1.11,17.07,17.07,0,0,0,1.5-1.45c7.54-1.71,15.11-3.28,22.68-4.82a.27.27,0,0,0,.12,0q7.62-1.55,15.24-3.09a.3.3,0,0,0,.3-.06l3.7-.76q5.59-1.15,11.17-2.38a69.53,69.53,0,0,0,9.47-2.3,15.67,15.67,0,0,0,5.58-3.41h0a.5.5,0,0,0,.39-.21,4.07,4.07,0,0,0,.84-1.75h0A3.81,3.81,0,0,0,195.77,92.65ZM184.12,84a17,17,0,0,1-15.18-3.88l5.25-2.28A67,67,0,0,1,184.12,84ZM105,63c6.38-3.63,13.18-1,19,2.58C129.49,69,134.54,73,139.8,76.7c-3.55,1-7,2.26-10.51,3.56a.28.28,0,0,0-.42-.23l-.23.14a.34.34,0,0,0-.09.08l-.08-.06,5.93-2.32c.34-.13.18-.67-.16-.54l-6.3,2.46-.6-.45,4.59-1.75c.34-.13.18-.67-.15-.54l-5,1.89-.53-.4L130,77.11c.33-.13.17-.67-.16-.54l-4,1.56,0,0-.7-.52,3.15-1.38c.33-.14.18-.68-.15-.53l-3.52,1.53-.92-.67,2.93-1.28c.33-.14.17-.68-.16-.54l-3.29,1.44-.45-.33,2.44-1c.33-.13.18-.67-.16-.53l-2.43,1a.24.24,0,0,0-.12-.07h0a.27.27,0,0,0-.47,0v0L117.33,72c-3.69-2.67-7.32-5.47-11.11-8ZM127.56,80.9l-1,.4c-.15-.48-.29-1-.43-1.45l.74.53c0,.19.12.4.34.31l.06,0Zm-12.2-8.47c-.92-.85-1.84-1.71-2.75-2.58,1.37,1,2.74,2,4.1,3l4.8,3.59a2.54,2.54,0,0,0,.6,1.73c.23.28.62-.13.39-.4a2,2,0,0,1-.41-.89l.71.52c.12.75.25,1.49.38,2.24C120.58,77.24,118,74.84,115.36,72.43Zm8.29,7.67a.3.3,0,0,0,.12-.29l-.33-1.9.59.43v.08c.25.83.49,1.66.74,2.49a.28.28,0,0,0,.53-.16c-.18-.63-.37-1.25-.55-1.88l.6.44h0c.21.73.43,1.45.64,2.18l-.59.23ZM64.49,79c3.57,3.15,6.33,7.1,10.46,9.59,8.7,5.26,19.74,4.3,29.16,1.81,8.43-2.23,16.46-5.63,24.61-8.71h0a.52.52,0,0,0,.76-.29c2.29-.86,4.59-1.69,6.92-2.45,10.25-3.39,22.07-6.15,32.74-3.09a31.47,31.47,0,0,1,4.38,1.63q-2.58,1.14-5.18,2.25a.28.28,0,0,0-.11.47,17.61,17.61,0,0,0,16.5,4.2l.08.06,1,.69-5.62,1.09a.27.27,0,0,0-.36,0l-.06.06c-9.51,1.88-19,3.87-28.59,5.43a558,558,0,0,1-66.39,6.74c-3.94.17-7.38.3-10.93-1.69a30.93,30.93,0,0,1-7.47-6.31,55.27,55.27,0,0,1-6.45-8.69c-1.32-2.17-2.44-4.48-3.71-6.69A15.36,15.36,0,0,1,64.49,79Zm2.09,37.81c-2.14.5-5,1.56-6.82,0A47.11,47.11,0,0,0,72.19,115a4.54,4.54,0,0,0,.3.53Zm6.32-2.13a25.64,25.64,0,0,0,2.42-1c.54-.27,1.06-.56,1.57-.86l-2.68,2.68A13.93,13.93,0,0,1,72.9,114.72Zm3.16,21.09.17,0v0Zm33.49-9c-.36.24-.71.5-1,.76.2-.29.39-.59.59-.86s-.16-.38-.3-.22a11.94,11.94,0,0,0-1.72,2.11.27.27,0,0,0,0,.12l-.37.3.49-.59c.16-.21-.12-.49-.3-.29a15.38,15.38,0,0,0-1.1,1.32.16.16,0,0,0,.06.24,27.19,27.19,0,0,1-2.82,2,39.8,39.8,0,0,1-8.37,3.89c-5.71,1.9-12.26,2.91-17.92.52l.17-.16c12.81,2.16,23.59-3.14,33.28-10.81A4.67,4.67,0,0,0,109.55,126.8Zm6.52,1.66a4.77,4.77,0,0,1-1.74,1l1.22-1.51c.22-.28-.18-.67-.4-.39l-1.71,2.13-.53,0,2.58-2.92c.24-.27-.17-.66-.4-.39l-2.86,3.23a2.24,2.24,0,0,1-.78-.33q1.69-1.92,3.37-3.85c.24-.27-.16-.66-.4-.39-1.12,1.29-2.25,2.57-3.38,3.86a2.64,2.64,0,0,1-.35-.54l3.11-4.13c.21-.28-.19-.67-.4-.39-1,1.29-2,2.59-2.92,3.88a3.58,3.58,0,0,1-.08-.91l2.71-2.94c.25-.27-.16-.66-.4-.39l-2.09,2.26a5.57,5.57,0,0,1,.68-1.27.32.32,0,0,0,.35-.24,2.43,2.43,0,0,1,.13-.38l.27-.32c.63-.52,1.26-1.06,1.89-1.61a2.79,2.79,0,0,1,3,1.27A4,4,0,0,1,116.07,128.46Zm-1-7.47,0,0s0,0,0,0Zm1.22-1.11.5-.45-.1.27a1.1,1.1,0,0,0-.22.31Zm.83,2.19a2,2,0,0,0-.27-.24H117l0,0h0C117.07,121.93,117.1,122,117.14,122.07Zm.83-3.73.24-.22-.13.26A.21.21,0,0,0,118,118.34Zm5.42,3a4,4,0,0,1-1.49,1.1l.6-.53c.27-.24-.13-.63-.4-.39l-1.4,1.24a2.33,2.33,0,0,1-.91-.11l2.48-3.13c.23-.27-.18-.67-.4-.38l-2.59,3.26a1.9,1.9,0,0,1-.56-.6.32.32,0,0,0,.09-.08l3-3.47c.23-.27-.17-.66-.41-.39l-2.94,3.41a.78.78,0,0,0,0-.14,3.22,3.22,0,0,1-.13-1.18.25.25,0,0,0,.4,0c.63-.73,1.27-1.46,1.9-2.2.11,0,.16-.08.14-.17l0,0c.24-.27-.16-.66-.4-.39l-2,2.34a5.85,5.85,0,0,1,.85-2c1.24-.84,2.54-2.2,4.17-1.7C125.93,116.53,124.55,119.92,123.39,121.29Zm.39-7.62h-.14a.22.22,0,0,0-.17,0,1.2,1.2,0,0,0-.37.15l0,0a.14.14,0,0,0-.15.2l0,0a.2.2,0,0,0,0,.21.62.62,0,0,0-.26.37,4,4,0,0,0-.9.15l1.47-1.44h0l1-.24Zm.3.83a.38.38,0,0,1,0,.28.52.52,0,0,1-.06.13,2,2,0,0,0-.34-.14C123.82,114.68,124,114.6,124.08,114.5Zm69.8-19.69a.54.54,0,0,0-.12.27h0a9.18,9.18,0,0,1-2.6,1.93.25.25,0,0,0-.28.14c-.4.2-.82.39-1.24.56l3.69-4.88c.22-.28-.18-.68-.4-.39l-4.27,5.64c-.92.32-1.85.59-2.73.81l5.82-7.07c.22-.28-.18-.67-.4-.39q-3.16,3.82-6.31,7.67h0l-1.24.29-1.18.26,3.59-5.22c.2-.3-.29-.57-.49-.27l-3.9,5.67-2.9.64,3.61-4.36c.23-.27-.17-.66-.4-.39-1.37,1.65-2.73,3.3-4.1,4.94l-2.68.58,3.24-3.77c.23-.27-.17-.66-.4-.39l-3.75,4.36-1.45.31,2.92-4.13c.21-.29-.28-.56-.49-.27l-3.23,4.57-1.94.41c.65-1,1.31-2,2-2.92.2-.3-.29-.57-.49-.28l-2.26,3.36-1.87.39,3.23-5.19c.19-.31-.3-.58-.49-.27l-3.49,5.62-1.53.31,3.64-5.3c.2-.3-.29-.57-.49-.28l-3.93,5.75-1.09.22-.26,0,2.05-3.41c.19-.31-.3-.59-.49-.28L162.42,104l-1.95.4,4.89-6.51c.21-.28-.19-.67-.4-.39l-5.31,7.07-1.86.38,3.52-4c.24-.27-.17-.66-.4-.39-1.25,1.42-2.49,2.85-3.73,4.27a.25.25,0,0,0-.05.28l-1.74.35,3.55-5.19c.21-.3-.28-.57-.49-.28l-3.6,5.27a.23.23,0,0,0,0,.31l-2.61.53q2-2.53,4-5c.22-.28-.18-.67-.41-.39l-4.45,5.61-1.46.29,4.88-6.07c.23-.28-.17-.68-.4-.39q-2.67,3.32-5.33,6.64l-2.51.51,4.86-5.48c.24-.27-.16-.66-.4-.39l-5.37,6.06c-1.69.34-3.39.69-5.08,1l5-6.23c.22-.28-.18-.67-.41-.39l-5.26,6.58a.3.3,0,0,0-.07.19l-1.69.36,4.2-6.08c.2-.29-.29-.56-.49-.27l-4.51,6.51-1.76.38,4.91-6c.23-.28-.17-.67-.4-.39-1.74,2.13-3.49,4.26-5.23,6.4a.27.27,0,0,0-.06.17l-1.47.31c1.53-1.94,3-3.89,4.58-5.84.22-.28-.18-.67-.4-.38-1.68,2.13-3.35,4.27-5,6.41l-2.1.46,5.7-7.28c.22-.28-.18-.67-.4-.39l-6.15,7.85-2.22.49.31-.33a28.42,28.42,0,0,0,3.9-4.38.34.34,0,0,0-.47-.45,28.49,28.49,0,0,0-4.16,4.13c-.44.48-.93,1-1.41,1.45l-.9.21c4.08-4.06,8-8.06,11.94-11.48.54-.48-.27-1.26-.81-.79-7.78,6.8-14.57,14.74-22.38,21.5a3.38,3.38,0,0,0-2.08,1.74c-.76.63-1.54,1.23-2.32,1.83l1.58-1.72c.24-.27-.16-.66-.4-.39-1.17,1.27-2.33,2.54-3.5,3.8-.83.58-1.67,1.14-2.53,1.67l3.82-3.8c.25-.25-.15-.64-.41-.39l-5.39,5.37c-.41.23-.82.46-1.24.68l4.26-4.63c.24-.26-.16-.65-.4-.39l-5.31,5.78c-.63.31-1.26.61-1.9.89l4.11-4.65c.24-.27-.16-.66-.4-.39l-4.92,5.56c-.64.27-1.29.52-2,.76l3.48-3.79c.25-.27-.16-.65-.4-.39l-4.19,4.57c-.69.23-1.38.44-2.08.63,1-1.07,2-2.13,3-3.2a.28.28,0,0,0-.4-.39l-3.38,3.58a.24.24,0,0,0-.07.23c-.71.18-1.43.34-2.14.48l3.35-4.18c.23-.28-.17-.67-.4-.39l-3.6,4.49a.3.3,0,0,0-.07.21c-.73.13-1.46.23-2.2.32l3.09-3.28a.28.28,0,0,0-.4-.39l-3.53,3.75c-.57,0-1.13.08-1.7.1l3-3c.25-.26-.15-.64-.41-.39L82,135.21l-1.47,0L83.89,132c.26-.24-.14-.63-.4-.38l-3.78,3.57c-.59,0-1.18-.09-1.77-.16l2-1.89c.26-.24-.14-.63-.4-.39l-2.32,2.18-.71-.11c12.7-11.1,25-22.71,37.38-34.14.3-.27-.14-.67-.44-.43-5.41,4.39-10.6,9-15.74,13.75a.56.56,0,0,0-.21-.16l4.4-5.07c.24-.27-.17-.66-.4-.39l-4.75,5.48c-.76.15-1.5.35-2.25.56l6-6.92c.23-.28-.17-.67-.4-.39q-3.31,3.78-6.61,7.59c-.69.19-1.39.37-2.09.52L97,108.48c.23-.28-.18-.67-.41-.39l-6,7.19,0,0c-.85.15-1.71.28-2.56.39l5.82-7.26c.23-.28-.17-.67-.4-.39l-6.21,7.74c-.68.07-1.35.14-2,.19l4.33-5.52c.22-.28-.18-.67-.4-.39l-4.68,6-1.91.15,5.18-6c.23-.27-.17-.66-.41-.39l-5.56,6.42-1.84.11,4.76-4.78a.28.28,0,0,0-.4-.39l-5.17,5.19h-.76a10.24,10.24,0,0,1-1.4-.1l6-6.32a.28.28,0,0,0-.4-.39l-6.24,6.6a8.6,8.6,0,0,1-1.54-.47l3.42-3.43a.25.25,0,0,0,0-.34,27.45,27.45,0,0,0,7.87-8.08c.44-.69-.66-1.3-1.11-.62a26.2,26.2,0,0,1-10.32,9.3c-.24.13-.48.24-.72.35l1.6-2.31c.2-.3-.29-.57-.49-.27l-2.07,3a21.51,21.51,0,0,1-2.18.74l1.68-2c.23-.28-.17-.67-.4-.39l-2.21,2.67c-.69.17-1.37.32-2.07.44l2.49-2.5c.26-.26-.15-.65-.4-.39l-3,3.05c-.6.1-1.19.18-1.79.24l3-2.86c.25-.25-.15-.64-.41-.39l-3.44,3.35-.87.08,2.44-2.23c.26-.25-.14-.63-.4-.39l-2.95,2.69-1.07.08c4.21-4,8.43-8,12.42-12.2.3-.32-.16-.74-.48-.46-1.63,1.38-3.22,2.81-4.79,4.24-.12-.3-.28-.6-.41-.88-.26-.57-.53-1.12-.84-1.66a.21.21,0,0,0-.13-.1c-.74-1.33-1.5-2.64-2.28-4a.26.26,0,0,0,.28,0l3.73-2c.32-.17,0-.65-.29-.48l-3.73,2a.26.26,0,0,0-.13.24L64,99.09l2.37-1.37c.31-.18,0-.66-.29-.48l-2.37,1.37L63,97.44l2.24-1.35a.28.28,0,0,0-.29-.48L62.66,97c-.21-.33-.41-.66-.61-1l2.41-1.6c.3-.19,0-.67-.29-.48l-2.42,1.6-.87-1.43h0l3.27-1.74c.32-.17,0-.64-.29-.48l-3.27,1.74h0l-.59-1,2.37-1.44c.31-.18,0-.66-.29-.48L59.7,92.12c-.17-.28-.34-.55-.5-.83L59,91l2.36-1.44c.31-.18,0-.66-.29-.48L58.73,90.5l-.65-1.12,2-1.3c.3-.2,0-.68-.29-.48l-2,1.3-.58-1,2.22-1.33a.28.28,0,0,0-.29-.48l-2.21,1.33c-.25-.42-.5-.84-.74-1.26l2-1.2a.28.28,0,0,0-.29-.48l-2,1.2c-.14-.25-.29-.5-.44-.75l1.13-.77c.3-.2,0-.68-.29-.48l-1.12.76c-.31-.53-.63-1.06-1-1.59l2.44-1.36c.32-.17,0-.65-.29-.48l-2.44,1.36-.63-1.06,2-1.31c.3-.19,0-.67-.29-.48l-2,1.31c-.24-.4-.48-.8-.73-1.2L54.85,78c.3-.2,0-.68-.29-.48L52,79.17c-.21-.35-.43-.69-.65-1L53,77c.29-.2,0-.68-.29-.48l-1.69,1.15-.39-.61a8.16,8.16,0,0,0,.8-.36c.2-.1,0-.43-.17-.37a9.25,9.25,0,0,0-.88.32,2.9,2.9,0,0,1-.19-.29.54.54,0,0,0-.33-.24.29.29,0,0,0-.34-.05l0,0a14.24,14.24,0,0,1,5.78-.94,60.41,60.41,0,0,0,8.1,13.31c3.26,4.11,7.24,8.39,12.24,10.33,2.86,1.11,5.71.91,8.73.8,3.32-.12,6.63-.28,9.95-.46,6.36-.35,12.73-.81,19.07-1.4q26.51-2.45,52.68-7.54l-1.89,1.73c-.27.25.13.63.4.39l2.55-2.32.19,0c-.59.85-1.18,1.71-1.76,2.57-.21.3.28.57.48.27l2.06-3,1.74-.34.67-.14c-1,1-1.94,2-2.9,3-.25.25.15.64.4.39l3.48-3.59c.33-.06.67-.13,1-.21l-2.23,2.39c-.25.26.16.65.4.38L173,89.13a.28.28,0,0,0,0-.38l2.39-.52-3.88,4.29c-.24.27.16.66.4.39l4.26-4.7a.37.37,0,0,0,.07-.16l2.35-.53c-1.43,1.44-2.86,2.87-4.28,4.31-.26.25.14.64.4.39q2.44-2.48,4.91-4.93l2-.47-3.42,4.08c-.23.28.17.67.4.39,1.2-1.43,2.39-2.86,3.59-4.28a.29.29,0,0,0,0-.33L185,86h0l-2.43,2.86c-.24.27.16.66.4.39l2.43-2.87a.29.29,0,0,0-.11-.45l1-.25a.23.23,0,0,0,.1,0C188,86.76,189.52,87.84,191,89,192.8,90.24,195.74,92.44,193.88,94.81Zm.47-4.46a4,4,0,0,1,.77.93,0,0,0,0,1,0,0c0,.06,0,.11,0,.17A6.77,6.77,0,0,0,194.35,90.35Z" transform="translate(-5.34 -60.49)"/><path class="cls-1" d="M106.27,95.82l0,0s0,0,0,0a2.37,2.37,0,0,0-1-3.49,2.55,2.55,0,0,0-3.17,1.09C100.91,95.81,104.65,97.83,106.27,95.82Zm-1.47-3.11a1.77,1.77,0,0,1,1.11,2.6,2.14,2.14,0,0,0-.59-2,2.1,2.1,0,0,0-1.61-.55A2.13,2.13,0,0,1,104.8,92.71Zm.48,2.77a2.67,2.67,0,0,0-2.08-2.06A1.59,1.59,0,0,1,105.28,95.48Zm-2.73-1.71a.2.2,0,0,0,.08,0,2.73,2.73,0,0,1,1.45.69,5.27,5.27,0,0,1,.76,1.32.23.23,0,0,0,.21.11.13.13,0,0,0,0,.06,1.92,1.92,0,0,1-2.54-2.07A.88.88,0,0,1,102.55,93.77Z" transform="translate(-5.34 -60.49)"/><path class="cls-1" d="M114.61,94.55s0,0,0,0l0,0a2.37,2.37,0,0,0-1-3.49,2.55,2.55,0,0,0-3.17,1.09C109.25,94.54,113,96.56,114.61,94.55Zm-1.48-3.11a1.8,1.8,0,0,1,1.05,2.75,2,2,0,0,1-.42.35c.33-.72-.29-1.66-.88-2.05a2,2,0,0,0-1.93-.16A2,2,0,0,1,113.13,91.44ZM112.5,93c.61.39.55,1,.78,1.57a.3.3,0,0,0,.13.14A2,2,0,0,1,110.79,93,1.87,1.87,0,0,1,112.5,93Z" transform="translate(-5.34 -60.49)"/><path class="cls-1" d="M131.92,89.19a2.36,2.36,0,0,0-3.51-.27,2.62,2.62,0,0,0-.31,3.25,2,2,0,0,0,2.27.75.24.24,0,0,0,.28,0,1,1,0,0,0,.29-.28A2.49,2.49,0,0,0,132,89.28.38.38,0,0,0,131.92,89.19Zm-1.55,3.15a1.48,1.48,0,0,1-1.76-.44,1.9,1.9,0,0,1-.17-2s0,0,.05,0a1.86,1.86,0,0,1,1.86.84,1.72,1.72,0,0,1,.21,1A3,3,0,0,1,130.37,92.34Zm.86-.61a2.6,2.6,0,0,0-.33-1.37,2.18,2.18,0,0,0-2.11-1,1.81,1.81,0,0,1,2.74.21A1.83,1.83,0,0,1,131.23,91.73Z" transform="translate(-5.34 -60.49)"/><path class="cls-1" d="M139.52,88a2.36,2.36,0,0,0-3.51-.26A2.6,2.6,0,0,0,135.7,91a2,2,0,0,0,1.86.84.21.21,0,0,0,.32.13,1.7,1.7,0,0,0,.38-.32,2.54,2.54,0,0,0,1.34-3.54A.34.34,0,0,0,139.52,88Zm-1.7,3.21a1.49,1.49,0,0,1-1.61-.49,2,2,0,0,1,0-2.28h0a1.92,1.92,0,0,1,1.75,1A2,2,0,0,1,137.82,91.19Zm.89-.54a2.39,2.39,0,0,0-.21-1.49,2.27,2.27,0,0,0-1.88-1.2,1.8,1.8,0,0,1,2.5.4A1.86,1.86,0,0,1,138.71,90.65Z" transform="translate(-5.34 -60.49)"/><path class="cls-1" d="M147.3,86.82a2.36,2.36,0,0,0-3.51-.26,2,2,0,0,0-.22.27.76.76,0,0,0-.21,0,.19.19,0,0,0,0,.35,2.51,2.51,0,0,0,.14,2.59,2,2,0,0,0,1.28.83.2.2,0,0,0,.11,0c1.71.2,3.6-1.91,2.51-3.73A.34.34,0,0,0,147.3,86.82Zm-2.52,3.23a1.65,1.65,0,0,1-.79-.51,1.93,1.93,0,0,1-.09-2.19,1.85,1.85,0,0,1,1.13.87A1.78,1.78,0,0,1,144.78,90.05Zm.74,0a2.36,2.36,0,0,0,.08-2,2.23,2.23,0,0,0-1.33-1.17,1.8,1.8,0,0,1,2.63.31A2,2,0,0,1,145.52,90.05Z" transform="translate(-5.34 -60.49)"/><path class="cls-1" d="M155.57,85.21a2.35,2.35,0,0,0-3.5-.27,2.59,2.59,0,0,0-.31,3.25,2,2,0,0,0,2.36.72.24.24,0,0,0,.33.09.86.86,0,0,0,.38-.48,2.43,2.43,0,0,0,.83-3.22A.26.26,0,0,0,155.57,85.21Zm-.55.21L153.11,85A1.84,1.84,0,0,1,155,85.42Zm-.85,2.88a1.52,1.52,0,0,1-1.91-.37,2,2,0,0,1,0-2.28,1.64,1.64,0,0,1,.49-.49.31.31,0,0,0,0,.19h0c-.16,0-.27.28-.08.35A2.52,2.52,0,0,1,154.06,87a2,2,0,0,1,.19,1A2.33,2.33,0,0,1,154.17,88.3Zm.74-.58a3.1,3.1,0,0,0-.26-1,2.7,2.7,0,0,0-.77-1l1,.25a.27.27,0,0,0,.33-.27A1.83,1.83,0,0,1,154.91,87.72Z" transform="translate(-5.34 -60.49)"/><path class="cls-1" d="M160.7,83.42a2.6,2.6,0,0,0-.31,3.24,2,2,0,0,0,2.27.75.13.13,0,0,0,.14,0,2.62,2.62,0,0,0,.64-.34.31.31,0,0,0,.22-.12s0-.07.05-.1a2.38,2.38,0,0,0,.58-3l-.08-.09A2.36,2.36,0,0,0,160.7,83.42Zm.2,3a1.85,1.85,0,0,1-.27-1.79,2,2,0,0,1,1.5.9,2.12,2.12,0,0,1,.33,1.39A1.48,1.48,0,0,1,160.9,86.4Zm2.34.1-.17.12a2.32,2.32,0,0,0-.48-1.47,2.28,2.28,0,0,0-1.27-.88A1.55,1.55,0,0,1,163.24,86.5Zm.58-2.44a1.7,1.7,0,0,1,.19,1.21,2,2,0,0,0-.52-1.06,2.16,2.16,0,0,0-2.25-.5A1.81,1.81,0,0,1,163.82,84.06Z" transform="translate(-5.34 -60.49)"/><path class="cls-1" d="M148.29,101.36l-4.93,5.88c-.23.28.17.67.4.39l4.93-5.88C148.92,101.47,148.52,101.08,148.29,101.36Z" transform="translate(-5.34 -60.49)"/><path class="cls-1" d="M193,94.14l-.86,1.13c-.21.29.19.68.4.39l.86-1.13C193.6,94.24,193.2,93.85,193,94.14Z" transform="translate(-5.34 -60.49)"/><path class="cls-1" d="M69.93,99.33l-3.66,2.37c-.3.19,0,.67.29.47l3.66-2.36C70.52,99.62,70.23,99.14,69.93,99.33Z" transform="translate(-5.34 -60.49)"/><path class="cls-1" d="M71.39,100.47,67.5,103c-.3.2,0,.68.29.48l3.89-2.5C72,100.75,71.69,100.27,71.39,100.47Z" transform="translate(-5.34 -60.49)"/><path class="cls-1" d="M71.87,101.77l-4.15,2.83c-.3.2,0,.68.29.47l4.15-2.82C72.46,102.05,72.17,101.57,71.87,101.77Z" transform="translate(-5.34 -60.49)"/><path class="cls-1" d="M173.89,81.42a.28.28,0,0,0,.32-.37.24.24,0,0,0,.15.09l-.84.9a.28.28,0,0,0,.2.48,7.91,7.91,0,0,1,3.09.47c.34.12.47-.43.14-.55a8.59,8.59,0,0,0-2.59-.48l1-1.07a.28.28,0,0,0-.28-.47l-.76.18a.25.25,0,0,0-.17.35.32.32,0,0,0-.13-.08A.28.28,0,0,0,173.89,81.42Z" transform="translate(-5.34 -60.49)"/><path class="cls-1" d="M119.69,93.55a2,2,0,0,0,1.67.86.24.24,0,0,0,.32.07,1.59,1.59,0,0,0,.21-.15,2.57,2.57,0,0,0,1.7-3.66.24.24,0,0,0-.08-.09,2.36,2.36,0,0,0-3.51-.27,2.52,2.52,0,0,0-.56.93.16.16,0,0,0-.06.14A2.45,2.45,0,0,0,119.69,93.55Zm2.62,0h0Zm.81-2.6a1.83,1.83,0,0,1-.28,2.14,1.93,1.93,0,0,0-.24-2.28,1.86,1.86,0,0,0-1.49-.53A1.84,1.84,0,0,1,123.12,91Zm-.91.26a1.36,1.36,0,0,1,.14,1.61,2.32,2.32,0,0,0-.32-1A2,2,0,0,0,120.6,91,1.38,1.38,0,0,1,122.21,91.22Zm-.64,1a1.52,1.52,0,0,1,.19,1,1.78,1.78,0,0,1-.26.63,1.49,1.49,0,0,1-1.3-.55,1.83,1.83,0,0,1-.27-1.78A1.61,1.61,0,0,1,121.57,92.21Z" transform="translate(-5.34 -60.49)"/><path class="cls-1" d="M125.46,86.1c13-3.08,26.23-5.83,39.08-9.57.28-.08.15-.49-.13-.43-13.12,2.66-26.08,6.35-39,9.67C125.15,85.82,125.25,86.15,125.46,86.1Z" transform="translate(-5.34 -60.49)"/><path class="cls-1" d="M122.49,107.57a85.42,85.42,0,0,1-21.7,16.51c-.22.12,0,.44.19.33a73.75,73.75,0,0,0,21.78-16.58A.19.19,0,0,0,122.49,107.57Z" transform="translate(-5.34 -60.49)"/><path class="cls-1" d="M106.46,116.76c1.38-1.27,2.79-2.52,4.13-3.84.2-.2-.1-.47-.31-.3-1.43,1.22-2.8,2.51-4.19,3.78C105.85,116.62,106.22,117,106.46,116.76Z" transform="translate(-5.34 -60.49)"/><path class="cls-1" d="M104,64.07c.17.05.24-.23.06-.27A.14.14,0,0,0,104,64.07Z" transform="translate(-5.34 -60.49)"/><path class="cls-1" d="M82.56,95.82c.35,0,.49-.5.13-.55a24.84,24.84,0,0,1-20-16c-.12-.34-.65-.18-.53.16A25.4,25.4,0,0,0,82.56,95.82Z" transform="translate(-5.34 -60.49)"/><path class="cls-1" d="M79.59,124.35l-30.71,6c-.36.07-.2.61.15.54l30.72-6C80.11,124.82,80,124.28,79.59,124.35Z" transform="translate(-5.34 -60.49)"/><path class="cls-1" d="M66,124.54,45.2,130c-.35.09-.19.63.16.53l20.83-5.43C66.54,125,66.38,124.45,66,124.54Z" transform="translate(-5.34 -60.49)"/><path class="cls-1" d="M33,125.55l22-3.6c.36,0,.19-.59-.16-.53l-22,3.59C32.52,125.07,32.68,125.61,33,125.55Z" transform="translate(-5.34 -60.49)"/><path class="cls-1" d="M38.85,122.13l11.76-1.69c.36,0,.35-.61,0-.56l-11.76,1.69C38.48,121.62,38.49,122.18,38.85,122.13Z" transform="translate(-5.34 -60.49)"/><path class="cls-1" d="M25.63,125.9a4.63,4.63,0,0,0,.57-4.63,4.16,4.16,0,0,0-2-2,4.08,4.08,0,0,0-2.56-4.51,6.15,6.15,0,0,0-6.58,1.6c-1.88-1.57-4.62-2-6.59-.07a3.87,3.87,0,0,0-.28,5.09c-4.12,2-3.75,8.86.83,9.75a.13.13,0,0,0,0,.06c-.17,3,2.9,5.54,5.79,5.39A5.78,5.78,0,0,0,19.74,133C23.56,134.32,27.88,129.51,25.63,125.9Zm-5.72,6.6a4.88,4.88,0,0,0,.18-1.83c0-.24-.41-.32-.45,0-.39,2.52-2.09,5-4.86,5.1s-4.53-2.12-5.31-4.52a3.75,3.75,0,0,0,.48,0c.39,0,.39-.52.07-.63-2-.73-3.92-2.23-3.91-4.59a4.82,4.82,0,0,1,2.65-4.14,3,3,0,0,0,1.79.54.26.26,0,0,0,0-.5,3.16,3.16,0,0,1-1.24-.58.33.33,0,0,0-.3-.26,3,3,0,0,1,.82-4.84,4.27,4.27,0,0,1,4.84.64.14.14,0,0,0,.16.11,8.4,8.4,0,0,1,1.25,1.28c.17.2.51,0,.37-.22a6.42,6.42,0,0,0-1.07-1.36c1.56-.94,3.19-1.88,5.11-1.49a4,4,0,0,1,3.19,3.9,2.66,2.66,0,0,0-3.15,1.09c-.14.21.17.4.33.25,2-1.82,4.78.22,4.9,2.57.09,1.84-1.18,3-2.68,3.83-.28.14-.06.5.2.45a3.55,3.55,0,0,0,1.69-.77c.37,1.6.46,3.19-.73,4.55A4.85,4.85,0,0,1,19.91,132.5Z" transform="translate(-5.34 -60.49)"/><path class="cls-1" d="M32.6,131.65a.25.25,0,0,0,.15-.05,2.52,2.52,0,0,0,.28-3.38,2.49,2.49,0,0,0-3.31-.54c-.15.12-.06.4.15.33a2.09,2.09,0,0,1,2.49,3.29.19.19,0,0,0,0,.11,2.7,2.7,0,0,0-3.69.33.17.17,0,0,0-.08-.06.14.14,0,0,0-.06.28h0a.23.23,0,0,0,.38.2c1.22-1,3.13-.92,3.67.78.5,1.55-.78,2.7-2.21,2.85-.32,0-.42.52-.06.59a2.76,2.76,0,0,0,3-3.78A2.83,2.83,0,0,0,32.6,131.65Z" transform="translate(-5.34 -60.49)"/><path class="cls-1" d="M27.69,122.37c1.49-1.28,3.26-.06,3.38,1.68a.26.26,0,0,0,.51,0c.48-2.46-2.58-3.67-4.25-2.07C27.09,122.25,27.45,122.58,27.69,122.37Z" transform="translate(-5.34 -60.49)"/><path class="cls-1" d="M30.31,115a203.22,203.22,0,0,0,22.36-4.7c.31-.08.16-.52-.14-.47a200.55,200.55,0,0,0-22.28,4.75C30,114.62,30.07,115,30.31,115Z" transform="translate(-5.34 -60.49)"/><path class="cls-1" d="M128.08,71c-5.13-4.34-11.46-9.25-18.61-7-.34.11-.18.65.16.54,6.94-2.15,13.09,2.7,18.06,6.9C128,71.65,128.36,71.24,128.08,71Z" transform="translate(-5.34 -60.49)"/><path class="cls-1" d="M186,86.65l-1.31,1.41c-.24.26.16.65.41.39l1.3-1.41A.28.28,0,0,0,186,86.65Z" transform="translate(-5.34 -60.49)"/><path class="cls-1" d="M187.24,87.16l-.25.34c-.22.28.18.67.4.39l.25-.34C187.86,87.27,187.46,86.88,187.24,87.16Z" transform="translate(-5.34 -60.49)"/><path class="cls-1" d="M163,91.19c-.46.59-.93,1.17-1.4,1.76-.22.28.18.67.4.39l1.4-1.76C163.62,91.3,163.22,90.9,163,91.19Z" transform="translate(-5.34 -60.49)"/><path class="cls-1" d="M178,80.54c0,.17,0,.34,0,.51a.22.22,0,0,0,.16.24,1.6,1.6,0,0,0,2,.9c.33-.13.18-.67-.16-.54a1.08,1.08,0,0,1-1.42-1v-.13c0-.32-.51-.38-.55-.06,0,0,0,0,0,.07Z" transform="translate(-5.34 -60.49)"/><path class="cls-1" d="M16.89,120.31c-3.42-.23-5.05,4.41-1.88,6.08.22.12.5-.21.28-.38-2.31-1.73-1.48-5.38,1.61-5.34C17.14,120.67,17.12,120.32,16.89,120.31Z" transform="translate(-5.34 -60.49)"/><path class="cls-1" d="M23.61,135.42c-.21.09-.05.46.17.38a1.62,1.62,0,0,1,2.15,1.07,1.69,1.69,0,0,1-1.7,1.86.24.24,0,0,0-.05.47,2.07,2.07,0,0,0,2.38-2.36A2.14,2.14,0,0,0,23.61,135.42Z" transform="translate(-5.34 -60.49)"/><path class="cls-1" d="M54.45,115.06a2.55,2.55,0,0,0-4,0c-.11.14.09.34.2.19a2.08,2.08,0,0,1,3.3.16c.65,1.12-.15,2.26-1,3a.26.26,0,0,0,.19.43C54.86,118.6,55.35,116.29,54.45,115.06Z" transform="translate(-5.34 -60.49)"/><path class="cls-1" d="M58.7,123.75c1.44-.5,1.45-2.64.48-3.58a2.36,2.36,0,0,0-3.65.69.24.24,0,0,0,.42.24,1.7,1.7,0,0,1,2.7-.24,2.08,2.08,0,0,1-.31,2.43A.32.32,0,0,0,58.7,123.75Z" transform="translate(-5.34 -60.49)"/><path class="cls-1" d="M62.66,121.22a1.93,1.93,0,0,1,1.81.24,3.19,3.19,0,0,1,1,1.35.28.28,0,0,0,.51-.08c.24-1.83-2.21-2.59-3.55-1.94C62.1,120.93,62.37,121.35,62.66,121.22Z" transform="translate(-5.34 -60.49)"/><path class="cls-1" d="M44.65,126.42a.14.14,0,0,0-.07.27C44.75,126.74,44.82,126.46,44.65,126.42Z" transform="translate(-5.34 -60.49)"/><path class="cls-1" d="M48.05,127.86c0,.3.48.36.53.06a1.87,1.87,0,0,0-2.88-1.87.35.35,0,0,0,.36.61A1.32,1.32,0,0,1,48.05,127.86Z" transform="translate(-5.34 -60.49)"/><path class="cls-1" d="M55.89,132.26a.14.14,0,0,0-.07.27A.14.14,0,0,0,55.89,132.26Z" transform="translate(-5.34 -60.49)"/><path class="cls-1" d="M62.48,130.55a3,3,0,0,0-4,0c-.23.2.11.52.34.33A2.4,2.4,0,0,1,62,131a2.52,2.52,0,0,1-.08,3.22.25.25,0,0,0,.36.35A2.84,2.84,0,0,0,62.48,130.55Z" transform="translate(-5.34 -60.49)"/></g></svg>