<?xml version="1.0" encoding="utf-8"?>
<!-- Generator: Adobe Illustrator 23.0.6, SVG Export Plug-In . SVG Version: 6.00 Build 0)  -->
<svg version="1.1" id="Layer_1" xmlns="http://www.w3.org/2000/svg" xmlns:xlink="http://www.w3.org/1999/xlink" x="0px" y="0px"
	 viewBox="0 0 100.6 141.4" style="enable-background:new 0 0 100.6 141.4;" xml:space="preserve">
<style type="text/css">
	.st0{fill:#FFFCFC;}
</style>
<title>4</title>
<g id="_14">
	<path class="st0" d="M59.3,46.2c9.6-0.1,19.3,0.2,28.9-0.5c0.2,0,0.3-0.1,0.3-0.3c0-0.1-0.1-0.2-0.2-0.3l-0.2-1.4c0,0,0-0.1,0-0.1
		c-0.5-4.3-1.7-8.6-2.5-12.9c-0.9-4.8-1.8-9.6-3-14.3c0.2-0.1,0.3-0.4,0.2-0.6c-0.1-0.1-0.2-0.2-0.4-0.3l-24.4-1.3
		c-0.2,0-0.4,0.2-0.4,0.4c0.3,10.4,0.8,20.7,1.2,31.1C58.9,46,59.1,46.2,59.3,46.2z M82.2,16.4c0.6,4.6,1.6,9.2,2.4,13.8
		s1.4,9.7,2.8,14.3v0.5c-9.1-0.4-18.4,0-27.6,0.2c-0.4-10-0.7-20.1-1.3-30.1L82.2,16.4z"/>
	<path class="st0" d="M10.2,140.3c-1.5,0-3.1,0.1-4.7,0s-3.1-0.4-4.6-0.4c-0.2,0-0.3,0.3-0.1,0.4c3,1.2,6.3,1.4,9.4,0.5
		c0.1-0.1,0.2-0.2,0.1-0.3C10.3,140.4,10.2,140.3,10.2,140.3z"/>
	<path class="st0" d="M100.5,138.9c-2.5-5.9-5.1-11.6-7.4-17.6c-1.1-3-2.2-6-3.3-9c-0.5-1.4-1-2.8-1.5-4.1c-0.6-1.3-1.1-2.6-1.6-3.9
		c3.3-0.6,4.4-5.5,1.6-7.4l0,0c0.1,0,0.1-0.1,0.1-0.2c0.8-4.3,1.5-8.6,2.3-12.8c0.7-3.9,1.6-7.9,2-11.9c0,0,2.3-0.7,2.5-0.8
		c0.8-0.4,1.4-1,1.8-1.7c0.9-1.7,0-3.8-1.5-4.9c-0.6-0.3-1.2-0.6-1.9-0.8l0,0c0.3-1.2,0.5-2.4,0.6-3.6c0.2-0.9,0.3-1.9,0.4-2.9h0.1
		c0.1,0,0.1,0,0.2,0c0.1,0,0.1,0,0.2,0h0.3c0.1,0,0.3-0.1,0.3-0.2c2.5-1,2-4.9-0.1-6.3c-0.2-0.1-0.4-0.3-0.7-0.4c0,0,0-0.1,0-0.2
		c-0.7-11.1-2.7-22.1-6-32.7c-1.2-3.9-3.3-6.8-7.4-7.8s-8.9-0.4-13.3-0.5L68.5,9c1.8-4.6-3.2-7.7-7-8.3c-3.1-0.5-6.3-0.7-9.4-0.6
		c-3,0-7.2-0.1-9.3,2.4c-1.4,1.6-1.9,3.9-1.2,6h-0.3C36.5,8.1,31.7,8.3,27,9c-1.6,0.2-3.2,0.5-4.7,1c-1.3,0.5-2.4,1.4-3.2,2.5
		c-0.3,0.9-0.6,1.8-0.8,2.7c-0.5,1.6-1,3.3-1.4,4.9l0,0c-0.1,0.1-0.2,0.2-0.1,0.3c0,0,0,0,0,0c0,0.1,0,0.2-0.1,0.3
		c-0.6,1.9-1.3,3.8-1.9,5.6s-0.8,3.5-1.3,5.3c-1,3.3-1.9,6.5-2.8,9.8c-0.6,2-1.3,3.9-1.8,5.8c-0.2,0.8-0.4,1.7-0.7,2.5
		c-0.3,0.7-1,1.2-1.5,1.9c-0.4,0.7-0.6,1.6-0.5,2.4c0.1,0.9,0.4,1.8,0.8,2.5c0.2,0.4,0.5,0.7,0.8,1.1c0.1,0.1,0.8,0.6,0.9,0.8
		c0.3,2.3,0.8,4.6,1.5,6.9c-0.1-0.3-1.6,0.7-1.7,0.8c-0.9,0.8-1.4,2-1.2,3.2c0.3,1.9,1.7,3.4,3.5,4c0.6,3.2,1.6,6.3,2.4,9.5
		c-0.1,0.1,0,0.3,0.1,0.3c0,0,0,0,0,0c0.1,0.4,0.2,0.8,0.3,1.3c0.5,2,1,4.2,1.5,6.2c-0.1,0.1-0.1,0.2,0,0.3c0,0,0.1,0,0.1,0.1
		c0.2,0.7,0.3,1.3,0.5,2L15.7,93c-0.2,0.2,0,0.4,0.2,0.4c0.2,0.8,0.5,1.5,0.7,2.3c0,0.1,0.2,0.2,0.3,0.2c0,0-0.1,0-0.1,0.1
		c-1.4,1.1-2,2.9-1.8,4.6c0.2,1.6,1.4,3.7,3.1,3.9c0.1,0,0.3,0,0.3-0.2c0-0.1,0-0.2-0.1-0.2h0.3c-3.4,5.8-6.4,12-9.5,18l-4.5,8.7
		c-1.5,2.9-3.3,5.8-4.5,8.9c-0.1,0.4,0.4,0.5,0.6,0.3c1.8-2.7,3.1-5.8,4.6-8.7l4.7-9.1c3.1-5.9,9.1-18,9.1-18c1.7,0,3.3,0,5,0
		c-0.7,1.6-1.3,3.3-1.9,4.9l0,0c0,0.1-0.1,0.1-0.1,0.2c-1.6,4.2-3,8.4-4.6,12.6c-2.2,6-4.5,12-6.7,18.1c-0.2,0.4,0.5,0.6,0.7,0.2
		c2-5.4,4-10.9,5.9-16.4c11.2,0.3,22.5-0.3,33.8-0.4l34-0.5l0,0c1.6,5.7,3.1,11.4,4.9,17.1c0,0.1,0,0.2,0.1,0.2
		c0.1,0.1,0.3,0.1,0.4,0c2.9-0.2,6.3,0.7,9-0.3c0.2-0.1,0.3-0.3,0.2-0.4c0-0.1-0.2-0.2-0.3-0.2c-3-0.2-5.9,0-8.8,0.5
		c-1.5-6.1-3.4-12.1-5.1-18.1s-3.1-12-5.2-17.8c1.9,0.1,3.8,0.3,5.8,0.4c0.8,3,2,6,3.1,8.9s2.1,6,3.3,9c2.1,5.7,4.2,11.7,7.2,17
		C100,139.6,100.7,139.3,100.5,138.9z M45,1.8c2.1-0.6,4.3-1,6.4-1c2.5,0,5,0.1,7.4,0.3c2.9,0.2,6.3,0.7,8.1,3.2
		c0.8,1.1,1.1,2.4,0.9,3.8c-0.4,0.7-0.8,1.4-1.2,2.1c0,0,0,0.1,0,0.1c-0.4,0.4-0.8,0.7-1.2,1l0,0l1.3-2.2c0-0.1,0-0.3-0.2-0.3
		c-0.1,0-0.2,0-0.3,0.1l-1.8,2.9c-0.6,0.3-1.3,0.5-2,0.6c0.8-1,1.4-2.1,1.8-3.3c0.1-0.3-0.4-0.4-0.5-0.1c-0.5,1.3-1.1,2.5-2,3.6
		c-0.4,0-0.8,0.1-1.2,0.1l2.2-3c0.2-0.3-0.2-0.5-0.4-0.3l-2.4,3.2c-0.5,0-0.9,0-1.4,0L61,9.3c0.2-0.3-0.2-0.5-0.4-0.3L58,12.4h-0.4
		h-0.7L59.4,9c0.2-0.3-0.3-0.5-0.4-0.3l-2.7,3.7l-1.1-0.1l2.3-2.8c0.2-0.3-0.2-0.6-0.4-0.4l-2.6,3.1h-1.3l2.5-2.8
		c0.2-0.3-0.1-0.6-0.3-0.4l-2.7,3.2l0,0c-0.6,0-1.2-0.1-1.8-0.1l2.8-3c0.2-0.2-0.1-0.6-0.4-0.3l-3.1,3.3H50c-0.5,0-0.9-0.1-1.4-0.2
		l2.3-2.7c0.2-0.2-0.1-0.6-0.4-0.3l-2.4,2.8c-0.1,0.1-0.1,0.1-0.1,0.2c-0.4-0.1-0.8-0.2-1.2-0.3l1.5-1.9c0.2-0.3-0.2-0.6-0.4-0.4
		l-1.6,2c0,0,0,0,0,0.1c-0.4-0.1-0.8-0.3-1.2-0.5l1.3-1.5c0.2-0.2-0.2-0.6-0.4-0.4l-1.4,1.6c-0.4-0.2-0.7-0.5-1-0.7l1.5-1.5
		c0.2-0.2-0.1-0.6-0.3-0.3l-1.6,1.6C43.2,9.4,43,9.2,42.8,9l1.1-1.1c0.1-0.1,0.1-0.3,0-0.4s-0.3-0.1-0.4,0l-1,1C41,6,42.3,3,45,1.8z
		 M9.9,48.1l2.9-2.3c0.3-0.2-0.1-0.6-0.4-0.3l-2.3,1.8c0.2-0.7,0.3-1.3,0.5-2l2.5-1.8c0.3-0.2,0-0.6-0.3-0.4l-2,1.5
		c0.2-0.7,0.4-1.4,0.5-2.1c0.1,0.1,0.2,0.1,0.3,0c1.4-1.1,2.8-2.2,4.2-3.3c0.3-0.2-0.1-0.6-0.3-0.3l-4.1,3.2c0,0,0,0,0-0.1l0.9-3.2
		l1.8-1.5c0.3-0.2-0.1-0.6-0.3-0.3l-1.1,0.9c0.2-0.6,0.3-1.1,0.5-1.7l2.1-1.8c0.3-0.2-0.1-0.6-0.3-0.3l-1.6,1.3
		c0.3-1,0.5-1.9,0.8-2.9l2.4-2.1c0.2-0.2-0.1-0.6-0.4-0.4l-1.8,1.6l0.4-1.6l2.1-1.6c0.3-0.2,0-0.6-0.3-0.4L15,29
		c0.3-1,0.6-2.1,0.8-3.2l2.4-2c0.2-0.2-0.1-0.6-0.4-0.3l-1.8,1.5c0.1-0.5,0.3-1,0.4-1.6l2.2-1.7c0.3-0.2,0-0.6-0.3-0.4l-1.7,1.3
		l0.6-2.1l1-0.6c0.3-0.2,0-0.6-0.3-0.4l-0.6,0.3c0.1-0.5,0.3-1.1,0.4-1.6l0,0l1.8-1.3c0.3-0.2,0-0.6-0.3-0.4l-1.3,0.9
		c0.2-0.7,0.4-1.4,0.6-2.2c0.1,0,0.1,0,0.2-0.1l1.2-1.1c0.2-0.2-0.1-0.6-0.4-0.4l-0.9,0.8c0.1-0.4,0.2-0.8,0.3-1.2c0,0,0,0,0.1-0.1
		c1.3-3.6,7.2-3.6,10.3-4C31.9,9,34.1,9,36.4,9.1l-0.9,0.7c-0.3,0.2,0,0.6,0.3,0.4c0.5-0.3,0.9-0.7,1.4-1c0,0,0.1,0,0.1-0.1h1.7
		l-1.6,1c-0.3,0.2,0,0.6,0.3,0.4l2.3-1.5c0.8,0,1.5,0,2.2,0c0.1,0.1,0.2,0.3,0.3,0.4c0.1,0.2,0.2,0.3,0.4,0.5c-0.1,0-0.1,0-0.2,0
		l-2.5,1.9c-0.3,0.2,0,0.6,0.3,0.4l2.5-1.9c0.1-0.1,0.1-0.2,0.1-0.3c0.3,0.4,0.7,0.7,1.1,1l-1.7,1.2c-0.3,0.2,0,0.6,0.3,0.4l1.9-1.3
		l0,0c1,0.6,2,1,3.1,1.2l-1,0.6c-0.3,0.2,0,0.6,0.3,0.4l1.4-0.9l0,0c0.4,0.1,0.8,0.1,1.2,0.2l-1.1,1.1c0,0-0.1,0.1-0.1,0.2L35.5,15
		L29,15.3l-3.3,0.2c-0.8,0-1.8-0.1-2.3,0.7c-0.3,1.1-0.5,2.2-0.6,3.3c-0.3,1.3-0.5,2.5-0.8,3.8c-0.5,2.5-1,5-1.4,7.6
		s-1.2,5.3-1.7,7.9c-0.3,1.3-0.5,2.6-0.7,3.9c-0.1,0.7-0.5,2.4,0,3S21,46,21.7,46c2.6,0.1,5.2,0.2,7.8,0.2c5.2,0.1,10.3,0,15.5,0
		h1.9c0.3,0,0.5-0.2,0.5-0.5c0.4-10.3,0.9-20.7,1.2-31.1c0-0.1,0-0.2-0.1-0.3L50,13c2.4,0.2,4.8,0.1,6.9,0.2
		c1.6,0.1,3.2,0.1,4.8-0.1l0,0c0.9-0.1,1.7-0.3,2.5-0.5c0.1,0,0.2,0,0.3-0.1l0,0c1.6-0.5,2.9-1.6,3.7-3.1c4,0.6,8.2-0.3,12.2,0.5
		c2.4,0.3,4.5,1.5,6,3.3c1.2,2,2.1,4.2,2.6,6.5c2.7,9.9,4.5,20,5.4,30.2c-1.9-0.7-4.1-0.6-6.1-0.6l-10.9,0.1
		c-14.9,0.1-29.8,0.2-44.7,0.4C26.3,50,19.7,50,13.1,50.1l2-1.7c0.2-0.2-0.1-0.6-0.4-0.4l-2,1.8c-0.1,0.1-0.1,0.2,0,0.3c0,0,0,0,0,0
		l-2.9,0.1l3-1.9c0.3-0.2,0-0.6-0.3-0.4l-3.5,2.2C9.4,49.4,9.6,48.8,9.9,48.1z M47.7,15.2c-0.6,10-0.9,20.1-1.3,30.1
		c-9.2-0.1-18.4-0.5-27.6-0.5c1.3-4.7,1.9-9.7,2.8-14.5c0.8-4.6,1.8-9.2,2.4-13.8L47.7,15.2z M7.4,56.1c-0.5-1-0.6-2-0.4-3.1
		c0.1-1,1-1.5,1.7-2c1-0.7,2.2-0.3,3.3-0.3c2.6,0,5.3,0,7.9,0c5.2,0,10.5-0.1,15.7-0.1l9.6-0.1c12.7-0.1,25.3-0.2,38-0.3
		c3.2,0,6.6-0.4,9.8,0.2c1.5,0.3,3.2,1.1,3.6,2.7c0.2,0.8,0.2,2.4-0.6,3s-2.6,0.3-3.6,0.3s-2,0-2.9,0.1c-1.8,0.2-3.4,0.1-5.2,0.2
		l-5.5,0.2c-10.4,0.3-20.8,0.9-31.3,0.9l-23.8,0.7c-3.7,0.3-7.5,0.3-11.3,0.2C10.6,58.5,8.4,57.9,7.4,56.1z M9.3,58.8
		c0.1,0.1,0.2,0.1,0.3,0.1c0.6,0.2,1.2,0.4,1.8,0.5L10,60.9c0,0.1-0.1,0.1-0.1,0.2C9.7,60.3,9.5,59.6,9.3,58.8z M9.9,61.2
		c0,0.1,0.1,0.2,0.3,0.2c0.1,0,0.1,0,0.1-0.1l1.6-1.7l0,0c0.6,0.1,1.2,0.1,1.7,0.1c-0.7,0.8-1.4,1.5-2.2,2.2
		c-0.2,0.2,0.1,0.6,0.3,0.3l2.3-2.3c0-0.1,0-0.2,0-0.2c0.7,0,1.3,0,2-0.1l-2.7,2.9c-0.2,0.2,0.1,0.6,0.4,0.3l3.1-3.3h0.5h1.2
		c-1.1,1.1-2.3,2.3-3.4,3.4c-0.2,0.2,0.1,0.6,0.3,0.4l3.8-3.8h1.5l-3,3.1c-0.2,0.2,0.1,0.6,0.3,0.4l3.3-3.5H23l-2.4,2.8
		c-0.2,0.2,0.2,0.6,0.4,0.4l2.8-3.4h1.4c-0.8,0.9-1.5,1.8-2.2,2.7c-0.2,0.3,0.2,0.6,0.3,0.4l2.6-3l1.7-0.1L25.2,62
		c-0.2,0.2,0.1,0.6,0.3,0.4l2.6-3l0,0h0.2l2-0.1l-2.8,2.8c-0.1,0.1-0.1,0.3,0,0.4s0.3,0.1,0.4,0l3.3-3.3l1.9-0.1
		c-0.6,1.1-1.5,2-2.4,2.8c-0.3,0.2,0.1,0.6,0.4,0.4c1.1-0.9,2-1.9,2.7-3.2h1.6L33,61.5c-0.2,0.2,0.1,0.6,0.3,0.4l2.4-2.7
		c0,0,0-0.1,0.1-0.1h1.2c-0.8,0.8-1.5,1.8-2,2.9c-0.1,0.3,0.3,0.6,0.4,0.3c0.6-1.2,1.4-2.3,2.3-3.2l2.4-0.1l-2.1,2.3
		c-0.2,0.2,0.1,0.6,0.4,0.4c0.8-0.9,1.6-1.8,2.4-2.7l2.7-0.1l-2.4,2.9c-0.2,0.3,0.2,0.6,0.4,0.4c0.8-1,1.6-2,2.4-3
		c0.1-0.1,0.1-0.2,0-0.3l1.9-0.1l-2.6,2.7c-0.2,0.2,0.1,0.6,0.4,0.4c0.9-1,1.9-2,2.8-2.9c0,0,0.1-0.1,0.1-0.2h1.8l-2.3,2.8
		c-0.2,0.3,0.2,0.6,0.3,0.4l2.6-3.2l2.1-0.1L49,61.3c-0.2,0.3,0.2,0.5,0.4,0.3l2.3-3H53l-2,2.3c-0.2,0.2,0.1,0.6,0.4,0.4
		c0.8-0.9,1.6-1.8,2.4-2.7l1.6-0.1c-0.6,0.9-1.2,1.8-1.8,2.7c-0.2,0.3,0.3,0.5,0.4,0.3c0.7-1,1.3-2,2-3h1.3
		c-0.8,0.9-1.5,1.8-2.2,2.7c-0.2,0.3,0.2,0.6,0.3,0.4l2.5-3.2l2.3-0.1l-2.4,2.9c-0.2,0.3,0.2,0.6,0.4,0.4l2.7-3.2l0,0l1.9-0.1
		l-2.2,2.3c-0.2,0.2,0.1,0.6,0.4,0.4l2.4-2.6c0,0,0-0.1,0.1-0.1h1.9l-2,2.3c-0.2,0.3,0.1,0.6,0.4,0.4l2.3-2.7l1.6-0.1l-2.1,2
		c-0.2,0.2,0.1,0.6,0.4,0.4l2.4-2.3v-0.1l2-0.1l-2.2,2.4c-0.2,0.2,0.1,0.6,0.3,0.4l2.5-2.9l0,0l2.2-0.1l-2.4,2.9
		c-0.2,0.3,0.2,0.6,0.3,0.3l2.6-3.2c0,0,0,0,0-0.1h1.5l-2.2,2.2c-0.2,0.2,0.1,0.6,0.4,0.4l2.6-2.7h1.7L75,60.7
		c-0.2,0.2,0.1,0.6,0.3,0.4l2.9-3.1c0-0.1,0.1-0.1,0.1-0.2h1.3l-2.2,2.6c-0.2,0.3,0.2,0.6,0.4,0.4l2.5-2.9H82l-2.6,2.9
		c-0.2,0.2,0.1,0.6,0.4,0.3l2.7-2.9c0,0,0.1-0.1,0.1-0.2c0.1,0,0.1-0.1,0.2-0.1h1.5l-1.8,2.1c-0.2,0.2,0.1,0.6,0.4,0.3
		c0.7-0.8,1.4-1.7,2.1-2.5l2.5-0.1c-0.7,1-1.6,1.9-2.4,2.7c-0.2,0.2,0.1,0.6,0.4,0.4c1-1,1.9-2,2.7-3.1h1.5l-2.3,2.6
		c-0.2,0.3,0.1,0.6,0.4,0.4l2.6-3.2l0,0l1.6-0.1l-2.4,3c-0.2,0.3,0.1,0.6,0.4,0.4l2.8-3.4h1.1l-2.4,3.8c-0.2,0.3,0.3,0.5,0.4,0.3
		l2.6-4.1c0,0,0-0.1,0-0.1h0.1c-0.2,1.1-0.4,2.1-0.6,3.2l0,0c-0.1-0.1-0.3,0-0.3,0.1c0,0,0,0,0,0c-0.4,0.6-0.7,1.2-1.1,1.8
		c0,0.1,0,0.3,0.2,0.3c0.1,0,0.2,0,0.3-0.1l0.9-1.5c-0.2,0.8-0.3,1.6-0.3,2.4c-2.7-0.9-5.6-1.4-8.4-1.3c-6.1-0.1-12.3,0.3-18.4,0.6
		c-13.2,0.5-26.3,0.9-39.5,1.4c-2.8,0.1-5.6,0.2-8.4,0.4c-1.4,0.1-2.8,0.3-4.1,0.5L11,65.3c0,0-0.7-2.4-0.8-3
		C10.2,62,10,61.6,9.9,61.2z M9.2,71.5c-0.8-0.7-1.9-2.7-1-3.6c0.6-0.6,1.2-1.1,2-1.5c0.8-0.2,1.6-0.4,2.4-0.4
		c2-0.3,3.9-0.5,5.9-0.7c3.9-0.3,7.9-0.4,11.8-0.5l23.7-0.8l23.7-0.8c4-0.1,8-0.4,11.9,0.3c2.5,0.5,9.5,2.6,6.3,6.3
		c-0.8,0.8-1.8,1.3-2.9,1.5c-2.9,0.6-6.1,0.3-9.1,0.4L64.4,72c-13,0.3-26,0.6-39,0.9c-3.6,0.1-7.2,0.4-10.8,0.2
		C12.6,73.3,10.7,72.7,9.2,71.5z M11.3,73.6l0.1,0.1c0,0.1,0.1,0.1,0.2,0c0,0,0,0,0,0c0.4,0.1,0.7,0.2,1.1,0.3l0.7,0.1L12,75.5
		c0,0.1-0.1,0.1-0.1,0.2C11.7,75,11.5,74.3,11.3,73.6z M16.6,92.8l3.3-2.9c0.3-0.2-0.1-0.6-0.3-0.4l-3.1,2.7
		c-0.2-0.6-0.3-1.2-0.5-1.8l3.6-3.3c0.2-0.2-0.1-0.6-0.4-0.4l-3.4,3.1c-0.5-1.6-1-3.2-1.4-4.8c0,0,0,0,0.1,0l2.9-2.5
		c0.2-0.2-0.1-0.6-0.4-0.4l-2.8,2.4c0-0.1-0.1-0.3-0.1-0.4c-0.1-0.5-0.3-0.9-0.4-1.4l1.3-1.3c0.2-0.2-0.1-0.6-0.4-0.4l-1.1,1
		c-0.5-2.2-1.1-4.3-1.7-6.4c0.1,0.1,0.2,0.2,0.3,0.1c0,0,0,0,0.1,0l1.6-1.7c0,0,0.1-0.1,0.1-0.1c0.4,0,0.8,0.1,1.2,0.1l-1.5,1.7
		c-0.2,0.2,0.2,0.6,0.4,0.4l1.8-2c0.5,0,1.1,0,1.7,0L15,77.2c-0.2,0.2,0.2,0.6,0.4,0.3c0.9-1.1,1.9-2.3,2.8-3.4l1.6-0.1l-4.1,4.6
		c-0.2,0.2,0.1,0.6,0.4,0.3l4.4-4.9c0,0,0-0.1,0-0.1l2.1-0.1l-3.4,3.8c-0.2,0.2,0.1,0.6,0.3,0.3l3.7-4.2l1.7-0.1l-2.9,3.2
		c-0.2,0.2,0.1,0.6,0.4,0.4c1-1.1,2-2.3,3-3.4c0-0.1,0.1-0.1,0.1-0.2h1.3l0,0l-0.1,0.1l-2.5,2.9c-0.2,0.2,0.1,0.6,0.4,0.4
		c0.8-1,1.7-1.9,2.5-2.9c0-0.1,0.1-0.1,0.1-0.2c0.1,0,0.2-0.2,0.2-0.3h1l-3,3.4c-0.2,0.2,0.1,0.6,0.4,0.4l3.1-3.4
		c0.1-0.1,0.1-0.2,0-0.3l2.4-0.1L29,76.2c-0.2,0.3,0.2,0.6,0.4,0.4l2.2-2.7c0-0.1,0-0.2,0-0.2h1.5l-1.6,1.6c-0.1,0.1-0.1,0.3,0,0.4
		c0.1,0.1,0.3,0.1,0.4,0l2-2h1.9l-0.1,0.1l-1.5,1.8c-0.2,0.3,0.2,0.6,0.4,0.3L36,74c0.1-0.1,0.1-0.2,0-0.3l0,0
		c0.1,0,0.2-0.1,0.2-0.2h1.5l-1.8,2c-0.2,0.2,0.1,0.6,0.4,0.3l2.1-2.3h1.4L38,76c-0.2,0.3,0.2,0.5,0.4,0.3l2.1-2.7h1.7l-2.4,2.7
		c-0.2,0.2,0.1,0.6,0.3,0.3l2.7-3.2c0.7,0,1.4,0,2.2-0.1l-2,2.3c-0.2,0.2,0.1,0.6,0.3,0.3l2.3-2.5l2.8-0.1l-2.1,2.6
		c-0.2,0.3,0.2,0.6,0.4,0.3l2.3-2.8c0-0.1,0.1-0.1,0.1-0.2l1.9-0.1l-1.4,1.8c-0.2,0.3,0.2,0.6,0.3,0.4l1.7-2.1h2.1l-2.5,2.8
		c-0.2,0.2,0.2,0.6,0.4,0.3l2.6-3c0.1-0.1,0.1-0.1,0.1-0.2h1.8c-0.7,0.8-1.3,1.5-2,2.3c-0.2,0.3,0.2,0.6,0.4,0.4
		c0.8-0.9,1.5-1.8,2.3-2.7h1.7l-1.8,2.5c-0.2,0.3,0.2,0.5,0.4,0.3l2-2.8l2.2-0.1l-1.6,2.2c-0.2,0.3,0.2,0.5,0.4,0.3
		c0.6-0.8,1.2-1.7,1.8-2.5l1.9-0.1l-2.8,2.9c-0.2,0.2,0.1,0.6,0.3,0.4l3.1-3.3h0.6h1.3l-3,3.1c-0.2,0.2,0.1,0.6,0.3,0.3l3.4-3.5h1.4
		L66,76.1c-0.2,0.3,0.2,0.6,0.3,0.3l2.7-3.4c0,0,0.1-0.1,0.1-0.2h1.5l-2.2,2.4c-0.2,0.3,0.2,0.6,0.3,0.4l2.3-2.8c0-0.1,0-0.1,0-0.2
		h2.4l-2,2.2c-0.2,0.2,0.1,0.6,0.4,0.4c0.7-0.8,1.4-1.6,2.1-2.3c0.1-0.1,0.1-0.1,0.1-0.2h1.4l-2,2.2c-0.2,0.2,0.1,0.6,0.3,0.4
		l2.1-2.4c0,0,0.1-0.1,0.1-0.2h2.4l-2,2.3c-0.2,0.2,0.2,0.6,0.4,0.3l2.1-2.4c0-0.1,0-0.2,0-0.3l3.1-0.1L79.8,75
		c-0.1,0.1-0.1,0.3,0,0.4s0.3,0.1,0.4,0l2.6-2.7v-0.1l3.7-0.1l-3.1,4c-0.2,0.3,0.1,0.6,0.4,0.4c1.1-1.4,2.2-2.8,3.3-4.2
		c0.1,0,0.2-0.1,0.2-0.3c0,0,0,0,0,0l1.6-0.1L86,75.5c-0.2,0.3,0.1,0.6,0.4,0.4l2.9-3.4c0,0,0.1-0.1,0.1-0.2l1.8-0.1h0.4l0,0
		l-3.1,3.7c-0.2,0.3,0.1,0.6,0.4,0.4c1-1.2,2.1-2.4,3.1-3.7c0.1-0.1,0.1-0.3,0-0.4c0,0,0,0-0.1,0l0.6-0.1c-0.2,0.8-0.4,1.6-0.6,2.4
		c-0.7,0.9-1.4,1.8-2.1,2.7c-0.2,0.3,0.1,0.6,0.4,0.4l1.6-2c-0.6,2.8-1,5.7-1.5,8.5c-0.7,4.1-1.5,8.2-2.2,12.4
		C76,96.3,64.1,96.2,52.2,96l-16.3-0.2c-0.1-0.1-0.2-0.1-0.3,0h-1.1l-9.1-0.1c-2.3-0.1-4.5-0.1-6.8,0l2.8-2.4
		c0.3-0.2-0.1-0.6-0.4-0.4c-1.2,0.9-2.3,1.9-3.5,2.8l-0.5,0.1c0.1-0.1,0.1-0.2,0.1-0.3c-0.1-0.3-0.1-0.6-0.2-0.9
		c0.1,0.1,0.3,0.1,0.4,0l2.9-2.4c0.3-0.2-0.1-0.6-0.4-0.3l-2.9,2.5c0,0-0.1,0-0.1,0.1C16.9,93.8,16.8,93.3,16.6,92.8z M24.6,104.1
		h1.7l0,0l-2.8,3.4C23.8,106.3,24.2,105.2,24.6,104.1z M83.6,117.3c0.5,1.5,0.9,3.1,1.3,4.6l0.1,0.4c-11.3,0.2-22.6,0.3-33.9,0.5
		c-11.2,0.2-22.4,0-33.6,0.5c0.1-0.4,0.3-0.8,0.4-1.2c0.4-1.2,0.9-2.4,1.3-3.6l0,0c10.6,0.2,21.3-0.3,32-0.5s21.3-0.2,32-0.5
		C83.5,117.5,83.6,117.4,83.6,117.3z M83.5,116.9c-0.1,0-0.1-0.1-0.2-0.1c-10.7,0-21.3,0.3-32,0.4s-21.2,0-31.8,0.5
		c1.1-3,2.2-6,3.3-9l3.7-4.4c0.1-0.1,0.1-0.3,0-0.4c0,0,0,0,0,0h1.7l-3.3,3.9c-0.2,0.3,0.2,0.6,0.4,0.4l3.6-4.3h1.6l-4,4
		c-0.2,0.2,0.1,0.6,0.3,0.4l4.4-4.4l0,0h1.3l-4.3,4.5c-0.2,0.2,0.1,0.6,0.4,0.4l4.6-4.9l0,0l4.3-0.2l-4.3,4.4
		c-0.2,0.2,0.1,0.6,0.3,0.4l4.6-4.8l0,0l1.9-0.1c-1.1,1.2-2.1,2.3-3.2,3.5c-0.2,0.2,0.1,0.6,0.4,0.4l3.4-3.8c0,0,0.1-0.1,0.1-0.1
		l1.8-0.1c-0.9,1.1-1.8,2.1-2.8,3.2c-0.2,0.2,0.2,0.6,0.4,0.4l3.1-3.6l1.8-0.1l-3.4,3.3c-0.2,0.2,0.1,0.6,0.3,0.4l3.8-3.7h1.1
		l-3.2,4.1c-0.2,0.3,0.2,0.6,0.3,0.4l3.3-4.3c0-0.1,0-0.2,0-0.3l1.9-0.1l-2.8,4.1c-0.2,0.3,0.3,0.5,0.4,0.3l2.8-4.1
		c0.1-0.1,0.1-0.2,0-0.3h2l-3.8,4.4c-0.2,0.3,0.1,0.6,0.3,0.4l3.9-4.5c0-0.1,0.1-0.1,0.1-0.2h1.4l-2.7,3c-0.2,0.2,0.1,0.6,0.3,0.4
		c1-1.1,2-2.3,3-3.4h2l-2.3,3c-0.2,0.3,0.2,0.6,0.4,0.4l2.6-3.4h2.4l-2.8,4c-0.2,0.3,0.3,0.5,0.4,0.3c1-1.4,2-2.9,3-4.3h1.1
		c-0.6,0.8-1.3,1.5-1.9,2.3c-0.2,0.3,0.2,0.6,0.4,0.4l2.1-2.5c0,0,0-0.1,0-0.1h1.7c-0.6,1.3-1.4,2.5-2.4,3.6
		c-0.2,0.2,0.1,0.6,0.3,0.4c1.1-1.1,2-2.4,2.6-3.8c0,0,0-0.1,0-0.1h1.8l-2.6,3.3c-0.2,0.3,0.2,0.6,0.3,0.4l2.9-3.6
		c0.8,0,1.6,0,2.4,0.1l-2.8,3.8c-0.2,0.3,0.2,0.5,0.4,0.3l3-4.1h0.6l1.8,0.1l-3,3.7c-0.2,0.3,0.2,0.6,0.4,0.4l3.3-4l1.7,0.1
		c-0.8,1.4-1.8,2.7-3,3.8c-0.2,0.2,0.1,0.6,0.4,0.4c1.3-1.2,2.4-2.6,3.3-4.1l2.4,0.2l-3.5,3.6c-0.1,0.1-0.1,0.3,0,0.4s0.3,0.1,0.4,0
		l3.6-3.7c0-0.1,0-0.2,0-0.2l1.4,0.1l-3.2,4.4c-0.2,0.3,0.3,0.5,0.4,0.3l3.3-4.6l0,0l0.6,0.1C80.9,108.2,82.2,112.6,83.5,116.9z
		 M70.6,102.4c-5.9-0.2-11.9-0.2-17.8-0.1c-11.6,0.2-23.4,0.2-34.9,1.2c-0.9-0.7-1.6-1.6-2-2.7c-0.7-2.5,0.5-3.6,2.3-4.1l-1.8,2.2
		c-0.2,0.3,0.2,0.6,0.4,0.3l1.8-2.3c0.1-0.1,0.1-0.3,0-0.4c0,0,0,0,0,0c0.8-0.2,1.6-0.3,2.4-0.3c-1.1,1.3-2.1,2.5-3.2,3.8
		c-0.2,0.3,0.2,0.6,0.3,0.4l3.5-4.2c0.4,0,0.8,0,1.3,0l-2.6,3.6c-0.2,0.3,0.2,0.5,0.4,0.3c0.9-1.3,1.9-2.6,2.8-3.9l1.3,0.1l-2.3,3
		c-0.2,0.3,0.2,0.5,0.4,0.3l2.4-3.2h1.3l-2.4,2.9c-0.2,0.3,0.2,0.6,0.4,0.4c0.9-1.1,1.8-2.1,2.6-3.2c0,0,0-0.1,0-0.1h1l-1.8,2.1
		c-0.2,0.2,0.1,0.6,0.3,0.3c0.7-0.8,1.3-1.6,2-2.3c0,0,0,0,0-0.1h2.1l-2.7,3.4c-0.2,0.3,0.2,0.5,0.4,0.3l2.8-3.7l0,0H33l-2.1,2.9
		c-0.2,0.3,0.3,0.5,0.4,0.3c0.8-1.1,1.5-2.1,2.3-3.2h1.2l-2,2.9c-0.2,0.3,0.3,0.5,0.4,0.3l2.2-3.2h2l-2.6,3.2
		c-0.2,0.3,0.2,0.6,0.4,0.4l2.9-3.6h1.6l-2,2.9c-0.2,0.3,0.3,0.5,0.4,0.3l2.2-3.2h1.2l-2.5,3.3c-0.2,0.3,0.2,0.5,0.4,0.3
		c0.9-1.2,1.8-2.3,2.7-3.5h1.7l-2.4,3c-0.2,0.3,0.2,0.6,0.4,0.4l2.7-3.4h1.6c-0.6,0.8-1.2,1.7-1.8,2.5c-0.2,0.3,0.3,0.5,0.4,0.3
		l2-2.8h1.4l-2.2,3.2c-0.2,0.3,0.3,0.5,0.4,0.3l2.4-3.4l0,0h1.8L48,99.7c-0.2,0.3,0.2,0.6,0.4,0.4l2.7-3.3c0,0,0.1-0.1,0.1-0.2h1.1
		h3.3L52.8,99c-0.2,0.2,0.1,0.6,0.4,0.4l2.8-2.6c0,0,0.1-0.1,0.1-0.2h1.6L55,99.9c-0.2,0.3,0.2,0.6,0.4,0.4l2.7-3.4
		c0.1-0.1,0.1-0.2,0-0.3l5.2,0.1l-1.9,2.9c-0.2,0.3,0.3,0.5,0.4,0.3l2.1-3.2h0.9l-1.6,2.5c-0.2,0.3,0.3,0.5,0.4,0.3
		c0.6-0.8,1.1-1.6,1.7-2.4v-0.1h2l-2.6,3.2c-0.2,0.2,0.2,0.6,0.3,0.4l2.8-3.5c0,0,0-0.1,0-0.1h1.6l-1.9,2.7
		c-0.2,0.3,0.3,0.5,0.4,0.3l2.1-3h1.6c0.1,0.1,0.2,0.1,0.3,0h1c-0.5,0.8-1,1.6-1.6,2.3c-0.2,0.3,0.3,0.5,0.4,0.3l1.7-2.6l0,0h1.2
		l-2.5,3.6c-0.2,0.3,0.3,0.5,0.4,0.3l2.7-3.8c0,0,0,0,0-0.1h1.3l-2.2,3.4c-0.2,0.3,0.3,0.5,0.4,0.3l2.2-3.4c0.1-0.1,0.1-0.2,0-0.3
		h2.3l-2.2,3.4c-0.2,0.3,0.3,0.5,0.4,0.3l2.5-3.5h1.4l-1.7,2.5c-0.2,0.3,0.3,0.5,0.4,0.3l1.9-2.7h1.3l-2.2,3.2
		c-0.2,0.3,0.3,0.5,0.4,0.3l2.4-3.4h1c-0.7,1.3-1.4,2.5-2.1,3.8c-0.1,0.1,0,0.3,0.1,0.3s0.3,0,0.3-0.1c0.8-1.4,1.5-2.7,2.3-4l0,0
		h1.6c0,0-0.1,0.1-0.1,0.1l-2.8,4.8c-0.1,0.1,0,0.3,0.1,0.3s0.3,0,0.3-0.1l2.8-4.8c0.1-0.1,0-0.2-0.1-0.3c0,0,0,0,0,0H88
		c0.9,0.9,1.4,2.2,1.2,3.5c-0.2,1.5-1.2,2-2.3,2.9c0,0-0.1,0-0.1,0.1C81.5,102.9,76,102.5,70.6,102.4z"/>
	<path class="st0" d="M81.3,76l2.8-3.1c0.2-0.2-0.1-0.6-0.4-0.4L81,75.7C80.8,75.9,81.2,76.3,81.3,76z"/>
	<path class="st0" d="M21,85l2.7-2.9l0.1,1.3c-0.1,0-0.1,0-0.2,0.1L21,86.2c-0.2,0.2,0.1,0.6,0.3,0.4l2.4-2.5c0,0.3,0.1,0.8,0.1,1.3
		c0-0.1-0.2-0.2-0.3-0.1c0,0-0.1,0-0.1,0.1c-0.7,0.8-1.3,1.5-2,2.3c-0.2,0.2,0.1,0.6,0.3,0.3c0.7-0.8,1.3-1.5,2-2.3
		c0,0,0-0.1,0.1-0.1c0.1,0.6,0.1,1.2-0.1,1.8l-2,2.1c-0.2,0.2,0.1,0.6,0.3,0.3l1.7-1.8C24,88,24.1,88,24.1,88l1.1-0.1
		c-0.6,0.6-1.2,1.3-1.8,1.9c-0.2,0.2,0.1,0.6,0.4,0.3l2.2-2.3l0,0c0.7,0,1.3,0,2-0.1c-0.5,0.5-1,1-1.4,1.5c-0.2,0.2,0.1,0.6,0.4,0.3
		l1.8-1.9h1.7l-1.5,1.9c-0.2,0.3,0.2,0.6,0.4,0.3c0.6-0.7,1.2-1.5,1.8-2.2h2.3l-1.6,1.9c-0.2,0.2,0.2,0.6,0.4,0.3l1.8-2.2
		c0,0,0-0.1,0-0.1h2l-1.5,1.7c-0.2,0.3,0.1,0.6,0.4,0.4c0.6-0.7,1.2-1.3,1.8-1.9c0,0,0-0.1,0-0.1h1.9l-1.8,2
		c-0.2,0.2,0.1,0.6,0.4,0.4l2-2.2c0,0,0.1-0.1,0.1-0.1h1.5l-1.4,1.5c-0.2,0.2,0.1,0.6,0.4,0.3l1.7-1.8l0,0H42h0.5l-1.2,1.5
		c-0.2,0.3,0.2,0.6,0.3,0.4l1.4-1.8h0.3l-0.5,0.9c-0.1,0.1,0,0.3,0.1,0.3s0.3,0,0.3-0.1l0.7-1.2c0.3,0,0.5-0.1,0.8-0.2
		c0.2,0,0.3-0.1,0.4-0.3c0,0,0-0.1,0-0.1c0-1.9-0.2-3.8-0.4-5.7c-0.1-1,0-2.8-0.7-3.7c-0.1-0.1-0.3-0.2-0.4-0.1
		c-1.3-0.8-4.1-0.4-5.4-0.4c-3.3-0.1-6.5-0.1-9.8,0.2c-1.8,0.1-3.4,0.3-4.2,1.6h-0.1c-0.9,0.9-1.8,1.9-2.7,2.8
		c-0.2,0.2,0.1,0.6,0.4,0.4l2-2l-0.1,0.3c0,0.2,0,0.5-0.1,0.8l0,0c-1,1.1-2,2.2-3,3.3C20.4,84.9,20.8,85.3,21,85z M44.6,87
		C44.6,87,44.6,87,44.6,87z M25,79.5c0.8-1.2,2.7-1,4-1.1c2.8-0.2,5.6-0.3,8.4-0.3c1.3,0,2.7,0,4,0.1c0.7,0,1.4,0,2.1,0.1
		c0,0,0,0.1,0,0.1c0.7,0.9,0.5,2.9,0.7,4c0.1,0.9,0.2,1.8,0.2,2.7c0.2,0.7,0.2,1.4,0.1,2.1h-0.3c-0.4,0-0.8,0-1.1,0
		c-1.2,0-2.4,0-3.6,0c-4.9,0-9.9-0.3-14.8,0.1c0-0.4,0-0.8,0-1c0-1.2-0.1-2.3-0.1-3.5C24.4,81.6,24.5,80.5,25,79.5L25,79.5z"/>
	<path class="st0" d="M58.6,87.3l1.9-1.6v1l-2.1,1.8c-0.2,0.2,0.1,0.6,0.3,0.4l1.8-1.6c0,0,0,0,0.1,0.1c0.6,0.2,1.3,0.2,2,0.1
		l-1.9,1.7c-0.2,0.2,0.1,0.6,0.4,0.4l2.3-2.1h2l-1.9,1.8c-0.2,0.2,0.1,0.6,0.4,0.4l2.3-2.1h3l-2.3,2.1c-0.2,0.2,0.1,0.6,0.4,0.3
		l2.6-2.4h1.5L70,89.1c-0.2,0.3,0.1,0.6,0.4,0.4l1.7-1.9h2.5c-0.7,0.7-1.4,1.3-2.1,2c-0.2,0.2,0.1,0.6,0.4,0.3l2.5-2.4h1.3
		c-0.8,0.8-1.6,1.6-2.4,2.4c-0.1,0.1-0.1,0.3,0,0.4c0.1,0.1,0.3,0.1,0.4,0l0,0l2.7-2.8l0,0c0.5,0,0.9,0,1.4,0l-1.7,2
		c-0.2,0.3,0.2,0.6,0.4,0.3l1.9-2.4h0.9l-1,1.7c-0.1,0.1,0,0.3,0.1,0.3c0.1,0,0.2,0,0.3-0.1c0.4-0.6,0.7-1.2,1.1-1.8c0,0,0,0,0-0.1
		s0.8-0.1,0.9-0.5c0-0.6,0-1.1,0-1.7c0-0.6,0.2-1.2,0.2-1.8c0.1-1.1,0.1-2.2,0-3.3c-0.4-2.7-2.4-2.8-4.7-3c-3.3-0.2-6.5-0.3-9.8-0.2
		c-1.3,0-4.1-0.3-5.4,0.4c-0.1-0.1-0.3,0-0.4,0.1c-0.1,0.1-0.2,0.3-0.2,0.4L59.5,80c-0.2,0.2,0.1,0.6,0.4,0.4l1.1-1.2
		c-0.1,0.4-0.1,0.8-0.1,1.2c-0.7,0.8-1.4,1.5-2,2.3c-0.2,0.2,0.1,0.6,0.3,0.4l1.6-1.8c0,0.1,0,0.1,0,0.2c-0.1,0.5-0.1,1-0.2,1.5
		l-1.9,1.8c-0.2,0.2,0.1,0.6,0.4,0.4l1.5-1.4c0,0.5-0.1,1-0.1,1.5c-0.1,0-0.2,0-0.2,0.1l-2.1,1.7C58,87.2,58.4,87.6,58.6,87.3z
		 M61.2,84.8c0.1-0.9,0.1-1.8,0.2-2.7c0.1-1.1,0-3,0.7-4c0,0,0-0.1,0-0.1c0.7-0.1,1.4-0.1,2.1-0.1c1.3-0.1,2.7-0.1,4-0.1
		c2.8,0,5.6,0.1,8.4,0.3c1.3,0.1,3.3-0.1,4,1.2c0.4,1,0.6,2,0.4,3.1c0,1.2-0.1,2.3-0.1,3.5c0,0.3-0.1,0.7,0,1
		c-4.9-0.4-9.9-0.1-14.8,0h-2.5c-0.1,0-0.1,0-0.2,0h-0.9c-0.4,0-0.8,0-1.1,0c-0.1,0-0.2,0-0.3,0c0.1-0.1,0-0.2-0.1-0.3
		C61,86,61.1,85.4,61.2,84.8L61.2,84.8z"/>
	<path class="st0" d="M52.8,96.9c-0.5,0.7-0.9,1.4-1.4,2.2c-0.2,0.3,0.3,0.5,0.4,0.3c0.5-0.7,0.9-1.4,1.4-2.2
		C53.4,96.8,52.9,96.6,52.8,96.9z"/>
	<path class="st0" d="M59,97.1l-2.1,2.8c-0.2,0.3,0.2,0.5,0.4,0.3l2.1-2.8C59.6,97.1,59.2,96.8,59,97.1z"/>
	<path class="st0" d="M60.7,97.1l-1.9,2.8c-0.2,0.3,0.3,0.5,0.4,0.3l1.9-2.8C61.3,97.1,60.9,96.8,60.7,97.1z"/>
	<path class="st0" d="M71.5,97.1l-2.2,3c-0.2,0.3,0.2,0.5,0.4,0.3l2.2-3C72.2,97.1,71.7,96.8,71.5,97.1z"/>
	<path class="st0" d="M88.7,98.6c0.1-0.3-0.3-0.5-0.4-0.3l-1.8,3.4c-0.1,0.3,0.3,0.5,0.4,0.3C87.5,100.8,88.2,99.7,88.7,98.6z"/>
	<path class="st0" d="M18.3,71.5l12.2-0.4l24.7-0.7c0.3,0,0.3-0.5,0-0.5L33,70.6l-11,0.3L16.5,71c-1.7,0.1-5.1,0.7-5.6-1.5
		c0-0.1-0.2-0.2-0.3-0.2c-0.1,0-0.2,0.2-0.2,0.3c0.3,1,1.2,1.8,2.3,1.9C14.5,71.7,16.4,71.7,18.3,71.5z"/>
	<path class="st0" d="M59,70c-0.3,0-0.3,0.5,0,0.5l19.4-0.8l9.6-0.4c2.5-0.1,5.1-0.1,7.2-1.6c0.3-0.2,0-0.6-0.3-0.4
		c-2.4,1.7-5.5,1.4-8.2,1.5l-9.3,0.4L59,70z"/>
	<path class="st0" d="M20.5,56.5l18.8-0.3L77,55.7l10.3-0.2c2.4,0,4.9-0.1,6.9-1.7c0.3-0.2-0.1-0.6-0.4-0.4C91.7,55.1,89,55,86.5,55
		L78,55.2l-17.1,0.2L27,55.9L17.5,56c-1.6,0-3.1,0.1-4.7,0.1s-4.2-0.4-4.1-2.6c0-0.3-0.5-0.3-0.5,0c-0.1,1.9,1.7,2.9,3.4,3.1
		C14.6,56.7,17.6,56.7,20.5,56.5z"/>
	<path class="st0" d="M25.2,14.9l18.6-1.3c0.3,0,0.3-0.5,0-0.5l-18.6,1.3C24.9,14.4,24.9,14.9,25.2,14.9z"/>
	<path class="st0" d="M64.3,14.1l15.3,0.3c0.1,0,0.2-0.2,0.2-0.3c0-0.1-0.1-0.2-0.2-0.2l-15.3-0.2c-0.1,0-0.3,0.1-0.3,0.2
		C64.1,14,64.2,14.1,64.3,14.1z"/>
	<path class="st0" d="M27.2,30.8L36.3,19c0.2-0.3-0.2-0.6-0.4-0.4l-9.1,11.8C26.7,30.7,27,31.1,27.2,30.8z"/>
	<path class="st0" d="M33.3,28c0.9-1.1,1.7-2.2,2.6-3.3c0.2-0.3-0.2-0.6-0.4-0.4L33,27.6C32.8,27.9,33.2,28.2,33.3,28z"/>
	<path class="st0" d="M33,29.1c-0.2,0.3,0.2,0.6,0.4,0.4l3.2-4c0.2-0.3-0.2-0.6-0.3-0.3C35.2,26.5,34.1,27.8,33,29.1z"/>
	<path class="st0" d="M31,36.5c4.1-5.1,8.2-10.3,12.4-15.4c0.2-0.3-0.2-0.6-0.3-0.4L30.6,36.1C30.4,36.4,30.8,36.8,31,36.5z"/>
	<path class="st0" d="M42.1,27.7l-4.4,4.5c-0.2,0.2,0.1,0.6,0.3,0.4l4.4-4.5c0.1-0.1,0.1-0.3,0-0.4S42.2,27.6,42.1,27.7z"/>
	<path class="st0" d="M62.8,33.6c3.8-4.2,7.2-8.9,10.1-13.8c0-0.1,0-0.3-0.2-0.3c-0.1,0-0.2,0-0.3,0.1c-2.8,4.9-6.2,9.5-10,13.7
		C62.2,33.4,62.6,33.8,62.8,33.6z"/>
	<path class="st0" d="M70.9,27.1l-4,4.5c-0.2,0.3,0.1,0.6,0.4,0.4l4-4.5C71.5,27.2,71.2,26.9,70.9,27.1z"/>
	<path class="st0" d="M69.6,32.2l3.2-3.7c0.2-0.2-0.2-0.6-0.4-0.4l-3.2,3.7C69,32,69.3,32.4,69.6,32.2z"/>
	<path class="st0" d="M68.6,36.5L79,24.3c0.2-0.2-0.1-0.6-0.4-0.3c-3.5,4-6.9,8.1-10.4,12.2C68.1,36.4,68.4,36.8,68.6,36.5z"/>
	<path class="st0" d="M69.2,38.6c-0.3,0.2,0.1,0.6,0.3,0.4c3.7-2.8,7-6.1,9.8-9.7c0.2-0.3-0.1-0.6-0.4-0.4
		C76.2,32.6,72.9,35.8,69.2,38.6z"/>
	<path class="st0" d="M76.5,36l-1.1,1.3c-0.2,0.3,0.2,0.6,0.3,0.4l1.1-1.3C77.1,36.1,76.7,35.8,76.5,36z"/>
	<path class="st0" d="M18.9,35.5c1.2-5.9,2.5-11.7,3.7-17.6c0.1-0.3-0.4-0.5-0.5-0.1c-1.2,5.9-2.5,11.7-3.7,17.6
		C18.3,35.7,18.8,35.8,18.9,35.5z"/>
	<path class="st0" d="M18.5,47.5l28-0.3c0.1,0,0.3-0.1,0.3-0.3s-0.1-0.3-0.3-0.3l-28,0.3c-0.1,0-0.3,0.1-0.3,0.3
		S18.3,47.5,18.5,47.5z"/>
	<path class="st0" d="M56.7,42c0,0.1,0.2,0.2,0.3,0.2c0.1,0,0.2-0.1,0.2-0.2c0.1-7.8-0.1-15.7-0.8-23.5c0-0.3-0.5-0.3-0.5,0
		C56.6,26.3,56.8,34.2,56.7,42z"/>
	<path class="st0" d="M83.7,46.4l-21.4,0.8c-0.3,0-0.3,0.5,0,0.5l21.4-0.8C84,46.9,84,46.4,83.7,46.4z"/>
	<path class="st0" d="M52.8,47.2c0.2-10.5,0.3-21,0.5-31.5c0-0.3-0.5-0.3-0.5,0l-0.5,31.5c0,0.1,0.1,0.3,0.3,0.3
		S52.8,47.3,52.8,47.2z"/>
	<path class="st0" d="M26,86.1c0,0.1,0,0.3,0.1,0.3c0,0,0.1,0,0.1,0L42,86.1c0.1,0,0.2-0.2,0.2-0.3c0-0.1-0.1-0.2-0.2-0.2l-15.7,0.3
		c0,0,0,0,0-0.1c-0.1-2-0.2-4-0.2-5.9c0-0.1-0.1-0.3-0.3-0.3s-0.3,0.1-0.3,0.3c0.1,2,0.2,4,0.2,5.9C25.8,86,25.8,86.1,26,86.1z"/>
	<path class="st0" d="M62.5,86.3l17-0.3c0.3,0,0.3-0.5,0-0.5l-16.7,0.3c0,0,0,0,0-0.1l0.2-6.7c0-0.1-0.1-0.3-0.3-0.3
		s-0.3,0.1-0.3,0.3c0,2.2-0.1,4.4-0.2,6.7c0,0,0,0.1,0,0.1c-0.1,0.1-0.2,0.2-0.1,0.3S62.4,86.4,62.5,86.3z"/>
	<path class="st0" d="M17.7,67.3l51.4-1.9l14.6-0.5c0.3,0,0.3-0.5,0-0.5l-51.4,1.8l-14.6,0.5C17.4,66.8,17.4,67.3,17.7,67.3z"/>
	<path class="st0" d="M17.6,84.2l-2.4,2.7c-0.2,0.2,0.1,0.6,0.4,0.3l2.4-2.6C18.2,84.3,17.8,83.9,17.6,84.2z"/>
	<path class="st0" d="M24,93.1l-2.1,1.7c-0.3,0.2,0.1,0.6,0.3,0.4l2.1-1.7C24.6,93.3,24.2,92.9,24,93.1z"/>
	<path class="st0" d="M27.5,92.6l-2.7,2.3c-0.3,0.2,0.1,0.6,0.4,0.4l2.7-2.3C28.2,92.8,27.8,92.4,27.5,92.6z"/>
	<path class="st0" d="M38.7,11.5l3-1.8c0.3-0.2,0-0.6-0.3-0.4l-3,1.8c-0.1,0.1-0.1,0.2-0.1,0.3C38.4,11.5,38.6,11.5,38.7,11.5z"/>
	<path class="st0" d="M44.6,13.4l1-0.8c0.3-0.2,0-0.6-0.3-0.4l-1,0.8C44.1,13.2,44.3,13.6,44.6,13.4z"/>
	<path class="st0" d="M34.7,103.9l-3.9,4.4c-0.2,0.2,0.1,0.6,0.4,0.4l3.9-4.4C35.3,104,34.9,103.6,34.7,103.9z"/>
	<path class="st0" d="M79.5,105.3c-0.3,0.6-0.7,1.1-1,1.6c-0.1,0.1,0,0.3,0.1,0.3c0.1,0.1,0.3,0,0.3-0.1c0.3-0.6,0.7-1.1,1-1.6
		C80.1,105.3,79.6,105,79.5,105.3z"/>
	<path class="st0" d="M8.2,136.8c4.4-10.4,8.7-20.8,13.1-31.2c0.1-0.3-0.4-0.4-0.5-0.1c-4.4,10.4-8.7,20.8-13.1,31.2
		C7.6,136.9,8.2,137.1,8.2,136.8z"/>
	<path class="st0" d="M84.8,106.6c2,7.2,4,14.4,6.1,21.6c0,0.1,0.2,0.2,0.3,0.2c0.1,0,0.2-0.2,0.2-0.3c-2-7.2-4-14.4-6.1-21.6
		C85.2,106.1,84.7,106.2,84.8,106.6z"/>
	<path class="st0" d="M79.3,120.1c-19.6-0.8-39.2-0.2-58.7,1.6c-0.3,0-0.3,0.5,0,0.5c19.5-1.9,39.1-2.4,58.7-1.6
		c0.1,0,0.2-0.2,0.2-0.3C79.5,120.2,79.4,120.2,79.3,120.1z"/>
	<path class="st0" d="M44.6,7c-1.3-4.2,7.1-3.8,9.4-3.8c1.8,0,3.6,0.1,5.4,0.3c1.8,0.2,4.6,0.3,4.9,2.5c0,0.3,0.5,0.2,0.5-0.1
		c-0.3-1.9-2.2-2.5-3.8-2.7c-2.6-0.4-5.2-0.5-7.9-0.4c-2.4,0-10.3-0.1-8.9,4.4C44.2,7.4,44.7,7.3,44.6,7z"/>
</g>
</svg>
