<svg id="Layer_1" data-name="Layer 1" xmlns="http://www.w3.org/2000/svg" viewBox="0 0 100.58 141.38"><defs><style>.cls-1{fill:#545353;}</style></defs><title>4</title><g id="_14" data-name="14"><path class="cls-1" d="M109.19,74.88c9.59-.1,19.31.18,28.87-.53a.29.29,0,0,0,.1-.56L138,72.35a.16.16,0,0,0,0-.09c-.51-4.3-1.66-8.63-2.48-12.86-.93-4.78-1.76-9.61-3-14.33a.47.47,0,0,0-.16-.89l-24.42-1.29a.45.45,0,0,0-.44.44c.26,10.36.8,20.71,1.21,31.06A.5.5,0,0,0,109.19,74.88Zm22.87-29.8c.6,4.63,1.56,9.23,2.41,13.83s1.44,9.69,2.76,14.31v.52c-9.15-.42-18.41,0-27.57.15-.41-10-.7-20.07-1.26-30.09Z" transform="translate(-49.85 -28.67)"/><path class="cls-1" d="M60,169c-1.55,0-3.1.1-4.65,0s-3.06-.41-4.6-.43c-.19,0-.3.3-.1.38a15.18,15.18,0,0,0,9.42.54A.26.26,0,0,0,60,169Z" transform="translate(-49.85 -28.67)"/><path class="cls-1" d="M150.39,167.56c-2.46-5.88-5.14-11.63-7.39-17.61-1.12-3-2.21-6-3.31-9-.5-1.37-1-2.75-1.48-4.12a30.72,30.72,0,0,1-1.59-3.88c3.29-.57,4.43-5.51,1.63-7.37v0a.28.28,0,0,0,.11-.19c.82-4.27,1.52-8.56,2.27-12.84.7-3.93,1.65-7.94,2-11.92,0,0,2.32-.66,2.54-.77A4.09,4.09,0,0,0,147,98.14c.9-1.72,0-3.8-1.52-4.92a8.78,8.78,0,0,0-1.88-.82.05.05,0,0,0,0,0,20.55,20.55,0,0,0,.64-3.6,27.27,27.27,0,0,0,.37-2.86h.06a.29.29,0,0,0,.16,0,.76.76,0,0,0,.16,0h.31a.38.38,0,0,0,.33-.17c2.46-1,2-4.92-.05-6.34a5.38,5.38,0,0,0-.66-.38.33.33,0,0,0,0-.15,144.26,144.26,0,0,0-6-32.7c-1.21-3.87-3.26-6.77-7.35-7.82s-8.95-.4-13.31-.48l.13-.26c1.75-4.58-3.21-7.69-7-8.33a54.11,54.11,0,0,0-9.43-.57c-3,0-7.15-.06-9.3,2.37a6.12,6.12,0,0,0-1.19,6l-.3,0a61.17,61.17,0,0,0-14.31.58,22.61,22.61,0,0,0-4.69,1A6.23,6.23,0,0,0,69,41.22a24.46,24.46,0,0,0-.79,2.69c-.48,1.64-1,3.27-1.45,4.91h0a.24.24,0,0,0-.09.33c0,.1,0,.19-.08.29-.57,1.91-1.27,3.77-1.94,5.64s-.78,3.51-1.3,5.29q-1.44,4.89-2.82,9.81c-.56,2-1.25,3.89-1.8,5.85A15.25,15.25,0,0,1,58,78.52c-.33.7-1,1.19-1.45,1.86a3.93,3.93,0,0,0-.48,2.42,6.06,6.06,0,0,0,.83,2.52,5.74,5.74,0,0,0,.77,1.06c.13.14.84.61.86.75A43.92,43.92,0,0,0,60,94c-.08-.25-1.58.67-1.71.78a3.35,3.35,0,0,0-1.2,3.17,5.25,5.25,0,0,0,3.45,4c.64,3.18,1.57,6.32,2.44,9.46a.24.24,0,0,0,.09.34c.12.42.23.84.35,1.26.54,2,1,4.15,1.54,6.23a.24.24,0,0,0,.1.4c.17.66.34,1.32.53,2l-.08.07c-.2.18,0,.45.23.41.23.78.47,1.54.74,2.3a.32.32,0,0,0,.32.22.42.42,0,0,0-.14.06,5.15,5.15,0,0,0-1.82,4.63c.21,1.56,1.36,3.66,3.06,3.9a.27.27,0,0,0,.28-.43h.25c-3.42,5.84-6.39,12-9.5,18l-4.54,8.73c-1.51,2.91-3.27,5.81-4.5,8.85-.14.35.41.54.6.25,1.76-2.73,3.1-5.81,4.59-8.7l4.71-9.06c3.07-5.94,9.12-18,9.11-18,1.67,0,3.34,0,5,0q-1,2.44-1.92,4.91l0,0a.26.26,0,0,0-.06.2c-1.57,4.2-3,8.45-4.6,12.65-2.21,6-4.51,12-6.68,18.06-.16.45.55.64.72.2,2-5.43,4-10.9,5.94-16.35,11.24.29,22.55-.25,33.8-.4l34-.47h0c1.59,5.69,3.08,11.45,4.93,17.06a.2.2,0,0,0,.13.24.33.33,0,0,0,.44,0c2.89-.18,6.26.67,9-.34a.33.33,0,0,0-.09-.64,38.62,38.62,0,0,0-8.84.5c-1.46-6.08-3.35-12.09-5.07-18.1s-3.12-12-5.24-17.8c1.92.15,3.84.31,5.76.44.77,3,2,6,3.07,8.93s2.15,6,3.27,9c2.13,5.71,4.22,11.7,7.24,17C149.89,168.24,150.57,168,150.39,167.56ZM94.86,30.48a28,28,0,0,1,6.45-1.05,70.87,70.87,0,0,1,7.43.27c2.93.21,6.25.68,8.1,3.24a4.62,4.62,0,0,1,.86,3.76c-.39.72-.79,1.43-1.18,2.14a.16.16,0,0,0,0,.09,5.93,5.93,0,0,1-1.21,1h0l1.34-2.2a.26.26,0,0,0-.44-.26l-1.76,2.91a8.48,8.48,0,0,1-2,.58,12.91,12.91,0,0,0,1.78-3.34c.11-.31-.38-.44-.49-.13a12.26,12.26,0,0,1-2,3.58c-.4,0-.79.07-1.19.09l2.22-3c.2-.26-.24-.51-.43-.26l-2.43,3.23c-.46,0-.93,0-1.39,0L110.89,38c.2-.26-.24-.51-.43-.26l-2.57,3.36-.45,0-.71,0,2.56-3.43c.19-.26-.25-.51-.44-.25l-2.73,3.66L105,41l2.31-2.75c.21-.25-.15-.61-.36-.36L104.34,41l-1.29,0,2.48-2.85c.22-.25-.14-.6-.35-.36l-2.74,3.15,0,0c-.59,0-1.18-.06-1.76-.1l2.79-3c.22-.24-.14-.6-.36-.35L100,40.81h-.16c-.46,0-.92-.09-1.39-.16l2.33-2.71c.21-.24-.14-.6-.36-.35l-2.37,2.75a.24.24,0,0,0-.06.23c-.41-.07-.83-.16-1.23-.27l1.52-1.91c.2-.26-.15-.62-.36-.36l-1.63,2a.16.16,0,0,0,0,.07,8.94,8.94,0,0,1-1.2-.5l1.31-1.51c.21-.24-.15-.6-.36-.36l-1.4,1.63a6.33,6.33,0,0,1-1-.74l1.54-1.53c.24-.22-.12-.58-.35-.35L93.2,38.31a5.51,5.51,0,0,1-.53-.63l1.08-1.07a.25.25,0,0,0-.36-.36l-1,1C90.83,34.64,92.2,31.65,94.86,30.48ZM59.7,76.77l2.88-2.31c.25-.2-.11-.55-.36-.35l-2.28,1.83c.18-.67.35-1.34.52-2l2.45-1.83c.25-.19,0-.63-.26-.44l-2,1.5c.18-.72.36-1.44.55-2.14a.26.26,0,0,0,.3,0q2.13-1.67,4.25-3.34c.26-.2-.1-.55-.35-.35l-4.06,3.19a.64.64,0,0,1,0-.07l.9-3.23L64,65.76c.25-.2-.11-.56-.35-.35l-1.12.94c.15-.55.31-1.1.46-1.65l2.15-1.84c.25-.21-.11-.56-.35-.35L63.2,63.83c.27-1,.53-1.92.8-2.89l2.37-2.12c.24-.22-.12-.57-.36-.36l-1.77,1.59.44-1.64,2.14-1.57c.26-.19,0-.63-.26-.44l-1.67,1.23c.29-1.05.57-2.1.85-3.16l2.44-2c.24-.21-.11-.56-.36-.35L66,53.62c.14-.52.29-1,.43-1.58l2.18-1.65c.25-.19,0-.63-.26-.44l-1.7,1.3.57-2.13,1-.61c.27-.17,0-.61-.26-.44l-.57.35c.14-.55.29-1.09.44-1.63l0,0,1.76-1.27c.26-.19,0-.63-.26-.44L68,46c.2-.72.39-1.44.58-2.15a.32.32,0,0,0,.18-.06L70,42.68c.24-.22-.12-.58-.36-.36l-.87.78c.11-.39.21-.78.32-1.18a.14.14,0,0,0,.06-.07c1.29-3.6,7.22-3.64,10.31-4a57.9,57.9,0,0,1,6.78-.11l-.93.68c-.26.19,0,.63.25.43.47-.33.93-.67,1.39-1a.3.3,0,0,0,.08-.08l1.68,0-1.62,1c-.27.17,0,.61.26.44l2.28-1.46c.75,0,1.48,0,2.18,0a3.62,3.62,0,0,0,.27.41c.12.16.24.31.37.46a.22.22,0,0,0-.18,0l-2.53,1.88c-.26.19,0,.63.25.44l2.54-1.88a.26.26,0,0,0,.09-.29,7.35,7.35,0,0,0,1.12,1L92.06,41c-.27.17,0,.61.25.43l1.89-1.26,0,0a10.31,10.31,0,0,0,3.07,1.21l-1,.63c-.27.18,0,.61.25.44l1.38-.9,0,0c.39.08.8.14,1.2.19L98,42.83a.25.25,0,0,0-.07.17l-12.57.67L78.87,44l-3.29.18c-.76,0-1.77-.07-2.26.66a18.36,18.36,0,0,0-.59,3.33c-.28,1.26-.54,2.51-.79,3.77-.5,2.52-1,5-1.45,7.56s-1.15,5.28-1.68,7.93c-.26,1.3-.5,2.6-.68,3.91-.09.7-.48,2.37,0,3s2.71.33,3.46.36c2.58.13,5.17.2,7.76.24,5.18.07,10.35,0,15.53,0l1.86,0a.5.5,0,0,0,.49-.49c.41-10.35.95-20.71,1.21-31.06a.45.45,0,0,0-.12-.29l1.51-1.39c2.38.23,4.84.13,6.89.21a34.15,34.15,0,0,0,4.83-.06h0a12.43,12.43,0,0,0,2.54-.51.24.24,0,0,0,.3-.1h0a6.38,6.38,0,0,0,3.7-3.06c4,.61,8.21-.26,12.25.47a9.29,9.29,0,0,1,6,3.35,19.42,19.42,0,0,1,2.6,6.47,162.25,162.25,0,0,1,5.38,30.22c-1.88-.73-4.09-.6-6.05-.58l-10.9.1c-14.91.14-29.82.23-44.73.38-6.54.06-13.1.07-19.65.21l2-1.71c.24-.22-.12-.57-.36-.36l-2,1.76a.22.22,0,0,0,0,.32l-2.92.07,3-1.91c.27-.17,0-.61-.26-.43L59,78.76C59.27,78.11,59.49,77.45,59.7,76.77ZM97.56,43.91C97,53.93,96.7,64,96.29,74c-9.17-.13-18.4-.52-27.6-.53C70,68.82,70.6,63.78,71.49,59c.85-4.59,1.81-9.19,2.41-13.83ZM57.23,84.81a4.8,4.8,0,0,1-.38-3.08c.12-1,.95-1.49,1.7-2,1-.66,2.2-.27,3.34-.26,2.62,0,5.25,0,7.87,0,5.24,0,10.49-.07,15.73-.14l9.6-.11q19-.15,38-.31c3.2,0,6.65-.42,9.81.17,1.53.28,3.19,1.06,3.62,2.68.22.84.16,2.4-.59,3s-2.59.27-3.6.29-2,0-2.91.09c-1.75.19-3.44.09-5.2.15l-5.5.15c-10.4.3-20.84.91-31.25.91l-23.75.7a108.51,108.51,0,0,1-11.26.23C60.48,87.16,58.28,86.61,57.23,84.81Zm1.92,2.65a1.11,1.11,0,0,0,.27.12,9.05,9.05,0,0,0,1.83.51L59.84,89.6a.3.3,0,0,0-.07.19C59.57,89,59.36,88.23,59.15,87.46Zm.64,2.37a.24.24,0,0,0,.41.13l1.62-1.74,0,0a16.56,16.56,0,0,0,1.73.11c-.72.75-1.44,1.49-2.15,2.24-.23.23.13.59.35.35l2.28-2.35a.25.25,0,0,0,0-.23q1,0,2-.06l-2.72,2.89c-.22.23.14.59.36.35l3.08-3.27h.46l1.19,0c-1.12,1.14-2.25,2.27-3.38,3.41-.23.23.13.59.35.36l3.77-3.79,1.5,0-3,3.09c-.23.24.13.59.35.36l3.33-3.47,1.51,0L70.44,91c-.21.24.15.6.36.36L73.59,88,75,88c-.75.88-1.49,1.77-2.23,2.66-.21.25.15.61.35.36l2.55-3,1.73-.06-2.32,2.7c-.22.24.14.6.35.36l2.61-3,0,0h.16l2-.06-2.83,2.8a.25.25,0,0,0,.36.36L81,87.79l1.87-.06a10.26,10.26,0,0,1-2.42,2.79c-.25.2.11.56.36.36a10.91,10.91,0,0,0,2.66-3.16l1.55,0-2.2,2.43c-.22.24.13.6.35.36l2.44-2.69a.34.34,0,0,0,.06-.12l1.24,0a10.78,10.78,0,0,0-2,2.87c-.14.29.29.55.43.26a10.39,10.39,0,0,1,2.35-3.15l2.4-.07L88,89.86c-.22.24.14.6.36.36.8-.91,1.61-1.81,2.42-2.72l2.67-.08L91,90.32c-.2.25.15.6.36.36.81-1,1.63-2,2.44-3a.26.26,0,0,0,0-.32l1.94-.06L93.17,90c-.22.23.13.59.36.36.93-1,1.87-2,2.8-2.92a.24.24,0,0,0,.06-.15l1.79,0-2.28,2.8c-.2.25.15.61.35.36l2.6-3.18,2.1-.06L98.89,90c-.2.26.24.51.43.26l2.27-3,1.3,0-2,2.27c-.22.24.14.6.36.36.78-.89,1.57-1.77,2.36-2.65l1.59-.05c-.6.89-1.19,1.78-1.78,2.68-.18.26.25.52.43.25.66-1,1.31-2,2-3l1.28,0c-.75.91-1.49,1.83-2.23,2.74-.21.25.15.61.35.36L107.73,87l2.3-.07-2.38,2.88c-.2.25.15.61.36.36l2.67-3.24,0,0,1.87-.06-2.18,2.32c-.22.24.14.6.36.36l2.44-2.6a.27.27,0,0,0,.06-.1l1.92,0-2,2.29c-.21.25.14.61.36.36l2.35-2.67,1.61-.05-2.11,2c-.24.23.12.58.36.36l2.44-2.27,0-.07,2-.06L118,89.11c-.22.24.14.6.35.36l2.54-2.86h0l2.15-.06-2.38,2.87c-.21.25.15.6.35.35l2.64-3.17a.25.25,0,0,0,0-.07l1.54,0L123,88.76c-.22.24.13.59.36.36l2.56-2.66,1.7,0-2.77,2.93c-.23.24.13.6.35.36l2.95-3.11a.25.25,0,0,0,.06-.2l1.34,0-2.21,2.55c-.21.25.15.6.36.36l2.54-2.93,1.65,0-2.62,2.87c-.22.24.14.6.36.35l2.69-2.94a.19.19,0,0,0,.06-.17.23.23,0,0,0,.17-.13l1.51,0-1.82,2.11c-.21.24.14.6.35.35.72-.82,1.44-1.65,2.15-2.48l2.49-.08a22.64,22.64,0,0,1-2.44,2.74c-.23.22.13.58.36.36a24.26,24.26,0,0,0,2.71-3.11l1.5,0-2.31,2.61c-.22.25.14.6.35.36L140,86.09l0,0,1.62-.05-2.41,3c-.2.25.15.61.36.36L142.34,86l1.08,0L141,89.82c-.17.28.27.53.44.26L144,86a.19.19,0,0,0,0-.12h.15a31.52,31.52,0,0,0-.57,3.2h0a.24.24,0,0,0-.34.08c-.37.61-.74,1.23-1.12,1.84a.26.26,0,0,0,.44.26l.9-1.49a12.3,12.3,0,0,0-.29,2.41,25.1,25.1,0,0,0-8.43-1.35c-6.11-.11-12.26.35-18.37.56q-19.74.69-39.48,1.42c-2.81.1-5.63.2-8.43.45-1.38.11-2.75.26-4.11.46L60.89,94s-.67-2.4-.81-3C60,90.64,59.89,90.24,59.79,89.83Zm-.71,10.33c-.77-.72-1.86-2.72-1-3.63a6.09,6.09,0,0,1,2-1.5,10.94,10.94,0,0,1,2.44-.43c2-.32,3.95-.53,5.93-.69,3.93-.3,7.87-.38,11.81-.51L104,92.58l23.69-.83c4-.14,8-.45,11.9.31,2.51.49,9.52,2.59,6.33,6.25A5.18,5.18,0,0,1,143,99.78c-2.92.61-6.14.35-9.12.42l-19.66.5c-13,.32-26,.6-39,.93-3.58.09-7.22.37-10.8.24A8.1,8.1,0,0,1,59.08,100.16Zm2.05,2.09.11.09a.13.13,0,0,0,.22,0,7.92,7.92,0,0,0,1.13.25l.69.09-1.44,1.51a.3.3,0,0,0-.07.19C61.57,103.63,61.36,102.93,61.13,102.25Zm5.34,19.23,3.28-2.87c.25-.21-.11-.57-.35-.36l-3.07,2.68c-.15-.61-.32-1.23-.49-1.84l3.61-3.31c.24-.22-.12-.58-.36-.36l-3.41,3.13c-.46-1.61-1-3.21-1.4-4.81a.09.09,0,0,0,.07,0l2.9-2.52c.24-.22-.11-.57-.36-.36l-2.75,2.39c0-.13-.08-.26-.11-.39-.13-.47-.25-.94-.37-1.41L65,110.19c.24-.22-.12-.58-.36-.36l-1.12,1c-.55-2.15-1.09-4.32-1.71-6.45a.25.25,0,0,0,.4.08l1.6-1.68a.23.23,0,0,0,.06-.12c.4,0,.8.06,1.21.08l-1.47,1.69c-.21.24.15.6.36.36l1.75-2c.54,0,1.1,0,1.65,0l-2.52,3.05c-.21.24.15.6.36.35q1.41-1.71,2.83-3.41l1.61-.06-4.12,4.56c-.22.24.14.6.36.35l4.39-4.86a.35.35,0,0,0,0-.08l2.09-.12L69,106.37c-.22.24.14.6.35.35l3.73-4.16,1.71-.06-2.89,3.24c-.22.24.14.6.36.36q1.52-1.72,3-3.43a.3.3,0,0,0,.07-.19l1.34,0v0l-.1.07-2.53,2.86c-.21.24.14.6.36.36.84-1,1.68-1.91,2.53-2.86a.27.27,0,0,0,.06-.2.25.25,0,0,0,.16-.27l1,0-3,3.38c-.21.24.14.6.36.36l3.06-3.42a.25.25,0,0,0,0-.33l2.39-.06-2.11,2.53c-.2.25.15.61.36.36l2.22-2.67a.22.22,0,0,0,0-.23l1.47,0-1.59,1.63a.25.25,0,0,0,.36.35l2-2,1.86,0-.08.07L84,104.23c-.2.25.16.61.36.35l1.51-1.93a.26.26,0,0,0,0-.28h0a.24.24,0,0,0,.24-.17l1.53,0-1.77,2c-.21.24.14.6.36.35l2.1-2.35,1.36,0-1.88,2.48c-.19.26.24.51.44.25l2.08-2.74,1.71,0-2.37,2.7c-.22.24.14.6.35.35L92.77,102c.72,0,1.44,0,2.16-.06l-2,2.25c-.22.24.14.6.35.35L95.63,102l2.83-.07-2.13,2.59c-.2.25.16.61.36.35L99,102.06a.24.24,0,0,0,.06-.19l1.86-.05-1.4,1.75c-.2.26.15.62.35.36l1.71-2.13,2.08,0-2.5,2.81c-.21.24.15.6.36.35L104.1,102a.25.25,0,0,0,.05-.23l1.77,0c-.66.77-1.32,1.54-2,2.3-.21.25.15.61.36.36.77-.89,1.54-1.79,2.32-2.68l1.67,0-1.79,2.49c-.2.26.24.51.43.25l2-2.76,2.23-.06-1.63,2.22c-.19.27.24.52.43.26.61-.83,1.23-1.66,1.83-2.49l1.91-.06-2.77,2.93c-.23.24.13.6.35.36l3.13-3.3.56,0,1.3,0-3,3.14c-.23.23.13.59.35.35l3.38-3.5,1.4,0-2.53,3.17c-.2.25.15.61.35.35l2.69-3.36a.24.24,0,0,0,.06-.17l1.48,0L118.28,104c-.21.25.15.61.35.36l2.28-2.78a.24.24,0,0,0,0-.2l2.36,0-2,2.17c-.22.24.14.6.36.36.71-.78,1.43-1.55,2.14-2.32a.27.27,0,0,0,.06-.22l1.45,0-2,2.24c-.21.24.14.6.35.36l2.12-2.43a.27.27,0,0,0,.07-.18l2.45,0-2,2.33c-.21.24.15.6.36.35l2.11-2.43a.25.25,0,0,0,0-.26l3.13-.06-2.25,2.33a.25.25,0,0,0,.36.36l2.56-2.66,0-.05,3.72-.13-3.14,4c-.2.25.15.61.36.36,1.09-1.4,2.2-2.8,3.29-4.19A.26.26,0,0,0,137,101l1.59-.07-2.7,3.24c-.2.25.15.6.36.36l2.87-3.45a.25.25,0,0,0,.06-.18l1.8-.09.45,0a.1.1,0,0,0,0,0l-3.15,3.67c-.2.25.15.61.36.36,1-1.23,2.1-2.45,3.14-3.68a.26.26,0,0,0-.09-.41l.55-.06c-.23.8-.42,1.61-.6,2.42-.71.92-1.43,1.83-2.14,2.74-.2.26.15.62.35.36l1.56-2c-.56,2.83-1,5.7-1.46,8.51-.74,4.12-1.53,8.23-2.21,12.36-11.89-.14-23.77-.23-35.66-.39l-16.31-.24a.26.26,0,0,0-.32,0l-1.12,0-9.06-.12a58.92,58.92,0,0,0-6.78,0l2.84-2.38c.25-.21-.11-.57-.36-.36Q69.2,123,67.48,124.4l-.49.09a.32.32,0,0,0,.08-.28c-.06-.31-.13-.63-.19-.94a.27.27,0,0,0,.37,0l2.91-2.4c.25-.2-.11-.56-.36-.35L66.9,123a.13.13,0,0,0-.07.08C66.72,122.51,66.6,122,66.47,121.48Zm7.93,11.28,1.73,0a.1.1,0,0,0,0,0l-2.82,3.37C73.65,135,74,133.88,74.4,132.76Zm59.07,13.18c.46,1.53.91,3.05,1.33,4.57l.12.42q-16.93.24-33.86.49c-11.18.16-22.45,0-33.61.54.14-.41.29-.82.44-1.23.44-1.2.89-2.41,1.34-3.61h0c10.64.19,21.32-.3,32-.46s21.31-.23,32-.5A.28.28,0,0,0,133.47,145.94Zm-.09-.33a.36.36,0,0,0-.19-.06c-10.65,0-21.31.29-32,.44s-21.19,0-31.75.47c1.11-3,2.23-6,3.3-9l3.65-4.38a.27.27,0,0,0-.08-.41l1.67,0-3.32,3.88c-.21.25.15.61.36.36l3.63-4.26,1.56,0-4,4c-.23.23.13.59.35.36L81,132.6v0l1.32,0L78,137.06c-.22.24.13.6.36.36L83,132.51h0l4.3-.18-4.25,4.4c-.23.24.13.59.35.36L88,132.34l0,0,1.89-.08c-1.07,1.16-2.13,2.33-3.2,3.5-.22.24.14.6.36.36l3.43-3.76a.19.19,0,0,0,.06-.13l1.79-.08c-.92,1.07-1.85,2.13-2.78,3.2-.21.24.15.6.36.36l3.11-3.59,1.82-.07-3.36,3.33c-.24.23.12.58.35.35L95.64,132l1.12,0-3.23,4.13c-.2.26.16.62.35.36l3.33-4.25a.26.26,0,0,0,0-.25l1.93-.07L96.36,136c-.18.27.25.52.44.25l2.82-4.13a.21.21,0,0,0,0-.25l2,0-3.77,4.36c-.21.25.14.6.35.36l3.93-4.54a.24.24,0,0,0,.06-.19h1.39l-2.7,3c-.22.24.14.6.35.36,1-1.12,2-2.25,3-3.37l2,0-2.35,3c-.19.25.16.61.36.36l2.63-3.4h2.37l-2.82,4c-.19.26.25.52.44.25,1-1.43,2-2.85,3-4.28H111c-.63.75-1.26,1.51-1.9,2.26-.2.25.15.61.36.36l2.08-2.48a.19.19,0,0,0,0-.14h1.68a12.34,12.34,0,0,1-2.45,3.57c-.23.23.12.59.35.36a12.65,12.65,0,0,0,2.58-3.77.2.2,0,0,0,0-.15l1.79,0-2.6,3.29c-.2.25.15.61.35.35l2.88-3.63c.8,0,1.59,0,2.38.06l-2.82,3.82c-.19.26.24.51.44.25l3-4.06h.56l1.79.07-3,3.66c-.2.25.15.61.36.36l3.25-4,1.68.09a15,15,0,0,1-3,3.77c-.24.22.12.58.36.36a15.37,15.37,0,0,0,3.25-4.1l2.37.16-3.54,3.62a.25.25,0,0,0,.36.36l3.62-3.7a.22.22,0,0,0,0-.24l1.44.11-3.15,4.38c-.19.26.25.51.44.25l3.27-4.55s0,0,0,0l.62.05C130.77,136.88,132.08,141.26,133.38,145.61Zm-12.93-14.49c-5.94-.19-11.89-.18-17.83-.08-11.6.19-23.36.2-34.93,1.21a5.72,5.72,0,0,1-2-2.7c-.66-2.48.51-3.63,2.29-4.14l-1.79,2.2c-.2.25.15.61.36.35l1.85-2.27a.26.26,0,0,0,0-.37,11.84,11.84,0,0,1,2.44-.27q-1.59,1.9-3.16,3.83c-.21.25.15.61.35.36l3.46-4.2c.43,0,.85,0,1.25,0l-2.64,3.65c-.19.26.24.51.43.25q1.41-1.93,2.81-3.88l1.27.06-2.25,2.95c-.2.26.24.51.43.25l2.44-3.18h1.34l-2.42,2.94c-.2.25.15.61.36.36.87-1.06,1.75-2.12,2.62-3.19a.19.19,0,0,0,0-.1h1l-1.76,2.07c-.21.24.14.6.35.35.68-.78,1.35-1.57,2-2.35,0,0,0,0,0-.06l2.08,0-2.65,3.45c-.2.26.24.51.43.25l2.82-3.67,0,0,1.48,0-2.1,2.89c-.19.27.25.52.43.26.77-1.05,1.52-2.1,2.28-3.15h1.23l-2,2.91c-.18.27.25.52.43.25l2.15-3.15h2l-2.63,3.24c-.2.25.16.61.36.36l2.91-3.59h1.63l-2,2.94c-.18.27.25.52.43.25l2.17-3.18h1.24l-2.47,3.28c-.19.26.24.51.44.25.88-1.18,1.77-2.35,2.66-3.53l1.67,0-2.4,3c-.2.25.16.61.36.36l2.68-3.38,1.62,0c-.62.84-1.23,1.69-1.85,2.54-.19.26.25.51.44.25l2-2.79H98l-2.23,3.24c-.18.26.25.52.44.25l2.37-3.44a.08.08,0,0,0,0,0h1.75l-2.53,3.08c-.2.25.15.6.36.35l2.69-3.28a.28.28,0,0,0,.06-.15H102l3.27,0-2.57,2.42c-.23.22.13.58.36.36l2.78-2.61a.21.21,0,0,0,.07-.16l1.57,0-2.66,3.32c-.2.25.15.62.36.36l2.69-3.36a.29.29,0,0,0,0-.32l5.23.07-1.91,2.9c-.18.27.26.53.44.26l2.07-3.16h.86L113,127.82c-.19.27.25.52.43.26.56-.81,1.12-1.63,1.69-2.44l0-.08,2,0-2.63,3.22c-.21.24.15.61.35.35l2.85-3.47a.2.2,0,0,0,0-.09l1.6,0-1.94,2.74c-.19.27.25.52.44.26l2.11-3,1.63,0a.22.22,0,0,0,.28,0h1c-.53.78-1,1.56-1.58,2.33-.18.27.25.53.44.26l1.74-2.57h0l1.22,0-2.54,3.58c-.19.26.25.51.44.25l2.65-3.75a.25.25,0,0,0,0-.07h1.31l-2.19,3.36c-.18.28.26.53.44.26l2.18-3.37a.2.2,0,0,0,0-.25l2.26,0L127,129c-.18.26.25.52.44.25l2.49-3.53,1.38,0-1.71,2.49c-.19.27.25.52.43.26l1.89-2.74h1.31l-2.19,3.15c-.18.27.26.52.44.26l2.35-3.4h1c-.71,1.27-1.42,2.55-2.14,3.82a.25.25,0,0,0,.44.25c.75-1.35,1.51-2.69,2.27-4v0l1.65,0a.19.19,0,0,0-.1.1l-2.84,4.81a.25.25,0,0,0,.44.25l2.83-4.81a.23.23,0,0,0-.11-.34h.57a4.2,4.2,0,0,1,1.23,3.46c-.24,1.46-1.2,2-2.3,2.85a.3.3,0,0,0-.08.08A150.57,150.57,0,0,0,120.45,131.12Z" transform="translate(-49.85 -28.67)"/><path class="cls-1" d="M131.2,104.68l2.8-3.09c.22-.24-.14-.6-.35-.36l-2.81,3.09C130.63,104.56,131,104.92,131.2,104.68Z" transform="translate(-49.85 -28.67)"/><path class="cls-1" d="M70.83,113.71l2.71-2.91.06,1.3a.21.21,0,0,0-.19.07l-2.53,2.68c-.23.24.13.6.35.36l2.4-2.54c0,.29.08.78.14,1.3a.23.23,0,0,0-.39-.06c-.68.75-1.35,1.51-2,2.27-.22.24.14.6.35.35.68-.75,1.35-1.51,2-2.27a.24.24,0,0,0,.06-.09,4.9,4.9,0,0,1-.05,1.76l-2,2.1c-.22.24.13.59.35.35l1.67-1.77a.33.33,0,0,0,.24.08l1.08-.08c-.62.63-1.23,1.27-1.85,1.91-.22.23.13.59.36.35l2.19-2.27,0,0q1,0,2-.06c-.48.51-1,1-1.42,1.54-.22.23.14.59.36.35l1.75-1.91h1.73l-1.49,1.89c-.2.25.16.61.36.35.59-.74,1.17-1.49,1.76-2.24l2.27,0-1.63,1.93c-.2.24.15.61.36.35l1.85-2.19a.41.41,0,0,0,0-.09h2l-1.51,1.66c-.22.25.14.6.36.36.58-.65,1.17-1.29,1.76-1.94a.41.41,0,0,0,0-.09l1.93,0-1.82,2c-.22.24.14.6.36.36l2-2.19a.22.22,0,0,0,.06-.14l1.47,0-1.38,1.49c-.22.23.13.59.36.35l1.7-1.83v0h.89l.48,0-1.17,1.48c-.2.26.15.62.35.36l1.42-1.8.34,0-.54.9a.25.25,0,0,0,.44.25l.69-1.16a2,2,0,0,0,.79-.17A.32.32,0,0,0,95,116c0-1.91-.2-3.83-.41-5.73-.11-1,0-2.78-.67-3.65a.35.35,0,0,0-.42-.12c-1.35-.75-4.07-.38-5.41-.4a94.07,94.07,0,0,0-9.79.16c-1.78.14-3.4.26-4.22,1.57l-.07,0c-.9.93-1.79,1.86-2.69,2.78-.22.24.13.59.36.36l2-2-.06.31q0,.36-.06.75h0c-1,1.09-2,2.18-3,3.26C70.25,113.59,70.6,114,70.83,113.71Zm23.57,2s.08,0,0,0Zm-19.59-7.51c.78-1.22,2.73-1,4-1.14,2.78-.21,5.58-.31,8.37-.33,1.34,0,2.68,0,4,.05a10.46,10.46,0,0,1,2.07.11.34.34,0,0,0,0,.11c.66.92.54,2.88.65,4,.09.89.17,1.77.24,2.66a6.78,6.78,0,0,1,.13,2.1l-.29,0c-.38,0-.76,0-1.14,0-1.2,0-2.39,0-3.59,0-4.88,0-9.91-.35-14.8.06,0-.36,0-.75,0-1,0-1.18-.06-2.35-.09-3.52A5.53,5.53,0,0,1,74.81,108.21Z" transform="translate(-49.85 -28.67)"/><path class="cls-1" d="M108.46,116l1.86-1.58,0,1-2.06,1.85c-.24.22.11.57.35.36l1.79-1.6a.46.46,0,0,0,.07.07,4.44,4.44,0,0,0,2,.14l-1.89,1.67c-.24.22.12.57.36.36l2.34-2.07,2,0L113.34,118c-.23.22.12.58.36.36l2.3-2.13,3,0-2.26,2.06c-.24.21.12.57.36.35l2.64-2.4h1.54l-1.4,1.56c-.22.25.14.6.36.36l1.72-1.92,2.46,0c-.71.66-1.41,1.33-2.11,2-.24.22.12.58.36.35l2.49-2.36h1.25c-.81.81-1.61,1.63-2.41,2.44a.25.25,0,0,0,.36.35l2.72-2.75,0,0c.47,0,.94,0,1.4,0l-1.66,2c-.2.25.15.61.36.35l1.93-2.36.89,0-1,1.7a.25.25,0,0,0,.43.25c.37-.61.73-1.23,1.1-1.85,0,0,0,0,0-.06s.82-.07.93-.53a12.24,12.24,0,0,0,0-1.72c0-.6.17-1.19.19-1.78a19.84,19.84,0,0,0,0-3.27c-.38-2.71-2.42-2.84-4.72-3a93.87,93.87,0,0,0-9.78-.16c-1.34,0-4.07-.35-5.42.41a.34.34,0,0,0-.42.11,2.42,2.42,0,0,0-.21.39l-1.7,1.91c-.22.24.14.6.36.36l1.07-1.21c-.06.4-.09.82-.11,1.22-.69.75-1.37,1.5-2,2.26-.22.24.13.6.35.36l1.64-1.81a1.09,1.09,0,0,0,0,.18c-.06.5-.11,1-.16,1.51l-1.9,1.79c-.23.23.13.58.36.36l1.47-1.39c0,.49-.08,1-.11,1.47a.24.24,0,0,0-.21.06l-2.05,1.73C107.85,115.86,108.21,116.22,108.46,116Zm2.6-2.58c.06-.89.14-1.77.23-2.66.11-1.08,0-3,.65-4a.34.34,0,0,0,0-.11,9.74,9.74,0,0,1,2.07-.1c1.34-.06,2.69-.07,4-.06,2.79,0,5.59.12,8.37.33,1.31.09,3.26-.07,4,1.15a5.49,5.49,0,0,1,.39,3.06c0,1.17-.07,2.34-.09,3.52,0,.26-.06.65,0,1-4.89-.41-9.91-.1-14.8,0h-2.5a.33.33,0,0,0-.17,0h-.92c-.38,0-.76,0-1.14,0a.71.71,0,0,1-.28,0,.22.22,0,0,0-.06-.3A13.1,13.1,0,0,1,111.06,113.43Z" transform="translate(-49.85 -28.67)"/><path class="cls-1" d="M102.6,125.53c-.46.72-.93,1.43-1.4,2.15-.18.27.26.53.44.26.46-.72.93-1.44,1.4-2.16C103.22,125.51,102.78,125.26,102.6,125.53Z" transform="translate(-49.85 -28.67)"/><path class="cls-1" d="M108.85,125.74l-2.13,2.84c-.2.26.24.51.44.26l2.13-2.84C109.48,125.74,109,125.49,108.85,125.74Z" transform="translate(-49.85 -28.67)"/><path class="cls-1" d="M110.55,125.76l-1.88,2.75c-.18.27.25.52.44.25L111,126C111.17,125.74,110.74,125.49,110.55,125.76Z" transform="translate(-49.85 -28.67)"/><path class="cls-1" d="M121.32,125.76l-2.22,3c-.2.26.24.51.43.25l2.23-3C122,125.75,121.51,125.5,121.32,125.76Z" transform="translate(-49.85 -28.67)"/><path class="cls-1" d="M138.57,127.26c.15-.29-.28-.54-.43-.25l-1.77,3.36c-.15.29.28.54.43.26C137.4,129.5,138,128.38,138.57,127.26Z" transform="translate(-49.85 -28.67)"/><path class="cls-1" d="M68.11,100.16l12.24-.36,24.74-.73c.32,0,.33-.51,0-.5l-22.24.65-11,.33-5.5.16c-1.69.05-5.09.74-5.64-1.49a.25.25,0,0,0-.49.13,2.56,2.56,0,0,0,2.26,1.87A29.34,29.34,0,0,0,68.11,100.16Z" transform="translate(-49.85 -28.67)"/><path class="cls-1" d="M108.89,98.63c-.32,0-.33.52,0,.51l19.35-.81,9.56-.39c2.48-.1,5.11-.06,7.22-1.55.27-.18,0-.62-.25-.43-2.35,1.65-5.49,1.41-8.23,1.53l-9.3.38Z" transform="translate(-49.85 -28.67)"/><path class="cls-1" d="M70.37,85.14l18.81-.27,37.62-.53,10.29-.15c2.43,0,4.93-.12,6.93-1.67.26-.2-.1-.55-.36-.36-2.08,1.61-4.83,1.5-7.33,1.54l-8.52.12-17.06.24-33.86.48-9.53.14c-1.56,0-3.11.07-4.67.06s-4.19-.39-4.07-2.63c0-.33-.49-.33-.51,0C58,84,59.79,85,61.5,85.21A82.06,82.06,0,0,0,70.37,85.14Z" transform="translate(-49.85 -28.67)"/><path class="cls-1" d="M75.05,43.57l18.59-1.31c.32,0,.32-.52,0-.5l-18.59,1.3C74.73,43.09,74.72,43.59,75.05,43.57Z" transform="translate(-49.85 -28.67)"/><path class="cls-1" d="M114.18,42.78l15.31.25a.26.26,0,0,0,0-.51l-15.31-.24A.25.25,0,0,0,114.18,42.78Z" transform="translate(-49.85 -28.67)"/><path class="cls-1" d="M77.07,59.47l9.1-11.76c.2-.26-.16-.62-.36-.36l-9.1,11.77C76.52,59.37,76.87,59.73,77.07,59.47Z" transform="translate(-49.85 -28.67)"/><path class="cls-1" d="M83.19,56.67c.88-1.1,1.74-2.19,2.62-3.28.19-.25-.16-.61-.36-.36l-2.61,3.28C82.64,56.56,83,56.92,83.19,56.67Z" transform="translate(-49.85 -28.67)"/><path class="cls-1" d="M82.87,57.78c-.2.26.16.62.36.36l3.19-4c.2-.25-.15-.6-.35-.35C85,55.15,83.94,56.47,82.87,57.78Z" transform="translate(-49.85 -28.67)"/><path class="cls-1" d="M80.84,65.17Q87,57.47,93.24,49.8c.2-.25-.15-.61-.35-.36L80.48,64.81C80.28,65.06,80.63,65.42,80.84,65.17Z" transform="translate(-49.85 -28.67)"/><path class="cls-1" d="M91.92,56.4l-4.37,4.46c-.23.23.13.59.35.36l4.38-4.47A.25.25,0,0,0,91.92,56.4Z" transform="translate(-49.85 -28.67)"/><path class="cls-1" d="M112.64,62.24a82.42,82.42,0,0,0,10.14-13.79.26.26,0,0,0-.44-.26,81.29,81.29,0,0,1-10,13.69C112.07,62.12,112.43,62.48,112.64,62.24Z" transform="translate(-49.85 -28.67)"/><path class="cls-1" d="M120.75,55.78l-4,4.53c-.22.25.14.6.36.36l4-4.53C121.32,55.89,121,55.53,120.75,55.78Z" transform="translate(-49.85 -28.67)"/><path class="cls-1" d="M119.4,60.83l3.2-3.7c.21-.24-.15-.6-.36-.36l-3.2,3.7C118.83,60.71,119.18,61.07,119.4,60.83Z" transform="translate(-49.85 -28.67)"/><path class="cls-1" d="M118.47,65.19,128.85,53c.22-.24-.14-.6-.35-.35q-5.19,6.07-10.39,12.16C117.9,65.08,118.26,65.44,118.47,65.19Z" transform="translate(-49.85 -28.67)"/><path class="cls-1" d="M119.06,67.3c-.26.2.1.56.35.36A57.78,57.78,0,0,0,129.24,58c.2-.25-.15-.61-.35-.36A58.14,58.14,0,0,1,119.06,67.3Z" transform="translate(-49.85 -28.67)"/><path class="cls-1" d="M126.37,64.68,125.28,66c-.21.25.15.61.35.36l1.1-1.35C126.93,64.79,126.57,64.43,126.37,64.68Z" transform="translate(-49.85 -28.67)"/><path class="cls-1" d="M68.71,64.17q1.86-8.79,3.71-17.58c.07-.32-.42-.46-.49-.14Q70.09,55.24,68.23,64C68.16,64.35,68.65,64.49,68.71,64.17Z" transform="translate(-49.85 -28.67)"/><path class="cls-1" d="M68.33,76.13l28-.25a.25.25,0,0,0,0-.5l-28,.25A.25.25,0,0,0,68.33,76.13Z" transform="translate(-49.85 -28.67)"/><path class="cls-1" d="M106.54,70.67a.26.26,0,0,0,.51,0,216.14,216.14,0,0,0-.85-23.46c0-.32-.53-.32-.5,0A213.63,213.63,0,0,1,106.54,70.67Z" transform="translate(-49.85 -28.67)"/><path class="cls-1" d="M133.53,75.09l-21.45.77c-.32,0-.32.52,0,.51l21.45-.77C133.86,75.58,133.86,75.08,133.53,75.09Z" transform="translate(-49.85 -28.67)"/><path class="cls-1" d="M102.62,75.88q.25-15.72.51-31.46c0-.32-.49-.32-.5,0l-.51,31.46A.25.25,0,0,0,102.62,75.88Z" transform="translate(-49.85 -28.67)"/><path class="cls-1" d="M75.8,114.77a.25.25,0,0,0,.23.34l15.77-.33a.26.26,0,0,0,0-.51l-15.67.33s0,0,0-.06c-.08-2-.15-4-.23-5.93a.25.25,0,0,0-.5,0c.08,2,.15,4,.23,5.93A.24.24,0,0,0,75.8,114.77Z" transform="translate(-49.85 -28.67)"/><path class="cls-1" d="M112.37,115l17-.31c.32,0,.32-.51,0-.5l-16.68.3s0,0,0-.06l.15-6.68a.25.25,0,0,0-.5,0c0,2.23-.1,4.45-.16,6.68a.3.3,0,0,0,0,.1A.25.25,0,0,0,112.37,115Z" transform="translate(-49.85 -28.67)"/><path class="cls-1" d="M67.58,96,119,94.12l14.61-.53c.32,0,.32-.52,0-.5L82.19,94.94l-14.61.52C67.26,95.47,67.26,96,67.58,96Z" transform="translate(-49.85 -28.67)"/><path class="cls-1" d="M67.4,112.85,65,115.5c-.22.24.14.6.36.35l2.39-2.64C68,113,67.62,112.61,67.4,112.85Z" transform="translate(-49.85 -28.67)"/><path class="cls-1" d="M73.82,121.8l-2.12,1.66c-.26.2.1.55.35.36l2.13-1.66C74.44,122,74.08,121.6,73.82,121.8Z" transform="translate(-49.85 -28.67)"/><path class="cls-1" d="M77.36,121.3l-2.65,2.27c-.25.21.11.57.36.36l2.65-2.27C78,121.45,77.61,121.09,77.36,121.3Z" transform="translate(-49.85 -28.67)"/><path class="cls-1" d="M88.51,40.16l3-1.79c.28-.17,0-.61-.25-.44l-3,1.8A.25.25,0,0,0,88.51,40.16Z" transform="translate(-49.85 -28.67)"/><path class="cls-1" d="M94.45,42.07l1-.75c.26-.2,0-.63-.25-.44l-1,.76C93.94,41.83,94.19,42.27,94.45,42.07Z" transform="translate(-49.85 -28.67)"/><path class="cls-1" d="M84.56,132.53l-3.93,4.41c-.21.24.14.6.36.36l3.92-4.41C85.13,132.65,84.77,132.29,84.56,132.53Z" transform="translate(-49.85 -28.67)"/><path class="cls-1" d="M129.32,134c-.34.55-.67,1.1-1,1.64a.25.25,0,0,0,.43.26c.34-.55.68-1.09,1-1.64C129.93,134,129.49,133.7,129.32,134Z" transform="translate(-49.85 -28.67)"/><path class="cls-1" d="M58.08,165.46q6.56-15.6,13.1-31.21c.13-.3-.36-.43-.48-.13q-6.56,15.6-13.1,31.21C57.47,165.62,58,165.76,58.08,165.46Z" transform="translate(-49.85 -28.67)"/><path class="cls-1" d="M134.6,135.22q3,10.82,6.08,21.63a.25.25,0,0,0,.48-.14q-3-10.82-6.07-21.62C135,134.78,134.51,134.91,134.6,135.22Z" transform="translate(-49.85 -28.67)"/><path class="cls-1" d="M129.15,148.8a441.07,441.07,0,0,0-58.72,1.61c-.32,0-.32.54,0,.51a437.73,437.73,0,0,1,58.72-1.61A.26.26,0,0,0,129.15,148.8Z" transform="translate(-49.85 -28.67)"/><path class="cls-1" d="M94.46,35.66c-1.35-4.17,7.09-3.8,9.37-3.81a48.16,48.16,0,0,1,5.37.27c1.77.19,4.56.29,4.88,2.53,0,.32.53.19.49-.13-.28-1.92-2.17-2.48-3.84-2.72a49.46,49.46,0,0,0-7.88-.44c-2.44.05-10.33-.08-8.88,4.44C94.07,36.1,94.55,36,94.46,35.66Z" transform="translate(-49.85 -28.67)"/></g></svg>