<?xml version="1.0" encoding="utf-8"?>
<!-- Generator: Adobe Illustrator 23.0.6, SVG Export Plug-In . SVG Version: 6.00 Build 0)  -->
<svg version="1.1" id="Layer_1" xmlns="http://www.w3.org/2000/svg" xmlns:xlink="http://www.w3.org/1999/xlink" x="0px" y="0px"
	 viewBox="0 0 186.2 117" style="enable-background:new 0 0 186.2 117;" xml:space="preserve">
<style type="text/css">
	.st0{fill:#FFFCFC;}
</style>
<title>5</title>
<g id="_6">
	<path class="st0" d="M97.3,7.5c-0.2,0.1-0.4,0.3-0.4,0.5c-8,1.6-14.4,7.5-16.8,15.3C76.7,35.2,83.6,47.6,95.5,51
		c7.3,2.1,15.2,0.3,20.9-4.7c7-6.2,9.6-17,5.8-25.7C118.2,11.6,107.1,4.8,97.3,7.5z M118.4,17.4c5.5,7.1,5,17.2-0.2,24.3
		c-5.4,7.4-15.3,10.1-23.9,7.1s-14-12-13.4-21c0.6-9.3,8.1-17.1,17-19.1C105.8,8.4,113.4,11,118.4,17.4L118.4,17.4z"/>
	<path class="st0" d="M186,71.2c-1.4-8-9.7-11.4-16.3-14.3c-10.2-4.5-20.6-8.2-31.3-11.3c-0.1,0-0.1,0-0.2,0
		c-1.3-4.6-5.4-8.7-10.3-8.1c3.7-10.8,0-23.5-8.6-30.9C109.3-2,93.8-2.2,83.5,6c-0.2,0.2,0.1,0.6,0.3,0.4c9.2-6.2,21.9-7,31.4-0.9
		c9.3,6.3,14,17.6,11.9,28.6c-2.2,10.4-11.1,18.9-21.5,21c-10.7,2.1-22.2-3.2-28-12.3c-3.2-5.1-4.5-11.2-3.8-17.2
		c0.7-6.5,3.8-11.8,7.8-16.9c0.4-0.5-0.4-1-0.8-0.7c-8.7,7-10.8,20.7-7,30.9c-1.7-1.8-3.6-3.6-5.5-5.2c0.1-0.2,0.3-0.3,0.4-0.5
		c0.1-0.3,0.1-0.6-0.2-0.7c-0.2-0.1-0.3-0.1-0.5,0c-2.9,1.6-5.3,4.4-7.7,6.7c-1.7,1.6-3.7,3.1-5.4,4.9l-1.4-1v-0.1
		c-0.1-0.2-0.3-0.4-0.5-0.3c0,0,0,0,0,0c-7.6-5-15.6-9.5-23.4-14.2v-0.1c0-0.1-0.1-0.3-0.2-0.3c-0.1,0-0.1,0-0.2,0.1l-0.5-0.3
		c-0.2-0.1-0.5-0.1-0.7,0.1L15.3,39.7c-3.8,3.5-8.5,7-11.5,11.1C3.7,51,4,51.2,4.2,51.1c4.2-2.6,7.8-6.9,11.5-10.3
		s7.2-7.5,11.2-10.4c1-0.7,1.3-0.9,1.8-0.8c-0.4,5-0.6,10.1-0.5,15.1c-0.2-0.2-0.4-0.2-0.6-0.1L3.7,63c0.1-4.1,0.2-8.3,0.1-12.4
		c0-0.2-0.2-0.4-0.5-0.4c-0.2,0-0.4,0.2-0.4,0.4c-0.6,6-0.9,12-1.1,18.1l0,0c-0.1,0.1-0.2,0.3-0.1,0.5c0,0,0,0,0.1,0.1
		C1.7,73.9,1.5,78.5,1.3,83l-0.3,6.4c-0.1,0.2-0.1,0.4,0,0.6c-0.1,2.9-0.3,5.8-0.4,8.7c-0.2,5.5-1,11.3-0.5,16.8
		c0.1,0.4,0.4,0.6,0.7,0.6l-0.3,0.3c-0.3,0.4,0.3,0.8,0.6,0.5c6-4.7,11.2-10.7,16.6-16c2.7-2.7,5.4-5.3,8-8c0,0.2,0.2,0.4,0.4,0.4
		c0.1,0,0.1,0,0.2,0l8.1-4c0.5-0.2,0.1-0.9-0.4-0.7l-7.9,3.9c2.5-2.4,5-4.9,7.4-7.4c2.9,2.4,5.8,4.8,8.8,7.2L21,104.4
		c-0.5,0.3-0.1,1,0.4,0.7l21.6-12.3l5.5,4.6l-13,8.2c-0.4,0.3,0,1,0.4,0.7L49,98c0.1,0,0.1-0.1,0.1-0.1l1.2,1l-9.9,6.7
		c-0.4,0.3,0,1,0.4,0.7L51,99.4l0.2,0.2l1.3,1.1l-7.4,4.8c-0.4,0.3,0,1,0.4,0.7l7.7-5c2.3,1.9,4.6,3.8,6.9,5.7
		c2.8,2.3,5.5,5,8.6,6.9c0.1,0,0.1,0.1,0.2,0.1c0,0.1,0.1,0.3,0.1,0.4c0.1,0.2,0.3,0.3,0.5,0.2c0.1-0.1,0.2-0.2,0.2-0.4
		c0-0.2-0.1-0.4-0.1-0.5c0.2-0.2,0.2-0.5,0-0.7c10.3-11.9,20.3-24.1,30.3-36.1c0.5-0.6,1-1.3,1.5-1.8c1.3-1.3,1.1-1.3,2.7-0.6
		c1.8,0.9,3.5,1.9,5.1,2.9c1.7,1,3.4,1.9,5.1,2.9L95.1,95.9c-0.4,0.3,0.2,0.9,0.6,0.6l19.2-15.9c0.1,0,0.1-0.1,0.1-0.2l4,2.3
		c4.2,2.4,8.5,5.1,12.8,7.5L121,96.8c-0.4,0.3-0.1,1,0.4,0.7l10.9-6.7c0.1-0.1,0.1-0.1,0.2-0.2c2.2,1.2,4.5,2.4,6.8,3.4
		c0.8,0.3,1.2-0.8,0.6-1.3l-0.1-0.1c0-0.1,0-0.2,0-0.2c-2.2-7.1-5.8-14-8.8-20.9l-4.7-10.3c-1.3-2.9-2.4-6.1-3.9-9l0.7,0.7
		c0,0.3,0.2,0.6,0.5,0.4c2.9,2.6,6.7,4.2,9.9,3c0.7,0.8,1.4,1.6,2,2.4c-0.1,0.2-0.1,0.4,0.1,0.5c0.1,0.1,0.3,0.1,0.4,0l0.8,0.9
		c0,0.2,0.2,0.4,0.4,0.4c1.2,1.2,2.4,2.4,3.7,3.6c0,0.2,0.2,0.4,0.4,0.4c0,0,0,0,0,0c3.5,3.1,7.2,6,11.2,8.6
		c6.5,4.3,15,10.2,23.2,9.6C181.9,82.4,187.1,77.6,186,71.2z M138.6,47.7c9.1,2.8,18.1,5.9,27,9.6c4.4,1.8,9.1,3.5,13.1,6.2
		c2.2,1.5,3.9,3.6,5,6c-1.6,1.3-2.8,2.7-4.8,3.5c-1.8,0.7-3.8,1.1-5.8,1c-4.6-0.2-8.7-2.4-12.4-5c-7.7-5.5-14.6-12.1-22.3-17.6
		l-0.2-0.1C138.6,50.2,138.7,49,138.6,47.7z M119.8,49.7l0.3-0.3l0,0l0.2,0.3c-0.3,0.1-0.4,0.4-0.3,0.6c0,0,0,0,0,0
		c0.2,0.8,0.5,1.6,0.8,2.4c-1.8,4.3-3.7,8.7-5.5,13l-1.2-0.5l0.1-0.1L116,63c0.3-0.4-0.4-0.8-0.7-0.4c-0.6,0.7-1.2,1.5-1.8,2.2
		c0,0-0.1,0.1-0.1,0.2l-1.2-0.5l7.5-14.4C119.8,49.9,119.8,49.8,119.8,49.7L119.8,49.7z M102.3,57.2c5.9-0.4,11.5-2.6,16.1-6.3
		l-6.9,13.3l-12.9-5.9c-0.2-0.1-0.4,0-0.5,0.1L98,58.4l-0.2,0.2c-0.4-0.6-0.7-1.2-1.1-1.7C98.5,57.2,100.4,57.3,102.3,57.2
		L102.3,57.2z M84.4,71.8l-2.7,1.8l0.1-1.2L97,60.2c0.4,0.7,0.8,1.4,1.2,2.2c-0.1,0-0.2,0-0.3,0.1L81.6,75.7c0-0.4,0-0.8,0.1-1.2
		c0.1,0,0.2,0,0.3,0l2.9-1.9C85.2,72.3,84.8,71.5,84.4,71.8z M95,56.6c0.5,1,1.1,2,1.6,2.9L81.8,71.4c0.2-5.2,0.2-10.3,0-15.5
		c0-0.1-0.1-0.2-0.1-0.3l6.3-1.4C90.2,55.3,92.6,56.1,95,56.6z M83.9,51.7c1,0.7,2,1.3,3,1.8l-29.1,6.6l-0.1-0.4
		c0.1-0.2,0.1-0.4-0.1-0.5c0,0,0,0,0,0c-0.3-1.2-0.5-2.3-0.8-3.5L83.9,51.7z M67.8,34.3c2.5,2.1,4.8,4.4,7,6.8
		c1.6,3.2,3.7,6,6.4,8.4l0.5,0.7c0.1,0.2,0.3,0.2,0.5,0.2c0.3,0.2,0.6,0.5,0.9,0.7l-5,0.8c0-0.1,0-0.2-0.1-0.3
		c-4.4-4.8-9.3-9.2-14.5-13.1C65,37.1,66.5,35.8,67.8,34.3z M61.3,40.2c0.5-0.4,1-0.9,1.5-1.3c5.2,3.9,10,8.2,14.5,13L56.5,55
		c-0.7-3-1.4-5.9-2.2-8.8C56.9,44.6,59.1,42.2,61.3,40.2z M29.4,29.9l0.5,0.2c1.2,0.7,2.4,1.4,3.5,2.2l6.6,4.1
		c4.3,2.6,8.4,5.4,12.7,7.9c0.1,0.6,0.2,1.2,0.3,1.8L53,46.3c-0.1,0.1,0,0.3,0.1,0.4c0,0,0.1,0,0.1,0c0.4,2.1,0.8,4.2,1.3,6.2
		c-8-3.4-16.3-6.1-24.8-8.1C29.5,39.9,29.5,34.9,29.4,29.9z M29.6,45.7c8.6,2,16.9,4.7,25,8.2l0.4,1.8l-0.6-0.2
		c-0.1-0.2-0.3-0.3-0.6-0.2c0,0-0.1,0-0.1,0.1l-24.1-7.1C29.7,47.4,29.7,46.5,29.6,45.7z M3.6,64.1l24.6-18.8l0,0
		c0,1.1,0,2.1,0.1,3.2c-0.2-0.2-0.4-0.2-0.6,0L27,49c-0.2,0-0.3,0.1-0.3,0.3L3.5,67.5C3.6,66.3,3.6,65.2,3.6,64.1z M2.8,83.7
		c0.2-5,0.5-10.1,0.7-15.2l23.3-18.3C27,65.9,17.4,80,2.7,85.4C2.7,84.9,2.7,84.3,2.8,83.7z M2.7,86.3C18,80.8,28.1,65.9,27.5,49.6
		l0.7-0.6l0,0c0.1,1.6,0.1,3.1,0.2,4.7c-0.1,0.1-0.2,0.2-0.2,0.3c0.3,16.2-10.2,30.5-25.8,35C2.6,88.1,2.6,87.2,2.7,86.3z
		 M16.3,100.1c-5,5-10.5,9.9-14.9,15.4c0.8-5.1,0.6-10.4,0.8-15.6l0.4-10.1c5.3-1.5,10.2-4.1,14.3-7.7c0,0,0,0.1,0,0.1
		c0.7,5.1,1.3,10.2,2,15.3c1,7.7,0,0,0,0.1C18,98.4,17.1,99.3,16.3,100.1z M19.5,96.9c-0.7-4.9-1.3-9.9-2-14.8
		c0-0.2-0.2-0.3-0.3-0.3c0,0,0,0,0,0c0.5-0.5,1-1,1.5-1.5c1,4.7,2,9.4,3,14.2c0,0.1,0,0.1,0.1,0.1L19.5,96.9z M22.5,93.9l-3-14.4
		c5.3-5.7,8.6-13,9.5-20.8c0.3,3.9,0.8,7.9,1.3,11.8c0.6,4.3,1,9.1,2.5,13.2C29.3,87,25.9,90.4,22.5,93.9L22.5,93.9z M34.2,83.5
		L34.2,83.5c-0.2-4-1.5-8.2-2.1-12.1c-0.8-4.9-1.4-9.9-1.8-14.9c-0.2-2.5-0.4-4.9-0.5-7.4l23.6,7c-6.5,9.1-12.7,18.4-18.5,28
		L34.2,83.5z M35.5,84.5c5.9-9.7,12.1-19.1,18.7-28.3l1,0.3l0,0c0.3,1.3,0.6,2.6,0.9,3.9L36.7,85.6C36.3,85.2,35.8,84.9,35.5,84.5
		L35.5,84.5z M37.3,86.1l19-24.6c1.3,5.8,2.7,11.5,4,17.3c0.4,1.6,0.8,3.3,1.2,4.9c0,0-0.1,0-0.1,0c-7.4,2.1-15.1,3.2-22.8,3.6
		L37.3,86.1z M60.7,105.3l-6.3-5.1c0.2-0.3-0.1-0.8-0.5-0.6l-0.1,0.1l-2-1.6l-8.2-6.7l18.5-2.7c0.5-0.1,0.3-0.9-0.2-0.8l-19.1,2.8
		c-1.1-0.9-2.2-1.8-3.2-2.7c7.5-0.4,14.9-1.5,22.1-3.5c0,0,0,0,0.1,0c0.9,3.9,1.8,7.8,2.8,11.8c1.2,5,2.2,10.2,3.6,15.2
		C65.8,109.2,63.1,107.3,60.7,105.3L60.7,105.3z M69.1,111.1c-0.9-4.9-2.2-9.8-3.3-14.7c-1.3-6-2.7-12-4-18
		c-1.3-5.8-2.5-11.7-3.9-17.4L78,56.5c0,0,0,0.1,0,0.2c-1.6,16.5-3.2,32.9-4.7,49.4C71.8,107.7,70.5,109.4,69.1,111.1L69.1,111.1z
		 M77.1,101.3v-1.1c0-0.2-0.2-0.4-0.5-0.3c-0.2,0-0.3,0.2-0.3,0.3c0,0.5,0,1.1,0,1.6c0,0.1,0.1,0.3,0.2,0.3
		c-0.8,0.9-1.5,1.9-2.3,2.8l4.6-48.3c0-0.1,0-0.2-0.1-0.3l2.4-0.5c0,0,0,0.1,0,0.1c0.3,6.9,0.2,13.8-0.3,20.6
		c-0.1,0.1-0.1,0.3,0,0.4c-0.5,7.9-1.5,15.8-2.8,23.5C77.6,100.7,77.3,101,77.1,101.3L77.1,101.3z M101.8,71.9
		c-7.7,9.1-15.4,18.1-23,27.3c1.3-7.4,2.2-14.9,2.7-22.4c5.6-4.5,11.2-9.1,16.8-13.6l0.4,0.2c0.1,0.2,0.2,0.4,0.3,0.7
		c1.2,2.5,1.8,5.4,3.3,7.7C102.2,71.7,102,71.8,101.8,71.9L101.8,71.9z M138.5,91.9c-5.4-3.6-11.6-6.5-17.3-9.7
		c-6-3.4-12.1-6.8-18.2-10.1c0.2-0.1,0.3-0.2,0.3-0.4c-0.2-2.4-1.4-4.9-2.5-7.1l32.1,16C134.6,84.4,136.4,88.2,138.5,91.9
		L138.5,91.9z M129.9,73.3c0.9,2,1.7,4,2.6,6.1l-32.2-16.1c-0.7-1.4-1.4-2.7-2.2-4.1l0.3-0.2l12.9,5.9c0.1,0.2,0.3,0.3,0.5,0.2
		l17.9,8.2C129.8,73.3,129.9,73.3,129.9,73.3L129.9,73.3z M124.1,60.3l4.8,10.8l0.5,1.1l-13.5-6.2l5.2-12.3
		C122.1,56.1,123.3,58.3,124.1,60.3L124.1,60.3z M131.4,55.3c-0.5,0-1,0-1.4-0.1l4.8-4.1c0.4-0.3-0.2-0.9-0.6-0.6l-4.9,4.3
		c-0.1,0.1-0.1,0.2-0.1,0.3c-0.3-0.1-0.5-0.2-0.8-0.3l4.2-3.5c0.4-0.3-0.2-0.9-0.6-0.6l-4.4,3.7l0,0c-0.4-0.2-0.8-0.5-1.2-0.7l6-4.4
		c0.4-0.3-0.1-0.9-0.6-0.6l-6.2,4.6c-0.3-0.2-0.6-0.5-0.9-0.7l5.4-3.9c0.4-0.3,0-1-0.4-0.7l-5.6,4l-0.7-0.6l4.3-3
		c0.4-0.3,0-1-0.4-0.7l-4.4,3.1c0,0-0.1,0.1-0.1,0.1l-0.2-0.2l0,0c0.2-0.4-0.3-0.6-0.5-0.5l0,0c0,0,0.1,0,0.1-0.1l4.1-3.4
		c0.4-0.3-0.1-0.9-0.6-0.6c-1.4,1.1-2.7,2.3-4.1,3.4c0,0-0.1,0.1-0.1,0.1l-0.6-0.6l-0.1-0.1c2.9-2.8,5.2-6.2,6.7-9.9
		c2.7,1.2,5.3,1.3,7.5,3.7c2.3,2.5,2.8,6.2,1.3,9.3c-0.1-0.2-0.3-0.4-0.5-0.3c0,0-0.1,0-0.1,0.1l-4.1,3.1
		C131.2,54.9,131.2,55.1,131.4,55.3C131.4,55.3,131.4,55.3,131.4,55.3L131.4,55.3z M132.1,55.2l3.8-2.8
		C135,53.7,133.7,54.8,132.1,55.2L132.1,55.2z M142.8,63.5L146,61c0.4-0.3-0.1-0.9-0.6-0.6l-3.2,2.6l-1.2-1.1l3.7-3.1
		c0.4-0.3-0.2-0.9-0.6-0.6l-3.7,3.1l-0.3-0.3l3.2-2.6c0.4-0.3-0.2-0.9-0.6-0.6l-3.2,2.6l-1-0.9l3.3-2.7c0.4-0.3-0.2-0.9-0.6-0.6
		L138,59c-0.3-0.3-0.6-0.5-0.8-0.8l3.3-3c0.4-0.3-0.2-0.9-0.6-0.6l-3.3,3c-0.3-0.3-0.5-0.5-0.8-0.8l3.1-2.7c0.4-0.3-0.2-0.9-0.6-0.6
		l-3.1,2.8l-0.6-0.6c1.1-0.7,2.1-1.7,2.7-2.9c0.1-0.2,0.3-0.4,0.4-0.7c3.2,3,6.7,5.8,10.1,8.6h-0.1l-4.2,3.5L142.8,63.5z
		 M144.9,65.3l-0.6-0.5l4.1-3.5c0,0,0.1-0.1,0.1-0.1l1.1,0.9c-0.1-0.1-0.3-0.1-0.4,0l-4.1,3.1C144.9,65.2,144.9,65.3,144.9,65.3
		L144.9,65.3z M149,68.6l3.8-2.9c0.4-0.3-0.1-0.9-0.6-0.6l-3.9,3l-1-0.8l3.6-3c0.4-0.3-0.2-0.9-0.6-0.6l-3.7,3.1l-1.3-1h0.1l4.1-3.1
		c0.1-0.1,0.2-0.3,0.1-0.4c0,0,0,0,0,0l2.2,1.8l2.4,2c-0.1-0.1-0.4-0.1-0.5,0l-4.1,3.2L149,68.6z M150.5,69.7l4-3.1
		c0.1-0.1,0.2-0.3,0-0.5c0,0,0,0,0,0l1,0.8l-4.2,3.4L150.5,69.7z M153.8,72l3.4-2.8c0.4-0.3-0.1-0.9-0.6-0.6l-3.6,2.9
		c-0.4-0.3-0.8-0.5-1.1-0.8l4.1-3.3v-0.1c1,0.8,2.1,1.6,3.1,2.4h-0.1l-3.8,3.2L153.8,72z M156.1,73.5l3.6-3c0.1-0.1,0.1-0.1,0.1-0.2
		c0.4,0.3,0.9,0.6,1.3,0.9l-3.9,3L156.1,73.5z M159.2,75.4l-1.3-0.8l3.9-3l0,0c0.5,0.3,0.9,0.6,1.4,0.9l-3.8,2.5
		C159.3,75.1,159.2,75.3,159.2,75.4L159.2,75.4z M161.6,76.8c-0.7-0.4-1.3-0.7-1.9-1.1h0.1l4.3-2.8l0.5,0.3l0.7,0.3L161.6,76.8
		L161.6,76.8z M163.7,77.9c-0.5-0.2-0.9-0.5-1.4-0.7l3.7-3.3c0.8,0.3,1.5,0.6,2.3,0.9l-4.5,3C163.8,77.8,163.7,77.9,163.7,77.9
		L163.7,77.9z M164.5,78.3l4.4-3c0.1-0.1,0.2-0.2,0.2-0.4c0.6,0.2,1.2,0.3,1.8,0.4l-5.1,3.6L164.5,78.3z M182.6,77.8
		c-1.4,1.7-3.4,2.8-5.6,3.2l6.5-5.3c0.4-0.3-0.2-0.9-0.6-0.6l-7.1,5.8c-0.1,0.1-0.1,0.2-0.1,0.3c-0.7,0.1-1.3,0.1-2,0l7.1-5.8
		c0.4-0.3-0.2-0.9-0.6-0.6l-7.6,6.3c-0.4-0.1-0.8-0.1-1.2-0.2l5.6-4.8c0.4-0.3-0.2-0.9-0.6-0.6l-6,5.1c-1.3-0.4-2.6-0.8-3.8-1.3
		l5.4-3.8l0.7,0.1l-4.4,3.7c-0.4,0.3,0.2,0.9,0.6,0.6l5.1-4.3c0.7,0,1.5-0.1,2.2-0.2c2.9-0.4,6.4-1.8,8-4.4
		C184.9,73.4,184.3,76,182.6,77.8L182.6,77.8z"/>
	<path class="st0" d="M89.1,18c5.7-6.9,16-7.9,22.9-2.2c3.6,3,5.7,7.3,5.9,12c0,0.5,0.8,0.5,0.8,0c-0.3-9.4-8.2-16.8-17.6-16.5
		c-4.8,0.2-9.4,2.4-12.5,6.1C88.3,17.9,88.8,18.5,89.1,18z"/>
	<path class="st0" d="M86.2,26.8c0.1-0.5-0.7-0.7-0.8-0.2c-1.6,8.1,3.3,16,11.2,18.1c0.5,0.1,0.7-0.6,0.2-0.8
		C89.3,41.9,84.6,34.4,86.2,26.8z"/>
	<path class="st0" d="M100.9,24.9c-0.6,2.1-1.2,4.3-1.8,6.4c-0.1,0.5,0.6,0.7,0.8,0.2l1.8-6.4C101.8,24.7,101,24.4,100.9,24.9z"/>
	<path class="st0" d="M103.2,18.3c-0.7,5.3-1.3,10.7-2,16.1c-0.1,0.5,0.7,0.5,0.8,0l2-16.1C104.1,17.8,103.3,17.8,103.2,18.3z"/>
	<path class="st0" d="M105.7,26.8c-0.2,1.6-0.3,3.2-0.5,4.8c-0.1,0.5,0.8,0.5,0.8,0c0.2-1.6,0.3-3.2,0.5-4.8
		C106.5,26.3,105.7,26.3,105.7,26.8z"/>
	<path class="st0" d="M36.6,89.9c0.4-0.3,0-1-0.4-0.7l-13.4,8.4c-0.4,0.3,0,1,0.4,0.7L36.6,89.9z"/>
	<path class="st0" d="M38.6,91.1L20,101.6c-0.5,0.3-0.1,1,0.4,0.7L39,91.8c0.2-0.1,0.2-0.4,0.1-0.6C38.9,91.1,38.8,91,38.6,91.1z"/>
	<path class="st0" d="M42.8,94.8l-15.2,9.4c-0.4,0.3,0,1,0.4,0.7l15.2-9.4C43.7,95.2,43.3,94.5,42.8,94.8z"/>
	<path class="st0" d="M31.7,105.4c-0.2,0-0.4,0.2-0.4,0.4c0,0.2,0.2,0.4,0.4,0.4s0.4-0.2,0.4-0.4C32.1,105.6,32,105.4,31.7,105.4z"
		/>
	<path class="st0" d="M46.5,96.2l-13.1,8c-0.4,0.3-0.1,1,0.4,0.7l13.1-8C47.3,96.6,47,95.9,46.5,96.2z"/>
	<path class="st0" d="M48.9,105.6c-0.2,0-0.4,0.2-0.4,0.4c0,0.2,0.2,0.4,0.4,0.4s0.4-0.2,0.4-0.4C49.3,105.8,49.1,105.6,48.9,105.6z
		"/>
	<path class="st0" d="M54,103c0.4-0.3,0-1-0.4-0.7l-3.8,2.6c-0.4,0.3,0,1,0.4,0.7L54,103z"/>
	<path class="st0" d="M56.3,104.6l-6,3.7c-0.4,0.3-0.1,1,0.4,0.7l6-3.7C57.1,105,56.8,104.3,56.3,104.6z"/>
	<path class="st0" d="M58.4,107.6l-4.6,2.6c-0.2,0.1-0.2,0.4-0.1,0.6c0.1,0.1,0.3,0.2,0.5,0.1l4.6-2.6c0.2-0.1,0.2-0.4,0.1-0.6
		C58.7,107.6,58.5,107.5,58.4,107.6z"/>
	<path class="st0" d="M106.8,77.9L88.9,93c-0.4,0.3,0.2,0.9,0.6,0.6l17.8-15.1C107.7,78.1,107.1,77.5,106.8,77.9z"/>
	<path class="st0" d="M94,87.1l12.6-10.7c0.4-0.3-0.2-0.9-0.6-0.6L93.5,86.5C93.1,86.8,93.6,87.4,94,87.1z"/>
	<path class="st0" d="M98.2,90.4l13-10.9c0.4-0.3-0.2-0.9-0.6-0.6l-13,10.9C97.3,90.1,97.8,90.7,98.2,90.4z"/>
	<path class="st0" d="M117.1,82.2L99.4,95.2c-0.4,0.3,0.2,0.9,0.6,0.6l17.7-13.1C118,82.4,117.5,81.8,117.1,82.2z"/>
	<path class="st0" d="M120.1,83.9l-13.7,10.1c-0.4,0.3,0.1,0.9,0.6,0.6c4.6-3.4,9.1-6.8,13.7-10.1C121.1,84.2,120.5,83.7,120.1,83.9
		z"/>
	<path class="st0" d="M123.1,85.6l-13.9,9.9c-0.4,0.3,0,1,0.4,0.7l13.9-9.9C123.9,86,123.5,85.3,123.1,85.6z"/>
	<path class="st0" d="M125.3,87.6l-12,8.6c-0.4,0.3,0,1,0.4,0.7l12-8.6C126,88,125.6,87.3,125.3,87.6z"/>
	<path class="st0" d="M127.1,90.4l-9.9,6.4c-0.4,0.3,0,1,0.4,0.7l9.9-6.4C127.9,90.8,127.5,90,127.1,90.4z"/>
	<path class="st0" d="M127.9,95.9c-0.2,0-0.4,0.2-0.3,0.5c0,0.2,0.2,0.3,0.3,0.3c0.2,0,0.4-0.2,0.3-0.5
		C128.2,96,128.1,95.9,127.9,95.9z"/>
	<path class="st0" d="M129.5,94.8c-0.2,0-0.4,0.2-0.3,0.5c0,0.2,0.2,0.3,0.3,0.3c0.2,0,0.4-0.2,0.3-0.5
		C129.8,95,129.7,94.9,129.5,94.8z"/>
	<path class="st0" d="M87.5,95.7l-9.4,8.9c-0.2,0.2-0.2,0.4,0,0.6c0.2,0.2,0.4,0.2,0.6,0l9.4-8.9C88.5,95.9,87.9,95.4,87.5,95.7z"/>
	<path class="st0" d="M10.3,111.9c-0.2,0-0.4,0.2-0.4,0.4c0,0.2,0.2,0.4,0.4,0.4l0,0c0.2,0,0.4-0.2,0.4-0.4
		C10.7,112,10.6,111.9,10.3,111.9z"/>
	<path class="st0" d="M16.4,105.9l-5,4.7c-0.2,0.2-0.2,0.4,0,0.6c0.2,0.2,0.4,0.2,0.6,0l5-4.7c0.2-0.2,0.1-0.4,0-0.6
		C16.8,105.8,16.5,105.8,16.4,105.9z"/>
	<path class="st0" d="M165.6,68.9c3.9,2,10.3,4.6,12.7-0.8c0.2-0.5-0.6-0.7-0.8-0.2c-2.7,6.2-11.6,0.5-15.2-1.7
		c-4.4-2.7-8.6-5.8-12.4-9.3c-0.4-0.3-1,0.2-0.6,0.6C154.3,62,159.7,65.8,165.6,68.9z"/>
	<path class="st0" d="M80.6,17c-7.3,10.8-4.4,25.5,6.4,32.8c2,1.4,4.2,2.4,6.6,3.1c0.2,0.1,0.4-0.1,0.5-0.3s-0.1-0.4-0.3-0.5
		C81.8,48.7,74.8,36,78.3,23.9c0.7-2.3,1.7-4.4,3-6.4C81.6,17,80.9,16.6,80.6,17z"/>
	<path class="st0" d="M119.3,44.7c-0.3,0.4,0.2,1,0.6,0.6c9.3-10.2,8.4-26.1-1.8-35.3c-1.2-1.1-2.5-2.1-3.9-2.9
		c-0.2-0.1-0.4,0-0.5,0.2c-0.1,0.2,0,0.4,0.1,0.5c11.5,7.1,15.1,22.2,8,33.7C120.9,42.6,120.2,43.7,119.3,44.7z"/>
	<path class="st0" d="M7.3,62.2L5,64c-0.4,0.3,0.1,0.9,0.6,0.6l2.3-1.8C8.3,62.4,7.7,61.9,7.3,62.2z"/>
	<path class="st0" d="M11.8,58.5l-2.4,2.1c-0.4,0.3,0.2,0.9,0.6,0.6l2.4-2.1C12.8,58.8,12.3,58.2,11.8,58.5z"/>
	<path class="st0" d="M18.5,53.7L15.1,56c-0.4,0.3,0,1,0.4,0.7l3.5-2.3C19.3,54.1,18.9,53.4,18.5,53.7z"/>
	<path class="st0" d="M23.6,49.7l-2.5,2c-0.4,0.3,0.1,0.9,0.6,0.6l2.5-2C24.6,50,24,49.4,23.6,49.7z"/>
	<path class="st0" d="M34.3,47.4L30.8,47c-0.5,0-0.5,0.8,0,0.8l3.5,0.3C34.8,48.2,34.8,47.4,34.3,47.4z"/>
	<path class="st0" d="M36.5,47.9c-0.5-0.2-0.9,0.5-0.4,0.7l2.1,1c0.5,0.2,0.9-0.5,0.4-0.7L36.5,47.9z"/>
	<path class="st0" d="M41.3,49.8c-0.5-0.1-0.8,0.7-0.2,0.8l3.6,0.6c0.5,0.1,0.7-0.7,0.2-0.8L41.3,49.8z"/>
	<path class="st0" d="M47.8,51.8c-0.2-0.1-0.4,0.1-0.5,0.3c-0.1,0.2,0.1,0.4,0.3,0.5l3.1,0.9c0.2,0,0.4-0.1,0.5-0.3
		c0-0.2-0.1-0.4-0.2-0.5L47.8,51.8z"/>
	<path class="st0" d="M6.8,85.4l-3.3,1.4c-0.5,0.2-0.1,0.9,0.4,0.7L7.2,86C7.7,85.9,7.3,85.2,6.8,85.4z"/>
	<path class="st0" d="M11.6,82.4l-2.9,2.1c-0.4,0.3,0.1,0.9,0.6,0.6c1-0.7,1.9-1.4,2.8-2.1C12.6,82.7,12,82.1,11.6,82.4z"/>
	<path class="st0" d="M16.6,78.7l-2.1,1.8c-0.4,0.3,0.2,0.9,0.6,0.6l2.1-1.8C17.5,78.9,17,78.3,16.6,78.7z"/>
	<path class="st0" d="M19.8,76.4l1.9-2.5c0.3-0.4-0.4-0.8-0.7-0.4l-2,2.5C18.8,76.4,19.5,76.8,19.8,76.4z"/>
	<path class="st0" d="M23.6,71.3l1.4-3.1c0.2-0.5-0.5-0.9-0.7-0.4c-0.5,1-1,2-1.4,3C22.7,71.3,23.4,71.8,23.6,71.3z"/>
	<path class="st0" d="M26.1,65.6c0.3-1.2,0.5-2.4,0.8-3.6c0.1-0.5-0.7-0.7-0.8-0.2c-0.3,1.2-0.5,2.4-0.8,3.6
		C25.2,65.9,25.9,66.1,26.1,65.6z"/>
	<path class="st0" d="M27.8,60l0.5-2.8c0.1-0.5-0.7-0.8-0.8-0.2L27,59.8C27,60.3,27.7,60.5,27.8,60z"/>
	<path class="st0" d="M19,86.3l-0.2-2.8c0.1-0.1,0.2-0.3,0.1-0.5c-0.1-0.2-0.2-0.3-0.2-0.5c-0.1-0.2-0.4-0.3-0.6-0.1
		c-0.1,0.1-0.2,0.2-0.2,0.3c0.1,1.2,0.2,2.4,0.3,3.6C18.3,86.8,19.1,86.8,19,86.3z"/>
	<path class="st0" d="M18.7,88c0.2,1.6,0.3,3.2,0.5,4.8c0.1,0.5,0.9,0.5,0.8,0L19.5,88C19.4,87.6,18.6,87.5,18.7,88z"/>
	<path class="st0" d="M36.8,82.9l-0.7,1c-0.3,0.4,0.4,0.8,0.7,0.4l0.7-1C37.8,82.9,37.1,82.5,36.8,82.9z"/>
	<path class="st0" d="M41.1,77.5l-1.4,2.1C39.4,80,40,80.5,40.3,80l1.4-2.1C42,77.5,41.3,77,41.1,77.5z"/>
	<path class="st0" d="M45.7,70.7l-2.1,2.7c-0.3,0.4,0.4,0.8,0.7,0.4l2.1-2.7C46.7,70.7,46,70.3,45.7,70.7z"/>
	<path class="st0" d="M50,64.6l-2.1,3c-0.3,0.4,0.4,0.8,0.7,0.4l2.1-3C51,64.6,50.3,64.2,50,64.6z"/>
	<path class="st0" d="M54.3,58.4L52,62c-0.1,0.2,0,0.4,0.2,0.5c0.2,0.1,0.4,0,0.5-0.1l2.2-3.7C55.2,58.4,54.5,57.9,54.3,58.4z"/>
	<path class="st0" d="M45.9,88.3l-2.5,0.2c-0.5,0-0.5,0.8,0,0.8l2.5-0.2C46.4,89.1,46.4,88.3,45.9,88.3z"/>
	<path class="st0" d="M51,88l-2,0.4c-0.5,0.1-0.3,0.9,0.2,0.8l2-0.4C51.7,88.7,51.5,87.9,51,88z"/>
	<path class="st0" d="M57.1,86.3l-2.6,0.8c-0.5,0.1-0.3,0.9,0.2,0.8l2.6-0.8C57.8,86.9,57.6,86.1,57.1,86.3z"/>
	<path class="st0" d="M59.4,86l-0.8,0.1c-0.5,0.1-0.3,0.9,0.2,0.8l0.8-0.1C60.1,86.7,59.9,86,59.4,86z"/>
	<path class="st0" d="M58.6,58.7l3.5-0.4c0.5-0.1,0.3-0.8-0.2-0.8l-3.5,0.4C57.9,58,58.1,58.8,58.6,58.7z"/>
	<path class="st0" d="M65.1,57.3l3.2-0.5c0.5-0.1,0.3-0.9-0.2-0.8l-3.2,0.5C64.4,56.6,64.6,57.4,65.1,57.3z"/>
	<path class="st0" d="M72,55.4l2.8-0.6c0.5-0.1,0.3-0.9-0.2-0.8l-2.8,0.6C71.3,54.8,71.5,55.5,72,55.4z"/>
	<path class="st0" d="M78.2,53.9l4-1c0.2-0.1,0.3-0.3,0.3-0.5s-0.3-0.3-0.5-0.3l0,0l-4.1,1c-0.2,0.1-0.3,0.3-0.3,0.5
		S78,54,78.2,53.9z"/>
	<path class="st0" d="M70,40.4l-3-2.8c-0.4-0.4-1,0.2-0.6,0.6l3,2.8C69.8,41.3,70.4,40.8,70,40.4z"/>
	<path class="st0" d="M73.3,43.9c0.4,0.3,1-0.2,0.6-0.6L72.4,42c-0.4-0.3-1,0.2-0.6,0.6L73.3,43.9z"/>
	<path class="st0" d="M78,48.2c0.4,0.3,1-0.2,0.6-0.6c-0.7-0.6-1.4-1.2-2.1-1.8c-0.4-0.3-1,0.2-0.6,0.6C76.6,46.9,77.3,47.5,78,48.2
		z"/>
	<path class="st0" d="M78.8,58.7c0,1.3-0.1,2.6-0.1,3.9c0,0.2,0.2,0.4,0.5,0.3c0.2,0,0.3-0.2,0.3-0.3c0-1.3,0.1-2.6,0.1-3.9
		c0-0.2-0.2-0.4-0.4-0.4C78.9,58.3,78.8,58.5,78.8,58.7z"/>
	<path class="st0" d="M78.8,67.2l-0.9,4.9c-0.1,0.5,0.7,0.8,0.8,0.2l0.9-4.9C79.7,66.9,78.9,66.7,78.8,67.2z"/>
	<path class="st0" d="M78,76.4c-0.1,1.6-0.2,3.1-0.2,4.7c0,0.2,0.2,0.4,0.4,0.4s0.4-0.2,0.4-0.4c0.1-1.6,0.2-3.1,0.2-4.7
		c0-0.2-0.2-0.4-0.4-0.4S78,76.2,78,76.4L78,76.4z"/>
	<path class="st0" d="M77.5,85.5l-0.4,3.2c-0.1,0.5,0.7,0.5,0.8,0l0.4-3.2C78.4,85,77.6,85,77.5,85.5z"/>
	<path class="st0" d="M77,92.8c-0.2,1.5-0.3,3-0.5,4.6c-0.1,0.5,0.8,0.5,0.8,0c0.2-1.5,0.3-3,0.5-4.6C77.8,92.3,77,92.3,77,92.8z"/>
	<path class="st0" d="M87.4,70l3.2-2.5c0.4-0.3-0.2-0.9-0.6-0.6l-3.2,2.5C86.4,69.7,87,70.3,87.4,70z"/>
	<path class="st0" d="M93.4,65.3l2.1-1.6c0.4-0.3-0.1-0.9-0.6-0.6l-2.1,1.5C92.4,65,92.9,65.6,93.4,65.3z"/>
	<path class="st0" d="M100.7,61.3c-0.5-0.2-0.7,0.6-0.2,0.8l4.8,1.9c0.5,0.2,0.7-0.6,0.2-0.8L100.7,61.3z"/>
	<path class="st0" d="M108.5,64.7c-0.5-0.2-0.7,0.6-0.2,0.8l3.3,1.2c0.5,0.2,0.7-0.6,0.2-0.8L108.5,64.7z"/>
	<path class="st0" d="M116.9,69.9c0.5,0.2,0.9-0.4,0.4-0.7l-2.8-1.4c-0.5-0.2-0.9,0.4-0.4,0.7L116.9,69.9z"/>
	<path class="st0" d="M123.5,73c0.2,0.1,0.4,0,0.5-0.2c0.1-0.2,0-0.4-0.1-0.5c-0.8-0.6-1.7-1.1-2.5-1.6c-0.2-0.1-0.4,0-0.5,0.2
		c-0.1,0.2,0,0.4,0.1,0.5L123.5,73z"/>
	<path class="st0" d="M129.2,75.8c0.5,0.2,0.7-0.6,0.2-0.8l-2.5-1.1c-0.5-0.2-0.7,0.6-0.2,0.8L129.2,75.8z"/>
	<path class="st0" d="M116.7,59.6l1.6-2.5c0.1-0.2,0-0.4-0.2-0.5c-0.2-0.1-0.4,0-0.5,0.1l-1.6,2.5c-0.1,0.2-0.1,0.5,0.1,0.6
		S116.6,59.8,116.7,59.6z"/>
	<path class="st0" d="M119.4,54.4c0.1-0.3,0.2-0.5,0.3-0.8c0.2-0.5-0.6-0.7-0.8-0.2l-0.3,0.8C118.4,54.6,119.2,54.9,119.4,54.4z"/>
	<path class="st0" d="M75.3,59.2L60,63.9c-0.2,0.1-0.3,0.3-0.3,0.5c0,0.1,0.1,0.1,0.1,0.2l0.9,1c0,0,0.1,0.1,0.2,0.1l9.4,36.5
		c0,0.2,0.3,0.4,0.5,0.3c0.2,0,0.3-0.2,0.3-0.4l4.7-42.5c0-0.2-0.2-0.4-0.4-0.4C75.4,59.2,75.3,59.2,75.3,59.2z M70.5,99.9
		c-3-11.8-6.1-23.7-9.1-35.6l13.5-4.2C73.4,73.4,71.9,86.6,70.5,99.9L70.5,99.9z"/>
	<path class="st0" d="M49.8,56.7l-17.8-2c-0.5-0.1-0.5,0.7,0,0.8l17,1.9C43.3,63.2,38.6,69.8,34.9,77c-1-7-2-14.1-3-21.2
		c-0.1-0.5-0.8-0.3-0.8,0.2l3.1,22.3c0.1,0.2,0.3,0.3,0.5,0.3c0.1,0,0.2-0.1,0.2-0.2c3.8-7.8,8.9-14.9,15.1-21.1
		c0.2-0.2,0.1-0.4,0-0.6C50,56.7,49.9,56.7,49.8,56.7z"/>
	<path class="st0" d="M33.1,34.1c-0.2-0.1-0.4-0.1-0.5,0.1c0,0,0,0.1,0,0.1c-0.2-0.2-0.4-0.2-0.6,0c-0.1,0.1-0.1,0.2-0.1,0.3
		c-0.1,3.2-0.2,6.4-0.3,9.5c0,0.2,0.2,0.4,0.4,0.4c7.3,0.3,14.4,2.5,20.6,6.3c0.3,0.2,0.8-0.2,0.6-0.5C48,43.3,40.5,38.6,33.1,34.1z
		 M39.1,44.6c-1-0.2-1.9-0.4-2.9-0.5s-3.3,0.1-3.8-0.7c-0.4-0.6,0.1-3.2,0.1-4l0.1-4.6h0.1c6.7,4,13.5,8.2,18.5,14.3
		C47.4,47,43.3,45.5,39.1,44.6L39.1,44.6z"/>
	<path class="st0" d="M21.7,57.5l-16.4,11c0-0.5-0.8-0.5-0.8,0c0,0.2,0,0.3,0,0.5c-0.2,0.1-0.2,0.4-0.1,0.6c0,0,0.1,0.1,0.1,0.1
		L4.9,82c0,0.2,0.2,0.5,0.5,0.4c10.3-3.7,17.1-13.6,16.9-24.5c0-0.2-0.2-0.4-0.4-0.4C21.8,57.5,21.7,57.5,21.7,57.5z M5.7,81.5
		c-0.1-4-0.2-8-0.4-12l16.1-10.9C21.3,68.7,15.1,77.8,5.7,81.5L5.7,81.5z"/>
	<path class="st0" d="M11.9,88.5c-2.9-0.5-5.4,1.5-7.4,3.3c-0.1-0.2-0.3-0.3-0.5-0.2c-0.1,0.1-0.2,0.2-0.2,0.3
		c-0.1,5.6-0.2,11.2-0.3,16.8c0,0.2,0.2,0.4,0.4,0.4c0.1,0,0.2,0,0.3-0.1c2.6-2.2,5.1-4.7,7.2-7.4c1.9-2.4,4.4-5.4,4.3-8.6
		C15.7,90.7,14.1,88.8,11.9,88.5z M13.3,97.5c-2.5,3.8-5.5,7.3-9,10.3c0.1-5,0.2-10.1,0.2-15.1c0.1,0,0.2,0,0.3-0.1
		c2-1.8,4.6-4.1,7.5-3.2C16.1,90.5,14.8,95.1,13.3,97.5L13.3,97.5z"/>
</g>
</svg>
