<svg id="Layer_1" data-name="Layer 1" xmlns="http://www.w3.org/2000/svg" viewBox="0 0 186.17 117"><defs><style>.cls-1{fill:#545353;}</style></defs><title>5</title><g id="_6" data-name="6"><path class="cls-1" d="M107,49.52a.6.6,0,0,0-.42.53A21.93,21.93,0,0,0,89.83,65.33a22.37,22.37,0,0,0,36.23,23c7-6.24,9.6-17,5.8-25.69C127.89,53.55,116.83,46.82,107,49.52Zm21.1,9.89c5.47,7.09,5,17.17-.15,24.31-5.36,7.45-15.33,10.11-23.88,7.1s-14-12-13.43-21c.58-9.32,8.08-17.07,17-19.14C115.48,50.39,123.08,53,128.06,59.41Z" transform="translate(-9.72 -41.97)"/><path class="cls-1" d="M195.74,113.19c-1.41-8-9.69-11.39-16.27-14.25a252,252,0,0,0-31.32-11.3.83.83,0,0,0-.22,0c-1.25-4.6-5.44-8.65-10.26-8.06,3.7-10.8,0-23.5-8.6-30.94-10-8.64-25.54-8.83-35.81-.66-.24.18.06.59.31.42,9.19-6.17,21.93-7,31.4-.86a28.05,28.05,0,0,1,11.86,28.61c-2.23,10.43-11.14,18.89-21.54,21-10.65,2.14-22.23-3.24-28-12.35a26.81,26.81,0,0,1-3.8-17.22c.72-6.53,3.78-11.84,7.82-16.89.42-.51-.39-1-.84-.68-8.67,7-10.78,20.73-7,30.87A72.45,72.45,0,0,0,78,75.66c.13-.17.27-.34.4-.52a.54.54,0,0,0-.71-.75C74.82,76,72.41,78.84,70,81.08c-1.73,1.57-3.71,3.13-5.37,4.88L63.18,85l0-.09a.44.44,0,0,0-.58-.31c-7.63-5-15.59-9.53-23.41-14.21v-.05a.27.27,0,0,0-.45-.22l-.45-.27a.6.6,0,0,0-.7.07L25.06,81.62c-3.75,3.49-8.46,7-11.46,11.13-.14.19.12.46.33.34,4.23-2.62,7.85-6.86,11.48-10.25S32.6,75.3,36.63,72.4c1-.72,1.28-.94,1.85-.77A138.29,138.29,0,0,0,38,86.74a.44.44,0,0,0-.59-.06L13.4,105c.14-4.13.22-8.25.15-12.37a.45.45,0,0,0-.9,0c-.59,6-.87,12-1.09,18.1h0a.34.34,0,0,0,0,.54c-.16,4.59-.29,9.17-.49,13.74l-.27,6.37a.42.42,0,0,0,0,.57c-.12,2.89-.25,5.78-.37,8.67-.23,5.52-1,11.29-.52,16.8a.72.72,0,0,0,.71.61l-.28.33c-.3.39.29.77.63.51,6-4.68,11.21-10.66,16.6-16,2.67-2.66,5.36-5.29,8-8a.41.41,0,0,0,.59.36l8.09-4c.47-.23.08-.94-.39-.71L36,134.42C38.51,132,41,129.48,43.36,127q4.39,3.6,8.76,7.22L30.77,146.32c-.45.26-.06,1,.39.71l21.62-12.31,5.48,4.56-13,8.23c-.44.27-.05,1,.39.7l13.09-8.28a.33.33,0,0,0,.14-.15l1.16,1-9.88,6.71c-.43.29,0,1,.39.71l10.14-6.88.19.16,1.26,1.05-7.43,4.79c-.43.28,0,1,.39.71l7.69-5c2.3,1.91,4.6,3.83,6.91,5.73,2.8,2.32,5.53,5,8.62,6.89a.77.77,0,0,0,.19.08c0,.12.07.25.11.37a.36.36,0,0,0,.69-.17c0-.18-.06-.36-.09-.53a.62.62,0,0,0,0-.72c10.32-11.85,20.25-24.06,30.31-36.13.5-.6,1-1.27,1.52-1.82,1.26-1.27,1.11-1.28,2.74-.57a55.48,55.48,0,0,1,5.12,2.94q2.53,1.45,5.09,2.89l-19.17,15.86c-.4.33.15.91.55.58l19.22-15.89a.33.33,0,0,0,.11-.15l4,2.25c4.24,2.4,8.46,5.07,12.77,7.49l-10.75,6.61c-.44.27-.05,1,.39.71l10.92-6.71a.38.38,0,0,0,.16-.22c2.24,1.24,4.5,2.42,6.81,3.43.76.34,1.19-.83.57-1.26l-.08-.06a.37.37,0,0,0,0-.24c-2.17-7.12-5.84-14-8.84-20.86L136,103.22c-1.29-2.9-2.41-6.14-3.92-9l.66.66c0,.28.21.57.49.44,2.95,2.57,6.7,4.18,9.95,3,.66.81,1.35,1.6,2,2.37a.4.4,0,0,0,.53.56l.84.89a.44.44,0,0,0,.4.43c1.19,1.23,2.43,2.43,3.7,3.59a.44.44,0,0,0,.48.44,101.45,101.45,0,0,0,11.16,8.64c6.47,4.33,15,10.16,23.18,9.6C191.63,124.35,196.87,119.61,195.74,113.19ZM148.3,89.69c9.12,2.82,18.13,5.92,27,9.56,4.4,1.81,9.15,3.49,13.06,6.24a15,15,0,0,1,5,6c-1.61,1.31-2.81,2.72-4.83,3.52a14,14,0,0,1-5.76,1c-4.58-.17-8.73-2.45-12.38-5-7.72-5.49-14.59-12.14-22.34-17.6l-.16-.07A8.85,8.85,0,0,0,148.3,89.69Zm-18.78,2,.34-.31v0l.21.31a.5.5,0,0,0-.34.63,22,22,0,0,0,.76,2.43q-2.76,6.5-5.53,13l-1.16-.53.07-.05,1.81-2.24c.32-.4-.37-.82-.69-.42-.6.74-1.2,1.49-1.81,2.23a.43.43,0,0,0-.07.16l-1.15-.52L129.5,92A.39.39,0,0,0,129.52,91.7Zm-17.46,7.46a28.78,28.78,0,0,0,16.11-6.32l-6.94,13.25-12.9-5.88a.43.43,0,0,0-.5.1l-.14.07-.23.19q-.54-.87-1.14-1.71A27.57,27.57,0,0,0,112.06,99.16ZM94.12,113.8l-2.72,1.8.06-1.18,15.25-12.22c.4.71.79,1.43,1.16,2.15a.38.38,0,0,0-.26.09L91.28,117.7c0-.41,0-.82.07-1.23a.35.35,0,0,0,.27,0l2.89-1.92C94.94,114.22,94.55,113.51,94.12,113.8Zm10.6-15.24c.52,1,1.06,2,1.6,2.93L91.49,113.36c.19-5.17.21-10.35,0-15.54a.43.43,0,0,0-.13-.28l6.31-1.43A29.48,29.48,0,0,0,104.72,98.56ZM93.63,93.69a29.32,29.32,0,0,0,3,1.84l-29.14,6.63-.09-.4a.33.33,0,0,0-.11-.46c-.27-1.17-.54-2.35-.82-3.52Zm-16.1-17.4a67.94,67.94,0,0,1,7,6.81,28.09,28.09,0,0,0,6.38,8.37l.46.69a.4.4,0,0,0,.5.16c.29.24.6.46.9.69l-5,.75a.37.37,0,0,0-.11-.3A106.65,106.65,0,0,0,73.18,80.34,37.29,37.29,0,0,0,77.53,76.29ZM71,82.18c.5-.44,1-.88,1.54-1.32A106.76,106.76,0,0,1,87,93.88L66.25,97c-.71-3-1.45-5.92-2.23-8.85C66.58,86.55,68.79,84.16,71,82.18ZM39.17,71.9l.49.24a35.68,35.68,0,0,1,3.52,2.2l6.56,4.07C54,81,58.16,83.77,62.47,86.27c.11.62.23,1.23.35,1.85l-.1.13a.3.3,0,0,0,.2.44c.4,2.07.82,4.15,1.26,6.22a145.23,145.23,0,0,0-24.84-8.06C39.2,81.87,39.18,76.89,39.17,71.9Zm.19,15.78a145.61,145.61,0,0,1,25,8.18l.39,1.81-.55-.17a.44.44,0,0,0-.67-.19l-24.1-7.14C39.42,89.34,39.39,88.51,39.36,87.68Zm-26,18.39,24.57-18.8,0,0c0,1.07.05,2.13.09,3.2a.43.43,0,0,0-.58,0l-.67.52a.35.35,0,0,0-.34.27L13.23,109.43C13.28,108.31,13.32,107.19,13.36,106.07Zm-.88,19.6c.19-5,.47-10.11.7-15.18l23.3-18.31a36.91,36.91,0,0,1-24.07,35.24C12.44,126.84,12.46,126.26,12.48,125.67Zm-.1,2.62A37.75,37.75,0,0,0,37.27,91.56L38,91s0,0,0,0c.06,1.56.14,3.11.24,4.67a.34.34,0,0,0-.2.32A35.74,35.74,0,0,1,12.28,131C12.31,130.07,12.34,129.18,12.38,128.29ZM26,142.1c-5,5-10.47,9.85-14.94,15.36.8-5.09.6-10.45.8-15.58l.39-10.08a36.21,36.21,0,0,0,14.28-7.74.16.16,0,0,0,0,.1q1,7.67,2,15.32s0,0,0,.05C27.69,140.39,26.85,141.25,26,142.1Zm3.26-3.28q-1-7.42-2-14.85a.32.32,0,0,0-.34-.3c.53-.48,1.05-1,1.55-1.49q1.5,7.08,3,14.16a.52.52,0,0,0,.07.15Zm3-3-3-14.36a36.6,36.6,0,0,0,9.53-20.75q.51,5.91,1.34,11.78c.6,4.25,1,9.09,2.46,13.16C39,129,35.6,132.4,32.21,135.83Zm11.63-10.4h0c-.21-4-1.47-8.17-2.09-12.14Q40.58,105.87,40,98.4c-.21-2.46-.36-4.92-.47-7.38l23.56,7q-9.76,13.66-18.52,28Zm1.32,1.09Q54,112,63.87,98.24l1.05.31h0c.29,1.3.58,2.59.88,3.89L46.41,127.55C46,127.21,45.57,126.87,45.16,126.52ZM47,128.06l19-24.61c1.32,5.77,2.72,11.52,4,17.26.38,1.63.77,3.27,1.15,4.91a.22.22,0,0,0-.08,0,100.82,100.82,0,0,1-22.83,3.55Zm23.38,19.17-6.27-5.13c.23-.32-.11-.84-.5-.59l-.13.08-2-1.62-8.19-6.69,18.49-2.68c.51-.07.32-.86-.2-.78l-19.13,2.77c-1.08-.88-2.15-1.78-3.22-2.66a101.47,101.47,0,0,0,22.09-3.53.15.15,0,0,0,.07,0q1.38,5.88,2.77,11.76c1.19,5,2.2,10.17,3.57,15.18C75.49,151.13,72.83,149.23,70.41,147.23Zm8.4,5.86c-.91-4.92-2.19-9.81-3.26-14.68q-2-9-4-18C70.22,114.57,69,108.75,67.64,103l20.09-4.57a.53.53,0,0,0,0,.15Q85.32,123.26,83,148C81.57,149.7,80.18,151.39,78.81,153.09Zm8-9.81,0-1.14a.41.41,0,0,0-.81,0c0,.54,0,1.07,0,1.61a.38.38,0,0,0,.17.33c-.77.93-1.53,1.88-2.3,2.82l4.62-48.33a.37.37,0,0,0-.13-.32l2.36-.53a.3.3,0,0,0,0,.1c.26,6.87.16,13.75-.26,20.6a.33.33,0,0,0,0,.44,207.6,207.6,0,0,1-2.85,23.55C87.31,142.69,87.06,143,86.82,143.28Zm24.74-29.37c-7.68,9.06-15.39,18.12-23,27.26a207.89,207.89,0,0,0,2.65-22.38Q99.59,112,108,105.18l.43.21c.11.22.23.44.34.67,1.18,2.49,1.85,5.38,3.34,7.69A.56.56,0,0,0,111.56,113.91Zm36.68,19.94c-5.45-3.61-11.58-6.5-17.26-9.68q-9.07-5.08-18.18-10.1a.41.41,0,0,0,.3-.44c-.16-2.42-1.39-4.9-2.47-7.13l32.11,16A105.55,105.55,0,0,0,148.24,133.85Zm-8.58-18.55c.87,2,1.72,4,2.59,6.1l-32.2-16.08c-.67-1.38-1.38-2.74-2.16-4.06l.29-.24L121,106.87a.42.42,0,0,0,.5.22l17.93,8.17A.45.45,0,0,0,139.66,115.3Zm-5.75-13,4.82,10.83.48,1.1-13.52-6.16,5.22-12.28C131.82,98.05,133,100.22,133.91,102.35Zm7.22-5.07a5.82,5.82,0,0,1-1.44-.09L144.44,93c.39-.34-.17-.93-.56-.59L139,96.71a.36.36,0,0,0-.13.27c-.25-.08-.51-.17-.77-.28l4.17-3.46c.4-.33-.16-.91-.56-.58l-4.39,3.65h0a11,11,0,0,1-1.23-.73l6-4.45c.42-.31-.14-.89-.55-.58l-6.16,4.55q-.45-.33-.9-.69l5.36-3.86c.42-.3,0-1-.39-.7l-5.61,4-.71-.62,4.3-3c.42-.3,0-1-.39-.71l-4.38,3.11a.32.32,0,0,0-.11.12l-.24-.23v0c.16-.36-.25-.58-.54-.46h0a.39.39,0,0,0,.11-.06l4.1-3.4c.4-.33-.15-.91-.55-.58q-2.06,1.69-4.1,3.4a.23.23,0,0,0-.1.12l-.65-.63-.1-.07a29.26,29.26,0,0,0,6.69-9.94c2.72,1.15,5.34,1.33,7.48,3.74a8.07,8.07,0,0,1,1.26,9.25.43.43,0,0,0-.67-.22l-4.14,3.09A.34.34,0,0,0,141.13,97.28Zm.69-.09,3.78-2.83A6.36,6.36,0,0,1,141.82,97.19Zm10.75,8.35,3.21-2.47c.41-.31-.15-.9-.56-.58L152,105l-1.18-1.08,3.68-3.09c.4-.33-.16-.91-.55-.58l-3.72,3.12-.34-.32,3.21-2.6c.4-.33-.16-.91-.56-.59l-3.24,2.64-1-.93,3.25-2.7c.4-.34-.16-.92-.56-.59L147.71,101c-.28-.28-.56-.54-.83-.82l3.32-3c.38-.35-.18-.93-.56-.58l-3.33,3c-.26-.25-.52-.52-.77-.78l3.11-2.74c.39-.34-.17-.93-.55-.59L145,98.26l-.59-.6a8.78,8.78,0,0,0,2.74-2.86c.13-.22.25-.44.36-.67,3.24,3,6.69,5.81,10.15,8.59l-.06,0-4.18,3.52Zm2.08,1.81-.65-.54,4.13-3.48a.31.31,0,0,0,.1-.13l1.06.86a.43.43,0,0,0-.42,0l-4.11,3.11A.33.33,0,0,0,154.65,107.35Zm4.15,3.32,3.79-2.91c.41-.32-.14-.9-.55-.58l-3.9,3-1-.78,3.65-3c.4-.33-.16-.92-.56-.59l-3.73,3.05-1.25-1,.07,0,4.12-3.11a.32.32,0,0,0,.07-.47l2.24,1.82,2.41,2a.41.41,0,0,0-.51,0l-4.1,3.21Zm1.42,1.06,4-3.11a.34.34,0,0,0,0-.52l1,.85-4.2,3.38Zm3.34,2.31,3.41-2.78c.4-.33-.15-.91-.55-.59l-3.56,2.91c-.38-.25-.75-.51-1.12-.77l4.09-3.28,0-.07c1,.83,2.05,1.63,3.1,2.41l-.09,0-3.77,3.16Zm2.28,1.48,3.6-3a.34.34,0,0,0,.13-.21q.63.46,1.29.9l-3.89,3Zm3.11,1.92-1.25-.76,3.88-3h0c.47.3.94.59,1.43.86L169.13,117A.42.42,0,0,0,169,117.44Zm2.38,1.37q-1-.54-1.89-1.08l.08,0,4.29-2.76.5.28.66.3-3.57,3.18Zm2.12,1.12c-.47-.24-.94-.48-1.4-.73l3.72-3.31a22.69,22.69,0,0,0,2.34.86l-4.51,3A.47.47,0,0,0,173.45,119.93Zm.77.38,4.41-3a.38.38,0,0,0,.18-.41c.59.16,1.19.28,1.79.38l-5.12,3.57Zm18.14-.49a9.42,9.42,0,0,1-5.59,3.21l6.5-5.28c.4-.33-.16-.91-.56-.58l-7.09,5.77a.36.36,0,0,0-.14.25,12.66,12.66,0,0,1-2,0l7.1-5.82c.4-.33-.16-.92-.56-.59L182.34,123c-.4-.06-.8-.14-1.2-.22l5.63-4.76c.39-.33-.16-.91-.56-.58l-6,5.1a30.28,30.28,0,0,1-3.82-1.31l5.42-3.78.67.05-4.4,3.74c-.4.34.16.92.55.58l5.07-4.29a16.11,16.11,0,0,0,2.18-.16c2.86-.43,6.41-1.79,8-4.38A7.16,7.16,0,0,1,192.36,119.82Z" transform="translate(-9.72 -41.97)"/><path class="cls-1" d="M98.84,60a16.26,16.26,0,0,1,28.78,9.85c0,.51.83.54.8,0A17.06,17.06,0,0,0,98.29,59.46C98,59.85,98.5,60.44,98.84,60Z" transform="translate(-9.72 -41.97)"/><path class="cls-1" d="M95.89,68.72c.09-.5-.68-.74-.77-.23a15.55,15.55,0,0,0,11.22,18.13c.49.13.73-.64.23-.77A14.74,14.74,0,0,1,95.89,68.72Z" transform="translate(-9.72 -41.97)"/><path class="cls-1" d="M110.6,66.9c-.59,2.14-1.19,4.27-1.78,6.4-.14.5.63.74.77.24l1.78-6.4C111.51,66.64,110.74,66.4,110.6,66.9Z" transform="translate(-9.72 -41.97)"/><path class="cls-1" d="M112.91,60.23q-1,8-2,16.07c-.06.51.74.53.81,0l2-16.06C113.78,59.74,113,59.72,112.91,60.23Z" transform="translate(-9.72 -41.97)"/><path class="cls-1" d="M115.37,68.75c-.18,1.61-.35,3.21-.53,4.82-.06.51.75.53.81,0,.17-1.61.35-3.21.53-4.82C116.23,68.25,115.43,68.24,115.37,68.75Z" transform="translate(-9.72 -41.97)"/><path class="cls-1" d="M46.31,131.82c.44-.28,0-1-.39-.71l-13.43,8.45c-.43.27-.05,1,.39.7Z" transform="translate(-9.72 -41.97)"/><path class="cls-1" d="M48.31,133.08,29.74,143.56c-.45.26-.06,1,.39.71L48.7,133.79A.41.41,0,0,0,48.31,133.08Z" transform="translate(-9.72 -41.97)"/><path class="cls-1" d="M52.55,136.75,37.31,146.1c-.44.27-.05,1,.39.71l15.24-9.35C53.38,137.19,53,136.48,52.55,136.75Z" transform="translate(-9.72 -41.97)"/><path class="cls-1" d="M41.45,147.4a.4.4,0,0,0,0,.8A.4.4,0,0,0,41.45,147.4Z" transform="translate(-9.72 -41.97)"/><path class="cls-1" d="M56.25,138.14l-13.1,8c-.44.27-.06,1,.39.71l13.09-8C57.07,138.58,56.69,137.87,56.25,138.14Z" transform="translate(-9.72 -41.97)"/><path class="cls-1" d="M58.63,147.58a.4.4,0,0,0,0,.8A.4.4,0,0,0,58.63,147.58Z" transform="translate(-9.72 -41.97)"/><path class="cls-1" d="M63.74,145c.43-.29,0-1-.39-.7l-3.83,2.58c-.42.29,0,1,.39.71Z" transform="translate(-9.72 -41.97)"/><path class="cls-1" d="M66,146.55l-5.95,3.68c-.44.27-.06,1,.38.71l6-3.68C66.85,147,66.47,146.28,66,146.55Z" transform="translate(-9.72 -41.97)"/><path class="cls-1" d="M68.08,149.54l-4.62,2.59a.41.41,0,0,0,.39.71l4.62-2.59A.41.41,0,0,0,68.08,149.54Z" transform="translate(-9.72 -41.97)"/><path class="cls-1" d="M116.47,119.83,98.6,134.93c-.4.33.16.91.55.58L117,120.41C117.42,120.08,116.86,119.49,116.47,119.83Z" transform="translate(-9.72 -41.97)"/><path class="cls-1" d="M103.74,129.05l12.6-10.73c.39-.34-.16-.92-.56-.59l-12.59,10.73C102.79,128.8,103.35,129.38,103.74,129.05Z" transform="translate(-9.72 -41.97)"/><path class="cls-1" d="M107.9,132.32l13-10.88c.4-.33-.16-.91-.56-.58l-13,10.88C107,132.07,107.51,132.66,107.9,132.32Z" transform="translate(-9.72 -41.97)"/><path class="cls-1" d="M126.78,124.12,109.12,137.2c-.41.31.15.89.56.59l17.66-13.08C127.75,124.4,127.19,123.82,126.78,124.12Z" transform="translate(-9.72 -41.97)"/><path class="cls-1" d="M129.83,125.92l-13.68,10.14c-.42.3.14.89.55.58q6.84-5.07,13.69-10.13C130.8,126.2,130.24,125.62,129.83,125.92Z" transform="translate(-9.72 -41.97)"/><path class="cls-1" d="M132.83,127.55l-13.94,9.87c-.42.3,0,1,.39.71l13.94-9.87C133.63,128,133.25,127.25,132.83,127.55Z" transform="translate(-9.72 -41.97)"/><path class="cls-1" d="M135,129.52l-12,8.55c-.42.3,0,1,.39.71l12-8.55C135.76,129.93,135.37,129.22,135,129.52Z" transform="translate(-9.72 -41.97)"/><path class="cls-1" d="M136.8,132.32l-9.86,6.43c-.43.28,0,1,.39.7l9.86-6.42C137.62,132.75,137.24,132,136.8,132.32Z" transform="translate(-9.72 -41.97)"/><path class="cls-1" d="M137.6,137.83a.41.41,0,0,0,0,.81A.41.41,0,0,0,137.6,137.83Z" transform="translate(-9.72 -41.97)"/><path class="cls-1" d="M139.24,136.8a.41.41,0,0,0,0,.81A.41.41,0,0,0,139.24,136.8Z" transform="translate(-9.72 -41.97)"/><path class="cls-1" d="M97.27,137.68l-9.37,8.88a.4.4,0,0,0,.56.58l9.37-8.88C98.21,137.91,97.65,137.32,97.27,137.68Z" transform="translate(-9.72 -41.97)"/><path class="cls-1" d="M20.06,153.82a.4.4,0,0,0,0,.8A.4.4,0,0,0,20.06,153.82Z" transform="translate(-9.72 -41.97)"/><path class="cls-1" d="M26.1,147.92l-5,4.7a.4.4,0,0,0,.55.59l5-4.71A.4.4,0,0,0,26.1,147.92Z" transform="translate(-9.72 -41.97)"/><path class="cls-1" d="M175.35,110.91c3.85,2,10.32,4.58,12.7-.85.21-.47-.56-.7-.77-.23-2.74,6.23-11.55.51-15.22-1.68a75.16,75.16,0,0,1-12.36-9.3c-.38-.35-1,.2-.59.55A75.77,75.77,0,0,0,175.35,110.91Z" transform="translate(-9.72 -41.97)"/><path class="cls-1" d="M90.35,59a23.65,23.65,0,0,0,13,35.9.4.4,0,0,0,.24-.77A22.84,22.84,0,0,1,91,59.43C91.32,59,90.63,58.58,90.35,59Z" transform="translate(-9.72 -41.97)"/><path class="cls-1" d="M129,86.69c-.34.38.21,1,.55.58a25,25,0,0,0-5.74-38.22.41.41,0,0,0-.43.69A24.51,24.51,0,0,1,129,86.69Z" transform="translate(-9.72 -41.97)"/><path class="cls-1" d="M17,104.16,14.71,106c-.41.32.15.91.56.59l2.33-1.82C18,104.42,17.45,103.84,17,104.16Z" transform="translate(-9.72 -41.97)"/><path class="cls-1" d="M21.57,100.51l-2.36,2.07c-.39.34.17.93.56.58l2.35-2.07C22.51,100.75,22,100.17,21.57,100.51Z" transform="translate(-9.72 -41.97)"/><path class="cls-1" d="M28.23,95.66l-3.46,2.26c-.43.28-.05,1,.39.71l3.46-2.27C29.05,96.08,28.66,95.37,28.23,95.66Z" transform="translate(-9.72 -41.97)"/><path class="cls-1" d="M33.35,91.69l-2.47,2c-.41.32.15.9.56.58l2.47-2C34.31,92,33.76,91.37,33.35,91.69Z" transform="translate(-9.72 -41.97)"/><path class="cls-1" d="M44,89.35,40.56,89c-.52,0-.54.75,0,.81l3.48.35C44.54,90.21,44.56,89.4,44,89.35Z" transform="translate(-9.72 -41.97)"/><path class="cls-1" d="M46.24,89.85c-.47-.22-.9.47-.43.68l2.13,1c.47.22.89-.47.43-.68Z" transform="translate(-9.72 -41.97)"/><path class="cls-1" d="M51.07,91.81c-.51-.09-.75.68-.23.77l3.61.61c.5.08.74-.69.23-.77Z" transform="translate(-9.72 -41.97)"/><path class="cls-1" d="M57.47,93.82a.4.4,0,0,0-.23.77l3.06.89a.41.41,0,0,0,.24-.78Z" transform="translate(-9.72 -41.97)"/><path class="cls-1" d="M16.52,127.33l-3.26,1.39c-.47.2-.08.91.39.7L16.91,128C17.39,127.83,17,127.12,16.52,127.33Z" transform="translate(-9.72 -41.97)"/><path class="cls-1" d="M21.34,124.41l-2.85,2.11c-.41.31.14.89.56.58.95-.7,1.9-1.4,2.84-2.11C22.31,124.68,21.75,124.1,21.34,124.41Z" transform="translate(-9.72 -41.97)"/><path class="cls-1" d="M26.28,120.66l-2.06,1.82c-.39.35.17.93.56.59l2.06-1.83C27.23,120.9,26.67,120.31,26.28,120.66Z" transform="translate(-9.72 -41.97)"/><path class="cls-1" d="M29.53,118.41l1.94-2.5c.32-.41-.37-.83-.68-.43L28.84,118C28.52,118.39,29.21,118.81,29.53,118.41Z" transform="translate(-9.72 -41.97)"/><path class="cls-1" d="M33.31,113.28l1.41-3.06c.22-.46-.46-.89-.68-.42-.47,1-.95,2-1.42,3C32.41,113.32,33.09,113.75,33.31,113.28Z" transform="translate(-9.72 -41.97)"/><path class="cls-1" d="M35.78,107.6c.27-1.2.55-2.4.82-3.59.11-.51-.66-.74-.77-.24-.28,1.2-.55,2.4-.82,3.6C34.89,107.87,35.66,108.11,35.78,107.6Z" transform="translate(-9.72 -41.97)"/><path class="cls-1" d="M37.54,102,38,99.2c.08-.51-.69-.75-.77-.24l-.48,2.81C36.69,102.28,37.46,102.51,37.54,102Z" transform="translate(-9.72 -41.97)"/><path class="cls-1" d="M28.75,128.26l-.24-2.85a.39.39,0,0,0,.11-.48c-.07-.17-.15-.34-.22-.5a.41.41,0,0,0-.76.18c.1,1.21.21,2.42.31,3.63C28,128.75,28.8,128.78,28.75,128.26Z" transform="translate(-9.72 -41.97)"/><path class="cls-1" d="M28.37,130c.17,1.61.33,3.22.5,4.83.06.51.86.54.81,0L29.17,130C29.12,129.52,28.31,129.49,28.37,130Z" transform="translate(-9.72 -41.97)"/><path class="cls-1" d="M46.5,124.88l-.72,1c-.29.43.39.85.69.42l.71-1C47.48,124.87,46.79,124.45,46.5,124.88Z" transform="translate(-9.72 -41.97)"/><path class="cls-1" d="M50.78,119.47l-1.41,2.1c-.29.43.4.86.69.43l1.41-2.11C51.76,119.46,51.07,119,50.78,119.47Z" transform="translate(-9.72 -41.97)"/><path class="cls-1" d="M55.45,112.64l-2.13,2.74c-.32.41.37.83.69.42l2.12-2.73C56.45,112.66,55.76,112.24,55.45,112.64Z" transform="translate(-9.72 -41.97)"/><path class="cls-1" d="M59.77,106.57l-2.1,3c-.29.43.39.85.69.42l2.09-3C60.75,106.57,60.06,106.15,59.77,106.57Z" transform="translate(-9.72 -41.97)"/><path class="cls-1" d="M64,100.36,61.77,104a.4.4,0,0,0,.68.42l2.18-3.66C64.9,100.34,64.21,99.92,64,100.36Z" transform="translate(-9.72 -41.97)"/><path class="cls-1" d="M55.59,130.3l-2.55.2c-.51,0-.54.84,0,.8l2.55-.2C56.09,131.06,56.11,130.26,55.59,130.3Z" transform="translate(-9.72 -41.97)"/><path class="cls-1" d="M60.74,130l-2,.37c-.51.09-.31.87.2.78l2-.36C61.45,130.64,61.25,129.86,60.74,130Z" transform="translate(-9.72 -41.97)"/><path class="cls-1" d="M66.85,128.27l-2.57.76c-.49.15-.3.93.2.79l2.56-.77C67.54,128.9,67.35,128.12,66.85,128.27Z" transform="translate(-9.72 -41.97)"/><path class="cls-1" d="M69.12,128l-.81.12c-.51.07-.32.86.19.78l.81-.12C69.82,128.71,69.63,127.93,69.12,128Z" transform="translate(-9.72 -41.97)"/><path class="cls-1" d="M68.3,100.71l3.51-.43c.51-.06.32-.85-.19-.78l-3.51.42C67.6,100,67.8,100.77,68.3,100.71Z" transform="translate(-9.72 -41.97)"/><path class="cls-1" d="M74.79,99.27,78,98.81c.51-.08.31-.86-.2-.79l-3.23.47C74.09,98.56,74.28,99.34,74.79,99.27Z" transform="translate(-9.72 -41.97)"/><path class="cls-1" d="M81.68,97.4l2.84-.6c.51-.11.31-.89-.19-.78l-2.84.6C81,96.72,81.18,97.51,81.68,97.4Z" transform="translate(-9.72 -41.97)"/><path class="cls-1" d="M87.92,95.87l4-1a.4.4,0,0,0-.19-.78l-4.06,1A.4.4,0,0,0,87.92,95.87Z" transform="translate(-9.72 -41.97)"/><path class="cls-1" d="M79.77,82.38l-3-2.8c-.38-.36-1,.2-.59.55l3,2.8C79.57,83.28,80.15,82.73,79.77,82.38Z" transform="translate(-9.72 -41.97)"/><path class="cls-1" d="M83.07,85.91c.39.34,1-.21.59-.55L82.08,84c-.39-.33-1,.22-.58.56Z" transform="translate(-9.72 -41.97)"/><path class="cls-1" d="M87.75,90.12c.39.34,1-.21.58-.55-.69-.61-1.39-1.21-2.09-1.81-.39-.34-1,.21-.58.55C86.35,88.92,87.05,89.52,87.75,90.12Z" transform="translate(-9.72 -41.97)"/><path class="cls-1" d="M88.48,100.68c0,1.3-.07,2.6-.11,3.89a.41.41,0,0,0,.81,0c0-1.29.07-2.59.1-3.89A.4.4,0,0,0,88.48,100.68Z" transform="translate(-9.72 -41.97)"/><path class="cls-1" d="M88.52,109.17l-.93,4.94c-.1.51.67.75.77.24l.93-4.95C89.39,108.9,88.62,108.66,88.52,109.17Z" transform="translate(-9.72 -41.97)"/><path class="cls-1" d="M87.77,118.39c-.08,1.57-.16,3.13-.23,4.7a.4.4,0,0,0,.8,0c.08-1.57.16-3.13.23-4.7A.4.4,0,0,0,87.77,118.39Z" transform="translate(-9.72 -41.97)"/><path class="cls-1" d="M87.23,127.51l-.39,3.21c-.07.51.74.53.8,0l.39-3.21C88.09,127,87.29,127,87.23,127.51Z" transform="translate(-9.72 -41.97)"/><path class="cls-1" d="M86.71,134.74c-.17,1.52-.33,3-.49,4.56-.06.52.75.53.8,0,.17-1.52.33-3,.49-4.55C87.57,134.25,86.76,134.23,86.71,134.74Z" transform="translate(-9.72 -41.97)"/><path class="cls-1" d="M97.09,112l3.16-2.46c.41-.31-.15-.9-.55-.58l-3.16,2.46C96.13,111.71,96.68,112.29,97.09,112Z" transform="translate(-9.72 -41.97)"/><path class="cls-1" d="M103.08,107.24l2.06-1.55c.42-.31-.14-.89-.55-.58l-2.07,1.54C102.11,107,102.67,107.54,103.08,107.24Z" transform="translate(-9.72 -41.97)"/><path class="cls-1" d="M110.4,103.31c-.49-.19-.72.58-.24.77l4.78,1.89c.48.19.72-.58.24-.77Z" transform="translate(-9.72 -41.97)"/><path class="cls-1" d="M118.22,106.66c-.49-.17-.73.6-.24.77l3.34,1.15c.49.17.72-.61.23-.78Z" transform="translate(-9.72 -41.97)"/><path class="cls-1" d="M126.64,111.88c.46.24.88-.44.42-.68l-2.77-1.44c-.46-.24-.89.45-.42.68Z" transform="translate(-9.72 -41.97)"/><path class="cls-1" d="M133.26,115a.4.4,0,0,0,.42-.68c-.84-.55-1.69-1.09-2.54-1.63a.4.4,0,0,0-.42.68Z" transform="translate(-9.72 -41.97)"/><path class="cls-1" d="M138.92,117.8c.47.21.7-.56.23-.77l-2.52-1.14c-.47-.21-.7.56-.23.77Z" transform="translate(-9.72 -41.97)"/><path class="cls-1" d="M126.45,101.56,128,99.07a.41.41,0,0,0-.69-.43l-1.57,2.49A.4.4,0,0,0,126.45,101.56Z" transform="translate(-9.72 -41.97)"/><path class="cls-1" d="M129.12,96.34c.1-.26.2-.53.29-.8.18-.48-.59-.71-.77-.23l-.29.8C128.17,96.6,128.94,96.83,129.12,96.34Z" transform="translate(-9.72 -41.97)"/><path class="cls-1" d="M85,101.15l-15.24,4.72a.4.4,0,0,0-.19.67l.88,1a.39.39,0,0,0,.16.1L80,144.17a.4.4,0,0,0,.79-.09l4.71-42.53A.4.4,0,0,0,85,101.15Zm-4.77,40.69q-4.56-17.77-9.13-35.55l13.53-4.18Q82.39,122,80.18,141.84Z" transform="translate(-9.72 -41.97)"/><path class="cls-1" d="M59.55,98.66l-17.84-2c-.52-.06-.54.74,0,.8l17,1.94a78.4,78.4,0,0,0-14.06,19.54q-1.49-10.57-3-21.16c-.07-.51-.85-.31-.78.2L44,120.32a.41.41,0,0,0,.74.11A77.81,77.81,0,0,1,59.82,99.35.41.41,0,0,0,59.55,98.66Z" transform="translate(-9.72 -41.97)"/><path class="cls-1" d="M42.84,76.11a.39.39,0,0,0-.58.24.41.41,0,0,0-.7.26q-.14,4.77-.25,9.52a.41.41,0,0,0,.39.42,41.78,41.78,0,0,1,20.59,6.32c.31.2.81-.2.56-.54C57.68,85.24,50.23,80.59,42.84,76.11Zm6,10.48c-1-.2-1.93-.37-2.91-.5s-3.29.07-3.83-.73c-.41-.61.09-3.2.11-4l.12-4.64.06,0c6.67,4,13.47,8.24,18.47,14.31A42,42,0,0,0,48.87,86.59Z" transform="translate(-9.72 -41.97)"/><path class="cls-1" d="M31.38,99.51,15,110.56c0-.5-.82-.51-.8,0,0,.17,0,.35,0,.53a.43.43,0,0,0,0,.7L14.6,124c0,.23.24.5.5.4A25.65,25.65,0,0,0,32,99.87.41.41,0,0,0,31.38,99.51Zm-16,23.94q-.17-6-.35-12l16.11-10.87A24.79,24.79,0,0,1,15.39,123.45Z" transform="translate(-9.72 -41.97)"/><path class="cls-1" d="M21.6,130.43c-2.93-.47-5.35,1.48-7.39,3.32a.41.41,0,0,0-.78.15q-.12,8.39-.25,16.77a.41.41,0,0,0,.68.3,52.14,52.14,0,0,0,7.22-7.41c1.9-2.41,4.4-5.37,4.28-8.64A4.49,4.49,0,0,0,21.6,130.43Zm1.4,9.09a47.32,47.32,0,0,1-9,10.26q.12-7.56.23-15.12a.38.38,0,0,0,.29-.1c2-1.8,4.56-4.09,7.47-3.22C25.86,132.49,24.51,137.11,23,139.52Z" transform="translate(-9.72 -41.97)"/></g></svg>