<?xml version="1.0" encoding="utf-8"?>
<!-- Generator: Adobe Illustrator 23.0.6, SVG Export Plug-In . SVG Version: 6.00 Build 0)  -->
<svg version="1.1" id="Layer_1" xmlns="http://www.w3.org/2000/svg" xmlns:xlink="http://www.w3.org/1999/xlink" x="0px" y="0px"
	 viewBox="0 0 193.2 147" style="enable-background:new 0 0 193.2 147;" xml:space="preserve">
<style type="text/css">
	.st0{fill:#FFFCFC;}
</style>
<title>6</title>
<g id="_15">
	<path class="st0" d="M12.5,73c1.2-2.6,2.3-5.3,3.1-8.1c0.1,0.4,0.3,0.7,0.4,1.1c-0.2-0.1-0.5,0-0.6,0.2c0,0.1,0,0.1,0,0.2
		c-0.6,6.5-0.3,13.3-0.1,19.8c0,0.4,0.4,0.7,0.9,0.7c0.4,0,0.6-0.3,0.7-0.7c0-6.4,0.2-12.9-0.5-19.3c0.6,1.9,1.3,3.7,2.2,5.4
		c0.1,0.3,0.4,0.4,0.7,0.3s0.4-0.4,0.3-0.7c-0.6-3.1-2.2-6.1-3.3-9.1c-0.1-0.3-0.4-0.5-0.7-0.4c-0.2,0.1-0.3,0.2-0.4,0.4
		c-1.3,3.2-2.4,6.4-3.3,9.8C11.8,73.1,12.3,73.4,12.5,73z"/>
	<path class="st0" d="M23,73.1c0.5-1.6,1-3.2,1.4-4.8c-0.1,2.3,0.2,4.7,0.3,7c0.1,3.3,0.3,6.6,0.5,9.8c0,0.8,1.3,0.8,1.2,0
		c-0.1-3.3-0.3-6.6-0.4-9.8c0-2.5-0.1-5-0.4-7.4c0.6,1.8,1.2,3.6,2,5.4c0.3,0.6,1.3,0.2,1.1-0.5c-0.8-3-2.3-5.8-3.2-8.7
		c-0.1-0.3-0.4-0.4-0.7-0.3c-0.2,0.1-0.3,0.2-0.3,0.3c-0.8,2.9-1.4,5.9-1.8,8.8c0,0.2,0.2,0.3,0.3,0.2C22.9,73.2,22.9,73.2,23,73.1z
		 M24.9,66.2l0.1,0.2h-0.1L24.9,66.2z"/>
	<path class="st0" d="M33.2,72.1c2.2,0.2,4.5,0.3,6.8,0.2h0.3c-0.4,1.6-0.4,3.3-0.2,5c0.2,1.4,0.2,2.9-0.1,4.4
		c-0.2,0.8-0.7,1.6-1.3,2.2c-2.7,0.7-4.1,0.1-4.2-1.7c-0.1-0.4-0.6-0.3-0.7,0c-0.8,3,3,4.4,5.1,3c4.2-2.7,1.8-8.8,2.3-12.9
		c2,0.1,4,0,6-0.2c0.2,0,0.4-0.3,0.4-0.5c0,0,0.1-0.1,0.1-0.1c0.9-4.5-1.5-11-6.8-10.9h-0.2c0.5-1.1,0.8-2.3,0.7-3.5
		c0-0.8-1.2-1-1.4-0.2c-0.2,1.1-0.5,2.8,0,3.8l0,0c-5,0.6-7.2,6.1-7.4,10.7c-0.2,0.2-0.2,0.5,0,0.7c0,0.2,0.2,0.3,0.5,0.3
		C33,72.2,33.1,72.2,33.2,72.1z M39.8,62.2c5.6-1.1,5.9,5.2,7,8.8c-2.3-0.2-4.5-0.3-6.8-0.2c-2.2-0.1-4.3,0-6.5,0.2
		C34.2,67.4,35.5,63.1,39.8,62.2z"/>
	<path class="st0" d="M55.5,61.6c1.8,0.1,3.6,0.2,5.3,0.2c0.1,0,0.2,0,0.3,0c0.4,2.1,1,4.1,0.3,6.2s-2.6,3.9-4.9,3.6
		c-4.7-0.5-4.9-6.2-5.2-9.8c0-0.2-0.2-0.3-0.4-0.2c-0.1,0-0.2,0.1-0.2,0.2c-0.3,3.9,0.6,10.6,5.3,11.3c-0.3,1.5-0.4,3.1-0.3,4.7
		c0,2-0.1,4-0.1,6c-1.4,0-2.7,0.1-4,0.5c-0.2,0.1-0.2,0.2-0.2,0.4c0,0.1,0.1,0.2,0.2,0.2c1.5,0.3,3.1,0.4,4.6,0.3
		c1.6,0.1,3.2,0,4.7-0.3c0.3-0.1,0.4-0.3,0.3-0.6c0-0.2-0.2-0.3-0.3-0.3c-1.3-0.3-2.6-0.3-3.9-0.1c0.1-2,0.1-4,0.1-5.9
		c0.1-1.5,0-3.1-0.2-4.6h0.3c5.9-0.4,6.4-8.1,4.6-12.2c-0.1-0.3-0.4-0.4-0.6-0.3c0,0,0,0,0,0c-0.1-0.1-0.3-0.2-0.5-0.2
		c-1.8-0.2-3.6-0.2-5.3-0.3c-1.6-0.2-3.1-0.1-4.7,0.2c-0.2,0.1-0.3,0.2-0.2,0.4c0,0.1,0.1,0.2,0.2,0.2
		C52.4,61.5,53.9,61.7,55.5,61.6z"/>
	<path class="st0" d="M17.5,135l-9.4,7.1c-0.4,0.3,0,1,0.4,0.7l9.4-7.1C18.3,135.4,18,134.7,17.5,135z"/>
	<path class="st0" d="M20.4,136.1c-3.4,2.5-6.8,5-10.2,7.5c-0.4,0.3,0,1,0.4,0.7l10.2-7.5C21.2,136.5,20.9,135.8,20.4,136.1z"/>
	<path class="st0" d="M31.3,116.8c-1.6,1.3-3.3,2.6-5,3.9c-0.4,0.3,0.2,0.9,0.6,0.6l5-3.9C32.3,117.1,31.7,116.5,31.3,116.8z"/>
	<path class="st0" d="M36.2,119.9l-6.5,5.2c-0.4,0.3,0.2,0.9,0.6,0.6l6.5-5.2C37.2,120.1,36.6,119.6,36.2,119.9z"/>
	<path class="st0" d="M58.5,128.7l-17.2,12.9c-0.4,0.3,0,1,0.4,0.7l17.2-12.9C59.3,129.1,58.9,128.4,58.5,128.7z"/>
	<path class="st0" d="M74.7,129.9l-13,10c-0.4,0.3,0.2,0.9,0.6,0.6l13-10.1C75.6,130.1,75.1,129.6,74.7,129.9z"/>
	<path class="st0" d="M77.5,130.8L66,140.5c-0.4,0.3,0.2,0.9,0.6,0.6l11.5-9.7C78.4,131.1,77.8,130.5,77.5,130.8z"/>
	<path class="st0" d="M80.6,131.4L70,140.6c-0.4,0.3,0.2,0.9,0.6,0.6l10.6-9.2C81.6,131.6,81,131.1,80.6,131.4z"/>
	<path class="st0" d="M96.6,133.8l-7.6,6.3c-0.4,0.3,0.2,0.9,0.6,0.6l7.6-6.3C97.5,134,97,133.5,96.6,133.8z"/>
	<path class="st0" d="M3.4,43c0.2,0,0.4-0.2,0.4-0.4c0-0.1,0-0.1-0.1-0.2c0.1,0.1,0.3,0.1,0.5,0l2.9-2.6c0.4-0.3-0.2-0.9-0.6-0.6
		c-1,0.9-1.9,1.7-2.9,2.6c-0.1,0.1-0.1,0.3,0,0.5c-0.1,0-0.1-0.1-0.2-0.1c-0.2,0-0.3,0.2-0.3,0.5C3.1,42.9,3.2,43,3.4,43z"/>
	<path class="st0" d="M4.4,44.5l6-4.7c0.4-0.3-0.2-0.9-0.6-0.6l-6,4.7C3.5,44.3,4.1,44.8,4.4,44.5z"/>
	<path class="st0" d="M6.8,46.3l6.8-5.5c0.4-0.3-0.2-0.9-0.6-0.6l-6.8,5.5C5.9,46.1,6.4,46.6,6.8,46.3z"/>
	<path class="st0" d="M44.9,46.2c0.2,0,0.4-0.2,0.4-0.4c0-0.2-0.2-0.4-0.4-0.4c-0.2,0-0.4,0.2-0.4,0.4C44.5,46,44.7,46.2,44.9,46.2z
		"/>
	<path class="st0" d="M61.1,47.1l3.9-3.7c0.4-0.3-0.2-0.9-0.6-0.6l-3.9,3.6C60.2,46.9,60.7,47.4,61.1,47.1z"/>
	<path class="st0" d="M64.5,45.2l-2.6,2.1c-0.4,0.3,0.2,0.9,0.6,0.6l2.6-2.1C65.4,45.5,64.9,44.9,64.5,45.2z"/>
	<path class="st0" d="M66.3,85.5l9.1-8.4c0.4-0.3-0.2-0.9-0.6-0.6L65.8,85C65.4,85.3,66,85.9,66.3,85.5z"/>
	<path class="st0" d="M69.4,85.3c-0.2,0-0.4,0.2-0.3,0.5c0,0.2,0.2,0.3,0.3,0.3c0.2,0,0.4-0.2,0.3-0.5
		C69.8,85.5,69.6,85.4,69.4,85.3z"/>
	<path class="st0" d="M72.5,82.1c-0.8,0.8-1.6,1.6-2.3,2.3c-0.4,0.4,0.2,0.9,0.6,0.6l2.4-2.3C73.5,82.3,72.9,81.7,72.5,82.1z"/>
	<path class="st0" d="M69.5,39.6v5.3c0,0.2,0.2,0.4,0.4,0.4c0.2,0,0.4-0.2,0.4-0.4v-5.3c0-0.2-0.2-0.4-0.4-0.4
		C69.7,39.3,69.5,39.4,69.5,39.6z"/>
	<path class="st0" d="M71.4,41.2l-0.2,3.5c0,0.5,0.8,0.5,0.8,0c0.1-1.2,0.1-2.3,0.2-3.5C72.2,40.7,71.4,40.7,71.4,41.2z"/>
	<path class="st0" d="M28.4,34.9l28.8-0.7c0.2,0,0.4-0.2,0.4-0.4c0-0.2-0.2-0.4-0.4-0.4l-28.8,0.7C27.9,34.1,27.9,34.9,28.4,34.9z"
		/>
	<path class="st0" d="M89.8,34.5c8.6-2.2,17.6-2.2,26.2,0c0.2,0.1,0.4-0.1,0.5-0.3c0.1-0.2-0.1-0.4-0.3-0.5l0,0
		c-8.7-2.2-17.9-2.2-26.6,0C89.1,33.8,89.3,34.6,89.8,34.5z"/>
	<path class="st0" d="M16,128.6l-11.8-0.3c-0.2,0-0.4,0.2-0.4,0.4c0,0.2,0.2,0.4,0.4,0.4l11.8,0.3C16.5,129.4,16.5,128.6,16,128.6z"
		/>
	<path class="st0" d="M7.8,127.7l5.5-0.4c0.5,0,0.5-0.8,0-0.8l-5.5,0.4C7.3,126.9,7.3,127.7,7.8,127.7z"/>
	<path class="st0" d="M167.8,52.6l-0.4-0.4h-0.2c-3.3-2.8-6.9-5-10.9-6.6c-0.1-0.2-0.2-0.3-0.4-0.3c-0.1,0-0.1,0-0.2,0l-0.4-0.2
		c-4.6-1.7-9.5-2.7-14.4-2.8h-0.9c-4.6,0.1-9.1,0.8-13.5,1.9c-10.9,2.6-19.5,7.2-25.6,13.4c-14.3,14.8-16.5,39.2-5.3,59.3
		c5.1,9.2,11.7,15.4,20.1,19.1c6.6,2.8,13.7,4.2,20.8,4.2l0,0c2,0,3.9-0.1,5.9-0.3c12.6-1.4,24.7-7.5,31.5-15.9
		c7.3-9,11.9-20,12.4-29.6c0.5-8.9-2.6-19.1-9.1-30.2C174.8,59.9,171.6,56,167.8,52.6z M167.6,53.8
		C167.6,53.8,167.6,53.8,167.6,53.8l0.8,0.7l-6.1,5.2c-0.3-0.4-0.6-0.9-1-1.3h0.1L167.6,53.8z M166.2,52.5l0.9,0.7l-6,4.4
		c-0.1,0-0.1,0.1-0.1,0.2c-0.2-0.2-0.4-0.4-0.6-0.7l5.7-4.4C166.1,52.6,166.2,52.5,166.2,52.5L166.2,52.5z M164.2,51l-0.1-0.1
		c0.5,0.3,1,0.7,1.5,1.1l-5.8,4.4c-0.2-0.3-0.5-0.6-0.8-0.8l5-4.1C164.2,51.3,164.3,51.2,164.2,51L164.2,51z M163.9,50.8
		c0,0-0.1,0-0.1,0c-0.1,0-0.2,0-0.3,0.1l-5,4.2c-0.2-0.2-0.5-0.5-0.7-0.7l2.5-2.1l2.5-2.2C163.2,50.2,163.5,50.5,163.9,50.8
		L163.9,50.8z M162.1,49.6l-4.9,4.2l-0.4-0.3l4.5-4.3L162.1,49.6z M157.8,47.3c0.9,0.4,1.9,0.9,2.7,1.4l-4.4,4.2
		c-0.3-0.2-0.6-0.5-0.9-0.7l3.7-3.6c0.1-0.1,0.2-0.3,0.1-0.4c-0.1-0.2-0.2-0.3-0.4-0.3c-0.1,0-0.2,0-0.4,0.2l-3.7,3.6
		c-0.2-0.1-0.4-0.3-0.6-0.4l3.7-3.8C157.8,47.5,157.8,47.4,157.8,47.3L157.8,47.3z M155.9,46.5c0.4,0.2,0.8,0.3,1.2,0.5l-3.8,3.9
		c-0.3-0.2-0.7-0.4-1-0.6L155.9,46.5z M155.1,46.2l-3.4,3.7l-0.8-0.4l3.4-3.6L155.1,46.2z M151.9,45.1l1.5,0.5l-3.3,3.5
		c-0.5-0.2-0.9-0.4-1.4-0.6l3.1-3.1C151.9,45.3,151.9,45.2,151.9,45.1L151.9,45.1z M149.1,44.4c0.7,0.2,1.4,0.3,2.1,0.5l-3.3,3.3
		c-0.6-0.2-1.2-0.4-1.8-0.6L149.1,44.4L149.1,44.4z M146.9,44l0.9,0.2l0.3,0.1l-2.9,3.1c-0.5-0.1-0.9-0.3-1.4-0.4l3-3L146.9,44z
		 M144.6,43.6L144.6,43.6c0.4,0,0.8,0.1,1.1,0.1l-2.8,2.9c0,0,0,0.1-0.1,0.1c-0.5-0.1-0.9-0.2-1.4-0.2l3-2.4
		C144.6,44,144.7,43.8,144.6,43.6z M139.4,43.4L139.4,43.4h0.9c1.2,0,2.4,0,3.5,0.1l-2.4,1.9l-1,0.8c-0.4,0-0.9-0.1-1.3-0.1l2.2-1.8
		c0.1-0.1,0.2-0.3,0.1-0.4c-0.1-0.2-0.2-0.3-0.4-0.3c-0.1,0-0.2,0-0.3,0.1l-2.8,2.3l-0.1,0.1h-1.5l2.8-2.4
		C139.3,43.7,139.4,43.6,139.4,43.4L139.4,43.4z M172.2,82.8c0.1,0.2,0.2,0.3,0.4,0.3c0.1,0,0.2,0,0.3-0.1l9-7.2
		c0,0,0.1-0.1,0.1-0.1c0.2,0.6,0.4,1.1,0.6,1.7c-0.1,0-0.1-0.1-0.2-0.1c-0.1,0-0.3,0.1-0.4,0.2l-9.4,7.7c-0.3-1.5-0.7-3-1-4.5h0.2
		l8.2-6.1c0.2-0.1,0.2-0.3,0.1-0.5c0-0.2-0.2-0.3-0.4-0.3h-0.2l-8.2,6.1c-0.1-0.5-0.2-1-0.4-1.5l8.5-6.2c0.1-0.1,0.2-0.3,0.1-0.5
		c0-0.2-0.2-0.3-0.4-0.3H179l-8.3,6.1l-0.4-1.2h0.1l7.1-5.1c0.1-0.1,0.2-0.3,0.2-0.5c0-0.2-0.2-0.3-0.4-0.3h-0.2l-7.1,5
		c-0.1-0.4-0.3-0.9-0.4-1.3h0.1h0.2l7.1-5.2c0.2-0.1,0.2-0.3,0.1-0.5c0-0.2-0.2-0.3-0.4-0.3h-0.2l-7.1,5.3c0,0-0.1,0.1-0.1,0.1
		c-0.2-0.5-0.3-1-0.5-1.5l7.3-5.2c0.1-0.1,0.2-0.3,0.2-0.5c0-0.2-0.2-0.3-0.4-0.3h-0.2l-7.2,5.1c-0.2-0.5-0.4-1-0.6-1.6
		c0.1,0.1,0.2,0.1,0.3,0.1c0.1,0,0.2,0,0.3-0.1l6.4-5.1c0.1-0.1,0.2-0.3,0.1-0.4c-0.1-0.2-0.3-0.3-0.5-0.3c0,0-0.1,0-0.1,0.1
		l-6.4,5.2c-0.1,0-0.1,0.1-0.1,0.2c-0.1-0.2-0.2-0.4-0.3-0.7c-0.1-0.1-0.2-0.2-0.3-0.2c2.1-1.6,4.2-3.2,6.2-4.7
		c0.1-0.1,0.2-0.2,0.2-0.3c0-0.1,0-0.3-0.1-0.4l-2.6-2.6c-0.1-0.1-0.2-0.1-0.4-0.1c-0.1,0-0.2,0-0.3,0.1l-7.7,5.9
		c-0.2,0.1-0.3,0.4-0.2,0.6c0,0.2,0.2,0.3,0.3,0.3c0.3,0.7,0.6,1.4,0.9,2.1c0.2,0.3,0.3,0.7,0.5,1c0.1,0.2,0.3,0.3,0.4,0.3
		c0.1,0,0.2,0,0.3-0.1c0.7-0.5,1.4-1,2.1-1.6c0,0,0,0.1,0,0.1c2.3,5.8,4.1,11.8,5.2,18c0,0.2,0.2,0.3,0.4,0.3c0.1,0,0.2-0.1,0.3-0.2
		c0.1-0.1,0.1-0.2,0.1-0.3l-0.1-0.5l-0.1-0.2l10-8.1c0,0,0.1-0.1,0.1-0.1c0.2,0.6,0.4,1.1,0.6,1.7c-0.1,0-0.2-0.1-0.2-0.1
		c-0.1,0-0.2,0-0.3,0.1l-9,7.4c-0.1,0.1-0.2,0.3-0.1,0.4c0.1,0.2,0.2,0.3,0.4,0.3c0.1,0,0.2,0,0.3-0.1l8.9-7.4c0,0,0.1-0.1,0.1-0.1
		c0.6,2,1.1,4.1,1.5,6.2c1.9,10.4-1.1,21.5-9.2,33.8c-4.7,6.9-11.4,12.2-19.2,15.2c0.9-0.7,1.8-1.4,2.6-2.3l2.7-0.7
		c0.2,0,0.3-0.2,0.3-0.4c0-0.2-0.2-0.4-0.5-0.3l0,0l-1.3,0.4c0.7-0.7,1.3-1.4,1.9-2.2c0.1,0,0.2,0.1,0.3,0.1h0l4.8-1.6
		c0.2-0.1,0.3-0.3,0.3-0.5c0-0.2-0.2-0.3-0.4-0.3h-0.1l-4.2,1.4c0.4-0.5,0.8-1.1,1.1-1.7c0,0.2,0.2,0.3,0.4,0.4h0.1l4.6-1.3
		c0.2-0.1,0.3-0.2,0.3-0.4c0-0.2-0.2-0.3-0.5-0.3l0,0l-4.6,1.3l0,0c0.4-0.8,0.9-1.5,1.2-2.3c0,0.2,0.2,0.3,0.4,0.3h0.1l3-0.7
		c0.2,0,0.3-0.2,0.3-0.4c0,0,0,0,0,0c0-0.2-0.2-0.4-0.5-0.4l0,0l-3,0.7c0,0,0,0-0.1,0c0.1-0.4,0.3-0.7,0.4-1.1l2.3-0.5h0.1l1.9,2.2
		c0.1,0.1,0.2,0.2,0.4,0.2c0.2,0,0.4-0.1,0.5-0.3l2.8-3.7c0.1-0.2,0.1-0.5-0.1-0.7c-1.6-1.3-3.2-2.6-4.8-4l-2.4-1.9
		c-0.1-0.1-0.3-0.2-0.4-0.2c-0.2,0-0.3,0.1-0.4,0.2c-0.1,0.1-0.3,0.3-0.5,0.5c-0.8,0.8-1.9,1.8-1.7,2.6c0.1,0.4,0.4,0.7,0.8,0.8
		c0.2,0,0.3,0.1,0.4,0.2c0.4,0.4,0.8,0.9,1.1,1.4l0.3,0.4c-0.1,0-0.2,0.1-0.3,0.3c-0.2,0.6-0.5,1.3-0.6,1.8
		c-0.2,0.1-0.3,0.3-0.2,0.4c-1.5,3.7-3.8,7-6.7,9.8l-1.5,0.4c-0.2,0-0.3,0.2-0.3,0.4c0,0.2,0.2,0.4,0.5,0.3l0,0
		c-0.8,0.7-1.5,1.3-2.4,1.8c-0.2,0.1-0.2,0.3-0.1,0.5c0,0,0,0.1,0,0.1c-5.7,2-11.6,3.1-17.6,3.2h-1.2c-4.2,0-8.4-0.4-12.5-1.4
		c-9.5-2.4-17.5-7.5-22.8-14.5c-13.4-18-15-41.6-3.9-58.7c5-7.8,13.1-13.8,23.3-17.3c3.8-1.3,7.7-2.3,11.7-3l-1.8,2.3
		c-0.1,0.1-0.1,0.2-0.1,0.4l0,0c-0.9,0.1-1.8,0.2-2.8,0.3c0-0.1,0-0.1-0.1-0.1c-0.1-0.1-0.2-0.2-0.3-0.2c-0.1,0-0.3,0.1-0.3,0.2v0.2
		c-2.3,0.4-4.5,1-6.7,1.8c-0.2,0.1-0.3,0.3-0.3,0.5c0,0.2,0.2,0.3,0.4,0.3h0.1c2-0.8,4-1.4,6.1-1.7c0.1,0.1,0.2,0.2,0.4,0.2
		c0.1,0,0.3-0.1,0.3-0.2v-0.1c1.7-0.3,3.5-0.4,5.2-0.4h1.3c0.2,0,0.4-0.2,0.4-0.4c0,0,0,0,0,0c0-0.2-0.2-0.4-0.4-0.4c0,0,0,0,0,0
		c-0.4,0-0.8,0-1.2,0c-0.4,0-0.9,0-1.4,0l1.8-2.3c0.1-0.1,0.1-0.3,0.1-0.4l0,0c0.9-0.1,1.9-0.3,2.8-0.4l-2.3,2.3
		c-0.1,0.1-0.2,0.3-0.1,0.4c0.1,0.1,0.2,0.2,0.3,0.1c0.1,0,0.2,0,0.3-0.1l2.6-2.7c0.1-0.1,0.1-0.1,0.1-0.2l0,0
		c0.6,0,1.2-0.1,1.8-0.1l-2.8,2.3c-0.1,0.1-0.2,0.2-0.1,0.3l0,0l-1.1,0.1c-0.2,0-0.4,0.2-0.4,0.5c0,0.2,0.2,0.4,0.4,0.4c0,0,0,0,0,0
		l0,0c0.9-0.1,1.8-0.1,2.8-0.1s2,0,2.8,0.1c0.1,0.1,0.2,0.2,0.4,0.2c0.1,0,0.2,0,0.2-0.1c1.4,0.2,2.7,0.4,4.1,0.8
		c-0.1,0.1-0.1,0.2,0,0.3c0.1,0.2,0.2,0.3,0.4,0.3c0.1,0,0.2,0,0.3-0.1l0.2-0.2c0.8,0.2,1.6,0.5,2.3,0.8l0.1,0.1
		c6.5,2.5,11.9,7.2,15.2,13.3c0.1,0.1,0.2,0.2,0.3,0.2c0.1,0,0.3-0.1,0.4-0.2c0.1-0.1,0.1-0.3,0-0.4c-0.3-0.6-0.6-1.1-1-1.7h0.1
		l6.1-5.3c0,0,0,0,0.1,0l0,0l0.8,0.9c-0.1,0-0.2,0-0.2,0.1l-5.6,5.4c-0.1,0.1-0.2,0.3-0.1,0.4c0.1,0.2,0.2,0.3,0.4,0.3
		c0.1,0,0.2,0,0.3-0.1l5.6-5.4c0-0.1,0.1-0.1,0.1-0.2c0.7,0.8,1.3,1.5,2,2.2c4,5,7.1,10.7,9.4,16.6c0,0-0.1,0-0.1-0.1
		c-0.1,0-0.2,0-0.3,0.1l-9,7.2C172.2,82.6,172.1,82.7,172.2,82.8L172.2,82.8z M172.3,63.3L172.3,63.3c-2.4,1.9-5.1,3.9-7.7,6
		l-0.2-0.3c-0.4-0.7-0.7-1.4-1.1-2c0,0,3.8-2.9,4.7-3.6c0.2-0.1,0.4-0.3,0.6-0.5c0.4-0.5,1-0.8,1.5-1.1l0.1-0.2l0,0v0.2
		C170.9,61.7,171.7,62.6,172.3,63.3L172.3,63.3z M168,121.7l-1.4,0.3c0.2-0.4,0.3-0.9,0.5-1.4C167.4,121,167.7,121.3,168,121.7
		L168,121.7z M165.2,116.9l1.3-1.4l4.8,3.9l0.4,0.3c0.3,0.2,0.5,0.4,0.7,0.6c0.4,0.4,0.3,0.4,0.1,0.8l-0.2,0.3
		c-0.4,0.6-0.8,1.2-1.3,1.8l-0.2,0.3l-0.8-0.9C168.5,120.6,166.9,118.7,165.2,116.9L165.2,116.9z"/>
	<path class="st0" d="M182.6,60.3c-2.8-4.8-6.4-9.2-10.6-12.9l-0.5-0.6c-0.1-0.1-0.1-0.1-0.2-0.1h-0.1c-4.1-3.5-8.8-6.2-13.9-8
		c-4.2-1.5-8.6-2.5-13.1-2.9v-0.2h0.5c8.4,0,11.2-9.8,11.5-15.5c0.2-3,0.1-7.5-2.4-11.2c-2.3-3.1-5.3-5.5-8.9-7
		c-3.1-1.3-6.4-2-9.8-2.1c-4.2,0-8.3,1.1-11.8,3.4c-5.6,3.5-8.9,9.7-8.9,16.3c-0.2-0.1-0.4-0.2-0.6-0.2c-0.2,0-0.3,0.1-0.3,0.2
		c0,0,0,0,0,0c-0.1-0.1-0.3-0.2-0.5-0.2c-6.5-0.1-13.1-0.1-19.6-0.1c-4.9,0-9.8-0.1-14.7,0c-3.4,0.1-17.1-0.4-20.6-0.2L46,19.8
		c-7.1,0.4-14.2,0.3-21.2,1c-5.2,0.6-8.9,5.5-12.6,8.5C8.7,32.2,5.8,32,0.8,39c-1,5.1,0.8,13.6,0.8,19.5c0.1,7,0.2,13.9,0.2,20.9
		C2,84.6,2,89.8,2.1,95.1H1.9c-0.5,0-0.5,0.8,0,0.8h0.2c0,0.6,0,1.2,0,1.8c-0.2,0.1-0.2,0.4-0.1,0.6c0,0,0.1,0.1,0.1,0.1
		c0,0.5,0,0.9,0,1.4c0.1,3.2,0.1,6.3,0.2,9.5l-0.2,10.3c-0.6,0.2-1.3,0.2-1.7,0.8c-0.6,0.8-0.5,2.8-0.4,3.7c0.1,3.3,0.1,6.7,0.1,10
		c0,0.4,0.3,0.7,0.7,0.7c0.8,0.1,1.7,0.1,2.5,0.1c-3.8,17.3,28.2,10.9,36.4,10.6c22.8-0.7,45.7-2.3,68.5-1.5
		c2.6,0.1,6.6,0.5,10.8,0.6c-2.1-0.4-4-1.1-5.8-2.2c7.3,3,15.2,4.6,23.2,4.6l0,0c2.2,0,4.3-0.1,6.4-0.3c14.4-1.5,28.1-8.4,35.9-17.9
		c3.9-4.9,7-10.2,9.5-15.9c2.6-5.5,4.2-11.5,4.7-17.5C193.8,85,190.3,73.2,182.6,60.3z M121.6,6c3.8-3.3,8.6-5,13.6-5
		c1.9,0,3.7,0.2,5.6,0.7c6,1.5,13.4,6.1,14.3,13.8c0.6,4.9-0.3,12-3.8,16c-1.6,1.9-4.1,3-6.6,3h-0.5l-0.1-0.9h0.4c2,0,4-0.8,5.4-2.3
		c2.6-2.8,3.4-7.3,3.3-10.6c-0.2-5.2-1.3-12.5-8.2-15.3c-2.6-1-5.3-1.4-8-1.3c-1,0-2,0-3,0.1c-3.1,0.2-6.6,0.5-9.5,2.4
		c-5.1,3.3-6.4,9.9-6,14.6c0.6,6,4.7,12.2,11.3,12.5v0.3c0,0.4,0.1,0.9,0.2,1.4c0,0-0.1-0.1-0.1-0.1c-8.7-2.1-14.1-10.9-12-19.6
		c0.4-1.7,1.1-3.4,2-4.8c0.1-0.1,0.1-0.3,0-0.4c-0.1-0.1-0.2-0.2-0.4-0.2c-0.1,0-0.3,0.1-0.3,0.2c-2.9,4.8-3.3,10.7-1.2,15.9
		c1.6,3.6,4.4,6.6,8,8.4l0,0c-4.2-1.8-8.3-5.1-9.9-10.9C114.3,17.2,116.5,10.4,121.6,6L121.6,6z M134.1,36.2l-1.4,0.2h0.1l3.1-2.3
		v0.1l0.1,0.3l-1.7,1.3C134.1,35.9,134.1,36,134.1,36.2L134.1,36.2z M132.1,36.2c0,0.1,0.2,0.3,0.3,0.3l-1.5,0.3c0-0.1,0-0.2,0-0.4
		c0.1,0,0.1,0,0.1-0.1l4.7-3.9v0.2l0.1,0.5l-3.6,2.5C132.1,35.7,132,36,132.1,36.2L132.1,36.2z M130.2,36.8L130.2,36.8l-1.4,0.3
		c-0.1-0.2-0.1-0.4-0.1-0.6C129.2,36.6,129.7,36.7,130.2,36.8L130.2,36.8z M129.8,36c0.1,0,0.2-0.1,0.3-0.2c0,0.1,0,0.2,0,0.3
		L129.8,36z M130.1,29.5l1-0.7c0.1-0.1,0.2-0.3,0.1-0.5c0-0.2-0.2-0.3-0.4-0.3c-0.1,0-0.2,0-0.3,0.1l-2.8,2c-0.1,0-0.1,0.1-0.1,0.2
		c-0.1,0-0.2,0-0.4,0c-0.3,0-0.5,0-0.8-0.1l4.2-2.9c0,0,0.1-0.1,0.1-0.1c0.3,0.5,0.7,0.9,1.2,1.3L130.1,29.5z M129.8,30h-0.6
		l0.7-0.5C129.8,29.7,129.7,29.8,129.8,30L129.8,30z M124,27c0,0.1,0.1,0.2,0.3,0.3v0.4l0.1,0.1c-0.1,0.2-0.1,0.4,0,0.5
		c0,0.4,0.1,0.9,0.3,1.3c-0.1,0.1-0.2,0.3-0.2,0.5c0,0.2,0.2,0.3,0.4,0.3h0.1c0.1,0.1,0.1,0.3,0.2,0.4c0.5,0.6,1.2,1,2,0.9
		c0.6,0,1.2-0.1,1.8-0.2l0.6-0.1c0.1,0.5,0.1,1,0.1,1.5v0.2c-4.3-0.5-7.7-3.3-9.3-7.9c-0.3-0.9-0.6-1.9-0.7-2.9l4.4,3.9v0.1v0.5
		C124,26.6,124,26.8,124,27L124,27z M124.7,23.4c0-0.7,0.4-1.1,1.9-1.3L124.7,23.4z M128.1,21.9h0.5l-3.7,2.7c0-0.1,0-0.2,0-0.3
		l1.2-0.9L128.1,21.9z M129.9,26.3c0-0.2-0.2-0.3-0.4-0.3h-0.2l-3.8,2.8c-0.1-0.3-0.1-0.5-0.2-0.8l4.6-3.2c0,0,0-0.1,0.1-0.1
		c0,0.6,0.2,1.3,0.5,1.9h-0.1l-4.5,3.1l-0.1-0.1l3.9-2.8C129.9,26.7,129.9,26.4,129.9,26.3L129.9,26.3z M132.8,28.9
		c0.1,0.1,0.3,0.1,0.4,0.2l-0.7,0.5L132,30h-1.1L132.8,28.9L132.8,28.9z M132.8,30.8l0.6,0l-2.4,1.9l1.6-1.5
		C132.8,31.1,132.8,31,132.8,30.8C132.9,30.8,132.9,30.8,132.8,30.8C132.8,30.8,132.8,30.8,132.8,30.8L132.8,30.8z M130.4,31.8
		c0.3-0.4,0.7-0.7,1.3-0.8l-1.3,1.2C130.3,32.1,130.4,31.9,130.4,31.8L130.4,31.8z M133.8,31.6l-3.1,2.7c0,0,0-0.1,0-0.1L133.8,31.6
		z M130.9,35.1l1.8-1.5l3-2.5c0,0,0,0.1,0,0.1v0.2l0.1,0.1l-4.9,4.1L130.9,35.1L130.9,35.1z M135.9,35.6c0.1,0.1,0.2,0.1,0.3,0.1
		c0.1,0,0.2,0,0.3-0.1c0.1-0.1,0.1-0.2,0.1-0.3l-0.1-4.2c0-0.1-0.1-0.3-0.2-0.3h0.1c0.6,0,1.1,0,1.7,0c1.2,0,2.4,0.1,3.6,0.4
		c1.1,0.3,1.1,0.6,1.2,1.7c0,0,0.2,2.3,0.3,3c-0.7,0-1.5-0.1-2.2-0.1h-0.6c-1.7,0-3.5,0.1-5.2,0.3L135.9,35.6z M141.6,30.2
		L141.6,30.2c-0.9,0-1.8-0.1-2.7-0.1s-1.9-0.1-2.8-0.1v0.2l-0.2-0.2c-0.3,0-0.6,0-1,0c-0.5,0-1,0-1.5,0l0.3-0.2
		c0.1-0.1,0.2-0.3,0.2-0.5l0,0c0.8,0.2,1.7,0.2,2.5,0c0.2,0,0.3-0.2,0.3-0.4c0-0.2-0.2-0.4-0.5-0.3l0,0c-0.4,0.1-0.8,0.1-1.1,0.2
		c-2.4,0-4.3-1.9-4.3-4.3c0-0.2,0-0.5,0.1-0.7c0-0.1,0-0.2-0.1-0.3c-0.1-0.1-0.2-0.2-0.3-0.2c-0.2,0-0.3,0.1-0.4,0.3
		c0,0.3-0.1,0.5-0.1,0.8c-0.1-0.1-0.2-0.1-0.3-0.1h-0.2l-4.3,3l-0.1-0.3l5.2-4.2c0.1-0.1,0.2-0.3,0.1-0.4c-0.1-0.2-0.2-0.3-0.4-0.3
		c-0.1,0-0.2,0-0.3,0.1l-4.3,3.5l-0.2-0.2l2.2-1.8l2.4-1.8h1.3c1.4,0,2.9-0.1,4.3-0.2s2.9-0.1,4.4-0.2l4-0.1c0.3,0,0.6,0,0.8-0.1
		c0.4-0.1,0.7-0.1,1.1-0.1c0.8,0,1.2,0.2,1.4,0.7c0.3,0.8,0.4,1.7,0.4,2.5c0,0.4,0.1,0.9,0.1,1.2l0.5,3.6l-1.8,0.2
		C144.9,29.8,143.3,30,141.6,30.2L141.6,30.2z M147.3,30.6l1.6-0.2c0.1,0,0.3-0.1,0.4-0.2c0.1-0.1,0.1-0.3,0.1-0.4
		c-0.3-2.2-0.7-4.4-1-6.6l-0.3-2.5c-0.1-0.2-0.3-0.4-0.5-0.4c-3.3,0-6.7,0.2-10,0.3l-2.1,0.1h-3c-1.4,0-2.8,0.1-4.2,0.1l-1.6,0.1
		H126c-0.3,0-0.7,0-1.1,0c-0.4,0-0.8,0-1.1,0.2c-0.5,0.4-0.6,1.1-0.2,1.6c0.1,0.1,0.1,0.2,0.1,0.4l0.1,0.9l-0.1,0.2l0,0
		c-1.4-1.2-2.8-2.4-4.1-3.6c-2.1-1.8-0.1,0-0.2,0c-0.3-4.4,1.1-8.9,3.9-11.6c2.5-2.5,6.5-3.7,12-3.7c1.6,0,3.2,0.1,4.7,0.3
		c3.1,0.2,6,1.5,8.2,3.6c1.7,1.7,2.8,4.2,3.3,7.7c0.7,4.6,0.5,10.6-2.2,13.8c-1.3,1.5-3.2,2.3-5.1,2.2h-0.3l-0.2-1.6
		C145,30.8,146.2,30.6,147.3,30.6L147.3,30.6z M127.7,37.4c-1,0.2-2,0.5-3,0.7c-3,0.7-6,1.7-8.9,2.8l4.3-3.2c0,0,0-0.1,0.1-0.1h0.9
		c-0.2,0.3,0.4,0.6,0.6,0.3l0.2-0.3C123.8,37.4,125.8,37.4,127.7,37.4L127.7,37.4z M126.6,35L126.6,35l0.5,0.2L126.6,35z M93.5,20.8
		c4.1,0,8.1,0,12.2,0c2.6,0,6.1-0.7,8.8,0c0,0.1,0,0.2,0,0.3c0.2,2,0.8,4,1.7,5.8c-0.1-0.1-0.2-0.1-0.3,0l-2.7,1.5
		c-0.4,0.2,0,0.8,0.4,0.6c0.9-0.5,1.8-1,2.7-1.5c0.1,0,0.1-0.1,0.2-0.2c0.2,0.4,0.4,0.7,0.6,1.1l-3.8,2.3c-0.2,0.1-0.2,0.3-0.1,0.5
		s0.3,0.2,0.5,0.1l0,0l3.9-2.3c1.9,2.8,4.6,5,7.7,6.3l-0.3,0.2h-1.5l0.1-0.2c0.3-0.4-0.3-0.7-0.6-0.4l-0.4,0.6h-2.1l1.8-1
		c0.2-0.1,0.2-0.3,0.1-0.5c0,0-0.1-0.1-0.1-0.1l-2-1.5c-0.1-0.1-0.2-0.1-0.3,0l0,0l-2.7,1.2c-0.4,0.2-0.1,0.8,0.3,0.6l2.4-1.1l1.4,1
		l-2.2,1.2c-0.1,0-0.1,0.1-0.1,0.2c-3.6,0.1-7.2,0.2-10.8,0.3c-4.7,0.1-9.3,0.1-14,0.1c-2.4,0-4.9,0-7.3,0c-2.3,0-5,0.2-7.1-0.8
		C78.9,30,77.3,25,74.9,20.3C81,21.1,87.3,20.8,93.5,20.8z M83,37.7c0.8,0,1.7,0,2.6,0l-5.4,5c0-0.8-0.1-1.6-0.1-2.3L83,37.7z
		 M80,39.5c-0.1-0.8-0.2-1.5-0.3-2.3l0,0c0.7,0.2,1.4,0.4,2.2,0.5L80,39.5z M71,20.8c0.2,2.6,0.3,5.2,0.5,7.8c0,0.5,0.8,0.5,0.8,0
		l-0.5-7.8c0.6,0.1,1.2,0.1,1.8,0c2.9,6.2,4.7,13,5.2,19.8l-0.6,0.5c-0.4,0.3,0.2,0.9,0.6,0.6l0.1-0.1c0.2,3.5,0,7-0.4,10.5
		c-0.1-0.1-0.1-0.2-0.2-0.3c-0.2-0.3-0.6-0.4-0.9-0.2c-0.1,0.1-0.2,0.2-0.3,0.4L77,52.2l-1.7-4.4c-0.2-0.6-1.1-0.7-1.3,0
		c-0.5,1.8-0.9,3.7-1.4,5.5c-0.7-1.5-1.3-3.1-1.9-4.6c-0.1-0.3-0.4-0.5-0.7-0.4c-0.1,0-0.2,0.1-0.2,0.1l-2.6,2.7
		c-0.3-4.5-0.4-9-0.2-13.6c2.5-0.3,5.1-0.3,7.6-0.1c0.5,0,0.5-0.8,0-0.8c-2.5-0.2-5-0.1-7.6,0.1c0.3-5.4,0.9-10.8,1.9-16.1
		C69.7,20.9,70.3,20.9,71,20.8L71,20.8z M8.4,34.2c1.4-1.1,2.8-2.4,4.2-3.5l6.6-5.4c1.9-1.5,3.7-3.5,6.3-3.4c3.1,0.1,6.2,0,9.3-0.2
		c3.9-0.2,7.8-0.3,11.7-0.5l11.1-0.5c2.9-0.2,10.1-0.1,10.7,0c-1.1,4-1.8,8.2-2.3,12.3c-0.3,2.4,0.1,3.3-2.6,3.4c-1.1,0-9,0-16.6,0
		c-0.1-0.2-0.4-0.2-0.5-0.1c0,0,0,0,0,0l-0.1,0h-13l-15.7,0.2h-0.6l6.7-5.9c0.4-0.3-0.2-0.9-0.6-0.6l-7,6.3
		c-0.1,0.1-0.1,0.1-0.1,0.2l-3.2,0.1l7.8-6.7c0.4-0.3-0.2-0.9-0.5-0.5l-8.5,7.2c-0.6,0-1.5,0.1-2.4,0.2l9.2-7.8
		c0.4-0.3-0.2-0.9-0.6-0.5l-9.8,8.3c-0.3,0-0.6-0.1-0.8-0.3C5.9,35.6,7.6,34.9,8.4,34.2z M3,38.4c1.4-1.3,4.7-0.1,6.3-0.1h0.8
		c0.1,0.1,0.4,0.1,0.5,0h7.5l-9.8,8.2c-0.4,0.3,0.2,0.9,0.6,0.6l10.4-8.7h1.9L13.5,46c-0.1,0.2-0.1,0.4,0,0.6c0.1,0.1,0.4,0.1,0.5,0
		l8.2-8.2h2.4l-8.2,8.6c-0.4,0.4,0.2,0.9,0.5,0.6l8.7-9.1h2.9l-10.4,9.8c-0.4,0.3,0.2,0.9,0.5,0.6l11-10.3h2.6L22,48.7
		c-0.4,0.3,0.2,0.9,0.5,0.6l11.1-10.9h2.7l-8.1,7.9c-0.4,0.3,0.2,0.9,0.5,0.6c2.9-2.8,5.8-5.6,8.7-8.5h2.5l-8.8,8.3
		c-0.4,0.3,0.2,0.9,0.5,0.6l9.3-8.7c0,0,0,0,0-0.1H44l-10.8,9.8c-0.4,0.3,0.2,0.9,0.5,0.6l11.5-10.4h3.6H49L40,46.6
		c-0.4,0.3,0.2,0.9,0.5,0.6l9.5-8.9h2.2l-6.6,6.4c-0.4,0.3,0.2,0.9,0.5,0.6l6.8-6.5c0.1-0.1,0.1-0.3,0.1-0.4l2.3,0.1l-5.2,5.3
		c-0.3,0.4,0.2,0.9,0.6,0.6l5.8-5.8c0.9,0,1.8,0,2.7,0l-7,7.4c-0.3,0.4,0.2,0.9,0.6,0.6l7.5-8c0.8,0,1.5-0.1,2.3-0.2
		c-2.7,3-5.4,6-8.1,9c-0.3,0.4,0.2,0.9,0.6,0.6l8.4-9.3c0.1-0.1,0.1-0.2,0.1-0.4l0.7-0.1c0.1,0,0.3-0.1,0.4-0.2
		c0.1,0,0.3,0.1,0.4,0.1l-8.5,9.8c-0.3,0.4,0.2,0.9,0.5,0.6l8.5-9.9c-0.3,4.9-0.1,9.7,0.4,14.6c0,0.6,0.8,1,1.2,0.5L70,50
		c0.7,1.9,1.4,3.8,2.1,5.8c0.1,0.4,0.5,0.6,0.9,0.5c0.2-0.1,0.4-0.2,0.5-0.5c0.4-1.8,0.9-3.6,1.3-5.4c0.5,1.3,1,2.6,1.5,3.9
		c0.1,0.4,0.5,0.6,0.8,0.5c0.2-0.1,0.4-0.2,0.5-0.5l0.2-0.6c0.1,0.2,0.3,0.4,0.4,0.6c0.3,0.4,1.1,0.4,1.2-0.2
		c0.6-3.5,0.9-7,0.9-10.5c0.1,0,0.2,0,0.3-0.1l6.2-5.8h0.1h2.6l-8.9,8.4c-0.4,0.3,0.2,0.9,0.6,0.6l9.4-8.9h2.4l-9.3,9.4
		c-0.4,0.4,0.2,0.9,0.6,0.6l9.8-10h3.1l-6.3,5.9c-0.4,0.3,0.2,0.9,0.6,0.6l5.5-5.1c-0.4,0.3,0.2,0.9,0.6,0.5c0.7-0.6,1.4-1.2,2-1.8
		c2.9,0,5.8,0,8.6,0c1.8,0,3.6,0,5.4-0.1c-1.5,1.1-3,2.3-4.5,3.4c-0.3,0.3,0,0.9,0.4,0.6l5-3.8c0.1-0.1,0.2-0.2,0.2-0.3l4.4-0.1
		l-4,2.9c-0.2,0.1-0.2,0.4-0.1,0.5c0,0,0,0.1,0.1,0.1c-7.2,2.6-13.8,6.9-19.2,12.3c-5.7,6-9.7,13.3-11.8,21.3c0-0.2-0.2-0.3-0.4-0.3
		c-0.1,0-0.1,0-0.2,0.1L76,81.3c-0.3,0.3,0.2,0.8,0.5,0.5l7.4-6.8c0,0,0,0,0-0.1c-0.9,3.6-1.5,7.2-1.8,10.9c-0.1-0.1-0.3-0.1-0.5,0
		l-4.5,3.5c-0.4,0.3,0.2,0.8,0.5,0.5l4.4-3.5c-0.1,1.3-0.2,2.7-0.1,4l-12.6,0.1c-10.9,0-21.9,0.1-32.8,0.2l-16.4,0.1
		c-5.1,0-11-0.6-15.9,0.6c-0.2,0.1-0.3,0.3-0.3,0.5c0,0.1,0.1,0.2,0.3,0.3c4.8,1.1,10.4,0.4,15.3,0.4H36c11.1,0,22.2,0,33.4-0.1
		l12.6-0.1c0,1,0.1,2,0.2,3l-24.6,0.8c-0.5,0-0.5,0.8,0,0.8l24.7-0.8c0.2,1.7,0.4,3.4,0.7,5.1h-0.4l-12.4,0.2
		c-21.9,0.4-43.9,0.2-65.8,1.3c-0.1,0-0.2,0-0.3,0.1v-1.3l4.5-0.3c0.5,0,0.5-0.8,0-0.8l-4.5,0.3c0-0.1,0-0.2,0-0.3v-2.1l7.3-0.6
		c0.5,0,0.5-0.8,0-0.8l-7.3,0.6v-1.7l8.1-0.3c0.2,0,0.4-0.2,0.4-0.4c0-0.2-0.2-0.4-0.4-0.4L4.1,95C4,89.8,3.9,84.6,3.9,79.4
		c-0.1-6.8-0.2-13.6-0.4-20.3c-0.1-3.6-0.2-7.2-0.3-10.8c-0.1-2.5-0.4-5.1-0.7-7.5C2.3,39.9,2.5,39.1,3,38.4z M9.5,104.1l-5.3,4.4
		c0-1.5,0-3-0.1-4.5c0.1,0,0.2,0,0.2,0C6.1,104.1,7.8,104.1,9.5,104.1z M3,118.7l0.1-3.3C3.2,116.5,3.2,117.6,3,118.7z M1.6,133.3
		c-0.1-3.8,0-7.8-0.7-11.5c8.9,0.2,17.7-0.1,26.5,1.1c-2.5,0.4-5,0.7-7.5,1c-0.5,0-0.8,0.7-0.3,1c2.3,1.1,4.6,2.2,6.9,3.3
		c-1,0-2.1,0-3.1-0.1c-0.3,0-0.5,0.3-0.5,0.6c0,0.2,0.1,0.3,0.2,0.4c2.2,1.4,4.4,2.9,6.7,4l0,0c-4.5-0.6-9.3-0.2-13.9-0.2
		C11.3,133,6.3,132.9,1.6,133.3z M28.4,129.3l-1.3,0.9l-1.6-1L28.4,129.3z M5,135h2.1l-1.8,1.6C5.3,136.1,5.2,135.5,5,135z M5.8,140
		c1.6-1.3,3.2-2.6,4.8-3.9c0.4-0.3-0.2-0.9-0.6-0.6l-4.5,3.7c-0.1-0.5-0.2-1.1-0.2-1.6l2.5-2.3c0.1-0.1,0.1-0.2,0.1-0.4
		c2.1,0,4.2-0.1,6.3-0.2l-8,6C6.1,140.5,6,140.3,5.8,140L5.8,140z M92.4,141.1l7.3-6.8c0.4-0.4-0.2-0.9-0.6-0.6l-7.6,7
		c-0.1,0.1-0.1,0.2-0.1,0.3h-3.3c-3.3,0.1-6.7,0.2-10.1,0.2h-0.2l8.8-7.2c-0.1,0.1-0.2,0.2-0.3,0.3c-0.1,0.1-0.1,0.4,0,0.5
		c0,0,0.1,0.1,0.1,0.1l-5.8,5.2c-0.4,0.3,0.2,0.9,0.6,0.6l7.3-6.5c0.4-0.3-0.2-0.9-0.6-0.6c1.7-1.9,3.3-3.8,5-5.6
		c0.3-0.3-0.2-0.8-0.5-0.5l-5.7,6.4c0.3-0.3-0.2-0.8-0.6-0.5l-8.9,7.3c-0.1,0-0.1,0.1-0.1,0.2c0,0-0.1,0-0.2,0
		c-0.2,0-0.4,0.2-0.4,0.4c0,0,0,0,0,0.1h-1.9l9.8-8.2c0.4-0.3-0.2-0.9-0.6-0.6l-10.5,8.8l-3.9,0.1c0-0.2-0.2-0.3-0.4-0.3
		c-0.2,0-0.4,0.1-0.4,0.3c-3.8,0.1-7.7,0.3-11.5,0.4l13.3-10.3c0.4-0.3,0-1-0.4-0.7l-13.7,10.6c-0.1,0.1-0.2,0.2-0.2,0.4l-4,0.2
		h-0.5l16.6-12.1c0.4-0.3,0-1-0.4-0.7l-17,12.5c-0.1,0.1-0.2,0.2-0.2,0.4l-3.2,0.1L64,129.8c0.4-0.3,0-1-0.4-0.7l-17.3,13.3
		c-2.8,0.1-5.6,0.2-8.4,0.4l19.3-16.3c0.4-0.3-0.2-0.9-0.6-0.6l-19.8,16.7c-0.1,0-0.1,0.1-0.1,0.2l-3.9,0.2l20.4-17.1
		c0.4-0.3-0.2-0.9-0.6-0.6l-21.1,17.8l-3.3,0.2l-1.3,0.1l23.9-19.8c0.4-0.3-0.2-0.9-0.5-0.6l-24.6,20.5l-4.9,0.3
		c9.2-6.3,17.8-13.5,25.6-21.5c0.3-0.4-0.2-0.9-0.5-0.6c-7.9,8.1-16.6,15.3-26,21.7c-0.1,0.1-0.2,0.2-0.2,0.4
		c-3.5,0.2-7.1,0.4-10.6,0.7L9,144.4c-0.8-1-1.7-1.9-2.4-3l8.9-6.6h0H16c3.9-0.1,8.1,0,12-0.4l-13.5,8.8c-0.4,0.3,0,0.9,0.4,0.7
		l13.8-9c0.2-0.1,0.2-0.4,0.1-0.6c0,0,0,0-0.1-0.1c0.5-0.1,1-0.1,1.5-0.2c0-0.6,0.1-1.2,0.3-1.7l-0.6-0.4l14.3-11.4
		c0.4-0.3-0.2-0.9-0.6-0.6l-14.5,11.5c-0.4-0.3-0.9-0.6-1.3-0.8l7.6-5.6c0.4-0.3,0-1-0.4-0.7l-5.7,4.2c0-0.1-0.1-0.2-0.2-0.2
		l-2.5-1.2c0.2,0,0.4-0.2,0.3-0.4c0,0,0-0.1,0-0.1c0.1,0,0.1,0,0.2-0.1l2.1-1.9c0.4-0.3-0.2-0.9-0.5-0.6l-2.1,1.8
		c-0.1,0.1-0.2,0.3-0.1,0.4c-0.2,0.1-0.3,0.3-0.3,0.5c0,0,0,0.1,0,0.1l-4.6-2.2c2.8-0.5,5.5-0.9,8.3-1.3c0.4-0.1,0.3-0.6,0-0.7
		l-0.8-0.2c1.8-1.5,3.7-2.9,5.5-4.4c0.4-0.3-0.2-0.9-0.5-0.6l-5.5,4.4c-0.1,0.1-0.2,0.2-0.1,0.4c-1.8-0.4-3.6-0.8-5.4-1.2l4.2-3.2
		c0.4-0.3,0-1-0.4-0.7l-4.4,3.4c-0.1,0.1-0.2,0.2-0.2,0.3c-1.4-0.3-2.7-0.4-4.1-0.6l9.9-6.8c0.4-0.3,0-1-0.4-0.7l-10.7,7.4
		c-1.5-0.2-3.1-0.3-4.7-0.3l11.6-7.7c0.4-0.3,0-1-0.4-0.7L11,119.9c-1.3,0-2.5,0-3.8,0.1l13.3-9.7c0.4-0.3,0-1-0.4-0.7L5.7,120.1
		l-1.4,0.2c0.1-0.5,0.1-1,0.2-1.6l13.7-9.5c0.4-0.3,0-1-0.4-0.7l-13.2,9.2c0-0.7,0-1.3,0-2l12-8.4c0.4-0.3,0-1-0.4-0.7l-11.7,8.2
		c0-0.9-0.1-1.9-0.1-2.8l9.1-6.1c0.4-0.3,0-1-0.4-0.7l-8.7,5.9c0-0.6,0-1.1,0-1.6l5.9-4.9c0.1-0.1,0.1-0.3,0-0.5c0,0,0,0,0,0
		c20,0.2,40-0.6,60-0.9l10.2-0.2l-6.5,5.7c-0.3,0.3,0.2,0.8,0.5,0.5l7.1-6.2h1.9c0.1,0.3,0.2,0.6,0.2,0.9c-0.1,0-0.2,0-0.3,0.1
		l-7.8,7.6c-0.3,0.3,0.2,0.8,0.5,0.5l7.7-7.6c0.2,0.8,0.4,1.5,0.6,2.2c-0.1,0-0.2,0-0.3,0.1l-7.6,7.2c-0.3,0.3,0.2,0.8,0.5,0.5
		l7.5-7.1c0.3,0.9,0.6,1.9,1,2.8l-7.6,7.2c-0.3,0.3,0.2,0.8,0.5,0.5l7.3-7c1.2,3.3,2.6,6.5,4.3,9.5c2.6,5,6.1,9.6,10.2,13.6
		c0.4,0.4,1,0.8,1.4,1.2l-6.7,5.8L92.4,141.1z M98.8,140.5c0,0-0.1,0-0.1,0c-0.2,0-0.4,0.2-0.4,0.4c0,0,0,0.1,0,0.1H96l6-5.2
		c0.3,0.3,0.6,0.5,0.9,0.8c-1.4,1.2-2.7,2.5-4.1,3.7C98.9,140.4,98.8,140.4,98.8,140.5L98.8,140.5z M99.1,141
		C99.1,141,99.1,141,99.1,141c0.1,0,0.3,0,0.4-0.1l4.2-3.8c1.2,0.9,2.4,1.7,3.8,2.5l-1.6,1.4C103.5,140.9,101.3,140.9,99.1,141
		L99.1,141z M109.1,140.8L109.1,140.8l-2.1,0.1l1.1-1c0.4,0.2,0.8,0.5,1.2,0.7L109.1,140.8z M183,121.1c-2.4,4-5.8,9-10.7,13
		c-4.5,3.5-9.4,6.2-14.8,8.1c-6.9,2.4-14.1,3.6-21.4,3.5c-5.1,0-10.2-0.6-15.1-1.8c-4.2-1.1-8.2-2.7-12-4.9l0.1-0.1l-0.1-0.1
		l-0.7-0.3l-0.1,0.1c-2-1.2-4-2.5-5.8-4c0-0.1-0.1-0.1-0.1-0.1l0,0c-2.6-2.1-4.9-4.5-6.9-7.2c-3.9-5.3-6.9-11.1-9-17.2l0.3-0.3
		c0.3-0.3-0.2-0.8-0.5-0.5l0,0c-0.7-2.1-1.3-4.2-1.8-6.4H85c-0.3-0.6-0.5-1.2-0.7-1.8h-0.1c-2.7-14-0.5-28.4,6.9-40.1
		c5.6-8.9,14.6-15.7,26-19.8c7.6-2.9,15.5-4.4,23.6-4.6c12.1,0,23.7,4.7,32.5,12.9c1.4,1.6,2.8,3.1,4.1,4.6
		c7.2,9.3,12.1,20.1,14.3,31.7C193.5,96.7,190.6,108.5,183,121.1L183,121.1z"/>
	<path class="st0" d="M152.1,60.2c-0.2,0-0.3,0.1-0.4,0.2c-2.9,2.6-5.6,5.5-7.8,8.7c-0.1,0.1-0.2,0.2-0.2,0.3
		c-1.7,2.4-3.1,5-4.2,7.7l-0.3,0.2c-0.1,0.1-0.2,0.2-0.2,0.3c0,0.1,0,0.2,0.1,0.3c-1.2,2.9-2.1,6-2.6,9.2c-0.8,0.3-1.5,0.8-2.1,1.4
		c-0.3,0.4-0.6,0.8-0.8,1.3c-0.1,0.1-0.2,0.1-0.2,0.3c0,0.1,0,0.2,0,0.2l0,0c-0.5,1.6-0.2,3.2,0.7,4.6c0,0.1,0,0.1,0,0.2
		c-0.6,0.9-1.2,1.9-1.6,2.8l-0.3,0.2c-0.1,0.1-0.2,0.2-0.2,0.3c0,0.1,0,0.2,0.1,0.3c-1.2,2.6-2.1,5.3-2.7,8v0.2
		c-0.3,1.7-0.6,3.4-0.8,5.1c0,0.1,0,0.3,0.1,0.4c0.1,0.1,0.3,0.2,0.4,0.2c0.1,0,0.2,0,0.3-0.1c2.6-1.9,4.8-4.2,6.6-6.8
		c0.9-1.3,1.7-2.7,2.4-4.2c0.4-0.8,0.7-1.6,1-2.3c0.2-0.5,0.2-1.1,0.2-1.6c0-0.2,0-0.5,0-0.7c1.2-0.3,2.2-1,2.9-2
		c0.7-1,0.9-2.1,0.8-3.3c3.9-3.8,6.3-9.6,7.6-13.9c1.7-5.4,2.2-11.1,1.6-16.7C152.6,60.5,152.4,60.3,152.1,60.2z M150.2,63.7
		l-0.3,0.6c-0.1-0.1-0.2-0.1-0.3-0.1h-0.1L150.2,63.7z M145.6,68.9l2.8-1.8c0.2-0.1,0.2-0.3,0.2-0.4c0-0.2-0.2-0.3-0.4-0.3H148
		l-0.5,0.3l2-1.5l-1.9,3.9c0,0,0-0.1,0-0.1c0-0.2-0.2-0.3-0.4-0.3l-0.2,0.1l-2.6,1.8C144.9,69.9,145.2,69.4,145.6,68.9z M139.8,79.5
		l4.5-3.7c0.1-0.1,0.2-0.3,0.1-0.4c-0.1-0.2-0.2-0.3-0.4-0.3c-0.1,0-0.2,0-0.3,0.1l-3.3,2.7c0.1-0.3,0.3-0.7,0.4-1l3.9-2.9
		c0.2-0.1,0.2-0.3,0.1-0.5c0-0.2-0.2-0.3-0.4-0.3h-0.2l-2.7,2l0.5-1l4.1-3c0.1-0.1,0.2-0.3,0.1-0.5c0-0.2-0.2-0.3-0.4-0.3h-0.2
		l-2.7,2l0.3-0.4l4.1-2.7l-4.4,9.2c0,0,0,0,0-0.1c-0.1-0.2-0.2-0.3-0.4-0.3c-0.1,0-0.2,0-0.3,0.1l-3,2.3
		C139.5,80.3,139.7,79.9,139.8,79.5L139.8,79.5z M138.8,82.2l4-3.1l-1.1,2.4c-0.1-0.1-0.2-0.1-0.3-0.1h-0.2l-2.8,2.2L138.8,82.2z
		 M138,84.8l3.3-2.5l-0.4,0.8h-0.2l-2.9,2.2L138,84.8z M140.6,84.3L140.6,84.3c0,0,0.1,0.1,0.1,0.1l-1.2,0.9l-1.8,1.3h-0.2
		L140.6,84.3z M137.3,87.8h0.2l-2.3,1.1C135.7,88.3,136.5,87.9,137.3,87.8L137.3,87.8z M138.4,88.2c0.2-0.1,0.2-0.3,0.2-0.4l0,0
		c0.3,0,0.6,0.1,0.9,0.2c-0.7,0.3-1.4,0.8-1.9,1.4c-0.1-0.1-0.2-0.2-0.4-0.2h-0.1l-2.5,1.1c0,0,0-0.1,0-0.1L138.4,88.2z M137.1,90
		c-0.1,0.1-0.1,0.3-0.2,0.4l-2.3,1.3c0-0.2,0-0.4,0-0.6L137.1,90z M136.1,93.1l-1,0.8l-0.1-0.1L136.1,93.1z M134.7,93
		c0-0.1-0.1-0.3-0.1-0.4l1.8-1c0,0.1,0,0.2,0,0.3L134.7,93z M136.4,93.8l0.1,0.3c-0.1,0-0.1-0.1-0.2-0.1h-0.2l-0.3,0.2L136.4,93.8z
		 M136.5,94.8c0.1,0,0.1-0.1,0.2-0.2c0.1,0.2,0.2,0.5,0.3,0.7c-0.3-0.1-0.5-0.2-0.7-0.3L136.5,94.8z M134.7,95.3
		c0.2,0.2,0.4,0.3,0.6,0.5l-1,0.5C134.4,96,134.5,95.6,134.7,95.3L134.7,95.3z M133.9,97.1L133.9,97.1L133.9,97.1z M133.2,98.3
		l2.4-1.2c0.2-0.1,0.2-0.3,0.2-0.4c0-0.1-0.1-0.2-0.1-0.2c0.1-0.1,0.1-0.2,0.1-0.2c0.2,0.1,0.4,0.2,0.6,0.3
		c-0.2,0.3-0.4,0.7-0.6,1.1c-0.1,0-0.1,0-0.2,0h-0.2l-2.5,1.6C133,98.8,133.2,98.6,133.2,98.3L133.2,98.3z M132.4,100.4l2.7-1.7
		c-0.2,0.3-0.3,0.6-0.5,0.9c0,0-0.1,0-0.1,0h-0.2l-2,1.1L132.4,100.4z M131.8,101.9l2.2-1.2c-0.1,0.2-0.3,0.5-0.4,0.7h-0.2l-1.8,1.1
		C131.7,102.3,131.8,102.1,131.8,101.9L131.8,101.9z M131.2,103.7l1.8-1.1l-0.2,0.4l-1.7,1C131.2,103.9,131.2,103.8,131.2,103.7
		L131.2,103.7z M130.8,105.1l1.4-0.8c-0.1,0.2-0.2,0.5-0.3,0.7h-0.1l-0.2,0.1l-0.9,0.6C130.8,105.5,130.8,105.3,130.8,105.1
		L130.8,105.1z M130.4,106.8l1-0.7l-0.2,0.6h-0.1l-0.8,0.6C130.4,107.2,130.4,107,130.4,106.8L130.4,106.8z M129.9,110.6
		c0.1-0.7,0.1-1.3,0.3-2l0.5-0.4c-0.1,0.4-0.3,0.7-0.4,1.1c-0.1,0.1-0.1,0.2,0,0.3c0.1,0.1,0.2,0.2,0.3,0.2c0.1,0,0.2,0,0.2-0.1
		L129.9,110.6z M131,109.6c0,0,0.1-0.1,0.1-0.1c0.7-2,1.5-4,2.4-5.9l0.1-0.1c0.1,0,0.2-0.1,0.2-0.2c0-0.1,0-0.2,0-0.2l0,0
		c1.1-2.2,2.2-4.3,3.6-6.3c0.4,0.1,0.8,0.1,1.2,0.1h0.4C137.4,101.7,134.7,106.2,131,109.6L131,109.6z M141.6,93.8
		c-0.7,1.1-2,1.8-3.3,1.8c-0.2,0-0.4,0-0.7-0.1c0,0,0.1-0.1,0.1-0.1c0.1-0.1,0.1-0.3,0-0.4c-0.5-0.8-0.7-1.7-0.6-2.7
		c0.1-0.1,0.2-0.2,0.2-0.3c0-0.1,0-0.2-0.1-0.3c0.1-0.3,0.2-0.5,0.3-0.8c0.1,0,0.2-0.1,0.2-0.2c0-0.1,0-0.2,0-0.2l0,0
		c0.6-1.1,1.7-1.9,2.9-2.2c0.3,0.2,0.5,0.4,0.7,0.7C142.2,90.8,142.6,92.2,141.6,93.8L141.6,93.8z M150.1,76.8
		c-1.2,4.3-3.2,8.3-6,11.8c-0.3,0.4-0.6,0.8-0.8,1.2c-0.3-0.6-0.7-1.1-1.1-1.6c-0.5-0.5-1.1-0.9-1.8-1.1l-0.2-0.1l0.7-0.3
		c0.2-0.1,0.3-0.3,0.3-0.5c0-0.2-0.2-0.3-0.4-0.3h-0.1l-1.4,0.6l2.6-1.9c0.1-0.1,0.2-0.3,0.2-0.5c-0.1-0.2-0.2-0.3-0.4-0.3l-0.2,0.1
		l0,0l9.8-20.2c0.1-0.1,0.1-0.3,0-0.4c0-0.1-0.1-0.1-0.2-0.2l0.6-0.4c0,0,0.1-0.1,0.1-0.1C152,67.4,151.5,72.3,150.1,76.8
		L150.1,76.8z"/>
	<path class="st0" d="M135.5,50.1c0.1,0.5,0.1,0.9,0.1,1.4c0,0.3,0,0.7,0,1c0,0.7,0.1,1.4,0.2,2.2v0.2c0.2,1.6,0.2,3.1,0.2,4.7
		c0,0.2,0,0.3,0.2,0.5c0.1,0.2,0.4,0.2,0.6,0.2h0.1c0.2,0,0.4-0.1,0.6-0.1c0.7,0,1.5-0.2,2.1-0.6c0.5-0.4,0.3-1.1,0.2-1.7
		c0-0.2-0.1-0.4-0.1-0.6v-1c0-0.6-0.1-1.3-0.1-1.9c-0.1-1.2-0.2-2.4-0.3-3.6l-0.2-2.1c0-0.3-0.2-0.5-0.5-0.5l0,0H138h-0.4
		c-0.4,0-0.8,0-1.2,0.1c-0.7,0.2-0.9,0.4-1,0.8c0,0.2,0,0.5,0.1,0.7L135.5,50.1z M137.1,49.2c0.5,0,0.9,0.1,1,0.3
		c0.2,0.8,0.2,1.6,0.1,2.3c0,0.3,0,0.6,0,0.7l0.1,1.6c0.1,1.4,0.1,2.8,0.3,4.3c-0.5,0-0.9,0.1-1.4,0.2c-0.2-1.4-0.3-2.7-0.4-4.1
		c0-1.8-0.2-3.5-0.6-5.3C136.6,49.2,136.9,49.2,137.1,49.2L137.1,49.2z"/>
	<path class="st0" d="M108.3,73c0.3-1.3,1-2.5,2-3.3c0.1-0.1,0.2-0.2,0.2-0.4c0-0.2-0.1-0.4-0.3-0.5l-4.7-3.6
		c-0.2-0.2-0.5-0.4-0.7-0.6c-0.8-0.8-1.7-1.3-2.8-1.7c-0.2,0-0.4-0.1-0.6-0.1c-1.3,0-2.3,1.1-2.9,3.3c0,0.2,0,0.3,0.1,0.5
		c0.1,0.1,0.2,0.2,0.3,0.2h0.1c2,1.8,4.2,3.4,6.3,5.1l1.9,1.5c0.1,0.1,0.3,0.2,0.4,0.2C108,73.5,108.3,73.3,108.3,73z M106.1,70.9
		c-2.1-1.6-4.2-3.3-6.4-4.8c0-0.2,0.1-0.3,0.2-0.5l0.1-0.3c0.1-0.2,0.2-0.4,0.3-0.5c0.3-0.5,0.6-0.9,1.2-0.9c0.2,0,0.4,0,0.6,0.1
		c0.5,0.1,0.9,0.4,1.3,0.8l0.3,0.3c1.7,1.5,3.6,2.9,5.4,4.3c-0.8,0.7-1.3,1.6-1.7,2.5L106.1,70.9z"/>
	<path class="st0" d="M104.1,93h-0.2c-2.1-0.4-4.1-0.6-6.2-0.7c-1.9-0.1-3.8,0.3-5.4,1.3l-0.1,0.1v0.1c0.1,0.6,0.1,1.1-0.1,1.7
		c-0.2,1.3-0.4,2.7,1.6,3.1c0.3,0,0.5,0.1,0.8,0.1c0.8,0,1.7-0.1,2.5-0.3c0.5-0.1,0.9-0.2,1.3-0.2l5.7-0.6c0.3,0,0.6-0.3,0.6-0.6
		c0,0,0-2.3,0-3.2C104.6,93.4,104.4,93.1,104.1,93z M103.4,96.2L103.4,96.2l-5.5,0.7c-0.5,0.1-1,0.2-1.4,0.3
		c-0.8,0.2-1.5,0.3-2.3,0.4c-0.2,0-0.3,0-0.5,0c-0.1-0.8-0.2-1.6-0.1-2.4v-0.4c0.1-0.5,0.1-0.5,0.4-0.6l0.3-0.1
		c0.9-0.3,1.8-0.4,2.7-0.3c0.5,0,1,0,1.5,0h1.1c1,0,1.9,0.1,2.8,0.3c0.7,0.2,0.7,0.2,0.8,0.6v0.3C103.4,95.3,103.4,95.7,103.4,96.2z
		"/>
	<path class="st0" d="M114.5,121.4c-0.4,0-0.7,0.1-1,0.3c-0.8,0.5-1.5,1.2-2,2c-0.2,0.3-0.4,0.6-0.7,0.8l-0.7,0.7
		c-0.9,0.9-1.7,1.9-2.6,2.9c-0.1,0.1-0.1,0.2-0.1,0.3c0,0.1,0.1,0.1,0.1,0.2c0.1,1.1,1,1.9,2.1,1.8c0.3,0,0.7-0.1,1-0.2
		c0.8-0.4,1.5-1,2.1-1.7l0.3-0.3l3.1-3.3l0.8-0.8c0.2-0.2,0.2-0.5,0.1-0.7C116.3,122,115.4,121.4,114.5,121.4z M114,125.7l-0.6,0.6
		l-0.5,0.5c-0.9,1-2.2,2.6-3.4,2.6l0,0c-0.5,0-0.8-0.2-0.9-0.4c-0.2-0.6,0.6-1.7,2.4-3.5l0.2-0.2l0.3-0.3c0.7-0.8,2.3-2.5,3.4-2.5
		c0.4,0,0.7,0.3,0.8,0.6C116,123.9,114.8,125,114,125.7L114,125.7z"/>
	<path class="st0" d="M140.6,125.6c0-0.2-0.2-0.4-0.4-0.5c-1-0.2-2-0.4-3.1-0.6l-0.7-0.1c-0.3,0-0.6,0.3-0.6,0.6
		c0,0.1,0,0.2,0.1,0.4h-0.1h-0.1v0.2c-0.2,1.3-0.2,2.7-0.2,4c0,0.4,0,0.8,0,1.2s0,0.9-0.1,1.4c-0.1,1.2-0.1,2.4,0.1,3.6
		c0.3,1.6,1.4,2.3,3.2,2.3c0.6,0,1.2-0.1,1.7-0.2c0.3-0.1,0.4-0.3,0.4-0.6C140.5,133.5,140.4,129.6,140.6,125.6z M139.6,137
		c0,0-0.1,0.1-0.6,0.1c-0.4,0-0.7,0-1.1-0.1c-1.5-0.5-1.4-2-1.3-3.4c0-0.2,0-0.4,0-0.6c0-0.7,0-1.4,0-2c0.1-1.8,0.1-3.6-0.1-5.4l0,0
		c0.2,0,0.4,0,0.6,0c0.7,0,1.5,0.1,2.1,0.4c0.4,0.3,0.3,1.5,0.2,2.4c0,0.3-0.1,0.6-0.1,0.7c-0.1,2.2,0,4.4,0.2,6.6
		c0,0.1,0,0.2,0,0.3C139.7,136.4,139.8,136.9,139.6,137L139.6,137z"/>
	<path class="st0" d="M169.1,90.6c0.1,0.7,0.2,1.3,0.2,2c0,0.3,0.2,0.5,0.5,0.5c1.2,0.1,2.4,0.1,3.8,0.1c1,0,2,0,3,0l-2.9,2
		c-0.1,0.1-0.2,0.3-0.1,0.5c0,0.2,0.2,0.3,0.4,0.3l0.2-0.1l1.9-1.3l1.9-1.4h2.4l-6.5,5.4c-0.1,0.1-0.2,0.3-0.1,0.4
		c0.1,0.2,0.2,0.3,0.4,0.3c0.1,0,0.2,0,0.3-0.1l7.1-6c0.3,0,0.5-0.2,0.5-0.4l1.5-1.3c0.1-0.1,0.2-0.3,0.1-0.4
		c-0.1-0.2-0.2-0.3-0.4-0.3c-0.1,0-0.2,0-0.3,0.1l-1.1,0.9l-0.4-1.5c-0.2-0.6-0.3-1.3-0.5-1.9h0.1h0.2l2.2-1.2
		c0.2-0.1,0.2-0.3,0.2-0.4c-0.1-0.2-0.2-0.3-0.4-0.3h-0.2l-2.2,1.2l0,0c-0.1-0.2-0.4-0.4-0.6-0.4h-0.1c-0.6,0.2-1.1,0.2-1.7,0.3
		l5.2-4c0.1-0.1,0.2-0.3,0.1-0.4c-0.1-0.2-0.2-0.3-0.4-0.3c-0.1,0-0.2,0-0.3,0.1l-5.2,4.1c-0.1,0.1-0.2,0.2-0.1,0.4
		c0.1,0.1,0.2,0.2,0.3,0.3c-1.7,0.3-3.5,0.5-5.3,0.6c-1,0-2.1-0.1-3.3-0.2c-0.2,0-0.3,0.1-0.4,0.2l0,0c-0.1,0-0.2,0-0.3,0.1
		l-0.1,0.2v0.1C168.9,89.3,169,89.9,169.1,90.6z M172.7,89.4c2.5,0,4.9-0.3,7.3-0.9c0.2,0.7,0.8,3.3,0.8,3.3h-1.5
		c-1.8,0-3.7,0-5.5,0.1c-0.2,0-0.5,0-0.9,0.1c-0.5,0.1-1,0.1-1.4,0.1c-0.4,0-0.8,0-1.2-0.2c-0.4-0.3-0.6-1.6-0.7-2.5v-0.1
		C170.7,89.4,171.7,89.4,172.7,89.4z"/>
	<path class="st0" d="M121.6,8c0.1,0,0.2,0,0.3-0.1c3.7-3.1,8.3-4.8,13.1-4.8c0.5,0,1,0,1.5,0c0.2,0,0.4-0.2,0.4-0.3c0,0,0,0,0,0
		c0-0.2-0.1-0.4-0.4-0.4c0,0,0,0,0,0c-0.5,0-1-0.1-1.5-0.1c-5,0-9.8,1.8-13.6,5c-0.1,0.1-0.2,0.3-0.1,0.4C121.3,7.9,121.4,8,121.6,8
		z"/>
	<path class="st0" d="M87.4,78.1c2.7-11.5,9.7-21.5,19.6-28c0.2-0.1,0.2-0.3,0.2-0.5c-0.1-0.2-0.2-0.3-0.4-0.3h-0.2l0,0
		c-10.1,6.6-17.2,16.8-20,28.6c0,0.1,0,0.2,0.1,0.3c0.1,0.1,0.2,0.2,0.3,0.2C87.2,78.4,87.4,78.2,87.4,78.1z"/>
	<path class="st0" d="M87.7,90.9c0-0.1,0-0.2-0.1-0.3c-0.1-0.1-0.2-0.1-0.3-0.1c-0.2,0-0.4,0.2-0.4,0.4c-0.6,15.3,5.8,30.1,17.5,40
		c0.1,0.1,0.2,0.1,0.3,0.1c0.2,0,0.3-0.1,0.4-0.3c0.1-0.1,0-0.3-0.1-0.4C93.5,120.5,87.1,106,87.7,90.9z"/>
	<path class="st0" d="M161,135.8L161,135.8c-12.4,5-25.9,6.2-39,3.6c-0.2,0-0.4,0.2-0.4,0.4c0,0.2,0.1,0.4,0.3,0.4
		c13.1,2.6,26.8,1.4,39.2-3.7c0.2-0.1,0.3-0.3,0.3-0.5C161.3,135.9,161.2,135.8,161,135.8z"/>
	<path class="st0" d="M169.8,58.1c-0.1,0-0.2,0-0.3,0.1l-4.8,4.3c-0.1,0.1-0.2,0.3-0.1,0.4c0.1,0.2,0.2,0.3,0.4,0.3
		c0.1,0,0.2,0,0.3-0.1l4.8-4.3c0.1-0.1,0.2-0.3,0.1-0.4C170.2,58.2,170,58.1,169.8,58.1z"/>
	<path class="st0" d="M174.1,101.3c0.1,0.2,0.2,0.3,0.4,0.3c0.1,0,0.2,0,0.3-0.1l10.2-8.3c0.1-0.1,0.2-0.3,0.1-0.4
		c-0.1-0.2-0.2-0.3-0.4-0.3c-0.1,0-0.2,0-0.3,0.1l-10.2,8.3C174.1,101,174.1,101.1,174.1,101.3z"/>
	<path class="st0" d="M184.3,96.2h-0.2l-9.7,6.7c-0.1,0.1-0.2,0.3-0.2,0.5c0,0.2,0.2,0.3,0.4,0.3h0.2l9.7-6.7
		c0.1-0.1,0.2-0.3,0.1-0.5C184.6,96.3,184.5,96.2,184.3,96.2z"/>
	<path class="st0" d="M183.8,99.8h-0.2l-10.7,7.4c0.8-3.7,1-7.5,0.5-11.2c0-0.2-0.2-0.4-0.4-0.4c-0.1,0-0.2,0-0.3,0.1
		c-0.1,0.1-0.1,0.2-0.1,0.3c0.7,5.8-0.1,11.8-2.5,17.1c-0.1,0.1-0.1,0.3,0,0.4c0.1,0.1,0.2,0.2,0.4,0.2c0.1,0,0.1,0,0.2-0.1
		c-0.1,0.1-0.2,0.2-0.2,0.4c0,0.2,0.2,0.3,0.4,0.3h0.1l8.8-4.1c0.2-0.1,0.2-0.2,0.2-0.4c0-0.2-0.2-0.3-0.4-0.3h-0.1l-8.8,4.1
		c0,0,0.1-0.1,0.1-0.1c0.4-0.9,0.8-1.8,1.1-2.8c0.1,0.1,0.2,0.1,0.3,0.1h0.2l9.6-5.2c0.2-0.1,0.2-0.3,0.2-0.4c0-0.2-0.2-0.3-0.4-0.3
		h-0.2l-9.4,5.1c0.2-0.6,0.4-1.2,0.5-1.8h0.1l11.2-7.7c0.2-0.1,0.2-0.3,0.2-0.5C184.2,100,184,99.9,183.8,99.8z"/>
	<path class="st0" d="M177.4,114.1L177.4,114.1l-7.3,1.9c-0.2,0-0.3,0.2-0.3,0.4c0,0.2,0.2,0.4,0.4,0.4h0.1l7.3-1.9
		c0.2,0,0.3-0.2,0.3-0.4C177.9,114.2,177.7,114.1,177.4,114.1C177.4,114.1,177.4,114.1,177.4,114.1z"/>
	<path class="st0" d="M176.1,115.7L176.1,115.7l-4.4,1.7c-0.2,0.1-0.3,0.3-0.3,0.5c0,0.2,0.2,0.3,0.4,0.3h0.1l4.3-1.7
		c0.2-0.1,0.3-0.3,0.3-0.5C176.5,115.8,176.3,115.7,176.1,115.7z"/>
	<path class="st0" d="M111.8,23.1l2-1.2c0.4-0.2,0-0.8-0.3-0.6l-2,1.2C111,22.7,111.4,23.3,111.8,23.1z"/>
	<path class="st0" d="M111.5,26.1c1.1-0.7,2.2-1.4,3.3-2.1c0.4-0.3,0-0.9-0.4-0.6l-3.3,2.1C110.8,25.8,111.1,26.4,111.5,26.1z"/>
	<path class="st0" d="M112,27.3c-0.4,0.2,0,0.8,0.4,0.6l2.7-1.5c0.2-0.1,0.2-0.3,0.1-0.5c-0.1-0.2-0.3-0.2-0.5-0.1L112,27.3z"/>
	<path class="st0" d="M115,33.2l3.3-1.8c0.2-0.1,0.2-0.3,0.1-0.5c-0.1-0.2-0.3-0.2-0.5-0.1l-3.3,1.8C114.3,32.8,114.6,33.4,115,33.2
		z"/>
	<path class="st0" d="M112.1,42l4.2-3.7c0.3-0.3-0.2-0.8-0.5-0.5l-4.2,3.7C111.3,41.8,111.8,42.3,112.1,42z"/>
	<path class="st0" d="M79.6,66.4l9.6-7.5c0.4-0.3-0.2-0.8-0.5-0.5c-3.2,2.5-6.4,5-9.6,7.5C78.8,66.2,79.3,66.7,79.6,66.4z"/>
	<path class="st0" d="M87.2,63.6l-8,6.4c-0.4,0.3,0.2,0.8,0.5,0.5l8-6.4C88,63.8,87.5,63.3,87.2,63.6z"/>
	<path class="st0" d="M77.3,75.3c2.9-2.3,5.7-4.7,8.6-7c0.4-0.3-0.2-0.8-0.5-0.5l-8.6,7C76.4,75.1,76.9,75.6,77.3,75.3z"/>
	<path class="st0" d="M84,71.1l-6.6,5.8c-0.3,0.3,0.2,0.8,0.5,0.5l6.6-5.8C84.8,71.3,84.3,70.8,84,71.1z"/>
	<path class="st0" d="M76.4,85.1l5.7-4.7c0.3-0.3-0.2-0.8-0.5-0.5l-5.6,4.7C75.6,84.8,76.1,85.3,76.4,85.1z"/>
	<path class="st0" d="M80.6,83.9l-6.2,5.6c-0.3,0.3,0.2,0.8,0.5,0.5l6.2-5.6C81.5,84.1,81,83.6,80.6,83.9z"/>
	<path class="st0" d="M83,56.5L101.5,39c0.3-0.3-0.2-0.8-0.5-0.5L82.5,56C82.2,56.3,82.7,56.8,83,56.5z"/>
	<path class="st0" d="M86.6,57.1l16.5-14.9c0.1,0.2,0.3,0.3,0.5,0.2c0.1,0,0.1,0,0.1-0.1l4.5-3.9c0.4-0.3-0.2-0.9-0.6-0.5l-3.9,3.4
		c-0.1-0.2-0.3-0.3-0.4-0.2c0,0-0.1,0-0.1,0.1L86.1,56.6C85.7,56.9,86.2,57.4,86.6,57.1z"/>
	<path class="st0" d="M103.5,45.9l-12.7,9.7c-0.4,0.3,0,0.9,0.4,0.6l12.7-9.7C104.2,46.2,103.9,45.6,103.5,45.9z"/>
	<path class="st0" d="M77.9,122l8.7-7.3c0.3-0.3-0.2-0.8-0.5-0.5l-8.7,7.3C77.1,121.8,77.6,122.3,77.9,122z"/>
	<path class="st0" d="M79.8,125.3l8-7.9c0.3-0.3-0.2-0.8-0.5-0.5l-8,7.9C78.9,125.1,79.4,125.6,79.8,125.3z"/>
	<path class="st0" d="M78.3,129.1l10.8-9.5c0.3-0.3-0.2-0.8-0.5-0.5l-10.8,9.6C77.4,128.9,77.9,129.4,78.3,129.1z"/>
	<path class="st0" d="M79.8,130.9c-0.3,0.3,0.2,0.8,0.5,0.5l9.2-8.8c0.3-0.3-0.2-0.8-0.5-0.5L79.8,130.9z"/>
	<path class="st0" d="M89.9,125.4l-7.8,7.5c-0.3,0.3,0.2,0.8,0.5,0.5l7.8-7.6C90.7,125.6,90.2,125.1,89.9,125.4z"/>
	<path class="st0" d="M91.6,135.5l0.6-0.8l0.8-0.7c0.1-0.1,0.1-0.3,0-0.4l2.5-3.4c0.3-0.4-0.3-0.7-0.6-0.4l-3,4.1l-6.5,5.8
		c-0.4,0.3,0.2,0.9,0.6,0.6l5.3-4.7C91.3,135.7,91.5,135.6,91.6,135.5z"/>
	<path class="st0" d="M76.5,119.1L65,130c-0.3,0.3,0.2,0.8,0.5,0.5L77,119.6C77.4,119.3,76.9,118.8,76.5,119.1z"/>
	<path class="st0" d="M76.1,114.8c-4.1,4.2-8.3,8.4-12.4,12.6c-0.1,0.1-0.1,0.4,0,0.5s0.4,0.1,0.5,0l12.4-12.6
		C76.9,115,76.4,114.5,76.1,114.8z"/>
	<path class="st0" d="M75.6,112.3l-18.1,16.1c-0.3,0.3,0.2,0.8,0.5,0.5l18.1-16.1C76.4,112.5,75.9,112,75.6,112.3z"/>
	<path class="st0" d="M71.2,108.4l-17,17.5c-0.1,0.1-0.1,0.4,0,0.5s0.4,0.1,0.5,0l17-17.5C72,108.6,71.5,108.1,71.2,108.4z"/>
	<path class="st0" d="M70.8,104.6l-17.8,16.7c-0.3,0.3,0.2,0.8,0.5,0.5l17.8-16.7C71.7,104.7,71.2,104.2,70.8,104.6z"/>
	<path class="st0" d="M76.3,105.9c0.2-0.5,0.4-1,0.6-1.5s-0.5-0.6-0.7-0.2s-0.4,1-0.6,1.5S76.1,106.3,76.3,105.9z"/>
</g>
</svg>
