<svg id="Layer_1" data-name="Layer 1" xmlns="http://www.w3.org/2000/svg" viewBox="0 0 193.17 147.01"><defs><style>.cls-1{fill:#545353;}</style></defs><title>6</title><g id="_15" data-name="15"><path class="cls-1" d="M16,96.4a63.7,63.7,0,0,0,3.14-8.12c.12.37.25.74.37,1.12a.43.43,0,0,0-.62.37c-.64,6.52-.26,13.3-.14,19.85a.77.77,0,0,0,1.53,0c0-6.37.23-12.94-.46-19.28a29.07,29.07,0,0,0,2.24,5.43A.49.49,0,0,0,23,95.4c-.59-3.06-2.17-6.13-3.26-9.05a.58.58,0,0,0-1.11,0,78.18,78.18,0,0,0-3.27,9.76C15.23,96.5,15.81,96.8,16,96.4Z" transform="translate(-3.48 -23.36)"/><path class="cls-1" d="M26.45,96.5c.51-1.57,1-3.17,1.38-4.77-.13,2.31.17,4.71.27,7,.14,3.28.27,6.57.45,9.85,0,.78,1.26.79,1.23,0-.11-3.29-.28-6.57-.43-9.85a59.54,59.54,0,0,0-.42-7.42,54.88,54.88,0,0,0,2,5.39c.28.62,1.26.18,1.08-.46-.84-3-2.25-5.79-3.24-8.72a.53.53,0,0,0-1,0,75.61,75.61,0,0,0-1.84,8.83A.3.3,0,0,0,26.45,96.5Zm1.9-6.94.06.18-.09,0Z" transform="translate(-3.48 -23.36)"/><path class="cls-1" d="M36.66,95.49a54.25,54.25,0,0,0,6.75.22h.25a14,14,0,0,0-.19,5,12.28,12.28,0,0,1-.11,4.36,4.76,4.76,0,0,1-1.3,2.23c-2.71.65-4.12.1-4.24-1.68-.07-.37-.63-.33-.72,0-.85,3,2.95,4.38,5.14,3,4.21-2.73,1.75-8.8,2.35-12.9a32.65,32.65,0,0,0,6-.21A.51.51,0,0,0,51,95s.07-.06.08-.13c.91-4.48-1.47-11-6.82-10.91h-.18a7,7,0,0,0,.71-3.53c0-.77-1.24-1-1.39-.19-.19,1.05-.5,2.77,0,3.75l0,0c-5,.6-7.19,6.12-7.41,10.67a.52.52,0,0,0,0,.68A.38.38,0,0,0,36.66,95.49Zm6.6-9.9c5.62-1.14,5.86,5.17,7,8.83a48.34,48.34,0,0,0-6.81-.15,58.55,58.55,0,0,0-6.49.2C37.72,90.75,39,86.46,43.26,85.59Z" transform="translate(-3.48 -23.36)"/><path class="cls-1" d="M59,85c1.77.09,3.56.21,5.34.18a.71.71,0,0,0,.26,0c.39,2.06,1,4.12.29,6.22S62.26,95.26,60,95c-4.7-.46-4.92-6.24-5.16-9.8a.31.31,0,0,0-.61,0c-.28,3.92.56,10.61,5.33,11.32a20.14,20.14,0,0,0-.35,4.66c0,2-.11,4-.07,6a13.79,13.79,0,0,0-4,.5.29.29,0,0,0,0,.55,16.37,16.37,0,0,0,4.64.27,15.71,15.71,0,0,0,4.7-.34.48.48,0,0,0,0-.92,11.71,11.71,0,0,0-3.88-.13c.09-2,.09-4,.11-5.94a20.88,20.88,0,0,0-.2-4.61h.32c5.86-.37,6.36-8.11,4.64-12.23a.5.5,0,0,0-.66-.31.68.68,0,0,0-.46-.23c-1.77-.17-3.56-.2-5.34-.26a14.54,14.54,0,0,0-4.66.21.32.32,0,0,0,0,.61A14.56,14.56,0,0,0,59,85Z" transform="translate(-3.48 -23.36)"/><path class="cls-1" d="M21,158.38l-9.4,7.06c-.4.29,0,1,.39.67l9.4-7.05C21.82,158.76,21.43,158.08,21,158.38Z" transform="translate(-3.48 -23.36)"/><path class="cls-1" d="M23.92,159.46Q18.79,163.2,13.68,167c-.41.29,0,1,.39.68l10.24-7.5C24.72,159.84,24.33,159.16,23.92,159.46Z" transform="translate(-3.48 -23.36)"/><path class="cls-1" d="M34.8,140.18q-2.47,2-5,3.91c-.39.31.16.86.56.55l5-3.9C35.75,140.43,35.2,139.88,34.8,140.18Z" transform="translate(-3.48 -23.36)"/><path class="cls-1" d="M39.71,143.25l-6.52,5.24c-.39.31.17.86.56.55l6.52-5.24C40.66,143.49,40.1,142.94,39.71,143.25Z" transform="translate(-3.48 -23.36)"/><path class="cls-1" d="M62,152.06,44.81,164.93c-.4.3,0,1,.39.68l17.18-12.87C62.78,152.44,62.39,151.76,62,152.06Z" transform="translate(-3.48 -23.36)"/><path class="cls-1" d="M78.14,153.23l-13,10c-.4.31.16.86.55.56l13-10.05C79.1,153.47,78.54,152.92,78.14,153.23Z" transform="translate(-3.48 -23.36)"/><path class="cls-1" d="M80.94,154.18l-11.46,9.7c-.39.32.17.88.55.55l11.47-9.7C81.88,154.41,81.32,153.86,80.94,154.18Z" transform="translate(-3.48 -23.36)"/><path class="cls-1" d="M84.12,154.76,73.5,164c-.38.33.17.88.55.55l10.63-9.24C85.06,155,84.5,154.43,84.12,154.76Z" transform="translate(-3.48 -23.36)"/><path class="cls-1" d="M100.08,157.14l-7.56,6.29c-.39.32.17.87.55.55l7.56-6.29C101,157.37,100.46,156.82,100.08,157.14Z" transform="translate(-3.48 -23.36)"/><path class="cls-1" d="M6.85,66.39a.39.39,0,0,0,.32-.6.38.38,0,0,0,.48,0l2.88-2.61c.37-.34-.19-.89-.56-.56-1,.87-1.91,1.75-2.87,2.61a.34.34,0,0,0,0,.47.43.43,0,0,0-.2-.06A.39.39,0,0,0,6.85,66.39Z" transform="translate(-3.48 -23.36)"/><path class="cls-1" d="M7.92,67.86l6-4.69c.39-.31-.16-.86-.56-.56l-6,4.69C7,67.61,7.53,68.16,7.92,67.86Z" transform="translate(-3.48 -23.36)"/><path class="cls-1" d="M10.28,69.7l6.8-5.48c.39-.32-.17-.87-.56-.56L9.73,69.15C9.34,69.46,9.89,70,10.28,69.7Z" transform="translate(-3.48 -23.36)"/><path class="cls-1" d="M48.38,69.53a.39.39,0,0,0,0-.78A.39.39,0,0,0,48.38,69.53Z" transform="translate(-3.48 -23.36)"/><path class="cls-1" d="M64.56,70.44l3.93-3.65c.36-.35-.19-.9-.56-.56L64,69.88C63.64,70.23,64.19,70.78,64.56,70.44Z" transform="translate(-3.48 -23.36)"/><path class="cls-1" d="M68,68.6l-2.61,2.09c-.4.31.16.86.55.55l2.61-2.09C68.89,68.84,68.34,68.29,68,68.6Z" transform="translate(-3.48 -23.36)"/><path class="cls-1" d="M69.83,108.88l9.08-8.43c.37-.34-.19-.9-.55-.55l-9.08,8.42C68.91,108.67,69.46,109.22,69.83,108.88Z" transform="translate(-3.48 -23.36)"/><path class="cls-1" d="M72.93,108.7a.4.4,0,0,0,0,.79A.4.4,0,0,0,72.93,108.7Z" transform="translate(-3.48 -23.36)"/><path class="cls-1" d="M76,105.42c-.78.78-1.56,1.57-2.35,2.35-.36.36.2.91.56.56L76.6,106C77,105.62,76.4,105.06,76,105.42Z" transform="translate(-3.48 -23.36)"/><path class="cls-1" d="M73,63v5.29a.39.39,0,0,0,.78,0V63A.39.39,0,0,0,73,63Z" transform="translate(-3.48 -23.36)"/><path class="cls-1" d="M74.9,64.57l-.18,3.52c0,.51.76.51.78,0,.07-1.17.13-2.35.19-3.52C75.71,64.06,74.93,64.06,74.9,64.57Z" transform="translate(-3.48 -23.36)"/><path class="cls-1" d="M31.85,58.28l28.79-.68a.39.39,0,0,0,0-.78l-28.79.67C31.35,57.51,31.35,58.29,31.85,58.28Z" transform="translate(-3.48 -23.36)"/><path class="cls-1" d="M93.3,57.83a53.78,53.78,0,0,1,26.17,0,.39.39,0,0,0,.21-.76,54.63,54.63,0,0,0-26.59,0C92.6,57.2,92.81,58,93.3,57.83Z" transform="translate(-3.48 -23.36)"/><path class="cls-1" d="M19.52,152l-11.76-.3a.39.39,0,0,0,0,.78l11.76.31C20,152.79,20,152,19.52,152Z" transform="translate(-3.48 -23.36)"/><path class="cls-1" d="M11.29,151.05l5.48-.37c.5,0,.51-.81,0-.78l-5.48.36C10.79,150.3,10.78,151.08,11.29,151.05Z" transform="translate(-3.48 -23.36)"/><path class="cls-1" d="M171.24,76l-.36-.39-.16,0A40.41,40.41,0,0,0,159.84,69a.45.45,0,0,0-.39-.27.58.58,0,0,0-.18,0l-.39-.15a43.87,43.87,0,0,0-14.43-2.81h-.85a57.32,57.32,0,0,0-13.5,1.93c-10.92,2.64-19.53,7.15-25.6,13.41C90.17,95.92,88,120.3,99.18,140.42c5.11,9.19,11.68,15.43,20.08,19.05a52.8,52.8,0,0,0,20.8,4.2h0a54.32,54.32,0,0,0,5.85-.31c12.64-1.37,24.72-7.46,31.53-15.9,7.25-9,11.89-20,12.44-29.64.5-8.95-2.55-19.11-9.08-30.19A46.52,46.52,0,0,0,171.24,76Zm-.14,1.12s0,0,.05,0l.74.67L165.8,83c-.31-.45-.63-.91-1-1.35l.09,0Zm-1.42-1.29.85.7-6,4.37a.36.36,0,0,0-.14.16c-.18-.23-.37-.45-.55-.67L169.53,76A.45.45,0,0,0,169.68,75.8Zm-2-1.43-.06-.11c.49.35,1,.7,1.46,1.07l-5.76,4.41c-.24-.28-.5-.55-.76-.82l5-4.14A.37.37,0,0,0,167.68,74.37Zm-.29-.26a.25.25,0,0,0-.12,0,.35.35,0,0,0-.26.1l-5,4.16c-.23-.24-.48-.47-.72-.7l2.49-2.14,2.48-2.16C166.63,73.59,167,73.85,167.39,74.11Zm-1.85-1.2-4.88,4.2-.36-.31,4.49-4.34Zm-4.22-2.25c.94.44,1.86.9,2.74,1.39l-4.39,4.23c-.29-.23-.59-.47-.89-.69L162.47,72a.38.38,0,0,0,.09-.43.43.43,0,0,0-.39-.26c-.1,0-.19,0-.35.19l-3.71,3.64c-.19-.14-.4-.28-.6-.41l3.7-3.83A.36.36,0,0,0,161.32,70.66Zm-1.95-.83q.62.24,1.23.51l-3.78,3.91q-.48-.31-1-.6Zm-.81-.32-3.45,3.73-.8-.42,3.41-3.61Zm-3.17-1.06,1.49.46-3.33,3.53c-.47-.21-.94-.43-1.41-.62l3.13-3.08A.4.4,0,0,0,155.39,68.45Zm-2.85-.72c.71.16,1.4.32,2.08.51l-3.31,3.25c-.58-.22-1.17-.43-1.76-.61l3-3.09Zm-2.12-.41.88.15.33.07-2.95,3.08c-.47-.14-.94-.25-1.41-.36l3-3ZM148.11,67s0,0,0,0c.38,0,.77.08,1.15.13L146.41,70a.47.47,0,0,0-.06.09c-.46-.09-.93-.17-1.4-.24l3-2.38A.36.36,0,0,0,148.11,67Zm-5.27-.21v0h.94c1.19,0,2.37,0,3.54.14l-2.43,1.91-1,.84c-.44,0-.87-.09-1.32-.12l2.24-1.83a.37.37,0,0,0,.13-.41.46.46,0,0,0-.41-.28.39.39,0,0,0-.27.1l-2.81,2.3-.06.07h-1.51l2.82-2.41A.38.38,0,0,0,142.84,66.83Zm32.81,39.35a.45.45,0,0,0,.41.28.39.39,0,0,0,.26-.09l9-7.19a.28.28,0,0,0,.07-.09c.21.56.4,1.12.59,1.69a.34.34,0,0,0-.19-.07.58.58,0,0,0-.36.18L176,108.57c-.31-1.5-.66-3-1-4.48l.17,0,8.2-6.13a.42.42,0,0,0,.15-.48.39.39,0,0,0-.36-.28l-.18,0-8.19,6.12c-.12-.49-.24-1-.38-1.47l8.49-6.22a.41.41,0,0,0,.15-.47.39.39,0,0,0-.36-.29l-.18,0-8.33,6.1-.36-1.16.13,0,7.1-5.06a.43.43,0,0,0,.16-.47.4.4,0,0,0-.37-.29l-.18,0-7.07,5c-.14-.43-.3-.86-.44-1.29l.08,0,.18,0,7.1-5.22a.42.42,0,0,0,.15-.48.38.38,0,0,0-.36-.28l-.18,0L173,97.06a.41.41,0,0,0-.07.11c-.17-.51-.33-1-.52-1.53l7.28-5.21a.41.41,0,0,0,.16-.46.39.39,0,0,0-.37-.29l-.18,0-7.17,5.13c-.2-.53-.4-1-.61-1.57a.44.44,0,0,0,.25.08.44.44,0,0,0,.26-.1l6.43-5.14a.34.34,0,0,0,.12-.4.43.43,0,0,0-.67-.2l-6.43,5.15a.38.38,0,0,0-.12.17c-.09-.22-.17-.45-.26-.68a.44.44,0,0,0-.3-.23c2.14-1.58,4.22-3.15,6.16-4.71a.41.41,0,0,0,.16-.31.56.56,0,0,0-.14-.4l-2.61-2.64a.56.56,0,0,0-.38-.14.38.38,0,0,0-.25.08L166,89.66a.52.52,0,0,0-.19.57.55.55,0,0,0,.31.35,18.53,18.53,0,0,0,.9,2.09c.16.33.31.66.46,1a.48.48,0,0,0,.45.26.38.38,0,0,0,.25-.08c.73-.52,1.43-1,2.15-1.57,0,0,0,.09,0,.14a93.33,93.33,0,0,1,5.23,18,.37.37,0,0,0,.37.3.45.45,0,0,0,.33-.15.42.42,0,0,0,.09-.34l-.09-.49-.09-.24,10-8.08a.28.28,0,0,0,.08-.11c.19.55.37,1.11.55,1.67a.51.51,0,0,0-.24-.07.41.41,0,0,0-.26.09l-9,7.45a.35.35,0,0,0-.12.41.45.45,0,0,0,.4.28.44.44,0,0,0,.27-.09l8.95-7.45a.46.46,0,0,0,.08-.13,57,57,0,0,1,1.51,6.23c1.87,10.45-1.12,21.5-9.16,33.8A40.38,40.38,0,0,1,160,158.67a28.87,28.87,0,0,0,2.62-2.25l2.68-.73a.39.39,0,0,0,.29-.44.41.41,0,0,0-.46-.34h0l-1.3.35a26.56,26.56,0,0,0,1.88-2.2.5.5,0,0,0,.26.06H166l4.77-1.56a.42.42,0,0,0,.27-.46c0-.19-.17-.32-.44-.32h-.06l-4.17,1.37c.39-.54.75-1.1,1.1-1.66a.4.4,0,0,0,.39.35l.11,0,4.64-1.31a.39.39,0,0,0,.28-.44c0-.2-.17-.34-.46-.34h0L167.8,150s0,0,0,0c.45-.76.87-1.52,1.24-2.3a.39.39,0,0,0,.36.29h.1l3-.66a.36.36,0,0,0,.3-.42.43.43,0,0,0-.47-.36h0l-3,.66s0,0-.06,0c.15-.35.31-.7.45-1.05l2.3-.46.1,0,1.89,2.22a.44.44,0,0,0,.36.18.64.64,0,0,0,.49-.26l2.77-3.68a.55.55,0,0,0-.08-.7c-1.6-1.34-3.21-2.65-4.83-4l-2.35-1.93a.67.67,0,0,0-.42-.16.52.52,0,0,0-.4.18c-.12.13-.3.29-.49.48-.8.75-1.89,1.77-1.67,2.65a.92.92,0,0,0,.82.75,1.16,1.16,0,0,1,.44.19A7.85,7.85,0,0,1,169.8,143l.31.38a.38.38,0,0,0-.28.27c-.22.65-.46,1.29-.64,1.84-.18.08-.26.27-.19.36a29.86,29.86,0,0,1-6.66,9.77l-1.51.41a.39.39,0,0,0-.29.44.41.41,0,0,0,.46.34h0a27.84,27.84,0,0,1-2.37,1.84.39.39,0,0,0-.15.46.25.25,0,0,0,0,.09,56.21,56.21,0,0,1-17.64,3.22l-1.24,0A51.9,51.9,0,0,1,127.13,161c-9.47-2.36-17.55-7.5-22.75-14.47-13.43-18-15-41.58-3.95-58.67,5-7.82,13.12-13.79,23.31-17.29a73.5,73.5,0,0,1,11.69-3l-1.84,2.31a.4.4,0,0,0-.08.38h0c-.9.06-1.83.15-2.76.28a.37.37,0,0,0-.07-.14.43.43,0,0,0-.34-.18.34.34,0,0,0-.32.23v.2a32.79,32.79,0,0,0-6.67,1.83.41.41,0,0,0-.26.47.37.37,0,0,0,.36.32l.14,0a32.12,32.12,0,0,1,6.14-1.72.46.46,0,0,0,.38.23.36.36,0,0,0,.32-.22l0-.13a33.42,33.42,0,0,1,5.19-.41l1.29,0a.38.38,0,0,0,.38-.39.4.4,0,0,0-.39-.42q-.59,0-1.17,0c-.45,0-.9,0-1.35,0l1.82-2.27a.43.43,0,0,0,.05-.45l0,0c.94-.14,1.88-.28,2.79-.38l-2.29,2.31a.39.39,0,0,0-.09.43A.42.42,0,0,0,137,70a.36.36,0,0,0,.27-.12l2.64-2.65A.35.35,0,0,0,140,67h0c.58,0,1.17-.09,1.76-.12L139,69.19a.36.36,0,0,0-.14.34,0,0,0,0,1,0,0l-1.06.08a.43.43,0,0,0-.38.46.36.36,0,0,0,.4.35h0c.9-.09,1.84-.13,2.76-.13s2,0,2.84.08a.44.44,0,0,0,.36.19c.09,0,.18,0,.16-.08a31.41,31.41,0,0,1,4.07.78.38.38,0,0,0,0,.33.43.43,0,0,0,.39.26.41.41,0,0,0,.29-.13l.2-.21c.78.23,1.55.49,2.26.76l.15.07A29.32,29.32,0,0,1,166.5,85.69a.36.36,0,0,0,.33.2.42.42,0,0,0,.36-.21.37.37,0,0,0,0-.39c-.3-.57-.62-1.12-1-1.66l.06,0,6.14-5.27s0,0,.05,0v0l.81.89a.44.44,0,0,0-.22.1l-5.64,5.44a.37.37,0,0,0-.1.42.44.44,0,0,0,.39.27.43.43,0,0,0,.28-.11l5.64-5.44a.54.54,0,0,0,.1-.18c.67.75,1.34,1.49,2,2.23a64.45,64.45,0,0,1,9.44,16.64.34.34,0,0,0-.14-.05.39.39,0,0,0-.26.09l-9,7.19A.37.37,0,0,0,175.65,106.18Zm.11-19.5.09.1c-2.52,1.8-5.14,3.78-7.8,5.88l-.16-.31c-.35-.68-.71-1.38-1.13-2,0,0,3.82-2.91,4.72-3.58.16-.13.37-.32.6-.53a4.68,4.68,0,0,1,1.54-1.11l.1-.16h0v.15C174.37,85.09,175.18,86,175.76,86.68Zm-4.29,58.38-1.38.28c.17-.45.34-.9.49-1.35C170.87,144.35,171.17,144.7,171.47,145.06Zm-2.82-4.77,1.31-1.45,4.8,3.91.37.28a3.59,3.59,0,0,1,.71.59c.35.43.33.45.14.79l-.16.28a12.29,12.29,0,0,1-1.27,1.77l-.24.28-.75-.89C172,144,170.35,142.08,168.65,140.29Z" transform="translate(-3.48 -23.36)"/><path class="cls-1" d="M186.1,83.65a52.87,52.87,0,0,0-10.57-12.86L175,70.2a.26.26,0,0,0-.21-.1h-.05a46.08,46.08,0,0,0-13.89-8,50.43,50.43,0,0,0-13.06-2.86v-.17h.46c8.41,0,11.2-9.77,11.53-15.55.16-3,.09-7.45-2.45-11.17a20.81,20.81,0,0,0-8.88-7,24.87,24.87,0,0,0-9.78-2.06,21.48,21.48,0,0,0-11.76,3.4A19.18,19.18,0,0,0,118,43a4.62,4.62,0,0,0-.57-.24.29.29,0,0,0-.34.27.67.67,0,0,0-.51-.22c-6.53-.13-13.07-.1-19.59-.06-4.9,0-9.79-.09-14.69,0-3.39.06-17.12-.36-20.6-.19l-12.23.63c-7.07.36-14.21.26-21.21,1-5.2.58-8.92,5.45-12.63,8.53-3.42,2.83-6.39,2.67-11.31,9.68-1,5.13.78,13.65.84,19.46q.13,10.45.23,20.92.09,7.82.22,15.64H5.41c-.5,0-.5.8,0,.78h.17c0,.62,0,1.24,0,1.85a.42.42,0,0,0,0,.68c0,.47,0,.94,0,1.41.06,3.16.11,6.31.2,9.47l-.18,10.28c-.59.22-1.31.23-1.72.8-.59.84-.45,2.75-.43,3.72.06,3.34.06,6.68.13,10a.75.75,0,0,0,.73.72c.83.07,1.68.11,2.52.14C3,175.57,35,169.15,43.25,168.89c22.79-.71,45.73-2.27,68.52-1.54,2.59.08,6.61.47,10.84.61a19,19,0,0,1-5.84-2.16,60.3,60.3,0,0,0,23.15,4.57h0a60.31,60.31,0,0,0,6.45-.34c14.37-1.5,28.13-8.35,35.93-17.88a70.77,70.77,0,0,0,9.51-15.88,52.52,52.52,0,0,0,4.74-17.53C197.3,108.37,193.78,96.57,186.1,83.65Zm-61-54.3a20.56,20.56,0,0,1,13.61-5,22.68,22.68,0,0,1,5.55.69c6,1.52,13.36,6.05,14.32,13.79.62,4.94-.31,12-3.79,16a8.5,8.5,0,0,1-6.61,3h-.53l-.08-.88h.36a7.23,7.23,0,0,0,5.4-2.28c2.63-2.75,3.41-7.28,3.27-10.6-.23-5.21-1.32-12.45-8.2-15.29a20.46,20.46,0,0,0-8-1.34c-1,0-2,0-3,.09-3.09.17-6.62.52-9.5,2.4-5.1,3.32-6.39,9.93-6,14.58.57,6,4.67,12.16,11.27,12.52l0,.26c0,.4.1.88.17,1.38a.29.29,0,0,0-.13-.08,16.29,16.29,0,0,1-10-24.49.37.37,0,0,0,0-.39.41.41,0,0,0-.37-.22.4.4,0,0,0-.34.19,17.55,17.55,0,0,0-1.15,15.91,17.19,17.19,0,0,0,8,8.36l0,0c-4.22-1.85-8.35-5.1-9.88-10.86A17.63,17.63,0,0,1,125.09,29.35Zm12.43,30.19-1.44.21.06,0,3.11-2.26v.12l.07.3-1.66,1.32a.35.35,0,0,0-.14.27Zm-1.92,0a.4.4,0,0,0,.31.29l-1.52.25c0-.12,0-.24,0-.36a.53.53,0,0,0,.15-.08l4.67-3.86V56l.09.45L135.75,59A.41.41,0,0,0,135.6,59.49Zm-1.9.67h0l-1.44.3a6.18,6.18,0,0,1-.12-.62C132.66,60,133.16,60.1,133.7,60.16Zm-.45-.8a.35.35,0,0,0,.25-.18c0,.09,0,.17,0,.26Zm.27-6.53,1-.72a.41.41,0,0,0,.15-.47.39.39,0,0,0-.36-.29.45.45,0,0,0-.26.1l-2.78,2a.49.49,0,0,0-.14.18,2.36,2.36,0,0,1-.37,0,2,2,0,0,1-.77-.13l4.18-2.88s.06-.07.09-.11a5,5,0,0,0,1.23,1.28Zm-.24.52-.55,0,.67-.47a.36.36,0,0,0-.16.38Zm-5.77-3.09a.46.46,0,0,0,.27.26l0,.37.06.09c-.14.17-.11.42,0,.47a5.5,5.5,0,0,0,.27,1.29.41.41,0,0,0-.15.47.39.39,0,0,0,.36.28h.06c.08.13.15.25.23.36a2.3,2.3,0,0,0,2,.92,10,10,0,0,0,1.77-.23l.58-.11c.06.5.1,1,.14,1.53l0,.23c-4.28-.48-7.66-3.35-9.28-7.91a17,17,0,0,1-.7-2.9l4.44,3.9,0,.11v.47A.35.35,0,0,0,127.51,50.26Zm.68-3.58c0-.72.39-1.13,1.85-1.34Zm3.34-1.45H132L128.32,48c0-.12,0-.23,0-.34l1.17-.86Zm1.8,4.38a.39.39,0,0,0-.36-.29l-.18,0L129,52.13a5.38,5.38,0,0,1-.19-.83l4.57-3.2a.86.86,0,0,0,.07-.1,5.08,5.08,0,0,0,.5,1.86l-.12,0L129.36,53l-.05-.06,3.87-2.81A.41.41,0,0,0,133.33,49.61Zm2.95,2.62a3.39,3.39,0,0,0,.45.15l-.69.47-.62.44h-1.07l1.94-1Zm0,1.9.65-.05L134.59,56l1.6-1.49a.37.37,0,0,0,.13-.29A.06.06,0,0,0,136.31,54.13Zm-2.41,1a1.73,1.73,0,0,1,1.27-.79l-1.32,1.23A1,1,0,0,1,133.9,55.1Zm3.42-.27-3.15,2.65a.68.68,0,0,0,0-.14Zm-2.9,3.5,1.78-1.5,3-2.54a.33.33,0,0,0,0,.1v.19l.05.08-4.89,4.06,0-.31Zm5,.5a.5.5,0,0,0,.26.08.41.41,0,0,0,.3-.12.37.37,0,0,0,.1-.28L140,54.38a.42.42,0,0,0-.17-.33h.15c.56,0,1.14,0,1.73,0a13.17,13.17,0,0,1,3.61.4c1.12.34,1.14.63,1.24,1.72,0,0,.21,2.35.26,3-.74,0-1.49-.08-2.24-.1h-.61a47.35,47.35,0,0,0-5.2.3Zm5.67-5.4h0c-.9,0-1.81-.06-2.73-.12s-1.87-.11-2.84-.11v.15l-.19-.15c-.33,0-.65,0-1,0-.5,0-1,.05-1.52.05l.32-.21a.41.41,0,0,0,.16-.46l0,0a5.14,5.14,0,0,0,2.54,0,.37.37,0,0,0,.29-.43.41.41,0,0,0-.46-.35h0a4.54,4.54,0,0,1-1.15.15,4.27,4.27,0,0,1-4.22-5,.42.42,0,0,0-.09-.34.43.43,0,0,0-.34-.15.36.36,0,0,0-.36.3,7.23,7.23,0,0,0-.07.79.36.36,0,0,0-.26-.14l-.18,0-4.33,3-.07-.26,5.21-4.2a.35.35,0,0,0,.12-.41.44.44,0,0,0-.41-.28.43.43,0,0,0-.26.09l-4.31,3.49-.19-.16L130.91,47l2.37-1.81h1.33c1.45,0,2.89-.1,4.33-.15s2.95-.12,4.43-.16l4-.13c.26,0,.55,0,.84-.07a8.14,8.14,0,0,1,1.09-.09c.77,0,1.21.21,1.41.69a8.86,8.86,0,0,1,.44,2.54c0,.44.07.86.13,1.24l.54,3.61-1.75.24A34.43,34.43,0,0,1,145.1,53.43Zm5.7.42,1.64-.22a.57.57,0,0,0,.38-.2.58.58,0,0,0,.09-.41c-.34-2.21-.67-4.43-1-6.63L151.56,44a.51.51,0,0,0-.5-.39c-3.33,0-6.71.15-10,.26L139,44,136,44c-1.38,0-2.77.07-4.23.13l-1.6.07-.64,0c-.33,0-.7-.05-1.05-.05a2,2,0,0,0-1.14.22,1.18,1.18,0,0,0-.2,1.58,1.5,1.5,0,0,1,.12.36l.12.89-.08.16a0,0,0,0,0,0,0q-2.07-1.8-4.12-3.62s-.11,0-.16,0c-.28-4.44,1.13-8.9,3.92-11.64,2.51-2.45,6.53-3.69,12-3.69a39,39,0,0,1,4.73.29,13.44,13.44,0,0,1,8.21,3.58c1.72,1.74,2.77,4.17,3.31,7.65.71,4.6.51,10.62-2.17,13.75a6.44,6.44,0,0,1-5.13,2.21h-.34l-.16-1.58C148.46,54.17,149.63,54,150.8,53.85Zm-19.6,6.83c-1,.22-2,.45-3,.72a78.56,78.56,0,0,0-8.93,2.75L123.55,61s0-.06.06-.1l.91,0c-.15.33.37.62.62.28l.23-.3C127.32,60.79,129.26,60.75,131.2,60.68Zm-1.12-2.39h0l.47.22ZM97,44.18c4.06,0,8.13,0,12.2,0,2.57,0,6.12-.74,8.84,0,0,.1,0,.2,0,.3a17.13,17.13,0,0,0,1.68,5.84.3.3,0,0,0-.33,0l-2.66,1.48c-.4.21,0,.83.36.61.88-.5,1.77-1,2.66-1.48a.33.33,0,0,0,.16-.21c.19.37.39.73.61,1.09l-3.84,2.26a.35.35,0,0,0,.36.61l3.88-2.28a17.59,17.59,0,0,0,7.66,6.3l-.25.22-1.51,0,.14-.18c.27-.36-.35-.72-.62-.36l-.42.57-2.1,0,1.8-1a.36.36,0,0,0,0-.61l-2-1.49a.29.29,0,0,0-.33,0s0,0,0,0l-2.65,1.19c-.42.18-.06.79.35.61l2.44-1.09,1.43,1-2.16,1.21a.27.27,0,0,0-.13.17c-3.61.1-7.22.21-10.84.26q-7,.09-14,.11c-2.43,0-4.86,0-7.29,0-2.25,0-5,.21-7.12-.81a55.74,55.74,0,0,0-4.9-14.82C84.44,44.5,90.79,44.19,97,44.18ZM86.52,61.09c.85,0,1.7,0,2.55,0l-5.37,5c0-.77-.06-1.55-.11-2.32Zm-3,1.73c-.07-.77-.15-1.55-.25-2.32l0,0a9.8,9.8,0,0,0,2.16.48Zm-9-18.62c.17,2.61.35,5.22.52,7.83,0,.5.81.5.78,0l-.52-7.85a6.18,6.18,0,0,0,1.77,0A56.82,56.82,0,0,1,82.24,64l-.57.54c-.37.34.19.9.55.55L82.3,65a54.25,54.25,0,0,1-.45,10.48c-.06-.09-.11-.18-.17-.26a.64.64,0,0,0-1.16.15l-.09.22-1.69-4.44c-.23-.57-1.13-.69-1.3,0q-.69,2.76-1.36,5.52-1-2.29-1.89-4.6a.57.57,0,0,0-.94-.24l-2.58,2.74A110,110,0,0,1,70.49,61a39.28,39.28,0,0,1,7.59-.13c.5,0,.5-.75,0-.79a39.66,39.66,0,0,0-7.55.14,121.91,121.91,0,0,1,1.94-16.07A10.7,10.7,0,0,0,74.51,44.2ZM11.88,57.59c1.44-1.13,2.79-2.38,4.21-3.54l6.63-5.38c1.89-1.53,3.73-3.46,6.32-3.37,3.08.1,6.18,0,9.31-.16,3.89-.16,7.77-.35,11.66-.54l11.07-.53c2.93-.15,10.13-.09,10.67,0a90,90,0,0,0-2.31,12.3c-.28,2.37.06,3.3-2.56,3.38-1.1,0-9,0-16.63,0a.38.38,0,0,0-.57-.05l-.06.05h-13l-15.7.15H20.3L27,54c.37-.34-.18-.89-.56-.56l-7,6.27a.3.3,0,0,0-.11.23L16.1,60l7.8-6.69c.38-.33-.17-.88-.55-.55L14.88,60c-.59,0-1.49.14-2.36.15l9.19-7.77c.38-.32-.17-.87-.56-.55l-9.76,8.26a2,2,0,0,1-.84-.3C9.36,58.92,11.05,58.24,11.88,57.59ZM6.46,61.8c1.45-1.27,4.65-.08,6.32-.07h.75a.39.39,0,0,0,.52,0h7.5L11.8,69.9c-.39.33.17.88.55.56l10.42-8.73h1.86L17,69.36a.39.39,0,0,0,.55.55l8.19-8.19h2.42L20,70.29c-.35.36.21.92.55.55l8.68-9.12h2.91L21.73,71.48c-.37.35.19.9.55.56l11-10.33h2.62L25.44,72.06c-.36.35.19.9.55.55l11.06-10.9h2.68l-8.12,7.91c-.36.35.19.9.55.55q4.35-4.23,8.69-8.47H43.3l-8.76,8.25c-.37.34.19.9.55.55l9.29-8.74s0,0,0-.06l3.12,0L36.65,71.52c-.38.34.18.89.55.55L48.71,61.66l3.61,0h.11L43.5,70c-.37.35.18.9.55.56l9.51-8.92,2.23,0-6.64,6.39c-.37.35.19.9.55.55l6.79-6.52a.34.34,0,0,0,.09-.39l2.3.06-5.24,5.31c-.35.36.2.92.56.56L60,61.8c.9,0,1.79,0,2.68,0L55.7,69.15c-.34.37.21.92.56.56l7.48-8c.77,0,1.54-.11,2.29-.2q-4.05,4.51-8.12,9c-.33.38.22.93.56.56l8.4-9.34a.4.4,0,0,0,.08-.37l.69-.1A.63.63,0,0,0,68,61.1c.14,0,.28.06.42.09L59.93,71c-.33.38.22.93.55.55L69,61.7a92.26,92.26,0,0,0,.36,14.59c0,.55.78,1,1.22.51l2.88-3.45c.72,1.91,1.44,3.83,2.12,5.75a.7.7,0,0,0,1.34,0q.66-2.7,1.31-5.42c.48,1.32,1,2.64,1.5,3.94a.68.68,0,0,0,1.3,0l.24-.63c.13.22.27.43.4.64.27.43,1.08.42,1.18-.16A55.47,55.47,0,0,0,83.72,67a.37.37,0,0,0,.3-.11l6.19-5.81h.1l2.56,0L84,69.48c-.37.35.19.9.56.56L94,61.13l2.41,0-9.27,9.41c-.36.36.2.92.55.56l9.81-10h3.06L94.27,67c-.37.34.19.9.56.56l5.54-5.14c-.36.33.19.87.56.54.69-.59,1.37-1.19,2-1.79q4.32,0,8.64,0c1.8,0,3.59,0,5.39-.08q-2.25,1.71-4.48,3.44c-.35.28,0,.89.36.61l5-3.85A.4.4,0,0,0,118,61l4.43-.08-4,2.93a.38.38,0,0,0,0,.61A52.08,52.08,0,0,0,99.26,76.8,49.54,49.54,0,0,0,87.42,98.13a.36.36,0,0,0-.6-.21l-7.38,6.78c-.33.31.17.81.5.5l7.38-6.79s0,0,0-.07a57,57,0,0,0-1.79,10.87.35.35,0,0,0-.47,0l-4.47,3.49c-.36.28.15.78.5.5l4.42-3.46c-.07,1.35-.15,2.69-.14,4l-12.55.07q-16.39.07-32.78.18l-16.38.1c-5.08,0-10.95-.62-15.91.55a.41.41,0,0,0,0,.78c4.8,1.08,10.42.4,15.32.4l16.39,0q16.68,0,33.36-.13l12.6-.05c0,1,.11,2,.2,3L61,119.49c-.5,0-.5.8,0,.78l24.69-.83c.18,1.71.42,3.42.74,5.13h-.38l-12.39.19c-21.9.38-43.92.16-65.8,1.33a.49.49,0,0,0-.25.06l0-1.29,4.46-.29c.5,0,.51-.82,0-.78l-4.47.29c0-.12,0-.23,0-.34l0-2.1,7.25-.62c.5,0,.51-.83,0-.78l-7.26.62,0-1.68,8.07-.25a.39.39,0,0,0,0-.78l-8.08.24q-.12-7.79-.23-15.58c-.1-6.78-.21-13.57-.37-20.35-.09-3.62-.17-7.23-.31-10.85-.09-2.5-.45-5.06-.73-7.53A2.63,2.63,0,0,1,6.46,61.8ZM13,127.45l-5.28,4.39c0-1.5,0-3-.09-4.51a.56.56,0,0,0,.23,0C9.61,127.42,11.33,127.43,13,127.45ZM6.45,142.08l.06-3.32A8.4,8.4,0,0,1,6.45,142.08ZM5.06,156.69c-.14-3.77,0-7.79-.7-11.49,8.86.22,17.73-.12,26.54,1.15-2.49.35-5,.68-7.46,1-.47,0-.79.72-.27,1,2.28,1.11,4.58,2.18,6.87,3.27-1,0-2.07,0-3.11-.08a.55.55,0,0,0-.27,1c2.21,1.37,4.41,2.87,6.74,4h0c-4.54-.58-9.33-.2-13.89-.18C14.74,156.36,9.82,156.21,5.06,156.69Zm26.81-4.07-1.28.94-1.64-1ZM8.45,158.38h2.09L8.79,160A5.31,5.31,0,0,0,8.45,158.38Zm.88,5q2.37-2,4.76-3.94c.39-.32-.17-.88-.56-.56l-4.48,3.71A7.73,7.73,0,0,1,8.84,161l2.47-2.29a.34.34,0,0,0,.1-.36c2.1,0,4.2-.12,6.28-.2l-8,6A7.18,7.18,0,0,1,9.33,163.34Zm86.58,1.08,7.3-6.76c.37-.35-.19-.9-.55-.56l-7.59,7a.34.34,0,0,0-.12.3l-3.35,0c-3.35.07-6.71.19-10.06.23h-.18l8.75-7.18c-.1.1-.2.22-.29.33a.35.35,0,0,0,.14.56l-5.84,5.21c-.38.34.18.89.55.56L92,157.66c.38-.34-.18-.89-.55-.56,1.67-1.87,3.33-3.76,5-5.64.3-.33-.2-.84-.5-.5l-5.7,6.43c.27-.32-.22-.79-.58-.49l-8.89,7.3a.33.33,0,0,0-.11.16.4.4,0,0,0-.15,0,.37.37,0,0,0-.38.41l-1.94,0L88,156.53c.39-.33-.17-.88-.55-.56l-10.5,8.83-3.91.11a.36.36,0,0,0-.37-.32.36.36,0,0,0-.37.34c-3.83.12-7.67.27-11.46.42l13.3-10.26c.4-.3,0-1-.39-.68L60,165a.39.39,0,0,0-.16.39l-4,.16-.54,0,16.6-12.1c.4-.29,0-1-.4-.67L54.45,165.26a.42.42,0,0,0-.17.36l-3.18.13,16.35-12.61c.39-.3,0-1-.39-.68L49.75,165.81c-2.79.12-5.57.24-8.36.38l19.29-16.33c.38-.32-.17-.87-.56-.55L40.34,166.05a.32.32,0,0,0-.11.19l-3.87.2,20.38-17.13c.38-.32-.17-.88-.56-.55L35.07,166.51l-3.32.16-1.26.07,23.85-19.83c.39-.32-.16-.87-.55-.55L29.18,166.82l-4.88.28a171.84,171.84,0,0,0,25.63-21.46c.35-.36-.2-.91-.55-.55a171.7,171.7,0,0,1-26,21.69.37.37,0,0,0-.17.38c-3.54.22-7.09.45-10.63.69l-.06-.1c-.84-1-1.71-1.92-2.42-3L19,158.17l.05,0,.48,0c3.93-.12,8.06,0,12-.4L18,166.58c-.42.28,0,.95.39.68l13.77-9a.41.41,0,0,0,.05-.63c.49-.06,1-.12,1.45-.2a6.8,6.8,0,0,1,.25-1.71l-.59-.41L47.66,143.9c.39-.31-.17-.86-.56-.55L32.62,154.84c-.43-.29-.87-.56-1.31-.84l7.6-5.65c.4-.3,0-1-.39-.68l-5.67,4.21a.43.43,0,0,0-.2-.2l-2.51-1.2a.38.38,0,0,0,.3-.54.48.48,0,0,0,.19-.09L32.72,148c.38-.33-.17-.89-.55-.55l-2.09,1.83a.32.32,0,0,0-.08.42.4.4,0,0,0-.23.58l-4.62-2.24c2.76-.48,5.53-.92,8.31-1.34.36-.05.32-.62,0-.7l-.77-.19q2.75-2.19,5.47-4.4c.39-.31-.16-.86-.55-.55l-5.5,4.42a.3.3,0,0,0-.11.36q-2.67-.65-5.38-1.16l4.2-3.21c.39-.3,0-1-.4-.68L26,144a.41.41,0,0,0-.16.34c-1.36-.25-2.73-.45-4.11-.63l9.91-6.84c.41-.28,0-1-.4-.68l-10.68,7.39c-1.55-.17-3.11-.28-4.66-.33l11.57-7.66c.42-.28,0-1-.39-.68l-12.57,8.32c-1.27,0-2.54,0-3.8.13L24,133.66c.4-.3,0-1-.39-.68L9.18,143.5l-1.42.17c.07-.52.12-1,.16-1.59l13.71-9.47c.41-.28,0-1-.39-.68L8,141.1c0-.66,0-1.33,0-2l12-8.42c.41-.28,0-1-.39-.67L7.93,138.17c0-.93-.07-1.86-.1-2.79l9.11-6.15c.42-.28,0-1-.39-.68l-8.74,5.91c0-.55,0-1.08,0-1.62l5.9-4.9a.32.32,0,0,0,0-.48c20,.21,40-.57,60-.88l10.15-.17-6.49,5.71c-.35.3.16.81.5.51l7.08-6.24,1.86,0c.06.29.16.58.22.87a.32.32,0,0,0-.33.07l-7.76,7.58c-.33.32.18.82.5.5l7.74-7.56c.19.75.37,1.49.57,2.23a.36.36,0,0,0-.26.1l-7.56,7.19c-.33.32.17.82.5.5l7.49-7.12c.28.95.62,1.89,1,2.83l-7.58,7.22c-.33.31.17.82.5.5l7.32-7a64.3,64.3,0,0,0,4.29,9.54,53.93,53.93,0,0,0,10.16,13.61c.45.42,1,.8,1.42,1.19l-6.67,5.75Zm6.4-.59a.58.58,0,0,0-.14,0,.39.39,0,0,0-.35.54l-2.3,0,6-5.21c.31.25.61.51.93.76-1.37,1.24-2.72,2.49-4.08,3.74A.36.36,0,0,0,102.31,163.83Zm.22.5a.13.13,0,0,0,0-.06.36.36,0,0,0,.43-.06l4.18-3.83q1.78,1.31,3.75,2.46l-1.62,1.43C107,164.28,104.78,164.31,102.53,164.33Zm10-.18-.07.09-2,0,1.14-1c.4.23.79.47,1.21.69Zm73.92-19.71c-2.39,4-5.76,9-10.69,13A53,53,0,0,1,161,165.57a63.66,63.66,0,0,1-21.39,3.51,59.82,59.82,0,0,1-15.08-1.81,49.92,49.92,0,0,1-12-4.86l.12-.1-.08-.08-.67-.3-.08.06a45.52,45.52,0,0,1-5.79-4c0-.05-.1-.09-.14-.14h0a40.74,40.74,0,0,1-6.86-7.17A65.23,65.23,0,0,1,90,133.47l.27-.25c.33-.32-.17-.82-.5-.5l0,0a63.42,63.42,0,0,1-1.79-6.4h.47c-.26-.59-.5-1.19-.72-1.79h-.1c-2.69-14-.47-28.38,6.94-40.08,5.64-8.9,14.62-15.74,26-19.79a71,71,0,0,1,23.63-4.59A47.57,47.57,0,0,1,176.66,73c1.37,1.55,2.76,3.08,4.14,4.6a72.88,72.88,0,0,1,14.25,31.66C196.94,120.05,194.06,131.9,186.49,144.44Z" transform="translate(-3.48 -23.36)"/><path class="cls-1" d="M155.56,83.6a.63.63,0,0,0-.42.17,48.6,48.6,0,0,0-7.8,8.66c-.12.08-.19.21-.16.26a43.67,43.67,0,0,0-4.22,7.66l-.26.19a.44.44,0,0,0-.17.32.59.59,0,0,0,.07.26,39.84,39.84,0,0,0-2.55,9.17,4.71,4.71,0,0,0-2.1,1.42,5.66,5.66,0,0,0-.81,1.3.39.39,0,0,0-.21.26c0,.1,0,.21,0,.21h0a5.55,5.55,0,0,0,.66,4.6.34.34,0,0,0,0,.2,23.68,23.68,0,0,0-1.64,2.85l-.3.15a.37.37,0,0,0-.22.32.46.46,0,0,0,.11.29,35.38,35.38,0,0,0-2.66,8.05l0,.16a46.54,46.54,0,0,0-.76,5.11.48.48,0,0,0,.13.37.6.6,0,0,0,.43.2.55.55,0,0,0,.28-.09,27.7,27.7,0,0,0,6.64-6.8,29.08,29.08,0,0,0,2.4-4.18c.37-.78.69-1.55,1-2.29a4.82,4.82,0,0,0,.21-1.62,6.11,6.11,0,0,1,0-.74,4.87,4.87,0,0,0,2.89-2,5,5,0,0,0,.82-3.31c3.91-3.77,6.32-9.63,7.65-13.88a40.58,40.58,0,0,0,1.58-16.69A.64.64,0,0,0,155.56,83.6Zm-1.84,3.46-.29.61a.38.38,0,0,0-.27-.14l-.11,0Zm-4.65,5.23,2.82-1.81a.39.39,0,0,0,.17-.45.41.41,0,0,0-.37-.31l-.18,0-.51.33,2-1.51-1.88,3.91a.25.25,0,0,0,0-.12.39.39,0,0,0-.37-.3l-.18.05L148,93.85C148.36,93.31,148.72,92.79,149.07,92.29Zm-5.76,10.58,4.52-3.68a.36.36,0,0,0,.12-.4.46.46,0,0,0-.41-.29.4.4,0,0,0-.26.1L144,101.27c.15-.35.3-.68.43-1l3.85-2.86a.4.4,0,0,0,.15-.47.39.39,0,0,0-.36-.28l-.19,0-2.66,2,.48-1,4.05-3a.41.41,0,0,0,.15-.47.39.39,0,0,0-.36-.29l-.18,0-2.7,2,.25-.42L151,92.81l-4.45,9.24a.19.19,0,0,0,0-.07.44.44,0,0,0-.41-.29.39.39,0,0,0-.26.09l-3,2.31C143,103.66,143.17,103.25,143.31,102.87Zm-1,2.66,4-3.14-1.14,2.37a.37.37,0,0,0-.28-.14l-.19,0-2.82,2.16Zm-.85,2.66,3.3-2.53-.36.75-.18,0-2.87,2.19Zm2.58-.58s0,0,0,0a.33.33,0,0,0,.14.1l-1.2.86-1.79,1.3-.24,0Zm-3.3,3.53.21,0-2.27,1.14A3.23,3.23,0,0,1,140.75,111.14Zm1.15.4a.37.37,0,0,0,.2-.42,0,0,0,0,1,0,0,4.26,4.26,0,0,1,.89.18,5,5,0,0,0-1.92,1.37.45.45,0,0,0-.37-.22l-.14,0-2.49,1.1a.15.15,0,0,0,0-.1Zm-1.34,1.79a3.84,3.84,0,0,0-.21.4L138,115.05c0-.19,0-.38,0-.56Zm-1,3.11-1,.78-.06-.11Zm-1.34-.1c0-.14-.08-.28-.11-.44l1.8-1a.94.94,0,0,0,0,.33Zm1.68.86.09.35a.34.34,0,0,0-.21-.08l-.17,0-.33.2Zm.08,1a.37.37,0,0,0,.18-.21,5.42,5.42,0,0,0,.32.69,4,4,0,0,1-.73-.34Zm-1.81.48a5.07,5.07,0,0,0,.55.49l-1,.52C137.83,119.38,138,119,138.15,118.71Zm-.83,1.73s0,0,0,0h0Zm-.61,1.24,2.45-1.22a.39.39,0,0,0,.2-.43.49.49,0,0,0-.14-.23.37.37,0,0,0,.1-.24,4.13,4.13,0,0,0,.58.33c-.22.35-.44.7-.65,1.06a.41.41,0,0,0-.19,0l-.17,0-2.49,1.56C136.52,122.2,136.63,121.92,136.71,121.68Zm-.87,2.12,2.73-1.7c-.17.29-.34.57-.5.87a.32.32,0,0,0-.14,0l-.16,0-2,1.13Zm-.56,1.48,2.2-1.22c-.13.23-.25.46-.37.69l-.17,0-1.82,1.07A4.31,4.31,0,0,0,135.28,125.28Zm-.58,1.77,1.81-1.07-.17.38-1.7,1A1.47,1.47,0,0,0,134.7,127.05Zm-.42,1.48,1.41-.84c-.1.24-.21.47-.31.71l-.09,0-.17.05-.93.61A2.9,2.9,0,0,0,134.28,128.53Zm-.4,1.69,1-.67-.24.59-.07,0-.77.61A3,3,0,0,0,133.88,130.22Zm-.52,3.73a19.73,19.73,0,0,1,.27-2l.46-.37c-.13.35-.26.7-.38,1.06a.34.34,0,0,0,0,.34.42.42,0,0,0,.34.17.48.48,0,0,0,.23-.07Zm1.06-1a.24.24,0,0,0,.06-.11c.69-2,1.52-4,2.41-5.89l.13-.09a.38.38,0,0,0,.19-.24c0-.09,0-.19,0-.19l0,0a62.31,62.31,0,0,1,3.55-6.34,5.37,5.37,0,0,0,1.19.14l.44,0A28.69,28.69,0,0,1,134.42,133Zm10.66-15.8a3.88,3.88,0,0,1-3.3,1.75,4.89,4.89,0,0,1-.66-.05.31.31,0,0,0,.09-.11.37.37,0,0,0,0-.39,4.38,4.38,0,0,1-.59-2.65.37.37,0,0,0,.19-.35.45.45,0,0,0-.12-.28,2.67,2.67,0,0,1,.29-.79.36.36,0,0,0,.19-.23c0-.08,0-.17,0-.17l0,0a4.55,4.55,0,0,1,2.87-2.15,2.59,2.59,0,0,1,.67.73C145.67,114.13,146.12,115.55,145.08,117.18Zm8.45-16.92A35.34,35.34,0,0,1,147.58,112c-.27.39-.55.77-.83,1.16a6.64,6.64,0,0,0-1.1-1.58,4.87,4.87,0,0,0-1.78-1.13l-.23-.06.72-.29a.43.43,0,0,0,.26-.48.37.37,0,0,0-.36-.32l-.15,0-1.45.58,2.62-1.86a.43.43,0,0,0,.16-.47.41.41,0,0,0-.37-.29l-.18.05,0,0,9.75-20.2a.38.38,0,0,0,0-.4.44.44,0,0,0-.17-.16l.6-.45a.29.29,0,0,0,.11-.11A38.83,38.83,0,0,1,153.53,100.26Z" transform="translate(-3.48 -23.36)"/><path class="cls-1" d="M139,73.41a6.84,6.84,0,0,1,.05,1.37,7.57,7.57,0,0,0,0,1c0,.72.1,1.44.17,2.16l0,.23a31.89,31.89,0,0,1,.18,4.69.61.61,0,0,0,.17.47.78.78,0,0,0,.57.24h.15c.18,0,.4-.06.64-.09a4.29,4.29,0,0,0,2.11-.58c.48-.41.34-1.08.21-1.67a3.64,3.64,0,0,1-.1-.59l0-1c0-.63-.07-1.26-.11-1.88-.09-1.19-.19-2.37-.29-3.56l-.18-2.07a.53.53,0,0,0-.52-.5h0l-.6,0H141a5.26,5.26,0,0,0-1.16.09c-.66.16-.94.39-1,.81a2.54,2.54,0,0,0,.08.68Zm1.56-.85c.53,0,.86.09,1,.29a6.76,6.76,0,0,1,.15,2.33c0,.32,0,.58,0,.73l.07,1.58c.07,1.38.13,2.8.3,4.28-.46,0-.92.13-1.38.22a35.76,35.76,0,0,1-.35-4.13,30.11,30.11,0,0,0-.56-5.26C140.08,72.58,140.35,72.56,140.6,72.56Z" transform="translate(-3.48 -23.36)"/><path class="cls-1" d="M111.77,96.38a5.63,5.63,0,0,1,2-3.33.48.48,0,0,0,.18-.39.67.67,0,0,0-.27-.51L109,88.55c-.24-.18-.49-.39-.74-.6a7.22,7.22,0,0,0-2.76-1.68,2.69,2.69,0,0,0-.61-.08c-1.34,0-2.33,1.14-2.86,3.28a.53.53,0,0,0,.09.46.42.42,0,0,0,.34.18l.13,0c2,1.78,4.17,3.45,6.27,5.07l1.94,1.5a.71.71,0,0,0,.44.15A.53.53,0,0,0,111.77,96.38Zm-2.15-2.15c-2.08-1.64-4.23-3.34-6.45-4.85,0-.18.11-.35.17-.52l.12-.25c.09-.19.16-.36.25-.52.28-.54.58-.87,1.19-.87a2.43,2.43,0,0,1,.61.09,2.69,2.69,0,0,1,1.25.82l.29.28a59.74,59.74,0,0,0,5.45,4.25,6.18,6.18,0,0,0-1.65,2.54Z" transform="translate(-3.48 -23.36)"/><path class="cls-1" d="M107.63,116.35l-.24,0a38.86,38.86,0,0,0-6.22-.67,10.06,10.06,0,0,0-5.4,1.25l-.1.06,0,.11a4.41,4.41,0,0,1-.07,1.68c-.21,1.28-.45,2.73,1.56,3.09a5.46,5.46,0,0,0,.82.06,15.23,15.23,0,0,0,2.47-.29c.46-.09.9-.16,1.31-.21l5.7-.63a.61.61,0,0,0,.58-.6s0-2.31,0-3.2A.63.63,0,0,0,107.63,116.35Zm-.74,3.19v.09l-5.49.65a14.27,14.27,0,0,0-1.43.28,11.48,11.48,0,0,1-2.32.37,3.75,3.75,0,0,1-.5,0,8.49,8.49,0,0,1-.07-2.41l0-.39c.05-.48.05-.48.41-.6l.34-.11a8.36,8.36,0,0,1,2.73-.33c.53,0,1,0,1.51,0l1.08,0a14,14,0,0,1,2.84.25c.71.17.71.17.77.58l0,.32A5.91,5.91,0,0,1,106.89,119.54Z" transform="translate(-3.48 -23.36)"/><path class="cls-1" d="M118,144.76a2.17,2.17,0,0,0-1,.28,8.14,8.14,0,0,0-2,2c-.23.28-.45.55-.67.79l-.67.73c-.86.92-1.74,1.88-2.56,2.87a.35.35,0,0,0-.07.31.43.43,0,0,0,.12.17,2,2,0,0,0,2.13,1.82,2.64,2.64,0,0,0,1-.21,6.35,6.35,0,0,0,2.11-1.72l.3-.33,3.09-3.31.76-.82a.55.55,0,0,0,.08-.67C119.75,145.38,118.9,144.76,118,144.76Zm-.53,4.34-.6.57-.46.54c-.88,1-2.22,2.57-3.38,2.57h0c-.5,0-.8-.16-.88-.4-.21-.56.59-1.73,2.38-3.47l.19-.19.28-.29c.69-.75,2.31-2.51,3.38-2.51a.84.84,0,0,1,.78.61C119.51,147.27,118.3,148.37,117.5,149.1Z" transform="translate(-3.48 -23.36)"/><path class="cls-1" d="M144.11,149a.5.5,0,0,0-.38-.5c-1-.22-2-.42-3.06-.62l-.71-.13a.64.64,0,0,0-.62.61.59.59,0,0,0,.08.35l-.07,0-.08,0,0,.22a29.77,29.77,0,0,0-.2,4c0,.41,0,.82,0,1.23s0,.94-.06,1.42a15.07,15.07,0,0,0,.08,3.62c.29,1.55,1.37,2.34,3.21,2.34a9.51,9.51,0,0,0,1.73-.18.59.59,0,0,0,.44-.58A59.58,59.58,0,0,1,144.11,149Zm-1,11.4s-.1.08-.64.08a5.07,5.07,0,0,1-1.06-.1c-1.46-.48-1.4-2-1.34-3.37,0-.22,0-.44,0-.64,0-.67,0-1.35,0-2A36.44,36.44,0,0,0,140,149a.09.09,0,0,0,0,0,5.56,5.56,0,0,0,.64,0,6.16,6.16,0,0,1,2.15.36c.42.28.26,1.53.16,2.36,0,.29-.07.55-.08.73a52.93,52.93,0,0,0,.21,6.63c0,.09,0,.2,0,.31C143.18,159.73,143.27,160.21,143.1,160.4Z" transform="translate(-3.48 -23.36)"/><path class="cls-1" d="M172.57,113.94c.09.66.18,1.33.24,2a.55.55,0,0,0,.53.52c1.16.08,2.42.11,3.83.11,1,0,2,0,3,0l-2.88,2a.41.41,0,0,0-.15.47.39.39,0,0,0,.36.29l.18-.05,1.94-1.35,1.92-1.39,2.41,0-6.46,5.38a.36.36,0,0,0-.11.41.46.46,0,0,0,.4.29.45.45,0,0,0,.27-.1l7.14-6c.29,0,.54-.22.54-.41l1.52-1.27a.37.37,0,0,0,.12-.41.45.45,0,0,0-.41-.28.39.39,0,0,0-.26.09l-1.08.9-.38-1.48c-.17-.64-.34-1.28-.5-1.92l.05,0,.16,0,2.19-1.18a.37.37,0,0,0,.19-.43.44.44,0,0,0-.4-.32l-.16,0-2.18,1.18,0,0a.61.61,0,0,0-.63-.37h-.06c-.57.15-1.14.23-1.71.34l5.2-4a.36.36,0,0,0,.12-.4.46.46,0,0,0-.41-.29.43.43,0,0,0-.26.09l-5.22,4.06a.34.34,0,0,0-.13.39.41.41,0,0,0,.31.26,28.27,28.27,0,0,1-5.3.55c-1,0-2.13-.06-3.29-.17a.54.54,0,0,0-.42.19h0a.35.35,0,0,0-.27.11l-.09.18v.07C172.38,112.61,172.48,113.28,172.57,113.94Zm3.65-1.14a29.88,29.88,0,0,0,7.32-.94c.18.71.82,3.34.82,3.34H182.9c-1.83,0-3.67,0-5.5.06-.23,0-.54,0-.89.06a13.37,13.37,0,0,1-1.43.1,2.08,2.08,0,0,1-1.16-.23c-.41-.3-.61-1.6-.74-2.46l0-.11A26,26,0,0,0,176.22,112.8Z" transform="translate(-3.48 -23.36)"/><path class="cls-1" d="M125.09,31.35a.45.45,0,0,0,.27-.1,20.25,20.25,0,0,1,13.07-4.78c.49,0,1,0,1.51.05a.36.36,0,0,0,.37-.37.4.4,0,0,0-.38-.43c-.51,0-1-.06-1.52-.06a21.08,21.08,0,0,0-13.6,5,.37.37,0,0,0-.12.41A.44.44,0,0,0,125.09,31.35Z" transform="translate(-3.48 -23.36)"/><path class="cls-1" d="M90.89,101.42a45.88,45.88,0,0,1,19.56-28,.41.41,0,0,0,.17-.46.43.43,0,0,0-.38-.3l-.17,0,0,0A46.73,46.73,0,0,0,90.1,101.21a.4.4,0,0,0,.08.34.42.42,0,0,0,.34.17A.37.37,0,0,0,90.89,101.42Z" transform="translate(-3.48 -23.36)"/><path class="cls-1" d="M91.17,114.27a.41.41,0,0,0-.1-.29.44.44,0,0,0-.3-.11.4.4,0,0,0-.41.38,49.76,49.76,0,0,0,17.55,40,.42.42,0,0,0,.26.1.44.44,0,0,0,.41-.29.35.35,0,0,0-.12-.4A49,49,0,0,1,91.17,114.27Z" transform="translate(-3.48 -23.36)"/><path class="cls-1" d="M164.44,159.11h-.09a67.94,67.94,0,0,1-38.86,3.63.42.42,0,0,0-.41.39.37.37,0,0,0,.3.41,68.63,68.63,0,0,0,39.21-3.66.43.43,0,0,0,.26-.48C164.82,159.23,164.7,159.11,164.44,159.11Z" transform="translate(-3.48 -23.36)"/><path class="cls-1" d="M173.32,81.44a.43.43,0,0,0-.27.11l-4.77,4.33a.37.37,0,0,0-.1.42.43.43,0,0,0,.4.27.41.41,0,0,0,.27-.1l4.77-4.33a.38.38,0,0,0,.1-.42A.45.45,0,0,0,173.32,81.44Z" transform="translate(-3.48 -23.36)"/><path class="cls-1" d="M177.58,124.63a.45.45,0,0,0,.41.29.39.39,0,0,0,.26-.09l10.24-8.3a.37.37,0,0,0,.12-.4.44.44,0,0,0-.41-.29.35.35,0,0,0-.26.1l-10.23,8.29A.36.36,0,0,0,177.58,124.63Z" transform="translate(-3.48 -23.36)"/><path class="cls-1" d="M187.8,119.57l-.18,0-9.71,6.7a.41.41,0,0,0-.16.46.39.39,0,0,0,.37.3l.18,0,9.71-6.69a.41.41,0,0,0,.15-.47A.39.39,0,0,0,187.8,119.57Z" transform="translate(-3.48 -23.36)"/><path class="cls-1" d="M187.3,123.2l-.18,0-10.66,7.37a33.33,33.33,0,0,0,.51-11.18.43.43,0,0,0-.44-.37.43.43,0,0,0-.29.12.41.41,0,0,0-.08.29,32.7,32.7,0,0,1-2.48,17.15.41.41,0,0,0,0,.4.45.45,0,0,0,.36.2.43.43,0,0,0,.16-.05.35.35,0,0,0-.18.38.43.43,0,0,0,.42.34l.14,0,8.82-4.11a.36.36,0,0,0,.21-.41.44.44,0,0,0-.42-.34l-.14,0-8.79,4.09a.53.53,0,0,0,.11-.14c.4-.91.75-1.84,1.06-2.79a.39.39,0,0,0,.27.13l.17,0,9.58-5.23a.38.38,0,0,0,.19-.43.42.42,0,0,0-.4-.33l-.16,0-9.44,5.15c.19-.59.38-1.18.53-1.77l.1,0L187.5,124a.4.4,0,0,0,.16-.47A.39.39,0,0,0,187.3,123.2Z" transform="translate(-3.48 -23.36)"/><path class="cls-1" d="M180.86,137.47h0l-7.26,1.87a.38.38,0,0,0-.29.43.39.39,0,0,0,.39.37h.11l7.26-1.88a.37.37,0,0,0,.29-.43A.41.41,0,0,0,180.86,137.47Z" transform="translate(-3.48 -23.36)"/><path class="cls-1" d="M179.6,139.07h-.08l-4.3,1.67a.42.42,0,0,0-.26.47.38.38,0,0,0,.36.32l.15,0,4.29-1.68a.42.42,0,0,0,.26-.48A.38.38,0,0,0,179.6,139.07Z" transform="translate(-3.48 -23.36)"/><path class="cls-1" d="M115.23,46.45l2-1.24c.39-.24,0-.85-.35-.61l-2,1.24C114.49,46.07,114.84,46.69,115.23,46.45Z" transform="translate(-3.48 -23.36)"/><path class="cls-1" d="M115,49.47c1.09-.68,2.17-1.37,3.25-2.06.38-.25,0-.86-.36-.61l-3.25,2.06C114.24,49.11,114.6,49.72,115,49.47Z" transform="translate(-3.48 -23.36)"/><path class="cls-1" d="M115.51,50.63c-.4.22,0,.84.36.61l2.65-1.47a.35.35,0,0,0-.35-.61Z" transform="translate(-3.48 -23.36)"/><path class="cls-1" d="M118.53,56.58l3.25-1.77a.35.35,0,0,0-.35-.61L118.18,56C117.78,56.18,118.13,56.79,118.53,56.58Z" transform="translate(-3.48 -23.36)"/><path class="cls-1" d="M115.63,65.34l4.24-3.72c.34-.3-.16-.8-.5-.5l-4.24,3.72C114.79,65.14,115.29,65.64,115.63,65.34Z" transform="translate(-3.48 -23.36)"/><path class="cls-1" d="M83.13,89.78l9.61-7.46c.36-.28-.15-.78-.5-.5q-4.81,3.72-9.61,7.46C82.27,89.56,82.77,90.05,83.13,89.78Z" transform="translate(-3.48 -23.36)"/><path class="cls-1" d="M90.65,87l-8,6.42c-.36.29.15.79.5.5l8-6.42C91.51,87.2,91,86.71,90.65,87Z" transform="translate(-3.48 -23.36)"/><path class="cls-1" d="M80.79,98.66c2.86-2.34,5.73-4.69,8.6-7,.36-.29-.15-.79-.5-.51l-8.61,7C79.93,98.45,80.43,98.94,80.79,98.66Z" transform="translate(-3.48 -23.36)"/><path class="cls-1" d="M87.46,94.43l-6.61,5.77c-.34.3.16.8.51.5L88,94.93C88.31,94.63,87.8,94.13,87.46,94.43Z" transform="translate(-3.48 -23.36)"/><path class="cls-1" d="M79.92,108.42l5.65-4.68c.35-.29-.16-.78-.51-.49l-5.64,4.67C79.07,108.21,79.57,108.71,79.92,108.42Z" transform="translate(-3.48 -23.36)"/><path class="cls-1" d="M84.1,107.29l-6.18,5.62c-.34.31.16.8.5.5l6.18-5.62C84.94,107.48,84.44,107,84.1,107.29Z" transform="translate(-3.48 -23.36)"/><path class="cls-1" d="M86.49,79.86,105,62.33c.33-.31-.17-.82-.5-.5L86,79.36C85.65,79.67,86.15,80.17,86.49,79.86Z" transform="translate(-3.48 -23.36)"/><path class="cls-1" d="M90.05,80.5l16.5-14.88a.39.39,0,0,0,.63.17l4.47-3.88c.38-.33-.17-.88-.55-.55l-3.91,3.39a.35.35,0,0,0-.56-.15L89.55,80C89.21,80.3,89.72,80.8,90.05,80.5Z" transform="translate(-3.48 -23.36)"/><path class="cls-1" d="M107,69.26,94.26,79c-.36.27,0,.89.36.61l12.72-9.7C107.7,69.6,107.34,69,107,69.26Z" transform="translate(-3.48 -23.36)"/><path class="cls-1" d="M81.4,145.32,90.05,138c.35-.29-.15-.79-.5-.49l-8.65,7.27C80.55,145.11,81.06,145.61,81.4,145.32Z" transform="translate(-3.48 -23.36)"/><path class="cls-1" d="M83.24,148.64l8-7.93c.33-.32-.17-.82-.5-.5l-8,7.92C82.42,148.46,82.92,149,83.24,148.64Z" transform="translate(-3.48 -23.36)"/><path class="cls-1" d="M81.75,152.47l10.82-9.53c.34-.3-.16-.8-.5-.5L81.25,152C80.91,152.27,81.41,152.77,81.75,152.47Z" transform="translate(-3.48 -23.36)"/><path class="cls-1" d="M83.26,154.26c-.33.31.17.81.5.5L93,146c.33-.31-.17-.81-.51-.5Z" transform="translate(-3.48 -23.36)"/><path class="cls-1" d="M93.37,148.73l-7.8,7.54c-.33.32.17.82.5.51l7.8-7.55C94.2,148.91,93.7,148.41,93.37,148.73Z" transform="translate(-3.48 -23.36)"/><path class="cls-1" d="M95.07,158.85l.56-.77.78-.69a.31.31,0,0,0,0-.43l2.5-3.38c.27-.37-.35-.72-.61-.36l-3,4.08-6.52,5.81c-.38.33.18.88.55.55l5.28-4.7A.36.36,0,0,0,95.07,158.85Z" transform="translate(-3.48 -23.36)"/><path class="cls-1" d="M80,142.46,68.53,153.4c-.33.31.17.82.5.5L80.52,143C80.85,142.65,80.35,142.15,80,142.46Z" transform="translate(-3.48 -23.36)"/><path class="cls-1" d="M79.6,138.2q-6.22,6.33-12.44,12.65a.35.35,0,0,0,.5.5L80.1,138.7C80.42,138.38,79.92,137.87,79.6,138.2Z" transform="translate(-3.48 -23.36)"/><path class="cls-1" d="M79.07,135.64,61,151.77c-.34.3.16.8.5.5l18.06-16.13C79.91,135.83,79.41,135.33,79.07,135.64Z" transform="translate(-3.48 -23.36)"/><path class="cls-1" d="M74.66,131.79l-17,17.48a.35.35,0,0,0,.5.5l17-17.48C75.48,132,75,131.46,74.66,131.79Z" transform="translate(-3.48 -23.36)"/><path class="cls-1" d="M74.33,127.91l-17.8,16.72c-.34.31.17.81.5.5l17.8-16.71C75.17,128.1,74.66,127.6,74.33,127.91Z" transform="translate(-3.48 -23.36)"/><path class="cls-1" d="M79.73,129.24c.2-.5.4-1,.59-1.48s-.51-.6-.68-.19-.39,1-.59,1.48S79.56,129.66,79.73,129.24Z" transform="translate(-3.48 -23.36)"/></g></svg>