<?xml version="1.0" encoding="utf-8"?>
<!-- Generator: Adobe Illustrator 23.0.6, SVG Export Plug-In . SVG Version: 6.00 Build 0)  -->
<svg version="1.1" id="Layer_1" xmlns="http://www.w3.org/2000/svg" xmlns:xlink="http://www.w3.org/1999/xlink" x="0px" y="0px"
	 viewBox="0 0 82.4 136.3" style="enable-background:new 0 0 82.4 136.3;" xml:space="preserve">
<style type="text/css">
	.st0{fill:#FFFCFC;}
</style>
<title>8</title>
<g id="_16">
	<path class="st0" d="M81.6,103.1c-0.7-6.3-2-12.5-3.8-18.6c-0.7-2.7-1.6-5.4-2.6-8.1c-1-2.2-3.4-3.5-5.3-4.9
		c-1.5-1.1-2.9-2.3-4.5-3.2c0.8-2,1.5-4,1.9-6.2c0,0,0,0,0-0.1c1.4-4.9,2.2-10,2.4-15.1c0.4-6.3,0-12.5-1.2-18.7
		C66.7,18.1,62.3,6.5,51.1,1.8C48,0.5,44.6-0.1,41.3,0c-2.6,0.1-6.6,0.6-8.2,2.6c0,0.1,0,0.2,0,0.2c-4.2-0.7-7.7,1.3-10.5,4
		c-3.5,3.4-6.4,7.4-8.6,11.7C11,24.1,9.5,30.1,9.5,36.3c-0.1,0-0.2,0.1-0.2,0.1c0,0,0,0,0,0c-0.1,8.6,1.9,17.2,5.8,24.9
		c1.1,2.2,2.4,5,4.2,6.9c-1.4,0.6-2.7,1.3-4,1.9c-2.2,1-5.7,1.8-7.4,3.5c-2.1,2-3,6-3.8,8.6C2.3,88.3,1.2,94.6,0.7,101
		c-0.6,5.6-0.8,11.3-0.6,17c0.1,2.9,0.4,5.8,0.8,8.6c0.4,2.6,0.1,3.6,2.9,4.4c3.4,0.9,6.8,2,10.3,2.8c7.1,1.5,14.4,2.3,21.6,2.5h0.9
		c6,0.2,12-0.1,18-0.8c2.3-0.3,4.6-0.4,6.8-0.8c1.2-0.2,2.3-0.5,3.5-0.9c1-0.3,2-0.5,2.9-0.9c2-0.8,4.1,0,6.2-0.1
		c1.6-0.1,3.1-0.4,4.7-0.6c1.1,0,2.1-0.8,2.5-1.9c0.3-0.7,0.4-1.5,0.5-2.3c0.4-3.4,0.6-6.9,0.6-10.4
		C82.4,112.7,82.2,107.9,81.6,103.1z M35,135.3c-0.6,0-1.3-0.1-1.9-0.1l2.1-1.7c0.3-0.2-0.1-0.6-0.4-0.4l-2.5,2
		c-1.9-0.1-3.8-0.3-5.6-0.5l3.5-3.3c0.2-0.2-0.1-0.6-0.3-0.4l-3.6,3.4c-0.1,0.1-0.1,0.1-0.1,0.2c-0.7-0.1-1.4-0.2-2.1-0.3l3.8-3.4
		c0.2-0.2-0.1-0.6-0.4-0.4l-4,3.6c0,0,0,0,0,0.1c-1.2-0.2-2.4-0.3-3.6-0.5l6.2-5c0.3-0.2-0.1-0.6-0.4-0.4l-6.3,5.1
		c0,0-0.1,0.1-0.1,0.2l-0.9-0.1c0-0.4-0.1-0.8-0.2-1.2l5.4-5.4c0.1-0.1,0.1-0.3,0-0.4s-0.3-0.1-0.4,0l-5.1,5.1
		c-0.1-0.8-0.2-1.5-0.3-2.3l0.1-0.1c0.1-0.1,0.1-0.2,0-0.3l3.3-3.3c0.2-0.2-0.1-0.6-0.4-0.4l-3.2,3.2l-0.2-1.4l4-4.6
		c0.2-0.2-0.1-0.6-0.3-0.4l-3.8,4.3c-0.1-0.6-0.2-1.2-0.3-1.8l4.3-4.5c0.1-0.1,0.1-0.3,0-0.4s-0.3-0.1-0.4,0l-4,4.2
		c-0.2-1.1-0.4-2.3-0.7-3.4l3.2-3.2c0.1-0.1,0.1-0.3,0-0.4s-0.3-0.1-0.4,0l-2.9,2.9c-0.1-0.6-0.2-1.3-0.4-1.9l2.3-2.6
		c0.2-0.2-0.1-0.6-0.4-0.4c-0.7,0.8-1.4,1.6-2.1,2.4c-0.1-0.6-0.2-1.1-0.3-1.6l1.3-1.5c0.2-0.2-0.1-0.6-0.3-0.4l-1.1,1.3
		c-0.2-1.2-0.5-2.4-0.7-3.6c-0.7-3.9-1.8-7.7-1.2-11.7s1.1-7.7,1.7-11.6c0-0.2-0.4-0.3-0.4,0c-0.7,3.9-1.3,7.7-2,11.6
		c-0.4,1.5-0.4,3-0.3,4.6c0.3,2,0.7,4,1.1,5.9c0.9,4.9,1.7,9.8,2.5,14.8l-0.1,0.1c-0.1,0.1-0.1,0.3,0,0.4c0,0,0.1,0.1,0.1,0.1
		c0.2,1.3,0.5,2.6,0.8,3.9l-0.3,0.3c-0.1,0.1-0.1,0.2,0,0.3c0,0,0,0,0,0l-1.9,2.2c-0.2,0.2,0.1,0.6,0.4,0.4c0.7-0.8,1.3-1.5,2-2.3
		c0.2,1,0.4,2,0.7,3c-1.7-0.3-3.4-0.6-5.1-1c1.2-1.2,2.3-2.3,3.5-3.5c0.1-0.1,0.1-0.3,0-0.4s-0.3-0.1-0.4,0l-3.6,3.6
		c-0.1,0-0.1,0.1-0.1,0.2l-2.6-0.6c0.1,0,0.1,0,0.1-0.1l4.2-4c0.2-0.2-0.1-0.6-0.4-0.4l-4.2,4c-0.1,0.1-0.1,0.2,0,0.3c0,0,0,0,0,0
		c-1.3-0.3-2.6-0.6-3.9-0.9c-0.3-0.1-0.5-0.2-0.8-0.3l4.2-3.9c0.2-0.2-0.1-0.6-0.4-0.4l-4.3,4c-0.4-0.2-0.8-0.5-1.1-0.9l4.9-4.5
		c0.2-0.2-0.1-0.6-0.4-0.4L2.6,129c-0.3-0.6-0.5-1.2-0.6-1.8l4.5-4.8c0.2-0.2-0.1-0.6-0.4-0.4l-4.3,4.6c-0.1-0.6-0.2-1.3-0.2-2
		l4.3-4.6c0.2-0.2-0.1-0.6-0.3-0.4l-4.1,4.3c-0.1-0.7-0.1-1.4-0.1-2.1c1.2-1.2,2.3-2.4,3.5-3.5c0.1-0.1,0.1-0.3,0-0.4
		c-0.1-0.1-0.3-0.1-0.4,0l-3.2,3.2l-0.1-2.2l1.6-2.1c0.2-0.3-0.3-0.5-0.4-0.3l-1.2,1.6c0-0.6-0.1-1.1-0.1-1.7v-0.1l2.1-1.8
		c0.3-0.2-0.1-0.6-0.4-0.4c-0.6,0.5-1.2,1-1.8,1.5c0-0.8,0-1.6,0-2.5c0.2-0.2,0.3-0.4,0.5-0.6s-0.2-0.6-0.4-0.4l-0.1,0.2
		c0-3.6,0.1-7.2,0.4-10.7C2,96.6,2.9,91.5,4,86.4c0.6-2.5,1.3-5,2.1-7.5c0.6-2.1,1.8-3.9,3.5-5.3c1.7-1.3,4-1.8,6-2.6
		c2.1-0.7,4.1-1.6,6.1-2.6c-0.9,1-1.7,2-2.4,3.2c0-0.1-0.2-0.2-0.3-0.2c0,0-0.1,0-0.1,0.1L14.3,76c-0.3,0.2,0.2,0.6,0.4,0.4l4.4-4.3
		c-0.6,1-1,2-1.4,3.1c0,0.1,0,0.2,0.1,0.3l-3.7,3.7c-0.3,0.3,0.2,0.6,0.4,0.4l4.1-4.1l1,0.9c-0.1,0-0.1,0-0.2,0.1l-4,3.4
		c-0.3,0.2,0.1,0.6,0.4,0.4l4-3.4c0.1,0,0.1-0.1,0.1-0.2l0.9,0.7l-4.5,3.4c-0.3,0.2,0.1,0.6,0.4,0.4l4.5-3.4c1,0.8,2.1,1.7,3.2,2.5
		c1.8,1.4,3.7,3.2,5.9,4.3c-3.2,3.5-6.1,7.3-9.1,11c-0.1,0.2-0.1,0.5,0.1,0.6c2.7,2.9,5.2,6,7.6,9.2c-0.1-0.1-0.3-0.1-0.4,0
		l-4.2,4.3c-0.2,0.3,0.2,0.6,0.4,0.4l4.2-4.3c0.1-0.1,0.1-0.2,0-0.3c1.5,2.1,3,4.2,4.3,6.4c2.7,4.6,5.2,9.4,7.3,14.3
		c-0.1,0-0.1,0-0.2,0.1c-1.5,1.8-3.3,3.3-5.3,4.5c-0.1,0.1-0.2,0.2-0.1,0.4c0.1,0.1,0.2,0.2,0.4,0.1l0,0c2-1.2,3.8-2.8,5.3-4.6
		c0.3,0.6,0.6,1.2,0.8,1.9c0.6,2.2,1,4.5,1.2,6.8c0,0.3,0.6,0.3,0.6,0c-0.1-2-2.1-29.7-4.7-40.3c-1-4.2-2.4-8.2-4.2-12.1
		c0.1,0,0.1,0,0.1-0.1l0.6-0.7c0.1,0.1,0.2,0.1,0.3,0c2.3-2.1,4.5-4.2,6.7-6.4l1.4,1.3L41,79c-0.3,0.2,0.1,0.6,0.4,0.4l2.7-2.4
		c0.4,0.3,0.8,0.7,1.2,1l-1.5,0.8c-0.3,0.2,0,0.6,0.3,0.4l1.6-0.9l0.4,0.4c0.3,0.3,0.6,0.6,0.9,1c-0.1-0.1-0.3-0.1-0.4,0l-2.3,1.9
		c-0.3,0.2,0.1,0.6,0.4,0.4l2.3-1.9c0.1-0.1,0.1-0.2,0.1-0.3c0.7,1,1.5,1.9,2.5,2.7c0.2,0.2,0.7,0,0.5-0.3c-0.1-0.2-0.2-0.4-0.3-0.5
		c0.1,0,0.2,0,0.2-0.1l0.4-0.4c-0.2,0.3,0.3,0.5,0.5,0.2l0.9-1.2c-0.1,0.3-0.2,0.5-0.2,0.8l-0.1,0.2l-1,1c-0.2,0.3,0.2,0.6,0.4,0.4
		l0.2-0.2c-1.5,4.6-3,9.1-4,13.8c-0.1,0.3-0.1,0.5-0.2,0.8l-3.1,2.6h-0.1c-0.1,0-0.3,0.1-0.3,0.2c0,0.1,0.1,0.3,0.2,0.3
		c0,0,0.1,0,0.1,0h0.1c0.1,0,0.2,0,0.3-0.1l2.5-2.2c-0.4,1.6-0.7,3.3-1,4.9c-0.1-0.1-0.3-0.2-0.4-0.1c0,0,0,0-0.1,0l-1.7,1.5
		c-0.3,0.2,0.1,0.6,0.4,0.4c0.6-0.5,1.1-1,1.7-1.6c-0.2,1.3-0.5,2.6-0.7,4l-2,1.9c-0.3,0.2,0.2,0.6,0.4,0.4l1.5-1.4
		c-0.2,1.1-0.3,2.3-0.4,3.5l-1.6,1.2c-0.3,0.2,0.1,0.6,0.4,0.4l1.1-0.8c-0.4,4.1-0.6,8.1-0.5,12.2c-0.1,0-0.1,0.1-0.1,0.2
		c0,0.5,0,0.9,0,1.4c0,0.1,0,0.2,0,0.2v1.9c-0.1,0.3-0.2,0.5-0.3,0.8c-0.1,0.2,0.2,0.4,0.3,0.3v1.6l-0.1,0.1c-0.1,0.1-0.1,0.3,0,0.4
		c0,0,0,0,0,0l0.1,4.2l-0.1,0.2C40.8,135.3,37.9,135.4,35,135.3z M30.4,64.9c0,0.1,0,0.1,0,0.2c0,0-0.1,0-0.1,0L30.4,64.9z
		 M33.4,78.1c-2.6-3.4-3.7-7.7-2.9-11.9c0.2,1.9,0.6,3.7,1.2,5.4c0.1,0.3,0.6,0.2,0.5-0.1c-0.7-1.9-1.1-3.9-1.2-5.9
		c0,0.1,0,0.2,0.1,0.3c0,0.1,0,0.2,0.1,0.3c1.5,4,5.7,8.1,10,8.7h0.1c-1,0-3.1,3.4-3.9,4c-1.8,1.5-2.8,3.7-4.3,0.8
		c-2.2-4.3-4.8-9.3-3-13.9c-0.9,4.4,0.2,9,2.9,12.6C33.2,78.6,33.6,78.3,33.4,78.1L33.4,78.1z M32,58.6c-0.2-0.2-0.5-0.5-0.8-0.7
		c-0.1,0-0.2,0-0.3,0c-0.1-0.2-0.3-0.3-0.4-0.4l-0.2-0.3c0.1,0,0.1-0.1,0.1-0.1c0,0,0,0,0-0.1c-1.5-3.8-2.3-7.8-2.5-11.9
		c0-0.2-0.4-0.2-0.4,0c0,4,0.8,7.9,2.3,11.5c-0.6-0.6-1.1-1.3-1.6-1.9c0.2,0,0.3,0,0.3-0.2c-1.6-4.2-2.2-8.7-1.8-13.2
		c0.8,2.1,1.8,4.1,3.1,5.9l0,0c-0.3,3.3,0.1,6.7,1,9.9c0,0.1,0.2,0.2,0.3,0.1c0.1,0,0.1-0.1,0.1-0.2c-0.7-3-1.1-6.2-1-9.3
		c0.7,1,1.6,2,2.5,2.9c0.3,2.6,0.5,5.1,0.5,7.7c0,0.5-0.1,1.1-0.2,1.6c-0.2-0.3-0.3-0.5-0.5-0.8c-0.3-3-0.7-6-1-9
		c0-0.3-0.5-0.3-0.5,0C31.3,53,31.6,55.8,32,58.6z M24.3,29.8c0.1,2,0.3,4,0.8,6c-0.7,5.2-0.3,10.5,1,15.6c-0.5-0.9-1-1.8-1.4-2.7
		c-0.2-0.5-0.5-1-0.7-1.6c0,0,0.1-0.1,0.1-0.2C23.2,41.3,23.3,35.5,24.3,29.8z M23,43.7c-1.8-6.8-1.2-13.9,1.7-20.3
		c-0.3,1.8-0.4,3.6-0.4,5.4c-0.1,0-0.2,0-0.2,0.1C22.8,33.7,22.4,38.7,23,43.7z M30.6,19.2l4-4.6c0,0,0-0.1,0.1-0.1
		c0.3,0.3,0.7,0.5,1,0.7c-0.8,1-1.6,2-2.4,3c-0.2,0.3,0.3,0.5,0.5,0.3l2.4-2.9c0.6,0.3,1.2,0.7,1.7,1c-0.9,1-1.9,2-2.8,3
		c-0.2,0.3,0.2,0.6,0.4,0.4l2.8-3.1c0,0,0-0.1,0.1-0.1l0.8,0.4l0.2,0.1c-0.9,1-1.9,2-2.8,3c-0.2,0.3,0.2,0.6,0.4,0.4l2.9-3.1
		c0.5,0.2,1,0.5,1.5,0.7l-2.8,2.6c-0.3,0.2,0.2,0.6,0.4,0.4l2.9-2.7l1.4,0.8l-2.5,2.5c-0.2,0.3,0.2,0.6,0.4,0.4l2.6-2.6l0.6,0.3
		l-2.6,2.8c-0.1,0.1-0.1,0.3,0.1,0.4c0.1,0.1,0.3,0.1,0.3,0c0.9-0.9,1.8-1.9,2.7-2.8l0.4,0.3l-2,2.2c-0.2,0.3,0.2,0.6,0.4,0.4l2-2.3
		l1.3,0.8L44,23.8c-0.1,0.1-0.1,0.2,0,0.3c0,0,0,0,0,0c0.1,0.1,0.1,0.1,0.2,0.1c0.1,0,0.2-0.1,0.3-0.2l2.8-2.2
		c0.5,0.3,0.9,0.7,1.4,1l-3.5,2.2c-0.1,0.1-0.1,0.3,0,0.4c0.1,0.1,0.2,0.1,0.3,0.1l3.6-2.3c1.3,1,2.6,2.1,3.8,3.3L49.2,29
		c-0.3,0.2,0,0.6,0.3,0.4l3.8-2.6l0.4,0.4c0.1,0.1,0.2,0.3,0.3,0.4c-0.1-0.1-0.2-0.1-0.3,0l-3.4,2.6c-0.3,0.2,0.1,0.6,0.4,0.4
		l3.4-2.6c0.1,0,0.1-0.1,0.1-0.2c0.7,0.8,1.3,1.5,2,2.3l-3.6,2.6c-0.3,0.2,0.1,0.6,0.4,0.4l3.5-2.6c0.7,0.9,1.3,1.8,1.8,2.7
		c-0.2,0.5-0.4,1-0.5,1.5c-0.1-0.1-0.3-0.1-0.4,0l-3.5,2.5c-0.3,0.2,0.1,0.6,0.4,0.4l3.4-2.4c-0.1,0.7-0.3,1.4-0.6,2L57,37.5
		c-0.1-0.1-0.3-0.2-0.4-0.1c0,0,0,0,0,0l-2.5,2c-0.3,0.2,0.1,0.6,0.4,0.4l2.3-1.9c-0.5,0.9-1,1.8-1.6,2.7c-0.1,0-0.2,0.1-0.2,0.2
		c-0.2,0.5-0.7,0.8-1.2,0.9c-0.3,0-0.4,0.6,0,0.5H54c-1.7,1.8-3.7,3.3-6,4.3c-0.2-0.1-0.5,0-0.7,0.1l-0.2,0.2
		c-1.7-0.2-3.4,0.7-4.3,2.2c-0.3,0.4,0.1,0.9,0.6,0.9c1.1,0.1,2.2-0.2,3.1-0.7c0.6-0.3,1.1-0.8,1.5-1.3c2.7-1.1,5.1-2.9,7-5.1
		c0.3-0.4,0.7-0.8,1.1-1.3c-1.8,3.8-3.7,7.6-7.6,10.1c-3.4,2.1-7.6,2.5-11.2,0.9c-1.5-0.7-3-1.7-4.2-2.9c-3.7-3.7-5.8-8.8-7-13.7
		c-1.1-4.6-1.3-9.4-0.6-14.2c1.8-3.5,4.1-6.7,6.8-9.5c0.6,0.7,1.2,1.4,1.9,2l0,0l-4,4.6C30,19.1,30.4,19.5,30.6,19.2L30.6,19.2z
		 M58.4,37.9c0.1-0.3,0.3-0.6,0.4-0.8c2.1,4.8,3.3,9.9,3.4,15.1c0,4.8-1,9.5-2.7,13.9c-0.6-0.6-1.3-1.1-1.9-1.6l-0.8-0.6
		c1.2-6.1,0.8-12.3-1.2-18.2c0-0.1-0.1-0.1-0.2-0.1c0.4-0.8,0.8-1.5,1.2-2.3c2.7,6.4,3.1,13.6,1.1,20.2c-0.1,0.3,0.3,0.3,0.4,0.1
		c2.6-6.8,2.2-14.4-1.3-20.9c0.3-0.7,0.6-1.4,0.8-2.1c1.6,3.7,2.5,7.6,2.8,11.6c0.1,4.3-0.5,8.5-1.8,12.6c-0.1,0.3,0.3,0.4,0.4,0.1
		c3.4-7.8,2.7-17.5-1.1-25.1c0.2-0.6,0.4-1.2,0.6-1.8C58.4,38,58.4,38,58.4,37.9L58.4,37.9z M52,70.8c0.1,0,0.2-0.1,0.3-0.1
		c0.1,0,0.1,0,0.2-0.1l1.3-1c0,0.3,0,0.6,0,0.9l-2.1,1.9c-0.3,0.2,0.1,0.6,0.4,0.4l1.7-1.5c0,0.3-0.1,0.6-0.1,0.9l-2.4,2.2
		c-0.3,0.2,0.2,0.6,0.4,0.4l1.8-1.7l-0.1,0.7L53.1,74C53,74.1,53,74.2,53,74.3l-2.6,2.6c-0.3,0.2,0.2,0.6,0.4,0.4l2.4-2.3
		c-0.1,0.5-0.2,1-0.3,1.5c-0.1,0-0.1,0-0.2,0.1l-2.8,2.8c-0.2,0.3,0.2,0.6,0.4,0.4l2.3-2.3c-0.1,0.5-0.3,1-0.4,1.4
		c0,0-0.1,0-0.1,0.1l0,0c-0.1-0.1-0.2-0.1-0.4,0c0,0,0,0,0,0c-0.5,0.6-1.2,1.9-2.1,1.9c-0.8,0-2.1-1.8-2.7-2.4
		c-0.9-1-1.8-1.9-2.9-2.7c-0.6-0.3-1.2-0.5-1.6-1h0.1c4-1.4,9.7-4.8,11.2-9c0.1,1.1,0.2,2.1,0.2,3.2L52,70.2c0,0,0,0-0.1,0.1
		c-0.1,0-0.2,0.2-0.2,0.3C51.8,70.7,51.9,70.8,52,70.8z M53.5,62.4c-0.6-1.3-1.1-2.6-1.4-4c-0.5-2.6-0.6-5.3-0.3-8
		c0-0.1,0-0.1-0.1-0.1c0.3-0.3,0.5-0.5,0.8-0.8c0.7,3.7,0.9,7.5,0.6,11.3c0,0.2,0.4,0.3,0.4,0c0.6-3.9,0.4-7.9-0.7-11.7
		c0.8-1,1.6-2,2.3-3.1c1.5,5.7,1.8,11.7,1.1,17.6C55.3,63,54.4,62.7,53.5,62.4L53.5,62.4z M56,64.5l-0.1,0.8c0,0.3,0.4,0.4,0.4,0.1
		l0.2-0.6c0.2,0.1,0.4,0.2,0.5,0.4l0.1,0.1L55,66.6c-0.3,0.2,0,0.6,0.3,0.4l2.3-1.3c0.3,0.3,0.5,0.5,0.8,0.8c0,0-3.3,3.4-3.6,3.6
		c0-1.2-0.2-2.4-0.2-3.7c0-0.8,0.2-2.6-0.7-3.1C54.6,63.7,55.3,64.1,56,64.5z M54.4,73.4l5-4.7c0.3-0.2-0.2-0.6-0.4-0.4l-4.4,4.2
		c0.1-0.5,0.1-1.1,0.2-1.6l4.1-4.1l0.3,0.3L59,67.4c-0.1,0.2,0.3,0.4,0.4,0.2l0,0c0.2,0.2,0.4,0.4,0.6,0.5c0.1,0,0.1,0.1,0.2,0.1
		c-0.9,1.8-1.9,3.6-3,5.2l-3.3,2.4C54.1,74.9,54.3,74.2,54.4,73.4L54.4,73.4z M59.9,66.4c4.3-9.2,3.8-20.7-0.8-29.7
		c0-0.1-0.1-0.1-0.2-0.1c0.2-0.5,0.3-1.1,0.4-1.6c4.2,7.5,5.6,16.3,3.8,24.8c-0.6,2.6-1.4,5.2-2.6,7.6
		C60.3,67.1,60.1,66.8,59.9,66.4L59.9,66.4z M34.5,53.3l-0.7,0.1c-0.2-0.8-0.3-1.5-0.5-2.2c0.2,0.1,0.3,0.3,0.5,0.4
		c0.6,0.5,1.2,0.9,1.9,1.2l0,0l-1.5,1.7c-0.1,0-0.1,0.1-0.1,0.2c0-0.3-0.1-0.6-0.2-0.9l0.7-0.2C35,53.7,34.8,53.2,34.5,53.3z
		 M25.5,37.3c0.3,1.1,0.6,2.2,1,3.2c-0.8,4.7-0.3,9.5,1.6,13.9c-0.3-0.5-0.7-1-1-1.5C25.9,47.9,25.3,42.6,25.5,37.3L25.5,37.3z
		 M34.1,54.8c0,0.1,0.2,0.3,0.3,0.2c0.1,0,0.1,0,0.2-0.1l1.5-1.7c0,0,0.1-0.1,0.1-0.2l0.5,0.2l-2,2.2c-0.2,0.3,0.2,0.6,0.4,0.4
		l2-2.2c0,0,0.1-0.1,0.1-0.1l0.6,0.2l-2.6,2.6c-0.2,0.3,0.2,0.6,0.4,0.4l2.7-2.8c0.4,0.1,0.8,0.2,1.2,0.3l-3.6,3.8
		c-0.2,0.2,0.2,0.6,0.4,0.3l3.8-4c0.5,0.1,0.9,0.1,1.4,0.1L37.1,59c-0.2,0.3,0.2,0.6,0.4,0.4c1.4-1.5,2.9-3,4.3-4.4
		c0.1-0.1,0.1-0.2,0-0.3c0.7,0,1.3-0.1,2-0.2l-5,5.1c-0.2,0.2,0.2,0.6,0.4,0.4l5.1-5.1c0.1-0.1,0.1-0.2,0.1-0.3c0,0,0,0-0.1-0.1
		c1-0.2,2-0.5,3-1l-7.1,7.2c-0.2,0.2,0.2,0.6,0.4,0.4l7.9-8c0.1-0.1,0.1-0.1,0.1-0.2c0.6-0.3,1.1-0.7,1.7-1.1
		c-2.8,3.3-5.6,6.5-8.3,9.8c-0.2,0.3,0.3,0.5,0.5,0.3l8.4-9.8c0.2-0.2-0.1-0.4-0.4-0.3c0.3-0.2,0.6-0.4,0.8-0.7
		c-0.3,1.2-0.5,2.4-0.5,3.6c-0.1,0-0.1,0-0.2,0.1l-7.7,8.2c-0.2,0.3,0.2,0.6,0.4,0.4l7.5-8c0,0.5,0,1,0,1.6c-0.1,0-0.2,0-0.2,0.1
		l-6.2,6.6c-0.2,0.3,0.2,0.6,0.4,0.4l6-6.4c0.1,0.7,0.2,1.3,0.3,1.9c-0.1,0-0.1,0-0.2,0.1l-5,4.9c-0.2,0.2,0.2,0.6,0.4,0.4l4.9-4.8
		c0.2,0.8,0.4,1.5,0.7,2.3l0,0l-5.7,4.7c-0.3,0.2,0.1,0.6,0.4,0.4l5.6-4.6c0.1,0.2,0.2,0.4,0.3,0.6c0,0,0,0-0.1,0l-5.6,5.5
		c-0.3,0.2,0.2,0.6,0.4,0.4l5.5-5.4c0.1,0.2,0.2,0.4,0.3,0.6c-1.4,2.7-3.4,5.1-5.8,7c-1.5,1.3-3.4,2.1-4.9,3.3c0,0-0.1,0.1-0.1,0.2
		c-0.1,0-0.2,0-0.3,0c0-0.2-0.1-0.3-0.2-0.4c-2.3-1.4-4.6-2.4-6.6-4.4c-1.1-1.2-2.1-2.6-2.8-4.1C34.6,62.9,34.7,58.6,34.1,54.8
		L34.1,54.8z M31.6,88.3l3.1-2.2c0.8,1.9,1.5,3.8,2.1,5.8c3.2,10.9,3.6,22.1,4.5,33.4c-2.6-7-6.2-13.6-10.6-19.6
		c-1.3-1.8-2.6-3.5-4-5.2c-0.6-0.8-1.2-1.5-1.9-2.2c-0.5-0.6-2.2-1.9-2.3-2.6s1.6-2.4,2.1-3l2.5-3c1.6-2,3.3-4.1,4.8-6.2
		c0.2-0.2-0.2-0.5-0.4-0.3l-0.7,0.7c-0.9-1-1.9-1.9-3.1-2.7l3.3-2.8c0.1-0.1,0.1-0.2,0-0.3c0,0,0,0,0,0h0.1l1,2.1L29.6,82
		c-0.3,0.2,0.1,0.6,0.4,0.4l2.1-1.9c0.4,0.9,0.9,1.8,1.3,2.7c-0.1,0-0.1,0-0.2,0.1L31,85.3c-0.3,0.2,0.1,0.6,0.4,0.4l2.3-2
		c0.3,0.6,0.6,1.3,0.9,2h-0.1l-3.2,2.3C30.9,88.1,31.3,88.5,31.6,88.3L31.6,88.3z M24.9,74.8l3.7-3.3c0.2,1.2,0.5,2.4,1,3.6
		l-4.6,4.3c-0.1-0.1-0.2-0.1-0.3-0.2c-1.2-0.9-2.3-1.8-3.6-2.6c0.1,0,0.1,0,0.2-0.1l7-7.5c0,0.6,0,1.3,0.1,1.9l-4,3.6
		C24.3,74.6,24.7,75,24.9,74.8L24.9,74.8z M29.9,75.5l0.1,0.2c0.3,0.6,0.5,1.2,0.8,1.8c-0.1,0.1-0.1,0.2,0,0.3
		c-0.1-0.1-0.2-0.1-0.3,0l-3.3,2.9l-1.7-1.2L29.9,75.5z M28.6,68L28.6,68L21,76.1c-0.1,0.1-0.1,0.2-0.1,0.2
		c-0.4-0.3-0.9-0.6-1.3-0.9c2.5-3.6,5.5-6.7,9-9.4c0.3-0.2-0.1-0.6-0.4-0.4c-3.5,2.7-6.6,5.8-9.1,9.4L18.9,75v-0.1
		c0.3-0.2-0.2-0.6-0.4-0.4c0,0-0.1,0.1-0.1,0.1l0,0l0,0c1.4-2.6,3.3-4.9,5.6-6.8c1.3-1.1,2.7-2,4.2-2.8c0.6-0.3,1.2-0.5,1.8-0.7
		C29.2,65.4,28.7,66.7,28.6,68L28.6,68z M44.3,133.2C44.3,133.2,44.4,133.2,44.3,133.2l0.4-0.4c-0.1,0.3-0.2,0.6-0.4,0.9L44.3,133.2
		z M45.6,130.5c0,0.2-0.1,0.4-0.2,0.7l-1,1.3v-1.9l2.2-2.7C46.2,128.7,45.8,129.6,45.6,130.5L45.6,130.5z M80.7,128.3
		c-0.1,0.9-0.5,1.8-1.3,2.4c-1.1,0.6-2.4,0.8-3.6,0.8h-0.4l5.5-5.3c0,0,0-0.1,0-0.1C80.8,126.9,80.8,127.6,80.7,128.3L80.7,128.3z
		 M80.8,125.5c0,0.2,0,0.4,0,0.5c0-0.1-0.2-0.2-0.3-0.2c0,0-0.1,0-0.1,0l-5.5,5.3c-0.1,0.1-0.1,0.2,0,0.3c0,0,0,0,0,0
		c-1.1,0-2.1,0-3.2,0l4-4.4c0.2-0.2-0.1-0.6-0.4-0.4l-4.3,4.7l-2.1-0.1l5.2-5.8c0.2-0.2-0.1-0.6-0.4-0.4l-4.8,5.4
		c0.1-0.7,0.1-1.5,0.1-2.2c0-0.1,0-0.2-0.1-0.2c0-0.2,0-0.5,0-0.7l4.4-5.1c0.2-0.3-0.1-0.6-0.4-0.4l-4,4.7c0-0.8,0-1.6,0-2.4
		l2.8-3.2c0.2-0.2-0.1-0.6-0.4-0.4l-2.5,2.8l-0.1-1.3l1.8-2.3c0.2-0.3-0.2-0.6-0.4-0.4c-0.5,0.6-1,1.2-1.4,1.8
		c-0.1-3-0.3-6.1-0.5-9.1c0-0.3-0.5-0.3-0.5,0s0,0.5,0,0.8c-0.1-0.1-0.2-0.2-0.3-0.2c0,0-0.1,0-0.1,0.1l-5.4,5.4
		c-0.2,0.3,0.2,0.6,0.4,0.4l5.4-5.4c0,0,0,0,0-0.1c0,3.8-0.1,7.6,0,11.4l-0.3,0.4c-0.2,0.2,0.1,0.6,0.3,0.4c0,0.8,0,1.6,0.1,2.3
		c-0.1,0.1-0.1,0.3,0,0.4c0,0,0,0,0,0c0.1,1,0.1,2,0.2,2.9c-2.2,1.6-5.1,2-7.9,2.4c-0.9,0.1-1.8,0.3-2.8,0.4l3.4-4.1
		c0.2-0.3-0.2-0.6-0.4-0.4l-3.8,4.6l-2.6,0.3l5.3-6.2c0.2-0.3-0.2-0.6-0.4-0.4c-1.9,2.2-3.7,4.4-5.6,6.6c-0.7,0.1-1.3,0.2-2,0.2
		l-0.7,0.1c1.9-2.2,3.8-4.5,5.8-6.7c0.2-0.3-0.2-0.6-0.4-0.4L50,135l-2.4,0.2l6.7-7.6c0.2-0.3-0.1-0.6-0.4-0.4l-7.1,8
		c-0.9,0.1-1.8,0.1-2.8,0.1v-0.1c0.3-0.4,0.7-0.9,0.9-1.4l1.1-3.5c0.2-0.6,0.4-1.1,0.6-1.6c1.5-1.8,2.9-3.6,4.3-5.5
		c0.2-0.3-0.2-0.6-0.4-0.4l-3.4,4.3c2.1-5.6,4.7-11,7.1-16.4c2.7-6.1,5.7-12.3,8-18.5c0.1-0.1,0.2-0.2,0.1-0.3c0,0,0,0,0,0
		c0-0.2-0.1-0.4-0.3-0.4c-2.7-2.9-5.5-5.7-8.5-8.3l2-2.4c1.3-1.3,2.4-2.7,3.4-4.1c0.2-0.3-0.2-0.5-0.4-0.3c-2.2,1.9-4.2,4.1-5.9,6.6
		c-0.1,0.1-0.1,0.1,0,0.2c-0.2,0.2-0.4,0.6-0.2,0.7c1.5,1.5,7.3,7.2,8.8,8.1c-2.9,6-5.3,12.2-7.9,18.2l-0.5,1.3
		c-1.4,3.3-2.8,6.6-4.2,9.9l-1,2.5c-0.4,1.1-0.9,2.3-1.3,3.4c-0.1-0.1-0.2-0.1-0.3,0c0,0,0,0,0,0c-0.7,0.9-1.4,1.7-2.1,2.6v-2.1
		c0.4-0.8,1.1-1.5,1.8-2.1c0.3-0.2,0-0.6-0.3-0.4c-0.5,0.4-1,0.9-1.4,1.4c0-0.4,0-0.7,0-1.1l2.2-2.6c0.2-0.2-0.1-0.6-0.4-0.4
		l-1.8,2.2c0-0.7,0.1-1.4,0.1-2.2l1.8-1.9c0.2-0.2-0.1-0.6-0.4-0.4c-0.5,0.5-0.9,1-1.4,1.5c0-0.4,0-0.9,0.1-1.4c0,0,0,0,0.1,0
		l1.4-1.5c0.2-0.2-0.1-0.6-0.4-0.4l-1,1.1c0-0.4,0.1-0.9,0.1-1.3l0.3-0.5c0.2-0.2-0.1-0.4-0.3-0.4c0.1-1,0.1-1.9,0.2-2.9
		c0.6-6.8,1.7-13.6,3.3-20.3C49.6,89,51.5,84,53,78.8c0.2-0.7,0.4-1.5,0.6-2.2l2.6-1.9c-0.8,1.1-1.6,2.1-2.4,3.1
		c-0.3,0.3,0.3,0.7,0.6,0.4c1.7-1.7,3.3-3.6,4.6-5.6l0.1-0.1c0.1,0,0.1-0.1,0.1-0.2c4.8-7.4,6.8-16.3,5.6-25
		c-1.4-10.5-7.8-20.2-17-26.7c-2.7-1.8-5.5-3.4-8.5-4.7c-4-1.8-8.5-4.5-7.3-9.1c0-0.1,0-0.2-0.1-0.3c-0.1,0-0.2,0-0.2,0.1
		c-0.9,1.6-0.8,3.7,0.3,5.2c0,0-4.5,4.9-4.9,5.4c-1.3,1.7-2.5,3.6-3.4,5.5c-1.7,4.1-2.6,8.5-2.6,13c0,4.6,1,9.2,2.9,13.4
		c1.6,3.7,4.1,8.1,7.6,10.6c0.3,0.4,0.5,0.9,0.8,1.3c0.1,0.3,0.2,0.5,0.3,0.8c-0.1,0.2-0.2,0.5-0.2,0.7c-0.1-0.1-0.2-0.1-0.3-0.1
		c-2.3,0-4.6,1.3-6.4,2.6c-0.7,0.7-1.5,1.3-2.3,1.8c-0.9,0.3-1.9,0.6-2.9,0.8c-1.3-2-2.7-4-3.8-6c-1.5-2.6-2.7-5.4-3.7-8.2
		c-0.8-2.3-1.5-4.6-2-7c0.3,1.1,0.7,2.2,1.1,3.3c2,5.3,5.1,10.8,9.7,14.8c0.3,0.3,1-0.1,0.7-0.5c-4.3-5-7.8-10-9.9-16.1
		c-2-6-2.5-12.4-1.4-18.7c1.3-6.3,4-12.2,7.9-17.2c3.2-4.3,7.8-9.9,14.4-8.8c0.3,0,0.4-0.3,0.1-0.4h0.1c0.8-1,3.3-1.7,4.6-2
		c2-0.3,4-0.4,6.1-0.2c4,0.5,7.8,2,11.1,4.5c5.6,4.1,8.7,10.4,10.6,16.5c2,6.9,3,14,2.9,21.2c-0.1,5.3-0.8,10.6-2,15.8
		c-0.7,3.2-0.9,6.5-2.1,9.5c-1.4,3.2-3.3,6.1-5.4,8.8c-0.2,0.2,0.2,0.5,0.4,0.3c2.3-2.5,4.1-5.4,5.5-8.5c1.3,1.2,2.9,2.3,4.3,3.5
		c1,0.8,2,1.7,3.1,2.4c2,1.3,2.4,3.3,3.1,5.4c0.8,2.6,1.5,5.1,2.1,7.7C79,93,80,98.2,80.6,103.4c0.5,4.6,0.7,9.3,0.7,13.9
		C81.2,120.1,81,122.8,80.8,125.5L80.8,125.5z"/>
	<path class="st0" d="M32.6,13.3l-4.5,5c-0.2,0.3,0.2,0.6,0.4,0.4l4.5-5C33.2,13.5,32.8,13.1,32.6,13.3z"/>
	<path class="st0" d="M47,27l2.5-2c0.3-0.2-0.1-0.6-0.4-0.4l-2.5,2C46.3,26.9,46.7,27.2,47,27z"/>
	<path class="st0" d="M47.8,28.8l3.4-3.2c0.3-0.2-0.2-0.6-0.4-0.4l-3.4,3.2C47.2,28.6,47.6,29,47.8,28.8z"/>
	<path class="st0" d="M51.6,32.4l3.6-2.6c0.3-0.2-0.1-0.6-0.4-0.4L51.2,32C51,32.2,51.3,32.6,51.6,32.4z"/>
	<path class="st0" d="M53.1,35.3l4.3-2.8c0.1-0.1,0.2-0.2,0.1-0.4c-0.1-0.1-0.2-0.2-0.4-0.1l-4.3,2.8c-0.1,0.1-0.2,0.2-0.1,0.4
		S53,35.4,53.1,35.3z"/>
	<path class="st0" d="M44.4,80.5l1.5-0.9c0.3-0.2,0-0.6-0.3-0.4L44.1,80C43.8,80.2,44.1,80.7,44.4,80.5z"/>
	<path class="st0" d="M45,82.9l2.6-1.4c0.3-0.2,0-0.6-0.3-0.4l-2.6,1.4C44.4,82.6,44.7,83.1,45,82.9z"/>
	<path class="st0" d="M45.7,84.2l2.4-1.5c0.1-0.1,0.2-0.2,0.1-0.4s-0.2-0.2-0.4-0.1l-2.5,1.5c-0.1,0.1-0.2,0.2-0.1,0.4
		C45.4,84.3,45.6,84.3,45.7,84.2L45.7,84.2z"/>
	<path class="st0" d="M45.2,85.2c-0.3,0.2,0.1,0.6,0.4,0.4l3-2.4c0.3-0.2-0.1-0.6-0.4-0.4L45.2,85.2z"/>
	<path class="st0" d="M44.8,88.2l4-3.1c0.3-0.2-0.1-0.6-0.4-0.4l-4,3.1C44.1,88.1,44.5,88.4,44.8,88.2z"/>
	<path class="st0" d="M44.9,90.5c0.1,0,0.2,0,0.3,0l1.9-1.4c0.3-0.2-0.1-0.6-0.4-0.4l-1.8,1.3h-0.1c-0.1,0-0.3,0.1-0.3,0.2
		c0,0.1,0.1,0.3,0.2,0.3c0,0,0.1,0,0.1,0C44.8,90.6,44.9,90.5,44.9,90.5z"/>
	<path class="st0" d="M48,89.4l-3.4,2.7c-0.3,0.2,0.1,0.6,0.4,0.4l3.4-2.7C48.7,89.6,48.3,89.2,48,89.4z"/>
	<path class="st0" d="M47.2,92.5l-2.4,1.7c-0.3,0.2,0.1,0.6,0.4,0.4l2.4-1.7C47.9,92.7,47.5,92.3,47.2,92.5z"/>
	<path class="st0" d="M44.2,97.2l3-2.4c0.3-0.2-0.1-0.6-0.4-0.4l-3,2.4C43.5,97.1,43.9,97.5,44.2,97.2z"/>
	<path class="st0" d="M44,101.9l1.7-1.2c0.3-0.2-0.1-0.6-0.4-0.4l-1.7,1.2C43.3,101.7,43.7,102.1,44,101.9z"/>
	<path class="st0" d="M43.4,106.9l1.6-1.6c0.3-0.2-0.2-0.6-0.4-0.4l-1.6,1.6C42.7,106.8,43.1,107.1,43.4,106.9z"/>
	<path class="st0" d="M42.7,83.4c0.1,0,0.3-0.1,0.3-0.2c0-0.1-0.1-0.3-0.2-0.3c0,0-0.1,0-0.1,0c-1.2,0.1-1.7-1.2-0.8-1.9
		c0.3-0.2-0.1-0.6-0.4-0.4c-0.7,0.5-0.8,1.5-0.3,2.2C41.6,83.3,42.1,83.5,42.7,83.4z"/>
	<path class="st0" d="M42.6,90.9c-0.3,0.2-0.8,0.2-1.1,0c-0.1-0.1-0.1-0.1-0.1-0.2c0-0.2,0-0.3,0-0.5l0,0c0-0.1,0.1-0.1,0.1-0.2
		c0,0,0-0.1,0.1-0.1c0,0,0-0.1,0.1-0.1c0.2-0.3,0.5-0.4,0.8-0.4c0.3,0,0.3-0.5,0-0.5c-0.6,0-1.2,0.3-1.4,0.9
		c-0.3,0.5-0.2,1.1,0.2,1.5c0.6,0.4,1.3,0.4,1.9,0C43.3,91,42.9,90.6,42.6,90.9z"/>
	<path class="st0" d="M14.3,74.6l4.9-4.2c0.3-0.2-0.1-0.6-0.4-0.4l-5,4.2C13.6,74.4,14,74.8,14.3,74.6z"/>
	<path class="st0" d="M22,78.6l-4.3,3.5c-0.3,0.2,0.1,0.6,0.4,0.4l4.3-3.5C22.6,78.7,22.2,78.4,22,78.6z"/>
	<path class="st0" d="M18.9,83.7c0.1,0.1,0.3,0.1,0.4,0l3.9-3.1c0.3-0.2-0.1-0.6-0.4-0.4l-3.8,3c0,0-0.1,0-0.1,0
		c-0.1,0-0.3,0.1-0.3,0.2c0,0.1,0.1,0.3,0.2,0.3C18.8,83.7,18.8,83.7,18.9,83.7L18.9,83.7z"/>
	<path class="st0" d="M20.4,85.5l4.2-3.6c0.3-0.2-0.1-0.6-0.4-0.4L20,85.1C19.7,85.4,20.1,85.7,20.4,85.5z"/>
	<path class="st0" d="M20,87.3c-0.1,0-0.3,0.1-0.3,0.2c0,0.1,0.1,0.3,0.2,0.3c0,0,0.1,0,0.1,0c0,0,0.1,0,0.1,0c0.1,0,0.2,0,0.2-0.1
		l5.5-4.4c0.3-0.2-0.1-0.6-0.4-0.4L20,87.3z"/>
	<path class="st0" d="M21.1,89.6l5.7-5.4c0.3-0.2-0.2-0.6-0.4-0.4l-5.7,5.4C20.4,89.4,20.8,89.8,21.1,89.6z"/>
	<path class="st0" d="M25.9,85.9l-5.8,6c-0.2,0.3,0.2,0.6,0.4,0.4l5.8-6C26.6,86,26.2,85.7,25.9,85.9z"/>
	<path class="st0" d="M23.1,91.6l-4.4,4.8c-0.2,0.3,0.2,0.6,0.4,0.4l4.4-4.8C23.8,91.7,23.4,91.3,23.1,91.6z"/>
	<path class="st0" d="M22.5,99c0.3-0.2-0.2-0.6-0.4-0.4l-2,2.1c-0.3,0.2,0.2,0.6,0.4,0.4L22.5,99z"/>
	<path class="st0" d="M23,100.3l-2.7,2.7c-0.2,0.2,0.2,0.6,0.4,0.4l2.7-2.7C23.7,100.5,23.3,100.1,23,100.3z"/>
	<path class="st0" d="M24.1,101.4l-3,3.9c-0.2,0.3,0.3,0.5,0.5,0.3l3-3.9C24.8,101.4,24.3,101.1,24.1,101.4z"/>
	<path class="st0" d="M26.1,102.6l-4,4.1c-0.2,0.3,0.2,0.6,0.4,0.4l4-4.1C26.7,102.7,26.3,102.3,26.1,102.6z"/>
	<path class="st0" d="M27,104.6l-3.4,3.1c-0.3,0.2,0.2,0.6,0.4,0.4l3.4-3.1C27.6,104.7,27.2,104.3,27,104.6z"/>
	<path class="st0" d="M25.8,111.4l3.8-3.2c0.3-0.2-0.1-0.6-0.4-0.4l-3.8,3.2C25.2,111.3,25.6,111.6,25.8,111.4z"/>
	<path class="st0" d="M30.3,109.3l-4.3,4.4c-0.1,0-0.3,0-0.4,0.2l-0.2,0.4c-0.1,0.2,0.3,0.4,0.5,0.3l4.8-5
		C30.9,109.4,30.5,109,30.3,109.3z"/>
	<path class="st0" d="M31.7,111l-5.2,5c-0.3,0.2,0.2,0.6,0.4,0.4l5.2-5C32.3,111.1,31.9,110.8,31.7,111z"/>
	<path class="st0" d="M32.5,113.3l-4.2,4.6c0,0,0,0.1,0,0.1c-0.1,0-0.3,0.1-0.3,0.2c0,0.1,0.1,0.3,0.2,0.3c0,0,0.1,0,0.1,0
		c0.1,0,0.2,0,0.2-0.1c0.1,0,0.1,0,0.2-0.1l4.1-4.6C33.1,113.4,32.7,113,32.5,113.3z"/>
	<path class="st0" d="M34.1,116.5l-5.1,5.3c-0.2,0.3,0.2,0.6,0.4,0.4l5.1-5.3C34.8,116.6,34.4,116.2,34.1,116.5z"/>
	<path class="st0" d="M30.8,124.5l5.8-5.3c0.3-0.2-0.2-0.6-0.4-0.4l-5.8,5.3C30.1,124.4,30.5,124.8,30.8,124.5z"/>
	<path class="st0" d="M37.1,121.7l-4.9,4.4c-0.3,0.2,0.1,0.6,0.4,0.4l4.9-4.4C37.7,121.8,37.3,121.4,37.1,121.7z"/>
	<path class="st0" d="M38,124.3l-4.4,3.8c-0.3,0.2,0.1,0.6,0.4,0.4l4.3-3.8C38.6,124.5,38.2,124.1,38,124.3z"/>
	<path class="st0" d="M41.2,128.8l-4.3,3.5c-0.3,0.2,0.1,0.6,0.4,0.4l4.3-3.5C41.8,128.9,41.4,128.6,41.2,128.8z"/>
	<path class="st0" d="M41.5,132.6c-0.5,0.8-1.4,1.4-2.4,1.5c-0.4,0-0.4,0.5,0,0.5c1.2-0.1,2.2-0.7,2.9-1.7
		C42.1,132.5,41.7,132.3,41.5,132.6z"/>
	<path class="st0" d="M25.2,77.8c1.3-1.5,2.5-3,3.8-4.4c0.2-0.3-0.3-0.5-0.5-0.3c-1.3,1.5-2.5,2.9-3.8,4.4
		C24.5,77.8,25,78.1,25.2,77.8z"/>
	<path class="st0" d="M26.8,8C18.2,13.6,14,23.4,13.6,32.7c-0.1,5.5,0.8,11,2.8,16.1c1,2.6,2.1,5.1,3.3,7.6c1.4,2.8,2.9,5.9,4.9,8.4
		c0.2,0.2,0.6,0.1,0.5-0.2c-1-2.3-2.6-4.4-3.8-6.7c-1.4-2.6-2.7-5.3-3.8-8c-2.1-5.1-3.2-10.6-3.3-16.1C14,23.8,18.8,14.2,27,8.3
		C27.2,8.2,27,7.9,26.8,8z"/>
	<path class="st0" d="M20,23.6c0.1-0.2-0.3-0.3-0.3-0.1c-1.9,6.2-2.1,12.9-0.7,19.2c1.4,6.2,4.2,12.7,9,17.5
		c0.2,0.2,0.6-0.1,0.4-0.3c-3.8-5.4-7-10.7-8.6-17.1C18.2,36.5,18.3,29.9,20,23.6z"/>
	<path class="st0" d="M64.7,61.5c4.3-9.2,3.3-20.3-1.8-29.1c-2.9-4.7-6.7-8.7-11.3-11.7C46.4,17,40.6,14,35.7,9.9
		c-0.2-0.1-0.4,0.1-0.2,0.2c8.3,7.8,19.9,12,26.1,21.7c5.7,8.8,6.7,19.9,2.7,29.6C64.2,61.6,64.6,61.7,64.7,61.5z"/>
	<path class="st0" d="M60.4,23.6C65.9,31,68,39.3,68,48c0,0.3,0.4,0.3,0.5,0c1.1-8.6-2.2-17.7-7.5-24.7c-6-8-15-12.8-24.2-17.1
		c-0.2-0.1-0.4,0.2-0.2,0.3C45.6,11.1,54.5,15.7,60.4,23.6z"/>
	<path class="st0" d="M54.4,48.9c-0.1-0.2-0.4-0.1-0.4,0.1c1.2,4.2,1.7,8.6,1.3,12.9c0,0.2,0.4,0.3,0.5,0.1
		C56.7,57.6,56.2,53,54.4,48.9z"/>
	<path class="st0" d="M62.1,98.8c0.9-1.4,1.7-2.7,2.6-4.1c0.2-0.3-0.3-0.6-0.5-0.3c-0.9,1.4-1.7,2.7-2.6,4.1
		C61.5,98.8,62,99,62.1,98.8z"/>
	<path class="st0" d="M61.9,101.6l3.2-4.3c0.2-0.3-0.3-0.5-0.5-0.3l-3.2,4.3C61.2,101.6,61.7,101.9,61.9,101.6z"/>
	<path class="st0" d="M65.8,90.3c0.3,2.5,0.8,4.9,1.3,7.4c-0.1,0-0.1,0.1-0.2,0.1l-5.1,7.7c-0.2,0.3,0.3,0.5,0.5,0.3l4.9-7.4
		c0.4,1.9,0.8,3.9,1.2,5.8c0.1,0.3,0.5,0.1,0.4-0.1c-0.8-4.6-1.5-9.3-2.7-13.8C66.1,90,65.7,90.1,65.8,90.3z"/>
	<path class="st0" d="M61.7,110.1l4.9-7.4c0.2-0.3-0.3-0.5-0.5-0.3l-4.8,7.4C61.1,110.1,61.5,110.4,61.7,110.1z"/>
	<path class="st0" d="M65.7,106.9l-4.3,5.1c-0.2,0.3,0.3,0.5,0.5,0.3l4.3-5.1C66.4,106.9,65.9,106.7,65.7,106.9z"/>
	<path class="st0" d="M66.3,110.7c-1.2,1.4-2.5,2.9-3.7,4.3c-0.2,0.3,0.2,0.6,0.4,0.4c1.3-1.4,2.5-2.9,3.7-4.3
		c0.1-0.1,0.1-0.3-0.1-0.4C66.5,110.6,66.4,110.6,66.3,110.7z"/>
	<path class="st0" d="M62.6,124.1c1.4-1.8,2.8-3.6,4.2-5.4c0.2-0.3-0.3-0.5-0.5-0.3l-4.2,5.4C61.8,124.1,62.3,124.4,62.6,124.1z"/>
	<path class="st0" d="M62.4,127.7l3.7-3.3c0.3-0.2-0.1-0.6-0.4-0.4l-3.6,3.3C61.7,127.5,62.1,127.9,62.4,127.7z"/>
	<path class="st0" d="M66.6,129.2l-4.2,3.3c-0.3,0.2,0.1,0.6,0.4,0.4l4.2-3.3C67.3,129.3,66.9,129,66.6,129.2z"/>
	<path class="st0" d="M42.5,76l-4.7,4c-0.3,0.2,0.1,0.6,0.4,0.4l4.7-4C43.1,76.1,42.7,75.8,42.5,76z"/>
	<path class="st0" d="M40.6,79.4c-0.1,0-0.3,0.1-0.3,0.2c0,0.1,0.1,0.3,0.2,0.3c0,0,0.1,0,0.1,0c0.1,0,0.3-0.1,0.3-0.2
		c0-0.1-0.1-0.3-0.2-0.3C40.7,79.4,40.7,79.4,40.6,79.4z"/>
	<path class="st0" d="M31.6,132.1l-2.1,2.1c-0.2,0.2,0.1,0.6,0.3,0.4l2.1-2.1c0.1-0.1,0.1-0.3,0-0.4S31.7,132,31.6,132.1z"/>
	<path class="st0" d="M10.7,126.4l-4.2,4c-0.2,0.2,0.1,0.6,0.3,0.4l4.2-4C11.3,126.5,11,126.2,10.7,126.4z"/>
	<path class="st0" d="M50.3,128.3c-1.9,2.2-3.8,4.3-5.7,6.5c-0.2,0.2,0.1,0.6,0.3,0.4c1.9-2.2,3.8-4.4,5.7-6.5
		C50.9,128.4,50.5,128,50.3,128.3z"/>
	<path class="st0" d="M40.8,96.8c-0.1,0-0.1,0-0.1,0.1c-0.5,0.6-0.5,1.6,0.2,2.1c0.2,0.2,0.5,0.3,0.8,0.4c0.4,0,0.5-0.4,0.2-0.5
		c-0.6-0.1-1-0.6-0.9-1.1l0,0c0-0.1,0-0.2,0.1-0.3c0-0.1,0.1-0.1,0.1-0.2c0.2-0.2,0.5-0.3,0.8-0.1c0.1,0.1,0.3,0,0.3-0.1
		s0-0.3-0.1-0.3C41.7,96.4,41.2,96.4,40.8,96.8z"/>
</g>
</svg>
