<svg id="Layer_1" data-name="Layer 1" xmlns="http://www.w3.org/2000/svg" viewBox="0 0 82.43 136.34"><defs><style>.cls-1{fill:#545353;}</style></defs><title>8</title><g id="_16" data-name="16"><path class="cls-1" d="M140.61,134.35a108.33,108.33,0,0,0-3.77-18.63,70.57,70.57,0,0,0-2.6-8.09c-1-2.22-3.43-3.48-5.32-4.88-1.47-1.1-2.92-2.26-4.51-3.22a34.15,34.15,0,0,0,1.94-6.16s0,0,0-.05a66.38,66.38,0,0,0,2.45-15.09,75.54,75.54,0,0,0-1.19-18.68c-1.94-10.17-6.36-21.8-17.56-26.44a22.86,22.86,0,0,0-9.76-1.78c-2.58.11-6.62.57-8.24,2.65a.2.2,0,0,0,0,.22c-4.15-.68-7.71,1.3-10.54,4a44.2,44.2,0,0,0-8.64,11.73A38.56,38.56,0,0,0,68.5,67.55a.17.17,0,0,0-.19.16,52.87,52.87,0,0,0,5.84,24.88c1.11,2.16,2.37,5,4.21,6.88-1.38.59-2.72,1.32-4,1.89-2.19,1-5.73,1.83-7.42,3.46-2.08,2-3,6-3.85,8.61a92.61,92.61,0,0,0-3.41,18.84,114.1,114.1,0,0,0-.61,17,81,81,0,0,0,.85,8.64c.39,2.57.11,3.62,2.91,4.38,3.43.94,6.77,2,10.27,2.75a125.41,125.41,0,0,0,21.63,2.49l.86,0a126.29,126.29,0,0,0,18-.83c2.27-.27,4.56-.41,6.81-.81a27.17,27.17,0,0,0,3.49-.94c1-.32,2-.47,2.92-.85,2-.81,4.12,0,6.24-.08,1.61-.06,3.13-.45,4.71-.61a2.84,2.84,0,0,0,2.54-1.85,8.93,8.93,0,0,0,.46-2.31,96.91,96.91,0,0,0,.6-10.35A113.42,113.42,0,0,0,140.61,134.35ZM94,166.55c-.63,0-1.26-.07-1.89-.1l2.14-1.68c.25-.2-.11-.56-.36-.36l-2.54,2q-2.83-.17-5.63-.46l3.47-3.28c.24-.22-.12-.58-.35-.36l-3.58,3.37a.23.23,0,0,0-.07.21c-.7-.08-1.39-.18-2.09-.27l3.77-3.38c.24-.21-.11-.57-.36-.35l-4,3.58s0,0,0,.07c-1.2-.16-2.39-.34-3.58-.54l6.16-5c.25-.21-.11-.56-.36-.36l-6.29,5.08a.21.21,0,0,0-.08.16l-.9-.14c0-.39-.12-.77-.17-1.16l5.4-5.37a.25.25,0,0,0-.36-.36L77.21,163q-.15-1.14-.33-2.28l.14-.15a.24.24,0,0,0,0-.29l3.33-3.32c.23-.23-.13-.58-.36-.35l-3.24,3.23-.24-1.45,4-4.59c.22-.24-.14-.6-.35-.35l-3.81,4.31c-.1-.59-.21-1.17-.31-1.75l4.33-4.46a.25.25,0,0,0-.36-.36L76,155.37c-.22-1.15-.43-2.3-.65-3.45l3.16-3.16a.25.25,0,0,0-.36-.36l-2.92,2.92c-.12-.64-.24-1.27-.37-1.91l2.32-2.61c.21-.24-.14-.6-.36-.36-.69.79-1.39,1.57-2.08,2.35-.11-.55-.21-1.1-.31-1.65l1.34-1.54c.22-.24-.14-.6-.35-.36l-1.11,1.27c-.24-1.22-.47-2.43-.69-3.64-.7-3.91-1.77-7.74-1.22-11.69s1.11-7.74,1.66-11.61c0-.2-.36-.25-.4,0-.65,3.86-1.28,7.72-2,11.57a12.62,12.62,0,0,0-.25,4.57c.33,2,.71,4,1.06,5.93.89,4.88,1.65,9.83,2.54,14.75l-.06.06a.26.26,0,0,0,.15.43c.24,1.29.49,2.57.76,3.85l-.32.32a.24.24,0,0,0,.05.37l-1.91,2.19c-.21.24.14.6.36.36.67-.77,1.35-1.54,2-2.32.22,1,.41,2,.66,3-1.72-.3-3.43-.65-5.13-1,1.17-1.17,2.33-2.34,3.5-3.5a.25.25,0,0,0-.36-.36l-3.57,3.58a.23.23,0,0,0-.08.18l-2.63-.59a.24.24,0,0,0,.14-.05l4.2-4c.24-.23-.12-.58-.36-.36l-4.2,4a.23.23,0,0,0,0,.37c-1.31-.29-2.62-.58-3.92-.9a7.44,7.44,0,0,1-.8-.29l4.19-3.87c.24-.22-.12-.58-.36-.36l-4.33,4a4.13,4.13,0,0,1-1.06-.85l4.88-4.52c.24-.22-.12-.58-.36-.36l-4.85,4.5A5.52,5.52,0,0,1,61,158.5l4.54-4.83c.22-.24-.13-.59-.36-.36l-4.3,4.58c-.11-.64-.18-1.3-.23-2L65,151.25c.23-.23-.13-.59-.35-.35l-4.07,4.33c-.06-.72-.07-1.44-.12-2.15q1.74-1.77,3.49-3.52a.25.25,0,0,0-.36-.35L60.4,152.4l-.12-2.17,1.62-2.15c.19-.26-.25-.52-.44-.26l-1.22,1.63c0-.56-.07-1.12-.09-1.69v-.12l2.13-1.83c.25-.21-.11-.57-.36-.36-.59.52-1.19,1-1.79,1.54,0-.83,0-1.65,0-2.48.16-.2.32-.41.49-.61s-.16-.61-.36-.36l-.14.18A106.32,106.32,0,0,1,60.55,133,114.56,114.56,0,0,1,63,117.75c.59-2.52,1.28-5,2.1-7.48A10.1,10.1,0,0,1,68.56,105c1.73-1.35,4-1.76,6-2.59a43.61,43.61,0,0,0,6.11-2.6A19.35,19.35,0,0,0,78.3,103a.28.28,0,0,0-.46-.13l-4.56,4.42c-.25.24.15.6.4.36l4.39-4.26a18.4,18.4,0,0,0-1.41,3.06.21.21,0,0,0,.13.26l-3.67,3.66c-.25.25.15.61.4.37l4.06-4.06,1,.89a.23.23,0,0,0-.17.07l-4,3.4c-.27.23.13.59.4.36l4-3.4a.22.22,0,0,0,.08-.17l.9.74L75.31,112c-.28.21.12.57.4.36l4.49-3.45c1,.84,2.1,1.65,3.16,2.47,1.85,1.44,3.71,3.24,5.9,4.25-3.2,3.53-6.05,7.33-9.08,11a.48.48,0,0,0,.09.61,111.41,111.41,0,0,1,7.57,9.21.26.26,0,0,0-.36,0l-4.17,4.26c-.24.25.16.61.4.37l4.17-4.26a.23.23,0,0,0,0-.31c1.53,2.08,3,4.19,4.35,6.38a120.73,120.73,0,0,1,7.27,14.29.3.3,0,0,0-.19.1,20.89,20.89,0,0,1-5.25,4.49.26.26,0,1,0,.29.44,21.46,21.46,0,0,0,5.35-4.57c.28.62.56,1.24.83,1.86a31.3,31.3,0,0,1,1.15,6.8c0,.33.59.33.57,0-.12-2-2.05-29.68-4.67-40.31a70.08,70.08,0,0,0-4.17-12.1.23.23,0,0,0,.14-.08l.62-.66a.24.24,0,0,0,.33,0c2.31-2.09,4.53-4.24,6.71-6.43l1.44,1.25L100,110.31c-.26.23.14.59.4.36l2.69-2.43c.39.34.77.69,1.15,1l-1.52.82c-.32.17,0,.61.28.44l1.63-.88.42.4c.3.31.59.63.87,1a.3.3,0,0,0-.4,0l-2.26,1.88c-.27.22.13.58.4.36l2.26-1.88a.2.2,0,0,0,.07-.27,17.43,17.43,0,0,0,2.46,2.68c.22.18.65,0,.53-.28a3.65,3.65,0,0,0-.25-.53.25.25,0,0,0,.2-.09l.39-.45c-.15.26.31.49.5.23l.9-1.22c-.07.25-.15.5-.23.75l-.06.17-1,1c-.23.25.16.61.4.36l.17-.18c-1.48,4.57-3,9.12-4,13.79-.06.25-.11.5-.17.76l-3.08,2.6-.08,0a.26.26,0,1,0,0,.51h.09a.3.3,0,0,0,.31-.05L105.6,129c-.36,1.64-.69,3.29-1,4.95a.3.3,0,0,0-.46-.09l-1.7,1.54c-.26.23.14.59.4.36.57-.51,1.14-1,1.71-1.55-.24,1.32-.46,2.65-.66,4l-2,1.85c-.25.23.15.59.4.36l1.46-1.36c-.17,1.15-.31,2.31-.44,3.46l-1.56,1.18c-.28.21.13.57.41.36l1.07-.82a97.8,97.8,0,0,0-.52,12.2.22.22,0,0,0-.14.21c0,.46,0,.91,0,1.37a.26.26,0,0,0,0,.23l0,1.88a6.91,6.91,0,0,0-.33.79c-.08.23.17.36.35.29l0,1.6-.05.06a.26.26,0,0,0,.06.38l.06,4.16-.08.21C99.79,166.64,96.91,166.66,94,166.55ZM89.42,96.24a1,1,0,0,1,0,.17.17.17,0,0,0-.1,0Zm3,13.11A15.14,15.14,0,0,1,89.5,97.44a23.2,23.2,0,0,0,1.2,5.45c.1.31.59.18.49-.13A22.61,22.61,0,0,1,90,96.82c0,.11,0,.22.08.34a.24.24,0,0,0,.11.3c1.51,4,5.71,8.05,10,8.69h.12c-1,0-3.11,3.36-3.93,4-1.85,1.52-2.84,3.66-4.33.76-2.22-4.34-4.8-9.32-3-13.91A15.6,15.6,0,0,0,92,109.6C92.15,109.86,92.59,109.61,92.39,109.35ZM91,89.91a7.27,7.27,0,0,0-.79-.66.29.29,0,0,0-.25,0,5.22,5.22,0,0,0-.39-.43l-.24-.28a.14.14,0,0,0,.12-.21,38.67,38.67,0,0,1-2.5-11.88c0-.24-.43-.24-.43,0A29.73,29.73,0,0,0,88.87,88c-.55-.62-1.09-1.25-1.58-1.91.15,0,.32,0,.26-.23a30,30,0,0,1-1.8-13.17,27.94,27.94,0,0,0,3.06,5.89s0,0,0,0a27.4,27.4,0,0,0,1,9.94.22.22,0,0,0,.42-.11,37.33,37.33,0,0,1-1-9.29A19.63,19.63,0,0,0,91.71,82a64.47,64.47,0,0,1,.52,7.73A10.43,10.43,0,0,1,92,91.32a6.61,6.61,0,0,0-.52-.78c-.26-3-.66-6-1-9,0-.28-.52-.29-.49,0C90.27,84.32,90.56,87.13,91,89.91ZM83.34,61.12a34.43,34.43,0,0,0,.77,6,40.82,40.82,0,0,0,1,15.59A30.16,30.16,0,0,1,83.75,80q-.36-.78-.66-1.59a.15.15,0,0,0,.06-.15A47.63,47.63,0,0,1,83.34,61.12ZM82,75A30.09,30.09,0,0,1,83.7,54.69a33.62,33.62,0,0,0-.38,5.39.16.16,0,0,0-.17.13A36.27,36.27,0,0,0,82,75Zm7.6-24.53,4-4.6a.41.41,0,0,0,.05-.09c.32.25.65.48,1,.71-.82,1-1.63,2-2.45,3-.21.26.28.52.49.25l2.41-2.94c.57.35,1.15.68,1.71,1-.93,1-1.87,2-2.81,3-.23.26.17.62.4.37l2.83-3.08a.21.21,0,0,0,.06-.1l.79.39.17.08c-.93,1-1.86,2-2.8,3-.23.25.17.61.41.36l2.89-3.09c.5.24,1,.48,1.48.73l-2.83,2.56c-.26.23.15.6.4.36l2.94-2.65,1.4.75-2.48,2.55c-.24.25.16.61.4.36l2.55-2.62.57.33-2.59,2.76a.27.27,0,0,0,.4.36c.89-.94,1.78-1.89,2.66-2.84l.44.26-2,2.22c-.23.25.17.61.41.36l2-2.28,1.3.85L103,55.06a.22.22,0,0,0,0,.35.26.26,0,0,0,.23.11.24.24,0,0,0,.25-.16l2.81-2.21q.7.48,1.38,1l-3.47,2.24a.27.27,0,0,0,.28.45l3.62-2.35a40.75,40.75,0,0,1,3.76,3.32l-3.69,2.51c-.28.19,0,.64.29.44l3.78-2.57.43.44c.12.12.22.25.34.37a.33.33,0,0,0-.32,0l-3.4,2.56c-.29.21.12.57.4.36l3.4-2.56a.17.17,0,0,0,.09-.2c.69.76,1.35,1.54,2,2.35l-3.58,2.62c-.28.21.12.57.4.36l3.5-2.56c.66.87,1.27,1.77,1.85,2.69a7.92,7.92,0,0,0-.52,1.51.32.32,0,0,0-.42,0l-3.48,2.48c-.28.21.12.57.41.36l3.38-2.42a13.09,13.09,0,0,1-.6,2l-.13.27a.3.3,0,0,0-.44-.07l-2.46,2c-.27.22.13.58.4.36l2.29-1.9a16.76,16.76,0,0,1-1.62,2.68.29.29,0,0,0-.21.16,1.58,1.58,0,0,1-1.23.86c-.35,0-.36.55,0,.51l.24,0A21.68,21.68,0,0,1,107,77.77a.77.77,0,0,0-.69.09l-.2.17a4.53,4.53,0,0,0-4.32,2.21c-.27.42.08.87.58.91a5.52,5.52,0,0,0,3.14-.74A4.76,4.76,0,0,0,107,79.07,19,19,0,0,0,114,74c.33-.37.69-.8,1.06-1.26-1.75,3.84-3.67,7.6-7.64,10.08a12.09,12.09,0,0,1-11.22.9,13.68,13.68,0,0,1-4.15-2.87c-3.73-3.73-5.79-8.83-7-13.66a37.88,37.88,0,0,1-.63-14.15,40.33,40.33,0,0,1,6.82-9.51,11.48,11.48,0,0,0,1.92,2,.1.1,0,0,0,0,0l-4,4.6C89,50.4,89.37,50.77,89.59,50.51Zm27.77,18.68c.14-.28.27-.56.39-.85a38.9,38.9,0,0,1,3.41,15.09,39,39,0,0,1-2.7,13.9,19.13,19.13,0,0,0-1.93-1.56l-.83-.56A34.16,34.16,0,0,0,114.49,77a.22.22,0,0,0-.17-.14,23.38,23.38,0,0,0,1.19-2.34,30,30,0,0,1,1.1,20.22c-.07.25.33.35.42.11A25.22,25.22,0,0,0,115.77,74c.29-.68.55-1.37.8-2.06a35.18,35.18,0,0,1,2.76,11.63,38.53,38.53,0,0,1-1.81,12.58c-.08.27.34.36.45.11,3.41-7.82,2.66-17.48-1.14-25.06.19-.61.38-1.21.55-1.81A.3.3,0,0,0,117.36,69.19ZM111,102.06a.27.27,0,0,0,.25-.15.35.35,0,0,0,.17-.06l1.35-1c0,.3,0,.6,0,.89l-2.12,1.91c-.26.24.14.6.4.37l1.66-1.5c0,.31-.06.62-.1.93l-2.36,2.23c-.26.24.15.6.4.36l1.85-1.74-.12.71-.29.28a.22.22,0,0,0-.06.27l-2.64,2.58c-.25.24.15.61.4.36l2.37-2.31c-.1.5-.22,1-.34,1.51a.26.26,0,0,0-.19.08l-2.78,2.77c-.24.25.16.61.4.36l2.34-2.33c-.12.48-.25,1-.39,1.43a.22.22,0,0,0-.12.09l0,0a.25.25,0,0,0-.39,0c-.49.56-1.22,1.91-2.07,1.87s-2.07-1.76-2.67-2.35a19.28,19.28,0,0,0-2.9-2.66c-.55-.35-1.24-.46-1.6-1h.06c4-1.39,9.67-4.82,11.15-9a23.11,23.11,0,0,1,.2,3.2L111,101.49a.34.34,0,0,0-.06.06A.26.26,0,0,0,111,102.06Zm1.53-8.36a23.12,23.12,0,0,1-1.43-4,28.4,28.4,0,0,1-.32-8,.12.12,0,0,0-.07-.13c.27-.26.53-.52.78-.79a43.61,43.61,0,0,1,.6,11.29c0,.22.38.27.42,0a26.63,26.63,0,0,0-.69-11.7,21.61,21.61,0,0,0,2.27-3.12,47.51,47.51,0,0,1,1.09,17.55A11.59,11.59,0,0,0,112.5,93.7ZM115,95.82l-.12.81c0,.25.36.37.43.11l.15-.61c.18.12.36.24.53.37l.14.11L114,97.87c-.3.18,0,.62.29.44L116.58,97c.27.25.53.51.79.78,0,0-3.31,3.35-3.63,3.62,0-1.23-.23-2.41-.21-3.67,0-.81.23-2.61-.66-3.09C113.6,95,114.33,95.39,115,95.82Zm-1.65,8.93,5-4.73c.25-.24-.15-.61-.4-.37l-4.45,4.23c.07-.53.12-1.07.16-1.61l4.07-4.13.3.31-.09.23c-.08.22.31.38.42.16l0,0a7.91,7.91,0,0,0,.63.52.48.48,0,0,0,.2.07,43.87,43.87,0,0,1-3,5.23l-3.3,2.39C113.1,106.25,113.26,105.5,113.38,104.75Zm5.5-7c4.33-9.2,3.81-20.73-.81-29.69a.17.17,0,0,0-.19-.09,8.51,8.51,0,0,0,.44-1.62,35.36,35.36,0,0,1,3.79,24.76,36.81,36.81,0,0,1-2.57,7.58A5.18,5.18,0,0,0,118.88,97.78ZM93.49,84.55l-.66.14c-.15-.76-.33-1.49-.51-2.18.16.14.32.29.49.42a15,15,0,0,0,1.89,1.24.1.1,0,0,0,0,0l-1.5,1.72a.21.21,0,0,0-.06.19c0-.31-.1-.62-.16-.92l.71-.16C94,85,93.84,84.47,93.49,84.55Zm-9-15.91c.28,1.07.61,2.16,1,3.24a24.29,24.29,0,0,0,1.6,13.89c-.35-.48-.68-1-1-1.47A62.33,62.33,0,0,1,84.46,68.64Zm8.63,17.49a.27.27,0,0,0,.46.16l1.5-1.72a.22.22,0,0,0,.06-.18l.5.24-2,2.18c-.23.25.17.61.4.36L96,85a.17.17,0,0,0,.06-.11l.6.22-2.58,2.59c-.24.25.16.61.41.36l2.74-2.76a9.77,9.77,0,0,0,1.16.28l-3.58,3.81c-.23.24.17.61.4.35l3.82-4a12.44,12.44,0,0,0,1.37.11l-4.28,4.41c-.24.25.16.61.4.36,1.44-1.48,2.88-3,4.33-4.45a.24.24,0,0,0,0-.3,12.15,12.15,0,0,0,2-.17l-5,5.08c-.24.24.16.61.4.36l5.09-5.12a.24.24,0,0,0,0-.39,13.37,13.37,0,0,0,3-1l-7.12,7.19c-.24.24.16.61.4.36l7.94-8a.22.22,0,0,0,.07-.21,14.61,14.61,0,0,0,1.66-1.12q-4.17,4.89-8.35,9.76c-.22.26.27.52.49.26l8.39-9.8c.19-.22-.13-.43-.37-.34.28-.22.55-.44.81-.68a17.71,17.71,0,0,0-.54,3.63.29.29,0,0,0-.2.08l-7.74,8.2c-.23.25.17.61.4.36l7.53-8c0,.52,0,1,0,1.58a.23.23,0,0,0-.21.08l-6.15,6.55c-.24.25.16.61.4.36l6-6.4c.06.65.16,1.29.28,1.93a.26.26,0,0,0-.19.08l-5,4.9c-.24.24.16.6.4.36l4.87-4.8a17.36,17.36,0,0,0,.69,2.26h0l-5.74,4.73c-.27.22.13.58.4.36l5.57-4.58c.08.19.18.37.27.56,0,0,0,0-.05,0l-5.6,5.52c-.25.24.15.6.4.36l5.5-5.42c.1.2.22.4.34.59a22.14,22.14,0,0,1-5.83,7c-1.47,1.27-3.37,2.07-4.95,3.26a.17.17,0,0,0-.06.16.47.47,0,0,0-.35,0,.39.39,0,0,0-.22-.38C98.17,104,95.85,103,93.93,101a17,17,0,0,1-2.82-4.09C93.56,94.16,93.67,89.92,93.09,86.13Zm-2.51,33.46,3.1-2.19a51.69,51.69,0,0,1,2.11,5.78c3.19,10.95,3.62,22.15,4.47,33.37A81.37,81.37,0,0,0,89.67,136.9c-1.26-1.76-2.58-3.49-4-5.17-.61-.75-1.24-1.49-1.87-2.22-.49-.56-2.16-1.86-2.32-2.56s1.57-2.36,2.06-3L86,120.91c1.63-2,3.31-4.07,4.77-6.21.16-.24-.23-.53-.44-.31l-.68.73a17.27,17.27,0,0,0-3.08-2.72l3.25-2.85a.23.23,0,0,0,0-.36l.06,0,1,2.08-2.29,2.06c-.26.23.14.59.4.36l2.13-1.92c.43.91.86,1.81,1.27,2.71a.28.28,0,0,0-.17.07L90,116.62c-.26.23.14.59.4.36l2.25-2c.3.65.59,1.31.88,2l-.11,0-3.19,2.25C89.89,119.43,90.29,119.79,90.58,119.59Zm-6.67-13.52,3.7-3.33a17.81,17.81,0,0,0,1,3.58l-4.56,4.27c-.08-.06-.18-.12-.26-.19-1.18-.87-2.35-1.76-3.55-2.61a.21.21,0,0,0,.17-.08l7-7.54a12.62,12.62,0,0,0,.06,1.94l-4,3.6C83.25,105.94,83.65,106.3,83.91,106.07Zm4.93.78.08.18c.26.6.54,1.2.81,1.79a.24.24,0,0,0,0,.32.3.3,0,0,0-.31,0l-3.29,2.89-1.65-1.16Zm-1.3-7.56h0L80,107.35a.25.25,0,0,0-.06.24c-.44-.31-.89-.61-1.34-.9a43,43,0,0,1,9-9.36c.28-.21-.12-.57-.4-.36a43.59,43.59,0,0,0-9.09,9.42l-.2-.13,0-.05c.25-.24-.15-.61-.4-.36a1.14,1.14,0,0,1-.11.11h0l0,0a23.57,23.57,0,0,1,5.64-6.83,22.94,22.94,0,0,1,4.21-2.75A16.75,16.75,0,0,1,89,95.65,8,8,0,0,0,87.54,99.29Zm15.76,65.18s.07,0,.1-.05l.27-.36c-.12.31-.24.62-.37.92Zm1.24-2.71c0,.16-.13.4-.23.67l-1,1.29V161.8l2.21-2.68C105.18,160,104.8,160.86,104.54,161.76Zm35.12-2.12a3.2,3.2,0,0,1-1.3,2.37,8,8,0,0,1-3.65.83h-.42l5.46-5.25s0-.06,0-.09A16.8,16.8,0,0,1,139.66,159.64Zm.15-2.82c0,.17,0,.35,0,.53a.25.25,0,0,0-.4-.11l-5.47,5.27a.22.22,0,0,0,0,.35c-1.08,0-2.15,0-3.23,0l4-4.38c.22-.24-.14-.6-.36-.36l-4.32,4.71-2.09-.09,5.24-5.79c.21-.24-.14-.6-.36-.35L128,162c.07-.74.09-1.49.14-2.22a.16.16,0,0,0-.12-.18c0-.23,0-.46,0-.69l4.37-5.11c.21-.25-.14-.61-.35-.36l-4,4.71c0-.8,0-1.59,0-2.39l2.75-3.21c.21-.24-.14-.6-.36-.35L127.91,155l-.06-1.27,1.78-2.25c.19-.25-.16-.61-.36-.36-.48.62-1,1.23-1.45,1.84-.14-3-.34-6.07-.46-9.06,0-.3-.51-.3-.51,0s0,.52,0,.78a.27.27,0,0,0-.45-.09L121,150c-.24.25.16.61.4.36L126.8,145a.15.15,0,0,0,0-.07c0,3.76-.09,7.57,0,11.36l-.3.36c-.2.23.1.55.32.38,0,.77,0,1.55.08,2.34a.25.25,0,0,0,0,.37c.06,1,.1,2,.2,2.95-2.2,1.64-5.13,2-7.86,2.43-.92.15-1.85.27-2.78.4l3.41-4.09c.21-.25-.15-.61-.36-.36l-3.79,4.55-2.57.31,5.25-6.18c.2-.25-.15-.61-.36-.36q-2.81,3.3-5.62,6.61c-.66.07-1.32.16-2,.22l-.72.05q2.88-3.36,5.77-6.71c.21-.25-.15-.61-.36-.36l-6.12,7.12-2.36.17,6.72-7.57c.21-.25-.14-.61-.36-.36l-7.06,8c-.92.05-1.84.06-2.76.08v-.12a11.71,11.71,0,0,0,.95-1.38l1.14-3.52c.18-.55.37-1.09.56-1.64q2.18-2.73,4.33-5.48c.2-.25-.16-.61-.36-.35l-3.43,4.34c2.07-5.56,4.74-11,7.12-16.43,2.7-6.15,5.65-12.26,8-18.52a.25.25,0,0,0,.1-.34.48.48,0,0,0-.33-.43,93.06,93.06,0,0,0-8.52-8.26l2-2.42a27.46,27.46,0,0,0,3.45-4.14c.17-.25-.21-.5-.44-.31a36.06,36.06,0,0,0-5.86,6.57.16.16,0,0,0,0,.21c-.22.21-.38.55-.23.71,1.54,1.52,7.26,7.24,8.76,8.11-2.88,6-5.27,12.16-7.86,18.23l-.54,1.29c-1.41,3.3-2.79,6.61-4.17,9.92l-1,2.49c-.45,1.09-.89,2.25-1.26,3.37a.21.21,0,0,0-.34,0c-.71.85-1.41,1.71-2.12,2.57v-2.12a6.55,6.55,0,0,1,1.81-2.08c.26-.19,0-.63-.25-.43a6.83,6.83,0,0,0-1.43,1.41c0-.37,0-.73,0-1.1l2.21-2.62c.21-.24-.14-.6-.36-.36l-1.82,2.16c0-.72.06-1.44.1-2.16l1.79-1.9c.22-.24-.14-.6-.36-.36-.46.5-.93,1-1.4,1.49,0-.45,0-.9.07-1.35,0,0,0,0,.05,0l1.41-1.54c.21-.24-.14-.6-.36-.36l-1,1.14c0-.45.07-.89.1-1.34l.34-.48c.15-.21-.08-.4-.28-.35.07-1,.12-1.95.21-2.92a130.5,130.5,0,0,1,3.31-20.28c1.32-5.22,3.19-10.29,4.7-15.46.21-.72.41-1.46.59-2.19l2.6-1.88c-.76,1.07-1.56,2.11-2.41,3.13-.27.32.32.72.62.43a34.58,34.58,0,0,0,4.61-5.6l.12-.08a.19.19,0,0,0,.08-.23,37.05,37.05,0,0,0,5.59-25c-1.44-10.47-7.78-20.19-17-26.66a52.07,52.07,0,0,0-8.52-4.69c-4-1.77-8.5-4.5-7.27-9.09a.21.21,0,0,0-.39-.15,4.88,4.88,0,0,0,.29,5.18s-4.52,4.89-4.9,5.38a28,28,0,0,0-3.37,5.55A32.44,32.44,0,0,0,80,67.18a32.08,32.08,0,0,0,2.9,13.38c1.64,3.65,4.09,8.06,7.59,10.6.28.43.53.87.77,1.31a8.45,8.45,0,0,1,.26.81c-.07.23-.15.47-.23.7a.45.45,0,0,0-.29-.12c-2.27,0-4.63,1.28-6.4,2.62a13.67,13.67,0,0,1-2.27,1.76,17.81,17.81,0,0,1-2.88.77c-1.27-2-2.7-4-3.84-6a57.44,57.44,0,0,1-3.74-8.24,53.37,53.37,0,0,1-2-7c.31,1.13.66,2.24,1.07,3.35,2,5.33,5.14,10.85,9.67,14.81.34.3,1-.12.7-.49-4.25-5-7.84-10-9.87-16.06a37.41,37.41,0,0,1-1.37-18.65A42.06,42.06,0,0,1,78,43.51c3.17-4.29,7.85-9.87,14.37-8.83.28,0,.4-.33.13-.39l.05,0c.8-1,3.3-1.73,4.6-2a20.86,20.86,0,0,1,6.06-.15,23.5,23.5,0,0,1,11.1,4.47C119.88,40.74,123,47,124.91,53.11a70.23,70.23,0,0,1,2.92,21.18,78.84,78.84,0,0,1-2,15.8c-.67,3.18-.94,6.47-2.15,9.54a40,40,0,0,1-5.44,8.81c-.16.2.21.46.38.27a33.69,33.69,0,0,0,5.5-8.5c1.33,1.24,2.85,2.35,4.3,3.47,1,.8,2,1.68,3.1,2.4,2,1.29,2.45,3.33,3.05,5.35.77,2.57,1.49,5.14,2.14,7.74a117.62,117.62,0,0,1,2.86,15.54,115.32,115.32,0,0,1,.68,13.9C140.22,151.35,140,154.08,139.81,156.82Z" transform="translate(-58.99 -31.3)"/><path class="cls-1" d="M91.58,44.64l-4.5,5c-.23.25.17.61.41.36L92,45C92.21,44.75,91.81,44.38,91.58,44.64Z" transform="translate(-58.99 -31.3)"/><path class="cls-1" d="M106,58.29l2.5-2c.27-.22-.13-.58-.4-.36l-2.5,2C105.33,58.15,105.73,58.51,106,58.29Z" transform="translate(-58.99 -31.3)"/><path class="cls-1" d="M106.82,60.05l3.4-3.24c.25-.24-.15-.6-.4-.36l-3.41,3.24C106.16,59.93,106.56,60.29,106.82,60.05Z" transform="translate(-58.99 -31.3)"/><path class="cls-1" d="M110.63,63.66l3.57-2.58c.29-.21-.12-.57-.4-.36l-3.58,2.58C109.94,63.5,110.34,63.86,110.63,63.66Z" transform="translate(-58.99 -31.3)"/><path class="cls-1" d="M112.1,66.62l4.33-2.76a.26.26,0,0,0-.29-.44l-4.33,2.76A.26.26,0,1,0,112.1,66.62Z" transform="translate(-58.99 -31.3)"/><path class="cls-1" d="M103.38,111.78l1.51-.86c.31-.17,0-.61-.29-.44l-1.51.86C102.79,111.51,103.07,112,103.38,111.78Z" transform="translate(-58.99 -31.3)"/><path class="cls-1" d="M104,114.21l2.61-1.41c.32-.17,0-.61-.28-.44l-2.62,1.41C103.38,113.93,103.66,114.38,104,114.21Z" transform="translate(-58.99 -31.3)"/><path class="cls-1" d="M104.7,115.51l2.45-1.54a.26.26,0,1,0-.28-.44l-2.46,1.54A.26.26,0,1,0,104.7,115.51Z" transform="translate(-58.99 -31.3)"/><path class="cls-1" d="M104.18,116.49c-.27.22.13.58.4.36l3-2.4c.28-.21-.13-.57-.4-.36Z" transform="translate(-58.99 -31.3)"/><path class="cls-1" d="M103.78,119.53l4-3.07c.27-.22-.13-.58-.4-.37l-4,3.08C103.1,119.38,103.5,119.74,103.78,119.53Z" transform="translate(-58.99 -31.3)"/><path class="cls-1" d="M103.9,121.8a.33.33,0,0,0,.27,0l1.89-1.36c.28-.21-.12-.57-.4-.36l-1.81,1.3h-.08a.26.26,0,1,0,0,.51A.25.25,0,0,0,103.9,121.8Z" transform="translate(-58.99 -31.3)"/><path class="cls-1" d="M107,120.71l-3.41,2.72c-.27.22.13.58.4.37l3.41-2.73C107.65,120.85,107.25,120.49,107,120.71Z" transform="translate(-58.99 -31.3)"/><path class="cls-1" d="M106.24,123.8l-2.44,1.72c-.29.2.11.56.4.36l2.44-1.72C106.93,124,106.53,123.6,106.24,123.8Z" transform="translate(-58.99 -31.3)"/><path class="cls-1" d="M103.19,128.54l3-2.39c.28-.22-.13-.58-.4-.36l-3,2.39C102.51,128.4,102.92,128.76,103.19,128.54Z" transform="translate(-58.99 -31.3)"/><path class="cls-1" d="M103,133.17l1.7-1.19c.29-.2-.11-.56-.4-.36l-1.7,1.19C102.34,133,102.74,133.37,103,133.17Z" transform="translate(-58.99 -31.3)"/><path class="cls-1" d="M102.37,138.19l1.64-1.58c.25-.24-.15-.6-.4-.36L102,137.83C101.72,138.07,102.11,138.44,102.37,138.19Z" transform="translate(-58.99 -31.3)"/><path class="cls-1" d="M101.7,114.75a.26.26,0,1,0,0-.51c-1.2.07-1.74-1.19-.82-1.88.29-.21-.12-.57-.4-.36A1.55,1.55,0,0,0,101.7,114.75Z" transform="translate(-58.99 -31.3)"/><path class="cls-1" d="M101.59,122.15a.93.93,0,0,1-1.1,0,.9.9,0,0,1-.14-.2,1.08,1.08,0,0,1,0-.47h0a.88.88,0,0,1,.09-.2.75.75,0,0,1,.07-.12.21.21,0,0,0,.05-.12.93.93,0,0,1,.81-.37c.33,0,.33-.49,0-.5a1.44,1.44,0,0,0-1.4.85,1.16,1.16,0,0,0,.17,1.49,1.55,1.55,0,0,0,1.9,0C102.27,122.3,101.86,121.94,101.59,122.15Z" transform="translate(-58.99 -31.3)"/><path class="cls-1" d="M73.26,105.85l4.95-4.23c.27-.23-.13-.59-.4-.36l-5,4.23C72.6,105.72,73,106.08,73.26,105.85Z" transform="translate(-58.99 -31.3)"/><path class="cls-1" d="M81,109.88l-4.27,3.49c-.27.22.13.59.4.36l4.27-3.49C81.63,110,81.23,109.66,81,109.88Z" transform="translate(-58.99 -31.3)"/><path class="cls-1" d="M77.92,115a.3.3,0,0,0,.36,0l3.93-3.11c.28-.21-.12-.58-.4-.36l-3.83,3a.29.29,0,0,0-.14,0,.26.26,0,1,0,0,.51Z" transform="translate(-58.99 -31.3)"/><path class="cls-1" d="M79.36,116.79l4.16-3.58c.26-.22-.14-.58-.4-.36L79,116.43C78.69,116.66,79.09,117,79.36,116.79Z" transform="translate(-58.99 -31.3)"/><path class="cls-1" d="M79,118.59a.26.26,0,1,0,0,.51.21.21,0,0,0,.14,0,.27.27,0,0,0,.22-.06l5.5-4.43c.27-.22-.13-.58-.4-.36L79,118.59Z" transform="translate(-58.99 -31.3)"/><path class="cls-1" d="M80.07,120.85l5.69-5.44c.25-.24-.15-.6-.4-.36l-5.7,5.44C79.42,120.73,79.82,121.09,80.07,120.85Z" transform="translate(-58.99 -31.3)"/><path class="cls-1" d="M84.93,117.23l-5.82,6c-.24.25.16.61.4.36l5.83-6C85.58,117.34,85.18,117,84.93,117.23Z" transform="translate(-58.99 -31.3)"/><path class="cls-1" d="M82.14,122.89l-4.36,4.77c-.23.25.17.61.4.36l4.36-4.77C82.77,123,82.37,122.64,82.14,122.89Z" transform="translate(-58.99 -31.3)"/><path class="cls-1" d="M81.45,130.27c.25-.24-.15-.6-.4-.36L79,132c-.25.24.15.6.4.36Z" transform="translate(-58.99 -31.3)"/><path class="cls-1" d="M82,131.64l-2.67,2.72c-.24.24.16.61.4.36L82.43,132C82.67,131.76,82.27,131.4,82,131.64Z" transform="translate(-58.99 -31.3)"/><path class="cls-1" d="M83.09,132.69l-3,3.92c-.21.27.28.53.49.26l3-3.92C83.79,132.68,83.3,132.42,83.09,132.69Z" transform="translate(-58.99 -31.3)"/><path class="cls-1" d="M85.06,133.86l-4,4.1c-.24.25.16.61.4.36l4-4.1C85.7,134,85.3,133.61,85.06,133.86Z" transform="translate(-58.99 -31.3)"/><path class="cls-1" d="M86,135.86,82.56,139c-.26.23.15.59.4.36l3.39-3.09C86.61,136,86.21,135.63,86,135.86Z" transform="translate(-58.99 -31.3)"/><path class="cls-1" d="M84.84,142.7l3.79-3.24c.26-.22-.14-.59-.4-.36l-3.79,3.24C84.18,142.57,84.58,142.93,84.84,142.7Z" transform="translate(-58.99 -31.3)"/><path class="cls-1" d="M89.25,140.55,84.93,145a.32.32,0,0,0-.36.16l-.18.44c-.1.24.29.44.47.25l4.79-5C89.89,140.66,89.48,140.3,89.25,140.55Z" transform="translate(-58.99 -31.3)"/><path class="cls-1" d="M90.65,142.31l-5.23,5c-.26.24.15.6.4.36l5.23-5C91.3,142.43,90.9,142.07,90.65,142.31Z" transform="translate(-58.99 -31.3)"/><path class="cls-1" d="M91.49,144.6l-4.16,4.6s0,.05,0,.07a.26.26,0,1,0,0,.51.28.28,0,0,0,.24-.13.24.24,0,0,0,.19-.09L91.9,145C92.12,144.7,91.72,144.34,91.49,144.6Z" transform="translate(-58.99 -31.3)"/><path class="cls-1" d="M93.13,147.78l-5.1,5.3c-.24.25.16.61.4.36l5.1-5.3C93.77,147.9,93.37,147.53,93.13,147.78Z" transform="translate(-58.99 -31.3)"/><path class="cls-1" d="M89.76,155.82l5.84-5.31c.25-.23-.15-.59-.4-.36l-5.85,5.31C89.1,155.69,89.5,156.05,89.76,155.82Z" transform="translate(-58.99 -31.3)"/><path class="cls-1" d="M96.06,153l-4.92,4.43c-.26.24.14.6.4.37l4.92-4.44C96.72,153.1,96.32,152.74,96.06,153Z" transform="translate(-58.99 -31.3)"/><path class="cls-1" d="M97,155.65,92.6,159.4c-.27.23.13.59.4.36L97.35,156C97.62,155.78,97.21,155.42,97,155.65Z" transform="translate(-58.99 -31.3)"/><path class="cls-1" d="M100.16,160.08l-4.26,3.5c-.27.22.13.58.4.36l4.27-3.5C100.84,160.22,100.43,159.86,100.16,160.08Z" transform="translate(-58.99 -31.3)"/><path class="cls-1" d="M100.48,163.87a3.11,3.11,0,0,1-2.38,1.46c-.36,0-.37.54,0,.51a3.68,3.68,0,0,0,2.87-1.71C101.14,163.84,100.65,163.58,100.48,163.87Z" transform="translate(-58.99 -31.3)"/><path class="cls-1" d="M84.15,109.09c1.27-1.47,2.53-3,3.79-4.42.23-.26-.26-.52-.48-.26q-1.9,2.2-3.79,4.43C83.44,109.1,83.94,109.35,84.15,109.09Z" transform="translate(-58.99 -31.3)"/><path class="cls-1" d="M85.82,39.34C77.17,44.91,72.94,54.66,72.62,64A43.35,43.35,0,0,0,75.4,80.12a69.23,69.23,0,0,0,3.33,7.62c1.42,2.8,2.86,5.92,4.93,8.36.16.19.59.09.47-.18-1-2.31-2.59-4.44-3.8-6.68a72,72,0,0,1-3.75-8,45.15,45.15,0,0,1-3.34-16.07A30.79,30.79,0,0,1,86,39.59C86.18,39.48,86,39.24,85.82,39.34Z" transform="translate(-58.99 -31.3)"/><path class="cls-1" d="M78.94,54.92c.06-.21-.29-.29-.35-.09a38.19,38.19,0,0,0-.71,19.22c1.37,6.17,4.22,12.73,9,17.46.2.2.57-.06.41-.28-3.84-5.39-7-10.74-8.55-17.06A39.09,39.09,0,0,1,78.94,54.92Z" transform="translate(-58.99 -31.3)"/><path class="cls-1" d="M123.67,92.77C128,83.53,127,72.51,121.89,63.7A37.66,37.66,0,0,0,110.63,52c-5.23-3.69-11-6.73-15.9-10.78-.16-.13-.39.07-.24.21,8.3,7.76,19.94,12,26.1,21.66a32,32,0,0,1,2.66,29.61C123.16,92.91,123.57,93,123.67,92.77Z" transform="translate(-58.99 -31.3)"/><path class="cls-1" d="M119.42,54.92c5.52,7.33,7.61,15.64,7.59,24.39,0,.27.43.26.46,0,1.06-8.55-2.17-17.66-7.45-24.71-6-8-15-12.77-24.22-17.09-.22-.1-.41.19-.2.3C104.57,42.42,113.5,47,119.42,54.92Z" transform="translate(-58.99 -31.3)"/><path class="cls-1" d="M113.36,80.24c-.1-.2-.44-.13-.38.09a36.11,36.11,0,0,1,1.3,12.94c0,.24.41.29.46.06A21.15,21.15,0,0,0,113.36,80.24Z" transform="translate(-58.99 -31.3)"/><path class="cls-1" d="M121.14,130.05c.86-1.36,1.71-2.73,2.56-4.09.18-.29-.31-.55-.49-.26-.85,1.37-1.71,2.73-2.56,4.09C120.47,130.08,121,130.34,121.14,130.05Z" transform="translate(-58.99 -31.3)"/><path class="cls-1" d="M120.91,132.89l3.17-4.32c.2-.27-.29-.53-.49-.25l-3.17,4.32C120.22,132.91,120.71,133.17,120.91,132.89Z" transform="translate(-58.99 -31.3)"/><path class="cls-1" d="M124.75,121.58c.31,2.46.75,4.92,1.25,7.38a.22.22,0,0,0-.16.11l-5.12,7.66c-.19.28.3.54.49.26l4.92-7.37c.4,1.94.82,3.87,1.24,5.79.06.27.5.15.45-.11-.77-4.59-1.5-9.25-2.68-13.77C125.09,121.33,124.73,121.37,124.75,121.58Z" transform="translate(-58.99 -31.3)"/><path class="cls-1" d="M120.72,141.38l4.85-7.41c.18-.28-.31-.54-.49-.26l-4.85,7.41C120.05,141.4,120.54,141.66,120.72,141.38Z" transform="translate(-58.99 -31.3)"/><path class="cls-1" d="M124.65,138.25l-4.27,5.1c-.22.26.27.52.49.26l4.27-5.11C125.36,138.24,124.87,138,124.65,138.25Z" transform="translate(-58.99 -31.3)"/><path class="cls-1" d="M125.26,142c-1.24,1.44-2.49,2.87-3.74,4.31-.22.25.18.62.4.36,1.25-1.44,2.5-2.87,3.74-4.31A.27.27,0,0,0,125.26,142Z" transform="translate(-58.99 -31.3)"/><path class="cls-1" d="M121.55,155.44q2.11-2.7,4.24-5.38c.21-.27-.28-.53-.49-.26l-4.25,5.38C120.84,155.45,121.33,155.7,121.55,155.44Z" transform="translate(-58.99 -31.3)"/><path class="cls-1" d="M121.36,159l3.68-3.32c.26-.24-.14-.6-.4-.37L121,158.6C120.7,158.84,121.1,159.2,121.36,159Z" transform="translate(-58.99 -31.3)"/><path class="cls-1" d="M125.58,160.48l-4.24,3.34c-.28.21.13.57.4.36l4.24-3.34C126.26,160.62,125.86,160.26,125.58,160.48Z" transform="translate(-58.99 -31.3)"/><path class="cls-1" d="M101.45,107.29l-4.66,4c-.26.23.14.59.4.36l4.66-4C102.12,107.43,101.72,107.07,101.45,107.29Z" transform="translate(-58.99 -31.3)"/><path class="cls-1" d="M99.61,110.75a.26.26,0,1,0,0,.51A.26.26,0,1,0,99.61,110.75Z" transform="translate(-58.99 -31.3)"/><path class="cls-1" d="M90.55,163.35l-2.1,2.1c-.23.23.12.59.35.36l2.11-2.1A.25.25,0,0,0,90.55,163.35Z" transform="translate(-58.99 -31.3)"/><path class="cls-1" d="M69.73,157.68l-4.2,4c-.24.22.12.58.35.36l4.2-4C70.32,157.81,70,157.46,69.73,157.68Z" transform="translate(-58.99 -31.3)"/><path class="cls-1" d="M109.29,159.56q-2.85,3.25-5.69,6.52c-.22.24.14.6.35.36q2.85-3.27,5.69-6.53C109.85,159.67,109.5,159.31,109.29,159.56Z" transform="translate(-58.99 -31.3)"/><path class="cls-1" d="M99.83,128.06a.24.24,0,0,0-.14.05,1.5,1.5,0,0,0,1,2.47c.36,0,.51-.45.15-.49a1.09,1.09,0,0,1-.94-1.11s0,0,0,0a.64.64,0,0,1,.07-.27,1.36,1.36,0,0,1,.12-.17.66.66,0,0,1,.82-.15.25.25,0,0,0,.25-.44A1.16,1.16,0,0,0,99.83,128.06Z" transform="translate(-58.99 -31.3)"/></g></svg>